<svg xmlns="http://www.w3.org/2000/svg" width="316.951" height="228.35" viewBox="0 0 316.951 228.35">
  <g id="Group_1629" data-name="Group 1629" transform="translate(-31.045 -307.65)">
    <g id="Group_1628" data-name="Group 1628" transform="translate(112.996 -112)">
      <g id="Group_1627" data-name="Group 1627" transform="translate(-56.83 356)">
        <path id="Path_17859" data-name="Path 17859" d="M141.377,105.955c-2.505.36-3.281,1.595-2.578,3.921.692,2.292.981,4.687,1.642,6.989.3,1.047.482,3.061,2.558,1.21.574-.515,1.144-.048,1.695.18q7.112,2.944,14.219,5.894c.508.211,1.425.248,1.144,1.042-.389,1.1-1.215.281-1.73.1-3.02-1.092-6.007-2.267-9.478-3.6,1.007,2.532,1.792,4.749,2.779,6.883.625,1.351.369,2.18-1.038,2.78-1.8.769-3.155,2.55-5.877,2.352a13.009,13.009,0,0,1,4.268-2.945c1.175-.656,1.617-1.224.981-2.542a57.26,57.26,0,0,1-2.7-6.674c-.475-1.406-1.812-1.6-2.835-1.824-1.12-.244-.988,1.127-1.211,1.8-3.338,9.973-6.555,19.981-9.964,29.933-.559,1.632.04,1.93,1.4,2.37,3.475,1.123,7.107,2.064,9.345,5.156a1.262,1.262,0,0,0,1.39.4c2.167-.321,3.007.8,3.407,2.548.236,1.042.756,2.037.906,3.084.152,1.063,1.637,2.569-.912,3.034-.579.105-.274.854-.234,1.326a100.236,100.236,0,0,1,.247,16.569c-.146,1.892.537,2.139,2.3,1.812,4.138-.769,8.294-1.464,12.465-2.06,1.721-.246,1.719-1.127,1.706-2.414-.011-1.1-.919-2.935.521-3.15,1-.149.879,1.919.864,2.97-.022,1.636.6,1.909,2.176,1.644,5.24-.879,5.274-.85,3.228-5.344a130.717,130.717,0,0,0-6.02-11.942c0,2.511.031,5.02-.018,7.528-.013.687.267,1.841-.7,1.882-1.164.048-.683-1.121-.683-1.746a251.093,251.093,0,0,0-1.56-29.406,98.719,98.719,0,0,0-2.183-12.43c-.15-.6-.769-1.421.221-1.677,1.018-.267.895.767,1.058,1.328,1.739,5.988,2.337,12.145,2.934,18.291.327,3.367.5,6.751.6,10.132a8.919,8.919,0,0,0,1.118,3.5c2.58,5.595,5.2,11.175,7.805,16.757.325.7.232,1.63,1.538,1.671,1.22.041.972-.995,1.423-1.328a43.3,43.3,0,0,1,5.132-2.991c.356-.194.674.039.848.354.21.378-.075.658-.349.827-.784.488-1.608.918-2.55,1.448,1.721.608,3.078-.343,4.529-.583.577-.1,1.3-.54,1.547.261.234.778-.594.831-1.169,1.009a157.311,157.311,0,0,1-17.933,3.965c-5.6,1.044-11.217,1.967-17.334,3.03,3.555,2.509,5.236,5.328,3.071,9.367,5.13,0,10.008.081,14.884-.021,6.955-.143,13.927.323,20.867-.438a10.784,10.784,0,0,0,5.15-1.754,5.142,5.142,0,0,0,2.36-5.839,45.251,45.251,0,0,0-3.17-8.1c-.245-.532-.729-1.173-.053-1.535.789-.422.992.432,1.239.893a33.633,33.633,0,0,1,3.3,8.052c1,4.165-.923,7.264-5.207,8.79a20.586,20.586,0,0,1-6.725,1.071c-5.2.064-10.4.217-15.6.188-1.772-.008-2.592.254-2.189,2.143a32.523,32.523,0,0,1,.334,4.438c.04.556.32,1.293-.519,1.427-.99.161-.738-.7-.806-1.2a16.043,16.043,0,0,1-.369-3.688c.243-2.449-.63-3.3-3.352-3.071a99.183,99.183,0,0,1-10.046.1c-.957-.019-2.351.664-2.682-1.119-.124-.66-1.087-.238-1.65-.19a41.138,41.138,0,0,1-14.363-.96c-1.591-.43-1.553.209-1.535,1.27.042,2.312.009,4.625,0,6.935,0,.581,0,1.332-.8,1.326-.939-.008-.6-.858-.605-1.349-.042-2.558-.1-5.121.015-7.675a1.827,1.827,0,0,0-1.613-2.091c-2.7-.745-5.408-1.45-8.06-2.31-1.288-.42-2.667-1.1-.9-2.579.488-.409.276-.9.212-1.379-.725-5.624-1.593-11.239-.877-16.966-1.2.021-1.376.9-1.785,1.448-4.67,6.3-9.193,12.693-14,18.9a12.632,12.632,0,0,0-2.545,7.582c-.1,2.058-.351,4.107-.541,6.159-.038.4-.029.9-.616.912-.784.021-.718-.548-.678-1.04.2-2.44.4-4.879.654-7.919a28.689,28.689,0,0,1-7.346,6.24c-4.8,2.871-9.7,2.668-13.406-.47a8.65,8.65,0,0,1-1.935-10.478c.223-.385.382-.757.932-.639.568.12.588.509.46.951-.159.556-.289,1.121-.462,1.675-.917,2.943-.464,5.566,2.121,7.636a8.544,8.544,0,0,0,9.1,1.351,19.822,19.822,0,0,0,8.572-6.387q10.422-14.147,20.781-28.333c.638-.871,1.626-1.559-.431-2.227-5.649-1.83-5.614-1.923-6.867-7.574-3.325,3.293-6.531,6.434-9.7,9.613a73.077,73.077,0,0,0-6.338,6.633c-1.644,2.132-3.968,2.6-6.31,3.272-.468.132-1.113.4-1.312-.285-.186-.643.515-.751.952-.976,1.668-.852,3.561-1.1,5.119-2.381,3.659-3.018,4.366-6.931,4.58-11.1,0-2.771-.011-5.539,1.175-8.167a2.873,2.873,0,0,0,.084-1.715c-1.354-6.835.051-13.6.605-20.376.08-.966.323-2.227,1.708-2.027,1.279.186,1.3,1.429,1.2,2.43a108.516,108.516,0,0,0-.866,16.742c.044,2.629.024,5.257,0,7.882a59.316,59.316,0,0,0-.035,6.517c1.907-1.262,2.808-3,4.237-4.252,1.288-1.123,2.443-2.385,3.773-3.466,1.933-1.574,2.751-1.332,3.705,1.04,2.567-2.627,5.181-5.183,8.63-6.775,1.447-.67,1.295-1.293.179-2.139-3.29-2.49-6.54-5.024-9.851-7.487-3.135-2.331-3.21-2.61-1.8-6.014s1.447-3.473-2.141-5.255c-1.778-.883-2.472-1.95-1.73-3.785.623-1.543,1.078-3.144,1.644-4.705.294-.809.87-1.621,1.913-1.268.877.3.76,1.218.638,1.961a13.583,13.583,0,0,1-.977,3.336c-.6,1.328-.179,2.219,1.142,2.842.314.147-.066-.056.228.126,4.094,2.507,4.193,2.548,2.258,6.8-.93,2.039-.519,3.282,1.359,4.606q5.166,3.648,10.1,7.594a6.246,6.246,0,0,0,3.369,1.772,41.474,41.474,0,0,0-2.245-6.064c-2.934-7.429-5.753-14.9-8.808-22.281-1.018-2.461-1.151-2.4-3.893-1.655-5.309,1.454-10.256,3.851-15.589,5.2a8.513,8.513,0,0,0-6.4,5.967,154.091,154.091,0,0,0-5.086,18.6c-1.77,8.5-3.767,16.951-5.271,25.495-.208,1.177-.952,2.11-1.2,3.233-.687,3.644-1.348,7.295-2.081,10.931-.128.635.236,1.9-.862,1.729-1.275-.194-.5-1.363-.4-2.079,1.321-8.883,3.047-17.7,4.885-26.5a300.686,300.686,0,0,1,7.344-29.778c.376-1.181.844-2.335,1.228-3.514.943-2.9,2.916-4.618,6.069-5.586,6.509-2,12.9-4.316,19.36-6.451a2.489,2.489,0,0,1,2.587.05c1.48.918,2.687-.635,2.969-1.8.718-2.96,1.056-6,1.553-9.007.119-.718-.3-1.051-.948-1.266-6.475-2.155-10.273-6.953-13.72-12.124a9.564,9.564,0,0,0-2.059-2.223c-3.871-3.007-4.823-5.959-3.261-10.467a19.374,19.374,0,0,1,1.9-2.571c.5-.575.983-1.454,2.057-.736,1.1,3.816,1.147,7.822,2.521,11.6,1.829,5.03,4.374,9.526,9.16,12.676a30.913,30.913,0,0,0,4.478,2.1,2.8,2.8,0,0,1,1.909,3.353c-.411,2.778-.985,5.532-1.332,8.318a4.1,4.1,0,0,1-1.741,2.962c-1.686,1.162-1.737,2.536-.859,4.12,3.126,8.354,6.586,16.6,9.544,24.5,2.706-7.7,5.276-16.113,8.152-24.44.822-1.77,1.153-3.439-.714-4.908a3.481,3.481,0,0,1-.994-1.992c-.689-2.807-1.3-5.628-1.938-8.447a2.907,2.907,0,0,1,1.776-3.7c9.171-3.936,13.044-11.053,13.79-20.06a15.034,15.034,0,0,0,.278-3.694c.051-.821-.029-1.828.939-2.147,1.08-.354,1.772.463,2.357,1.21a6.347,6.347,0,0,0,.627.794,7.745,7.745,0,0,1-2,10.161,4.608,4.608,0,0,0-1.752,2.323c-1,5.309-4.7,8.767-9.171,11.692a2.918,2.918,0,0,1-1.94.639" transform="translate(93.622 83.991)" fill="#292d2d"/>
        <path id="Path_17860" data-name="Path 17860" d="M93.528,95.481c-1.443.914-1.792,2.831-3.586,3.423-1.487-9.423-.568-18.488,5.388-26.508,8.694-11.7,27.632-12.629,37.766-1.95,7.09,7.47,10.51,16.068,8.74,26.163a6.584,6.584,0,0,0,.02,1.233c-1.067-.426-1.975-1.985-2.925-1.493-1.018.527-.161,2.091-.316,3.191-.108.792.128,1.636-.429,2.358-1.06-.819-.74-1.971-.742-3-.007-1.348-.519-2.033-2.041-1.863-.347.039.082-.027-.263.021-11.23,1.584-19.7-3.578-27.707-9.9-3.2-2.527-3.177-2.521-6.14.287-2.717,2.573-4.719,5.75-7.766,8.041" transform="translate(108.01 67.291)" fill="#292d2d"/>
        <path id="Path_17862" data-name="Path 17862" d="M106.368,98.209a25.433,25.433,0,0,0,11.111-12.331,2.913,2.913,0,0,0,.475,2.314c3.61,4.565,7.061,9.239,11.526,13.154A24.147,24.147,0,0,0,136,105.487a10.612,10.612,0,0,0,6.665.393,21.776,21.776,0,0,1-12.211,5.7c-10.275,1.45-17.224-1.82-22.378-10.312-.608-1-1.14-2.039-1.706-3.061" transform="translate(128.631 91.737)" fill="#292d2d"/>
        <path id="Path_17863" data-name="Path 17863" d="M116.646,101.687a28.752,28.752,0,0,1,2.5,1.861,29.272,29.272,0,0,1,5.645,7.421c7.54,13.592,14.427,27.476,21.2,41.41.146.3.254.614.4.916.274.592.778,1.342-.141,1.657-.736.252-.89-.608-1.136-1.1-3.022-6.126-5.958-12.291-9.074-18.374-3.952-7.717-8.022-15.379-12.094-23.042-1.851-3.485-3.994-6.8-7.443-9.154-.493-.337-.725-.724-.537-1.245.055-.149.391-.207.683-.347" transform="translate(140.156 108.625)" fill="#292d2d"/>
        <path id="Path_17864" data-name="Path 17864" d="M114.977,112.959c2.289,0,4.58-.01,6.869.006.921.006,2.247-.246,1.931,1.21-.278,1.284.833,3.462-1.518,3.642-3.851.3-7.741.13-11.614.149-.455,0-.972-.128-.948-.629.031-.647.647-.662,1.18-.672q4.752-.09,9.5-.176c.864-.017,1.858.172,1.823-1.14-.04-1.444-1.2-.9-1.931-.914-3.347-.05-6.694.043-10.037-.056-1.573-.048-2.682-.052-1.962,1.9.177.482.307,1.322-.513,1.435-1.06.147-.893-.757-.977-1.371a12.2,12.2,0,0,0-.223-1.715c-.369-1.309.084-1.785,1.549-1.727,2.284.089,4.578.023,6.867.023v.037" transform="translate(128.718 120.597)" fill="#292d2d"/>
        <path id="Path_17865" data-name="Path 17865" d="M103.692,124.49a3.3,3.3,0,0,1-.6-.393c-.32-.327-.06-.625.186-.825a18.817,18.817,0,0,1,1.67-1.21c3.55-2.3,6.992-4.767,10.706-6.8,2.4-1.313,2.234-2.356.68-4.06-1.253-1.373-2.269-2.935-3.387-4.418-.316-.418-.638-.941-.119-1.313.541-.387.961.091,1.262.492,1.721,2.294,3.407,4.608,5.148,6.887.568.745.619,1.32-.239,1.87Q111.7,119.4,104.414,124.1c-.212.137-.444.244-.722.393" transform="translate(124.485 112.512)" fill="#292d2d"/>
        <path id="Path_17866" data-name="Path 17866" d="M86.925,128.8a13.6,13.6,0,0,1-3.263,3.324.511.511,0,0,1-.767-.6,9.118,9.118,0,0,1,3.126-3.5c.555-.389.886.105.9.771" transform="translate(100.198 136.618)" fill="#292d2d"/>
        <path id="Path_17867" data-name="Path 17867" d="M91.222,84.529c2.713-4.087,6.292-7.483,9.9-10.86.972-.91,1.6-.139,2.24.331q3.231,2.345,6.4,4.767c6.776,5.2,14.394,7.932,23.235,6.682,2.5-.354,3.042.5,2.815,2.544a20.963,20.963,0,0,0,.073,2.951c-.488,9.185-4.626,16.236-13.751,20.244-1.714.753-2.081,1.677-1.679,3.274.689,2.716,1.22,5.464,1.858,8.19.166.709.108,1.652.84,2.017,2.967,1.477,1.608,3.462.846,5.4-.148.089-.287.236-.444.254-6.131.757-12.257,1.084-18.364-.186-1.337-1.946-1.792-3.69,1-4.966a2.8,2.8,0,0,0,1.487-2.223c.477-3.086.9-6.178,1.443-9.251a1.458,1.458,0,0,0-1.147-1.882c-10.887-3.743-14.3-12.312-16.075-21.907-.329-1.777-.453-3.586-.672-5.379" transform="translate(110.314 78.243)" fill="#fefefe"/>
        <path id="Path_17868" data-name="Path 17868" d="M123.465,137.758c0,1.154.018,2.308,0,3.462-.108,5.758-.113,5.779-6.374,5.634-2.371-.056-4.746-.36-7.11-.3-1.407.037-3.5-.23-2.861,2.325.208.823-.667.467-1.06.5a36.063,36.063,0,0,1-6.3-.436c-.946-.074-1.089-.534-1.217-1.262a81.074,81.074,0,0,1-.912-18.728c.086-1.493,1.529-2.885.267-4.509a.942.942,0,0,1,.605-1.224c3.029-.786,5.605-3.183,9.226-1.9,1.944.687,4.14.709,6.182,1.189,2.212.519,3.868-.105,4.536-2.07.32-.943,1.737-.9,1.562-2,1.045-.124,2.3-.836,2.417,1.069.369,6.083,1.178,12.143,1.038,18.25" transform="translate(117.861 126.271)" fill="#fdfdfd"/>
        <path id="Path_17869" data-name="Path 17869" d="M97.543,100.788l18.808-.068q-4.169,12.689-8.336,25.375l-.563.112-9.909-25.418" transform="translate(117.959 107.591)" fill="#6fa6d6"/>
        <path id="Path_17871" data-name="Path 17871" d="M111.88,117.612c-.316.081-.828.081-.91.259-.347.738.444.751.853.9a17.894,17.894,0,0,1,5.667,2.724c-2.958-.019-5.172-1.528-7.8-1.152,2.514,1.355,5.388,2.052,8.17,4.062-2.143-.362-3.758-.6-5.353-.91-2.89-.573-5.744-1-8.285.964-1.558,1.206-3.21-.267-5.055.168.769.97,2.156,2.074.336,2.912-1.785.819-3.413-.325-4.677-1.264-1.211-.9-.044-1.874.7-2.7A33.454,33.454,0,0,1,103.8,116.4a10.116,10.116,0,0,1,7.565-.987c1.275.275,1.1.91,1.122,1.665.106.482-.013.743-.605.538" transform="translate(114.034 122.947)" fill="#fafaf9"/>
        <path id="Path_17872" data-name="Path 17872" d="M98.4,135.287a37.8,37.8,0,0,1,8.855,1.057,21.9,21.9,0,0,0,6.29.265c.535-.05,1.138-.2,1.206-.749.077-.625-.583-.7-1.074-.865-1.929-.668-4.061-.858-6.433-2.389a34.284,34.284,0,0,1,4.408.029c3.815.569,7.706-.7,11.482.451a7.969,7.969,0,0,1,3.04,1.408,3.736,3.736,0,0,1,1.368,3.566c-.219,1.3-1.613,1.33-2.669,1.553a33.012,33.012,0,0,1-13.585-.267c-4.39-.914-8.5-2.918-12.887-4.06" transform="translate(118.99 141.588)" fill="#f9f9f9"/>
        <path id="Path_17876" data-name="Path 17876" d="M122.6,78.758a9.356,9.356,0,0,1-4.37-.234,56.62,56.62,0,0,1-17.807-8.9c-.623-.453-1.787-1.049-.979-1.923.72-.78,1.352.232,1.922.66,5.892,4.422,12.206,8.033,19.853,9.094.736.1,1.379.325,1.381,1.3" transform="translate(119.924 72.014)" fill="rgba(189,205,214,0.62)"/>
        <path id="Path_17877" data-name="Path 17877" d="M119.136,82.925c-7.792-1.655-14.606-5.051-19.563-11.307-.329-.414-.638-.943-.146-1.311.727-.54,1.085.188,1.423.608a28.407,28.407,0,0,0,11.941,8.645,23.037,23.037,0,0,0,6.776,1.866c.658.048,1.414.147,1.383.831-.046,1.036-1.043.461-1.814.668" transform="translate(119.926 74.899)" fill="rgba(189,205,214,0.62)"/>
        <path id="Path_17878" data-name="Path 17878" d="M98.357,69.314q-.239,4.424-.477,8.846c-.031.563.051,1.307-.769,1.34-.877.037-.813-.718-.784-1.274.188-3.6.365-7.2.638-10.8.049-.645.053-1.787,1.1-1.65,1.264.165.378,1.181.411,1.818a16.682,16.682,0,0,1-.082,1.723l-.04,0" transform="translate(116.471 70.25)" fill="rgba(189,205,214,0.62)"/>
        <path id="Path_17880" data-name="Path 17880" d="M125.244,102.759c-7.231.062-13.7-4.172-15.945-10.424-.2-.558-.9-1.39-.084-1.768,1.1-.511,1.233.672,1.509,1.247,2.163,4.476,5.285,7.938,10.6,9.228,2.176.527,4.377.246,6.568.292.619.012,1.659-.4,1.661.6,0,.774-.954.821-1.675.827-.882.008-1.761,0-2.64,0" transform="translate(131.609 96.612)" fill="rgba(189,205,214,0.62)"/>
        <path id="Path_17881" data-name="Path 17881" d="M110.9,89.185c.93.172,1.339.86,1.869,1.386,1.993,1.975,3.913,4.014,5.947,5.95a13.482,13.482,0,0,0,5.55,3.648c.541.153,1.069.393.877,1s-.882.494-1.345.381a6.367,6.367,0,0,1-1.635-.72c-4.575-2.639-7.874-6.529-11.393-10.2-.3-.312-.619-.643-.442-1.08.069-.174.4-.256.572-.358" transform="translate(133.354 95.27)" fill="rgba(189,205,214,0.62)"/>
        <path id="Path_17882" data-name="Path 17882" d="M97.335,83.232c3.067,0,5.384,1.582,4.927,3.109a3.455,3.455,0,0,1-3.789,2.37c-2.318-.091-4.986-1.562-4.763-2.98.373-2.341,2.41-2.469,3.625-2.5" transform="translate(113.307 88.91)" fill="#bdcdd6"/>
        <path id="Path_17883" data-name="Path 17883" d="M107.337,81.553c.479.871.91,1.634,2.282,1.53,2.024-.153,3.9.643,4.1,2.6.148,1.5-1.206,2.618-3.027,2.8-3,.306-4.533-.5-4.986-2.691a9.813,9.813,0,0,1-.06-1.712,9.472,9.472,0,0,1,1.69-2.536" transform="translate(127.75 87.117)" fill="#bdcdd6"/>
        <path id="Path_17884" data-name="Path 17884" d="M104.423,91.135c-1.6-.273-3.206-.4-4.5-1.373-.334-.25-1.085-.438-.585-1.075.36-.461.8-.428,1.365-.132a9.8,9.8,0,0,0,2.667,1.018,5.274,5.274,0,0,0,5.426-1.71c.261-.316.6-.707,1.076-.414.6.37.32.869.018,1.284-1.328,1.814-3.318,2.3-5.466,2.4" transform="translate(119.927 93.303)" fill="#292d2d"/>
        <path id="Path_17885" data-name="Path 17885" d="M103.044,79.764c.018.784-.616.811-1.072.606a5.644,5.644,0,0,0-5.724.534.75.75,0,0,1-.954.014c-.323-.275-.21-.608-.04-.893,1.016-1.706,6.133-2.157,7.514-.666a3.12,3.12,0,0,1,.276.405" transform="translate(114.99 83.809)" fill="#292d2d"/>
        <path id="Path_17886" data-name="Path 17886" d="M103.375,88.169c-.135.279-.168.749-.639.6-1.279-.412-2.565-.982-2.589-2.443-.024-1.481,1.2-2.081,2.55-2.407a.822.822,0,0,1,.676.265.566.566,0,0,1-.2.856c-2.092.912-1.533,1.783-.007,2.691.119.072.141.29.21.441" transform="translate(121.107 89.632)" fill="#292d2d"/>
        <path id="Path_17887" data-name="Path 17887" d="M108.075,82.214c-.077,1.129-.119,2.277-1.69,2.536-1.524-.869-1.767-2.186-.707-3.319,1-1.065,1.862-.23,2.4.784" transform="translate(127.013 86.456)" fill="#292d2d"/>
        <path id="Path_17888" data-name="Path 17888" d="M99.335,82.957c.015,1.133-.287,1.81-1.452,1.826-1.208.017-1.482-.747-1.421-1.626.062-.9.219-1.928,1.573-1.82,1.122.089,1.257.966,1.3,1.619" transform="translate(116.643 86.879)" fill="#292d2d"/>
        <path id="Path_17889" data-name="Path 17889" d="M99.909,92.094h7.2c-1.491,1.437-5.269,1.491-7.2,0" transform="translate(120.82 98.377)" fill="#292d2d"/>
        <path id="Path_17890" data-name="Path 17890" d="M99.493,129.059h18.178c0,.17,0,.339.009.507H99.531l-.038-.507" transform="translate(120.317 137.864)" fill="#292d2d"/>
        <path id="Path_17892" data-name="Path 17892" d="M99.3,123.536h17.67c0,.128,0,.256,0,.383H99.254c.013-.126.029-.254.044-.383" transform="translate(120.028 131.964)" fill="#292d2d"/>
      </g>
      <text id="AI" transform="translate(164 623.082)" fill="#6fa6d6" font-size="15" font-family="IBMPlexSansArabic-Regular, IBM Plex Sans Arabic"><tspan x="0" y="0">AI</tspan></text>
    </g>
    <g id="Group_984" data-name="Group 984" transform="translate(32 308.653)">
      <path id="Path_11410" data-name="Path 11410" d="M183.84,146.313c-14.755.075-28.911-1.915-41.326-10.531-1.844-1.281-3.3-1.946-5.58-.164-12.743,9.955-38.547,11.546-51.91-1.268-1.476-1.414-2.624-1.76-4.414,0-13.7,13.461-41.166,9.622-52.539-6.174-2.717-3.772-4.937-8.2-4.49-13.234.279-3.125-.324-4.787-3.993-5.935C.326,102.993-1.278,90.171.592,75.239A18.231,18.231,0,0,1,11.96,60.365c2.881-1.135,3.634-2.278,2-4.96-10.77-17.68,5.655-39.3,23.335-42.438,8.231-1.463,14.9-.089,20.415,6.037,2.189,2.429,3.626,1.006,4.463-.753C67.491,7.063,76.524,1.355,88.593.185c11.453-1.108,20.915,2.9,28.273,11.736,1.117,1.343,1.919,2.939,2.916,4.388,1.582,2.3,3.165,2.46,4.955.115,8.78-11.506,21.035-13.336,34.119-11.289A34.78,34.78,0,0,1,182.183,19.1,24.487,24.487,0,0,1,186.5,39.494c-.488,2.371-.31,3.648,2.207,4.308,12.942,3.4,20.361,12.933,20.649,26,.284,12.92-4.428,22.883-16.4,28.725-1.693.829-3.032,1.148-2.238,3.719,3.089,10.012-1.223,18.5-11.222,22.015-5.288,1.862-10.717,3.36-16.43,3.4-1.135.009-2.814-.527-3.111,1.117-.23,1.285,1.1,2.207,2.07,2.872,7.2,4.929,13.673,10.939,21.811,14.666" transform="translate(0.001 -0.004)" fill="#fff" stroke="#6fa6d6" stroke-width="2"/>
      <g id="Group_983" data-name="Group 983" transform="translate(29.5 24.5)">
        <text id="أنا_روبوت_ذكاء_إصطناعي_" data-name="أنا روبوت ذكاء  إصطناعي " transform="translate(11 15)" fill="#292d2d" font-size="14" font-family="IBMPlexSansArabic-Regular, IBM Plex Sans Arabic"><tspan x="0" y="0" xml:space="preserve">أنا روبوت ذكاء  إصطناعي</tspan><tspan y="0"> </tspan></text>
        <text id="تم_إنشاؤه_للتشخيص_المبدأى_" data-name="تم إنشاؤه للتشخيص المبدأى " transform="translate(0 26)" fill="#292d2d" font-size="14" font-family="IBMPlexSansArabic-Regular, IBM Plex Sans Arabic"><tspan x="0" y="15">تم إنشاؤه للتشخيص المبدأى</tspan><tspan y="15"> </tspan></text>
        <text id="يمكنني_التفكير_و_التعلم_و_لكن_" data-name="يمكنني التفكير و التعلم و لكن " transform="translate(0 67)" fill="#292d2d" font-size="14" font-family="IBMPlexSansArabic-Regular, IBM Plex Sans Arabic"><tspan x="0" y="0">يمكنني التفكير و التعلم و لكن</tspan><tspan y="0"> </tspan></text>
        <text id="مازلت_في_طور_التقدم" data-name="مازلت في طور التقدم" transform="translate(24 93)" fill="#292d2d" font-size="14" font-family="IBMPlexSansArabic-Regular, IBM Plex Sans Arabic"><tspan x="0" y="0">مازلت في طور التقدم</tspan></text>
      </g>
    </g>
  </g>
</svg>
