<svg xmlns="http://www.w3.org/2000/svg" xmlns:xlink="http://www.w3.org/1999/xlink" width="317.286" height="311.918" viewBox="0 0 317.286 311.918">
  <defs>
    <clipPath id="clip-path">
      <rect id="Rectangle_1855" data-name="Rectangle 1855" width="291.831" height="311.918" fill="none"/>
    </clipPath>
  </defs>
  <g id="Group_1094" data-name="Group 1094" transform="translate(-28.045 -140)">
    <g id="Group_976" data-name="Group 976" transform="translate(53.5 140)">
      <g id="Group_975" data-name="Group 975" clip-path="url(#clip-path)">
        <path id="Path_11351" data-name="Path 11351" d="M141.377,107.819c-2.505.384-3.281,1.7-2.578,4.189.692,2.448.981,5.006,1.642,7.465.3,1.118.482,3.27,2.558,1.292.574-.55,1.144-.051,1.695.192q7.112,3.145,14.219,6.3c.508.225,1.425.265,1.144,1.113-.389,1.175-1.215.3-1.73.1-3.02-1.167-6.007-2.421-9.478-3.842,1.007,2.7,1.792,5.073,2.779,7.353.625,1.443.369,2.329-1.038,2.969-1.8.822-3.155,2.724-5.877,2.512a13.015,13.015,0,0,1,4.268-3.146c1.175-.7,1.617-1.308.981-2.715a63.631,63.631,0,0,1-2.7-7.129c-.475-1.5-1.812-1.71-2.835-1.949-1.12-.261-.988,1.2-1.211,1.92-3.338,10.653-6.555,21.344-9.964,31.975-.559,1.743.04,2.061,1.4,2.532,3.475,1.2,7.107,2.2,9.345,5.508a1.212,1.212,0,0,0,1.39.429c2.167-.342,3.007.851,3.407,2.722.236,1.113.756,2.176.906,3.294.152,1.136,1.637,2.744-.912,3.241-.579.113-.274.912-.234,1.416a114.349,114.349,0,0,1,.247,17.7c-.146,2.022.537,2.284,2.3,1.935,4.138-.822,8.294-1.564,12.465-2.2,1.721-.263,1.719-1.2,1.706-2.578-.011-1.175-.919-3.135.521-3.365,1-.159.879,2.05.864,3.173-.022,1.748.6,2.039,2.176,1.756,5.24-.939,5.274-.908,3.228-5.709-1.84-4.319-3.749-8.607-6.02-12.757,0,2.682.031,5.362-.018,8.042-.013.733.267,1.966-.7,2.01-1.164.051-.683-1.2-.683-1.865a286.337,286.337,0,0,0-1.56-31.412,112.009,112.009,0,0,0-2.183-13.278c-.15-.638-.769-1.518.221-1.792,1.018-.285.895.82,1.058,1.418,1.739,6.4,2.337,12.973,2.934,19.539.327,3.6.5,7.211.6,10.823a9.991,9.991,0,0,0,1.118,3.74q3.871,8.964,7.805,17.9c.325.745.232,1.741,1.538,1.785,1.22.044.972-1.063,1.423-1.418a42.725,42.725,0,0,1,5.132-3.195c.356-.208.674.042.848.378.21.4-.075.7-.349.884-.784.521-1.608.981-2.55,1.546,1.721.65,3.078-.367,4.529-.623.577-.1,1.3-.577,1.547.278.234.831-.594.888-1.169,1.078a148.745,148.745,0,0,1-17.933,4.235c-5.6,1.116-11.217,2.1-17.334,3.237,3.555,2.68,5.236,5.691,3.071,10.006,5.13,0,10.008.086,14.884-.022,6.955-.152,13.927.345,20.867-.468a10.337,10.337,0,0,0,5.15-1.874,5.66,5.66,0,0,0,2.36-6.237,50.356,50.356,0,0,0-3.17-8.649c-.245-.568-.729-1.253-.053-1.639.789-.451.992.462,1.239.954a37.348,37.348,0,0,1,3.3,8.6c1,4.45-.923,7.759-5.207,9.39a19.39,19.39,0,0,1-6.725,1.144c-5.2.068-10.4.232-15.6.2-1.772-.009-2.592.272-2.189,2.289a37.067,37.067,0,0,1,.334,4.741c.04.594.32,1.381-.519,1.524-.99.172-.738-.751-.806-1.284a18.265,18.265,0,0,1-.369-3.939c.243-2.616-.63-3.526-3.352-3.281a92.857,92.857,0,0,1-10.046.1c-.957-.02-2.351.709-2.682-1.2-.124-.7-1.087-.254-1.65-.2a38.589,38.589,0,0,1-14.363-1.025c-1.591-.46-1.553.223-1.535,1.357.042,2.47.009,4.94,0,7.408,0,.621,0,1.423-.8,1.416-.939-.009-.6-.917-.605-1.44-.042-2.733-.1-5.47.015-8.2a1.93,1.93,0,0,0-1.613-2.234c-2.7-.8-5.408-1.549-8.06-2.468-1.288-.448-2.667-1.171-.9-2.755.488-.437.276-.959.212-1.474-.725-6.007-1.593-12.005-.877-18.123-1.2.022-1.376.959-1.785,1.547-4.67,6.727-9.193,13.559-14,20.184a14.109,14.109,0,0,0-2.545,8.1c-.1,2.2-.351,4.388-.541,6.579-.038.426-.029.957-.616.974-.784.022-.718-.585-.678-1.111.2-2.607.4-5.212.654-8.459a29.263,29.263,0,0,1-7.346,6.665c-4.8,3.067-9.7,2.85-13.406-.5a9.69,9.69,0,0,1-1.935-11.192c.223-.411.382-.809.932-.683.568.128.588.544.46,1.016-.159.594-.289,1.2-.462,1.79-.917,3.144-.464,5.945,2.121,8.157a8.119,8.119,0,0,0,9.1,1.443,19.989,19.989,0,0,0,8.572-6.822q10.422-15.112,20.781-30.265c.638-.93,1.626-1.666-.431-2.379-5.649-1.955-5.614-2.055-6.867-8.09-3.325,3.517-6.531,6.873-9.7,10.269a76.117,76.117,0,0,0-6.338,7.085c-1.644,2.278-3.968,2.782-6.31,3.5-.468.141-1.113.426-1.312-.3-.186-.687.515-.8.952-1.043,1.668-.91,3.561-1.171,5.119-2.543,3.659-3.223,4.366-7.4,4.58-11.86,0-2.96-.011-5.917,1.175-8.725a3.268,3.268,0,0,0,.084-1.831c-1.354-7.3.051-14.524.605-21.766.08-1.032.323-2.379,1.708-2.165,1.279.2,1.3,1.527,1.2,2.6a123.741,123.741,0,0,0-.866,17.884c.044,2.808.024,5.616,0,8.42a67.677,67.677,0,0,0-.035,6.961c1.907-1.348,2.808-3.208,4.237-4.542,1.288-1.2,2.443-2.547,3.773-3.7,1.933-1.681,2.751-1.423,3.705,1.111,2.567-2.806,5.181-5.537,8.63-7.238,1.447-.716,1.295-1.381.179-2.284-3.29-2.66-6.54-5.366-9.851-8-3.135-2.49-3.21-2.788-1.8-6.425s1.447-3.709-2.141-5.614c-1.778-.943-2.472-2.083-1.73-4.043.623-1.648,1.078-3.358,1.644-5.026.294-.864.87-1.732,1.913-1.354.877.318.76,1.3.638,2.094a15.266,15.266,0,0,1-.977,3.564,2.087,2.087,0,0,0,1.142,3.036c.314.157-.066-.06.228.135,4.094,2.678,4.193,2.722,2.258,7.269-.93,2.178-.519,3.506,1.359,4.92q5.166,3.9,10.1,8.113a6.135,6.135,0,0,0,3.369,1.893,46.26,46.26,0,0,0-2.245-6.478c-2.934-7.936-5.753-15.911-8.808-23.8-1.018-2.629-1.151-2.567-3.893-1.767-5.309,1.553-10.256,4.114-15.589,5.556a8.773,8.773,0,0,0-6.4,6.374,173.549,173.549,0,0,0-5.086,19.868c-1.77,9.076-3.767,18.107-5.271,27.234-.208,1.257-.952,2.253-1.2,3.453-.687,3.893-1.348,7.792-2.081,11.676-.128.678.236,2.028-.862,1.847-1.275-.208-.5-1.456-.4-2.22,1.321-9.489,3.047-18.912,4.885-28.31,2.088-10.684,4.235-21.36,7.344-31.81.376-1.262.844-2.494,1.228-3.754a8.56,8.56,0,0,1,6.069-5.967c6.509-2.132,12.9-4.611,19.36-6.891a2.354,2.354,0,0,1,2.587.053c1.48.981,2.687-.678,2.969-1.918.718-3.162,1.056-6.409,1.553-9.622.119-.767-.3-1.122-.948-1.352-6.475-2.3-10.273-7.428-13.72-12.951a9.992,9.992,0,0,0-2.059-2.375c-3.871-3.212-4.823-6.365-3.261-11.181a20.671,20.671,0,0,1,1.9-2.746c.5-.614.983-1.553,2.057-.786,1.1,4.076,1.147,8.356,2.521,12.4,1.829,5.373,4.374,10.176,9.16,13.541a30.05,30.05,0,0,0,4.478,2.24,3.018,3.018,0,0,1,1.909,3.581c-.411,2.967-.985,5.91-1.332,8.886a4.449,4.449,0,0,1-1.741,3.164c-1.686,1.242-1.737,2.709-.859,4.4,3.126,8.923,6.586,17.73,9.544,26.169,2.706-8.223,5.276-17.213,8.152-26.107.822-1.891,1.153-3.674-.714-5.243a3.817,3.817,0,0,1-.994-2.128c-.689-3-1.3-6.011-1.938-9.023-.367-1.741.062-3.17,1.776-3.955,9.171-4.2,13.044-11.807,13.79-21.428a17.129,17.129,0,0,0,.278-3.946c.051-.877-.029-1.953.939-2.293,1.08-.378,1.772.495,2.357,1.292a6.732,6.732,0,0,0,.627.848,8.647,8.647,0,0,1-2,10.854,4.906,4.906,0,0,0-1.752,2.481c-1,5.671-4.7,9.365-9.171,12.489a2.8,2.8,0,0,1-1.94.683" transform="translate(93.622 95.083)" fill="#705225"/>
        <path id="Path_11352" data-name="Path 11352" d="M93.528,97.7c-1.443.977-1.792,3.025-3.586,3.656C88.455,91.288,89.374,81.6,95.33,73.037c8.694-12.5,27.632-13.49,37.766-2.083,7.09,7.98,10.51,17.164,8.74,27.948a7.511,7.511,0,0,0,.02,1.317c-1.067-.455-1.975-2.121-2.925-1.6-1.018.563-.161,2.234-.316,3.409-.108.846.128,1.748-.429,2.519-1.06-.875-.74-2.105-.742-3.206-.007-1.44-.519-2.172-2.041-1.991-.347.042.082-.029-.263.022-11.23,1.692-19.7-3.822-27.707-10.576-3.2-2.7-3.177-2.693-6.14.307-2.717,2.748-4.719,6.142-7.766,8.59" transform="translate(108.009 76.177)" fill="#897360"/>
        <path id="Path_11354" data-name="Path 11354" d="M100.385,133.2a148.479,148.479,0,0,1,.879-18.191c.068-.809.665-2.059-.592-2.163-.89-.075-.74,1.208-.811,1.964-.709,7.638-1.149,15.284-1.107,22.961a34.713,34.713,0,0,1-1.465,9.323c-1.661-3.013-1.136-5.912.559-8.687a1.914,1.914,0,0,0,.046-2.413,6.8,6.8,0,0,1-1.078-6.891c.917-2.618.163-5.205.157-7.779,0-1.443-.4-2.731.828-3.824a1.208,1.208,0,0,0,.263-.429c-1.924-1.485-1.1-3.975-2.121-5.744a1.9,1.9,0,0,0-2.353-.742,1.856,1.856,0,0,0-1.072,1.962c.166,2.17.4,4.308-.689,6.354-.382.716.468,1.036.787,1.511a1.262,1.262,0,0,1-.4,2.017c-.641.382-1.3.97-2.114.135-.267-.274.049-1.593-1.025-.727-.521.42-1.4.65-1.178,1.555.581,2.4.316,4.836.435,7.255a42.9,42.9,0,0,1-.049,7.419c-.157,1.248-.563,1.885-1.876,2.066-1.692.232-2.145,1.213-1.96,3,.318,3.106-1.14,6.162-.479,9.352a31.451,31.451,0,0,1,.36,3.9c.161,2-.234,4.109-2.662,4.818a4.487,4.487,0,0,0-2.331,1.6c1.509-10.618,3.771-21.094,6.02-31.569a188.966,188.966,0,0,1,5.26-20.136,7.9,7.9,0,0,1,5.468-5.49c6.089-1.991,12.092-4.244,18.105-6.458,1.224-.453,2.033-.727,2.618.879,4.019,11.051,8.113,22.075,12.246,33.277a3.435,3.435,0,0,1-3.153-.811c-4.452-3.592-8.866-7.238-13.384-10.744-1.319-1.023-1.547-1.951-.667-3.268a1.674,1.674,0,0,0,.1-.241c2.2-5.183,2.227-5.223-2.647-8.026-1.109-.638-1.549-1.16-.992-2.441a36.374,36.374,0,0,0,1.487-4.5c.175-.619.566-1.533-.391-1.778-.857-.219-.789.751-.961,1.266-.616,1.827-1.067,3.716-1.787,5.5-.546,1.35-.245,1.993,1.014,2.689,4.635,2.563,4.73,2.664,2.585,7.532-.828,1.88-.585,2.874,1.007,4.1,4.394,3.365,8.654,6.9,13.428,10.742-5.287,1.94-8.89,5.556-12.142,9.531-.243-.228-.424-.314-.455-.437-.254-.979.488-2.448-.49-2.89-1.279-.579-1.854,1.005-2.6,1.761-2.775,2.819-5.468,5.718-8.66,9.078v-8.2c.625-.294.941.274,1.379.5,1.122.57,2.03.577,2.452-.864a3.534,3.534,0,0,1,3.139-2.79,1.434,1.434,0,0,0,1.443-1.54c.077-1.871,1.31-2.276,2.874-2.331a22.1,22.1,0,0,0,3.641-.594,1.156,1.156,0,0,0,1.065-1.005,1.06,1.06,0,0,0-.868-1.162,3.5,3.5,0,0,1-2.629-2.669,1.467,1.467,0,0,0-1.027-1.133c-3.917-.61-3.5-4.37-4.865-6.776-.694-1.222.166-2.538,1.065-3.588.42-.49.718-1.025.247-1.655a.978.978,0,0,0-.919-.409c-.822.091-.709.846-.988,1.359-1.186,2.192-1.6,4.88-4.07,6.268-.917.515-.495,1.421-.234,2.139.895,2.455-.2,4.655-.835,6.911a.584.584,0,0,1-.84.365" transform="translate(95.945 119.492)" fill="#fdfcfc"/>
        <path id="Path_11355" data-name="Path 11355" d="M106.368,99.05a26.633,26.633,0,0,0,11.111-13.172,3.284,3.284,0,0,0,.475,2.472c3.61,4.876,7.061,9.869,11.526,14.051A24,24,0,0,0,136,106.824a9.977,9.977,0,0,0,6.665.42,21.206,21.206,0,0,1-12.211,6.091c-10.275,1.549-17.224-1.944-22.378-11.016-.608-1.067-1.14-2.178-1.706-3.27" transform="translate(128.631 103.852)" fill="#897361"/>
        <path id="Path_11356" data-name="Path 11356" d="M116.646,101.687a28.984,28.984,0,0,1,2.5,1.988,31.151,31.151,0,0,1,5.645,7.927c7.54,14.52,14.427,29.351,21.2,44.235.146.32.254.656.4.979.274.632.778,1.434-.141,1.77-.736.27-.89-.65-1.136-1.178-3.022-6.544-5.958-13.13-9.074-19.627-3.952-8.243-8.022-16.428-12.094-24.614-1.851-3.723-3.994-7.262-7.443-9.778a1.1,1.1,0,0,1-.537-1.33c.055-.159.391-.221.683-.371" transform="translate(140.156 122.97)" fill="#705225"/>
        <path id="Path_11357" data-name="Path 11357" d="M114.977,112.964c2.289,0,4.58-.011,6.869.007.921.007,2.247-.263,1.931,1.292-.278,1.372.833,3.7-1.518,3.891-3.851.316-7.741.139-11.614.159-.455,0-.972-.137-.948-.672.031-.691.647-.707,1.18-.718q4.752-.1,9.5-.188c.864-.018,1.858.183,1.823-1.217-.04-1.542-1.2-.965-1.931-.977-3.347-.053-6.694.046-10.037-.06-1.573-.051-2.682-.055-1.962,2.026.177.515.307,1.412-.513,1.533-1.06.157-.893-.809-.977-1.465a13.873,13.873,0,0,0-.223-1.832c-.369-1.4.084-1.907,1.549-1.845,2.284.1,4.578.024,6.867.024v.04" transform="translate(128.718 136.524)" fill="#705225"/>
        <path id="Path_11358" data-name="Path 11358" d="M103.692,125.8a3.284,3.284,0,0,1-.6-.42c-.32-.349-.06-.667.186-.882a18.914,18.914,0,0,1,1.67-1.292c3.55-2.452,6.992-5.092,10.706-7.266,2.4-1.4,2.234-2.516.68-4.337-1.253-1.467-2.269-3.135-3.387-4.719-.316-.446-.638-1.005-.119-1.4.541-.413.961.1,1.262.526,1.721,2.45,3.407,4.922,5.148,7.357.568.8.619,1.41-.239,2q-7.294,5-14.581,10.019c-.212.146-.444.261-.722.42" transform="translate(124.485 127.371)" fill="#705225"/>
        <path id="Path_11359" data-name="Path 11359" d="M86.925,128.863a14.133,14.133,0,0,1-3.263,3.55.522.522,0,0,1-.767-.636,9.557,9.557,0,0,1,3.126-3.738c.555-.415.886.113.9.824" transform="translate(100.198 154.661)" fill="#705225"/>
        <path id="Path_11360" data-name="Path 11360" d="M91.222,85.3c2.713-4.366,6.292-7.993,9.9-11.6.972-.972,1.6-.148,2.24.354q3.231,2.505,6.4,5.092c6.776,5.552,14.394,8.473,23.235,7.138,2.5-.378,3.042.53,2.815,2.717a23.914,23.914,0,0,0,.073,3.153c-.488,9.812-4.626,17.343-13.751,21.625-1.714.8-2.081,1.792-1.679,3.5.689,2.9,1.22,5.837,1.858,8.749.166.758.108,1.765.84,2.154,2.967,1.577,1.608,3.7.846,5.768-.148.1-.287.252-.444.272-6.131.809-12.257,1.158-18.364-.2-1.337-2.079-1.792-3.941,1-5.3a3.006,3.006,0,0,0,1.487-2.375c.477-3.3.9-6.6,1.443-9.882a1.563,1.563,0,0,0-1.147-2.01c-10.887-4-14.3-13.152-16.075-23.4-.329-1.9-.453-3.831-.672-5.746" transform="translate(110.315 88.576)" fill="#fefefe"/>
        <path id="Path_11361" data-name="Path 11361" d="M123.465,139.092c0,1.233.018,2.466,0,3.7-.108,6.151-.113,6.173-6.374,6.018-2.371-.06-4.746-.384-7.11-.316-1.407.04-3.5-.245-2.861,2.483.208.879-.667.5-1.06.539a33.8,33.8,0,0,1-6.3-.466c-.946-.08-1.089-.57-1.217-1.348a92.432,92.432,0,0,1-.912-20.005c.086-1.6,1.529-3.082.267-4.816a1.026,1.026,0,0,1,.605-1.308c3.029-.84,5.605-3.4,9.226-2.035,1.944.733,4.14.758,6.182,1.27,2.212.555,3.868-.113,4.536-2.212.32-1.007,1.737-.961,1.562-2.141,1.045-.133,2.3-.893,2.417,1.142.369,6.5,1.178,12.971,1.038,19.495" transform="translate(117.862 142.947)" fill="#fdfdfd"/>
        <path id="Path_11362" data-name="Path 11362" d="M97.543,100.793l18.808-.073q-4.169,13.554-8.336,27.106l-.563.119-9.909-27.152" transform="translate(117.959 121.801)" fill="#897360"/>
        <path id="Path_11363" data-name="Path 11363" d="M88.882,124.3c.745-2.6,2.13-5.084.729-7.98-.345-.711-1.155-3.007,1.58-2.3.873.223,1.427-.148.84-1.162-.044-.077-.161-.177-.141-.214a57.383,57.383,0,0,1,3.223-6.2c.32-.486,1.867-.4,2.437.758.426.868,1.01,1.566-.276,2.4-1.794,1.167-1.847,2.852-.676,4.58.636.937,1.463,1.77,1.158,3.08-.243,1.038.557,1.089,1.268,1.233,1.67.338,3.285.643,3.23,3-.027,1.116,1.076,1.2,1.993,1.242,1.253.062,1.622.848,1.589,1.971a1.579,1.579,0,0,1-1.6,1.71,19.461,19.461,0,0,1-2.839.446c-2.3-.1-4.047.137-3.537,3.19.179,1.069-.654.87-1.432.727-1.836-.34-2.764.758-3.19,2.364-.15.559.8,1.558-.429,1.644-1.111.077-2.47.725-3.338-.676-.179-.292-.409-.55-.614-.824q.017-4.49.031-8.979" transform="translate(107.448 128.384)" fill="#fefefe"/>
        <path id="Path_11364" data-name="Path 11364" d="M111.88,117.784c-.316.086-.828.086-.91.276-.347.789.444.8.853.963a17.424,17.424,0,0,1,5.667,2.91c-2.958-.02-5.172-1.633-7.8-1.231,2.514,1.447,5.388,2.192,8.17,4.339-2.143-.387-3.758-.636-5.353-.972-2.89-.612-5.744-1.069-8.285,1.03-1.558,1.288-3.21-.285-5.055.179.769,1.036,2.156,2.216.336,3.111-1.785.875-3.413-.347-4.677-1.35-1.211-.959-.044-2,.7-2.881a34.213,34.213,0,0,1,8.276-7.673,9.551,9.551,0,0,1,7.565-1.054c1.275.294,1.1.972,1.122,1.778.106.515-.013.793-.605.574" transform="translate(114.034 139.184)" fill="#fafaf9"/>
        <path id="Path_11365" data-name="Path 11365" d="M98.4,135.473a35.51,35.51,0,0,1,8.855,1.129,20.522,20.522,0,0,0,6.29.283c.535-.053,1.138-.21,1.206-.8.077-.667-.583-.745-1.074-.923-1.929-.714-4.061-.917-6.433-2.552a32.1,32.1,0,0,1,4.408.031c3.815.608,7.706-.749,11.482.482a7.749,7.749,0,0,1,3.04,1.5,4.136,4.136,0,0,1,1.368,3.809c-.219,1.387-1.613,1.421-2.669,1.659a30.953,30.953,0,0,1-13.585-.285c-4.39-.977-8.5-3.117-12.887-4.337" transform="translate(118.99 160.288)" fill="#f9f9f9"/>
        <path id="Path_11366" data-name="Path 11366" d="M91.58,80.378c.72,3.42,1.381,6.564,2.052,9.761a6.061,6.061,0,0,1-2.052-9.761" transform="translate(108.735 97.201)" fill="#e3e2e2"/>
        <path id="Path_11367" data-name="Path 11367" d="M111.915,88.828c.2-3.115.384-5.886.568-8.656,2.667,1.155,2.514,5.092-.568,8.656" transform="translate(135.339 96.952)" fill="#d4d3d3"/>
        <path id="Path_11368" data-name="Path 11368" d="M102.256,116.626c.2-.192.4-.384.605-.574,4.964,1.394,5.408,1.619,7.662,4.1-2.611-1.531-5.519-2.335-8.267-3.53" transform="translate(123.658 140.342)" fill="#c6c5c5"/>
        <path id="Path_11369" data-name="Path 11369" d="M122.6,79.532a8.781,8.781,0,0,1-4.37-.25,55.3,55.3,0,0,1-17.807-9.507c-.623-.484-1.787-1.12-.979-2.055.72-.833,1.352.247,1.922.7,5.892,4.723,12.206,8.581,19.853,9.714.736.11,1.379.347,1.381,1.392" transform="translate(119.924 81.524)" fill="#705225"/>
        <path id="Path_11370" data-name="Path 11370" d="M119.136,83.8c-7.792-1.767-14.606-5.4-19.563-12.078-.329-.442-.638-1.007-.146-1.4.727-.577,1.085.2,1.423.65A28.572,28.572,0,0,0,112.791,80.2a21.9,21.9,0,0,0,6.776,1.993c.658.051,1.414.157,1.383.888-.046,1.107-1.043.493-1.814.714" transform="translate(119.926 84.79)" fill="#705225"/>
        <path id="Path_11371" data-name="Path 11371" d="M98.357,69.556Q98.118,74.281,97.88,79c-.031.6.051,1.4-.769,1.432-.877.04-.813-.767-.784-1.361.188-3.846.365-7.7.638-11.537.049-.689.053-1.909,1.1-1.763,1.264.177.378,1.262.411,1.942.029.612-.051,1.226-.082,1.84l-.04,0" transform="translate(116.471 79.528)" fill="#705225"/>
        <path id="Path_11372" data-name="Path 11372" d="M141.043,279.035a30.791,30.791,0,0,1-23.589-9.542,5.545,5.545,0,0,0-4.385-1.734c-27.424.046-54.85-.172-82.272.11A29.738,29.738,0,0,1,.631,237.975c.261-69.31.1-138.62.113-207.933C.748,13.311,13.438.672,30.229.654q47.618-.043,95.236,0c16.908.018,29.649,12.646,29.66,29.556q.063,103.833,0,207.668c-.007,14.855-8.618,25.825-22.915,29.278-1.96.473-1.955.994-.826,2.32a67.243,67.243,0,0,0,9.659,9.56" transform="translate(0.763 0.764)" fill="#fff"/>
        <path id="Path_11373" data-name="Path 11373" d="M90.961,105.863c-1.4-.183-3.621.733-3.517-2.24.033-.954.387-1.493,1.387-1.449,1.379.062,2.77-.221,4.129.334.884.36,2,.457,1.765,1.8a1.835,1.835,0,0,1-2.3,1.564c-.431-.042-.868-.007-1.469-.007" transform="translate(105.742 123.536)" fill="#fefefe"/>
        <path id="Path_11374" data-name="Path 11374" d="M125.244,103.6A16.609,16.609,0,0,1,109.3,92.464c-.2-.6-.9-1.485-.084-1.889,1.1-.546,1.233.718,1.509,1.332,2.163,4.781,5.285,8.479,10.6,9.858,2.176.563,4.377.263,6.568.312.619.013,1.659-.426,1.661.636,0,.826-.954.877-1.675.884-.882.009-1.761,0-2.64,0" transform="translate(131.609 109.371)" fill="#705225"/>
        <path id="Path_11375" data-name="Path 11375" d="M110.9,89.185c.93.183,1.339.919,1.869,1.48,1.993,2.11,3.913,4.288,5.947,6.356a13.447,13.447,0,0,0,5.55,3.9c.541.163,1.069.42.877,1.065-.2.661-.882.528-1.345.407a6.169,6.169,0,0,1-1.635-.769c-4.575-2.819-7.874-6.975-11.393-10.9-.3-.334-.619-.687-.442-1.153.069-.186.4-.274.572-.382" transform="translate(133.355 107.852)" fill="#705225"/>
        <path id="Path_11376" data-name="Path 11376" d="M97.335,83.232c3.067,0,5.384,1.69,4.927,3.321a3.457,3.457,0,0,1-3.789,2.532c-2.318-.1-4.986-1.668-4.763-3.184.373-2.5,2.41-2.638,3.625-2.669" transform="translate(113.307 100.653)" fill="#eae1de"/>
        <path id="Path_11377" data-name="Path 11377" d="M107.337,81.553c.479.93.91,1.745,2.282,1.635,2.024-.163,3.9.687,4.1,2.782.148,1.6-1.206,2.8-3.027,3-3,.327-4.533-.532-4.986-2.874a11.192,11.192,0,0,1-.06-1.829c.57-.9.835-1.986,1.69-2.709" transform="translate(127.75 98.622)" fill="#e7dfdc"/>
        <path id="Path_11378" data-name="Path 11378" d="M104.423,91.394c-1.6-.292-3.206-.429-4.5-1.467-.334-.267-1.085-.468-.585-1.149.36-.493.8-.457,1.365-.141a9.43,9.43,0,0,0,2.667,1.087A5.076,5.076,0,0,0,108.8,87.9c.261-.338.6-.756,1.076-.442.6.4.32.928.018,1.372-1.328,1.938-3.318,2.461-5.466,2.567" transform="translate(119.927 105.625)" fill="#705225"/>
        <path id="Path_11379" data-name="Path 11379" d="M103.044,79.854c.018.837-.616.866-1.072.647a5.345,5.345,0,0,0-5.724.57.713.713,0,0,1-.954.015c-.323-.294-.21-.65-.04-.954,1.016-1.823,6.133-2.3,7.514-.711a3.352,3.352,0,0,1,.276.433" transform="translate(114.99 94.878)" fill="#705225"/>
        <path id="Path_11380" data-name="Path 11380" d="M103.375,88.46c-.135.3-.168.8-.639.638-1.279-.44-2.565-1.049-2.589-2.609-.024-1.582,1.2-2.223,2.55-2.572a.8.8,0,0,1,.676.283.626.626,0,0,1-.2.915c-2.092.974-1.533,1.9-.007,2.874.119.077.141.309.21.471" transform="translate(121.108 101.47)" fill="#705225"/>
        <path id="Path_11381" data-name="Path 11381" d="M108.075,82.3c-.077,1.206-.119,2.432-1.69,2.709-1.524-.928-1.767-2.335-.707-3.546,1-1.138,1.862-.245,2.4.837" transform="translate(127.012 97.874)" fill="#705225"/>
        <path id="Path_11382" data-name="Path 11382" d="M99.335,83.068c.015,1.211-.287,1.933-1.452,1.951-1.208.018-1.482-.8-1.421-1.737.062-.961.219-2.059,1.573-1.944,1.122.1,1.257,1.032,1.3,1.73" transform="translate(116.642 98.353)" fill="#705225"/>
        <path id="Path_11383" data-name="Path 11383" d="M99.909,92.094h7.2c-1.491,1.535-5.269,1.593-7.2,0" transform="translate(120.82 111.369)" fill="#705225"/>
        <path id="Path_11384" data-name="Path 11384" d="M99.493,129.059h18.178c0,.181,0,.362.009.541H99.531l-.038-.541" transform="translate(120.317 156.071)" fill="#705225"/>
        <path id="Path_11386" data-name="Path 11386" d="M105.538,129.193" transform="translate(127.159 151.006)" fill="#454545"/>
        <path id="Path_11387" data-name="Path 11387" d="M99.3,123.536h17.67c0,.137,0,.274,0,.409H99.254c.013-.135.029-.272.044-.409" transform="translate(120.028 149.392)" fill="#705225"/>
      </g>
    </g>
    <g id="Group_984" data-name="Group 984" transform="translate(11.5)">
      <path id="Path_11410" data-name="Path 11410" d="M183.84,146.313c-14.755.075-28.911-1.915-41.326-10.531-1.844-1.281-3.3-1.946-5.58-.164-12.743,9.955-38.547,11.546-51.91-1.268-1.476-1.414-2.624-1.76-4.414,0-13.7,13.461-41.166,9.622-52.539-6.174-2.717-3.772-4.937-8.2-4.49-13.234.279-3.125-.324-4.787-3.993-5.935C.326,102.993-1.278,90.171.592,75.239A18.231,18.231,0,0,1,11.96,60.365c2.881-1.135,3.634-2.278,2-4.96-10.77-17.68,5.655-39.3,23.335-42.438,8.231-1.463,14.9-.089,20.415,6.037,2.189,2.429,3.626,1.006,4.463-.753C67.491,7.063,76.524,1.355,88.593.185c11.453-1.108,20.915,2.9,28.273,11.736,1.117,1.343,1.919,2.939,2.916,4.388,1.582,2.3,3.165,2.46,4.955.115,8.78-11.506,21.035-13.336,34.119-11.289A34.78,34.78,0,0,1,182.183,19.1,24.487,24.487,0,0,1,186.5,39.494c-.488,2.371-.31,3.648,2.207,4.308,12.942,3.4,20.361,12.933,20.649,26,.284,12.92-4.428,22.883-16.4,28.725-1.693.829-3.032,1.148-2.238,3.719,3.089,10.012-1.223,18.5-11.222,22.015-5.288,1.862-10.717,3.36-16.43,3.4-1.135.009-2.814-.527-3.111,1.117-.23,1.285,1.1,2.207,2.07,2.872,7.2,4.929,13.673,10.939,21.811,14.666" transform="translate(17.501 238.496)" fill="#fff" stroke="#897360" stroke-width="2"/>
      <g id="Group_983" data-name="Group 983" transform="translate(0 -2)">
        <text id="أنا_روبوت_ذكاء_إصطناعي_" data-name="أنا روبوت ذكاء  إصطناعي " transform="translate(58 280)" fill="rgba(112,82,37,0.69)" font-size="14" font-family="IBMPlexSansArabic-Regular, IBM Plex Sans Arabic"><tspan x="0" y="0" xml:space="preserve">أنا روبوت ذكاء  إصطناعي</tspan><tspan y="0"> </tspan></text>
        <text id="تم_إنشاؤه_للتشخيص_المبدأى_" data-name="تم إنشاؤه للتشخيص المبدأى " transform="translate(47 291)" fill="rgba(112,82,37,0.69)" font-size="14" font-family="IBMPlexSansArabic-Regular, IBM Plex Sans Arabic"><tspan x="0" y="15">تم إنشاؤه للتشخيص المبدأى</tspan><tspan y="15"> </tspan></text>
        <text id="يمكنني_التفكير_و_التعلم_و_لكن_" data-name="يمكنني التفكير و التعلم و لكن " transform="translate(47 332)" fill="rgba(112,82,37,0.69)" font-size="14" font-family="IBMPlexSansArabic-Regular, IBM Plex Sans Arabic"><tspan x="0" y="0">يمكنني التفكير و التعلم و لكن</tspan><tspan y="0"> </tspan></text>
        <text id="مازلت_في_طور_التقدم" data-name="مازلت في طور التقدم" transform="translate(71 358)" fill="rgba(112,82,37,0.69)" font-size="14" font-family="IBMPlexSansArabic-Regular, IBM Plex Sans Arabic"><tspan x="0" y="0">مازلت في طور التقدم</tspan></text>
      </g>
    </g>
    <text id="AI" transform="translate(274 424)" fill="rgba(112,82,37,0.69)" font-size="15" font-family="IBMPlexSansArabic-Regular, IBM Plex Sans Arabic"><tspan x="0" y="0">AI</tspan></text>
  </g>
</svg>
