<svg id="Group_1292" data-name="Group 1292" xmlns="http://www.w3.org/2000/svg" xmlns:xlink="http://www.w3.org/1999/xlink" width="62" height="62" viewBox="0 0 62 62">
  <defs>
    <clipPath id="clip-path">
      <rect id="Rectangle_1851" data-name="Rectangle 1851" width="62" height="62" fill="none"/>
    </clipPath>
  </defs>
  <g id="Group_954" data-name="Group 954" clip-path="url(#clip-path)">
    <path id="Path_11306" data-name="Path 11306" d="M27.5,82.075H26.053c-2.33-1.319-3.024-2.482-1.638-4.627,2.52-3.9,2.11-6.75-.812-10.559-6.607-8.615-5.87-23.021.538-31.3a12.554,12.554,0,0,1,2.125-2.3c.356-.351.589-.8.959-1.144,4.484-4.479,9.749-7.336,16.172-7.785a6.289,6.289,0,0,0,3.542-.419c3.927.363,7.849.731,11.474,2.5,2.466,1.2,4.935,2.39,6.56,4.755,1.367,3.28,3.909,5.889,5.164,9.251,3.826,10.25,2.381,19.614-4.6,28.051a25.215,25.215,0,0,1-20.766,9.461,16.9,16.9,0,0,0-5.277.383A8.036,8.036,0,0,1,35.2,77.087c-1.5-.833-2.459-.5-3.338.93-1.068,1.731-2.021,3.665-4.361,4.059" transform="translate(-15.891 -20.075)" fill="#6fa6d6"/>
    <path id="Path_11307" data-name="Path 11307" d="M170.164,122.128c-2.1-1.393-3.072-3.683-4.374-5.682-.821-1.259-1.418-1.476-2.821-.756a26.092,26.092,0,0,1-19.838,1.942c1.627-.692,3.34-.352,5-.323A26.811,26.811,0,0,0,169.97,74.686c-.663-.915-1.747-1.626-1.691-2.965l1.438,1.034a1.081,1.081,0,0,1,.82.851c2.978,3.738,5.476,7.735,6.378,12.518q2.782,14.751-7.862,25.368c-1.3,3.793-.837,5.075,2.617,7.4.477.322,1.252.529,1.009,1.409-.044,1.009-1.046,1.2-1.548,1.825Z" transform="translate(-119.838 -60.128)" fill="#6fa6d6"/>
    <path id="Path_11308" data-name="Path 11308" d="M0,20c1.414-2.454,2.367-5.2,5.152-6.667,3.4-1.79,6.784-2.252,10.326-.539.417,1.347-.532,2.1-1.307,2.889q-4.152,4.208-8.357,8.362c-.857.841-1.733,1.853-3.106,1.435C1.185,25.019.785,23.715.621,22.268A2.519,2.519,0,0,0,0,20.487Z" transform="translate(0 -9.831)" fill="#6fa6d6"/>
    <path id="Path_11309" data-name="Path 11309" d="M0,26.039c1.512.541,1.225,2.13,1.832,3.2.7,1.224,1.306,1.73,2.512.476,3.675-3.822,7.417-7.58,11.134-11.363,2.058.458,1.98,1.267.57,2.6-1.918,1.808-3.694,3.767-5.531,5.662-.075.5-.441.707-.858.865-2.01,1.957-4.119,3.824-6,5.9-1.438,1.588-2.12,1.146-2.752-.557C.661,32.15.306,31.525,0,30.883V26.039" transform="translate(0 -15.383)" fill="#6fa6d6"/>
    <path id="Path_11310" data-name="Path 11310" d="M169.115.391A3.053,3.053,0,0,1,169.176,0h6.775q.014.214.043.427a5.586,5.586,0,0,1-6.879-.036" transform="translate(-141.594)" fill="#c0e0d0"/>
    <path id="Path_11311" data-name="Path 11311" d="M101.779,86.878A20.878,20.878,0,0,1,80.927,108.05,21.073,21.073,0,1,1,80.752,65.9a20.8,20.8,0,0,1,21.027,20.973" transform="translate(-49.941 -55.252)" fill="#fafafa"/>
    <path id="Path_11312" data-name="Path 11312" d="M164.754,2.42l6.879.036c1.116,1.8.827,2.642-1.062,2.925-.914.137-1.984-.157-2.37,1.093-.9,1.257-2.234.794-3.433.867.217-.1.431-.207.653-.3.608-.245,1.688.207,1.743-.819.06-1.135-1.014-.692-1.634-.829-1.888-.418-2.105-1.232-.776-2.977" transform="translate(-137.233 -2.029)" fill="#6fa6d6"/>
    <path id="Path_11313" data-name="Path 11313" d="M59.352,70.306l.858-.864,1.271,1.427-.658.846-1.471-1.408" transform="translate(-49.693 -58.218)" fill="#365997"/>
    <path id="Path_11314" data-name="Path 11314" d="M284.388,12.04c4.838-2.777,14.116-.206,15.057,7.291a32.051,32.051,0,0,1-.439,3.306c-.627,2.093-2.46,2.862-4.092,1.435-3.577-3.128-6.842-6.594-10.114-10.041a1.648,1.648,0,0,1-.412-1.991" transform="translate(-237.955 -9.181)" fill="#6fa6d6"/>
    <path id="Path_11315" data-name="Path 11315" d="M277.082,17.688c3.437,4.028,7.391,7.552,11.083,11.331,1.223,1.251,2.057.813,2.61-.734a9.5,9.5,0,0,1,1.364-3.306c.965,2.561.446,5-.626,7.385-.607,1.351-1.275,1.61-2.427.413-1.986-2.064-4.1-4-6.164-5.993a.919.919,0,0,1-.862-.861c-1.872-1.952-3.7-3.951-5.632-5.84-1.349-1.318-1.372-2.089.654-2.4" transform="translate(-230.648 -14.829)" fill="#6fa6d6"/>
    <path id="Path_11316" data-name="Path 11316" d="M294.508,326.579c-1.736-.736-3.409-1.371-4.5-3.221-1.889-3.205-2.029-3.123.872-5.591,1.056,2.134,2.133,4.257,3.157,6.406.355.745,1.089,1.455.469,2.406" transform="translate(-241.666 -266.404)" fill="#6fa6d6"/>
    <path id="Path_11317" data-name="Path 11317" d="M308.031,68.637l.861.861-1.575,1.522-.82-.851,1.534-1.532" transform="translate(-256.619 -57.543)" fill="#365997"/>
    <path id="Path_11318" data-name="Path 11318" d="M174.631,122.952c.675,1.393.456,2.878.462,4.319.027,6.354.686,7,7.142,7.042,1,.006,2.071-.335,3.4.629-2.15.653-4.025.275-5.844.363-1.269.061-2.448-.061-3.514,1.077-1.025,1.093-2.413.8-3.405-.322-.917-1.035-1.1-2.44.028-3.222,1.366-.95,1.13-2.133,1.2-3.377.121-2.163-.309-4.37.531-6.509" transform="translate(-144.11 -103.078)" fill="#365997"/>
    <path id="Path_11319" data-name="Path 11319" d="M109.56,261.8a4.806,4.806,0,0,1,2.414-2.578c-.317,1.571-.317,1.571-2.414,2.578" transform="translate(-91.731 -217.325)" fill="#365997"/>
    <path id="Path_11320" data-name="Path 11320" d="M109.078,116.44a4.008,4.008,0,0,1,2.775,2.427c-1.451-.118-1.98-.922-2.775-2.427" transform="translate(-91.327 -97.619)" fill="#365997"/>
    <path id="Path_11321" data-name="Path 11321" d="M187.63,83.909c.893,1.362.917,2.149.287,3.221-.663-.988-.5-1.787-.287-3.221" transform="translate(-156.94 -70.346)" fill="#365997"/>
    <path id="Path_11322" data-name="Path 11322" d="M257.681,117.742a2.634,2.634,0,0,1-1.8,2.1c.2-1.254.2-1.254,1.8-2.1" transform="translate(-214.24 -98.71)" fill="#365997"/>
    <path id="Path_11323" data-name="Path 11323" d="M254.779,263.895c-1.655-.274-2.063-1.029-2.779-2.126,1.6.156,1.947.979,2.779,2.126" transform="translate(-210.991 -219.457)" fill="#365997"/>
    <path id="Path_11324" data-name="Path 11324" d="M187.764,287.687c.853,1.209.587,1.994.29,3.159-.944-1.068-.636-1.892-.29-3.159" transform="translate(-156.925 -241.186)" fill="#365997"/>
    <path id="Path_11325" data-name="Path 11325" d="M182.157,186.414c-.195.959-.733,1.553-1.673,1.407a1.441,1.441,0,0,1-1.321-1.711,1.38,1.38,0,0,1,1.533-1.238c.987.034,1.389.669,1.461,1.542" transform="translate(-149.991 -154.988)" fill="#f3f1eb"/>
  </g>
</svg>
