<svg xmlns="http://www.w3.org/2000/svg" width="205" height="241" viewBox="0 0 205 241">
  <g id="Group_1283" data-name="Group 1283" transform="translate(-19.67 -237.282)">
    <ellipse id="Ellipse_176" data-name="Ellipse 176" cx="102.5" cy="120.5" rx="102.5" ry="120.5" transform="translate(19.67 237.282)" fill="#6fa6d6" opacity="0.15"/>
    <g id="Group_1188" data-name="Group 1188" transform="translate(32.481 245.118)">
      <g id="Group_1161" data-name="Group 1161" transform="translate(60.087 91.015)">
        <path id="Path_7589" data-name="Path 7589" d="M74.42,88.376c1.338-.351,1.4.874,1.9,1.533a3.583,3.583,0,0,0,5.724.493,2.4,2.4,0,0,0,.517-2.288,39.713,39.713,0,0,1-.459-9.955c.963-7.844,5.76-9.439,12.345-8.406a21.784,21.784,0,0,0,7.682.139c8.632-1.669,13.09,1.933,13.117,10.652a51.517,51.517,0,0,1-.688,7.694,4.02,4.02,0,0,0,.969,3.73c1.966,2.128,2.564,4.96,3.519,7.577a2.878,2.878,0,0,1-1.226,3.408c-.64.461-1.4.823-2.118.278s.017-1.088.2-1.6c.258-.73.771-1.5-.632-1.53-.579-.013-.963-.324-.634-.846,1.19-1.9-.446-2.783-1.334-4.254a101.017,101.017,0,0,1-5.276,15.705c-.542,1.185-.957,3.006-2.531,2.852-1.468-.147-1.322-2-1.713-3.166-.717-2.151-1.011-4.433-2.126-6.463-.653-1.191-1.443-2.168-2.931-2.232-1.607-.069-2.489.943-3.194,2.191-1.136,2.013-1.5,4.278-2.149,6.448-.173.579-.309,1.168-.511,1.735-.252.711-.473,1.535-1.409,1.583-.825.042-1.117-.72-1.459-1.282a40.733,40.733,0,0,1-3.548-8.606c-.876-2.653-1.588-5.36-2.366-8.044-.271-.931-.492-1.539-1.682-.7-1.613,1.141-3.212,0-4.78-.434-1.267-.352-2.285-1.194-3.89-.77-1.224.326-1.864-1.286-2.541-2.274-.761-1-.848-2.1.238-2.762,1.249-.754,1.745.749,2.587,1.265.273-.545-.165-1.231.406-1.672" transform="translate(-70.615 -69.473)" fill="#fff"/>
        <path id="Path_7623" data-name="Path 7623" d="M82.637,79.878c2.652,1.987,5.4,1.906,8.242-.152-.006,2.554-.705,3.2-3.081,2.951a11.158,11.158,0,0,0-2.533,0c-2.152.268-2.6-.948-2.628-2.8" transform="translate(-59.581 -60.224)" fill="#365997"/>
        <path id="Path_7624" data-name="Path 7624" d="M82.38,80.065a1.035,1.035,0,0,1-1.3.965c-.746-.144-1.618-.363-1.669-1.3-.043-.816.692-.9,1.331-.9.857-.012,1.5.278,1.641,1.237" transform="translate(-62.521 -61.028)" fill="#d68b8b"/>
        <path id="Path_7625" data-name="Path 7625" d="M90.383,81.057c-.643-.006-1.241-.19-1.177-.835.1-.979.853-1.37,1.781-1.387.534-.01,1.195-.008,1.134.752-.082,1.043-1.024,1.185-1.739,1.471" transform="translate(-53.503 -61.023)" fill="#d68b8b"/>
        <path id="Path_7626" data-name="Path 7626" d="M87.684,76.4c2.007-1.455,3.506-1.132,4.934.293a19.648,19.648,0,0,0-4.934-.293" transform="translate(-54.917 -64.071)" fill="#365997"/>
        <path id="Path_7627" data-name="Path 7627" d="M85,76.374c-2.152.074-3.681-.134-5.152.346,1.383-1.6,2.939-1.62,5.152-.346" transform="translate(-62.122 -64.06)" fill="#365997"/>
      </g>
      <g id="Group_1187" data-name="Group 1187" transform="translate(0 0)">
        <g id="Group_1163" data-name="Group 1163" transform="translate(64.113 48.875)">
          <path id="Path_17222" data-name="Path 17222" d="M59.234,46.893c.264-.709-.657-2.51.61-2.535,1.313-.023.493,1.75.7,2.712a7.469,7.469,0,0,1,0,1.383c.006.728.087,1.461,1,1.556,1.136.12,1.185-.822,1.245-1.546.1-1.15.027-2.312.06-3.467.01-.4.167-.8.647-.787a.724.724,0,0,1,.732.738c.008,1.61.282,3.25-.227,4.819a2.29,2.29,0,0,1-2.731,1.6,2.137,2.137,0,0,1-2.026-2.139c-.047-.692-.008-1.387-.008-2.333" transform="translate(-59.155 -44.118)" fill="#365997"/>
          <path id="Path_17223" data-name="Path 17223" d="M62.351,48.735c0-.387-.016-.773,0-1.16.049-1.026-.591-2.356,1.459-2.292,1.21.039,2.469-.3,2.632,1.327.134,1.356.746,3.083-1.288,3.693-.672.2-1.4.1-1.41,1.109,0,.509-.235.942-.847.783-.573-.148-.53-.684-.538-1.14-.012-.773,0-1.546,0-2.319h-.01" transform="translate(-56.194 -43.392)" fill="#365997"/>
          <path id="Path_17224" data-name="Path 17224" d="M65.251,48.482c0-.307-.1-.67.023-.909.373-.7-1.28-2.1.748-2.2,1.335-.068,2.962-.589,3.322,1.4.241,1.336.363,2.828-1.288,3.551-.394.173-.95.1-1.247.352-.47.406.177,1.915-1.094,1.471-.89-.313-.348-1.5-.456-2.283a9.577,9.577,0,0,1-.008-1.377" transform="translate(-53.701 -43.411)" fill="#365997"/>
          <path id="Path_17225" data-name="Path 17225" d="M82.909,47.488c0-.618-.008-1.235,0-1.853s-.085-1.375.744-1.457c.814-.08.664.678.705,1.175a.908.908,0,0,0,.763.938A3.345,3.345,0,0,1,87.1,50.707c-.1.3-.2.647-.558.581a1.134,1.134,0,0,1-.7-.488,2.806,2.806,0,0,1-.124-.9c-.13-.849.381-2.417-.443-2.413-1.6.01-.645,1.674-.958,2.58-.155.453.179,1.259-.645,1.222-.672-.029-.711-.707-.721-1.255-.014-.849,0-1.7,0-2.547h-.039" transform="translate(-36.949 -44.151)" fill="#365997"/>
          <path id="Path_17226" data-name="Path 17226" d="M77.72,48.878l2.45.134a2.07,2.07,0,0,1-3.091.844c-1.482-.827-1.325-2.278-.822-3.514s1.7-1.328,2.937-.936a1.242,1.242,0,0,1,.925,1.346c-.006.636-.124,1.157-.882,1.34-.5.123-1,.278-1.5.419-.006.121-.014.245-.021.366" transform="translate(-43.498 -43.179)" fill="#365997"/>
          <path id="Path_17227" data-name="Path 17227" d="M69.142,48.484c.886.82,1.793.07,2.5.769a1.971,1.971,0,0,1-3.071.486c-1.325-.945-.96-2.44-.493-3.621s1.758-.94,2.821-.712c.74.158.87.785.861,1.381-.008.5-.062,1.046-.732,1.219-.565.147-1.134.289-1.882.478" transform="translate(-51.213 -43.165)" fill="#365997"/>
          <path id="Path_17228" data-name="Path 17228" d="M79.976,48.5c.806.887,1.727.024,2.446.708a1.861,1.861,0,0,1-2.966.574c-1.42-.982-1.09-2.59-.5-3.79.5-1.016,1.84-.938,2.894-.478a1.313,1.313,0,0,1,.795,1.459,1.166,1.166,0,0,1-.958,1.1c-.507.1-1,.247-1.711.425" transform="translate(-41.115 -43.188)" fill="#365997"/>
          <path id="Path_17229" data-name="Path 17229" d="M78.915,45.169c-2.174.1-2.409,1.134-2.238,2.506a17.09,17.09,0,0,1,.01,2.543c-.016.53.019,1.185-.785,1.115-.622-.052-.589-.622-.6-1.068-.021-1.078,0-2.158-.012-3.238-.008-.6.153-1.274-.664-1.529-.39-.122-1.078.078-1.012-.6s.742-.76,1.261-.725c1.183.082,2.477-.361,4.039,1" transform="translate(-45.642 -44.161)" fill="#365997"/>
          <path id="Path_17230" data-name="Path 17230" d="M81.171,47.8c-.051-.75-.068-.9-.072-1.057-.017-.816-.354-1.76.622-2.249.373-.186.946.361.82.53-.771,1.03,3.048,1.191.433,2.6a1.269,1.269,0,0,0,.377,2.189c.5.22.857.408.53.958a1.006,1.006,0,0,1-1.251.319c-2.047-.676-1.323-2.461-1.459-3.289" transform="translate(-38.719 -43.879)" fill="#365997"/>
          <path id="Path_17231" data-name="Path 17231" d="M73.365,45.631A2.351,2.351,0,0,0,71.857,48.4c.089.6.14,1.519-.763,1.556-.989.042-.8-.825-.781-1.466.01-.287-.029-.576-.037-.864-.068-2.548-.068-2.548,3.089-1.993" transform="translate(-48.772 -43.056)" fill="#365997"/>
          <path id="Path_17242" data-name="Path 17242" d="M64.465,47.027c-.177.622.237,1.5-.771,1.449-.746-.039-.631-.734-.62-1.251.014-.6-.056-1.389.795-1.371.82.017.317.861.6,1.173" transform="translate(-55.474 -42.71)" fill="#deeafa"/>
          <path id="Path_17243" data-name="Path 17243" d="M65.849,47.155c.085-.5-.231-1.257.554-1.294.874-.041.781.769.818,1.348.035.54.008,1.2-.682,1.249-1.086.082-.509-.847-.69-1.3" transform="translate(-52.894 -42.704)" fill="#deeafa"/>
        </g>
        <g id="Group_1186" data-name="Group 1186" transform="translate(0)">
          <path id="Path_17221" data-name="Path 17221" d="M136.407,46.779c-2.189,5.715-6.719,4.795-10.8,4.8-3.808.006-6.448-1.678-6.941-6.485-1.588,5.254-3.257,6.471-8.108,6.51-1.466.012-2.938.07-4.4-.045-3.4-.264-5.021-2.229-5.876-7.1-.984,1.611-.9,3.332-1.2,4.911-.75,3.987-2.818,6.334-7.019,6.679-3.321.273-6.587.357-9.951-.909a8.106,8.106,0,0,1-2.886,6.5c-2.091,1.7-4.715,1.729-7.247,1.938a12.81,12.81,0,0,1-2.313.017c-1.354-.132-1.8.457-1.644,1.748.284,2.3.441,4.611.8,6.894,1.128,7.173-2.114,11.171-9.322,11.4-2.975.1-3.015.1-2.518,2.923a33.717,33.717,0,0,1-.089,11.977c-.683,3.713-3.259,6.1-6.8,7.215a25.747,25.747,0,0,1-17.414-.38c-4.311-1.661-5.868-5.291-6.191-9.5a31.1,31.1,0,0,1,.542-10.361,9.663,9.663,0,0,1,8.119-7.522,32.542,32.542,0,0,1,7.131-.481c1.363.064,1.715-.43,1.692-1.729a75.188,75.188,0,0,1,1.282-13.105c1.158-7.341,5.28-8.632,11.233-8.57,1.766.019,2.009-.593,2.255-1.934a44.192,44.192,0,0,1,5.015-14.315c3.2-5.56,9.837-5.3,12.685-.285.145.252.344.473.853,1.167V34.259c.006-5.826,1.75-8.291,7.454-9.28,4.864-.841,9.821-1.025,14.173,2.419,1.609-4.444,5.131-5.522,9.251-5.556,3.477-.029,6.984-.174,9.837,2.394.7.628,1.091-.01,1.526-.426,2.988-2.857,12.49-2.353,15.08-.717a6.231,6.231,0,0,1,2.764,3.029c.433,1.2.957,1.023,1.977.5,5.833-2.969,11.707-2.281,17.207.692,3.317,1.795,3.582,5.32,3.081,8.789-.073.517-.458.994-.112,1.673,1.261-.463,2.064-1.719,3.445-2.008,3.735-.781,6.935.845,8.835,4.586a46.341,46.341,0,0,1,4.284,12.181c.3,1.55,1.025,2.132,2.495,1.719a13.527,13.527,0,0,1,6.181.174,7.776,7.776,0,0,1,6.522,6.369,71.4,71.4,0,0,1,1.8,14.89c.031,1.564.155,2.227,2.015,2.405,7,.674,10.436,4.566,10.562,11.58.039,2.163-.006,4.328-.023,6.493-.037,4.884-2.313,8.371-6.912,9.867-6.1,1.985-12.283,2.07-18.252-.667a8.922,8.922,0,0,1-5.384-8.266c-.159-4.223-.689-8.5.857-12.621.393-1.041-.383-.911-.948-1.05-6.525-1.622-7.227-4.826-6.922-9.673a37.906,37.906,0,0,1,.619-5.975c.5-2.182-.406-2.459-2.23-2.386a22.949,22.949,0,0,1-7.792-.624c-3.267-1.008-5.214-3.223-5.417-6.655-.093-1.562-.369-2.221-2.164-1.748-3.06.806-6.143.165-9.136-.527a6.036,6.036,0,0,1-4.972-5.65c-.106-.981-.338-1.95-.6-3.413" transform="translate(-26.321 -21.764)" fill="#6fa6d6"/>
          <g id="Group_1176" data-name="Group 1176" transform="translate(149.486 57.037)">
            <path id="Path_17233" data-name="Path 17233" d="M103.736,64.828a35.2,35.2,0,0,1,.373-5.542c.705-4.142,3.314-6.455,7.137-7.3a30.189,30.189,0,0,1,13.112-.08c5.27,1.175,7.531,3.629,8.032,9.039a40.09,40.09,0,0,1-.167,9.021,8.247,8.247,0,0,1-5.647,7.221,23.763,23.763,0,0,1-16.976.021c-4.373-1.572-5.63-5.171-5.855-9.365-.054-1-.008-2.012-.01-3.019" transform="translate(-103.719 -51.228)" fill="#fefefe"/>
            <path id="Path_17294" data-name="Path 17294" d="M109.032,52.508c3.054.876,6.1,1.7,9.173.13-.969.425-1.956.818-2.9,1.29a2.918,2.918,0,0,1-3.079.091,12.317,12.317,0,0,0-3.192-1.511" transform="translate(-97.162 -49.241)" fill="#365997"/>
            <path id="Path_17295" data-name="Path 17295" d="M106.208,58.69c.723.043,1.406.208,1.5,1.063.085.758-.513.794-1.065.816a1.211,1.211,0,0,1-1.383-1.187c-.058-.612.468-.676.946-.692" transform="translate(-100.72 -46.065)" fill="#d68b8b"/>
            <path id="Path_17296" data-name="Path 17296" d="M115.171,58.7c.647.012,1.119.142,1.057.756a1.126,1.126,0,0,1-1.259,1.078c-.505,0-.96-.15-.927-.754.041-.763.614-.991,1.129-1.08" transform="translate(-92.441 -46.052)" fill="#d68b8b"/>
            <path id="Path_17297" data-name="Path 17297" d="M109.335,59.078c1.214,1.29,2.42,1.482,4.031-.524-1.478,2.834-2.636,2.852-4.031.524" transform="translate(-96.877 -45.31)" fill="#365997"/>
            <path id="Path_17298" data-name="Path 17298" d="M116.688,57.522a12.978,12.978,0,0,0-5.01-.016c1.676-.8,3.349-1.239,5.01.016" transform="translate(-94.668 -47.908)" fill="#373b5d"/>
            <path id="Path_17299" data-name="Path 17299" d="M106.856,56.869c1.519.091,3.145-.616,4.5.7-1.445-.647-3.081.132-4.5-.7" transform="translate(-99.213 -47.885)" fill="#373b5d"/>
          </g>
          <g id="Group_1177" data-name="Group 1177" transform="translate(142.619 33.486)">
            <path id="Path_17237" data-name="Path 17237" d="M111.684,39.089c7.04-.039,9.26,1.95,10.247,9.093a98.838,98.838,0,0,1,1.055,11.508c.031,1.566-.55,2.191-2.176,2.1a19.7,19.7,0,0,0-7.994.991c-1.02.377-2.226.629-2.832,1.5-1.809,2.591-4,1.9-6.274.985a5.31,5.31,0,0,1-3.522-5.258A68.931,68.931,0,0,1,102.1,44.436c1.107-4.167,4.287-5.018,7.263-5.336a22.021,22.021,0,0,1,2.321-.012" transform="translate(-100.184 -39.061)" fill="#fefdfd"/>
            <path id="Path_17300" data-name="Path 17300" d="M106.88,43.536,111,42.92c-1.261,1.241-2.422,1.133-4.124.616" transform="translate(-93.569 -34.843)" fill="#373b5d"/>
            <path id="Path_17301" data-name="Path 17301" d="M106.049,43.424c-1.179.591-2.3.727-3.254-.433a16.262,16.262,0,0,0,3.254.433" transform="translate(-97.42 -34.776)" fill="#373b5d"/>
            <path id="Path_17302" data-name="Path 17302" d="M101.063,36.083c-.651.035-.93-.2-.907-.633a.716.716,0,0,1,.756-.672c.373-.014.806-.016.829.5.023.561-.457.682-.678.81" transform="translate(-90.036 -24.272)" fill="#365997"/>
            <path id="Path_17303" data-name="Path 17303" d="M38.55,52.739c-2.389,2.78-4.478.42-6.657-.4,2.236-.15,4.314,2.384,6.657.4" transform="translate(-24.086 -49.633)" fill="#365997"/>
          </g>
          <g id="Group_1178" data-name="Group 1178" transform="translate(127.676 14.839)">
            <path id="Path_17240" data-name="Path 17240" d="M102.512,56.97c-.62,0-1.239,0-1.859,0-6.228-.035-9.258-3.769-7.933-9.82,1.043-4.763,2.277-9.474,4.812-13.707,3.215-5.365,8.264-5.344,11.4.027A46.729,46.729,0,0,1,113.5,46.036c.237.956.258,1.492-.829,1.927a7.337,7.337,0,0,0-4.584,6.008c-.379,2.564-1.515,3.442-3.947,3.015a9.633,9.633,0,0,0-1.624-.016" transform="translate(-92.413 -29.429)" fill="#fdfdfc"/>
            <path id="Path_17304" data-name="Path 17304" d="M101.063,36.083c-.651.035-.93-.2-.907-.633a.716.716,0,0,1,.756-.672c.373-.014.806-.016.829.5.023.561-.457.682-.678.81" transform="translate(-85.52 -26.263)" fill="#d68b8b"/>
            <path id="Path_17305" data-name="Path 17305" d="M96.526,35.639c-.084.381-.41.509-.814.423-.468-.1-.87-.357-.736-.905.113-.458.575-.414.929-.359a.685.685,0,0,1,.622.841" transform="translate(-90.425 -26.271)" fill="#d68b8b"/>
            <path id="Path_17306" data-name="Path 17306" d="M100.387,33.522c.579.13,1.033.338.946.894a.964.964,0,0,1-.952.853c-.505-.023-.717-.435-.748-.964-.039-.664.348-.754.754-.783" transform="translate(-86.013 -27.443)" fill="#373b5d"/>
            <path id="Path_17307" data-name="Path 17307" d="M96.3,35.273a1.052,1.052,0,0,1-.775-.915.645.645,0,0,1,.606-.8c.509-.062.946.06.983.664a.988.988,0,0,1-.814,1.049" transform="translate(-89.885 -27.421)" fill="#373b5d"/>
            <path id="Path_17308" data-name="Path 17308" d="M100.249,110.216c-.468-.19-1.008-.284-.95-.851.054-.538.647-.556,1.028-.709.536-.216.587.253.612.614a.882.882,0,0,1-.69.946" transform="translate(-88.293 -98.257)" fill="#ab4556"/>
            <path id="Path_17309" data-name="Path 17309" d="M87.06,115.2a9.091,9.091,0,0,0,5.505.142c-2.077,1.29-3.128,1.265-5.505-.142" transform="translate(-79.607 -105.123)" fill="#365997"/>
          </g>
          <g id="Group_1179" data-name="Group 1179" transform="translate(110.677 4.238)">
            <path id="Path_17234" data-name="Path 17234" d="M83.652,35.809c0-1.471-.082-2.947.016-4.412.284-4.334,1.981-6.476,6.177-7.127a20.534,20.534,0,0,1,11.364,1.109,6.334,6.334,0,0,1,4.013,6.467c-.1,2.877-.212,5.83-1.638,8.571a39.26,39.26,0,0,0-3.429,10.548,2.5,2.5,0,0,1-2.648,2.3,29.121,29.121,0,0,1-8.532-.441,5.384,5.384,0,0,1-4.4-4.785,71.82,71.82,0,0,1-.923-12.23" transform="translate(-83.619 -23.946)" fill="#fefefe"/>
            <path id="Path_17310" data-name="Path 17310" d="M94.538,31.254c-.177.851-.814,1.061-1.552,1.066-.643.008-1.371-.118-1.369-.9,0-.942.841-.977,1.539-.973.577,0,1.305-.132,1.383.8" transform="translate(-76.368 -22.177)" fill="#373b5d"/>
            <path id="Path_17311" data-name="Path 17311" d="M87.95,31.041c-.138.763-.668.814-1.218.791-.744-.031-1.4-.284-1.408-1.142-.006-.723.614-.754,1.162-.734a1.378,1.378,0,0,1,1.465,1.086" transform="translate(-82.299 -22.642)" fill="#373b5d"/>
            <path id="Path_17312" data-name="Path 17312" d="M109.335,59.078c1.214,1.29,2.42,1.482,4.031-.524-1.478,2.834-2.636,2.852-4.031.524" transform="translate(-100.832 -49.331)" fill="#365997"/>
            <path id="Path_17313" data-name="Path 17313" d="M116.688,57.522a12.978,12.978,0,0,0-5.01-.016c1.676-.8,3.349-1.239,5.01.016" transform="translate(-98.335 -52.505)" fill="#373b5d"/>
            <path id="Path_17314" data-name="Path 17314" d="M106.856,56.869c1.519.091,3.145-.616,4.5.7-1.445-.647-3.081.132-4.5-.7" transform="translate(-103.831 -52.481)" fill="#373b5d"/>
          </g>
          <g id="Group_1180" data-name="Group 1180" transform="translate(91.551 1.05)">
            <path id="Path_17238" data-name="Path 17238" d="M83.665,22.332A11.279,11.279,0,0,1,90.3,23.815a4.907,4.907,0,0,1,2.17,5.977c-.919,2.8-.573,5.68-.532,8.52a29.619,29.619,0,0,1-.884,7.555,5.018,5.018,0,0,1-.214.9c-2.012,4.336-5.977,3.345-9.5,3.392-2.916.039-5.041-1.461-5.6-3.914a75.528,75.528,0,0,1-2.018-16.265c-.039-4.5,1.663-6.966,7.591-7.636a23.238,23.238,0,0,1,2.352-.01" transform="translate(-73.721 -22.305)" fill="#fefdfd"/>
            <path id="Path_17315" data-name="Path 17315" d="M77.806,26.658c-.027.89-.392,1.082-.9,1.068-.612-.017-1.022-.309-.956-.965a.883.883,0,0,1,.909-.812c.548.025.95.379.95.709" transform="translate(-71.846 -19.588)" fill="#373b5d"/>
            <path id="Path_17316" data-name="Path 17316" d="M77.806,26.658c-.027.89-.392,1.082-.9,1.068-.612-.017-1.022-.309-.956-.965a.883.883,0,0,1,.909-.812c.548.025.95.379.95.709" transform="translate(-62.126 -19.53)" fill="#373b5d"/>
            <path id="Path_17317" data-name="Path 17317" d="M77.251,28.091c-.157.614-.563.612-.93.589-.48-.031-.964-.249-.975-.763-.016-.631.534-.62.995-.565a1.05,1.05,0,0,1,.911.74" transform="translate(-72.407 -18.287)" fill="#d68b8b"/>
            <path id="Path_17318" data-name="Path 17318" d="M77.251,28.091c-.157.614-.563.612-.93.589-.48-.031-.964-.249-.975-.763-.016-.631.534-.62.995-.565a1.05,1.05,0,0,1,.911.74" transform="translate(-61.804 -18.23)" fill="#d68b8b"/>
            <path id="Path_17319" data-name="Path 17319" d="M101.063,36.083c-.651.035-.93-.2-.907-.633a.716.716,0,0,1,.756-.672c.373-.014.806-.016.829.5.023.561-.457.682-.678.81" transform="translate(-91.643 -24.105)" fill="#365997"/>
          </g>
          <g id="Group_1184" data-name="Group 1184" transform="translate(18.642 33.421)">
            <path id="Path_17236" data-name="Path 17236" d="M58.781,57.1c.253,6.519-1.7,8.693-7.97,9.332-2.086.214-4.041.42-5.711-1.814-1.587-2.125-4.433-2.718-7.071-3.013-1.589-.177-2.187-.942-2.055-2.4a109.619,109.619,0,0,1,1.735-13.983,7.009,7.009,0,0,1,6.273-5.892,23.078,23.078,0,0,1,7.154-.037,7.074,7.074,0,0,1,6.111,5.855A97.116,97.116,0,0,1,58.781,57.1" transform="translate(-35.956 -39.028)" fill="#fefdfd"/>
            <path id="Path_17348" data-name="Path 17348" d="M43.58,99.951c1.657-1.2,2.865-.653,4.363.418l-4.363-.418" transform="translate(-29.448 -90.933)" fill="#373b5d"/>
            <path id="Path_17349" data-name="Path 17349" d="M39.116,100.486c1.119-1.422,2.378-1.57,4.017-.558-1.49.342-2.826-.216-4.017.558" transform="translate(-33.655 -90.926)" fill="#373b5d"/>
            <path id="Path_17350" data-name="Path 17350" d="M63.47,115.07c.565-.066.958.117,1,.674.08,1-.666,1.269-1.426,1.408-.573.1-1.129-.128-1.133-.777-.006-1.006.962-.993,1.556-1.305" transform="translate(-45.661 -104.496)" fill="#d68b8b"/>
            <path id="Path_17351" data-name="Path 17351" d="M56.629,115.208c.765.064,1.449.144,1.486.952.033.688-.511.932-1.107.849s-1.292-.262-1.377-1.012c-.1-.839.635-.676,1-.789" transform="translate(-51.592 -104.354)" fill="#d68b8b"/>
            <path id="Path_17352" data-name="Path 17352" d="M87.06,115.2a9.091,9.091,0,0,0,5.505.142c-2.077,1.29-3.128,1.265-5.505-.142" transform="translate(-78.39 -102.518)" fill="#365997"/>
            <path id="Path_17353" data-name="Path 17353" d="M38.55,52.739c-2.389,2.78-4.478.42-6.657-.4,2.236-.15,4.314,2.384,6.657.4" transform="translate(-24.006 -50.046)" fill="#365997"/>
          </g>
          <g id="Group_1185" data-name="Group 1185" transform="translate(1.196 56.628)">
            <path id="Path_17232" data-name="Path 17232" d="M55.612,64.739c0,.309-.012.62,0,.929C56,74.826,52.37,77.449,43.222,78.453a24.154,24.154,0,0,1-10.031-1.282,7.93,7.93,0,0,1-5.832-6.813,40.684,40.684,0,0,1-.006-11.109,8.233,8.233,0,0,1,6.958-7.421c5.1-1.047,10.263-1.257,15.327.439,3.984,1.333,5.587,4.38,5.905,8.293.113,1.385.017,2.786.017,4.178h.05" transform="translate(-26.975 -51.018)" fill="#fefefe"/>
            <path id="Path_17364" data-name="Path 17364" d="M38.55,52.739c-2.389,2.78-4.478.42-6.657-.4,2.236-.15,4.314,2.384,6.657.4" transform="translate(-20.272 -51.281)" fill="#365997"/>
            <path id="Path_17365" data-name="Path 17365" d="M31.7,60.3c-.649-.183-1.412-.344-1.443-1.195-.019-.581.559-.637,1.033-.633.639.006,1.307.1,1.439.841.124.69-.437.888-1.03.987" transform="translate(-24.468 -48.147)" fill="#d68b8b"/>
            <path id="Path_17366" data-name="Path 17366" d="M41.389,59.371c-.218.794-.868.936-1.61.892-.42-.023-.861-.251-.785-.666a1.379,1.379,0,0,1,1.542-1.115c.536,0,.9.212.853.89" transform="translate(-16.237 -48.136)" fill="#d68b8b"/>
            <path id="Path_17367" data-name="Path 17367" d="M36.9,57.747c1.336-.3,2.6.138,3.772-.373-1.107,1.1-2.261,1.742-3.772.373" transform="translate(-18.207 -49.18)" fill="#373b5d"/>
            <path id="Path_17368" data-name="Path 17368" d="M35.141,57.583c-.965,1.136-1.987.837-3.366,0Z" transform="translate(-23.034 -48.983)" fill="#373b5d"/>
            <path id="Path_17369" data-name="Path 17369" d="M109.335,59.078c1.214,1.29,2.42,1.482,4.031-.524-1.478,2.834-2.636,2.852-4.031.524" transform="translate(-95.621 -48.068)" fill="#365997"/>
          </g>
          <text id="E" transform="translate(12.95 74.554)" fill="#365997" font-size="5" font-family="ComicSansMS, Comic Sans MS"><tspan x="0" y="0">E</tspan></text>
          <text id="E-2" data-name="E" transform="translate(160.818 76.321)" fill="#365997" font-size="5" font-family="ComicSansMS, Comic Sans MS"><tspan x="0" y="0">E</tspan></text>
          <text id="D" transform="translate(150.049 50.853)" fill="#365997" font-size="6" font-family="ComicSansMS, Comic Sans MS"><tspan x="0" y="0">D</tspan></text>
          <text id="D-2" data-name="D" transform="translate(27.129 52.615)" fill="#365997" font-size="6" font-family="ComicSansMS, Comic Sans MS"><tspan x="0" y="0">D</tspan></text>
          <text id="C" transform="translate(133.809 32.236)" fill="#365997" font-size="5" font-family="ComicSansMS, Comic Sans MS"><tspan x="0" y="0">C</tspan></text>
          <g id="Group_1183" data-name="Group 1183" transform="translate(33.311 12.988)">
            <path id="Path_17241" data-name="Path 17241" d="M55.549,56.042a19.187,19.187,0,0,0-2.088.014c-1.459.155-2.135-.315-2.531-1.884-.738-2.941-2.553-5.14-5.719-5.734-1.581-.3-1.795-1.235-1.511-2.494a46.967,46.967,0,0,1,4.65-13.277c3.168-5.527,8.314-5.62,11.535-.1a39.387,39.387,0,0,1,5.031,15.776c.455,4.245-2.533,7.43-6.814,7.669-.849.047-1.7.006-2.553.006Z" transform="translate(-43.593 -28.473)" fill="#fefdfd"/>
            <path id="Path_17330" data-name="Path 17330" d="M48.365,33.408c-.1.608-.458,1.018-1.024.981a.917.917,0,0,1-.857-.874c-.027-.653.385-.932,1-.919a.881.881,0,0,1,.884.812" transform="translate(-40.811 -25.206)" fill="#373b5d"/>
            <path id="Path_17331" data-name="Path 17331" d="M51.328,32.609c.874-.052,1.1.27,1.068.831a.9.9,0,0,1-.835.921.927.927,0,0,1-.977-.806c-.1-.7.5-.828.744-.946" transform="translate(-36.957 -25.199)" fill="#373b5d"/>
            <path id="Path_17332" data-name="Path 17332" d="M47.728,34.683c-.085.447-.326.715-.777.614s-.919-.254-.907-.839a.57.57,0,0,1,.746-.606,1.032,1.032,0,0,1,.938.831" transform="translate(-41.225 -24.041)" fill="#365997"/>
            <path id="Path_17333" data-name="Path 17333" d="M52.09,33.832c.423.027.857.212.831.629-.031.53-.507.742-1.022.686-.414-.047-.769-.276-.7-.736s.486-.546.89-.579" transform="translate(-36.373 -24.041)" fill="#365997"/>
            <path id="Path_17334" data-name="Path 17334" d="M100.249,110.216c-.468-.19-1.008-.284-.95-.851.054-.538.647-.556,1.028-.709.536-.216.587.253.612.614a.882.882,0,0,1-.69.946" transform="translate(-87.756 -97.03)" fill="#ab4556"/>
            <path id="Path_17335" data-name="Path 17335" d="M87.06,115.2a9.091,9.091,0,0,0,5.505.142c-2.077,1.29-3.128,1.265-5.505-.142" transform="translate(-79.07 -103.896)" fill="#365997"/>
            <text id="C-2" data-name="C" transform="translate(7.429 18.386)" fill="#365997" font-size="5" font-family="ComicSansMS, Comic Sans MS"><tspan x="0" y="0">C</tspan></text>
          </g>
          <g id="Group_1182" data-name="Group 1182" transform="translate(51.918 3.889)">
            <path id="Path_17235" data-name="Path 17235" d="M74.629,33.954c.084,4.99-1.024,9.818-2.075,14.641-.647,2.96-2.411,4.324-5.42,4.4-2.317.064-4.643.091-6.958-.035A3.4,3.4,0,0,1,56.585,49.8c-.775-4.781-3.174-9.186-3.225-14.179-.014-1.607-.214-3.244-.111-4.853.216-3.4,2.094-5.5,5.451-6.333a22.628,22.628,0,0,1,10.323-.146c3.722.8,5.513,3.048,5.6,6.877.021.929.006,1.857.006,2.786" transform="translate(-53.22 -23.766)" fill="#fefdfd"/>
            <path id="Path_17325" data-name="Path 17325" d="M63.811,30.888c-.278.936-1.055.993-1.84.95-.4-.021-1.057.078-.9-.657.221-1.012.983-1.284,1.933-1.189.528.054.866.276.8.9" transform="translate(-46.114 -20.469)" fill="#d68b8b"/>
            <path id="Path_17326" data-name="Path 17326" d="M57.242,31.074c-.054.8-.643.746-1.166.734-.633-.017-1.313-.15-1.34-.917-.031-.812.645-.927,1.29-.9a1.14,1.14,0,0,1,1.216,1.084" transform="translate(-52.067 -20.457)" fill="#d68b8b"/>
            <path id="Path_17327" data-name="Path 17327" d="M62.846,30.222a5.617,5.617,0,0,1-5.876-.064,30.3,30.3,0,0,0,5.876.064" transform="translate(-49.961 -20.296)" fill="#365997"/>
            <path id="Path_17328" data-name="Path 17328" d="M57.11,30.1A.887.887,0,1,1,57,28.344a.894.894,0,0,1,.907.847.77.77,0,0,1-.8.911" transform="translate(-50.816 -22.006)" fill="#373b5d"/>
            <path id="Path_17329" data-name="Path 17329" d="M61.923,28.865c.111,1.09-.239,1.257-.789,1.235a.942.942,0,0,1-.967-.8c-.1-.575.41-.862.822-.93a.8.8,0,0,1,.934.5" transform="translate(-46.959 -21.997)" fill="#373b5d"/>
            <text id="B" transform="translate(6.172 18.48)" fill="#365997" font-size="5" font-family="ComicSansMS, Comic Sans MS"><tspan x="0" y="0">B</tspan></text>
          </g>
          <text id="B-2" data-name="B" transform="translate(117.675 20.723)" fill="#365997" font-size="5" font-family="ComicSansMS, Comic Sans MS"><tspan x="0" y="0">B</tspan></text>
          <text id="A" transform="translate(96.261 13.21)" fill="#365997" font-size="12" font-family="ComicSansMS, Comic Sans MS"><tspan x="0" y="13">A</tspan></text>
          <g id="Group_1181" data-name="Group 1181" transform="translate(73.688 1.03)">
            <path id="Path_17239" data-name="Path 17239" d="M73.833,22.365A12.257,12.257,0,0,1,80.506,23.6a2.131,2.131,0,0,1,1.267,2.957c-1.356,4.513-.111,9.052.389,13.557.284,2.554-.552,4.851-1.063,7.238a.6.6,0,0,1-.091.212c-2.467,3.491-6.183,2.6-9.559,2.582-2.8-.014-4.542-1.381-5.157-3.835-.82-3.277-1.741-6.527-1.076-10.035a14.043,14.043,0,0,0-.5-6.882,4.9,4.9,0,0,1,2.924-6.03,12.442,12.442,0,0,1,6.2-.995" transform="translate(-64.478 -22.294)" fill="#fefdfd"/>
            <path id="Path_17320" data-name="Path 17320" d="M72.786,27.315c.346.066.843.025.837.532-.006.676-.552.831-1.111.847-.394.012-.806-.1-.829-.569-.039-.76.548-.777,1.1-.81" transform="translate(-58.335 -18.119)" fill="#d68b8b"/>
            <path id="Path_17321" data-name="Path 17321" d="M68.378,28.22c-.109.5-.524.474-.892.462-.493-.016-.979-.231-1.006-.742-.035-.631.513-.666.981-.589s.872.291.917.868" transform="translate(-63.239 -18.112)" fill="#d68b8b"/>
            <path id="Path_17322" data-name="Path 17322" d="M72.055,27.353c-1.15,1.292-2.314,1.472-3.5-.1a2.729,2.729,0,0,0,3.5.1" transform="translate(-61.279 -18.176)" fill="#365997"/>
            <path id="Path_17323" data-name="Path 17323" d="M72.84,26.966c-.159.435-.387.775-.929.787-.571.012-.851-.254-.794-.8s.262-1.1.925-.979a1.085,1.085,0,0,1,.8,1" transform="translate(-58.873 -19.403)" fill="#373b5d"/>
            <path id="Path_17324" data-name="Path 17324" d="M67.855,25.977a1.042,1.042,0,0,1,.736,1.074c-.047.639-.511.68-.993.62s-.6-.412-.571-.829a.845.845,0,0,1,.828-.864" transform="translate(-62.726 -19.38)" fill="#373b5d"/>
            <text id="A-2" data-name="A" transform="translate(4.51 10.09)" fill="#365997" font-size="12" font-family="ComicSansMS, Comic Sans MS"><tspan x="0" y="13">A</tspan></text>
          </g>
        </g>
      </g>
      <g id="Group_1175" data-name="Group 1175" transform="translate(0 140.499)">
        <path id="Path_17266" data-name="Path 17266" d="M135.656,159.286c-.482,4.865-2.1,7.937-6.795,8.341-6.894.591-8.954-.354-11.583-5.572-1.679,4.489-3.433,5.589-8.965,5.612-6.183.029-6.8-.476-9.606-7.808-4.092,4.678-9.413,3.6-14.5,2.8-3.427-.539-4.336-3.559-4.856-6.548-.37-2.111-.7-4.228-1.009-6.348-.168-1.134-.469-1.479-1.8-1.092-4.07,1.183-8.284.948-12.414.439-4.1-.507-6.909-4.613-6.4-8.775.19-1.568,1.063-3.69.368-4.561-.815-1.021-3.038-.322-4.641-.295a18.89,18.89,0,0,1-5.021-.7c-4.053-1.048-5.894-3.679-5.8-7.952a69.34,69.34,0,0,1,1.425-12.55c.3-1.441.068-1.911-1.477-1.841a20.531,20.531,0,0,1-8.561-1.651,8.8,8.8,0,0,1-5.815-6.885,38.136,38.136,0,0,1-.151-11.485c.612-4.975,3.6-7.887,8.644-8.777a33.358,33.358,0,0,1,13.307.037c5.426,1.227,8.383,4.64,8.532,10.16.1,3.74.534,7.525-.581,11.209-.2.649-.037,1.123.635,1.194,6.729.724,7.631,5.855,8.172,11.007.217,2.08.281,3.016,2.87,2.654,2.99-.418,4.934,1.751,6.477,4.075a32.319,32.319,0,0,1,3.59,8.443c.316,1.023.248,1.695,1.867.932a19.176,19.176,0,0,1,14.852-.443,6.76,6.76,0,0,1,4.49,4.915c.277,1.111.7,1.138,1.781.842,4.806-1.315,9.57-1.608,13.938,1.441.5.345.79.491,1.386.079,4.518-3.109,9.4-2.885,14.387-1.412.289.085.591.131.978.216.73-4.757,4.212-6.485,8.3-7.02,4.289-.559,8.63-.456,12.656,2.088.529-1.529,1.005-2.968,1.52-4.391a21.687,21.687,0,0,1,3.594-6.91c1.685-1.99,3.685-3.361,6.382-2.893,1.692.293,2.012-.43,2.02-1.8a18.214,18.214,0,0,1,1.679-7.583,6.823,6.823,0,0,1,5.519-4.046c1.667-.229,1.7-.759,1.425-2.228a29.323,29.323,0,0,1,.147-13.453,8.941,8.941,0,0,1,6.6-6.716,32.592,32.592,0,0,1,14.432-.507c5.162.946,8.3,3.865,8.985,9.1.529,4.05.769,8.2-.411,12.116-1.71,5.7-6.717,6.941-11.853,7.6-3.735.474-3.621.366-3.329,4.124.281,3.584,1.146,7.111,1.007,10.732-.174,4.493-2.488,7.061-6.928,7.837a33.352,33.352,0,0,1-7.374.4c-1.468-.069-1.989.206-1.385,1.756a11.637,11.637,0,0,1,.345,5.7,7.421,7.421,0,0,1-7.383,6.362c-3.9.148-7.864.674-11.68-.734-1.263-.464-1.195.418-1.29,1.21a81.273,81.273,0,0,1-1.681,8.573,5.528,5.528,0,0,1-4.429,4.47,25.189,25.189,0,0,1-9.651.106c-1.838-.295-3.381-1.389-4.944-3.586" transform="translate(-27.697 -82.952)" fill="#6fa6d6"/>
        <path id="Path_17267" data-name="Path 17267" d="M43.094,83.665A20.035,20.035,0,0,1,50.5,84.5a8.294,8.294,0,0,1,6.175,7.3,36.764,36.764,0,0,1-.012,11.313c-.291,1.673-.932,2.475-2.854,2.43-3.8-.089-7.252.814-9.138,4.643a1.522,1.522,0,0,1-1.523.851,22.556,22.556,0,0,1-10.329-2.226c-3.485-1.783-4.262-5.142-4.439-8.635a33.849,33.849,0,0,1,.293-8.1c.913-4.781,3.077-7.04,7.794-7.957a29.407,29.407,0,0,1,6.622-.456" transform="translate(-27.416 -82.325)" fill="#fefefe"/>
        <path id="Path_17268" data-name="Path 17268" d="M104.893,96.993a54.484,54.484,0,0,1,.361-5.719,8.254,8.254,0,0,1,6.915-6.916,30.521,30.521,0,0,1,14.449.161c3.45.956,5.723,3.034,6.408,6.546a32.781,32.781,0,0,1-.093,12.421c-.958,5.074-5.022,6.189-9.2,7.108-.977.216-1.989.284-2.984.423-1.77.249-3.108.1-4.21-1.818-1.772-3.094-5.1-3.572-8.328-3.592-1.8-.01-2.564-.565-2.959-2.325-.468-2.092-.169-4.167-.365-6.29" transform="translate(44.222 -82.369)" fill="#fefefe"/>
        <path id="Path_17269" data-name="Path 17269" d="M54.132,118.612c-.07-3.032-.332-6.1,2.8-8.052a7.827,7.827,0,0,1,2.778-1.074,24.159,24.159,0,0,1,11.216.256,6.013,6.013,0,0,1,4.235,4.221,2.65,2.65,0,0,1-.563,2.9c-2.366,2.788-1.917,6.206-1.641,9.515.146,1.764.705,3.53.618,5.27-.153,3.093-.919,5.6-4.584,6.259-3.281.592-6.57.919-9.783-.416a4.342,4.342,0,0,1-2.76-3.141,68.443,68.443,0,0,1-2.31-15.735" transform="translate(-3.269 -59.176)" fill="#fefefe"/>
        <path id="Path_17270" data-name="Path 17270" d="M93.243,109.029c.929,0,1.863-.062,2.786.01,4.886.389,8.3,2.58,8.087,8.277a88.662,88.662,0,0,1-2.185,16.018c-.746,3.337-2.053,4.443-5.847,4.847a19.968,19.968,0,0,1-5.779-.122c-4.612-.853-6.292-3.4-5.6-8.06a31.937,31.937,0,0,0,.35-9.9A7.275,7.275,0,0,0,84,117.3a4.722,4.722,0,0,1,2.43-7.312,11.977,11.977,0,0,1,2.877-.864,35.03,35.03,0,0,1,3.94-.037v-.058" transform="translate(23.86 -59.128)" fill="#fefefe"/>
        <path id="Path_17271" data-name="Path 17271" d="M47.363,95.581c.618,0,1.237-.025,1.855,0,5.072.245,7.063,1.875,8.165,6.807.367,1.649.559,3.339.814,5.014a3.161,3.161,0,0,1-1.134,3.042,17.186,17.186,0,0,0-4.744,9.113c-.6,2.716-2.094,3.528-4.441,3.343-2.374-.188-4.786-.1-7.114-.8-3.1-.923-4.94-3.025-4.773-6.263a77.025,77.025,0,0,1,1.834-14.89,6.826,6.826,0,0,1,6.294-5.29c1.072-.1,2.162-.016,3.244-.016v-.068" transform="translate(-20.159 -71.367)" fill="#fdfcfc"/>
        <path id="Path_17272" data-name="Path 17272" d="M100.657,107.216c.307-1.768.637-3.737.993-5.7a6.443,6.443,0,0,1,5.406-5.608,23.446,23.446,0,0,1,8.763.017c3,.571,4.654,2.671,5.286,5.513a93.321,93.321,0,0,1,1.7,14.2c.218,3.384-1.191,5.315-4.518,6.4a24.437,24.437,0,0,1-9.377.82,1.9,1.9,0,0,1-1.913-1.573c-1.294-4.285-2.519-8.635-6.179-11.681-.814-.676.159-1.447-.155-2.389" transform="translate(40.062 -71.432)" fill="#fcfcfc"/>
        <path id="Path_17273" data-name="Path 17273" d="M73.814,121.952c-.519-6.947,1.032-9.926,9.276-9.858a16.088,16.088,0,0,1,5.733.616,5.808,5.808,0,0,1,4.083,5.6,67.37,67.37,0,0,1-2,17.673c-.472,2.121-2.042,3.188-4.095,3.6a4.342,4.342,0,0,1-.7.033c-11.162.437-9.891-.964-11.766-11.135a28.755,28.755,0,0,1-.53-6.533" transform="translate(15.098 -56.217)" fill="#fefdfd"/>
        <path id="Path_17274" data-name="Path 17274" d="M73.629,139.655c-.62,0-1.239.012-1.859,0-3.279-.068-4.858-1.288-5.532-4.431a98.437,98.437,0,0,1-1.96-14.668c-.332-5.416,2.277-8.2,7.762-8.4,2.543-.089,5.124-.317,7.58.612,1.774.67,2.964,1.455,2.273,3.918-1.245,4.427.021,8.907.488,13.345a14.705,14.705,0,0,1-1.3,7.18c-.715,1.746-2.453,2.244-4.2,2.407-1.074.1-2.166.019-3.25.019Z" transform="translate(6.235 -56.241)" fill="#fefdfd"/>
        <path id="Path_17275" data-name="Path 17275" d="M54.583,130.245c-.853,0-1.706.035-2.556,0-6.348-.293-9.072-3.421-8.011-9.686a42.6,42.6,0,0,1,4.612-13.563c1.173-2.121,2.58-4.052,5.395-4.241a5.7,5.7,0,0,1,5.525,2.729A33.176,33.176,0,0,1,63.9,115.666c.142.577.437,1.115.037,1.768-1.818,2.966-1.665,6.249-1.16,9.468a2,2,0,0,1-1.55,2.582,16.993,16.993,0,0,1-6.642.762" transform="translate(-12.908 -64.791)" fill="#fdfdfd"/>
        <path id="Path_17276" data-name="Path 17276" d="M103.246,130.263a16.114,16.114,0,0,1-7.046-1,1.556,1.556,0,0,1-1.16-1.719c.229-3.607.727-7.257-1.305-10.6-.15-.249.056-.744.157-1.107a40.7,40.7,0,0,1,3.866-9.635c2.467-4.254,7.873-4.821,10.595-.528a37.788,37.788,0,0,1,5.631,17.225c.371,4.34-2.708,7.007-7.722,7.358-1,.07-2.012.01-3.017.012" transform="translate(33.77 -64.809)" fill="#fdfdfc"/>
        <g id="Group_1162" data-name="Group 1162" transform="translate(64.221 28.063)">
          <path id="Path_17277" data-name="Path 17277" d="M68.986,107.384c-.8.548-.247,1.863-1.389,1.828-1.088-.035-.872-1.09-1.154-1.744-.089-.212-.266-.433-.249-.637.08-.857-1.22-2-.1-2.453,1.4-.573.536,1.554,1.789,1.733.371-.505-.2-2.044,1.144-1.993.991.039.552,1.307,1.065,1.83.188-.047.361-.039.46-.122.524-.439-.056-1.939,1.142-1.556.96.307.342,1.3.136,2a5.674,5.674,0,0,1-.319,1.105c-.344.643-.171,1.741-1.121,1.849-1.212.136-.707-1.315-1.4-1.838" transform="translate(-55.91 -102.276)" fill="#365997"/>
          <path id="Path_17278" data-name="Path 17278" d="M84.6,106.367a13.873,13.873,0,0,1,.016-1.557c.074-.606-.367-1.5.571-1.707.954-.206.69.72.909,1.2.109.234.379.55.6.567,3.227.24,1.88,2.626,2.135,4.24.052.34-.058.8-.561.814-.567.019-.793-.386-.822-.867-.035-.593.014-1.189-.033-1.78-.037-.462.192-1.178-.664-1.126-.725.043-.627.683-.727,1.188-.171.869.54,2.508-.567,2.454-1.523-.077-.565-1.8-.847-2.763a2.312,2.312,0,0,1-.006-.666" transform="translate(-38.529 -103.015)" fill="#365997"/>
          <path id="Path_17279" data-name="Path 17279" d="M81.724,107.8c.81.888,1.824-.581,2.374.528.136.274-.117.55-.422.7a2.476,2.476,0,0,1-2.628-.051c-1.3-.866-.742-2.2-.725-3.378.017-1.082.868-1.426,1.713-1.537a1.816,1.816,0,0,1,2.244,1.494c.157.956-.4,1.577-1.443,1.673-.42.039-.958-.082-1.113.567" transform="translate(-42.541 -102.342)" fill="#365997"/>
          <path id="Path_17280" data-name="Path 17280" d="M79.191,107.537c.688,1.154,1.791.064,2.481.969a2.191,2.191,0,0,1-2.772.629,2.121,2.121,0,0,1-1.261-2.251c0-1.02.033-2,1.152-2.556a2.107,2.107,0,0,1,2.378.175,1.545,1.545,0,0,1,.556,1.651c-.155,1.039-1.006,1-1.764,1.115a5.007,5.007,0,0,0-.769.268" transform="translate(-44.883 -102.345)" fill="#365997"/>
          <path id="Path_17281" data-name="Path 17281" d="M67.58,106.989c-.078,1.418-.831,2.457-2.407,2.374-1.56-.084-2.18-1.154-2.162-2.716.017-1.581.682-2.582,2.265-2.591,1.783-.012,2.279,1.265,2.3,2.933" transform="translate(-58.254 -102.332)" fill="#365997"/>
          <path id="Path_17282" data-name="Path 17282" d="M71.015,107.859c.666.657,1.583-.179,2.3.631a2.027,2.027,0,0,1-2.97.491c-1.37-.779-.954-2.119-.831-3.316.117-1.152,1.028-1.513,1.966-1.606a1.686,1.686,0,0,1,1.939,1.292c.276,1.031-.227,1.595-1.2,1.849-.4.107-.971-.136-1.2.659" transform="translate(-52.49 -102.341)" fill="#365997"/>
          <path id="Path_17283" data-name="Path 17283" d="M78.148,103.06a4.98,4.98,0,0,1,1.325.1c.507.13.761.858.239.963-2.2.441-1.082,2.049-1.315,3.16a8.034,8.034,0,0,0-.039,1.561c-.006.542-.066,1.173-.765,1.128-.74-.049-.587-.762-.6-1.25-.033-1.042,0-2.087-.021-3.13-.012-.417.117-.9-.423-1.167-.453-.225-1.525.161-1.2-.845.262-.822,1.187-.422,1.832-.512.15-.023.307,0,.975,0" transform="translate(-47.052 -103.043)" fill="#365997"/>
          <path id="Path_17284" data-name="Path 17284" d="M83.582,103.348c1.082.146.5,1.7,1.787,2,.678.157-.315.623-.6.96-.627.738-.789,1.576.138,2.224.326.227,1.049.1.7.783a1.022,1.022,0,0,1-1.408.376c-.491-.189-1-.326-1.191-.942a14.911,14.911,0,0,1-.235-4.66.779.779,0,0,1,.806-.743" transform="translate(-40.275 -102.756)" fill="#365997"/>
          <path id="Path_17285" data-name="Path 17285" d="M60.6,106.046c.352-.855-.637-2.851.633-2.85,1.521,0,.715,1.94.73,2.99.025,1.545-.039,2.859,2.18,2.552a.612.612,0,0,1,.5.311.584.584,0,0,1-.2.544,4.693,4.693,0,0,1-3.161.094c-.977-.217-.616-1.055-.666-1.667-.05-.59-.012-1.189-.012-1.974" transform="translate(-60.562 -102.899)" fill="#365997"/>
          <path id="Path_17286" data-name="Path 17286" d="M72.01,107.148c-.1-1.744-.538-3.131,1.564-2.933.482.047,1.1-.445,1.368.253.332.859-.544.647-.921.913-.771.548-.313,1.412-.39,2.137s.153,1.8-.965,1.709c-.905-.072-.678-1.035-.657-1.715.01-.307,0-.614,0-.363" transform="translate(-50.144 -102.3)" fill="#365997"/>
          <path id="Path_17287" data-name="Path 17287" d="M65.3,106.067c.006.515.146,1.313-.693,1.34-.8.025-.82-.769-.826-1.379s-.008-1.352.876-1.3c.773.045.592.744.643,1.34" transform="translate(-57.533 -101.631)" fill="#deeafa"/>
        </g>
        <g id="Group_1172" data-name="Group 1172" transform="translate(35.249 44.403)">
          <path id="Path_17336" data-name="Path 17336" d="M48.365,33.408c-.1.608-.458,1.018-1.024.981a.917.917,0,0,1-.857-.874c-.027-.653.385-.932,1-.919a.881.881,0,0,1,.884.812" transform="translate(-45.629 -32.596)" fill="#373b5d"/>
          <path id="Path_17337" data-name="Path 17337" d="M51.328,32.609c.874-.052,1.1.27,1.068.831a.9.9,0,0,1-.835.921.927.927,0,0,1-.977-.806c-.1-.7.5-.828.744-.946" transform="translate(-41.776 -32.589)" fill="#373b5d"/>
          <path id="Path_17338" data-name="Path 17338" d="M47.728,34.683c-.085.447-.326.715-.777.614s-.919-.254-.907-.839a.57.57,0,0,1,.746-.606,1.032,1.032,0,0,1,.938.831" transform="translate(-46.044 -31.431)" fill="#365997"/>
          <path id="Path_17339" data-name="Path 17339" d="M52.09,33.832c.423.027.857.212.831.629-.031.53-.507.742-1.022.686-.414-.047-.769-.276-.7-.736s.486-.546.89-.579" transform="translate(-41.192 -31.431)" fill="#365997"/>
          <path id="Path_17340" data-name="Path 17340" d="M100.249,110.216c-.468-.19-1.008-.284-.95-.851.054-.538.647-.556,1.028-.709.536-.216.587.253.612.614a.882.882,0,0,1-.69.946" transform="translate(-92.575 -104.42)" fill="#ab4556"/>
          <path id="Path_17341" data-name="Path 17341" d="M87.06,115.2a9.091,9.091,0,0,0,5.505.142c-2.077,1.29-3.128,1.265-5.505-.142" transform="translate(-83.889 -111.286)" fill="#365997"/>
        </g>
        <g id="Group_1167" data-name="Group 1167" transform="translate(131.238 43.527)">
          <path id="Path_17342" data-name="Path 17342" d="M48.365,33.408c-.1.608-.458,1.018-1.024.981a.917.917,0,0,1-.857-.874c-.027-.653.385-.932,1-.919a.881.881,0,0,1,.884.812" transform="translate(-45.629 -32.596)" fill="#373b5d"/>
          <path id="Path_17343" data-name="Path 17343" d="M51.328,32.609c.874-.052,1.1.27,1.068.831a.9.9,0,0,1-.835.921.927.927,0,0,1-.977-.806c-.1-.7.5-.828.744-.946" transform="translate(-41.776 -32.589)" fill="#373b5d"/>
          <path id="Path_17344" data-name="Path 17344" d="M47.728,34.683c-.085.447-.326.715-.777.614s-.919-.254-.907-.839a.57.57,0,0,1,.746-.606,1.032,1.032,0,0,1,.938.831" transform="translate(-46.044 -31.431)" fill="#365997"/>
          <path id="Path_17345" data-name="Path 17345" d="M52.09,33.832c.423.027.857.212.831.629-.031.53-.507.742-1.022.686-.414-.047-.769-.276-.7-.736s.486-.546.89-.579" transform="translate(-41.192 -31.431)" fill="#365997"/>
          <path id="Path_17346" data-name="Path 17346" d="M100.249,110.216c-.468-.19-1.008-.284-.95-.851.054-.538.647-.556,1.028-.709.536-.216.587.253.612.614a.882.882,0,0,1-.69.946" transform="translate(-92.575 -104.42)" fill="#ab4556"/>
          <path id="Path_17347" data-name="Path 17347" d="M87.06,115.2a9.091,9.091,0,0,0,5.505.142c-2.077,1.29-3.128,1.265-5.505-.142" transform="translate(-83.889 -111.286)" fill="#365997"/>
        </g>
        <g id="Group_1173" data-name="Group 1173" transform="translate(19.559 25.758)">
          <path id="Path_17354" data-name="Path 17354" d="M43.58,99.951c1.657-1.2,2.865-.653,4.363.418l-4.363-.418" transform="translate(-33.477 -93.219)" fill="#373b5d"/>
          <path id="Path_17355" data-name="Path 17355" d="M39.116,100.486c1.119-1.422,2.378-1.57,4.017-.558-1.49.342-2.826-.216-4.017.558" transform="translate(-37.685 -93.213)" fill="#373b5d"/>
          <path id="Path_17356" data-name="Path 17356" d="M63.47,115.07c.565-.066.958.117,1,.674.08,1-.666,1.269-1.426,1.408-.573.1-1.129-.128-1.133-.777-.006-1.006.962-.993,1.556-1.305" transform="translate(-49.69 -106.782)" fill="#d68b8b"/>
          <path id="Path_17357" data-name="Path 17357" d="M56.629,115.208c.765.064,1.449.144,1.486.952.033.688-.511.932-1.107.849s-1.292-.262-1.377-1.012c-.1-.839.635-.676,1-.789" transform="translate(-55.621 -106.64)" fill="#d68b8b"/>
          <path id="Path_17358" data-name="Path 17358" d="M87.06,115.2a9.091,9.091,0,0,0,5.505.142c-2.077,1.29-3.128,1.265-5.505-.142" transform="translate(-82.418 -104.805)" fill="#365997"/>
          <path id="Path_17359" data-name="Path 17359" d="M38.55,52.739c-2.389,2.78-4.478.42-6.657-.4,2.236-.15,4.314,2.384,6.657.4" transform="translate(-28.036 -52.333)" fill="#365997"/>
        </g>
        <g id="Group_1166" data-name="Group 1166" transform="translate(145.561 25.972)">
          <path id="Path_17360" data-name="Path 17360" d="M106.88,43.536,111,42.92c-1.261,1.241-2.422,1.133-4.124.616" transform="translate(-98.944 -37.543)" fill="#373b5d"/>
          <path id="Path_17361" data-name="Path 17361" d="M106.049,43.424c-1.179.591-2.3.727-3.254-.433a16.262,16.262,0,0,0,3.254.433" transform="translate(-102.795 -37.476)" fill="#373b5d"/>
          <path id="Path_17362" data-name="Path 17362" d="M101.063,36.083c-.651.035-.93-.2-.907-.633a.716.716,0,0,1,.756-.672c.373-.014.806-.016.829.5.023.561-.457.682-.678.81" transform="translate(-95.412 -25.204)" fill="#365997"/>
          <path id="Path_17363" data-name="Path 17363" d="M38.55,52.739c-2.389,2.78-4.478.42-6.657-.4,2.236-.15,4.314,2.384,6.657.4" transform="translate(-29.462 -52.333)" fill="#365997"/>
        </g>
        <g id="Group_1174" data-name="Group 1174" transform="translate(6.097 3.626)">
          <path id="Path_17370" data-name="Path 17370" d="M38.55,52.739c-2.389,2.78-4.478.42-6.657-.4,2.236-.15,4.314,2.384,6.657.4" transform="translate(-26.056 -52.333)" fill="#365997"/>
          <path id="Path_17371" data-name="Path 17371" d="M31.7,60.3c-.649-.183-1.412-.344-1.443-1.195-.019-.581.559-.637,1.033-.633.639.006,1.307.1,1.439.841.124.69-.437.888-1.03.987" transform="translate(-30.253 -49.199)" fill="#d68b8b"/>
          <path id="Path_17372" data-name="Path 17372" d="M41.389,59.371c-.218.794-.868.936-1.61.892-.42-.023-.861-.251-.785-.666a1.379,1.379,0,0,1,1.542-1.115c.536,0,.9.212.853.89" transform="translate(-22.022 -49.188)" fill="#d68b8b"/>
          <path id="Path_17373" data-name="Path 17373" d="M36.9,57.747c1.336-.3,2.6.138,3.772-.373-1.107,1.1-2.261,1.742-3.772.373" transform="translate(-23.991 -50.232)" fill="#373b5d"/>
          <path id="Path_17374" data-name="Path 17374" d="M35.141,57.583c-.965,1.136-1.987.837-3.366,0Z" transform="translate(-28.818 -50.035)" fill="#373b5d"/>
          <path id="Path_17375" data-name="Path 17375" d="M109.335,59.078c1.214,1.29,2.42,1.482,4.031-.524-1.478,2.834-2.636,2.852-4.031.524" transform="translate(-101.405 -49.12)" fill="#365997"/>
        </g>
        <g id="Group_1165" data-name="Group 1165" transform="translate(152.474 2.715)">
          <path id="Path_17294-2" data-name="Path 17294" d="M109.032,52.508c3.054.876,6.1,1.7,9.173.13-.969.425-1.956.818-2.9,1.29a2.918,2.918,0,0,1-3.079.091,12.317,12.317,0,0,0-3.192-1.511" transform="translate(-101.7 -52.508)" fill="#365997"/>
          <path id="Path_17295-2" data-name="Path 17295" d="M106.208,58.69c.723.043,1.406.208,1.5,1.063.085.758-.513.794-1.065.816a1.211,1.211,0,0,1-1.383-1.187c-.058-.612.468-.676.946-.692" transform="translate(-105.258 -46.681)" fill="#d68b8b"/>
          <path id="Path_17296-2" data-name="Path 17296" d="M115.171,58.7c.647.012,1.119.142,1.057.756a1.126,1.126,0,0,1-1.259,1.078c-.505,0-.96-.15-.927-.754.041-.763.614-.991,1.129-1.08" transform="translate(-96.979 -46.668)" fill="#d68b8b"/>
          <path id="Path_17297-2" data-name="Path 17297" d="M109.335,59.078c1.214,1.29,2.42,1.482,4.031-.524-1.478,2.834-2.636,2.852-4.031.524" transform="translate(-101.414 -46.809)" fill="#365997"/>
          <path id="Path_17298-2" data-name="Path 17298" d="M116.688,57.522a12.978,12.978,0,0,0-5.01-.016c1.676-.8,3.349-1.239,5.01.016" transform="translate(-99.206 -48.524)" fill="#373b5d"/>
          <path id="Path_17299-2" data-name="Path 17299" d="M106.856,56.869c1.519.091,3.145-.616,4.5.7-1.445-.647-3.081.132-4.5-.7" transform="translate(-103.751 -48.501)" fill="#373b5d"/>
        </g>
        <g id="Group_1168" data-name="Group 1168" transform="translate(109.926 54.851)">
          <path id="Path_17376" data-name="Path 17376" d="M85.789,115.122c1-.058,1.715.286,1.758,1.169.035.758-.7.913-1.338.864a1.583,1.583,0,0,1-1.583-1.379c-.118-1.051.831-.491,1.164-.655" transform="translate(-84.615 -112.04)" fill="#d68b8b"/>
          <path id="Path_17377" data-name="Path 17377" d="M93.631,116.052a1.739,1.739,0,0,1-1.573,1.09.923.923,0,0,1-.989-1.012c.08-.849.791-1.082,1.494-1.024.486.039,1.076.206,1.068.946" transform="translate(-78.537 -112.057)" fill="#d68b8b"/>
          <path id="Path_17378" data-name="Path 17378" d="M87.06,115.2a9.091,9.091,0,0,0,5.505.142c-2.077,1.29-3.128,1.265-5.505-.142" transform="translate(-82.31 -111.962)" fill="#365997"/>
          <path id="Path_17379" data-name="Path 17379" d="M86.965,115.294c-.47-.089-.878-.288-.95-.8-.1-.7.367-.923.956-.954.476-.027.88.035.9.686.023.668-.356.919-.909,1.07" transform="translate(-83.307 -113.532)" fill="#373b5d"/>
          <path id="Path_17380" data-name="Path 17380" d="M91.887,114.275a.832.832,0,0,1-.69,1,.964.964,0,0,1-1.078-.938c0-.513.423-.758.921-.8.526-.043.917.082.847.734" transform="translate(-79.427 -113.532)" fill="#373b5d"/>
        </g>
        <g id="Group_1169" data-name="Group 1169" transform="translate(92.046 60.805)">
          <path id="Path_17381" data-name="Path 17381" d="M82.5,117.4a.925.925,0,0,1-.913.866c-.449.066-1.032.109-1.008-.552.019-.513.523-.734,1-.767.359-.025.791-.06.919.453" transform="translate(-70.491 -114.566)" fill="#d68b8b"/>
          <path id="Path_17382" data-name="Path 17382" d="M77.791,116.619a.923.923,0,1,1-1.842-.14.856.856,0,0,1,.979-.761.807.807,0,0,1,.863.9" transform="translate(-74.856 -115.717)" fill="#373b5d"/>
          <path id="Path_17383" data-name="Path 17383" d="M77.164,117.616c.017.493-.287.659-.707.672-.482.016-.969-.1-1.063-.631-.076-.423.268-.67.7-.7a.988.988,0,0,1,1.072.659" transform="translate(-75.384 -114.55)" fill="#d68b8b"/>
          <path id="Path_17384" data-name="Path 17384" d="M87.06,115.2a9.091,9.091,0,0,0,5.505.142c-2.077,1.29-3.128,1.265-5.505-.142" transform="translate(-83.37 -111.047)" fill="#365997"/>
          <path id="Path_17385" data-name="Path 17385" d="M90.428,29.752a4.641,4.641,0,0,1,5.41.173c-1.206.721-1.822-.425-2.677-.375a10.1,10.1,0,0,0-2.733.2" transform="translate(-82.088 -28.57)" fill="#373b5d"/>
        </g>
        <g id="Group_1170" data-name="Group 1170" transform="translate(74.099 60.253)">
          <path id="Path_17386" data-name="Path 17386" d="M72.467,118.566c-.456-.074-.789-.3-.775-.73.021-.67.515-.89,1.107-.88.412.006.831.219.76.647a1.175,1.175,0,0,1-1.092.964" transform="translate(-62.608 -114.522)" fill="#d68b8b"/>
          <path id="Path_17387" data-name="Path 17387" d="M71.834,115.715a.84.84,0,0,1,.995.75.92.92,0,0,1-.962,1.03c-.493-.01-.736-.455-.748-.96s.12-.909.715-.82" transform="translate(-63.148 -115.702)" fill="#373b5d"/>
          <path id="Path_17388" data-name="Path 17388" d="M68.613,116.507a.932.932,0,0,1-.787.969.818.818,0,0,1-.81-.888c-.016-.507.175-.855.767-.872.565-.016.837.227.829.791" transform="translate(-67.015 -115.69)" fill="#373b5d"/>
          <path id="Path_17389" data-name="Path 17389" d="M72.467,118.566c-.456-.074-.789-.3-.775-.73.021-.67.515-.89,1.107-.88.412.006.831.219.76.647a1.175,1.175,0,0,1-1.092.964" transform="translate(-71.692 -114.522)" fill="#d68b8b"/>
          <path id="Path_17390" data-name="Path 17390" d="M109.335,59.078c1.214,1.29,2.42,1.482,4.031-.524-1.478,2.834-2.636,2.852-4.031.524" transform="translate(-106.354 -55.302)" fill="#365997"/>
        </g>
        <g id="Group_1171" data-name="Group 1171" transform="translate(51.71 56.919)">
          <path id="Path_17391" data-name="Path 17391" d="M63.47,115.07c.565-.066.958.117,1,.674.08,1-.666,1.269-1.426,1.408-.573.1-1.129-.128-1.133-.777-.006-1.006.962-.993,1.556-1.305" transform="translate(-48.491 -112.422)" fill="#d68b8b"/>
          <path id="Path_17392" data-name="Path 17392" d="M56.629,115.208c.765.064,1.449.144,1.486.952.033.688-.511.932-1.107.849s-1.292-.262-1.377-1.012c-.1-.839.635-.676,1-.789" transform="translate(-54.422 -112.28)" fill="#d68b8b"/>
          <path id="Path_17393" data-name="Path 17393" d="M66.011,115.071c-1.721-.828-3.2-.627-4.893-.668,2.479-1.07,3.7-.967,4.893.668" transform="translate(-49.241 -113.701)" fill="#373b5d"/>
          <path id="Path_17394" data-name="Path 17394" d="M66.011,115.071c-1.721-.828-3.2-.627-4.893-.668,2.479-1.07,3.7-.967,4.893.668" transform="translate(-61.118 -113.701)" fill="#373b5d"/>
          <path id="Path_17395" data-name="Path 17395" d="M100.249,110.216c-.468-.19-1.008-.284-.95-.851.054-.538.647-.556,1.028-.709.536-.216.587.253.612.614a.882.882,0,0,1-.69.946" transform="translate(-92.078 -103.982)" fill="#365997"/>
        </g>
        <text id="E-3" data-name="E" transform="translate(160.364 15.361)" fill="#365997" font-size="1" font-family="ComicSansMS, Comic Sans MS"><tspan x="-0.312" y="0">E</tspan></text>
        <text id="E-4" data-name="E" transform="translate(11.934 20.017)" fill="#365997" font-size="5" font-family="ComicSansMS, Comic Sans MS"><tspan x="0" y="0">E</tspan></text>
        <text id="D-3" data-name="D" transform="translate(22.614 43.572)" fill="#365997" font-size="6" font-family="ComicSansMS, Comic Sans MS"><tspan x="0" y="0">D</tspan></text>
        <text id="D-4" data-name="D" transform="translate(148.798 43.082)" fill="#365997" font-size="6" font-family="ComicSansMS, Comic Sans MS"><tspan x="0" y="0">D</tspan></text>
        <text id="C-3" data-name="C" transform="translate(37.427 55.912)" fill="#365997" font-size="5" font-family="ComicSansMS, Comic Sans MS"><tspan x="0" y="0">C</tspan></text>
        <text id="C-4" data-name="C" transform="translate(133.427 55.218)" fill="#365997" font-size="5" font-family="ComicSansMS, Comic Sans MS"><tspan x="0" y="0">C</tspan></text>
        <text id="B-3" data-name="B" transform="translate(114.23 67.45)" fill="#365997" font-size="5" font-family="ComicSansMS, Comic Sans MS"><tspan x="0" y="0">B</tspan></text>
        <text id="B-4" data-name="B" transform="translate(57.032 68.605)" fill="#365997" font-size="5" font-family="ComicSansMS, Comic Sans MS"><tspan x="0" y="0">B</tspan></text>
        <text id="A-3" data-name="A" transform="translate(93.298 66.28)" fill="#365997" font-size="12" font-family="ComicSansMS, Comic Sans MS"><tspan x="0" y="13">A</tspan></text>
        <text id="A-4" data-name="A" transform="translate(75.153 66.532)" fill="#365997" font-size="12" font-family="ComicSansMS, Comic Sans MS"><tspan x="0" y="13">A</tspan></text>
      </g>
    </g>
  </g>
</svg>
