<svg xmlns="http://www.w3.org/2000/svg" xmlns:xlink="http://www.w3.org/1999/xlink" width="322.895" height="322.895" viewBox="0 0 322.895 322.895">
  <defs>
    <clipPath id="clip-path">
      <path id="Path_8032" data-name="Path 8032" d="M290.61,0A32.285,32.285,0,0,1,322.9,32.285L301.442,197.6,322.9,290.61A32.285,32.285,0,0,1,290.61,322.9H32.285A32.285,32.285,0,0,1,0,290.61V0Z" fill="none"/>
    </clipPath>
    <clipPath id="clip-path-2">
      <path id="Path_8033" data-name="Path 8033" d="M191.6,0A131.294,131.294,0,0,1,322.9,131.294V191.6A131.294,131.294,0,0,1,191.6,322.9H131.294A131.294,131.294,0,0,1,0,191.6V131.294Z" fill="none"/>
    </clipPath>
    <clipPath id="clip-path-3">
      <rect id="Rectangle_1750" data-name="Rectangle 1750" width="322.895" height="322.895" fill="none"/>
    </clipPath>
  </defs>
  <g id="Group_1086" data-name="Group 1086" transform="translate(19 -220)">
    <ellipse id="Ellipse_164" data-name="Ellipse 164" cx="112.5" cy="132.5" rx="112.5" ry="132.5" transform="translate(30 249)" fill="rgba(213,197,178,0.33)"/>
    <g id="Group_722" data-name="Group 722" transform="translate(-2.552 59)">
      <g id="Group_721" data-name="Group 721" transform="translate(-7.552 -3.041)">
        <g id="Group_706" data-name="Group 706" transform="translate(-8.895 164.041)">
          <g id="Mask_Group_1" data-name="Mask Group 1" transform="translate(0 0)" clip-path="url(#clip-path)">
            <g id="Group_701" data-name="Group 701" transform="translate(0 2.648)">
              <g id="Mask_Group_2" data-name="Mask Group 2" clip-path="url(#clip-path-2)">
                <g id="Group_699" data-name="Group 699">
                  <g id="Group_698" data-name="Group 698" clip-path="url(#clip-path-3)">
                    <path id="Path_7587" data-name="Path 7587" d="M322.234,322.7q-159.908,0-319.815.048C.444,322.75,0,322.3,0,320.33Q.082,160.379.048.428A5.66,5.66,0,0,1,2.891.182Q161.077.166,319.261.176c3.612,0,3.225-.387,3.225,3.229q.01,158.226-.007,316.452a5.66,5.66,0,0,1-.246,2.843" transform="translate(29.276 23.824)" fill="rgba(213,197,178,0.33)" opacity="0"/>
                    <path id="Path_7588" data-name="Path 7588" d="M322.222,322.847q0-159.393-.009-318.784c0-4.019.539-3.476-3.476-3.476Q159.387.567.037.576C.151.415-.229.029.3.044,1,.068,1.7.051,2.406.051Q161.391.051,320.379,0c1.974,0,2.418.446,2.418,2.42q-.082,159.027-.081,318.057c0,.772.607,1.785-.495,2.37" transform="translate(0.012)" fill="#fff"/>
                    <path id="Path_7591" data-name="Path 7591" d="M150.262,170.081c-.547,5.553-2.385,9.059-7.714,9.521-7.826.675-10.165-.4-13.151-6.36-1.906,5.124-3.9,6.38-10.178,6.406-7.019.033-7.725-.543-10.906-8.912-4.645,5.34-10.686,4.109-16.457,3.2-3.891-.616-4.922-4.063-5.514-7.474-.42-2.409-.791-4.825-1.145-7.246-.191-1.295-.532-1.688-2.047-1.246-4.621,1.35-9.4,1.082-14.094.5-4.656-.578-7.844-5.265-7.261-10.016.215-1.789,1.207-4.212.418-5.206-.926-1.165-3.449-.367-5.269-.336a21.337,21.337,0,0,1-5.7-.8c-4.6-1.2-6.692-4.2-6.586-9.077a79.555,79.555,0,0,1,1.618-14.325c.336-1.644.077-2.181-1.677-2.1a23.2,23.2,0,0,1-9.719-1.884,10.033,10.033,0,0,1-6.6-7.859,43.762,43.762,0,0,1-.171-13.109c.695-5.678,4.089-9,9.813-10.018a37.672,37.672,0,0,1,15.107.042c6.16,1.4,9.517,5.3,9.686,11.6.119,4.269.607,8.589-.66,12.794-.226.741-.042,1.282.721,1.363,7.639.827,8.664,6.683,9.277,12.564.246,2.374.319,3.443,3.258,3.029,3.394-.477,5.6,2,7.354,4.652a37,37,0,0,1,4.076,9.638c.358,1.167.281,1.935,2.119,1.064,5.454-2.594,11.22-2.467,16.861-.506a7.7,7.7,0,0,1,5.1,5.61c.314,1.268.791,1.3,2.022.961,5.456-1.5,10.864-1.836,15.824,1.644.563.394.9.561,1.574.09,5.129-3.548,10.666-3.293,16.334-1.611.328.1.67.15,1.11.246.829-5.43,4.781-7.4,9.427-8.013,4.869-.638,9.8-.521,14.368,2.383.6-1.745,1.141-3.388,1.726-5.012a24.8,24.8,0,0,1,4.08-7.888c1.913-2.271,4.183-3.836,7.246-3.3,1.921.334,2.284-.49,2.293-2.055a20.884,20.884,0,0,1,1.906-8.655,7.75,7.75,0,0,1,6.265-4.619c1.893-.262,1.935-.866,1.618-2.543a33.646,33.646,0,0,1,.167-15.356,10.179,10.179,0,0,1,7.488-7.666,36.809,36.809,0,0,1,16.384-.578c5.861,1.079,9.427,4.412,10.2,10.387.6,4.623.873,9.361-.466,13.83-1.941,6.5-7.626,7.923-13.456,8.67-4.241.541-4.111.418-3.779,4.707.319,4.091,1.3,8.116,1.143,12.249-.2,5.129-2.825,8.059-7.866,8.945a37.663,37.663,0,0,1-8.371.462c-1.666-.079-2.258.235-1.572,2a13.351,13.351,0,0,1,.391,6.5,8.44,8.44,0,0,1-8.382,7.261c-4.43.169-8.928.769-13.26-.838-1.433-.53-1.356.477-1.464,1.381a93.2,93.2,0,0,1-1.908,9.785,6.294,6.294,0,0,1-5.028,5.1,28.446,28.446,0,0,1-10.957.121c-2.086-.336-3.838-1.585-5.612-4.093" transform="translate(33.191 99.407)" fill="#b4a680"/>
                    <path id="Path_7592" data-name="Path 7592" d="M151.452,50.138c-2.489,6.483-7.637,5.439-12.271,5.445-4.329.007-7.329-1.9-7.89-7.356-1.8,5.96-3.7,7.34-9.216,7.384-1.666.013-3.339.079-5-.051-3.86-.3-5.707-2.528-6.679-8.057-1.119,1.827-1.022,3.779-1.361,5.571-.853,4.522-3.2,7.184-7.978,7.576-3.775.31-7.488.4-11.311-1.031a9.186,9.186,0,0,1-3.28,7.369c-2.376,1.932-5.36,1.961-8.237,2.2a14.591,14.591,0,0,1-2.629.02c-1.539-.149-2.051.519-1.869,1.983.323,2.605.5,5.23.91,7.82,1.282,8.136-2.4,12.671-10.6,12.933-3.381.11-3.427.117-2.862,3.315a38.167,38.167,0,0,1-.1,13.586c-.776,4.212-3.7,6.92-7.727,8.185a29.323,29.323,0,0,1-19.794-.431c-4.9-1.884-6.67-6-7.037-10.772a35.2,35.2,0,0,1,.616-11.752,10.975,10.975,0,0,1,9.229-8.532A37.065,37.065,0,0,1,44.478,85c1.55.073,1.95-.488,1.924-1.961a85.112,85.112,0,0,1,1.458-14.865c1.317-8.327,6-9.792,12.768-9.721,2.007.022,2.284-.673,2.563-2.194a50.058,50.058,0,0,1,5.7-16.237c3.64-6.307,11.181-6.01,14.419-.323.165.286.391.536.969,1.323v-5.08c.007-6.608,1.99-9.4,8.472-10.526,5.529-.954,11.163-1.163,16.11,2.744,1.829-5.041,5.832-6.263,10.515-6.3,3.953-.033,7.938-.2,11.181,2.715.8.712,1.24-.011,1.735-.484,3.4-3.24,14.2-2.669,17.141-.813a7.073,7.073,0,0,1,3.141,3.436c.492,1.361,1.088,1.161,2.247.572,6.63-3.368,13.307-2.587,19.559.785,3.77,2.036,4.071,6.035,3.5,9.97-.083.587-.521,1.128-.127,1.9,1.433-.525,2.346-1.95,3.915-2.278,4.245-.886,7.883.958,10.042,5.2a52.491,52.491,0,0,1,4.869,13.817c.341,1.759,1.165,2.418,2.836,1.95,2.37-.666,4.726-.218,7.026.2a8.83,8.83,0,0,1,7.413,7.224,80.826,80.826,0,0,1,2.047,16.89c.035,1.774.176,2.526,2.291,2.728,7.956.765,11.862,5.179,12.005,13.135.044,2.453-.007,4.909-.026,7.365-.042,5.54-2.629,9.495-7.857,11.192-6.934,2.251-13.962,2.348-20.746-.756a10.12,10.12,0,0,1-6.12-9.376c-.18-4.79-.783-9.646.974-14.316.446-1.181-.435-1.033-1.077-1.192-7.417-1.84-8.215-5.474-7.868-10.972a42.908,42.908,0,0,1,.7-6.778c.563-2.475-.462-2.79-2.535-2.706a26.137,26.137,0,0,1-8.857-.708c-3.713-1.143-5.927-3.656-6.158-7.549-.105-1.772-.42-2.519-2.46-1.983-3.478.915-6.982.187-10.385-.6a6.852,6.852,0,0,1-5.652-6.408c-.121-1.112-.385-2.212-.682-3.871" transform="translate(31.542 26.081)" fill="#b4a680"/>
                    <path id="Path_7598" data-name="Path 7598" d="M69.427,107.814c-.9.62-.279,2.108-1.572,2.069-1.231-.04-.987-1.233-1.306-1.974-.1-.24-.3-.49-.281-.721.09-.969-1.381-2.258-.117-2.777,1.585-.649.607,1.759,2.025,1.961.42-.572-.226-2.313,1.295-2.256,1.121.044.624,1.479,1.2,2.071.213-.053.409-.044.521-.138.594-.5-.064-2.194,1.293-1.761,1.086.347.387,1.466.154,2.262a6.42,6.42,0,0,1-.361,1.251c-.389.728-.193,1.97-1.268,2.093-1.372.154-.8-1.488-1.587-2.08" transform="translate(78.656 124.768)" fill="rgba(112,82,37,0.85)"/>
                    <path id="Path_7599" data-name="Path 7599" d="M59.245,47.246c.3-.8-.743-2.84.69-2.869,1.486-.026.558,1.981.787,3.069a8.452,8.452,0,0,1,0,1.565c.007.824.1,1.653,1.13,1.761,1.286.136,1.341-.93,1.409-1.75.11-1.3.031-2.616.068-3.924.011-.451.189-.91.732-.89a.82.82,0,0,1,.829.835c.009,1.822.319,3.678-.257,5.454a2.591,2.591,0,0,1-3.091,1.809,2.418,2.418,0,0,1-2.293-2.42c-.053-.783-.009-1.57-.009-2.64" transform="translate(70.89 52.977)" fill="rgba(112,82,37,0.85)"/>
                    <path id="Path_7600" data-name="Path 7600" d="M62.358,49.191c0-.437-.018-.875,0-1.312.055-1.161-.668-2.667,1.651-2.594,1.37.044,2.794-.339,2.979,1.5.152,1.534.844,3.489-1.458,4.179-.761.229-1.589.114-1.6,1.255,0,.576-.266,1.066-.958.886-.649-.167-.6-.774-.609-1.29-.013-.875,0-1.75,0-2.625h-.011" transform="translate(74.655 54.26)" fill="rgba(112,82,37,0.85)"/>
                    <path id="Path_7601" data-name="Path 7601" d="M65.285,48.907c0-.347-.117-.758.026-1.029.422-.794-1.449-2.379.846-2.493,1.51-.077,3.353-.666,3.759,1.583.273,1.512.411,3.2-1.458,4.019-.446.2-1.075.11-1.411.4-.532.459.2,2.168-1.238,1.664-1.007-.354-.394-1.693-.517-2.583a10.839,10.839,0,0,1-.009-1.559" transform="translate(77.881 54.236)" fill="rgba(112,82,37,0.85)"/>
                    <path id="Path_7602" data-name="Path 7602" d="M84.6,106.933a16.827,16.827,0,0,1,.018-1.825c.084-.71-.415-1.763.646-2,1.079-.242.78.844,1.029,1.411.123.275.429.644.675.664,3.651.281,2.128,3.078,2.416,4.968.059.4-.066.934-.635.954-.642.022-.9-.453-.93-1.016-.04-.695.015-1.394-.037-2.086-.042-.541.218-1.381-.752-1.319-.82.051-.71.8-.822,1.392-.193,1.018.611,2.939-.642,2.875-1.724-.09-.64-2.1-.959-3.238a2.806,2.806,0,0,1-.007-.78" transform="translate(101.337 123.519)" fill="rgba(112,82,37,0.85)"/>
                    <path id="Path_7603" data-name="Path 7603" d="M82.91,47.925c0-.7-.009-1.4,0-2.1s-.1-1.556.842-1.649c.921-.09.752.767.8,1.33a1.028,1.028,0,0,0,.864,1.062,3.785,3.785,0,0,1,2.236,5c-.119.345-.222.732-.631.657a1.284,1.284,0,0,1-.791-.552,3.177,3.177,0,0,1-.141-1.018c-.147-.961.431-2.735-.5-2.73-1.811.011-.73,1.895-1.084,2.919-.176.512.2,1.425-.73,1.383-.761-.033-.8-.8-.816-1.42-.015-.961,0-1.921,0-2.882H82.91" transform="translate(99.352 52.934)" fill="rgba(112,82,37,0.85)"/>
                    <path id="Path_7604" data-name="Path 7604" d="M77.96,49.6c.844.048,1.688.1,2.772.16a2.282,2.282,0,0,1-3.5,1.009c-1.677-.989-1.5-2.724-.93-4.2.565-1.462,1.928-1.587,3.324-1.119a1.483,1.483,0,0,1,1.046,1.609c-.007.761-.141,1.383-1,1.6-.569.147-1.128.332-1.693.5-.007.145-.015.292-.024.437" transform="translate(90.958 54.17)" fill="rgba(112,82,37,0.85)"/>
                    <path id="Path_7605" data-name="Path 7605" d="M81.926,108.3c.917,1,2.064-.657,2.686.6.154.31-.132.622-.477.8a2.8,2.8,0,0,1-2.974-.057c-1.471-.98-.84-2.491-.82-3.823.02-1.224.983-1.614,1.939-1.739a2.055,2.055,0,0,1,2.539,1.691c.178,1.082-.455,1.785-1.633,1.893-.475.044-1.084-.092-1.26.642" transform="translate(96.097 124.684)" fill="rgba(112,82,37,0.85)"/>
                    <path id="Path_7606" data-name="Path 7606" d="M79.4,108c.778,1.306,2.027.073,2.807,1.1a2.479,2.479,0,0,1-3.137.712,2.4,2.4,0,0,1-1.427-2.548c0-1.154.037-2.264,1.3-2.893a2.385,2.385,0,0,1,2.691.2,1.748,1.748,0,0,1,.629,1.869c-.176,1.176-1.139,1.132-2,1.262a5.664,5.664,0,0,0-.871.3" transform="translate(93.039 124.68)" fill="rgba(112,82,37,0.85)"/>
                    <path id="Path_7607" data-name="Path 7607" d="M68.182,107.376c-.088,1.6-.941,2.781-2.724,2.686-1.765-.095-2.467-1.306-2.447-3.073.02-1.789.772-2.922,2.563-2.933,2.018-.013,2.579,1.431,2.607,3.32" transform="translate(75.51 124.697)" fill="rgba(112,82,37,0.85)"/>
                    <path id="Path_7608" data-name="Path 7608" d="M71.234,108.36c.754.743,1.792-.2,2.6.714-.956,1.328-2.163,1.235-3.361.556-1.55-.882-1.079-2.4-.941-3.753.132-1.3,1.163-1.713,2.225-1.818a1.908,1.908,0,0,1,2.194,1.462c.312,1.167-.257,1.8-1.356,2.093-.457.121-1.1-.154-1.359.745" transform="translate(83.111 124.686)" fill="rgba(112,82,37,0.85)"/>
                    <path id="Path_7609" data-name="Path 7609" d="M69.339,49.122c1,.98,2.029.084,2.827.919a2.165,2.165,0,0,1-3.476.58c-1.5-1.13-1.086-2.917-.558-4.329s1.99-1.123,3.192-.851c.838.189.985.939.974,1.651-.009.6-.07,1.251-.829,1.458-.64.176-1.284.345-2.13.572" transform="translate(81.069 54.188)" fill="rgba(112,82,37,0.85)"/>
                    <path id="Path_7610" data-name="Path 7610" d="M80.177,49.149c.912,1.06,1.954.029,2.768.846-.827,1.629-2.234,1.506-3.357.686-1.607-1.174-1.233-3.1-.565-4.529.563-1.213,2.082-1.121,3.276-.572a1.587,1.587,0,0,1,.9,1.743,1.373,1.373,0,0,1-1.084,1.317c-.574.119-1.137.295-1.937.508" transform="translate(94.012 54.158)" fill="rgba(112,82,37,0.85)"/>
                    <path id="Path_7613" data-name="Path 7613" d="M78.525,103.062a5.449,5.449,0,0,1,1.5.112c.574.152.862,1,.27,1.128-2.489.517-1.224,2.4-1.488,3.7a9.74,9.74,0,0,0-.044,1.829c-.007.635-.075,1.374-.866,1.321-.838-.057-.664-.893-.681-1.464-.037-1.22,0-2.445-.024-3.667-.013-.488.132-1.051-.479-1.367-.512-.264-1.726.189-1.363-.989.3-.963,1.343-.495,2.073-.6.169-.026.347,0,1.1,0" transform="translate(90.215 123.483)" fill="rgba(112,82,37,0.85)"/>
                    <path id="Path_7614" data-name="Path 7614" d="M79.614,45.3c-2.46.117-2.726,1.284-2.533,2.836a19.34,19.34,0,0,1,.011,2.878c-.018.6.022,1.341-.888,1.262-.7-.059-.666-.7-.677-1.209-.024-1.22,0-2.442-.013-3.665-.009-.675.174-1.442-.752-1.73-.442-.138-1.22.088-1.145-.684s.84-.86,1.427-.82c1.339.092,2.8-.409,4.57,1.132" transform="translate(88.213 52.921)" fill="rgba(112,82,37,0.85)"/>
                    <path id="Path_7615" data-name="Path 7615" d="M83.7,103.348c1.224.171.563,2,2.022,2.35.767.185-.356.732-.679,1.128-.71.866-.893,1.851.156,2.612.369.266,1.187.119.8.919a1.135,1.135,0,0,1-1.594.442c-.556-.222-1.137-.382-1.348-1.106a18.154,18.154,0,0,1-.266-5.472.9.9,0,0,1,.912-.873" transform="translate(99.116 123.848)" fill="rgba(112,82,37,0.85)"/>
                    <path id="Path_7616" data-name="Path 7616" d="M81.189,48.245c-.057-.849-.077-1.022-.081-1.2-.02-.923-.4-1.992.7-2.546.422-.211,1.071.409.928.6-.873,1.165,3.449,1.348.49,2.941a1.436,1.436,0,0,0,.426,2.478c.561.248.969.462.6,1.084a1.138,1.138,0,0,1-1.416.361c-2.317-.765-1.5-2.785-1.651-3.722" transform="translate(97.102 53.28)" fill="rgba(112,82,37,0.85)"/>
                    <path id="Path_7617" data-name="Path 7617" d="M60.606,106.538c.4-1-.721-3.344.717-3.342,1.721,0,.809,2.275.827,3.506.029,1.811-.044,3.352,2.467,2.992a.69.69,0,0,1,.561.365.7.7,0,0,1-.226.638,5.137,5.137,0,0,1-3.577.11c-1.106-.255-.7-1.238-.754-1.954-.057-.692-.013-1.394-.013-2.315" transform="translate(72.575 123.666)" fill="rgba(112,82,37,0.85)"/>
                    <path id="Path_7618" data-name="Path 7618" d="M72.024,107.551c-.114-1.974-.609-3.544,1.77-3.32.545.053,1.24-.5,1.548.286.376.972-.616.732-1.042,1.033-.873.62-.354,1.6-.442,2.418s.174,2.036-1.093,1.935c-1.024-.081-.767-1.172-.743-1.941.011-.347,0-.695,0-.411" transform="translate(86.166 124.737)" fill="rgba(112,82,37,0.85)"/>
                    <path id="Path_7619" data-name="Path 7619" d="M73.773,45.69a2.861,2.861,0,0,0-1.706,3.324c.1.723.158,1.825-.864,1.869-1.119.051-.91-.991-.884-1.761.011-.345-.033-.692-.042-1.038-.077-3.06-.077-3.06,3.5-2.394" transform="translate(84.196 54.326)" fill="rgba(112,82,37,0.85)"/>
                    <g id="Group_707" data-name="Group 707" transform="translate(128.333 146.27)">
                      <path id="Path_7589" data-name="Path 7589" d="M74.968,91.289c1.53-.4,1.6,1.009,2.168,1.77,1.8,2.4,4.608,2.605,6.547.569a2.782,2.782,0,0,0,.591-2.64A46.238,46.238,0,0,1,83.748,79.5c1.1-9.053,6.588-10.893,14.12-9.7a24.7,24.7,0,0,0,8.787.16c9.873-1.926,14.973,2.231,15,12.293a59.971,59.971,0,0,1-.787,8.879,4.669,4.669,0,0,0,1.108,4.3c2.249,2.456,2.933,5.725,4.025,8.745a3.337,3.337,0,0,1-1.4,3.933c-.732.532-1.6.95-2.423.321s.02-1.255.226-1.849c.295-.842.882-1.73-.723-1.765-.662-.015-1.1-.374-.725-.976,1.361-2.2-.51-3.212-1.526-4.909a117.309,117.309,0,0,1-6.035,18.125c-.62,1.367-1.095,3.469-2.9,3.291-1.68-.169-1.512-2.3-1.959-3.654-.82-2.482-1.156-5.116-2.431-7.459-.747-1.374-1.651-2.5-3.352-2.576-1.838-.079-2.847,1.088-3.654,2.528-1.3,2.324-1.715,4.938-2.458,7.441-.2.668-.354,1.348-.585,2-.288.82-.541,1.772-1.611,1.827-.943.048-1.277-.831-1.669-1.479a47.247,47.247,0,0,1-4.058-9.932c-1-3.062-1.816-6.186-2.706-9.284-.31-1.075-.563-1.776-1.924-.8-1.844,1.317-3.673,0-5.467-.5-1.449-.407-2.614-1.378-4.449-.888-1.4.376-2.132-1.484-2.906-2.625-.871-1.15-.969-2.427.273-3.188,1.429-.871,2,.864,2.959,1.46.312-.629-.189-1.42.464-1.93" transform="translate(-70.615 -69.473)" fill="#fff"/>
                      <path id="Path_7623" data-name="Path 7623" d="M82.637,79.9c3,2.249,6.109,2.157,9.328-.171-.007,2.891-.8,3.621-3.487,3.339a12.627,12.627,0,0,0-2.867,0c-2.436.3-2.946-1.073-2.974-3.172" transform="translate(-56.208 -57.187)" fill="rgba(112,82,37,0.85)"/>
                      <path id="Path_7624" data-name="Path 7624" d="M82.772,80.228A1.171,1.171,0,0,1,81.3,81.32c-.844-.163-1.831-.411-1.888-1.471-.048-.923.783-1.013,1.506-1.022.969-.013,1.7.314,1.858,1.4" transform="translate(-60.08 -58.264)" fill="#b4a680"/>
                      <path id="Path_7625" data-name="Path 7625" d="M90.539,81.35c-.728-.007-1.4-.215-1.332-.945.11-1.108.965-1.55,2.016-1.57.6-.011,1.352-.009,1.284.851-.092,1.181-1.159,1.341-1.968,1.664" transform="translate(-48.342 -58.257)" fill="#b4a680"/>
                      <path id="Path_7626" data-name="Path 7626" d="M87.684,76.522c2.271-1.647,3.968-1.282,5.584.332a22.235,22.235,0,0,0-5.584-.332" transform="translate(-50.16 -62.31)" fill="rgba(112,82,37,0.85)"/>
                      <path id="Path_7627" data-name="Path 7627" d="M85.681,76.494c-2.436.084-4.166-.152-5.83.391,1.565-1.816,3.326-1.833,5.83-.391" transform="translate(-59.547 -62.295)" fill="rgba(112,82,37,0.85)"/>
                    </g>
                    <path id="Path_7640" data-name="Path 7640" d="M45.045,83.671a22.673,22.673,0,0,1,8.385.947,9.386,9.386,0,0,1,6.989,8.266,41.6,41.6,0,0,1-.013,12.8c-.33,1.893-1.055,2.8-3.229,2.75-4.3-.1-8.206.921-10.341,5.254a1.722,1.722,0,0,1-1.724.963,25.526,25.526,0,0,1-11.689-2.519c-3.944-2.018-4.823-5.819-5.023-9.772a38.307,38.307,0,0,1,.332-9.172c1.033-5.41,3.482-7.967,8.82-9a33.279,33.279,0,0,1,7.494-.517" transform="translate(33.891 100.205)" fill="#fefefe"/>
                    <path id="Path_7641" data-name="Path 7641" d="M104.893,98.761c.213-2.115-.037-4.276.409-6.472a9.341,9.341,0,0,1,7.826-7.826,34.54,34.54,0,0,1,16.351.182c3.9,1.082,6.476,3.434,7.252,7.408a37.1,37.1,0,0,1-.106,14.056c-1.084,5.742-5.683,7-10.407,8.044-1.106.244-2.251.321-3.377.479-2,.281-3.517.119-4.764-2.058-2-3.5-5.775-4.043-9.424-4.065-2.038-.011-2.9-.64-3.348-2.631-.53-2.368-.191-4.715-.413-7.118" transform="translate(125.7 100.149)" fill="#fefefe"/>
                    <path id="Path_7642" data-name="Path 7642" d="M54.136,119.884c-.079-3.432-.376-6.907,3.163-9.112a8.858,8.858,0,0,1,3.144-1.216,27.341,27.341,0,0,1,12.693.29,6.8,6.8,0,0,1,4.792,4.777,3,3,0,0,1-.638,3.278c-2.678,3.155-2.17,7.024-1.858,10.768.165,2,.8,3.994.7,5.964-.174,3.5-1.04,6.336-5.188,7.083-3.713.671-7.435,1.04-11.071-.47a4.913,4.913,0,0,1-3.124-3.555,77.455,77.455,0,0,1-2.614-17.807" transform="translate(64.826 130.565)" fill="#fefefe"/>
                    <path id="Path_7643" data-name="Path 7643" d="M94.579,109.032c1.051,0,2.108-.07,3.152.011,5.529.44,9.391,2.919,9.152,9.367a100.336,100.336,0,0,1-2.473,18.128c-.844,3.777-2.324,5.028-6.617,5.485a22.6,22.6,0,0,1-6.54-.139c-5.219-.965-7.12-3.847-6.34-9.121a36.143,36.143,0,0,0,.4-11.207,8.233,8.233,0,0,0-1.194-3.163c-2.077-3.234-.9-6.854,2.75-8.275a13.555,13.555,0,0,1,3.256-.978,39.649,39.649,0,0,1,4.458-.042v-.066" transform="translate(99.575 130.626)" fill="#fefefe"/>
                    <path id="Path_7644" data-name="Path 7644" d="M48.862,95.582c.7,0,1.4-.029,2.1,0,5.74.277,7.993,2.121,9.24,7.7.415,1.866.633,3.779.921,5.674a3.577,3.577,0,0,1-1.284,3.443,19.449,19.449,0,0,0-5.368,10.313c-.677,3.073-2.37,3.992-5.025,3.783-2.686-.213-5.417-.119-8.05-.9-3.506-1.044-5.59-3.423-5.4-7.088a87.168,87.168,0,0,1,2.075-16.85,7.724,7.724,0,0,1,7.123-5.986c1.213-.114,2.447-.018,3.671-.018v-.077" transform="translate(43.118 114.528)" fill="#fdfcfc"/>
                    <path id="Path_7645" data-name="Path 7645" d="M100.681,108.759c.347-2,.721-4.23,1.123-6.454a7.291,7.291,0,0,1,6.118-6.347,26.534,26.534,0,0,1,9.917.02c3.394.646,5.267,3.023,5.982,6.239a105.613,105.613,0,0,1,1.919,16.072c.246,3.83-1.348,6.015-5.113,7.246a27.654,27.654,0,0,1-10.611.928,2.154,2.154,0,0,1-2.165-1.781c-1.464-4.85-2.851-9.772-6.993-13.219-.921-.765.18-1.638-.176-2.7" transform="translate(120.411 114.443)" fill="#fcfcfc"/>
                    <path id="Path_7646" data-name="Path 7646" d="M73.825,123.25c-.587-7.861,1.167-11.234,10.5-11.157,2.176.018,4.362-.106,6.487.7a6.572,6.572,0,0,1,4.621,6.338,76.242,76.242,0,0,1-2.269,20c-.534,2.4-2.31,3.607-4.634,4.078a4.917,4.917,0,0,1-.787.037c-12.632.495-11.194-1.09-13.315-12.6a32.54,32.54,0,0,1-.6-7.393" transform="translate(88.348 134.327)" fill="#fefdfd"/>
                    <path id="Path_7647" data-name="Path 7647" d="M74.864,143.288c-.7,0-1.4.013-2.1,0-3.711-.077-5.5-1.458-6.261-5.014a111.4,111.4,0,0,1-2.218-16.6c-.376-6.129,2.576-9.281,8.785-9.5,2.878-.1,5.8-.358,8.578.692,2.007.758,3.355,1.647,2.572,4.434-1.409,5.01.024,10.079.552,15.1a16.642,16.642,0,0,1-1.475,8.125c-.809,1.976-2.777,2.539-4.751,2.724-1.216.114-2.451.022-3.678.022Z" transform="translate(76.994 134.297)" fill="#fefdfd"/>
                    <path id="Path_7648" data-name="Path 7648" d="M56,133.868c-.965,0-1.93.04-2.893,0-7.184-.332-10.266-3.871-9.066-10.961a48.209,48.209,0,0,1,5.219-15.349c1.328-2.4,2.919-4.586,6.1-4.8a6.451,6.451,0,0,1,6.252,3.089,37.545,37.545,0,0,1,4.924,11.526c.16.653.495,1.262.042,2-2.058,3.357-1.884,7.072-1.312,10.715.273,1.754-.363,2.4-1.754,2.922a19.23,19.23,0,0,1-7.516.862" transform="translate(52.479 123.112)" fill="#fdfdfd"/>
                    <path id="Path_7649" data-name="Path 7649" d="M104.506,133.891a18.236,18.236,0,0,1-7.973-1.132,1.761,1.761,0,0,1-1.312-1.946c.259-4.082.822-8.213-1.477-12-.169-.281.064-.842.178-1.253a46.061,46.061,0,0,1,4.375-10.9c2.792-4.814,8.91-5.456,11.99-.6a42.764,42.764,0,0,1,6.373,19.493c.42,4.911-3.065,7.93-8.738,8.327-1.134.079-2.278.011-3.414.013" transform="translate(112.266 123.089)" fill="#fdfdfc"/>
                    <path id="Path_7650" data-name="Path 7650" d="M59.383,66.546c0,.35-.013.7,0,1.051.435,10.365-3.671,13.333-14.023,14.47a27.334,27.334,0,0,1-11.352-1.451,8.974,8.974,0,0,1-6.6-7.71A46.042,46.042,0,0,1,27.4,60.333a9.317,9.317,0,0,1,7.875-8.4c5.771-1.185,11.614-1.422,17.345.5,4.509,1.508,6.322,4.957,6.683,9.385.128,1.567.02,3.152.02,4.729h.057" transform="translate(32.326 61.137)" fill="#fefefe"/>
                    <path id="Path_7651" data-name="Path 7651" d="M103.738,66.619a39.834,39.834,0,0,1,.422-6.272c.8-4.687,3.75-7.305,8.077-8.257A34.164,34.164,0,0,1,127.076,52c5.964,1.33,8.523,4.107,9.09,10.229a45.367,45.367,0,0,1-.189,10.209,9.333,9.333,0,0,1-6.391,8.171,26.892,26.892,0,0,1-19.211.024c-4.949-1.778-6.371-5.852-6.626-10.6-.062-1.134-.009-2.278-.011-3.416" transform="translate(124.293 61.389)" fill="#fefefe"/>
                    <path id="Path_7652" data-name="Path 7652" d="M83.656,37.371c0-1.664-.092-3.335.018-4.992.321-4.9,2.242-7.329,6.991-8.066a23.238,23.238,0,0,1,12.86,1.255,7.168,7.168,0,0,1,4.542,7.318c-.11,3.256-.24,6.6-1.853,9.7a44.43,44.43,0,0,0-3.88,11.937,2.832,2.832,0,0,1-3,2.6,32.956,32.956,0,0,1-9.655-.5A6.094,6.094,0,0,1,84.7,51.212a81.276,81.276,0,0,1-1.044-13.841" transform="translate(100.206 28.696)" fill="#fefefe"/>
                    <path id="Path_7653" data-name="Path 7653" d="M77.448,35.3c.095,5.648-1.159,11.111-2.348,16.569-.732,3.35-2.728,4.894-6.133,4.984-2.623.073-5.254.1-7.875-.04-2.187-.119-3.654-1.062-4.065-3.579-.877-5.41-3.592-10.4-3.649-16.046-.015-1.818-.242-3.671-.125-5.492.244-3.843,2.37-6.226,6.169-7.167A25.608,25.608,0,0,1,71.1,24.361c4.212.908,6.239,3.449,6.338,7.782.024,1.051.007,2.1.007,3.152" transform="translate(63.777 28.481)" fill="#fefdfd"/>
                    <path id="Path_7654" data-name="Path 7654" d="M61.787,59.478c.286,7.378-1.919,9.838-9.02,10.561-2.361.242-4.573.475-6.463-2.053-1.8-2.4-5.017-3.076-8-3.41-1.8-.2-2.475-1.066-2.326-2.719a124.054,124.054,0,0,1,1.963-15.824,7.932,7.932,0,0,1,7.1-6.668,26.117,26.117,0,0,1,8.1-.042c3.733.587,6.048,2.911,6.916,6.626,1.1,4.7,1.295,9.506,1.737,13.529" transform="translate(43.088 46.769)" fill="#fefdfd"/>
                    <path id="Path_7655" data-name="Path 7655" d="M113.2,39.092c7.967-.044,10.48,2.207,11.6,10.291a111.85,111.85,0,0,1,1.194,13.023c.035,1.772-.622,2.48-2.462,2.381a22.293,22.293,0,0,0-9.046,1.121c-1.154.426-2.519.712-3.205,1.7-2.047,2.933-4.524,2.152-7.1,1.115a6.009,6.009,0,0,1-3.986-5.951,78.009,78.009,0,0,1,2.163-17.624c1.253-4.715,4.852-5.678,8.22-6.039a24.924,24.924,0,0,1,2.627-.013" transform="translate(120.057 46.809)" fill="#fefdfd"/>
                    <path id="Path_7656" data-name="Path 7656" d="M84.975,22.336a12.764,12.764,0,0,1,7.512,1.677,5.553,5.553,0,0,1,2.456,6.764c-1.04,3.172-.649,6.428-.6,9.642a33.519,33.519,0,0,1-1,8.549,5.68,5.68,0,0,1-.242,1.018c-2.278,4.907-6.764,3.786-10.752,3.838-3.3.044-5.7-1.653-6.34-4.43a85.475,85.475,0,0,1-2.284-18.407c-.044-5.089,1.882-7.883,8.591-8.642a26.3,26.3,0,0,1,2.662-.011" transform="translate(88.344 26.729)" fill="#fefdfd"/>
                    <path id="Path_7657" data-name="Path 7657" d="M75.065,22.375a13.871,13.871,0,0,1,7.551,1.394,2.411,2.411,0,0,1,1.433,3.346c-1.534,5.107-.125,10.244.44,15.342.321,2.891-.624,5.489-1.2,8.191a.684.684,0,0,1-.1.24c-2.792,3.95-7,2.941-10.818,2.922-3.168-.015-5.14-1.563-5.837-4.34-.928-3.709-1.97-7.386-1.218-11.357a15.892,15.892,0,0,0-.569-7.789A5.54,5.54,0,0,1,68.05,23.5a14.081,14.081,0,0,1,7.015-1.126" transform="translate(77.268 26.717)" fill="#fefdfd"/>
                    <path id="Path_7658" data-name="Path 7658" d="M103.842,60.6c-.7,0-1.4,0-2.1,0-7.048-.04-10.477-4.265-8.978-11.113,1.181-5.39,2.576-10.721,5.445-15.512,3.638-6.072,9.352-6.048,12.9.031,2.581,4.425,3.953,9.292,5.173,14.221.268,1.082.292,1.688-.939,2.181a8.3,8.3,0,0,0-5.188,6.8c-.429,2.9-1.715,3.9-4.467,3.412a10.9,10.9,0,0,0-1.838-.018" transform="translate(110.744 35.267)" fill="#fdfdfc"/>
                    <path id="Path_7659" data-name="Path 7659" d="M57.124,59.672a21.716,21.716,0,0,0-2.363.015c-1.651.176-2.416-.356-2.864-2.132-.835-3.328-2.889-5.817-6.472-6.49-1.789-.334-2.031-1.4-1.71-2.823,1.17-5.21,2.59-10.359,5.263-15.026,3.586-6.254,9.409-6.36,13.054-.108a44.573,44.573,0,0,1,5.694,17.853c.514,4.8-2.867,8.409-7.712,8.679-.961.053-1.926.007-2.889.007Z" transform="translate(52.24 34.121)" fill="#fefdfd"/>
                    <path id="Path_7661" data-name="Path 7661" d="M64.65,47.182c-.2.7.268,1.7-.873,1.64-.844-.044-.714-.831-.7-1.416.015-.675-.064-1.572.9-1.552.928.02.358.974.675,1.328" transform="translate(75.57 54.949)" fill="#f1ece6"/>
                    <path id="Path_7662" data-name="Path 7662" d="M65.849,47.326c.1-.565-.262-1.422.627-1.464.989-.046.884.871.925,1.526.04.611.009,1.356-.772,1.414-1.229.092-.576-.958-.78-1.475" transform="translate(78.911 54.957)" fill="#f1ece6"/>
                    <path id="Path_7663" data-name="Path 7663" d="M65.5,106.243c.007.583.165,1.486-.785,1.517-.908.029-.928-.871-.934-1.561s-.009-1.53.991-1.473c.875.051.67.842.728,1.517" transform="translate(76.426 125.497)" fill="#f1ece6"/>
                    <path id="Path_7667" data-name="Path 7667" d="M42.112,90.88c.761.1,1.211.431,1.057,1.035a1.776,1.776,0,0,1-1.948,1.361c-.6-.013-1.038-.3-.91-.954.207-1.042,1.192-1.1,1.8-1.442" transform="translate(48.281 104.907)" fill="#b4a680"/>
                    <path id="Path_7668" data-name="Path 7668" d="M34.164,92.125c.022.71-.372.972-.974.978a1.325,1.325,0,0,1-1.508-1.143c-.1-.679.378-.91.961-.928a1.359,1.359,0,0,1,1.521,1.093" transform="translate(38.949 105.089)" fill="#b4a680"/>
                    <path id="Path_7669" data-name="Path 7669" d="M37.348,90.3c-2.2.884-2.282.877-4.526-.369,1.735-.007,3.091.609,4.526.369" transform="translate(39.333 103.772)" fill="rgba(112,82,37,0.85)"/>
                    <path id="Path_7671" data-name="Path 7671" d="M117.93,91.867a1.915,1.915,0,0,1-1.935,1.4c-.583,0-1.082-.226-.974-.895.167-1.035,1.06-1.315,1.913-1.458.585-.1.954.3,1,.956" transform="translate(137.82 108.926)" fill="#b4a680"/>
                    <path id="Path_7672" data-name="Path 7672" d="M110.448,84.862c2.533-.095,4.823,2.922,7.534.284-2.051,1.871-2.051,1.871-7.534-.284" transform="translate(132.357 101.693)" fill="rgba(112,82,37,0.85)"/>
                    <path id="Path_7673" data-name="Path 7673" d="M109.264,92.017a1.226,1.226,0,0,1-1.411,1.093,1.324,1.324,0,0,1-1.46-1.2c-.077-.681.442-.868,1.011-.879a2.267,2.267,0,0,1,1.86.987" transform="translate(127.488 109.086)" fill="#b4a680"/>
                    <path id="Path_7674" data-name="Path 7674" d="M108.084,89.629a5.041,5.041,0,0,1,4.977.24l-4.977-.24" transform="translate(129.524 106.757)" fill="rgba(112,82,37,0.85)"/>
                    <path id="Path_7676" data-name="Path 7676" d="M63.675,115.072c.64-.075,1.084.132,1.134.763.09,1.137-.754,1.436-1.614,1.594-.649.119-1.277-.145-1.282-.879-.007-1.139,1.088-1.123,1.761-1.477" transform="translate(74.195 137.88)" fill="#b4a680"/>
                    <path id="Path_7677" data-name="Path 7677" d="M56.761,115.208c.866.073,1.64.163,1.682,1.077.037.778-.578,1.055-1.253.961-.69-.1-1.462-.3-1.559-1.145-.11-.95.719-.765,1.13-.893" transform="translate(66.655 138.061)" fill="#b4a680"/>
                    <path id="Path_7678" data-name="Path 7678" d="M66.656,115.251c-1.948-.936-3.623-.71-5.538-.756,2.805-1.211,4.186-1.095,5.538.756" transform="translate(73.241 136.255)" fill="rgba(112,82,37,0.85)"/>
                    <path id="Path_7680" data-name="Path 7680" d="M85.943,115.123c1.128-.066,1.941.323,1.99,1.323.04.857-.787,1.033-1.515.978a1.791,1.791,0,0,1-1.792-1.561c-.134-1.189.941-.556,1.317-.741" transform="translate(101.399 137.95)" fill="#b4a680"/>
                    <path id="Path_7681" data-name="Path 7681" d="M93.969,116.178a1.968,1.968,0,0,1-1.781,1.233,1.045,1.045,0,0,1-1.119-1.145c.09-.961.895-1.224,1.691-1.159.55.044,1.218.233,1.209,1.071" transform="translate(109.127 137.929)" fill="#b4a680"/>
                    <path id="Path_7682" data-name="Path 7682" d="M87.06,115.2a10.288,10.288,0,0,0,6.23.161c-2.35,1.46-3.539,1.431-6.23-.161" transform="translate(104.329 138.05)" fill="rgba(112,82,37,0.85)"/>
                    <path id="Path_7683" data-name="Path 7683" d="M87.092,115.525c-.532-.1-.994-.325-1.075-.908-.11-.789.415-1.044,1.082-1.079.539-.031,1,.04,1.022.776.026.756-.4,1.04-1.029,1.211" transform="translate(103.062 136.053)" fill="rgba(112,82,37,0.85)"/>
                    <path id="Path_7684" data-name="Path 7684" d="M92.12,114.373a.942.942,0,0,1-.78,1.134,1.091,1.091,0,0,1-1.22-1.062c0-.58.479-.857,1.042-.9.6-.048,1.038.092.958.831" transform="translate(107.995 136.054)" fill="rgba(112,82,37,0.85)"/>
                    <path id="Path_7686" data-name="Path 7686" d="M43.58,100.04c1.875-1.363,3.243-.739,4.938.473l-4.938-.473" transform="translate(52.225 118.96)" fill="rgba(112,82,37,0.85)"/>
                    <path id="Path_7687" data-name="Path 7687" d="M39.116,100.646c1.266-1.609,2.691-1.776,4.546-.631-1.686.387-3.2-.244-4.546.631" transform="translate(46.875 118.968)" fill="rgba(112,82,37,0.85)"/>
                    <path id="Path_7689" data-name="Path 7689" d="M105.108,97.491c2.137.046,4.3.325,6.687-1.137-1.8,2.357-3.717,2.623-6.687,1.137" transform="translate(125.957 115.467)" fill="rgba(112,82,37,0.85)"/>
                    <path id="Path_7690" data-name="Path 7690" d="M106.918,99.689c-1.334,1.112-2.669,1.183-4.293-.237,1.666-.125,2.952.809,4.293.237" transform="translate(122.982 119.165)" fill="rgba(112,82,37,0.85)"/>
                    <path id="Path_7691" data-name="Path 7691" d="M107.1,99.772c1.2.541,2.308-.541,3.753-.246-1.354,1.174-2.524,1.209-3.753.246" transform="translate(128.343 119.206)" fill="rgba(112,82,37,0.85)"/>
                    <path id="Path_7693" data-name="Path 7693" d="M82.75,117.464a1.047,1.047,0,0,1-1.033.98c-.508.075-1.167.123-1.141-.624.022-.58.591-.831,1.134-.868.407-.029.895-.068,1.04.512" transform="translate(96.558 140.134)" fill="#b4a680"/>
                    <path id="Path_7694" data-name="Path 7694" d="M78.035,116.738a1.045,1.045,0,1,1-2.084-.158.968.968,0,0,1,1.108-.862.913.913,0,0,1,.976,1.02" transform="translate(91.008 138.67)" fill="rgba(112,82,37,0.85)"/>
                    <path id="Path_7695" data-name="Path 7695" d="M77.4,117.7c.02.558-.325.745-.8.761-.545.018-1.1-.119-1.2-.714-.086-.479.3-.758.789-.791a1.119,1.119,0,0,1,1.213.745" transform="translate(90.337 140.153)" fill="#b4a680"/>
                    <path id="Path_7697" data-name="Path 7697" d="M72.569,118.778c-.517-.084-.893-.341-.877-.827.024-.758.583-1.007,1.253-1,.466.007.941.248.86.732a1.329,1.329,0,0,1-1.235,1.09" transform="translate(85.913 140.154)" fill="#b4a680"/>
                    <path id="Path_7698" data-name="Path 7698" d="M71.928,115.717a.95.95,0,0,1,1.126.849,1.041,1.041,0,0,1-1.088,1.165c-.558-.011-.833-.514-.846-1.086s.136-1.029.809-.928" transform="translate(85.226 138.653)" fill="rgba(112,82,37,0.85)"/>
                    <path id="Path_7699" data-name="Path 7699" d="M68.824,116.611a1.055,1.055,0,0,1-.89,1.1.925.925,0,0,1-.917-1c-.018-.574.2-.967.868-.987.64-.018.947.257.939.895" transform="translate(80.309 138.669)" fill="rgba(112,82,37,0.85)"/>
                    <path id="Path_7701" data-name="Path 7701" d="M47.1,108.06c.633.024,1.246.191,1.356.89.086.547-.418.651-.864.651a1.136,1.136,0,0,1-1.2-.758c-.163-.545.24-.73.712-.783" transform="translate(55.547 129.495)" fill="#b4a680"/>
                    <path id="Path_7702" data-name="Path 7702" d="M51.961,106.715a1.064,1.064,0,0,1,.846,1.1.8.8,0,0,1-.976.86.836.836,0,0,1-.875-.989,1.067,1.067,0,0,1,1-.967" transform="translate(61.057 127.883)" fill="rgba(112,82,37,0.85)"/>
                    <path id="Path_7703" data-name="Path 7703" d="M48.764,107.947c.048.6-.4.747-1,.684-.567-.062-1.035-.361-.95-.963a1.075,1.075,0,0,1,1.088-.937c.525.035.866.479.857,1.216" transform="translate(56.093 127.9)" fill="rgba(112,82,37,0.85)"/>
                    <path id="Path_7704" data-name="Path 7704" d="M52.329,108.094c.558-.04.932.015.972.429.062.627-.385.888-.926.98-.352.059-.719-.024-.774-.437-.09-.664.488-.778.728-.972" transform="translate(61.825 129.523)" fill="#b4a680"/>
                    <path id="Path_7706" data-name="Path 7706" d="M97.336,108.7c-.6-.081-1.216-.154-1.271-.945-.046-.653.466-.895.952-.994.692-.141,1.084.231,1.152.948a.785.785,0,0,1-.833.991" transform="translate(115.118 127.903)" fill="rgba(112,82,37,0.85)"/>
                    <path id="Path_7707" data-name="Path 7707" d="M100.375,110.429c-.53-.215-1.141-.321-1.075-.963.062-.609.732-.629,1.163-.8.607-.244.664.286.693.695a1,1,0,0,1-.78,1.071" transform="translate(118.991 130.144)" fill="#ab4556"/>
                    <path id="Path_7708" data-name="Path 7708" d="M101.085,106.739c.69.042,1.02.33,1.06.941s-.163.987-.842.958c-.569-.024-1.038-.29-1.084-.844-.048-.58.486-.827.866-1.055" transform="translate(120.094 127.912)" fill="rgba(112,82,37,0.85)"/>
                    <path id="Path_7709" data-name="Path 7709" d="M101.63,109.513c-.479-.011-.906-.246-.888-.706.015-.437.438-.688.915-.721.5-.033.864.193.842.7a.764.764,0,0,1-.868.73" transform="translate(120.725 129.523)" fill="#b4a680"/>
                    <path id="Path_7710" data-name="Path 7710" d="M97.422,108.835c-.042.578-.38.71-.721.7a.982.982,0,0,1-1.053-.9c-.051-.464.345-.576.681-.552a1.164,1.164,0,0,1,1.093.752" transform="translate(114.616 129.518)" fill="#b4a680"/>
                    <path id="Path_7711" data-name="Path 7711" d="M39.427,52.793c-2.7,3.146-5.067.475-7.534-.453,2.53-.169,4.883,2.7,7.534.453" transform="translate(38.219 62.713)" fill="#b4a680"/>
                    <path id="Path_7712" data-name="Path 7712" d="M31.887,60.539c-.734-.207-1.6-.389-1.633-1.352-.022-.657.633-.721,1.17-.717.723.007,1.479.11,1.629.952.141.78-.495,1-1.165,1.117" transform="translate(36.254 70.068)" fill="#b4a680"/>
                    <path id="Path_7713" data-name="Path 7713" d="M41.706,59.488c-.246.9-.983,1.06-1.822,1.009-.475-.026-.974-.284-.888-.754a1.561,1.561,0,0,1,1.745-1.262c.607,0,1.018.24.965,1.007" transform="translate(46.719 70.081)" fill="#b4a680"/>
                    <path id="Path_7714" data-name="Path 7714" d="M36.9,57.8c1.512-.341,2.948.156,4.269-.422-1.253,1.24-2.559,1.972-4.269.422" transform="translate(44.215 68.755)" fill="rgba(112,82,37,0.85)"/>
                    <path id="Path_7715" data-name="Path 7715" d="M35.585,57.583c-1.093,1.286-2.249.947-3.81,0Z" transform="translate(38.078 69.005)" fill="rgba(112,82,37,0.85)"/>
                    <path id="Path_7718" data-name="Path 7718" d="M109.032,52.508c3.456.991,6.905,1.924,10.381.147-1.1.481-2.214.926-3.284,1.46a3.3,3.3,0,0,1-3.484.1,13.938,13.938,0,0,0-3.612-1.71" transform="translate(130.66 62.924)" fill="#b4a680"/>
                    <path id="Path_7719" data-name="Path 7719" d="M106.333,58.69c.818.048,1.592.235,1.7,1.2.1.857-.58.9-1.2.923a1.37,1.37,0,0,1-1.565-1.343c-.066-.692.53-.765,1.071-.783" transform="translate(126.137 70.332)" fill="#b4a680"/>
                    <path id="Path_7720" data-name="Path 7720" d="M115.32,58.7c.732.013,1.266.16,1.2.855a1.274,1.274,0,0,1-1.425,1.22c-.572,0-1.086-.169-1.049-.853.046-.864.695-1.121,1.277-1.222" transform="translate(136.662 70.349)" fill="#b4a680"/>
                    <path id="Path_7721" data-name="Path 7721" d="M109.335,59.148c1.374,1.46,2.739,1.677,4.562-.594-1.673,3.207-2.983,3.227-4.562.594" transform="translate(131.023 70.169)" fill="#b4a680"/>
                    <path id="Path_7722" data-name="Path 7722" d="M117.348,57.626a14.687,14.687,0,0,0-5.67-.018c1.9-.908,3.79-1.4,5.67.018" transform="translate(133.831 67.989)" fill="rgba(112,82,37,0.85)"/>
                    <path id="Path_7723" data-name="Path 7723" d="M106.856,56.884c1.719.1,3.559-.7,5.094.787-1.636-.732-3.487.149-5.094-.787" transform="translate(128.052 68.018)" fill="rgba(112,82,37,0.85)"/>
                    <path id="Path_7725" data-name="Path 7725" d="M94.922,31.361c-.2.963-.921,1.2-1.757,1.207-.728.009-1.552-.134-1.55-1.016,0-1.066.952-1.106,1.741-1.1.653,0,1.477-.149,1.565.91" transform="translate(109.789 33.254)" fill="#b4a680"/>
                    <path id="Path_7726" data-name="Path 7726" d="M88.3,31.184c-.156.864-.756.921-1.378.895-.842-.035-1.587-.321-1.594-1.293-.007-.818.695-.853,1.315-.831A1.56,1.56,0,0,1,88.3,31.184" transform="translate(102.249 32.664)" fill="#b4a680"/>
                    <path id="Path_7729" data-name="Path 7729" d="M64.175,31.008c-.314,1.06-1.194,1.123-2.082,1.075-.455-.024-1.2.088-1.013-.743.251-1.145,1.112-1.453,2.187-1.345.6.062.98.312.908,1.013" transform="translate(73.161 35.921)" fill="#b4a680"/>
                    <path id="Path_7730" data-name="Path 7730" d="M57.573,31.218c-.062.9-.728.844-1.319.831-.717-.02-1.486-.169-1.517-1.038-.035-.919.73-1.049,1.46-1.02a1.29,1.29,0,0,1,1.376,1.227" transform="translate(65.593 35.936)" fill="#b4a680"/>
                    <path id="Path_7731" data-name="Path 7731" d="M63.62,30.231a6.357,6.357,0,0,1-6.65-.073,34.287,34.287,0,0,0,6.65.073" transform="translate(68.271 36.14)" fill="#b4a680"/>
                    <path id="Path_7732" data-name="Path 7732" d="M57.248,30.334a1,1,0,1,1-.125-1.99,1.012,1.012,0,0,1,1.027.958.871.871,0,0,1-.9,1.031" transform="translate(67.183 33.966)" fill="rgba(112,82,37,0.85)"/>
                    <path id="Path_7733" data-name="Path 7733" d="M62.156,28.933c.125,1.233-.27,1.422-.893,1.4a1.066,1.066,0,0,1-1.095-.908c-.114-.651.464-.976.93-1.053a.906.906,0,0,1,1.057.563" transform="translate(72.087 33.978)" fill="rgba(112,82,37,0.85)"/>
                    <path id="Path_7735" data-name="Path 7735" d="M40.685,44.89a37.285,37.285,0,0,0,6.591-.121c-2.2,1.093-4.412.629-6.591.121" transform="translate(48.755 53.649)" fill="#b4a680"/>
                    <path id="Path_7737" data-name="Path 7737" d="M106.88,43.617l4.667-.7c-1.427,1.4-2.741,1.282-4.667.7" transform="translate(128.081 51.434)" fill="rgba(112,82,37,0.85)"/>
                    <path id="Path_7738" data-name="Path 7738" d="M106.477,43.481c-1.334.668-2.6.822-3.682-.49a18.4,18.4,0,0,0,3.682.49" transform="translate(123.186 51.519)" fill="rgba(112,82,37,0.85)"/>
                    <path id="Path_7740" data-name="Path 7740" d="M78.052,26.751c-.031,1.007-.444,1.224-1.022,1.209-.692-.02-1.156-.35-1.082-1.093a1,1,0,0,1,1.029-.919c.62.029,1.075.429,1.075.8" transform="translate(91.004 31.094)" fill="rgba(112,82,37,0.85)"/>
                    <path id="Path_7741" data-name="Path 7741" d="M77.5,28.191c-.178.695-.638.692-1.053.666-.543-.035-1.09-.281-1.1-.864-.018-.714.6-.7,1.126-.64a1.188,1.188,0,0,1,1.031.838" transform="translate(90.29 32.748)" fill="#b4a680"/>
                    <path id="Path_7742" data-name="Path 7742" d="M82.448,28.167c-.125.558-.58.7-1.126.662-.466-.033-.835-.275-.783-.769.068-.64.6-.745,1.126-.719a.73.73,0,0,1,.783.827" transform="translate(96.51 32.759)" fill="#b4a680"/>
                    <path id="Path_7744" data-name="Path 7744" d="M72.932,27.315c.391.075.954.029.948.6-.007.765-.624.941-1.257.958-.446.013-.912-.11-.939-.644-.044-.86.62-.879,1.249-.917" transform="translate(85.9 32.733)" fill="#b4a680"/>
                    <path id="Path_7745" data-name="Path 7745" d="M68.628,28.338c-.123.569-.594.536-1.009.523-.558-.018-1.108-.262-1.139-.84-.04-.714.58-.754,1.11-.666s.987.33,1.038.983" transform="translate(79.665 32.741)" fill="#b4a680"/>
                    <path id="Path_7746" data-name="Path 7746" d="M72.515,27.366c-1.3,1.462-2.618,1.666-3.957-.112a3.088,3.088,0,0,0,3.957.112" transform="translate(82.157 32.66)" fill="#b4a680"/>
                    <path id="Path_7747" data-name="Path 7747" d="M73.068,27.1c-.18.492-.437.877-1.051.89-.646.013-.963-.288-.9-.91s.3-1.249,1.046-1.108a1.228,1.228,0,0,1,.9,1.128" transform="translate(85.216 31.1)" fill="rgba(112,82,37,0.85)"/>
                    <path id="Path_7748" data-name="Path 7748" d="M67.964,25.977a1.179,1.179,0,0,1,.833,1.216c-.053.723-.578.769-1.123.7s-.684-.466-.646-.939a.957.957,0,0,1,.936-.978" transform="translate(80.317 31.13)" fill="rgba(112,82,37,0.85)"/>
                    <path id="Path_7749" data-name="Path 7749" d="M96.972,37.566" transform="translate(116.207 44.485)" fill="#c28576"/>
                    <path id="Path_7750" data-name="Path 7750" d="M101.182,36.256c-.736.04-1.053-.229-1.027-.717a.811.811,0,0,1,.855-.761c.422-.015.912-.018.939.561.026.635-.517.772-.767.917" transform="translate(120.021 41.672)" fill="#b4a680"/>
                    <path id="Path_7751" data-name="Path 7751" d="M96.733,35.754c-.095.431-.464.576-.921.479-.53-.112-.985-.4-.833-1.024.128-.519.651-.468,1.051-.407a.775.775,0,0,1,.7.952" transform="translate(113.784 41.661)" fill="#b4a680"/>
                    <path id="Path_7752" data-name="Path 7752" d="M100.487,33.522c.655.147,1.17.383,1.071,1.011a1.091,1.091,0,0,1-1.077.965c-.572-.026-.811-.492-.846-1.09-.044-.752.393-.853.853-.886" transform="translate(119.393 40.171)" fill="rgba(112,82,37,0.85)"/>
                    <path id="Path_7753" data-name="Path 7753" d="M96.407,35.5a1.191,1.191,0,0,1-.877-1.035.73.73,0,0,1,.686-.9c.576-.07,1.071.068,1.112.752a1.118,1.118,0,0,1-.921,1.187" transform="translate(114.471 40.2)" fill="rgba(112,82,37,0.85)"/>
                    <path id="Path_7755" data-name="Path 7755" d="M48.613,33.515c-.119.688-.519,1.152-1.159,1.11a1.038,1.038,0,0,1-.969-.989c-.031-.739.435-1.055,1.128-1.04a1,1,0,0,1,1,.919" transform="translate(55.704 39.061)" fill="rgba(112,82,37,0.85)"/>
                    <path id="Path_7756" data-name="Path 7756" d="M51.427,32.609c.989-.059,1.24.306,1.209.941a1.021,1.021,0,0,1-.945,1.042,1.049,1.049,0,0,1-1.106-.912c-.117-.791.561-.936.842-1.071" transform="translate(60.603 39.07)" fill="rgba(112,82,37,0.85)"/>
                    <path id="Path_7757" data-name="Path 7757" d="M47.95,34.795c-.1.506-.369.809-.879.695s-1.04-.288-1.027-.95a.645.645,0,0,1,.844-.686,1.168,1.168,0,0,1,1.062.941" transform="translate(55.177 40.543)" fill="#b4a680"/>
                    <path id="Path_7758" data-name="Path 7758" d="M52.208,33.832c.479.031.969.24.941.712-.035.6-.574.84-1.156.776-.468-.053-.871-.312-.791-.833s.55-.618,1.007-.655" transform="translate(61.346 40.543)" fill="#b4a680"/>
                    <path id="Path_7766" data-name="Path 7766" d="M109.335,59.148c1.374,1.46,2.739,1.677,4.562-.594-1.673,3.207-2.983,3.227-4.562.594" transform="translate(-33.854 70.169)" fill="#b4a680"/>
                    <path id="Path_7995" data-name="Path 7995" d="M101.182,36.256c-.736.04-1.053-.229-1.027-.717a.811.811,0,0,1,.855-.761c.422-.015.912-.018.939.561.026.635-.517.772-.767.917" transform="translate(131.193 64.325)" fill="rgba(112,82,37,0.85)"/>
                    <path id="Path_8000" data-name="Path 8000" d="M90.428,29.856c1.939-1.24,3.922-1.2,6.122.2-1.365.816-2.062-.481-3.029-.424a11.423,11.423,0,0,0-3.093.229" transform="translate(84.531 28.078)" fill="rgba(112,82,37,0.85)"/>
                    <path id="Path_8001" data-name="Path 8001" d="M101.182,36.256c-.736.04-1.053-.229-1.027-.717a.811.811,0,0,1,.855-.761c.422-.015.912-.018.939.561.026.635-.517.772-.767.917" transform="translate(71.788 27.145)" fill="rgba(112,82,37,0.85)"/>
                    <path id="Path_8002" data-name="Path 8002" d="M39.427,52.793c-2.7,3.146-5.067.475-7.534-.453,2.53-.169,4.883,2.7,7.534.453" transform="translate(56.536 34.859)" fill="#b4a680"/>
                    <path id="Path_8003" data-name="Path 8003" d="M47.95,34.795c-.1.506-.369.809-.879.695s-1.04-.288-1.027-.95a.645.645,0,0,1,.844-.686,1.168,1.168,0,0,1,1.062.941" transform="translate(39.29 60.893)" fill="#b4a680"/>
                    <path id="Path_8004" data-name="Path 8004" d="M52.208,33.832c.479.031.969.24.941.712-.035.6-.574.84-1.156.776-.468-.053-.871-.312-.791-.833s.55-.618,1.007-.655" transform="translate(45.459 60.893)" fill="#b4a680"/>
                    <path id="Path_8005" data-name="Path 8005" d="M66.656,115.251c-1.948-.936-3.623-.71-5.538-.756,2.805-1.211,4.186-1.095,5.538.756" transform="translate(59.801 136.255)" fill="rgba(112,82,37,0.85)"/>
                    <path id="Path_8006" data-name="Path 8006" d="M100.375,110.429c-.53-.215-1.141-.321-1.075-.963.062-.609.732-.629,1.163-.8.607-.244.664.286.693.695a1,1,0,0,1-.78,1.071" transform="translate(29.791 146.582)" fill="rgba(112,82,37,0.85)"/>
                    <path id="Path_8007" data-name="Path 8007" d="M72.569,118.778c-.517-.084-.893-.341-.877-.827.024-.758.583-1.007,1.253-1,.466.007.941.248.86.732a1.329,1.329,0,0,1-1.235,1.09" transform="translate(75.633 140.154)" fill="#b4a680"/>
                    <path id="Path_8008" data-name="Path 8008" d="M109.335,59.148c1.374,1.46,2.739,1.677,4.562-.594-1.673,3.207-2.983,3.227-4.562.594" transform="translate(41.363 199.482)" fill="rgba(112,82,37,0.85)"/>
                    <path id="Path_8010" data-name="Path 8010" d="M87.06,115.2a10.288,10.288,0,0,0,6.23.161c-2.35,1.46-3.539,1.431-6.23-.161" transform="translate(82.836 143.887)" fill="rgba(112,82,37,0.85)"/>
                    <path id="Path_8012" data-name="Path 8012" d="M90.428,29.856c1.939-1.24,3.922-1.2,6.122.2-1.365.816-2.062-.481-3.029-.424a11.423,11.423,0,0,0-3.093.229" transform="translate(84.73 225.868)" fill="rgba(112,82,37,0.85)"/>
                    <path id="Path_8013" data-name="Path 8013" d="M39.427,52.793c-2.7,3.146-5.067.475-7.534-.453,2.53-.169,4.883,2.7,7.534.453" transform="translate(42.024 133.215)" fill="rgba(112,82,37,0.85)"/>
                    <path id="Path_8014" data-name="Path 8014" d="M109.335,59.148c1.374,1.46,2.739,1.677,4.562-.594-1.673,3.207-2.983,3.227-4.562.594" transform="translate(-30.049 138.67)" fill="rgba(112,82,37,0.85)"/>
                    <path id="Path_8015" data-name="Path 8015" d="M37.348,90.3c-2.2.884-2.282.877-4.526-.369,1.735-.007,3.091.609,4.526.369" transform="translate(54.131 103.277)" fill="rgba(112,82,37,0.85)"/>
                    <path id="Path_8016" data-name="Path 8016" d="M109.335,59.148c1.374,1.46,2.739,1.677,4.562-.594-1.673,3.207-2.983,3.227-4.562.594" transform="translate(136.173 140.779)" fill="rgba(112,82,37,0.85)"/>
                    <path id="Path_8017" data-name="Path 8017" d="M117.348,57.626a14.687,14.687,0,0,0-5.67-.018c1.9-.908,3.79-1.4,5.67.018" transform="translate(138.981 138.599)" fill="rgba(112,82,37,0.85)"/>
                    <path id="Path_8018" data-name="Path 8018" d="M100.375,110.429c-.53-.215-1.141-.321-1.075-.963.062-.609.732-.629,1.163-.8.607-.244.664.286.693.695a1,1,0,0,1-.78,1.071" transform="translate(132.715 114.092)" fill="rgba(112,82,37,0.85)"/>
                    <path id="Path_8019" data-name="Path 8019" d="M72.569,118.778c-.517-.084-.893-.341-.877-.827.024-.758.583-1.007,1.253-1,.466.007.941.248.86.732a1.329,1.329,0,0,1-1.235,1.09" transform="translate(165.381 103.917)" fill="#b4a680"/>
                    <path id="Path_8020" data-name="Path 8020" d="M72.569,118.778c-.517-.084-.893-.341-.877-.827.024-.758.583-1.007,1.253-1,.466.007.941.248.86.732a1.329,1.329,0,0,1-1.235,1.09" transform="translate(155.101 103.917)" fill="#b4a680"/>
                    <path id="Path_8021" data-name="Path 8021" d="M87.06,115.2a10.288,10.288,0,0,0,6.23.161c-2.35,1.46-3.539,1.431-6.23-.161" transform="translate(127.21 123.243)" fill="rgba(112,82,37,0.85)"/>
                    <path id="Path_8022" data-name="Path 8022" d="M100.375,110.429c-.53-.215-1.141-.321-1.075-.963.062-.609.732-.629,1.163-.8.607-.244.664.286.693.695a1,1,0,0,1-.78,1.071" transform="translate(9.531 -32.212)" fill="#ab4556"/>
                    <path id="Path_8023" data-name="Path 8023" d="M87.06,115.2a10.288,10.288,0,0,0,6.23.161c-2.35,1.46-3.539,1.431-6.23-.161" transform="translate(17.75 -39.113)" fill="#b4a680"/>
                    <path id="Path_8024" data-name="Path 8024" d="M63.675,115.072c.64-.075,1.084.132,1.134.763.09,1.137-.754,1.436-1.614,1.594-.649.119-1.277-.145-1.282-.879-.007-1.139,1.088-1.123,1.761-1.477" transform="translate(36.291 105.69)" fill="#b4a680"/>
                    <path id="Path_8025" data-name="Path 8025" d="M56.761,115.208c.866.073,1.64.163,1.682,1.077.037.778-.578,1.055-1.253.961-.69-.1-1.462-.3-1.559-1.145-.11-.95.719-.765,1.13-.893" transform="translate(28.75 105.871)" fill="#b4a680"/>
                    <path id="Path_8026" data-name="Path 8026" d="M87.06,115.2a10.288,10.288,0,0,0,6.23.161c-2.35,1.46-3.539,1.431-6.23-.161" transform="translate(2.564 107.947)" fill="rgba(112,82,37,0.85)"/>
                    <path id="Path_8027" data-name="Path 8027" d="M39.427,52.793c-2.7,3.146-5.067.475-7.534-.453,2.53-.169,4.883,2.7,7.534.453" transform="translate(56.844 159.05)" fill="rgba(112,82,37,0.85)"/>
                    <path id="Path_8028" data-name="Path 8028" d="M100.375,110.429c-.53-.215-1.141-.321-1.075-.963.062-.609.732-.629,1.163-.8.607-.244.664.286.693.695a1,1,0,0,1-.78,1.071" transform="translate(10.498 131.22)" fill="#ab4556"/>
                    <path id="Path_8029" data-name="Path 8029" d="M87.06,115.2a10.288,10.288,0,0,0,6.23.161c-2.35,1.46-3.539,1.431-6.23-.161" transform="translate(18.716 124.318)" fill="rgba(112,82,37,0.85)"/>
                    <path id="Path_8030" data-name="Path 8030" d="M100.375,110.429c-.53-.215-1.141-.321-1.075-.963.062-.609.732-.629,1.163-.8.607-.244.664.286.693.695a1,1,0,0,1-.78,1.071" transform="translate(116.769 -30.081)" fill="#ab4556"/>
                    <path id="Path_8031" data-name="Path 8031" d="M87.06,115.2a10.288,10.288,0,0,0,6.23.161c-2.35,1.46-3.539,1.431-6.23-.161" transform="translate(124.988 -36.982)" fill="#b4a680"/>
                    <path id="Path_8034" data-name="Path 8034" d="M109.335,59.148c1.374,1.46,2.739,1.677,4.562-.594-1.673,3.207-2.983,3.227-4.562.594" transform="translate(84.436 6.227)" fill="#b4a680"/>
                    <path id="Path_8035" data-name="Path 8035" d="M117.348,57.626a14.687,14.687,0,0,0-5.67-.018c1.9-.908,3.79-1.4,5.67.018" transform="translate(87.572 2.395)" fill="rgba(112,82,37,0.85)"/>
                    <path id="Path_8036" data-name="Path 8036" d="M106.856,56.884c1.719.1,3.559-.7,5.094.787-1.636-.732-3.487.149-5.094-.787" transform="translate(80.717 2.425)" fill="rgba(112,82,37,0.85)"/>
                    <path id="Path_8037" data-name="Path 8037" d="M39.427,52.793c-2.7,3.146-5.067.475-7.534-.453,2.53-.169,4.883,2.7,7.534.453" transform="translate(196.839 35.936)" fill="#b4a680"/>
                    <text id="C" transform="translate(210.895 90.311)" fill="rgba(112,82,37,0.85)" font-size="12" font-family="ComicSansMS, Comic Sans MS"><tspan x="0" y="0">C</tspan></text>
                    <text id="D" transform="translate(228.895 110.311)" fill="rgba(112,82,37,0.85)" font-size="12" font-family="ComicSansMS, Comic Sans MS"><tspan x="0" y="0">D</tspan></text>
                    <text id="C-2" data-name="C" transform="translate(103.895 89.311)" fill="rgba(112,82,37,0.85)" font-size="12" font-family="ComicSansMS, Comic Sans MS"><tspan x="0" y="0">C</tspan></text>
                    <text id="D-2" data-name="D" transform="translate(88.895 110.311)" fill="rgba(112,82,37,0.85)" font-size="12" font-family="ComicSansMS, Comic Sans MS"><tspan x="0" y="0">D</tspan></text>
                    <text id="D-3" data-name="D" transform="translate(88.895 235.311)" fill="rgba(112,82,37,0.85)" font-size="12" font-family="ComicSansMS, Comic Sans MS"><tspan x="0" y="0">D</tspan></text>
                    <text id="D-4" data-name="D" transform="translate(229.895 237.311)" fill="rgba(112,82,37,0.85)" font-size="12" font-family="ComicSansMS, Comic Sans MS"><tspan x="0" y="0">D</tspan></text>
                    <text id="C-3" data-name="C" transform="translate(212.895 251.311)" fill="rgba(112,82,37,0.85)" font-size="12" font-family="ComicSansMS, Comic Sans MS"><tspan x="0" y="0">C</tspan></text>
                    <text id="C-4" data-name="C" transform="translate(103.895 252.311)" fill="rgba(112,82,37,0.85)" font-size="12" font-family="ComicSansMS, Comic Sans MS"><tspan x="0" y="0">C</tspan></text>
                    <text id="E" transform="translate(239 142.352)" fill="rgba(112,82,37,0.85)" font-size="12" font-family="ComicSansMS, Comic Sans MS"><tspan x="0" y="0">E</tspan></text>
                    <text id="E-2" data-name="E" transform="translate(74 141.352)" fill="rgba(112,82,37,0.85)" font-size="12" font-family="ComicSansMS, Comic Sans MS"><tspan x="0" y="0">E</tspan></text>
                  </g>
                </g>
              </g>
              <path id="Path_7988" data-name="Path 7988" d="M47.927,20.282H43.972c1.387-1.686,2.533-1.018,3.955,0" transform="translate(50.232 72.964)" fill="rgba(112,82,37,0.85)"/>
              <path id="Path_7989" data-name="Path 7989" d="M40.224,20.205c1.946-1.213,1.946-1.213,3.737,0Z" transform="translate(45.741 73.015)" fill="rgba(112,82,37,0.85)"/>
            </g>
          </g>
        </g>
        <text id="A" transform="translate(159 229)" fill="rgba(112,82,37,0.85)" font-size="12" font-family="ComicSansMS, Comic Sans MS"><tspan x="0" y="13">A</tspan></text>
        <text id="B" transform="translate(183 246)" fill="rgba(112,82,37,0.85)" font-size="12" font-family="ComicSansMS, Comic Sans MS"><tspan x="0" y="0">B</tspan></text>
        <text id="A-2" data-name="A" transform="translate(138 229)" fill="rgba(112,82,37,0.85)" font-size="12" font-family="ComicSansMS, Comic Sans MS"><tspan x="0" y="13">A</tspan></text>
        <text id="B-2" data-name="B" transform="translate(116 247)" fill="rgba(112,82,37,0.85)" font-size="12" font-family="ComicSansMS, Comic Sans MS"><tspan x="0" y="0">B</tspan></text>
        <text id="B-3" data-name="B" transform="translate(183 432)" fill="rgba(112,82,37,0.85)" font-size="12" font-family="ComicSansMS, Comic Sans MS"><tspan x="0" y="0">B</tspan></text>
        <text id="B-4" data-name="B" transform="translate(118 434)" fill="rgba(112,82,37,0.85)" font-size="12" font-family="ComicSansMS, Comic Sans MS"><tspan x="0" y="0">B</tspan></text>
        <text id="A-3" data-name="A" transform="translate(138 426)" fill="rgba(112,82,37,0.85)" font-size="12" font-family="ComicSansMS, Comic Sans MS"><tspan x="0" y="13">A</tspan></text>
        <text id="A-4" data-name="A" transform="translate(159 424)" fill="rgba(112,82,37,0.85)" font-size="12" font-family="ComicSansMS, Comic Sans MS"><tspan x="0" y="13">A</tspan></text>
        <text id="E-3" data-name="E" transform="translate(67.105 377.041)" fill="rgba(112,82,37,0.85)" font-size="12" font-family="ComicSansMS, Comic Sans MS"><tspan x="0" y="0">E</tspan></text>
      </g>
    </g>
  </g>
</svg>
