<svg id="Group_1697" data-name="Group 1697" xmlns="http://www.w3.org/2000/svg" xmlns:xlink="http://www.w3.org/1999/xlink" width="102.553" height="87.707" viewBox="0 0 102.553 87.707">
  <defs>
    <clipPath id="clip-path">
      <rect id="Rectangle_2056" data-name="Rectangle 2056" width="102.553" height="87.707" fill="none"/>
    </clipPath>
  </defs>
  <g id="Group_1696" data-name="Group 1696" transform="translate(0 0)" clip-path="url(#clip-path)">
    <path id="Path_17922" data-name="Path 17922" d="M64.476,4.323a5.778,5.778,0,0,0,2.669-.741,37.711,37.711,0,0,1,4.393-1.9A38.453,38.453,0,0,1,77.525.129,30.666,30.666,0,0,1,84.95.408,20.546,20.546,0,0,1,92.3,2.83a15.636,15.636,0,0,1,6.957,7.346A22.146,22.146,0,0,1,101,15.993a108.86,108.86,0,0,1,.694,11.783c.167,3.622.607,7.25,2.31,10.539a32.12,32.12,0,0,0,2.107,3.372c1.831,2.664,4.166,4.906,6.062,7.522a25.755,25.755,0,0,1,3.658,6.52,13.931,13.931,0,0,1,.214,8.148,20.476,20.476,0,0,1-4.331,8.293,30.878,30.878,0,0,1-3.631,3.788c-1.174.979-2.445,1.845-3.7,2.722A49.046,49.046,0,0,1,97.332,82.3a4.565,4.565,0,0,1-2.97.768c-.449-.157-.43-.578-.5-.928a28.231,28.231,0,0,0-6.009-12.39c-.621-.766-1.5-1.337-1.787-2.357a54.2,54.2,0,0,0-.712-7.731A54.735,54.735,0,0,0,82.186,48.61a44.559,44.559,0,0,1-1.9-5.485,26.5,26.5,0,0,1-.524-8.742c.167-1.863.095-3.739.211-5.61a47.528,47.528,0,0,0,.233-5.608,1.531,1.531,0,0,1,.591-1.315,6.907,6.907,0,0,0,.539-.521c3.474-3.591,3.237-8.4-.632-11.567a13.926,13.926,0,0,0-8.7-3.276A10.912,10.912,0,0,1,66.518,5.3c-.658-.38-1.565-.231-2.042-.979" transform="translate(-13.994 0)" fill="#deeafa"/>
    <path id="Path_17923" data-name="Path 17923" d="M55.947,5.39c1.47.494,2.9,1.1,4.34,1.652a11.157,11.157,0,0,0,3.043.182,15.521,15.521,0,0,1,8.887,3.292c4.186,3.367,4.471,8.443.62,12.16a2.73,2.73,0,0,0-.907,2.076c-.135,3.8-.272,7.609-.517,11.407a29.227,29.227,0,0,0,2.48,13.468,49.052,49.052,0,0,1,3.854,17.241c.023.56-.006,1.122-.011,1.683-.4.277-.558-.11-.759-.3a33.714,33.714,0,0,0-7.1-5.1,35.049,35.049,0,0,0-4.6-2.017,8.773,8.773,0,0,1-.958-.27c-3.037-1.132-4.192-3.491-4.272-6.553a24.893,24.893,0,0,1,.068-3.584c.494-.865,1.422-1.287,2.06-2.015a17.936,17.936,0,0,0,3.173-5.164,1.5,1.5,0,0,1,1.418-1.131,3.3,3.3,0,0,0,3.256-2.585,4.611,4.611,0,0,0,.142-2.039,2.04,2.04,0,0,0-1.6-1.863c-.823-.2-1-.642-.878-1.437a30.7,30.7,0,0,0,.439-6.156c-.009-.156,0-.312,0-.468-.059-1.96-.047-1.891-1.935-1.511-5.312,1.066-10.321.48-14.76-2.923a4.087,4.087,0,0,1-.841-.742c-.482-.651-.975-.627-1.694-.308-4.206,1.864-6.219,5.315-7.075,9.616a15.026,15.026,0,0,0-.4,3.062c.005.621-.308.857-.937.88-1.489.055-2.125.724-2.229,2.2a4.011,4.011,0,0,0,1.065,3.187,2.849,2.849,0,0,0,2.279,1.1,1.367,1.367,0,0,1,1.438.963,22.355,22.355,0,0,0,1.22,2.53,15.036,15.036,0,0,0,3.44,4.048,1.751,1.751,0,0,1,.6.7,11.182,11.182,0,0,1,.092,2.393,13.406,13.406,0,0,1-.325,3.6,5.154,5.154,0,0,1-4.106,3.865,14.723,14.723,0,0,0-2.145.682,31.656,31.656,0,0,0-9.438,5.258,28.373,28.373,0,0,0-4.879,4.889c-.248.325-.45.921-1.084.523a3.791,3.791,0,0,1-.558-1.478,20.822,20.822,0,0,1,.843-13.041c1.024-2.582,2.118-5.136,2.953-7.792a58.26,58.26,0,0,0,1.878-9.638c.378-2.751.645-5.518,1.177-8.248a3.786,3.786,0,0,0-.042-1.575,20.975,20.975,0,0,1,4.224-18.572,18.7,18.7,0,0,1,5.3-4.406,1.267,1.267,0,0,1,.884-.234,19.9,19.9,0,0,1,7.974-1.985,25.942,25.942,0,0,1,4.906.467" transform="translate(-5.465 -1.068)" fill="#373b5d"/>
    <path id="Path_17924" data-name="Path 17924" d="M37.6,7.012a20.076,20.076,0,0,0-9.825,11.863,20.327,20.327,0,0,0-.368,11.08,5.024,5.024,0,0,1,.071,2.011c-.573,3.761-1.092,7.531-1.615,11.3A46.683,46.683,0,0,1,22.289,55.52,22.906,22.906,0,0,0,20,66.023a20.7,20.7,0,0,0,1.1,5.957c.274.443-.013.787-.236,1.106a27.789,27.789,0,0,0-4.094,8.959.942.942,0,0,1-.415.7,21.68,21.68,0,0,1-5.132-2.3A47.744,47.744,0,0,1,6.467,77.52,20.8,20.8,0,0,1,4.15,75.275,13.9,13.9,0,0,1,.062,66.23c-.309-3.218.589-6.164,1.632-9.132.744-2.116,1.731-4.121,2.538-6.2.424-1.093,1.018-2.119,1.44-3.213a20.841,20.841,0,0,0,1.438-9.7c-.331-3.365-1.058-6.669-1.279-10.056a38.707,38.707,0,0,1,.126-7.166,12.505,12.505,0,0,1,2.585-6.269c.485-.615.879-1.307,1.359-1.943a18.108,18.108,0,0,1,3.884-3.594,17.74,17.74,0,0,1,6.932-3.131,21.092,21.092,0,0,1,2.763-.344,34.564,34.564,0,0,1,10.152.81c1.082.245,2.2.338,3.3.489.243.034.509-.031.667.233" transform="translate(0 -1.171)" fill="#deeafa"/>
    <path id="Path_17925" data-name="Path 17925" d="M20.887,98.144a27.592,27.592,0,0,1,4.136-9.528,2.26,2.26,0,0,0,.609-1.235c.939-.489,1.362-1.463,2.043-2.192a31.476,31.476,0,0,1,13.12-8.628,1.8,1.8,0,0,1,.713-.139c1.155-.187,1.382-.021,1.425,1.134a1.2,1.2,0,0,0,.554,1.077,14.976,14.976,0,0,0,1.67,2.469,10.555,10.555,0,0,0,7.792,3.468c.81-.013,1.621-.007,2.432,0,.471-.054.994.18,1.4-.251a12.4,12.4,0,0,1,2.249-1.283,10.45,10.45,0,0,0,4.2-5.047.982.982,0,0,0,.215-.684c-.031-.694.36-.9.972-.852a31.848,31.848,0,0,1,10.842,6.3c.507.444,1.032.869,1.549,1.3,1.111,1.535,2.471,2.865,3.529,4.453a28.151,28.151,0,0,1,4.391,10.607,3.63,3.63,0,0,0,.179.527c-.04.425-.419.427-.691.515A81.768,81.768,0,0,1,67.962,103.6a104.821,104.821,0,0,1-13.453.668,100.317,100.317,0,0,1-31.775-5.272,4.563,4.563,0,0,1-1.847-.847" transform="translate(-4.533 -16.573)" fill="#365997"/>
    <path id="Path_17926" data-name="Path 17926" d="M51.62,55.242a15.633,15.633,0,0,1-5.331-7.194c-.121-.3-.1-.716-.671-.729a4.022,4.022,0,0,1-4.092-4.864c.171-1.163.893-2.145,1.928-2.061,1.36.111,1.2-.63,1.3-1.5.413-3.658,1.355-7.113,4.128-9.783a13.42,13.42,0,0,1,4.176-2.621.55.55,0,0,1,.729.123c4.836,4.876,10.677,5.453,16.977,3.872.794-.2.905-.057,1.013.68a27.789,27.789,0,0,1-.349,8.289c-.091.59-.065.822.611.875a2.115,2.115,0,0,1,1.877,1.715A4.544,4.544,0,0,1,71.944,47a1.953,1.953,0,0,1-1.422.36c-.922-.24-1.139.324-1.418.985a14.327,14.327,0,0,1-5.248,6.888,2.218,2.218,0,0,1-1.192,1,12.287,12.287,0,0,1-10.234-.243,2.417,2.417,0,0,1-.81-.749" transform="translate(-9 -5.731)" fill="#fae4e2"/>
    <path id="Path_17927" data-name="Path 17927" d="M61.457,82.659c-1.766,0-3.535.232-5.279-.347a11.554,11.554,0,0,1-5.535-3.627,6.65,6.65,0,0,1-1.2-2.012c-.648-.73-.491-1.687-.705-2.538a.406.406,0,0,1,.243-.457c3.1-.85,3.984-2.58,4.222-5.723.035-.466.041-.934.062-1.4.338-.229.586.038.855.163,3.3,1.531,6.63,1.864,10.011.22.9-.439,1.12-.258,1.255.92.171,2.87,1.276,5.121,4.129,6.207a3.558,3.558,0,0,1-.136,1.872,8.819,8.819,0,0,1-3.961,4.977c-.806.5-1.649.895-2.476,1.334-.392.508-1.064.011-1.486.413" transform="translate(-10.576 -14.426)" fill="#fae4e2"/>
    <path id="Path_17928" data-name="Path 17928" d="M66.625,67.154c-.348-1.1-.334-1.072-1.463-.5A10.632,10.632,0,0,1,59,67.443,11.571,11.571,0,0,1,54.5,65.851q-.035-1.308-.071-2.617a11.935,11.935,0,0,0,11.047.712,8.29,8.29,0,0,0,1.189-.719q-.022,1.962-.044,3.926" transform="translate(-11.815 -13.723)" fill="#fae4e2"/>
    <path id="Path_17929" data-name="Path 17929" d="M48.458,75.678a4.05,4.05,0,0,0,.395,2.372,1.682,1.682,0,0,1,.069.623.941.941,0,0,1-.713-1.116c.165-.942-.24-1.293-1.162-1.144a4.5,4.5,0,0,1-.734,0,8.783,8.783,0,0,1,2.145-.737" transform="translate(-10.052 -16.426)" fill="#668ca0"/>
    <path id="Path_17930" data-name="Path 17930" d="M75.1,78.043a5.9,5.9,0,0,1,.136-1.872l.939.239c-.51.092-.8.331-.73.914.035.278.106.644-.345.719" transform="translate(-16.293 -16.533)" fill="#7d9797"/>
    <path id="Path_17931" data-name="Path 17931" d="M64.985,87.035c.364-.61,1-.254,1.486-.413-.29.875-1,.242-1.486.413" transform="translate(-14.105 -18.801)" fill="#77969d"/>
    <path id="Path_17932" data-name="Path 17932" d="M51.709,34.99a4.283,4.283,0,0,1,2.581.918c.333.266.571.615.325,1.052-.216.385-.617.309-.919.182a3.814,3.814,0,0,0-3.663.24.791.791,0,0,1-1.109-.077c-.353-.442-.068-.843.212-1.171a3.4,3.4,0,0,1,2.573-1.145" transform="translate(-10.583 -7.594)" fill="#373b5d"/>
    <path id="Path_17933" data-name="Path 17933" d="M71.546,34.967a3.251,3.251,0,0,1,2.3,1.2c.252.305.474.7.151,1.1a.757.757,0,0,1-1.028.1,4.015,4.015,0,0,0-3.83-.258c-.3.127-.637.16-.814-.193a.77.77,0,0,1,.242-1,4.287,4.287,0,0,1,2.976-.951" transform="translate(-14.81 -7.589)" fill="#373b5d"/>
    <path id="Path_17934" data-name="Path 17934" d="M71.869,42.2a1.5,1.5,0,0,1-1.359,1.682,1.532,1.532,0,0,1-1.326-1.639,1.674,1.674,0,0,1,1.282-1.714c.726-.045,1.387.742,1.4,1.671" transform="translate(-15.016 -8.797)" fill="#373b5d"/>
    <path id="Path_17935" data-name="Path 17935" d="M54.63,42.319a1.385,1.385,0,1,1-1.356-1.69,1.506,1.506,0,0,1,1.356,1.69" transform="translate(-11.272 -8.818)" fill="#373b5d"/>
    <path id="Path_17936" data-name="Path 17936" d="M61.894,49.245c-.212-.06-.629.139-.618-.3.009-.35.377-.233.605-.254,1.238-.113,1.444-.512.887-1.607a7.9,7.9,0,0,1-.8-3.707c0-.213,0-.485.318-.453.247.025.229.265.229.444a8.573,8.573,0,0,0,.92,3.762c.59,1.244-.116,2.141-1.543,2.118" transform="translate(-13.3 -9.315)" fill="#373b5d"/>
    <path id="Path_17937" data-name="Path 17937" d="M53.558,31.645a1.565,1.565,0,0,1-1.7-1.593,1.848,1.848,0,0,1,1.69-1.791A1.741,1.741,0,0,1,55.2,29.967a1.706,1.706,0,0,1-1.643,1.678" transform="translate(-11.256 -6.134)" fill="#c7653f"/>
    <path id="Path_17938" data-name="Path 17938" d="M64.077,57.333c-.146.354-.381.285-.579.1-1.494-1.391-3.025-.947-4.566-.108-.243.132-.554.4-.736.1-.193-.322.217-.456.442-.585,1.51-.865,3.058-1.273,4.684-.305a1.631,1.631,0,0,1,.754.8" transform="translate(-12.62 -12.149)" fill="#373b5d"/>
    <path id="Path_17939" data-name="Path 17939" d="M72.265,52.557a1.222,1.222,0,0,1-1.171,1.293,1.434,1.434,0,0,1-1.267-1.273,1.41,1.41,0,0,1,1.189-1.329,1.216,1.216,0,0,1,1.25,1.309" transform="translate(-15.156 -11.123)" fill="#c46f45"/>
    <path id="Path_17940" data-name="Path 17940" d="M80.25,48.228a2.11,2.11,0,0,1-1.078,1.66c-.415.3-.765.507-.114.9.182.109.313.276.171.45-.192.236-.356.046-.539-.1-.674-.521-.727-1.06-.054-1.6.561-.447,1.221-.785,1.084-1.678-.021-.139.1-.337.285-.276.308.1.227.4.245.64" transform="translate(-16.964 -10.326)" fill="#c47f51"/>
    <path id="Path_17941" data-name="Path 17941" d="M43.99,47.742c.146-.005.263.071.243.207-.143.951.64,1.245,1.184,1.722a.866.866,0,0,1-.252,1.577c-.161.074-.349.223-.476-.016-.083-.157.028-.3.174-.382.838-.5.275-.8-.172-1.081a1.748,1.748,0,0,1-.975-1.484.514.514,0,0,1,.275-.543" transform="translate(-9.488 -10.362)" fill="#c47d55"/>
    <path id="Path_17942" data-name="Path 17942" d="M64.206,63.562a1.094,1.094,0,0,1-1.055-1.142,1.015,1.015,0,0,1,1.129-1.082,1.03,1.03,0,0,1,1.049,1.171,1.042,1.042,0,0,1-1.123,1.053" transform="translate(-13.707 -13.313)" fill="#c37a4c"/>
    <path id="Path_17943" data-name="Path 17943" d="M55.91,53.062a1.052,1.052,0,0,1-1.146-1.128,1.079,1.079,0,0,1,1.095-1.07.979.979,0,0,1,1.087,1.03,1.06,1.06,0,0,1-1.035,1.167" transform="translate(-11.886 -11.04)" fill="#c0734a"/>
    <path id="Path_17944" data-name="Path 17944" d="M50.2,50.906c-.009.623-.226.986-.743,1a.864.864,0,0,1-.875-.9.823.823,0,0,1,.918-.91c.573,0,.565.54.7.8" transform="translate(-10.543 -10.874)" fill="#d1895e"/>
    <path id="Path_17945" data-name="Path 17945" d="M76.273,49.481c-.125.47-.3.857-.855.832a.737.737,0,0,1-.8-.816.794.794,0,0,1,.813-.84c.474.01.728.393.844.824" transform="translate(-16.195 -10.561)" fill="#ce875e"/>
    <path id="Path_17946" data-name="Path 17946" d="M71.46,57.674a.584.584,0,0,1,.66-.691.749.749,0,0,1,.842.792.791.791,0,0,1-.814.85c-.477,0-.684-.367-.688-.951" transform="translate(-15.51 -12.368)" fill="#c78256"/>
    <path id="Path_17947" data-name="Path 17947" d="M53.355,59.214c-.508.066-.746-.247-.77-.7a.692.692,0,0,1,.765-.827.729.729,0,0,1,.82.709.717.717,0,0,1-.815.815" transform="translate(-11.413 -12.521)" fill="#c78057"/>
    <path id="Path_17948" data-name="Path 17948" d="M59.214,32.332c-.917-.017-1.21-.376-1.135-1.013.045-.4.246-.735.73-.669.669.092.839.526.732,1.257-.227-.458-.2-1.015-.768-1a.537.537,0,0,0-.482.5c-.058.521.4.628.924.922" transform="translate(-12.603 -6.651)" fill="#c78157"/>
    <path id="Path_17949" data-name="Path 17949" d="M68.757,80.068A1.488,1.488,0,0,1,67.331,81.7a1.652,1.652,0,0,1-1.559-1.577,1.513,1.513,0,0,1,1.593-1.585,1.4,1.4,0,0,1,1.391,1.526" transform="translate(-14.276 -17.047)" fill="#cb683f"/>
    <path id="Path_17950" data-name="Path 17950" d="M54.136,78.764c-.022.792-.435,1.212-1.1,1.206-.64-.007-.978-.437-.992-1.117a.981.981,0,0,1,1.083-1.115.969.969,0,0,1,1.013,1.026" transform="translate(-11.295 -16.873)" fill="#c1774d"/>
    <path id="Path_17951" data-name="Path 17951" d="M57.694,81.259a1.143,1.143,0,0,1,1.16,1.156,1,1,0,0,1-.994,1.118,1.187,1.187,0,0,1-1.195-1.178c.032-.668.534-.919,1.03-1.1" transform="translate(-12.299 -17.637)" fill="#c4744d"/>
    <path id="Path_17952" data-name="Path 17952" d="M67.29,73.618A1.045,1.045,0,0,1,66.2,74.6a.977.977,0,0,1-1.083-1.026A1.182,1.182,0,0,1,66.322,72.4a1.112,1.112,0,0,1,.969,1.215" transform="translate(-14.133 -15.715)" fill="#c67549"/>
    <path id="Path_17953" data-name="Path 17953" d="M70.181,76.219c-.6-.317-.44-.769-.139-1.157a.678.678,0,0,1,.989-.168.883.883,0,0,1,.206,1.171c-.214.463-.644.521-1.059.151.155-.23.605-.21.539-.687-.491.006-.3.527-.536.69" transform="translate(-15.144 -16.224)" fill="#c87f58"/>
    <path id="Path_17954" data-name="Path 17954" d="M54.809,30.179a1.127,1.127,0,1,1-2.243-.064,1.043,1.043,0,0,1,1.135-1.18,1.138,1.138,0,0,1,1.108,1.244" transform="translate(-11.409 -6.28)" fill="#fad5b0"/>
    <path id="Path_17955" data-name="Path 17955" d="M71.22,53.574a.87.87,0,0,1-.826-.881.831.831,0,0,1,.821-.949c.522-.007.77.359.806.854.041.575-.308.841-.8.976" transform="translate(-15.279 -11.231)" fill="#facdad"/>
    <path id="Path_17956" data-name="Path 17956" d="M65.1,62.536c-.114.438-.309.757-.752.741a.677.677,0,0,1-.713-.782.685.685,0,0,1,.8-.7c.434.047.576.4.66.736" transform="translate(-13.81 -13.412)" fill="#f9caa3"/>
    <path id="Path_17957" data-name="Path 17957" d="M55.954,51.285a.7.7,0,0,1,.718.687.737.737,0,0,1-.712.893c-.469.023-.715-.332-.749-.774-.038-.5.316-.688.743-.8" transform="translate(-11.983 -11.131)" fill="#facba3"/>
    <path id="Path_17958" data-name="Path 17958" d="M49.434,50.548a.492.492,0,0,1,.482.505c.012.319-.116.57-.465.571a.451.451,0,0,1-.459-.488.518.518,0,0,1,.442-.588" transform="translate(-10.633 -10.971)" fill="#fcc8a3"/>
    <path id="Path_17959" data-name="Path 17959" d="M76.012,49.571c0,.359-.138.6-.471.608s-.476-.237-.472-.553a.473.473,0,1,1,.943-.056" transform="translate(-16.293 -10.659)" fill="#f6bb99"/>
    <path id="Path_17960" data-name="Path 17960" d="M72.795,57.777c-.067.276-.152.544-.492.572a.479.479,0,0,1-.564-.466c-.034-.3.06-.569.395-.62.371-.056.532.216.661.514" transform="translate(-15.569 -12.427)" fill="#f6be9a"/>
    <path id="Path_17961" data-name="Path 17961" d="M53.359,57.977c.4.022.565.218.572.542a.479.479,0,0,1-.495.55c-.37.025-.508-.23-.53-.518-.025-.327.245-.464.453-.574" transform="translate(-11.483 -12.584)" fill="#fbc4a8"/>
    <path id="Path_17962" data-name="Path 17962" d="M66.421,80.141a1.085,1.085,0,0,1,1.033-1.074,1.148,1.148,0,0,1,1.013,1.243c-.1.618-.455,1.062-1.135,1s-.875-.6-.911-1.163" transform="translate(-14.416 -17.161)" fill="#f5d5ae"/>
    <path id="Path_17963" data-name="Path 17963" d="M53.134,78.11c.4.167.75.343.7.857a.725.725,0,1,1-1.448-.048.873.873,0,0,1,.746-.81" transform="translate(-11.371 -16.954)" fill="#facbad"/>
    <path id="Path_17964" data-name="Path 17964" d="M58.615,82.239c.009.775-.3,1.037-.745,1.05a.7.7,0,0,1-.708-.73.748.748,0,0,1,1.453-.32" transform="translate(-12.406 -17.74)" fill="#fac6a9"/>
    <path id="Path_17965" data-name="Path 17965" d="M67,73.583c-.062.422-.193.853-.684.852a.784.784,0,0,1-.8-.85c-.01-.516.386-.716.793-.734.427-.02.64.311.693.733" transform="translate(-14.22 -15.812)" fill="#f9ceaa"/>
    <path id="Path_17966" data-name="Path 17966" d="M70.261,76.32a.528.528,0,0,0-.015-.182c-.227-.467-.081-.791.4-.912a.408.408,0,0,1,.512.4c.07.547-.229.716-.718.684a1.609,1.609,0,0,0-.185.007l0,0" transform="translate(-15.224 -16.324)" fill="#fdc49e"/>
    <path id="Path_17967" data-name="Path 17967" d="M53.946,30.794c-.31-.031-.421-.2-.42-.435s.088-.418.366-.417.373.176.372.414a.407.407,0,0,1-.319.437" transform="translate(-11.618 -6.499)" fill="#b47b6a"/>
    <path id="Path_17968" data-name="Path 17968" d="M67.605,80.035c.236-.012.329.126.333.337s-.06.373-.3.379a.336.336,0,0,1-.359-.338c-.022-.218.119-.33.322-.377" transform="translate(-14.603 -17.371)" fill="#ba6d68"/>
  </g>
</svg>
