<svg xmlns="http://www.w3.org/2000/svg" xmlns:xlink="http://www.w3.org/1999/xlink" width="194.952" height="201.324" viewBox="0 0 194.952 201.324">
  <defs>
    <clipPath id="clip-path">
      <rect id="Rectangle_1895" data-name="Rectangle 1895" width="194.952" height="201.324" fill="none"/>
    </clipPath>
  </defs>
  <g id="Group_1289" data-name="Group 1289" transform="translate(0 0)">
    <g id="Group_1114" data-name="Group 1114" transform="translate(0 0)" clip-path="url(#clip-path)">
      <path id="Path_15827" data-name="Path 15827" d="M49.306,68.89c-1.326-4.467-.6-6.457,3.19-8.755a6.582,6.582,0,0,1,7.731,1.016c2,1.8,1.488,4.159,1.65,6.383,1.274,2.227-.942,3.176-1.7,4.662-2.962,2.526-6.032,2.548-9.2.4-.771-1.134-1.883-2.122-1.672-3.7" transform="translate(84.991 103.507)" fill="#eae9ef"/>
      <path id="Path_15828" data-name="Path 15828" d="M60.353,58.363c-2.649-4.95.156-10.7,6.781-9.955,4.088.458,6.117,3.591,5.128,8.629.986,1.485-.1,2.391-.947,3.363-3.133,2.842-6.476,3.152-10.04.837-.568-.873-1.455-1.647-.922-2.874" transform="translate(103.614 84.378)" fill="#e9e8ee"/>
      <path id="Path_15829" data-name="Path 15829" d="M48.814,16.442c-.146-.634-.313-1.266-.431-1.905-.741-3.97,1.024-7.248,4.266-7.943,4.327-.931,7.311.785,8.494,4.945a13.617,13.617,0,0,1,.25,2.259c.835,3.05-1.084,4.659-3.223,6.158-3.358,1.6-6.468,1.57-9.131-1.386a2.827,2.827,0,0,1-.225-2.128" transform="translate(84.155 11.079)" fill="#eaeaef"/>
      <path id="Path_15830" data-name="Path 15830" d="M6.972,59.822c-1.581-2.828-1.8-5.746.461-8.173a6.835,6.835,0,0,1,7.805-1.694c3.432,1.282,3.737,4.2,3.756,7.251,1.109,2.581-.59,3.931-2.306,5.277a6.956,6.956,0,0,1-7.026.747c-1.06-1-2.888-1.408-2.691-3.407" transform="translate(10.052 86.243)" fill="#e7e8ef"/>
      <path id="Path_15831" data-name="Path 15831" d="M60.578,29.421c-1.425-5.9-.445-8.239,3.7-10.01,2.866-1.227,4.931.016,6.746,1.787,1.6,1.557,2.548,3.55,1.483,5.93a17.748,17.748,0,0,0-.675,2.18A2.828,2.828,0,0,1,70.7,32.183c-2.43,1.466-4.964,2.078-7.709.933-.98-1.115-2.63-1.8-2.416-3.7" transform="translate(104.661 33.022)" fill="#e8e9ee"/>
      <path id="Path_15832" data-name="Path 15832" d="M17.759,16.632c-.178-.736-.362-1.469-.53-2.207-.92-4.06,1.106-7.468,4.84-8.14,4.168-.752,7.281,1.389,8.058,5.57a12.3,12.3,0,0,1,.082,1.625c.64,1.51-.335,2.663-.862,3.918-2.548,2.82-5.463,4.255-9.241,2.465-.964-.942-2.331-1.6-2.347-3.231" transform="translate(29.687 10.71)" fill="#e8eaef"/>
      <path id="Path_15833" data-name="Path 15833" d="M6.892,28.812c-2.751-5.068-1.636-9.334,2.778-10.636,4.914-1.45,8.434,1.139,8.533,6.284.011.546.011,1.09.016,1.636.944,2.438-1.255,3.333-2.339,4.777-2.339,2.372-4.917,1.334-7.484.533a2.508,2.508,0,0,1-1.5-2.594" transform="translate(9.421 31.028)" fill="#e7e9ee"/>
      <path id="Path_15834" data-name="Path 15834" d="M19.786,72.171c-1.257-2.943-2.375-5.8.195-8.752a6.432,6.432,0,0,1,7.871-1.993c2.968,1.189,3.473,3.879,3.4,6.729-.016.648-.151,1.29-.231,1.936a5.226,5.226,0,0,1-4.714,5.178c-3.374.645-5.219-.233-6.52-3.1" transform="translate(32.165 106.183)" fill="#e8e9ee"/>
      <path id="Path_15835" data-name="Path 15835" d="M43.83,1.841c3.19,2.185,2.6,5.938,3,8.892.557,4.093.887,8.393-.865,12.6-1.579,3.8-2.726,5.167-6.161,4.9-3.05-.239-5.927-2.847-5.656-6.155.324-3.934.247-7.866.5-11.789a2.531,2.531,0,0,1,1.194-1.878c.653-.121.966.266,1.183.8.7,3.846-.574,7.874,1.041,11.638.126,1.584.318,3.38,2.446,3.047A3.333,3.333,0,0,0,43.4,20.422c.011-.653-.261-1.279-.294-1.941-.06-3.366.36-6.784-1.1-10,.763-2.169-.346-4.857,1.823-6.638" transform="translate(59.579 3.214)" fill="#8db8c8"/>
      <path id="Path_15836" data-name="Path 15836" d="M87.923,36.578c.884,1.6,1.968,3.078,1.96,5.082-.011,4.143-1.148,5.6-5.117,6.748-6.235,1.8-12.5,2.312-18.595-.151-5.323-2.15-8.1-6.652-4.025-12.324A2.166,2.166,0,0,1,63.189,37.7c-.717,5.365,2.328,8.412,7.75,7.967,3.462-.28,6.932-.511,10.38-.9,5.587-.634,5.708-1.881,5.584-5.7a7.435,7.435,0,0,1,.088-1.3,1.753,1.753,0,0,1,.931-1.181" transform="translate(105.069 62.719)" fill="#93c2d3"/>
      <path id="Path_15837" data-name="Path 15837" d="M34.082,56.359c3.377.448,4.648-.593,4.634-3.816-.041-10.144.047-20.3-1.612-30.353,3.218.03,2.949,3.24,4.437,4.851.673,3.229-.881,6.537.346,9.746,0,5.408.08,10.817-.052,16.223a3.927,3.927,0,0,0,1.592,3.566A2.022,2.022,0,0,1,42,57.812a28.2,28.2,0,0,0-5.183.851c-1.235-.384-3.045-.093-2.74-2.3" transform="translate(59.427 38.731)" fill="#365997"/>
      <path id="Path_15838" data-name="Path 15838" d="M27.59,38.24c1.859,5.6-.036,8.4-5.735,9.337-6.575,1.082-12.838.826-18.463-3.091-3.92-2.732-4.154-4.055-2.169-8.209a.748.748,0,0,1,.964-.027,2.686,2.686,0,0,1,.76,1.872c.59,2.839,2.35,4.173,5.23,4.456,3.446.338,6.814,1.17,10.342,1.024,3.429-.143,6.224-.909,7.555-4.445a1.241,1.241,0,0,1,1.515-.917" transform="translate(-0.001 62.987)" fill="#94c2d5"/>
      <path id="Path_15839" data-name="Path 15839" d="M58.039,51.085a53.006,53.006,0,0,1-11.833-6.619c-1.771-1.37-3.528-1.34-5.535-.706-3.627,1.148-7.63.113-9.247-3.306-2.13-4.513-6.331-6.754-9.477-10.117-.714-.766-1.559-1.194-.95-2.372,2.3.11,3.986,1.65,5.969,2.509a3.071,3.071,0,0,1,.719.541c1.617,1.79,3.426,3.391,5.076,5.148a11.65,11.65,0,0,0,3.72,4.192c1.175.294,2.432.859,3.531.195,2.383-1.439,4.341-.574,6.416.692,3.635,2.213,7.726,3.624,11.07,6.38,1.318,1.087,2,2.048.541,3.462" transform="translate(36.285 48.813)" fill="#7abacf"/>
      <path id="Path_15840" data-name="Path 15840" d="M42.743,5.055c-.505,2.243.958,4.788-1.046,6.8-2.056,1.417-4.137,2.317-6.345.277l-.6-.511c.022-2.076.036-4.154.069-6.229.058-3.7,1.466-5.6,4.244-5.373,3.039.247,3.984,2.238,3.673,5.038" transform="translate(60.666 0)" fill="#e0d8d1"/>
      <path id="Path_15841" data-name="Path 15841" d="M44.126,63.3c3.424,2.287,2.71,6.139,2.3,8.994a135.032,135.032,0,0,0-.774,13.735c-.143,3.338-2,5.115-4.9,4.774-3.564-.415-6.693-3.72-6.109-6.476a1.716,1.716,0,0,1,1.686-1.318,2.883,2.883,0,0,1,2.583,2.369c0,1.452.769,1.889,2.065,1.483,1.636-.511.406-1.518.349-2.323.442-3.569,1.373-7.086.975-10.732a9.15,9.15,0,0,1,.3-1.565,15.839,15.839,0,0,0,.782-5.642c-.03-1.139-.22-2.364.747-3.3" transform="translate(60.343 110.482)" fill="#8db9c7"/>
      <path id="Path_15842" data-name="Path 15842" d="M42.328,68.146c1.057,3.838.879,7.517-1.384,10.935-.741,1.749-1.826,1.889-3.2.678-.546-.972-1.93-1.23-2.133-2.5-1.079-2.935-.434-5.974-.524-8.969a2,2,0,0,1,.763-1c2.3-.8,4.571-1.373,6.474.848" transform="translate(61.057 116.223)" fill="#d9d3ca"/>
      <path id="Path_15843" data-name="Path 15843" d="M48.79,44.435a2.7,2.7,0,0,0-1.628-3.426C43,38.873,38.906,36.6,34.821,34.324a2.548,2.548,0,0,0-2.99.176,4.6,4.6,0,0,1-5.743-.247c2.789-1.277,5.348-3.8,8.774-1.623,4.722,1.675,8.881,4.4,13.112,7,.8,1.17,2.106,1.238,3.311,1.526.771.566.774,1.477,1.021,2.279.3.961.64,1.914,1.916,1.672A1.817,1.817,0,0,0,55.7,42.964a6.914,6.914,0,0,1,.113-2.537q.754-.292,1.5-.582c3.207,2.4,2.023,5.041.428,7.7-2.454,2.46-4.22,2.468-7.108.041q-.927-1.577-1.848-3.154" transform="translate(45.535 55.463)" fill="#365997"/>
      <path id="Path_15844" data-name="Path 15844" d="M26.348,39.817c-2.221,5.395-4.115,6.372-10.194,6.7-4.022.22-7.728-1.076-11.555-1.655C2.509,44.548.813,42.431.711,39.817a4.144,4.144,0,0,1,5.181-.184c.557.747-.014,2.221,1.763,2.224,3.805,0,7.561.826,11.4.7,2.183-.071,3.253-.837,3.487-2.924.491-1.318.5-2.789,1.282-4.014a1.248,1.248,0,0,1,.821-.437q.852,2.314,1.7,4.634" transform="translate(1.241 61.41)" fill="#75a6b6"/>
      <path id="Path_15845" data-name="Path 15845" d="M37,12.319c2.46-.917,1.746,1.224,1.721,2.065a69.876,69.876,0,0,0,1.364,14.9c.412,2.232,1.639,4.3,1.321,6.674-.36,1.944.387,4.914-3.41,3.682a2.5,2.5,0,0,1-.868-1.483c.08-3.229-2.438-6.092-1.348-9.483.126-.4.055-.857.36-1.208l-.033.008A56.66,56.66,0,0,0,37,12.319" transform="translate(61.975 21.112)" fill="#365997"/>
      <path id="Path_15846" data-name="Path 15846" d="M21.647,27.936c5.021,1.4,9.738,3.723,15.182,3.849,3.432.082,5.263,3.025,5.3,6.669a6.131,6.131,0,0,1-2.806-.826c-1.919-.928-3.791-1.655-5.944-.64a2.444,2.444,0,0,1-2.712-.681c-1.8-1.584-3.253-3.55-5.279-4.9l.016.016c-1.142-1.279-3.3-1.472-3.756-3.489" transform="translate(37.783 48.761)" fill="#365997"/>
      <path id="Path_15847" data-name="Path 15847" d="M61.02,38.894c-.038-.623-.074-1.246-.113-1.867.231-.483.458-.964.689-1.444,4.1-.678,8.129.025,12.165.673a2.464,2.464,0,0,1,.89.782,6.155,6.155,0,0,1,.176,4.148,2.454,2.454,0,0,1-.736.961c-3.506,1.255-7.064.939-10.633.338-1.952-.42-2.04-2.111-2.438-3.591" transform="translate(106.308 61.625)" fill="#365997"/>
      <path id="Path_15848" data-name="Path 15848" d="M66.318,34.538c2.795-.022,5.59-.06,8.382-.058,1.8,0,3.157.634,3.456,2.63a1.953,1.953,0,0,1-1.581,2.183c-3.1.972-6.254,2.012-9.4.077-.25-.3-.491-.6-.73-.9l-.148-.025a2.548,2.548,0,0,1,.022-3.9" transform="translate(114.144 60.183)" fill="#ebe6e1"/>
      <path id="Path_15849" data-name="Path 15849" d="M25.068,31.094a3.717,3.717,0,0,0,2.822.115c3-1.318,6.325-.283,8.662,2.523.159.288.321.582.486.873-1.491-.041-3-.236-4.2,1.01-1.34,1.381-3.056.316-4.568.615-1.82-.818-2.471-2.545-3.262-4.165a.711.711,0,0,1,.063-.972" transform="translate(43.361 53.484)" fill="#365997"/>
      <path id="Path_15850" data-name="Path 15850" d="M58.312,14.209a10.909,10.909,0,0,0,3.407-5.148c2.751,3.185.585,5.743-1.2,8.192a6.3,6.3,0,0,1-7.275,2.312A7.428,7.428,0,0,1,48.033,12.7c.03-.689.557-.865,1.106-1a1.411,1.411,0,0,1,.62,1.37c.9,2.723,3.264,3.391,5.639,3.542,1.279.082,2.918-.434,2.913-2.41" transform="translate(83.829 15.816)" fill="#8dbccc"/>
      <path id="Path_15851" data-name="Path 15851" d="M.476,36.986c1.268-2.773,3.377-3.58,6.32-2.976a36.51,36.51,0,0,0,5.159.349,2.991,2.991,0,0,1,.393,3.278,3.127,3.127,0,0,1-1.172,1.255c-2.515.922-5.181.711-7.781.922-1.765.143-3.273-.519-2.918-2.828" transform="translate(0.74 59.033)" fill="#ece6e2"/>
      <path id="Path_15852" data-name="Path 15852" d="M73.716,34.544q-.012,1.952-.022,3.9c-4.222-.1-8.519.483-12.536-1.417A2.946,2.946,0,0,1,64.381,34.5c3.111-.06,6.221.022,9.334.047" transform="translate(106.746 60.176)" fill="#365997"/>
      <path id="Path_15853" data-name="Path 15853" d="M18.994,66.287c4,3.456,8.041,2.71,11.234-2.081,3.072.568.769,2.43.56,3.36-.659,2.968-4.173,4.607-7.932,3.877-2.737-.533-4.437-2.043-3.863-5.156" transform="translate(32.958 112.067)" fill="#7cafbf"/>
      <path id="Path_15854" data-name="Path 15854" d="M70.542,54.274c.541-.813,1.367-1.463,1.45-2.537.813-.277,1.686-.955,1.562.832-.535,7.654-5.914,9.1-11.693,6.762-2.081-.843-3.039-4.851-1.779-6.268.428.675,1.45.991,1.244,2.051,3.039,3.528,7.078,3.16,9.216-.84" transform="translate(103.882 89.677)" fill="#8dbbcb"/>
      <path id="Path_15855" data-name="Path 15855" d="M4.465,37.4q.218-1.655.434-3.308a42.378,42.378,0,0,1,9.134.387,4.53,4.53,0,0,1,4.06,2.811,4.124,4.124,0,0,1-.519-.038c-3.986,2.831-8.209,2.114-12.47.837a1.949,1.949,0,0,1-.64-.689" transform="translate(7.793 59.307)" fill="#365997"/>
      <path id="Path_15856" data-name="Path 15856" d="M17.721,11.963c.884.664,2.054,1,2.474,2.194.571,2.059,2.3,2.1,3.8,1.787,2.166-.453,4.417-1.109,4.78-3.907q.7-1.61,1.395-3.226c1.963,4.623,1.052,7.643-2.88,9.549-2.943,1.425-7.63.189-9.345-2.518-.769-1.219-1.494-2.509-.225-3.879" transform="translate(29.726 15.379)" fill="#8bbaca"/>
      <path id="Path_15857" data-name="Path 15857" d="M70.747,25.127q.684-.98,1.364-1.963c.78-.181,2.141-1.9,1.872.706-.409,3.975-3.415,6.584-7.569,6.564-2.863-.014-6.174-3.067-6.6-6.152-.093-.673.489-.884,1.046-1.008q1.252,1.334,2.507,2.663c2.185,2.529,5.31,2.185,7.382-.81" transform="translate(104.38 39.166)" fill="#7fb1c0"/>
      <path id="Path_15858" data-name="Path 15858" d="M15.7,56.678a7.858,7.858,0,0,0,2.877-4.428c2.578,2.443.972,4.848-.5,6.773a6.569,6.569,0,0,1-10.364-.192c-2.032-2.559-2.032-2.559-1.164-3.964Q7.922,56.139,9.3,57.409c2.625,2.1,4.873,1.842,6.4-.73" transform="translate(10.474 91.199)" fill="#85b8c8"/>
      <path id="Path_15859" data-name="Path 15859" d="M36.352,75.757c-.22.124-.442.244-.659.368-1.683-3.649-1-7.448-.382-11.124.286-1.691,1.988-2.737,3.945-2.883,2.5-.187,3.706,1.4,4.761,3.267-.162,3.231.8,6.5-.332,9.7-1.974-1.381-1.282-3.5-1.419-5.356-.113-1.5-.1-2.85-2.243-2.71-1.8.118-3.13.346-3.075,2.7.041,2.01.574,4.129-.6,6.04" transform="translate(60.454 108.396)" fill="#365997"/>
      <path id="Path_15860" data-name="Path 15860" d="M15.132,24.681c1.019-1.216,2.24-2.292,2.743-3.874,2.858,1.9.884,4.272.019,5.842-1.51,2.748-4.544,2.976-7.509,2.737-2.432-.192-3.495-1.875-4.516-3.742-.566-1.035-.209-1.628.678-2.125.412.62,1.428.717,1.452,1.675q4.88,4.1,7.133-.513" transform="translate(9.769 36.317)" fill="#84b6c8"/>
      <path id="Path_15861" data-name="Path 15861" d="M49.22,63.994q.918,1.371,1.839,2.745c.637,2.306,2.57,2.564,4.415,2.443,1.749-.113,3.835-.162,4.184-2.669.272-1.535,2.015-2.257,2.133-3.877.362-.154.955-.793,1.041-.412.6,2.671.327,5.263-1.713,7.289-2.553,2.534-6.367,3.165-9.041,1.3-2.268-1.584-4.286-3.555-2.858-6.82" transform="translate(85.077 108.402)" fill="#8ebbcb"/>
      <path id="Path_15862" data-name="Path 15862" d="M37.167,24.112c2.745.508,2.454-1.911,3.2-3.325.135.4.469.859.371,1.189C39.05,27.609,39.16,33.493,38.3,39.239c-1.985-1.757-.829-4.107-1.142-6.174a31.339,31.339,0,0,1-.148-3.6c-.335-1.8-1.96-3.629.154-5.356" transform="translate(63.011 36.283)" fill="#365997"/>
      <path id="Path_15863" data-name="Path 15863" d="M66.217,36.775c3.9.939,7.77,1.568,11.215-1.337q.288.679.579,1.359c-1.941,3.16-7.429,5.29-10.691,4.058-2.144-.81-1.488-2.515-1.1-4.08" transform="translate(114.871 61.855)" fill="#dcd1c8"/>
      <path id="Path_15864" data-name="Path 15864" d="M.735,34.974c.3,1.395,1.17,2.183,2.556,1.785,2.658-.76,5.367-.143,8.028-.513,1.167,1.721.118,2.861-1.321,3.141-2.913.568-5.936.964-8.577-1.084-.225-.027-.453-.055-.678-.085C.8,37.135-.332,36.058.735,34.974" transform="translate(0.481 61.045)" fill="#d8d0c5"/>
      <path id="Path_15865" data-name="Path 15865" d="M66.278,35.944c-.316,2.611.876,3.432,3.418,3.3a14.089,14.089,0,0,0,8.376-3.281c.038.214.074.428.11.645-.019.431-.041.859-.06,1.29-.771,2.4-2.765,3.176-4.934,3.745-2.581.184-5.274.835-7.259-1.639q-.074-2.022-.151-4.044a.818.818,0,0,1,.5-.019" transform="translate(114.81 62.686)" fill="#b9b3af"/>
      <path id="Path_15866" data-name="Path 15866" d="M39.468,24.593q-.078,2.677-.154,5.356c-1.579-1.31-1.565-3.767-3.489-4.826-.736-1.4-1.417-2.809-.8-4.45,2.243-.445,4-.088,4.308,2.63l.14,1.29" transform="translate(60.71 35.802)" fill="#365997"/>
      <path id="Path_15867" data-name="Path 15867" d="M39.178,28.222c-.53-2.369-3.64-.5-4.31-2.63q1.194-3.949,2.386-7.9c.03,2.174-.437,4.3,1.617,6.18.777.708.242,2.855.307,4.349" transform="translate(60.859 30.882)" fill="#365997"/>
      <path id="Path_15868" data-name="Path 15868" d="M35.03,37.559a6.729,6.729,0,0,0,7.108-.038c1.013,3.014-1.738,2.213-2.885,2.54-2,.568-3.92.189-4.222-2.5" transform="translate(61.142 65.49)" fill="#80aebf"/>
      <path id="Path_15869" data-name="Path 15869" d="M36.618,12.177a30.315,30.315,0,0,1-.892,15.152q.445-7.573.892-15.152" transform="translate(62.357 21.255)" fill="#365997"/>
      <path id="Path_15870" data-name="Path 15870" d="M23.773,28.879c1,1.43,3.047,1.741,3.756,3.489a27.692,27.692,0,0,1-5.9-3.407c-.351-.456-.7-.911-1.2-1.565,1.587,0,2.323,1.049,3.344,1.483" transform="translate(35.657 47.818)" fill="#365997"/>
      <path id="Path_15871" data-name="Path 15871" d="M58.4,63.72c.6-.022,1.749-.1,1.208.728a6.76,6.76,0,0,1-5.244,3.264,4.668,4.668,0,0,1-4.892-2.9c-.091-.2.211-.574.329-.865,2.916,1.861,5.779,1.6,8.6-.225" transform="translate(86.328 111.197)" fill="#6fa2b2"/>
      <path id="Path_15872" data-name="Path 15872" d="M69.392,52.433a7.748,7.748,0,0,1,.815.431,6.167,6.167,0,0,1-5.7,3.9c-2.081.11-4.244-.648-4.327-3.487,3.253,1.708,6.353,1.735,9.216-.84" transform="translate(105.032 91.518)" fill="#649aa6"/>
      <path id="Path_15873" data-name="Path 15873" d="M57.211,11.657c.588.28,2.872-1,1.252,1.312-1.255,1.8-3.056,3.141-5.214,2.452-2.243-.717-4.522-1.905-4.59-4.9,2.551,2.633,5.507,2.216,8.552,1.134" transform="translate(84.93 18.368)" fill="#669daa"/>
      <path id="Path_15874" data-name="Path 15874" d="M14.056,53.863c.269.154.791.357.771.456-.335,1.774-1.65,2.38-3.229,2.3-1.661-.088-3.728.818-4.656-1.518-.025-.063.464-.329.711-.5,2.216.467,4.415.793,6.4-.73" transform="translate(12.116 94.014)" fill="#6a9aac"/>
      <path id="Path_15875" data-name="Path 15875" d="M68.842,23.418c.717,3.02-1.8,2.962-3.446,3.286-1.864.362-3.841.176-4.5-2.229a4.012,4.012,0,0,1,.566-.247c2.616,1.153,5.019.351,7.382-.81" transform="translate(106.286 40.875)" fill="#5a92a0"/>
      <path id="Path_15876" data-name="Path 15876" d="M27.028,9.986c.286.143.837.329.821.42-.5,3.012-2.96,3.981-5.367,4.741-1.963.62-3.564-.3-4.437-2.213-.082-.178.258-.549.4-.829,3.382,1.4,6.106.143,8.582-2.119" transform="translate(31.474 17.43)" fill="#619aab"/>
      <path id="Path_15877" data-name="Path 15877" d="M13.609,22.218c.478.417,2.1-.549,1.551.555a5.5,5.5,0,0,1-5.186,2.734c-1.655-.033-3.643-.214-3.5-2.776,2.408.247,4.906,1.749,7.133-.513" transform="translate(11.292 38.78)" fill="#6197a7"/>
      <path id="Path_15878" data-name="Path 15878" d="M35.476,4.593q3.167-.14,6.339-.275A2.463,2.463,0,0,1,43.531,7.11c-.088,2.523-.047,5.046-.058,7.569-1.7,4.626-4.058,5.461-7.256,2.57-2.191-4.1-1.642-8.371-.741-12.656" transform="translate(60.542 7.537)" fill="#365997"/>
      <path id="Path_15879" data-name="Path 15879" d="M35.244,10.662c3.242,1.472,5.532.25,7.256-2.57a12.58,12.58,0,0,1-.379,3.2c-.733,1.881-1.892,3.6-4.272,3.292-2.2-.291-2.5-2.1-2.605-3.923" transform="translate(61.516 14.124)" fill="#60899a"/>
      <path id="Path_15880" data-name="Path 15880" d="M82.079,39.208a11.708,11.708,0,0,0,4.615-2.529c.129,6.685-.384,6.993-6.91,8.039-3.459.557-6.929.368-10.383.991a7.412,7.412,0,0,1-8.31-9.1Q62.1,37.907,63.1,39.206c.524.98,1.644,1.192,2.408,1.861,1.4,1.359,3.174,1.192,4.914,1.23,3.495.071,6.853-.953,10.3-1.271.983-.091,2.023-.382,1.354-1.817" transform="translate(106.235 63.907)" fill="#7cacbc"/>
      <path id="Path_15881" data-name="Path 15881" d="M40,35.286a3.438,3.438,0,0,1,1.332,3.778,3.123,3.123,0,0,1-3.355,2.548,2.853,2.853,0,0,1-2.82-3.036,16.688,16.688,0,0,1,.313-2.561c1.186-2.257,2.951-.911,4.53-.728" transform="translate(61.354 60.604)" fill="#e6e4ea"/>
      <path id="Path_15882" data-name="Path 15882" d="M.693,37.869a16.979,16.979,0,0,0,7.72.225c1.312-.239,2.281-.73,2.174-2.281.154-.2.307-.4.461-.59.118.055.236.11.354.167,1.576,1.8,1.417,3.6.036,5.417C9.525,42,7.677,42.223,5.986,40.4c-1.642-1.076-3.495-.453-5.244-.656L.693,37.869" transform="translate(1.21 61.478)" fill="#b5b6ae"/>
      <path id="Path_15883" data-name="Path 15883" d="M28.269,33.61l-.066.972A32.122,32.122,0,0,1,23.009,29.2c2.389.714,3.665,2.751,5.26,4.409" transform="translate(40.16 50.969)" fill="#365997"/>
      <path id="Path_15884" data-name="Path 15884" d="M35.728,73.772c-1.257-2.839-.5-5.815-.582-8.73-.025-1,.439-1.8,1.612-1.406a5.4,5.4,0,0,0,4.11-.2c1.79-.777,1.732.92,1.812,1.82.244,2.6.269,5.227.382,7.841l-.755.89-6.578-.217" transform="translate(61.078 110.381)" fill="#365997"/>
      <path id="Path_15885" data-name="Path 15885" d="M36.727,71.845a4.553,4.553,0,0,0,3.2-.678c.618.28,1.653-.585,1.911.609a2.041,2.041,0,0,1-1.082,2.21c-1.1.653-2.358,1.573-3.577.582-.711-.577-2.962-1.414-.448-2.723" transform="translate(62.078 124.14)" fill="#6ea0ad"/>
      <path id="Path_15886" data-name="Path 15886" d="M4.606,41.16a16.307,16.307,0,0,1,.162-4.969c2.147.132,4.294.368,6.444.357,1.389-.005,3.111,1.156,3.973-1.378.379-1.106,1.546.357,2.339.708a6.446,6.446,0,0,1-.346,4.73C14.237,44.1,7.535,44.4,4.606,41.16" transform="translate(7.847 60.676)" fill="#365997"/>
      <path id="Path_15887" data-name="Path 15887" d="M9.242,37.444c4.231.752,8.47,1.686,12.571-.552-.546,3.006-2.391,4.03-5.37,3.989A98.418,98.418,0,0,1,3.793,39.7c-.788-.113-2.032-.272-1.949-1.348.093-1.227,1.408-.574,2.141-.865l5.257-.044" transform="translate(3.211 64.393)" fill="#528090"/>
      <path id="Path_15888" data-name="Path 15888" d="M79.92,37.83c.857.357,2.218-.491,2.592.67.255.791-.615,1.8-1.466,1.9-6.3.766-12.6,2.946-18.943.231,1.354-1.839,3.374-1.109,5.145-1.332,1.658-.211,3.553.475,4.791-1.29.1-.2.2-.4.307-.6,2.476,1.013,5.046.332,7.575.426" transform="translate(108.394 65.286)" fill="#5b8d98"/>
      <path id="Path_15889" data-name="Path 15889" d="M72.789,37.739l2.723,1.348c-4.434,1.694-8.6,1.041-12.659,1.271a3.388,3.388,0,0,1-1.159-2.8l11.094.181" transform="translate(107.646 65.555)" fill="#53697b"/>
    </g>
  </g>
</svg>
