<svg id="Group_1088" data-name="Group 1088" xmlns="http://www.w3.org/2000/svg" xmlns:xlink="http://www.w3.org/1999/xlink" width="395.349" height="263.566" viewBox="0 0 395.349 263.566">
  <defs>
    <clipPath id="clip-path">
      <rect id="Rectangle_1760" data-name="Rectangle 1760" width="395.349" height="263.566" fill="none"/>
    </clipPath>
  </defs>
  <g id="Group_755" data-name="Group 755" clip-path="url(#clip-path)">
    <path id="Path_8117" data-name="Path 8117" d="M394.537,263.293q-195.684,0-391.368.067C.62,263.36,0,262.945,0,260.267Q.138,130.382.076.5c1.114-.6,2.32-.3,3.48-.3Q197.218.171,390.887.184c4.43,0,3.962-.466,3.962,3.943q.012,127.842-.008,255.685c0,1.157.293,2.366-.3,3.48" transform="translate(0.002 0.206)" fill="none"/>
    <path id="Path_8118" data-name="Path 8118" d="M394.511,263.5q0-129.728.081-259.453c.005-3.122-1.265-3.4-3.806-3.394Q195.416.724.05.705C.19.506-.276.032.37.054c.859.027,1.717.005,2.576.005Q197.6.059,392.255,0c2.417,0,2.964.544,2.961,2.958q-.109,128.82-.1,257.642c0,.942.743,2.186-.606,2.9" transform="translate(0.028 0)" fill="#fff"/>
    <path id="Path_8119" data-name="Path 8119" d="M71,29.422c-.218-1.871-1.015-3.717-.261-5.631,1.265-3.214,4.059-4.675,7.69-4.029,3.066.544,4.829,3.284,4.866,7.555.557,2.7-1.292,4.051-3.05,5.461-3.235,1.357-6.3,1.518-8.936-1.292A2.278,2.278,0,0,1,71,29.422" transform="translate(119.121 33.177)" fill="rgba(112,82,37,0.69)"/>
    <path id="Path_8120" data-name="Path 8120" d="M82.421,71.172c-2.186-6.043.323-9.827,6.4-9.652,4.005.113,6.167,3.289,5.308,7.8.781,1.074.4,2.048-.245,3-4.121,3.749-6.215,4.048-10.382,1.494-.595-.783-1.553-1.424-1.082-2.646" transform="translate(138.111 104.06)" fill="rgba(112,82,37,0.69)"/>
    <path id="Path_8121" data-name="Path 8121" d="M72.149,82.992c-1.015-2.562-2.186-5.055-.008-7.7a7.394,7.394,0,0,1,7.994-2.468A5.374,5.374,0,0,1,83.8,78.836a12.161,12.161,0,0,0,.046,1.593c.2,2.859-1.319,4.872-4.3,5.685-3.219.877-6.045-.315-7.394-3.122" transform="translate(119.954 122.545)" fill="rgba(112,82,37,0.69)"/>
    <path id="Path_8122" data-name="Path 8122" d="M40.025,29.751c-.113-.412-.223-.826-.336-1.238-.791-2.88-.595-5.513,1.86-7.612a5.693,5.693,0,0,1,6.323-1.026c2.544,1.3,4.85,3.295,4.39,6.791.393,1.844-.482,3.235-1.623,4.535-2.4,2.269-5.093,2.972-8.191,1.561a6.731,6.731,0,0,1-2.422-3.012" transform="translate(66.437 32.688)" fill="rgba(112,82,37,0.69)"/>
    <path id="Path_8123" data-name="Path 8123" d="M42.077,84.967c-2.439-4.877-1.615-8.419,2.694-10.465a5.26,5.26,0,0,1,5.456.355,6.554,6.554,0,0,1,2.9,7.647,5.263,5.263,0,0,1-4.269,5.313c-3.222.824-5.311-.054-6.786-2.85" transform="translate(68.886 125.025)" fill="rgba(112,82,37,0.69)"/>
    <path id="Path_8124" data-name="Path 8124" d="M29.341,41.576c-2.565-3.6-2.221-7.216.91-9.539,2.509-1.863,6.831-.942,9.152,1.758,1.389,1.618.738,3.456.974,5.2.678,2.285-1.265,3.23-2.363,4.611-2.315,1.863-4.77,1.462-7.262.444-.851-.608-1.647-1.249-1.41-2.476" transform="translate(46.747 52.543)" fill="rgba(112,82,37,0.69)"/>
    <path id="Path_8125" data-name="Path 8125" d="M29.849,73.135c-1.7-2.428-2.509-5.165-.921-7.757,1.615-2.638,4.535-2.867,7.418-2.619,3.19.272,4.422,2.159,4.616,7.119q.654,4.437-3.741,5.889c-3.292,1.09-6,.124-7.372-2.632" transform="translate(47.493 106.037)" fill="rgba(112,82,37,0.69)"/>
    <path id="Path_8126" data-name="Path 8126" d="M82.781,42.3c-1.2-4.853-.719-7.176,2.03-8.829,2.062-1.238,4.177-2.011,6.527-.388,2.85,1.968,4.2,4.412,3.093,7.876.2,2.487-1.58,3.518-3.354,4.56-1.962.452-3.916,1.155-5.935.234-1.044-.972-2.727-1.515-2.361-3.453" transform="translate(138.989 54.406)" fill="rgba(112,82,37,0.69)"/>
    <path id="Path_8127" data-name="Path 8127" d="M65.709,15.081c1.227.2,1.413,1.273,1.6,2.164,1.4,6.527,2.821,13.038.336,19.673-.735,1.968-1.809,3.456-3.8,3.887a6.276,6.276,0,0,1-6.137-2.011c-1.811-2.021-1.518-14.92.178-17.283.654-.124.931.272,1.122.8.32,3.305-.167,6.632.229,9.932.789,1.289,1.731,2.56,3.429,2.073a3.691,3.691,0,0,0,2.592-3.534c-.323-2.972.07-5.973-.5-8.926-.237-2.339-1.007-4.748.953-6.772" transform="translate(95.539 25.512)" fill="#f6f1ed"/>
    <path id="Path_8128" data-name="Path 8128" d="M47.989,48.6c1.217,1.715,1.464,3.768,1.787,5.733A5.617,5.617,0,0,1,45.965,60.9C38.926,62.8,32.057,62.51,25.732,58.459c-3.76-2.409-4.046-3.626-2.342-7.924,1.235-.213,1.33.751,1.593,1.537.657,2.546,2.124,4.1,4.928,4.056,2.178-.035,4.169.867,6.234,1.354a13.544,13.544,0,0,0,8.7-1.16c1.984-.859,3.321-2.334,2.509-4.832a2.327,2.327,0,0,1,.635-2.894" transform="translate(37.877 82.209)" fill="#f6f1ed"/>
    <path id="Path_8129" data-name="Path 8129" d="M109.315,49.728c1.782,2.355,1.254,5.087,1.2,7.717a3.117,3.117,0,0,1-2.646,2.875c-6.169,1.628-12.212,3.343-18.766.947-5.259-1.922-8.686-6.086-5.141-12.174.991.447,1.039,1.354,1.117,2.248.153,4.212,2.708,6.818,7.049,7.033a47.757,47.757,0,0,0,11.429-1.1c4.28-.829,4.635-1.47,4.813-5.766a2.07,2.07,0,0,1,.942-1.782" transform="translate(139.584 83.048)" fill="#f6f1ed"/>
    <path id="Path_8130" data-name="Path 8130" d="M63.935,54.286c.008,4.665.11,9.332-.027,13.991a3.744,3.744,0,0,0,1.572,3.467,1.858,1.858,0,0,1-1.515,1.039,4.426,4.426,0,0,1-1.429-.188c-1.225-.619-2.237.256-3.351.433-1.2.188-2.929.9-2.869-1.5,2.436.6,4.447-.022,4.452-2.764.016-9.717.28-19.455-1.316-29.11-.323-1.962-1.661-3.766-.964-5.889,1.149.188,1.354,1.211,1.8,2.027.886,2.587,2.318,4.931,3.3,7.48.441,3.663-.662,7.372.353,11.017" transform="translate(95.262 57.113)" fill="rgba(112,82,37,0.85)"/>
    <path id="Path_8131" data-name="Path 8131" d="M79.969,63.787c-4.094-2.108-8.481-3.714-12.04-6.745-1.451-1.235-2.9-1.009-4.492-.56-4.5,1.268-7.582-.024-10.083-4.075a23.112,23.112,0,0,0-9.752-8.9c-1.879-.9.108-1.451.027-2.161,2.632-.956,3.836,1.615,5.79,2.331a4.622,4.622,0,0,1,.724.5c1.235,1.214,2.455,2.444,3.733,3.618A34.7,34.7,0,0,1,56.6,51.129a6.918,6.918,0,0,0,1.733,1.914,4.083,4.083,0,0,0,4.288.371,5.011,5.011,0,0,1,5.157.336c3.814,2.143,7.959,3.69,11.4,6.492,1.257,1.023,1.828,2.073.791,3.545" transform="translate(72.389 69.589)" fill="rgba(112,82,37,0.85)"/>
    <path id="Path_8132" data-name="Path 8132" d="M57.529,77.784c.4-.511.81-1.023,1.214-1.534,1.416-.519,2.853.336,4.484-.557,1.141-.624,2.665,1.214,3.295,2.789.816,2.223.724,4.568.931,6.861a3.325,3.325,0,0,1-1.593,3.241,9.583,9.583,0,0,1-7.782-.186c-2.153-3.435-1.281-7.028-.549-10.613" transform="translate(95.946 127.834)" fill="rgba(112,82,37,0.85)"/>
    <path id="Path_8133" data-name="Path 8133" d="M65.727,87.547c1.295-3.486.059-7,.129-10.5a.958.958,0,0,1-.124-1.152c3.714,2.711,3.6,7.138,2.915,10.484-.918,4.5-.2,8.9-.719,13.308-.288,2.5-1.16,4.059-3.548,4.665-2.81.711-4.915-.9-6.323-2.829-1.144-1.567-2.361-3.838.078-5.685a4.04,4.04,0,0,1,3,3.077c-.013,1.427.727,1.9,2.043,1.564a1.9,1.9,0,0,0,1.685-1.995c-.03-.743-.45-1.413-.511-2.167.223-2.961-.231-6.024,1.37-8.767" transform="translate(95.953 128.383)" fill="#f6f1ed"/>
    <path id="Path_8134" data-name="Path 8134" d="M70.88,57.677c.39-1.731-.361-2.748-1.9-3.54-3.967-2.043-7.889-4.172-11.789-6.344a2.492,2.492,0,0,0-2.9.178,4.715,4.715,0,0,1-6.123-.587c1.553-1.061,3.583-.886,5.111-2.28,1.052-.958,2.371.256,3.459.9,4.926,1.405,9.03,4.387,13.364,6.931,1.147,1.518,2.374.888,3.645.18,1.168-.649,2.363-1.114,3.354.315-.584.791-1.61,1.009-2.248,1.728a2.1,2.1,0,0,0-.293,2.627,1.42,1.42,0,0,0,1.583.794,2.087,2.087,0,0,0,1.717-2.005c.113-.953-.266-1.887-.1-2.84l1.513-.581c2.926,1.906,1.97,4.4,1.055,6.893-1.841,2.667-3.348,2.985-7.109,1.5q-1.167-1.934-2.331-3.871" transform="translate(81.478 75.7)" fill="rgba(112,82,37,0.85)"/>
    <path id="Path_8135" data-name="Path 8135" d="M57.62,24.8c-.2-.151-.412-.3-.619-.455.027-2.134-.062-4.277.113-6.4.183-2.229.3-4.63,3.6-4.541,3.179.083,3.957.859,4.1,4.506l-.016,6.813c-2.379,1.69-4.78,1.225-7.187.075" transform="translate(96.426 22.678)" fill="#dbd1c8"/>
    <path id="Path_8136" data-name="Path 8136" d="M65.18,80.249c.544,3.192-.277,6.315-.46,9.472-1.187,3.052-1.76,3.3-4.5,1.914-.853-1.052-2.188-1.7-2.632-3.1q-.052-2.911-.1-5.827a1.717,1.717,0,0,1,.2-2.5q3.747.024,7.491.043" transform="translate(96.5 135.68)" fill="#d1c8be"/>
    <path id="Path_8137" data-name="Path 8137" d="M46.919,48.931c-.011.213-.035.428-.03.641.07,2.326,1.828,4.953-.816,6.829a14.1,14.1,0,0,1-9.561,2.8c-3.235-.28-6.142-1.9-9.628-1.642-1.766.129-3.83-2.156-3.863-4.807,1.6-1.413,3.37-1.12,5.171-.522,3.478,1.577,6.912,3.346,10.877,3.286,2.261-.032,4.6-.035,5.461-2.818.643-1.354.323-2.993,1.26-4.261a.972.972,0,0,1,1.128.49" transform="translate(38.947 81.875)" fill="#f6f1ed"/>
    <path id="Path_8138" data-name="Path 8138" d="M59.791,25.641c1.577-.988,1.33.514,1.3,1.109a63.667,63.667,0,0,0,2.635,20.607c.5,1.782-.654,3.305-.689,5-.964,1.252-1.871.519-2.783-.075a3.029,3.029,0,0,1-.694-1.338c-.137-1.642-.1-3.3-1.227-4.737a3.08,3.08,0,0,1-.471-2.945q.485-4.021.972-8.043c1.343-1.7.336-3.666.616-5.488.207-1.351-.336-2.77.345-4.086" transform="translate(97.57 42.821)" fill="rgba(112,82,37,0.85)"/>
    <path id="Path_8139" data-name="Path 8139" d="M88.541,47.714c2.624-.022,5.249-.121,7.868-.04,2.046.062,3.768.705,3.8,3.23a2.052,2.052,0,0,1-.568,2.323c-2.95,3.429-10.115,2.339-11.854-1.787-.334-1.359-.463-2.681.759-3.725" transform="translate(148.109 80.594)" fill="#e2d9d2"/>
    <path id="Path_8140" data-name="Path 8140" d="M39.958,48.9a4.551,4.551,0,0,1-.218,4.369c-3.009,3.017-7.94,3.429-12.347,1.039a4.333,4.333,0,0,1-.587-4.412,2.355,2.355,0,0,1,.654-.875,5.85,5.85,0,0,1,3.685-.716,50.874,50.874,0,0,0,8.519-.178c.1.258.2.514.293.773" transform="translate(44.78 81.416)" fill="rgba(112,82,37,0.85)"/>
    <path id="Path_8141" data-name="Path 8141" d="M22.783,51.917c-.223-3.136,1.6-5.233,4.732-4.834,2.307.293,4.584.051,6.866.25a3.041,3.041,0,0,1-.638,3.9l-.2.1c-2.509,2.573-8.169,2.883-10.761.587" transform="translate(38.509 79.565)" fill="#e6dfd9"/>
    <path id="Path_8142" data-name="Path 8142" d="M46.9,41.841c3.351.95,6.611,2.11,10.2,2.218,2.85.083,4.963,1.7,5.138,4.939-.945.789-1.768.161-2.63-.2-2.07-.877-4.142-1.6-6.382-.45-1.314.676-2.161-.353-3.093-1-1.4-1.09-2.433-2.6-3.973-3.54l.016.013c-.563-.63-2-.8-1.155-2.172a2.267,2.267,0,0,1,1.873.2" transform="translate(75.728 70.255)" fill="rgba(112,82,37,0.85)"/>
    <path id="Path_8143" data-name="Path 8143" d="M29.327,68.691c4.818,3.618,9.187,2.339,11.114-3.257.8-.312,1.106-.038,1.211.824A7.191,7.191,0,0,1,36.2,74.212c-3.321.837-6.508-1-7.755-4.535-.242-.686.312-.9.886-.985" transform="translate(48.015 110.481)" fill="#f6f1ed"/>
    <path id="Path_8144" data-name="Path 8144" d="M72.088,77.971c5.486,3.946,9.057,3.163,11.693-2.562,1.83,1.914.9,5.456-1.9,7.211a7.56,7.56,0,0,1-10.753-3.612c-.369-.945-.234-1.5.961-1.036" transform="translate(120.015 127.565)" fill="#f6f1ed"/>
    <path id="Path_8145" data-name="Path 8145" d="M41.7,79.564A6.553,6.553,0,0,0,52.748,77.1c1.787,1.97,1.532,4.013-.751,6.037-3.784,3.354-9.4,2.043-10.963-2.53-.258-.762.081-.923.662-1.044" transform="translate(69.267 130.428)" fill="#f6f1ed"/>
    <path id="Path_8146" data-name="Path 8146" d="M91.5,39.29q1.619-1.93,3.241-3.86c2.04.471,1.1,1.973.993,3.09-.3,3.152-3.865,5.529-7.814,5.3-2.651-.156-6-3.6-5.935-6.134.019-.665.565-.818,1.106-.915l2.457,2.635A3.63,3.63,0,0,0,91.5,39.29" transform="translate(138.682 59.935)" fill="#f6f1ed"/>
    <path id="Path_8147" data-name="Path 8147" d="M26.842,51.045c.124-1.314-.086-2.684.638-3.9,2.77.2,5.542.39,8.309.6,1.432.11,2.783.385,3.249,2.046a4.951,4.951,0,0,1-4.861,1.567,53.533,53.533,0,0,0-7.335-.315" transform="translate(45.407 79.753)" fill="rgba(112,82,37,0.85)"/>
    <path id="Path_8148" data-name="Path 8148" d="M95.181,47.856c.108,1.295.221,2.592.331,3.887a2.409,2.409,0,0,1-.872.676,20,20,0,0,1-8.7-.013,3.882,3.882,0,0,1-2.307-3.313,2.267,2.267,0,0,1,2.352-1.335c3.066.051,6.142-.536,9.2.1" transform="translate(141.469 80.452)" fill="rgba(112,82,37,0.85)"/>
    <path id="Path_8149" data-name="Path 8149" d="M71.3,24.58c.218.441.439.883.657,1.324,1.085,2.576,3.292,3.542,5.814,3.553,1.233.005,2.931-.366,2.576-2.444a11.7,11.7,0,0,0,3.249-4.538c2.689,2.85.678,5.144-1.042,7.265a6.542,6.542,0,0,1-8.021,2.011,7.177,7.177,0,0,1-4.277-5.895c-.092-.821.3-1.168,1.044-1.276" transform="translate(118.82 38.02)" fill="#f6f1ed"/>
    <path id="Path_8150" data-name="Path 8150" d="M39.984,25.136a3.679,3.679,0,0,1,2.466,2.075c.385,1.949,2.056,2.008,3.37,1.836,1.916-.25,4.059-.606,4.43-3.184l1.97-3.811c1.5,4.078.307,7.895-2.918,9.362-2.894,1.319-7.432.092-9.074-2.533-.724-1.155-1.545-2.409-.245-3.744" transform="translate(66.479 37.303)" fill="#f6f1ed"/>
    <path id="Path_8151" data-name="Path 8151" d="M22.786,49.218c3.661,1.125,7.208.231,10.761-.589q.109,2.148.215,4.293c-1.682,1.155-3.408.455-5.125.118-1.6-1.155-3.448-.439-5.171-.67-.016-.713-.011-1.429-.705-1.89l.024-1.262" transform="translate(38.505 82.263)" fill="#b9b4aa"/>
    <path id="Path_8152" data-name="Path 8152" d="M28.878,36.588c.42.595,1.343.8,1.357,1.715,3.128,2.584,5.51,2.409,7-.514a12.362,12.362,0,0,0,2.675-3.779c1.575,1.8.934,5.464-1.279,7.319-3.171,2.662-9.02,1.13-10.546-2.678-.441-1.1-.04-1.591.789-2.062" transform="translate(47.21 57.531)" fill="#f6f1ed"/>
    <path id="Path_8153" data-name="Path 8153" d="M46.927,43.715a3.41,3.41,0,0,0,3.671.221c3.238-1.736,5.69,1.079,8.487,1.935.005.587.011,1.176.013,1.763-2.436-.563-4.848-1.058-7.184.439-.921.589-1.86.086-2.745-.3l-2.285-3.044a.6.6,0,0,1,.043-1.012" transform="translate(78.883 73.385)" fill="rgba(112,82,37,0.85)"/>
    <path id="Path_8154" data-name="Path 8154" d="M59.316,35.187c.842.156,1.682.312,2.525.466q-.7,8.111-1.408,16.225c-1.54-3.685-.937-7.6-1.262-11.418-.283-1.768-1.7-3.566.145-5.273" transform="translate(98.765 59.524)" fill="rgba(112,82,37,0.85)"/>
    <path id="Path_8155" data-name="Path 8155" d="M88.836,49.551c.336,1.809,1.558,2.977,3.254,2.778,2.974-.345,6.549.347,8.072-3.475l.589,1.279c-.024.614-.048,1.23-.07,1.844a6.607,6.607,0,0,1-4.355,2.91c-2.848.237-5.782,1-8.226-1.314-.676-1.373-.864-2.694.444-3.838a2.3,2.3,0,0,1,.291-.183" transform="translate(148.148 82.644)" fill="#a6a5a1"/>
    <path id="Path_8156" data-name="Path 8156" d="M47.574,46.205c2.393.716,3.55-2.39,6.11-1.833,1.491.323,2.813.511,3.822,1.7.075.229.151.458.229.686-1.682-.2-3.192-.63-4.452,1.408-.856,1.383-2.7-.336-4.118-.03l-1.591-1.93" transform="translate(80.478 74.948)" fill="rgba(112,82,37,0.85)"/>
    <path id="Path_8157" data-name="Path 8157" d="M82.656,65.1c.415.651,1.319.961,1.322,1.9,1.443,2.775,4.062,2.778,6.662,2.8.993-.078,1.949-.859,2.98-.167-1.093,3.052-3.706,2.673-6.07,2.533-3.1-.183-4.95-2.021-5.844-4.95-.326-1.063-.409-1.879.95-2.121" transform="translate(137.876 110.13)" fill="#f6f1ed"/>
    <path id="Path_8158" data-name="Path 8158" d="M58.8,31.979c.6,2.552,3.857,4.2,2.5,7.41a11.488,11.488,0,0,1-3.26-.587l-.921-2.021,1.68-4.8" transform="translate(96.629 54.097)" fill="rgba(112,82,37,0.85)"/>
    <path id="Path_8159" data-name="Path 8159" d="M58.679,86.661c-.07.834-.135,1.669-.2,2.5-.654-.086-1.5-.318-1.448-.969.318-3.935-1.995-8.086.934-11.806.525,3.4-.762,6.934.716,10.271" transform="translate(95.512 129.225)" fill="#f6f1ed"/>
    <path id="Path_8160" data-name="Path 8160" d="M64.466,77.124c.04.385.083.77.124,1.155-.912.573-2.339-4.358-2.988.3-.108.767-1.5.611-2.2-.038-.619-.571-.991-1.421-1.93-1.61,2.42-3.128,4.708-1.491,7,.191" transform="translate(97.219 127.15)" fill="rgba(112,82,37,0.85)"/>
    <path id="Path_8161" data-name="Path 8161" d="M87.879,70.8,85.19,72.042c-.721-1.2.019-1.919.818-2.681.743-.705,1.755-1.222,1.906-2.4q.351-1.272.708-2.544c3.122.132.8,2.221,1.1,3.321.371,1.378-.627,2.4-1.844,3.068" transform="translate(143.616 108.966)" fill="#f6f1ed"/>
    <path id="Path_8162" data-name="Path 8162" d="M57.47,51.932c2.519.213,5.063.536,7.109-1.5.447,2.667-1.591,2.888-3.308,3.122-1.464.2-3.254.579-3.8-1.623" transform="translate(97.219 85.315)" fill="#f6f1ed"/>
    <path id="Path_8163" data-name="Path 8163" d="M84.6,48.128c1.518.092,1.171,1.672,1.911,2.385a6.91,6.91,0,0,1-2.56,2.939.513.513,0,0,1-.676-.345c-.073-.794-.148-1.588-.221-2.382.417-.923.536-2.024,1.545-2.6" transform="translate(140.498 81.416)" fill="rgba(112,82,37,0.85)"/>
    <path id="Path_8164" data-name="Path 8164" d="M48.048,43.349q.743.973,1.488,1.946c-2.344-.323-3.558-2.772-5.884-3.133-.6-.277-.719-.851-.872-1.4,2.433-.509,3.887.966,5.268,2.589" transform="translate(72.369 68.777)" fill="rgba(112,82,37,0.85)"/>
    <path id="Path_8165" data-name="Path 8165" d="M48.048,43.721c-1.841-.692-3.085-2.592-5.268-2.589.964-1.375,1.933-.355,2.813.067,1.585.762,3.112,1.655,4.662,2.5l-2.207.027" transform="translate(72.369 68.405)" fill="rgba(112,82,37,0.85)"/>
    <path id="Path_8166" data-name="Path 8166" d="M59.067,25.435c-.4,3.184,1.012,6.549-.961,9.574.845-3.138-.589-6.506.961-9.574" transform="translate(98.295 43.027)" fill="#7e617e"/>
    <path id="Path_8167" data-name="Path 8167" d="M79.266,24.857c.522-.043,1.2-.31,1.537-.083.641.425.005.907-.283,1.289-1.273,1.69-2.813,3.063-5.085,2.358s-4.42-1.776-4.56-4.673c2.509,2.562,5.4,2.229,8.39,1.109" transform="translate(119.897 40.173)" fill="#f6f1ed"/>
    <path id="Path_8168" data-name="Path 8168" d="M92.6,65.359c.964,1.012.269,1.591-.528,2.218a4.871,4.871,0,0,0-2.194,2.867A8.23,8.23,0,0,1,82.494,67.8c-.643-.7-.406-1.063.431-1.233,3.569,2.358,6.713,1.3,9.676-1.209" transform="translate(138.929 110.564)" fill="#f6f1ed"/>
    <path id="Path_8169" data-name="Path 8169" d="M48.5,23.467c.288.127.834.288.824.371-.412,2.875-2.85,3.507-5.023,4.021-1.836.433-3.607-.218-3.97-2.544-.022-.143.24-.331.369-.5,2.9,1.308,5.443.5,7.8-1.349" transform="translate(68.227 39.698)" fill="#f6f1ed"/>
    <path id="Path_8170" data-name="Path 8170" d="M35.782,35.431c.474.431,2.054-.589,1.542.476a5.351,5.351,0,0,1-5.09,2.729c-1.591-.035-3.626-.121-3.456-2.692,2.374.382,4.8,1.41,7-.514" transform="translate(48.666 59.888)" fill="#f6f1ed"/>
    <path id="Path_8171" data-name="Path 8171" d="M89.773,36.978c.3.592,2.261-1.184,1.375.751-1.179,2.571-6.659,2.53-8.08.081-.275-.471.328-.646.754-.716,2.005,1.052,3.954-.705,5.951-.116" transform="translate(140.406 62.247)" fill="#f6f1ed"/>
    <path id="Path_8172" data-name="Path 8172" d="M57.736,17.687l7.187-.075c1.219,3.289.638,6.627.264,9.956a25.874,25.874,0,0,1-7.442,1.2,19.488,19.488,0,0,1-.008-11.076" transform="translate(96.309 29.793)" fill="rgba(112,82,37,0.85)"/>
    <path id="Path_8173" data-name="Path 8173" d="M57.234,22.808a7.784,7.784,0,0,1,7.442-1.2,3.927,3.927,0,0,1-3.219,3.868c-2.116.522-3.281-1.034-4.223-2.673" transform="translate(96.82 35.748)" fill="rgba(112,82,37,0.85)"/>
    <path id="Path_8174" data-name="Path 8174" d="M83.171,49.978q.283.065.573.113a2.57,2.57,0,0,1,2,1.6,3.825,3.825,0,0,0,1.693,2.234c5.292,2.3,10.524.258,15.77-.21.958-.086,1.577-.668,1.165-1.785q1.926-.929,3.852-1.86c.086,4.49-.7,5.865-5.09,6.543C98.08,57.4,92.974,59,87.795,57c-3.268-1.26-5.02-3.408-4.624-7.023" transform="translate(140.602 84.545)" fill="#f6f1ed"/>
    <path id="Path_8175" data-name="Path 8175" d="M62.176,48.309A3.493,3.493,0,0,1,63.54,50.4c.24,1.951-.458,3.426-2.366,4.008a2.675,2.675,0,0,1-3.553-1.876,3.177,3.177,0,0,1,1.723-4.269,3.744,3.744,0,0,1,2.178-.253l.654.3" transform="translate(97.054 81.127)" fill="#f6f1ed"/>
    <path id="Path_8176" data-name="Path 8176" d="M57.462,34.792a2.252,2.252,0,0,1,3.262.587c.048.409.1.816.148,1.225l-.145,5.273c-1.375-2.229-2.853-4.412-3.265-7.084" transform="translate(97.205 58.105)" fill="rgba(112,82,37,0.85)"/>
    <path id="Path_8177" data-name="Path 8177" d="M49.2,45.417c-.013.336-.03.673-.043,1.009-1.292-1.349-3.009-2.293-3.876-4.051,1.852.312,2.694,1.925,3.919,3.042" transform="translate(76.606 71.684)" fill="rgba(112,82,37,0.85)"/>
    <path id="Path_8178" data-name="Path 8178" d="M58.885,85.655c2,.538,3.281-.616,4.5-1.914C64.7,85.854,64,87.286,61.9,88.314A2.677,2.677,0,0,1,58.1,87.208c-.651-.969-.013-1.3.781-1.553" transform="translate(97.837 141.66)" fill="#f6f1ed"/>
    <path id="Path_8179" data-name="Path 8179" d="M24.945,50.654q2.564-.057,5.125-.118c4.124.754,8.25,1.663,12.255-.5-.756,2.662-2.689,3.677-5.286,3.817-4.382.237-8.255-1.405-12.094-3.2" transform="translate(42.198 84.647)" fill="#f6f1ed"/>
    <path id="Path_8180" data-name="Path 8180" d="M84.778,53.556q-.715-.917-1.429-1.836c-.005-1.779,1.252-2.315,2.662-2.705q4.841.218,9.682.444.145,1.894.285,3.782a1.447,1.447,0,0,1-.651,1c-3.585.848-7.171,1.68-10.549-.686" transform="translate(140.997 82.916)" fill="rgba(112,82,37,0.85)"/>
    <path id="Path_8181" data-name="Path 8181" d="M94,51.078a.77.77,0,0,1,.358-.493c2.635.886,5.332.266,8,.326.659.25,1.855-.258,1.943.579a1.964,1.964,0,0,1-1.715,2.032c-6.086.816-12.174,2.568-18.284.118,1.314-1.537,3.125-.926,4.751-1.09,1.744-.178,3.639.175,4.945-1.472" transform="translate(142.616 85.572)" fill="#f6f1ed"/>
    <path id="Path_8182" data-name="Path 8182" d="M94.737,50.88c.719.789,1.739,1.413-.315,2-3.12.888-6.263.269-9.38.563A3.25,3.25,0,0,1,83.9,50.7l10.842.178" transform="translate(141.88 85.77)" fill="#f6f1ed"/>
  </g>
</svg>
