<svg xmlns="http://www.w3.org/2000/svg" width="45" height="46" viewBox="0 0 45 46">
  <g id="Group_1123" data-name="Group 1123" transform="translate(-169.499 -594.764)">
    <path id="Path_16253" data-name="Path 16253" d="M121.547,137.7c.062.761.626,1.231,1.05,1.8.994,1.325,1.326,3.17.165,4.1-2.7,2.147-3.354,5.4-5.273,7.953-5.812,7.723-14.738,9.545-23.524,6.792-5.567-1.745-9.741-5.225-11.807-10.786a5.468,5.468,0,0,0-1.414-1.859c-2.953-2.814-3-4.845-.117-7.6a2.748,2.748,0,0,0,.412-.824,10.631,10.631,0,0,0,8.093-7.8c.169-.929.249-2.131,1.7-1.476,4.768,2.145,10.009,1.974,15,3.006a75.623,75.623,0,0,1,8.417,1.888c2.919.957,4.919,3.133,7.293,4.817" transform="translate(91 481.219)" fill="#fbe1c7"/>
    <path id="Path_16254" data-name="Path 16254" d="M120.664,145.248c-.384.105-.529,1.187-1.005.523-3.853-5.387-9.763-5.979-15.542-6.9-3-.478-6.015-.93-9.015-1.437-2.107-.355-4.285-.515-6.32-2.622.656,4.543-1.357,6.891-4.52,8.585A7.017,7.017,0,0,0,82,145.156c-1,1.3-1.39.64-1.824-.357-4.418-14.489,9.7-26.607,24.87-23.564,8.454,1.7,14.392,6.49,16.33,15.4.641,2.954,0,5.778-.712,8.607" transform="translate(91.877 474)" fill="#373b5d"/>
    <path id="Path_16255" data-name="Path 16255" d="M98.973,135.714c-.614,1.124-1.37,2.543-3.2,2.676-1.341.1-3.2-1.911-3-3.242a3.593,3.593,0,0,1,3.122-2.94c1.283-.271,3.159,1.815,3.082,3.505" transform="translate(105.392 485.119)" fill="#f2ece6"/>
    <path id="Path_16256" data-name="Path 16256" d="M89.946,135.176c.045,2.073-1.317,2.909-3.072,2.978-2.109.081-2.589-1.556-2.782-3.272-.251-2.249,1.469-2.356,2.922-2.478,1.858-.158,2.849.871,2.932,2.772" transform="translate(96.623 485.324)" fill="#f4f0e9"/>
    <path id="Path_16257" data-name="Path 16257" d="M87.906,139.4a8.352,8.352,0,0,0,7.906-.061,4.911,4.911,0,0,1-7.906.061" transform="translate(100.49 492.174)" fill="#f29f98"/>
    <path id="Path_16258" data-name="Path 16258" d="M0,.1C1.844-.18,2.891.046,3.459,1.805A7.418,7.418,0,0,1,0,.1" transform="matrix(0.966, -0.259, 0.259, 0.966, 200.229, 615.91)" fill="#373b5d"/>
    <path id="Path_16259" data-name="Path 16259" d="M96.958,134.312c.043,1.445-.582,2.083-1.728,2.125-1.007.036-2.192-.877-1.73-1.408.606-.693.383-2.063,1.582-2.176a1.563,1.563,0,0,1,1.876,1.459" transform="translate(106.055 485.796)" fill="#272223"/>
    <path id="Path_16260" data-name="Path 16260" d="M86.109,132.809c1.588.089,2.182.825,2.213,1.888.032,1.149-.729,1.738-1.842,1.787-1.033.043-1.971-.608-1.8-1.487a3.694,3.694,0,0,1,1.424-2.188" transform="translate(97.23 485.764)" fill="#2b2829"/>
    <path id="Path_16261" data-name="Path 16261" d="M3.122.189,0,1.512C.391.211,1.161-.315,3.122.189" transform="translate(181.654 615.116) rotate(20)" fill="#373b5d"/>
  </g>
</svg>
