<svg xmlns="http://www.w3.org/2000/svg" width="53" height="55" viewBox="0 0 53 55">
  <g id="Group_1286" data-name="Group 1286" transform="translate(-169.499 -594.764)">
    <path id="Path_16253" data-name="Path 16253" d="M129.2,139.746a4.365,4.365,0,0,0,1.237,2.17c1.171,1.6,1.561,3.826.194,4.943-3.175,2.591-3.95,6.522-6.21,9.6-6.845,9.321-17.358,11.52-27.706,8.2-6.556-2.106-11.473-6.306-13.906-13.017a6.585,6.585,0,0,0-1.666-2.243c-3.478-3.4-3.528-5.847-.137-9.177a3.35,3.35,0,0,0,.486-.994,12.665,12.665,0,0,0,9.532-9.416c.2-1.122.294-2.572,2-1.782,5.616,2.589,11.788,2.383,17.669,3.628a87.234,87.234,0,0,1,9.914,2.279c3.438,1.155,5.793,3.781,8.589,5.814" transform="translate(91 483.651)" fill="#fbe1c7"/>
    <path id="Path_16254" data-name="Path 16254" d="M128.027,149.424c-.453.123-.623,1.39-1.185.612-4.54-6.306-11.5-7-18.312-8.076-3.54-.56-7.087-1.089-10.622-1.682-2.483-.415-5.049-.6-7.447-3.069.772,5.317-1.6,8.066-5.326,10.049a8.261,8.261,0,0,0-2.665,2.059c-1.175,1.523-1.637.749-2.149-.417-5.205-16.96,11.429-31.145,29.3-27.583,9.96,1.985,16.957,7.6,19.241,18.032.756,3.458,0,6.764-.839,10.075" transform="translate(92.172 474)" fill="#373b5d"/>
    <path id="Path_16255" data-name="Path 16255" d="M100.034,136.316c-.719,1.316-1.6,2.977-3.747,3.133-1.57.114-3.745-2.237-3.515-3.795a4.205,4.205,0,0,1,3.655-3.441c1.5-.318,3.7,2.125,3.607,4.1" transform="translate(110.518 489.618)" fill="#f2ece6"/>
    <path id="Path_16256" data-name="Path 16256" d="M90.949,135.651c.052,2.426-1.542,3.406-3.6,3.486-2.469.095-3.031-1.821-3.256-3.83-.294-2.633,1.719-2.758,3.42-2.9,2.175-.185,3.335,1.02,3.432,3.245" transform="translate(98.625 489.896)" fill="#f4f0e9"/>
    <path id="Path_16257" data-name="Path 16257" d="M87.906,139.409c3.135,1.392,6.183,1.641,9.254-.071a5.749,5.749,0,0,1-9.254.071" transform="translate(103.878 499.406)" fill="#f29f98"/>
    <path id="Path_16258" data-name="Path 16258" d="M0,.118C2.158-.211,3.384.054,4.049,2.113A8.683,8.683,0,0,1,0,.118" transform="matrix(0.966, -0.259, 0.259, 0.966, 205.713, 620.056)" fill="#373b5d"/>
    <path id="Path_16259" data-name="Path 16259" d="M97.565,134.563c.05,1.691-.681,2.438-2.023,2.488-1.179.043-2.566-1.027-2.025-1.648.709-.811.448-2.414,1.852-2.547a1.83,1.83,0,0,1,2.2,1.708" transform="translate(111.398 490.518)" fill="#272223"/>
    <path id="Path_16260" data-name="Path 16260" d="M86.356,132.809c1.859.1,2.554.965,2.59,2.21.038,1.345-.854,2.035-2.156,2.092-1.21.05-2.308-.712-2.1-1.741a4.325,4.325,0,0,1,1.667-2.561" transform="translate(99.441 490.474)" fill="#2b2829"/>
    <path id="Path_16261" data-name="Path 16261" d="M3.655.221,0,1.77C.458.247,1.359-.369,3.655.221" transform="translate(183.818 619.128) rotate(20)" fill="#373b5d"/>
  </g>
</svg>
