<svg xmlns="http://www.w3.org/2000/svg" xmlns:xlink="http://www.w3.org/1999/xlink" width="86.004" height="86.004" viewBox="0 0 86.004 86.004">
  <defs>
    <clipPath id="clip-path">
      <rect id="Rectangle_1863" data-name="Rectangle 1863" width="86.004" height="86.004" fill="none"/>
    </clipPath>
  </defs>
  <g id="Group_1096" data-name="Group 1096" transform="translate(594 353)">
    <g id="Group_998" data-name="Group 998" transform="translate(-594 -353)" clip-path="url(#clip-path)">
      <g id="Group_997" data-name="Group 997">
        <g id="Group_996" data-name="Group 996" clip-path="url(#clip-path)">
          <g id="Group_995" data-name="Group 995">
            <g id="Group_994" data-name="Group 994" clip-path="url(#clip-path)">
              <path id="Path_11752" data-name="Path 11752" d="M73.73,119.1H57.456c-.225-.523.114-.84.445-1.13a3.913,3.913,0,0,1,1.726-.724,9.375,9.375,0,0,0,1.281-.35c.693-.28.738-.577.147-1.017-.448-.334-.92-.632-1.34-1.009a6.233,6.233,0,0,1-2.042-4.589,29.494,29.494,0,0,1,1.562-9.617A15.918,15.918,0,0,1,61.1,96.7a3.693,3.693,0,0,1,.631-.748,25.433,25.433,0,0,0,3.585-4.014,1.413,1.413,0,0,1,.333-.358c.329-.234.565-.189.664.232a.994.994,0,0,1,.02.419A12,12,0,0,0,66.365,96a6.323,6.323,0,0,0,3.685,5.4,4.4,4.4,0,0,0,2.135.282,8.906,8.906,0,0,0,5.266-2.207,1.542,1.542,0,0,1,1.64-.423c.637.211.964-.094.936-.752a6.686,6.686,0,0,1,.584-2.361,26.248,26.248,0,0,0,.837-5.164c0-.117.026-.231.022-.218a10.908,10.908,0,0,1-.506,3.253c-.438,1.322-.877,1.6-2.175,1.172A26.428,26.428,0,0,1,75.3,93.338a.75.75,0,0,1-.42-.933c.323-1.382.625-2.768.891-4.163.443-2.321.614-4.677.974-7.008.057-.368.055-.762.482-.937a8.359,8.359,0,0,1,2.944,3.1,14.248,14.248,0,0,1,1.916,8.865,30.53,30.53,0,0,1-1.1,5.544,17.1,17.1,0,0,0-.381,3.117,4.317,4.317,0,0,1-.124,1.244,3.206,3.206,0,0,0-.274,1.553c-.328,2.713-.743,5.414-1.175,8.11-.475,2.968-2.656,4.5-5.847,4.207-1.56-.145-3.1-.4-4.657-.591a3.153,3.153,0,0,0-1.593.108c-.215.086-.475.176-.5.442-.023.312.248.439.49.521.886.3,1.8.514,2.706.729a20.514,20.514,0,0,1,3.528,1.146c.3.131.707.22.564.717" transform="translate(-23.783 -33.279)" fill="rgba(112,82,37,0.5)"/>
              <path id="Path_11753" data-name="Path 11753" d="M47.012,98.939a3.59,3.59,0,0,1-3.681-3.549,7.77,7.77,0,0,1,1.49-4.269c.128-.21.363-.377.243-.675.04-.206.2-.263.375-.311,1.122.1,1.267.191,1.434,1a6.808,6.808,0,0,1,1.3-.775c1.158-.691,2.354-1.311,3.561-1.91,1.8-.887,3.632-1.7,5.346-2.75a2.9,2.9,0,0,0,.9-.772c.436-.741.927-1.445,1.413-2.152a4.649,4.649,0,0,1,3.243-1.818c.709-.129,1.432-.137,2.14-.272.093,0-.024-.011.069-.008.568.016,1.218-.155,1.491.584a1.924,1.924,0,0,1-.709,1.861c-.413.3-.855.569-1.3.833a3.767,3.767,0,0,0-1.321,1.322,5.759,5.759,0,0,1-1.78,2.033,3.032,3.032,0,0,0-.987,1.248,21.355,21.355,0,0,1-4.473,6.033A18,18,0,0,1,48.987,98.6c-.639.207-1.337.1-1.974.34" transform="translate(-17.958 -33.435)" fill="#f4928b"/>
              <path id="Path_11754" data-name="Path 11754" d="M58.9,53.076a2.738,2.738,0,0,1-2.768-2.523,3.455,3.455,0,0,1,1.859-3.58.6.6,0,0,0,.417-.54c.314-1.464.943-1.931,2.452-1.8.327.029.376-.151.494-.352a3.253,3.253,0,0,1,2.348-1.6,2.038,2.038,0,0,1,1.984.788c.211.254.323.249.592.042a2.923,2.923,0,0,1,4.66.753,7.984,7.984,0,0,1,.675,1.22A1.647,1.647,0,0,0,72.646,46.6c1.232.432,1.269,2.8.091,3.621-.357.248-.362.409-.214.756a7.018,7.018,0,0,1,.063,4.462c-.046.2-.1.407-.149.61a2.237,2.237,0,0,1-.2,1.057,16.384,16.384,0,0,1-.8,1.864c-.266.495-.423.5-.885.08a2.424,2.424,0,0,1,.186-2.624,3.662,3.662,0,0,0-.334-4.012c-.229-.268-.491-.541-.887-.446-.376.091-.44.447-.522.764a6.827,6.827,0,0,0-.092,1.6,4.162,4.162,0,0,1-.043.837c-.142.625-.5.737-1.043.34a5.364,5.364,0,0,1-.242-1.71A1.618,1.618,0,0,0,66.4,52.256a3.513,3.513,0,0,1-1.671-1.081c-.207.125-.162.344-.255.494A3.306,3.306,0,0,1,63.2,53.288a2.014,2.014,0,0,1-2.561-.173.6.6,0,0,0-.744-.121c-.313.138-.643.307-.994.081" transform="translate(-23.252 -17.679)" fill="#705225"/>
              <path id="Path_11755" data-name="Path 11755" d="M83.975,64.493a3.289,3.289,0,0,1,1.478.724,1.118,1.118,0,0,1,.427,1.358,14.347,14.347,0,0,1-1.617,3.692,4.228,4.228,0,0,0-.579,2.853c-.02,1.166-.247,2.309-.372,3.463-.265,2.45-.493,4.909-.971,7.327-.211,1.068-.377,2.141-.566,3.211-.022.09,0-.024-.019.067-.357,1.366-.314,1.457.993,1.9a3.5,3.5,0,0,1,1.426.683,1.3,1.3,0,0,1,.441,1.729,3.162,3.162,0,0,1-.42.877,5.515,5.515,0,0,1-7.59.448,6.961,6.961,0,0,1-2.2-5.063,7.433,7.433,0,0,1,.153-3.058,20.554,20.554,0,0,0,.775-2.741,5.827,5.827,0,0,1,.892-1.72,15.208,15.208,0,0,0,1.354-2.514,2.9,2.9,0,0,1,1.066-1.259,5.536,5.536,0,0,0,1.908-.082,2.651,2.651,0,0,0,1.736-2.01,3.016,3.016,0,0,0-1.03-2.635c-.471-.316-.8-.834-1.47-.867-.317-.016-.285-.374-.128-.552a2.01,2.01,0,0,0,.275-2.408,3.243,3.243,0,0,1-.009-1.933,2.105,2.105,0,0,1,2.644-1.733,3.7,3.7,0,0,0,1.406.237" transform="translate(-30.803 -26.612)" fill="#f4928b"/>
              <path id="Path_11756" data-name="Path 11756" d="M114.848,110.435a7.123,7.123,0,0,1,4.932.3c.192.262-.037.429-.145.618-.579,1.008-.5,1.49.451,2.093a1.187,1.187,0,0,1,.595,1.161c-.02.672-.107,1.394.656,1.77.725.358,1.285-.086,1.874-.413.325-.181.618-.535,1.068-.318a7.426,7.426,0,0,1-1.245,7.182,7.734,7.734,0,0,1-10.257,1.99,7.5,7.5,0,0,1-3.827-6.567,7.9,7.9,0,0,1,2.567-6.108c.377-.234.509.026.584.316.127.5.4.646.874.444.064-.028.133-.041.2-.063.419-.14,1.068.159,1.247-.194a3.951,3.951,0,0,0,.347-1.811.692.692,0,0,1,.08-.4" transform="translate(-45.155 -45.644)" fill="#f5b87e"/>
              <path id="Path_11757" data-name="Path 11757" d="M20.275,50.213a7.861,7.861,0,0,1-7.84-7.968,7.875,7.875,0,1,1,15.746.35,7.8,7.8,0,0,1-7.905,7.618" transform="translate(-5.153 -14.291)" fill="#edae76"/>
              <path id="Path_11758" data-name="Path 11758" d="M55.749,14.905a7.869,7.869,0,1,1-15.732-.372,7.981,7.981,0,0,1,7.991-7.651,7.89,7.89,0,0,1,7.741,8.023" transform="translate(-16.585 -2.853)" fill="#f5b87e"/>
              <path id="Path_11759" data-name="Path 11759" d="M84.213,6.945a7.859,7.859,0,1,1-8.025,7.522,7.854,7.854,0,0,1,8.025-7.522" transform="translate(-31.575 -2.877)" fill="#edad75"/>
              <path id="Path_11760" data-name="Path 11760" d="M60.884,59.419a.8.8,0,0,0,.2-.036,1.652,1.652,0,0,1,2.165.273c.516.519,1.544.158,2.254-.5a5.282,5.282,0,0,0,.82-1.193A3.574,3.574,0,0,1,69.242,60.3a4.661,4.661,0,0,0,.617,1.467c.511.329.793.232.836-.326.035-.463-.015-.932,0-1.4a6.349,6.349,0,0,1,.122-1.246c.207-.853.858-1.037,1.5-.434a2.316,2.316,0,0,1,.532.724,3.846,3.846,0,0,1-.252,4.27c-.506.646-.064,1.336.073,2a1.6,1.6,0,0,1-.171.961c-.723.6-1.23,1.447-2.166,1.8-.588.224-1.2.325-1.8.508a6.071,6.071,0,0,1-3.052-.4,2.065,2.065,0,0,0-.451-.588A10.116,10.116,0,0,1,61.263,61.6a20.772,20.772,0,0,1-.379-2.178" transform="translate(-25.234 -24.022)" fill="#f4928b"/>
              <path id="Path_11761" data-name="Path 11761" d="M79.918,134.582c-.034-.354-.33-.413-.583-.524a41.176,41.176,0,0,0-5.668-1.686c-.112-.031-.229-.044-.339-.08-.464-.153-1.1-.29-1-.872.087-.535.727-.683,1.234-.726a17.372,17.372,0,0,1,3.454.348c1.832.209,3.669.64,5.479-.164a4.045,4.045,0,0,0,2.312-2.723,41.57,41.57,0,0,0,.868-5.344c.226-1.606.471-3.208.707-4.813a.418.418,0,0,1,.295-.355q0,2.288-.006,4.577c.141.474-.042.973.105,1.447a22.506,22.506,0,0,0,.348,4.178c.228,1.535.429,3.079.713,4.608.1.55.15,1.11.225,1.664.045.33-.016.5-.429.5-2.57-.027-5.14-.025-7.71-.032" transform="translate(-29.971 -48.758)" fill="#b8a487"/>
              <path id="Path_11762" data-name="Path 11762" d="M119.215,50.714a6.637,6.637,0,0,1-3.966,2.1,7.737,7.737,0,0,1-6.954-2.025,7.85,7.85,0,0,1-2.137-7.659.454.454,0,0,1,.164.286.306.306,0,0,1,.012.138c-.368,1.112.332,1.676,1.121,2.2a6.349,6.349,0,0,0,4.2,1,3.018,3.018,0,0,1,2.837.961,7.931,7.931,0,0,0,3.777,2.3c.377.116.86.158.945.7" transform="translate(-43.876 -17.876)" fill="#f5b97e"/>
              <path id="Path_11763" data-name="Path 11763" d="M115.594,77.793a2.705,2.705,0,0,1,.412-1.111c.117-.086.088-.259.218-.344a13.181,13.181,0,0,1,5.561-2.246,15.731,15.731,0,0,1,3.831.055,8.1,8.1,0,0,1,3.613,1.58c.365.245.754.436,1.118.672a7.639,7.639,0,0,1,.266,5.9,8.553,8.553,0,0,1-4.222,2.633,26.584,26.584,0,0,1-4.768.591,5.21,5.21,0,0,1-5.2-2.446,6.4,6.4,0,0,1-.894-4.736c.021-.182-.043-.374.062-.547" transform="translate(-47.845 -30.669)" fill="#e6a26d"/>
              <path id="Path_11764" data-name="Path 11764" d="M26.886,110.3a6.918,6.918,0,0,1,4.747.587,7.58,7.58,0,0,1,4.5,7.672,7.757,7.757,0,0,1-5.836,7.072,8.563,8.563,0,0,1-5.7-.607,5.749,5.749,0,0,1-1.346-.968c.174-.18.388-.118.594-.1a7.31,7.31,0,0,0,5.706-1.744,1.984,1.984,0,0,1,1.356-.466,4.41,4.41,0,0,0,1.6-.1,2.331,2.331,0,0,0,1.4-3.346,5.033,5.033,0,0,1-.5-1.591.973.973,0,0,0-.347-.667A7.946,7.946,0,0,1,31.4,113.56a9.526,9.526,0,0,0-2.176-2.8,1.525,1.525,0,0,0-.992-.258c-.452-.035-.939.145-1.346-.2" transform="translate(-9.635 -45.638)" fill="#f5b87e"/>
              <path id="Path_11765" data-name="Path 11765" d="M46.948,88.218A53.68,53.68,0,0,1,53.165,82.5a25.085,25.085,0,0,1,6.091-3.788c.235-.1.488-.153.733-.228.389.105.311.412.274.679a6,6,0,0,1-.381,1.2,8.908,8.908,0,0,0-.384,2.968,1.279,1.279,0,0,1-.674,1.009c-1.631.944-3.207,1.983-4.865,2.881-.167.091-.338.273-.575.17-.385-.756.015-1.45.17-2.2a20.26,20.26,0,0,1-2.213,2.643,3.559,3.559,0,0,1-3.663.953c-.317-.094-.63-.2-.729-.57" transform="translate(-19.458 -32.53)" fill="#b8a487"/>
              <path id="Path_11766" data-name="Path 11766" d="M20.722,81.264l-.121.574c-.59.72-.966,1.582-1.552,2.308a4.684,4.684,0,0,1-7.231.2,5.1,5.1,0,0,0-.972-.785,1.322,1.322,0,0,1-.723-1.7c.148-.54-.049-.66-.527-.673a5.6,5.6,0,0,1-2.006-.169,4.223,4.223,0,0,1-2.28-2.684,7.118,7.118,0,0,1,2.654-4.069,4.135,4.135,0,0,1,2.423.509c.384.214.9.4.853.912a1.685,1.685,0,0,1-.866,1.209c-.229.144-.571.156-.511.546a.946.946,0,0,0,.561.739,2.456,2.456,0,0,0,3.487-1.095,1.112,1.112,0,0,1,.72-.61,2.711,2.711,0,0,1,1.382-.1,5.355,5.355,0,0,1,3.754,2.555,1.551,1.551,0,0,0,.417.556,1.465,1.465,0,0,1,.537,1.783" transform="translate(-2.2 -30.771)" fill="#e19767"/>
              <path id="Path_11767" data-name="Path 11767" d="M107.549,37.212a5.385,5.385,0,0,1,2.046-2.583,7.711,7.711,0,0,1,9.156-.394,7.189,7.189,0,0,1,3.547,6.347c-.313.207-.538-.027-.75-.181a8.464,8.464,0,0,0-3.421-1.674,3.953,3.953,0,0,1-1.63-.925,7.219,7.219,0,0,0-7.446-.967c-.484.179-.925.557-1.5.377" transform="translate(-44.575 -13.642)" fill="#f5b87e"/>
              <path id="Path_11768" data-name="Path 11768" d="M22.6,80a1.629,1.629,0,0,0-.754-1.719c-.471-.317-.572-1.053-1.045-1.454-1.214-1.032-2.5-1.849-4.216-1.452a.792.792,0,0,0-.641.546,2.765,2.765,0,0,1-4,1.025,1.145,1.145,0,0,1-.427-.919c.016-.472.369-.41.655-.547a1.691,1.691,0,0,0,.812-1.073c.088-.324-.41-.486-.693-.683-.741-.515-1.654-.416-2.45-.725a7.777,7.777,0,0,1,8.595-.935c3.023,1.655,4.248,4.252,4.292,7.558,0,.139.006.283-.128.378" transform="translate(-4.079 -29.502)" fill="#f5b87e"/>
              <path id="Path_11769" data-name="Path 11769" d="M60.23,108.276c-.321.638-.636,1.279-.963,1.913a27.518,27.518,0,0,0-1.878,6.144,22.206,22.206,0,0,0-.535,5.317,6.059,6.059,0,0,0,2.9,5.386c.155.1.313.2.466.307.248.17.585.328.536.667-.055.374-.386.547-.745.647-.735.206-1.464.439-2.2.635a1.68,1.68,0,0,0-1.366,1.4c-1.624.081-1.657.076-1.375-1.512q.738-4.147,1.19-8.332c.15-1.382.232-2.772.344-4.159.149-.521-.039-1.063.107-1.584l.035-1.362c.117-1.045.022-2.092.052-3.137.005-.089-.016-.2.077-.249a24.216,24.216,0,0,0,3.037-2.031.3.3,0,0,1,.323-.048" transform="translate(-22.766 -44.864)" fill="#b8a487"/>
              <path id="Path_11770" data-name="Path 11770" d="M17.9,89.866a5.9,5.9,0,0,1-3.168,1.746A7.692,7.692,0,0,1,8.454,90.6a7.807,7.807,0,0,1-3.605-7.1,1.552,1.552,0,0,1,.111-.392c.953,1.273,2.061,2.253,3.808,2.106.608-.052.783.259,1.031.811.756,1.69,1.457,3.473,3.59,3.919.321.067.624.2.94.28a3.554,3.554,0,0,0,2.594-.1c.291-.145.587-.419.974-.261" transform="translate(-2.009 -34.445)" fill="#f5b87e"/>
              <path id="Path_11771" data-name="Path 11771" d="M18.687,121.019a7.5,7.5,0,0,1,.108-4.57,7.336,7.336,0,0,1,2.985-3.862,13.384,13.384,0,0,1,3.746.887,2.833,2.833,0,0,1,1.16,1.08,2.388,2.388,0,0,0,1.371,1.008.836.836,0,0,1,.431.22,2.943,2.943,0,0,0,1.536.888.222.222,0,0,1,.189.308,1.433,1.433,0,0,1-1.68-.275,1.12,1.12,0,0,1-.143-.164,1,1,0,0,0-1.274-.407c-.968.279-1.014.232-1.347-.684a1.127,1.127,0,0,0-1.156-.837,5.949,5.949,0,0,1-1.87-.208,1.07,1.07,0,0,0-.871.131,8.934,8.934,0,0,0-2.135,1.564.948.948,0,0,0-.3.74,10.836,10.836,0,0,0,.724,3.124,1.905,1.905,0,0,0,1.041,1.091,1.669,1.669,0,0,1,.845.886,3.912,3.912,0,0,0,.821,1.209,1.473,1.473,0,0,0,1.658.368,1.557,1.557,0,0,0,.792-1.586,8.421,8.421,0,0,1-.189-1.1c.007-.761.44-1.06,1.142-.783a1.506,1.506,0,0,0,.595.193,1.345,1.345,0,0,1,1.476,1,.8.8,0,0,0,.978.518c.2-.43.672-.547.995-.837.236-.212.453-.417.326-.765-.117-.319-.4-.335-.688-.357a5.457,5.457,0,0,1-1.57-.162c0-.56.482-.535.82-.688a.951.951,0,0,1,.313-.012c.4.091.816.072,1.227.147.09-.4-.142-.815.145-1.158.454.011.326.485.546.683a1.251,1.251,0,0,1,.079.319,2.587,2.587,0,0,0,.121.681,1.67,1.67,0,0,1-.313,2,2.5,2.5,0,0,1-2.636.864,2.94,2.94,0,0,1-1.285-.928c-.564-.668-.947-.583-1.211.228-.087.266-.183.528-.257.8a2.083,2.083,0,0,1-3.366,1.268c-1.268-.978-2.686-1.744-3.88-2.817" transform="translate(-7.617 -46.663)" fill="#e48d5d"/>
              <path id="Path_11772" data-name="Path 11772" d="M130.75,74.824a1.354,1.354,0,0,1-1.068-.377,8.372,8.372,0,0,0-3.952-1.734,13.818,13.818,0,0,0-6.68.844,2.129,2.129,0,0,0-1.158.735c-.36.553-1.071.4-1.483.814a6.61,6.61,0,0,1,2.855-3.582,7.306,7.306,0,0,1,4.836-1.3A7.906,7.906,0,0,1,129.61,73a4.83,4.83,0,0,1,1.14,1.82" transform="translate(-48.246 -29.093)" fill="#f0b47a"/>
              <path id="Path_11773" data-name="Path 11773" d="M115.488,80.48c-.1.89-.019,1.785-.085,2.681-.091,1.232.816,2.067,1.466,2.96,1.435,1.973,3.484,2.2,5.674,1.749a10.726,10.726,0,0,1,1.508-.049,13.356,13.356,0,0,0,3.55-.861,4.234,4.234,0,0,0,1.23-.768c.533-.432,1.176-.723,1.679-1.207a7.486,7.486,0,0,1-3.094,4,7.675,7.675,0,0,1-6.091,1.052,7.569,7.569,0,0,1-5.348-4.285,7,7,0,0,1-.487-5.269" transform="translate(-47.739 -33.356)" fill="#f0b47a"/>
              <path id="Path_11774" data-name="Path 11774" d="M68.41,82.494a6.576,6.576,0,0,0-1.354,2.236,25.876,25.876,0,0,1-1.483,2.488,12.789,12.789,0,0,0-.8,2.788,1.052,1.052,0,0,1-.28.62c-.377-.71.02-1.4.057-2.1a4.7,4.7,0,0,0,.142-1.219c-1.436,1.634-2.64,3.354-4.157,4.794a28.8,28.8,0,0,1-5.809,4.715.164.164,0,0,1-.182-.03,17.526,17.526,0,0,1-3.4,1.189,9.709,9.709,0,0,1-1.522.076c.223-.531.744-.279,1.1-.353a15.482,15.482,0,0,0,4.639-1.9A19.064,19.064,0,0,0,59.813,92a17.989,17.989,0,0,0,2.868-4.407A3.175,3.175,0,0,1,63.8,86.206a3.987,3.987,0,0,0,1.468-1.637A5.632,5.632,0,0,1,67.838,82.3a1.868,1.868,0,0,0,.931-1.244c.191-.773-.059-1.095-.854-1.092-.163,0-.327,0-.491.006.067-.252-.1-.465-.121-.7a.683.683,0,0,1,.343-.75c.3.05.353.34.518.521a.755.755,0,0,0,.788.3c.83-.2.9-.129.929.781a1.033,1.033,0,0,0,.084,1.267c-.437.125-.888.212-1.061.739-.068.206-.332.238-.494.367" transform="translate(-20.565 -32.544)" fill="#ef6d63"/>
              <path id="Path_11775" data-name="Path 11775" d="M122.418,46.275c-.221.3-.1.735-.379,1.017a3.068,3.068,0,0,1-3.037.281,4.842,4.842,0,0,1-2.513-1.779,1.815,1.815,0,0,0-.5-.472c-.4-.272-.755-.651-1.308-.594-1.018-.33-2.07.03-3.11-.174a4.957,4.957,0,0,1-2.187-1.017,1.722,1.722,0,0,1,.254-2.623,5.991,5.991,0,0,1,1.747-.836.9.9,0,0,1,.2-.091,9.387,9.387,0,0,1,2.2.022.709.709,0,0,1,.309.031,1.351,1.351,0,0,0,.781.32.831.831,0,0,1,.156.13,11.331,11.331,0,0,0,4.215,2.262,5.371,5.371,0,0,1,3.117,2.527,1.093,1.093,0,0,1,.052,1" transform="translate(-45.129 -16.548)" fill="#e3623e"/>
              <path id="Path_11776" data-name="Path 11776" d="M32.447,117.988c0-.093,0-.186,0-.279a5.873,5.873,0,0,0-.565-1.252,1.47,1.47,0,0,0-.992-.817,2.2,2.2,0,0,1-1.723-1.49c-.533-1.6-1.916-2.2-3.191-2.956-.318-.189-.711-.234-.984-.51.294-.22.681-.109.99-.277a4.781,4.781,0,0,0,.839,0c1.4-.242,2.035.7,2.821,1.6.92,1.058,1.146,2.538,2.148,3.461,1.091,1,1.164,2.374,1.556,3.6a2.33,2.33,0,0,1-2.349,2.967,3.654,3.654,0,0,0-2.9.994,6.5,6.5,0,0,1-2.812,1.137,5.88,5.88,0,0,1-2.941,0,4.615,4.615,0,0,1-1.282-1.388c.126-.415.441-.427.786-.365a6,6,0,0,1,1.439.53c1.791.826,2.826.538,3.946-1.088a1.344,1.344,0,0,1,2.037-.527,2.546,2.546,0,0,0,2.858-.35,1.757,1.757,0,0,0,.685-2.085,5.009,5.009,0,0,0-.363-.9" transform="translate(-8.728 -45.743)" fill="#eda971"/>
              <path id="Path_11777" data-name="Path 11777" d="M82.588,74.041c-.181-.115-.094-.276-.093-.436a.322.322,0,0,0-.4-.351c-1.183.219-1.189.221-1.608-.757a.614.614,0,0,1,.043-.536,6.182,6.182,0,0,0,.587-1.756,4.255,4.255,0,0,0,.857-2.679c-.043-.61.247-1.183.248-1.792l.307-.891c1.15-1.624,2.605-.751,3.986-.484-.392.334-.752-.018-1.114-.077a2.137,2.137,0,0,0-2.383.72,3.123,3.123,0,0,0-.3,2.947c.36.855.417,1.429-.215,2.085a.714.714,0,0,0-.279.54,3.179,3.179,0,0,1,2.094,5.173,2.723,2.723,0,0,1-3.133.68c.185-.355.515-.59.637-1.029s.606.051.907-.1c.207-.447.373-.889-.141-1.254" transform="translate(-33.34 -26.477)" fill="#f17d78"/>
              <path id="Path_11778" data-name="Path 11778" d="M86.724,93.527c.9-4.382,1.264-8.838,1.842-13.264.037-.289-.006-.612.26-.833l.564.507a8.4,8.4,0,0,0-.533,2.85q-.333,2.867-.833,5.7c-.219,1.233-.56,2.433-.821,3.653-.064.3-.033.494.256.625a30.823,30.823,0,0,0,3.8,1.73c.88.264,1.361-.047,1.65-.926a23.92,23.92,0,0,0,.76-4.078,12.159,12.159,0,0,1-.127,3.321,19.645,19.645,0,0,1-1.121,4.507,2.665,2.665,0,0,0-.074.687.169.169,0,0,1-.18.006,3.011,3.011,0,0,0-1.19-1.438,23.56,23.56,0,0,0-3.667-2.5c-.237-.133-.511-.241-.581-.555" transform="translate(-35.943 -32.92)" fill="rgba(112,82,37,0.69)"/>
              <path id="Path_11779" data-name="Path 11779" d="M17.971,89.084a3.309,3.309,0,0,0-.926.451,3,3,0,0,1-2.146.224c-1.774-.348-3.5-.835-4.332-2.7-.3-.681-.994-1.159-.945-2.038.02-.358-.418-.509-.759-.413-1.231.345-2.06-.406-2.938-1.031-.186-.132-.31-.338-.564-.388-.556-.107-.212-.573-.327-.858a1.869,1.869,0,0,1,.159-1.1c.444.218.5.708.723,1.074a2.9,2.9,0,0,0,2.728,1.594c.4-.017.792-.011,1.188,0,.528.015.635.272.428.737-.341.762-.195,1.36.562,1.678a4.014,4.014,0,0,1,1.107.9c2.21,1.968,4.465,1.9,6.379.247a3.738,3.738,0,0,0,1.226-1.731,2.078,2.078,0,0,1,.95-.987,6.737,6.737,0,0,1-2.513,4.354" transform="translate(-2.084 -33.664)" fill="#ecac76"/>
              <path id="Path_11780" data-name="Path 11780" d="M119.323,48.875a1.591,1.591,0,0,0-.9-.5,9.122,9.122,0,0,1-4.445-2.833c-.622-.693-1.518-.494-2.308-.43a6.777,6.777,0,0,1-3.8-.772,11.1,11.1,0,0,1-1.581-1.226c-.228-.179-.156-.426-.142-.646.019-.3.087-.594.135-.891a3.43,3.43,0,0,1,1.661-2.051,7.048,7.048,0,0,1,4.676-.73,5.677,5.677,0,0,1,2.589.983,10.5,10.5,0,0,0,3.343,1.683,6.826,6.826,0,0,1,2.532,1.459,1.246,1.246,0,0,1,.526,1.154c-.334.244-.5-.033-.675-.231a6.1,6.1,0,0,0-3.3-1.885A23.4,23.4,0,0,1,115,40.379a3.8,3.8,0,0,0-1.665-.68,5.433,5.433,0,0,0-3.9.014,2.838,2.838,0,0,0-2.049,1.644,1.053,1.053,0,0,0,.038,1,3.052,3.052,0,0,0,1.734,1.453,5.791,5.791,0,0,0,2.464.424,7.911,7.911,0,0,1,2.227.144.941.941,0,0,1,.193.071c.807.406,1.135,1.315,1.891,1.789a4.709,4.709,0,0,0,2.14,1.039,2.635,2.635,0,0,1,1.941.754c-.069.416-.421.6-.7.846" transform="translate(-43.985 -16.037)" fill="#ec9865"/>
              <path id="Path_11781" data-name="Path 11781" d="M131.444,116.076c-.813.186-1.356.926-2.214,1.048a1.356,1.356,0,0,1-1.574-1.247,3.859,3.859,0,0,1,0-.7,1.094,1.094,0,0,0-.636-1.23,1.451,1.451,0,0,1-.307-2.377c.109-.126.228-.228.231-.407a6.269,6.269,0,0,1,2.419,1.541,6.627,6.627,0,0,1,2.079,3.37" transform="translate(-52.319 -46.073)" fill="#e6b3b6"/>
              <path id="Path_11782" data-name="Path 11782" d="M76.028,74.532a3.806,3.806,0,0,1-.686,2.223c-.238.417-.579.852.2,1.073-.071.285-.406.114-.488.332-1.015.242-2.068.206-3.084.507a4.016,4.016,0,0,0-2.289,1.673c-.45.671-.876,1.359-1.312,2.039-.35-.137-.175-.5-.317-.73a8.306,8.306,0,0,1,.638-3.9c.136-.308.341-.7.036-1.058a4.289,4.289,0,0,0-.278-1.748c.052-.115.053-.3.267-.189a5.13,5.13,0,0,0,2.835.448c.221-.075.494-.183.593.106.09.262-.194.392-.372.532a6.488,6.488,0,0,0-2.836,4.691,5.7,5.7,0,0,1,2.517-2.342,5.121,5.121,0,0,1,1.671-.474,1.126,1.126,0,0,0,1.1-.886,12.124,12.124,0,0,1,1.141-2.319c.122-.2.234-.419.536-.337.118.092.235.184.123.355" transform="translate(-28.199 -30.736)" fill="#ef6451"/>
              <path id="Path_11783" data-name="Path 11783" d="M31.554,123.38a2.084,2.084,0,0,1-.275,3.19,2.948,2.948,0,0,1-2.772.364c-1.359-.521-1.376-.475-2.189.734a2.989,2.989,0,0,1-3.9.89,8.812,8.812,0,0,0-1.423-.568.85.85,0,0,0-.825.177,5.3,5.3,0,0,1-1.261-2.674,16.447,16.447,0,0,1,3.113,2.028,2.85,2.85,0,0,0,2.166,1.052A1.869,1.869,0,0,0,25.954,127c.08-.36.218-.707.328-1.06.211-.682.733-.833,1.247-.327a4.205,4.205,0,0,0,1.3,1.122c1.086.447,1.835-.142,2.573-.755.534-.443.588-1.063.231-1.909a1.871,1.871,0,0,1-.074-.687" transform="translate(-7.835 -51.136)" fill="#e89965"/>
              <path id="Path_11784" data-name="Path 11784" d="M26.287,110.906a6.667,6.667,0,0,1,2.585,1.247,3.411,3.411,0,0,1,1.624,1.9,2.273,2.273,0,0,0,1.721,1.635,2.3,2.3,0,0,1,1.525,2.243c-.361-.1-.183-.525-.421-.7a2.406,2.406,0,0,1-.7-.984c-1.123-.132-1.786-1.146-2.843-1.462-.638-.191-.9-.977-1.381-1.445a1.843,1.843,0,0,0-1.076-.59c-.871-.094-1.632-.711-2.566-.519-.251.052-.289-.367-.566-.339a4.5,4.5,0,0,1,2.1-.985" transform="translate(-10.025 -45.966)" fill="#e89965"/>
              <path id="Path_11785" data-name="Path 11785" d="M46.481,92.579a3.259,3.259,0,0,0,4.2-.454,19.283,19.283,0,0,0,2.579-3.115c.076.935-.5,1.8-.307,2.732.093.162-.088.213-.131.32l-3.537,1.925a1.644,1.644,0,0,1-1.2-.076,2.25,2.25,0,0,0-1.6-.221L46.1,93.9c-.623-.659-.055-.973.385-1.324" transform="translate(-18.991 -36.891)" fill="#b8a487"/>
              <path id="Path_11786" data-name="Path 11786" d="M121.656,43.929c-.155-1.086-1.106-1.409-1.856-1.913a14.9,14.9,0,0,0-2.441-.979,11.266,11.266,0,0,1-2.192-1.3,5.279,5.279,0,0,0-2.507-.94,6.324,6.324,0,0,0-5.439,1.407c-.182.163-.482.324-.393.611.142.456-.127.517-.444.579,0-.1-.009-.191-.015-.286a3.556,3.556,0,0,1,.692-1.685c.557-.223,1.1-.481,1.672-.663,2.715-.87,5.262-.713,7.54,1.219a3.712,3.712,0,0,0,1.867.889,6.933,6.933,0,0,1,2.781,1.4,2.234,2.234,0,0,0,.889.521,4.3,4.3,0,0,1-.124,1.719.392.392,0,0,1-.029-.586" transform="translate(-44.085 -15.856)" fill="#ec9866"/>
              <path id="Path_11787" data-name="Path 11787" d="M116.667,110.651a1.538,1.538,0,0,1-.009,1.344c-.029.064-.087.138-.073.193.321,1.272-.592.985-1.263,1a1.243,1.243,0,0,0-.278.022c-.984.263-.988.266-1.315-.65-.076-.211-.233-.191-.392-.2a7.127,7.127,0,0,1,3.33-1.709" transform="translate(-46.973 -45.86)" fill="#e5b1b3"/>
              <path id="Path_11788" data-name="Path 11788" d="M126.92,45c.009.195.019.391.029.586a1.66,1.66,0,0,1-.31,1.069,2.42,2.42,0,0,0-.944-1.927,4.711,4.711,0,0,0-2.168-1.392,11.046,11.046,0,0,1-4.458-2.411c.266-.2.48,0,.706.094a26.9,26.9,0,0,1,2.474,1.388,6.288,6.288,0,0,1,.749.34,5.318,5.318,0,0,1,3.417,1.836c.156.16.226.408.5.417" transform="translate(-49.35 -16.926)" fill="#e8794e"/>
              <path id="Path_11789" data-name="Path 11789" d="M126.154,52.254c-.392.125-.514-.322-.814-.384a3.7,3.7,0,0,0-1.154-.179,10.232,10.232,0,0,1-2.482-1.514,2.27,2.27,0,0,1-.779-1.2l.037-.094a.808.808,0,0,1,.608.423,4.738,4.738,0,0,0,3.564,2.012,4.267,4.267,0,0,0,1.894-.315,3.743,3.743,0,0,1-.874,1.248" transform="translate(-50.118 -20.261)" fill="#e77c4f"/>
              <path id="Path_11795" data-name="Path 11795" d="M58.02,109.7a1.031,1.031,0,0,0,.12-.013,1.076,1.076,0,0,1,.038,1.284c-.011.878-.016,1.757-.035,2.636-.005.246.077.514-.121.73l0-4.636" transform="translate(-24.047 -45.461)" fill="#b8a487"/>
              <path id="Path_11835" data-name="Path 11835" d="M57.879,119.954a3.622,3.622,0,0,1-.106,1.584,5.234,5.234,0,0,1,.106-1.584" transform="translate(-23.939 -49.716)" fill="#b8a487"/>
              <path id="Path_11836" data-name="Path 11836" d="M96.9,126.906a2.96,2.96,0,0,1-.105-1.447,4.2,4.2,0,0,1,.105,1.447" transform="translate(-40.102 -51.998)" fill="#b8a487"/>
              <path id="Path_11838" data-name="Path 11838" d="M83.112,103.61l.138,0c.244.257.1.417-.1.639-.263.3-.59.491-.909.3-.774-.466-1.173.011-1.744.439-1.931,1.445-4.023,2.437-6.566,2.024a5.052,5.052,0,0,1-3.387-2.261c-1.536-2.135-1.56-4.557-1.352-7.025a.488.488,0,0,0,.012-.069c-.026-.285.177-.7-.135-.818-.249-.1-.419.286-.577.512a24.031,24.031,0,0,1-3.623,4.013c-.188-.242-.031-.447.093-.631a17,17,0,0,1,1.653-2.474.388.388,0,0,0,.069-.265c1.577-1.608,2.908-3.439,4.494-5.057-.046,1.271-.41,2.445-.407,3.665a11.335,11.335,0,0,0,.408,5.651c1.217,3.343,4.858,4.7,8.271,2.572a5.209,5.209,0,0,0,.708-.642c.45-.264.519-.955,1.146-1.02a1.723,1.723,0,0,0,1.805.451" transform="translate(-26.851 -38.516)" fill="rgba(112,82,37,0.69)"/>
              <path id="Path_11839" data-name="Path 11839" d="M63.968,101.568c.193.153.165.312.011.474a18.867,18.867,0,0,0-1.782,2.692.6.6,0,0,0-.045.2l-.557.57c-.943.677-1.885,1.356-2.831,2.029-.149.105-.313.211-.5.069-.012-.427-.026-.855-.038-1.284.321-.481.876-.652,1.32-.963a39.222,39.222,0,0,0,4.423-3.791" transform="translate(-24.132 -42.096)" fill="rgba(112,82,37,0.69)"/>
              <path id="Path_11840" data-name="Path 11840" d="M57.772,91.207l.131-.32L63,87.848a1.423,1.423,0,0,0,.8-.9,1.411,1.411,0,0,1,.317.73,8.976,8.976,0,0,1-2.665,1.732c-1.213.624-2.453,1.2-3.681,1.8" transform="translate(-23.944 -36.037)" fill="rgba(112,82,37,0.69)"/>
              <path id="Path_11841" data-name="Path 11841" d="M46.937,96.782c.292-.528.718-.241,1.1-.169.581.11,1.076.543,1.71.466a12.961,12.961,0,0,0-1.662.967c.132-.891.132-.891-1.146-1.264" transform="translate(-19.453 -39.983)" fill="#e87166"/>
              <path id="Path_11842" data-name="Path 11842" d="M73.711,61.092a.7.7,0,0,1-.559-.638,4.036,4.036,0,0,0-2.973-3.172c.065-.287.129-.574.215-.957a3.188,3.188,0,0,0,1.85,1.393,1.752,1.752,0,0,1,1.371,1.843c-.012.509.061,1.02.1,1.531" transform="translate(-29.086 -23.344)" fill="#ea6b69"/>
              <path id="Path_11843" data-name="Path 11843" d="M81.226,71.583l-.131-.3c-.32-.358-.662-.709-.452-1.258-.15-.345.072-.61.195-.9.232.322.407.35.574-.069.271-.679.574-1.344.863-2.015a7.468,7.468,0,0,1-.759,4.4.3.3,0,0,1-.29.141" transform="translate(-33.396 -27.787)" fill="#f7efe5"/>
              <path id="Path_11844" data-name="Path 11844" d="M80.234,98.247a1.264,1.264,0,0,1,.3-1.235,1.6,1.6,0,0,0,.254-1.066A.72.72,0,0,1,81.2,95.2a.589.589,0,0,1,.751.174c.047.05.1.115.165.125,1.118.193,1.318,1.182,1.724,1.987a2.913,2.913,0,0,1-.472,2.047,5.815,5.815,0,0,1-1.426.864c-.922.341-1.565-.187-1.707-1.322a7.123,7.123,0,0,1,0-.827" transform="translate(-33.226 -39.427)" fill="#f17b77"/>
              <path id="Path_11845" data-name="Path 11845" d="M90.178,107.542c-.372.334-.543.887-1.1,1.018.064-.173.125-.348.194-.52.509-1.264.141-1.972-1.183-2.322-.468-.124-.923-.3-1.38-.461-.324-.115-.521-.306-.346-.685.156-.338-.094-.749.186-1.067a25.339,25.339,0,0,1,4.361,2.949,1.267,1.267,0,0,1-.73,1.088" transform="translate(-35.766 -42.898)" fill="#ed6e64"/>
              <path id="Path_11846" data-name="Path 11846" d="M116.164,120.953a2.212,2.212,0,0,1,1.493.574,5.972,5.972,0,0,0,2.359.874c1.469.289,2.49,1.106,2.318,2.608a1.655,1.655,0,0,1-.867,1.48,3.56,3.56,0,0,0-1.659,1.787.991.991,0,0,1-1.83.157,2.571,2.571,0,0,0-2.684-1.158,1.413,1.413,0,0,1-1.334-2.162c.114-.228.262-.439.395-.658a.981.981,0,0,0,.033-1.217,1.191,1.191,0,0,1,.025-1.44,1.789,1.789,0,0,1,1.753-.844" transform="translate(-47.15 -50.124)" fill="#e89771"/>
              <path id="Path_11847" data-name="Path 11847" d="M20.14,46.509a.846.846,0,0,1-1.2.084.765.765,0,0,0-1.018.008.674.674,0,0,1-.834.054.806.806,0,0,1-.3-.871,1.621,1.621,0,0,1,.223-.655.643.643,0,0,0-.023-.877,1.034,1.034,0,0,1,.822-1.657c.416-.04.839-.007,1.259-.008.14,0,.28.011.419,0a2.381,2.381,0,0,1,1.8.518c.354.29.626.249.847-.155.328-.6.667-1.146,1.415-.438.128.121.284.06.379-.141.491-1.042,1.286-1.214,2.179-.382a3.77,3.77,0,0,1,.984,1.244,1.841,1.841,0,0,1-1.618,2.717c-.525.287-.888-.028-1.206-.365a1.824,1.824,0,0,0-1.422-.739,1.031,1.031,0,0,1-.723-.375c-.306-.3-.443-.294-.567.179a2.741,2.741,0,0,1-1.415,1.861" transform="translate(-6.943 -17.183)" fill="#fcd4b8"/>
              <path id="Path_11848" data-name="Path 11848" d="M21,48.233c.266-.4.638-.717.9-1.136a1.644,1.644,0,0,0,.345-1.01.419.419,0,0,1,.178-.427c.19-.111.318.028.415.147a1.523,1.523,0,0,0,1.45.617c.412-.045.633.38.851.648a1.572,1.572,0,0,0,1.19.6c.1.158.274.126.427.152a.4.4,0,0,1,.361.539c-.1.292-.338.055-.516.018a2.279,2.279,0,0,1-1.172-.365c-.3-.133-.631-.117-.673.229-.147,1.193-1.176,1.514-1.955,2.087a1.229,1.229,0,0,0-.118.305c-.025.231-.02.509-.323.5-.358,0-.193-.334-.247-.527-.183-.263.007-.454.167-.592.467-.4.407-.7-.03-1.111-.367-.348-.571-.655-.747.1a.266.266,0,0,1-.367.21c-.238-.016-.471.359-.713.01-.36.189-.72.375-.973-.147-.107-.287-.835-.017-.577-.53.186-.371.579-.1.911.025.443.166,1,.444,1.21-.341" transform="translate(-7.801 -18.907)" fill="#e49763"/>
              <path id="Path_11849" data-name="Path 11849" d="M25.613,51.81c.271-.521.809-.745,1.24-1.077a.986.986,0,0,0,.475-.854c0-.612.444-.851.986-.577l1.1.558a3.26,3.26,0,0,1-.843,1.931c-.3.425-.482.739-.183,1.227.1.166.266.427.057.64-.184.187-.426.1-.658.075-.856-.109-1.377-.805-2.074-1.191-.2-.114-.052-.483-.1-.731" transform="translate(-10.611 -20.387)" fill="#fac8a8"/>
              <path id="Path_11850" data-name="Path 11850" d="M22.26,51.011c.3-.128.26-.406.292-.656a.454.454,0,0,1,.345-.4c.207-.046.212.214.33.3.884.663.932,1.328.033,2.017-.027.021-.017.089-.024.135a.477.477,0,0,0-.091.1c-.15.317-.161.755-.679.741a.957.957,0,0,1-.836-.637.917.917,0,0,1,.224-1.136,4.38,4.38,0,0,0,.406-.467" transform="translate(-8.922 -20.701)" fill="#f8c8a7"/>
              <path id="Path_11851" data-name="Path 11851" d="M33.159,49.836c.106.028.2.023.232.065a5.129,5.129,0,0,0,.466.758c.276.3.174.51,0,.793a.5.5,0,0,0,.082.639.28.28,0,0,1-.035.473c-.163.119-.414.143-.505-.018-.167-.295-.492-.392-.67-.615-.219-.273-.475-.615-.122-1.049.243-.3.287-.744.556-1.046" transform="translate(-13.441 -20.655)" fill="#f9c7a6"/>
              <path id="Path_11852" data-name="Path 11852" d="M18.712,51.529c.293.258.653.071.973.146-.132.553-.682.8-.936,1.264a.258.258,0,0,1-.243.071.543.543,0,0,0-.862.192.3.3,0,0,1-.436.073.411.411,0,0,1-.15-.5c.276-1.067.539-1.265,1.654-1.251" transform="translate(-7.06 -21.356)" fill="#f8c7a6"/>
              <path id="Path_11853" data-name="Path 11853" d="M24.372,40.7c.006-.108.021-.293.026-.478.019-.8.237-1.084,1.08-1.069.321.005.561-.557.834-.142.2.3-.2.59-.228.913-.033.365-.176.641-.606.6-.368-.038-.357.3-.509.479-.125.147-.272.274-.482.182-.181-.078-.215-.23-.115-.483" transform="translate(-10.078 -16.105)" fill="#f9c8a6"/>
              <path id="Path_11854" data-name="Path 11854" d="M46.644,16.527a1.52,1.52,0,0,0-.944.188,2.414,2.414,0,0,1-1.613.164.973.973,0,0,1-.883-.971,7.867,7.867,0,0,1,.279-3.013c.17-.649.855-1.086,1.131-1.74a.2.2,0,0,1,.177-.083c.641.271,1.364-.134,2.009.313a2.525,2.525,0,0,1,.965,1.7c.082.369.193.588.594.4.178-.083.459-.1.467-.357.007-.237-.249-.237-.418-.292a.657.657,0,0,1-.488-.807.884.884,0,0,1,.81-.829.738.738,0,0,1,.87.421c.057.125.146.247.06.393-.165.279-.42.72.008.795.478.083,1.074.57,1.531-.066a.518.518,0,0,1,.505-.288c-.083.559,0,.977.706,1.025.285.019.41.348.576.568.268.36.6.529,1.006.247a.713.713,0,0,0,.181-1.036c-.128-.247-.441-.455-.225-.8.787.087.739.762.823,1.27a1.061,1.061,0,0,1-1.614,1.115c-.384-.2-.469-.7-.985-.82.078.614.531.944.8,1.378-.278.35-.55.266-.817-.012a.467.467,0,0,1-.083-.112,2.427,2.427,0,0,0-3.367-1.27c-.7-.074-.7-.074-.627.615a1.484,1.484,0,0,1,0,.279c-.059.908-.437,1.536-1.428,1.626" transform="translate(-17.887 -4.588)" fill="#eeaf77"/>
              <path id="Path_11855" data-name="Path 11855" d="M50.1,15.619c.391.052.68-.251,1.057-.289a2.238,2.238,0,0,1,2.321,1.278c.206.358.38.84.971.552.238.128.382.32.189.559a1.819,1.819,0,0,0-.016,2.347.8.8,0,0,1-.559,1.138,1.922,1.922,0,0,0-.727.5c-.237.213-.383.421-.014.655.174.11.16.272.037.417a.324.324,0,0,1-.439.057,5.053,5.053,0,0,0-2.959-.348c-.269-.146-.261-.405-.3-.663-.089-.556-.271-.62-.724-.291-.693.5-1,.482-1.653-.107a1.566,1.566,0,0,1-.4-1.84.989.989,0,0,1,1.148-.447c.234.037.519.419.709-.005s-.179-.557-.47-.7l-.146-.146c.024-.2.113-.442.31-.389.8.212.706-.4.836-.83a1.914,1.914,0,0,0,.126-.748c.509.042.686.248.441.663a3.931,3.931,0,0,0-.278,2.769,2,2,0,0,0,.632,1.128c1.072.96,1.5.976,2.649.059a.783.783,0,0,1,.58-.136c.551.011.786-.313.485-.737a3.484,3.484,0,0,1-.495-2.21,2.021,2.021,0,0,0-2.532-1.849c-.382.08-.742.189-.783-.388" transform="translate(-19.367 -6.347)" fill="#e19a67"/>
              <path id="Path_11856" data-name="Path 11856" d="M47.88,20.592c.212.059.494-.223.635.061a1.258,1.258,0,0,1,.015.957c-.1.288-.336.206-.518.081-.392-.269-.795-.444-1.207-.084-.5.437-.331,1-.15,1.495a1.375,1.375,0,0,0,1.151.811c.268.046.5-.223.7-.414.158-.153.244-.5.517-.331a.838.838,0,0,1,.451.744,1.1,1.1,0,0,0,.093.738.508.508,0,0,1-.518-.4c-.069-.524-.305-.414-.6-.219-.371.243-.971.225-.884.957.035.3-.344.248-.557.173a.28.28,0,0,1-.09-.506c.587-.487.185-.715-.185-1.039a1.243,1.243,0,0,1-.54-1.15.706.706,0,0,0-.119-.389c-.149-.278-.478-.571-.126-.86a1.131,1.131,0,0,1,1.284-.23c.447.231.783.307.652-.4" transform="translate(-18.977 -8.506)" fill="#eeaf77"/>
              <path id="Path_11857" data-name="Path 11857" d="M59.812,13.224c0,.28.225.45.351.666.341.585.28,1.042-.244,1.371s-.931.1-1.222-.36a1.016,1.016,0,0,0-.926-.577c-.532-.01-.6-.467-.2-1.1a2.179,2.179,0,0,0,1.3-.234c.33-.238.61.208.942.236" transform="translate(-23.754 -5.354)" fill="#dd9867"/>
              <path id="Path_11858" data-name="Path 11858" d="M90.788,16.517a12.347,12.347,0,0,1-.579,2.631,3.189,3.189,0,0,1-.959,1.145c-.858.788-1.666,1.729-3.095,1.591-.879-.085-1.751-.19-2.62-.333a1.829,1.829,0,0,1-.658-.377,5.393,5.393,0,0,1-2.452-2.629c-.032-.088-.165-.151-.262-.2-.238-.125-.6-.155-.559-.523.036-.336.377-.364.631-.468.218-.089.526-.248.318-.487-.4-.461-.1-.93-.142-1.391-.115-1.308,1-1.781,1.713-2.524.1-.108.258-.047.4-.007.342.1.61.1.346-.373-.132-.237-.006-.4.158-.548a1.354,1.354,0,0,1,1.792.118.824.824,0,0,0,1.1.285c.252-.121.5-.255.757-.365A1.74,1.74,0,0,1,87.2,11.9a7.763,7.763,0,0,1,2.346,1.566c.148.286.1.45-.184.621a9.428,9.428,0,0,0-1.008.742c-.147.116-.3.272-.163.473a.42.42,0,0,0,.492.165c.446-.127.912-.2,1.343-.364.6-.229.9-.083.9.575a6.2,6.2,0,0,1-1.7.6c-.186.055-.494.041-.423.342a.474.474,0,0,0,.613.327,1.872,1.872,0,0,0,.546-.306c.256-.15.507-.372.826-.126" transform="translate(-32.991 -4.865)" fill="#e8a06a"/>
              <path id="Path_11859" data-name="Path 11859" d="M97.063,19.3a1.381,1.381,0,0,0-.923.422c-.27.222-.591.443-.936.157-.2-.167-.535-.324-.448-.64.07-.256.375-.333.635-.348.631-.037,1.165-.474,1.814-.427.23.326-.019.57-.142.836" transform="translate(-39.266 -7.653)" fill="#d47e56"/>
              <path id="Path_11860" data-name="Path 11860" d="M75.971,72.128q.226.629.452,1.258c-.514.237-.568.8-.824,1.211a7.641,7.641,0,0,0-.758,1.707.977.977,0,0,1-.891.742,4.7,4.7,0,0,0-3.777,2.019,3.241,3.241,0,0,1-.776.959c-.2-.678-.141-.924.855-3.179A6.134,6.134,0,0,1,72.6,74.552c-.139-.269-.355-.146-.518-.193a10.977,10.977,0,0,1,1.583-.474,4.954,4.954,0,0,0,1.81-1.462c.143-.159.245-.344.5-.3" transform="translate(-28.725 -29.891)" fill="#f38470"/>
              <path id="Path_11861" data-name="Path 11861" d="M126.041,75.7a4.046,4.046,0,0,1,4.088,2.24c.632,1.364.691,3.754-1,4.973a10.828,10.828,0,0,1-3.251,1.486c-.686.215-1.334.549-2.008.806a4.389,4.389,0,0,1-3.716-.117,2.148,2.148,0,0,1-1.046-2.624,1.056,1.056,0,0,0-.111-.933,2.091,2.091,0,0,1-.023-2.237,3.784,3.784,0,0,1,1.738-1.908,9.322,9.322,0,0,1,2-.819,4.687,4.687,0,0,0,1.552-.586,2.865,2.865,0,0,1,1.774-.28" transform="translate(-49.178 -31.368)" fill="#de9464"/>
              <path id="Path_11862" data-name="Path 11862" d="M18.5,84.165c0-.045,0-.088,0-.133.294-.3.73-.385,1.03-.693.331-.34.37-.609-.032-.915a2.255,2.255,0,0,1-.718-.643,2.922,2.922,0,0,0-1.418-.158c-.156,0-.287-.043-.337-.191s.083-.194.173-.266c.6-.48,1.17-.995,1.8-1.435a1.3,1.3,0,0,1,1.95.829A2.219,2.219,0,0,0,22.7,82.23a1.056,1.056,0,0,1,.915.942,1.165,1.165,0,0,1-.911,1.115,2.158,2.158,0,0,0-1.268,1.034,2.763,2.763,0,0,1-2.766,1.2,3.021,3.021,0,0,1-2-1.148c-.2-.319-.477-.494-.86-.139a1.065,1.065,0,0,1-1.241.084.865.865,0,0,1-.423-.889c0-.544.444-.672.776-.9a.492.492,0,0,1,.6.018c.751.779,1.706.618,2.63.62.117,0,.233,0,.35,0l.05.088a.3.3,0,0,1-.126.15c-.145.093-.408.061-.4.314,0,.2.17.316.336.415a1.794,1.794,0,0,0,2.3-1.179c.011-.094.026-.2-.054-.261-.108-.085-.224-.032-.319.036a3.64,3.64,0,0,1-.929.477c-.288.1-.58.21-.85-.046" transform="translate(-5.861 -32.96)" fill="#cf7751"/>
              <path id="Path_11863" data-name="Path 11863" d="M9.721,81.029c-1.469,0-2.1-.712-2.361-2.148-.182-1.005.5-1.335,1.005-1.785a1.806,1.806,0,0,1,1.843-.279c.312.106.391.235.237.562a1.481,1.481,0,0,0,.605,2.193c.574.411.556.717-.077,1.066a2.652,2.652,0,0,1-1.253.391" transform="translate(-3.038 -31.784)" fill="#d07952"/>
              <path id="Path_11864" data-name="Path 11864" d="M19.906,83.375c.443.058.7.425,1.038.653a.518.518,0,0,1,.045.848,2.046,2.046,0,0,1-1.362.751c-.4,0-.793.005-1.189-.007-.846-.027-1.568-.536-1.572-1.1,0-.538.841-1.13,1.642-1.143.466-.008.932,0,1.4,0" transform="translate(-6.99 -34.555)" fill="#e6a17e"/>
              <path id="Path_11865" data-name="Path 11865" d="M15.017,79.728a2.583,2.583,0,0,1-.851-.08c-.768-.314-.839-.776-.238-1.307.422-.373.786-.778,1.434-.724s1.327.534,1.331,1.008a1.259,1.259,0,0,1-1.351,1.1c-.093,0-.186,0-.325,0" transform="translate(-5.606 -32.167)" fill="#fddcb8"/>
              <path id="Path_11866" data-name="Path 11866" d="M29.981,122.947c.084.017.222.026.158.145a.318.318,0,0,1-.437.1c-.435-.225-.934-.458-1.039-.971-.126-.621-.5-.721-1.011-.679a1.352,1.352,0,0,1-.849-.242c-.507-.312-.835-.109-.892.484a2.645,2.645,0,0,0,.162.959,1.651,1.651,0,0,1-1.748,2.178c-.812-.111-1.171-.7-1.548-1.268-.358-.54-.525-1.141-1.255-1.462a2.181,2.181,0,0,1-1.136-1.661,16.271,16.271,0,0,1-.534-2.655,1.036,1.036,0,0,1,.4-.864,15.293,15.293,0,0,1,2.128-1.562.959.959,0,0,1,.913-.177,6.163,6.163,0,0,0,2.07.241c.556-.005,1.231.484,1.232,1.006,0,.9.49.744,1,.543a1.369,1.369,0,0,1,1.267.087.541.541,0,0,1,.282.458c-.374.084-.72-.138-1.1-.084-.518.074-.833.355-.783.8a.815.815,0,0,0,.847.766,2.026,2.026,0,0,0,.483-.07c.788-.136,1.255.285,1.249,1.119-.238.252-.689.185-.841.564a1.7,1.7,0,0,1,.135.528,2.15,2.15,0,0,0,.847,1.716" transform="translate(-8.227 -47.757)" fill="#df7d50"/>
              <path id="Path_11867" data-name="Path 11867" d="M34.906,121.615c-.41-1-.446-1.021-1.491-.842a1.1,1.1,0,0,1-1.224-.583.885.885,0,0,1,.117-1.041c.425-.491,1-.373,1.549-.278.126.022.234.142.351.216l0,0a4.145,4.145,0,0,1,.854,1.409c.08.33.384.427.72.42.3-.006.688-.033.656.4-.029.395-.409.375-.714.364-.181-.006-.372.053-.541-.061l-.28-.007" transform="translate(-13.293 -49.232)" fill="#d3663b"/>
              <path id="Path_11868" data-name="Path 11868" d="M36.4,126.791a.969.969,0,0,1-.837-.735,2.282,2.282,0,0,1-.144-1.509,14.491,14.491,0,0,1,1.914,0c.351-.022.481.237.569.508a.686.686,0,0,1-.233.8,9.21,9.21,0,0,0-1.268.927" transform="translate(-14.649 -51.6)" fill="#e89965"/>
              <path id="Path_11869" data-name="Path 11869" d="M36.7,121.838a6.89,6.89,0,0,0,.9-.063c.133-.025.325-.144.243-.352a.283.283,0,0,0-.362-.135c-.867.266-1.1-.231-1.228-.947-.066-.383-.535-.593-.529-1.033a2.05,2.05,0,0,0,1.678.421,1.528,1.528,0,0,1,.7.984c0,.093,0,.186,0,.278-.014.3.122.606.105.883-.046.789-.425.028-.653.08a.873.873,0,0,1-.855-.115" transform="translate(-14.806 -49.448)" fill="#df7d50"/>
              <path id="Path_11870" data-name="Path 11870" d="M83.818,81.228c.293-.026.51.066.557.386a.725.725,0,0,1-.416.868c-.692-.355-.719-.6-.141-1.254" transform="translate(-34.57 -33.664)" fill="#e6353a"/>
              <path id="Path_11871" data-name="Path 11871" d="M121.237,47.584c-1.4-.19-2.668-.6-3.215-2.151-.2-.564-1.838-1.042-2.463-1.067-1.211-.049-2.464.249-3.639-.314a1.205,1.205,0,0,1-.713-1.372,1.847,1.847,0,0,1,1.285-1.219,4.521,4.521,0,0,1,3.953,1.186,1.56,1.56,0,0,0,1.2.471c.165-.02.349,0,.38.217.105.709.642.639,1.128.614,1.426-.073,2.276.861,3.105,1.794a.861.861,0,0,1,.095,1.1,1.309,1.309,0,0,1-1.121.745" transform="translate(-46.084 -17.148)" fill="#de4a2c"/>
              <path id="Path_11872" data-name="Path 11872" d="M114.656,45.076c-1.166-.176-2.356,0-3.511-.168a4.426,4.426,0,0,1-2.812-1.315,1.482,1.482,0,0,1-.317-2.026,2.415,2.415,0,0,1,2.011-1.4c.329-.107.658-.255.986,0-.416.429-1.061.415-1.513.809-.348.3-.909.356-.885,1.021.026.689.045,1.266.772,1.7a4.788,4.788,0,0,0,3.489.693,4.359,4.359,0,0,1,1.5.256c.159.1.373.163.282.427" transform="translate(-44.656 -16.588)" fill="#e77e51"/>
              <path id="Path_11873" data-name="Path 11873" d="M122.785,42.5A2.2,2.2,0,0,1,121.4,42a11.306,11.306,0,0,0-2.543-1.322c0-.044,0-.088,0-.132-.073-.106-.251-.054-.3-.2l.022-.092a2.776,2.776,0,0,1,1.919.8c.734.526,1.6.852,2.289,1.445" transform="translate(-49.136 -16.681)" fill="#e88052"/>
              <path id="Path_11874" data-name="Path 11874" d="M112.627,39.926l-.986,0a4.547,4.547,0,0,1,4.07,0v0a.314.314,0,0,1-.43,0h-.264a4.9,4.9,0,0,0-2.391,0Z" transform="translate(-46.271 -16.347)" fill="#e88052"/>
              <path id="Path_11875" data-name="Path 11875" d="M113.322,40.046c.8-.571,1.594-.237,2.391,0l-2.391,0" transform="translate(-46.967 -16.467)" fill="#e77e51"/>
              <path id="Path_11876" data-name="Path 11876" d="M119.349,48.339l-.282-.427c.515-.092.816.245,1.125.564l0,0c-.329.244-.57-.039-.842-.141Z" transform="translate(-49.348 -19.851)" fill="#e77c4f"/>
              <path id="Path_11877" data-name="Path 11877" d="M117.856,40.272l.43,0,.279.287c-.29.041-.649.252-.709-.283" transform="translate(-48.846 -16.689)" fill="#e77e51"/>
              <path id="Path_11878" data-name="Path 11878" d="M85.354,79.088c.242.118.647.239.618.466a.786.786,0,0,1-.628.747c-.336.031-.506-.246-.5-.548a.609.609,0,0,1,.513-.664" transform="translate(-35.163 -32.779)" fill="#e63c3c"/>
              <path id="Path_11879" data-name="Path 11879" d="M85.988,82.283c-.313-.016-.45-.184-.434-.458.035-.594.679-.432.955-.74.04-.045.17.159.127.18-.423.214-.025.964-.648,1.017" transform="translate(-35.458 -33.604)" fill="#e95552"/>
              <path id="Path_11880" data-name="Path 11880" d="M92.927,109.629l.73-1.088c.551.383,1.142.737,1.119,1.538a1.183,1.183,0,0,1-1.849-.45" transform="translate(-38.514 -44.986)" fill="rgba(112,82,37,0.69)"/>
              <path id="Path_11881" data-name="Path 11881" d="M119.547,48.651l.842.141a5.066,5.066,0,0,0,2.619,2.363c.223.115.491.174.607.439a4.83,4.83,0,0,1-2.191-1.067c-.762-.5-1.17-1.333-1.877-1.875" transform="translate(-49.547 -20.164)" fill="#e77e51"/>
              <path id="Path_11890" data-name="Path 11890" d="M82.468,100.884a.471.471,0,0,1-.528.5c-.242,0-.476-.015-.467-.355a.566.566,0,0,1,.525-.619c.316-.036.454.169.47.471" transform="translate(-33.767 -41.615)" fill="#e6373c"/>
              <path id="Path_11891" data-name="Path 11891" d="M84.066,99.023c-.325.167-.308.916-.916.553a.389.389,0,0,1-.152-.6c.34-.491.691-.125,1.069.044" transform="translate(-34.364 -40.921)" fill="#e5393b"/>
              <path id="Path_11892" data-name="Path 11892" d="M84.056,100.707a.325.325,0,0,1,.305.316c.023.224-.09.357-.317.343-.169-.011-.328-.092-.33-.285,0-.211.148-.32.342-.373" transform="translate(-34.696 -41.739)" fill="#e5333a"/>
              <path id="Path_11893" data-name="Path 11893" d="M81.31,99.839c-.2.007-.278-.069-.273-.2a.205.205,0,0,1,.223-.2c.115,0,.239.011.248.157.011.17-.133.2-.2.241" transform="translate(-33.586 -41.214)" fill="#e83e49"/>
              <path id="Path_11894" data-name="Path 11894" d="M121.895,125.547a1.656,1.656,0,0,1-1.041,1.58,1.229,1.229,0,0,0-.593.647c-.375.912-.91,1.077-1.515.327a2.261,2.261,0,0,0-1.96-.81c-.947-.009-1.35-.738-.839-1.524a1.358,1.358,0,0,0,.189-1.6c-.237-.4.014-.776.332-1.035.36-.292.765-.6,1.265-.383a7.618,7.618,0,0,1,1.2.681,2.384,2.384,0,0,0,1.235.384c.942.061,1.875.851,1.725,1.73" transform="translate(-47.962 -50.845)" fill="#e6b3b6"/>
              <path id="Path_11895" data-name="Path 11895" d="M25.165,49.441c-.019-.393.1-.713.539-.744a.489.489,0,0,1,.571.547c-.033.44-.432.588-.776.667-.327.074-.332-.231-.333-.47" transform="translate(-10.429 -20.182)" fill="#f7c7a4"/>
              <path id="Path_11896" data-name="Path 11896" d="M45.889,12a1.684,1.684,0,0,1,1.389,2.163c-.187.439-.06.915-.4,1.381a4.961,4.961,0,0,1-2.507,1.47c-.423.172-.87-.378-.7-.847.3-.816.127-1.68.354-2.5.174-.634,1.226-1.671,1.86-1.662" transform="translate(-18.086 -4.975)" fill="#e09a68"/>
              <path id="Path_11897" data-name="Path 11897" d="M51.861,15.734c.144.291.312.365.664.249a2.177,2.177,0,0,1,2.842,1.995c-.512-.052-.6-.527-.821-.852a1.387,1.387,0,0,0-2.483-.047,3.073,3.073,0,0,0-.3,3.16c.129.306.4.608.1.963a3.631,3.631,0,0,1-.42-4.129c.206-.38.125-.564-.283-.638-.117-.225-.236-.466-.039-.691.227-.259.49-.132.739-.009" transform="translate(-21.132 -6.462)" fill="#de9060"/>
              <path id="Path_11898" data-name="Path 11898" d="M52.478,11.831c.291.109.559.232.5.59-.042.24-.159.447-.467.389-.267-.05-.514-.139-.488-.478a.492.492,0,0,1,.459-.5" transform="translate(-21.559 -4.903)" fill="#d78759"/>
              <path id="Path_11899" data-name="Path 11899" d="M52.051,21.582a1.363,1.363,0,0,0-.2-.72,3.385,3.385,0,0,1,.409-3.822,1.6,1.6,0,0,1,2.511.172c.238.4.518.765.778,1.146a2.66,2.66,0,0,0,.587,2.22.427.427,0,0,1-.019.633c-.211.218-.452.432-.793.31-.148-.052-.215-.152-.4.015-1.3,1.158-1.641.952-2.876.045" transform="translate(-21.319 -6.843)" fill="#d07c52"/>
              <path id="Path_11900" data-name="Path 11900" d="M47.983,22.771a1.082,1.082,0,0,1,.992,1.031c-.038.334-.163.644-.589.636a1.209,1.209,0,0,1-.945-1.117c-.006-.434.211-.579.542-.549" transform="translate(-19.662 -9.436)" fill="#fadbab"/>
              <path id="Path_11901" data-name="Path 11901" d="M60.935,14.762c-.005.362-.085.607-.458.612a.913.913,0,0,1-.83-.991c-.007-.378.1-.7.515-.638.566.086.74.549.774,1.017" transform="translate(-24.721 -5.694)" fill="#fbdaad"/>
              <path id="Path_11902" data-name="Path 11902" d="M82.661,16.906c-.024-.511.323-.751.644-.965a10.063,10.063,0,0,0,1.871-1.192.463.463,0,0,1,.386-.1c.676.2,1.353.406,2.012.657.228.087.25.253,0,.465a37.385,37.385,0,0,1-3.612,2.173c-.595.409-1.32-.241-1.305-1.034" transform="translate(-34.259 -6.066)" fill="#edad75"/>
              <path id="Path_11903" data-name="Path 11903" d="M84.939,22.308a.927.927,0,0,1-.819-.831c-.076-.472.212-.757.627-.978,1.294-.691,2.572-1.411,3.853-2.125a.621.621,0,0,1,.949.24,1.6,1.6,0,0,1,.169,1.871c-.151-.106-.154-.279-.2-.434a.3.3,0,0,0-.484-.21c-1.248.731-2.558,1.347-3.8,2.083-.14.083-.17.277-.3.385" transform="translate(-34.859 -7.563)" fill="#de8d61"/>
              <path id="Path_11904" data-name="Path 11904" d="M85.489,23.2c-.154-.347.05-.513.322-.654,1.132-.587,2.273-1.156,3.372-1.811.952-.567,1.07-.471,1.086.641-1.154.929-2.613,1.295-3.852,2.075a.676.676,0,0,1-.927-.25" transform="translate(-35.41 -8.451)" fill="#d27751"/>
              <path id="Path_11905" data-name="Path 11905" d="M121.485,85.4c-1.138-.489-1.37-.927-1.007-2.045a1.473,1.473,0,0,0-.024-1.138,3.692,3.692,0,0,1-.227-2.162c.09-.589.55-.908.935-1.261a4.125,4.125,0,0,1,2.847-1.251c.645-.181,1.282-.377,1.912-.612a3.056,3.056,0,0,1,4.144,2.4,3.7,3.7,0,0,1-.817,3.445,4.291,4.291,0,0,1-1.45.936l-.419.141c-.551.183-1.127.268-1.685.42a2.428,2.428,0,0,0-1.086.579,2.107,2.107,0,0,1-1.019.543h0c-.424.125-.842.368-1.289.071.03-.063.058-.143.119-.167,1.631-.635,3.043-1.714,4.808-2.114a3.04,3.04,0,0,0,1.62-4.827,2.042,2.042,0,0,0-1.952-.874,14.213,14.213,0,0,0-4.233,1.133,2.392,2.392,0,0,0-1.381,3.431,1.878,1.878,0,0,1,.036,1.422c-.344.92-.222,1.159.656,1.583.146.07.481.052.3.393a1.6,1.6,0,0,1-.79-.052" transform="translate(-49.803 -31.803)" fill="#cf7b52"/>
              <path id="Path_11906" data-name="Path 11906" d="M130.52,83.56a5.57,5.57,0,0,0,1.9-1.782c.748-1.472.243-4.072-1.3-4.767a3.48,3.48,0,0,0-2.566-.065,5.881,5.881,0,0,1-1.819.441,23.576,23.576,0,0,1,2.308-.916,3.206,3.206,0,0,1,3.884,2.776,4.671,4.671,0,0,1-.049,2.2,3.056,3.056,0,0,1-2.355,2.116" transform="translate(-52.525 -31.651)" fill="#d07e55"/>
              <path id="Path_11907" data-name="Path 11907" d="M126.017,90.729a10.2,10.2,0,0,0,1.158-.831,1.16,1.16,0,0,1,.946-.291c-.718.343-1.191,1.146-2.1,1.122" transform="translate(-52.229 -37.137)" fill="#d07e55"/>
              <path id="Path_11908" data-name="Path 11908" d="M122.42,91.5l.845,0h0c.419.345.841-.156,1.261,0-.235.433-.652.284-.992.265a2.309,2.309,0,0,1-1.114-.265" transform="translate(-50.738 -37.91)" fill="#d07e55"/>
              <path id="Path_11909" data-name="Path 11909" d="M129.61,89.31a3.75,3.75,0,0,1,1.685-.42,2.82,2.82,0,0,1-1.685.42" transform="translate(-53.718 -36.84)" fill="#d07e55"/>
              <path id="Path_11910" data-name="Path 11910" d="M21.034,86.867a2.4,2.4,0,0,0,1.6-.542c.2-.148.443-.4.67-.214s.133.514.025.778a2.01,2.01,0,0,1-2.483,1.149c-.332-.162-.652-.409-.583-.776.074-.393.492-.215.772-.245.139.161-.035.491.293.549a.093.093,0,0,0,.1-.069c.073-.324-.291-.3-.394-.48,0-.049-.006-.1-.009-.145l0,0" transform="translate(-8.395 -35.662)" fill="#c46243"/>
              <path id="Path_11911" data-name="Path 11911" d="M22.062,81.232a1.02,1.02,0,0,1,1.031-.92.84.84,0,0,1,.733.723,1.068,1.068,0,0,1-.807,1.063.863.863,0,0,1-.956-.866" transform="translate(-9.143 -33.283)" fill="#bd5c3c"/>
              <path id="Path_11912" data-name="Path 11912" d="M15.316,87.213a.559.559,0,0,1,.526.546c.012.327-.2.438-.5.434a.426.426,0,0,1-.472-.474.435.435,0,0,1,.445-.506" transform="translate(-6.163 -36.146)" fill="#b44b2f"/>
              <path id="Path_11913" data-name="Path 11913" d="M9.251,80.869c-.525.036-.854-.146-.853-.732,0-.451.943-1.476,1.37-1.472a3.627,3.627,0,0,1,.871,1.484c.011.448-.506.716-1.389.72" transform="translate(-3.481 -32.603)" fill="#ba5437"/>
              <path id="Path_11914" data-name="Path 11914" d="M19.46,85.585c-.252-.021-.506-.026-.755-.064a.8.8,0,0,1-.721-.725c-.067-.425.167-.581.531-.753a2.528,2.528,0,0,1,1.561-.166c.415.074.98.2.969.792-.01.559-.538.693-.964.846a2.235,2.235,0,0,1-.621.039v.032" transform="translate(-7.449 -34.741)" fill="#f9cba8"/>
              <path id="Path_11915" data-name="Path 11915" d="M23.886,122.181a1.493,1.493,0,0,1-1.339-1.289,5.191,5.191,0,0,0-.293-1.286.991.991,0,0,1,.715-1.375A2.267,2.267,0,0,0,23.4,118c.267-.173.417-.621.764-.549a16.736,16.736,0,0,1,1.99.606.421.421,0,0,1,.278.379,4.692,4.692,0,0,0,.391,1.672.8.8,0,0,1-.719,1.019,3.091,3.091,0,0,0-1.638.838.853.853,0,0,1-.581.212" transform="translate(-9.191 -48.677)" fill="#e99664"/>
              <path id="Path_11916" data-name="Path 11916" d="M45.036,15.123A1.722,1.722,0,0,1,45.8,13.5c.6-.523,1.55.042,1.6.955a1.993,1.993,0,0,1-.8,1.7.9.9,0,0,1-1.041.155,1.039,1.039,0,0,1-.525-1.185" transform="translate(-18.656 -5.511)" fill="#fadcad"/>
              <path id="Path_11917" data-name="Path 11917" d="M44.741,18.358c.193.071.454.16.446.361a.8.8,0,0,1-.605.759c-.276.067-.379-.256-.393-.47-.022-.354.293-.485.552-.65" transform="translate(-18.314 -7.609)" fill="#cc754d"/>
              <path id="Path_11918" data-name="Path 11918" d="M52.2,19.719c0-1.219.605-2.109,1.435-2.191s1.519.612,1.761,1.764a2.74,2.74,0,0,1-.235,1.772A1.429,1.429,0,0,1,53.8,22a1.518,1.518,0,0,1-1.356-1.051,2.877,2.877,0,0,1-.241-1.227" transform="translate(-21.636 -7.262)" fill="#fef3cd"/>
              <path id="Path_11919" data-name="Path 11919" d="M122.766,85.757c-.126-.182-.34-.129-.511-.183a1.068,1.068,0,0,1-.752-1.619,1.5,1.5,0,0,0,.046-1.46c-.791-1.351-.155-3.082,1.668-3.8a22.149,22.149,0,0,1,3.923-1.05,2.636,2.636,0,0,1,2.912,2.219c.265,2.125-.553,3.3-2.625,3.966a12.582,12.582,0,0,0-2.3.789c-.141.077-.333.126-.408.246-.46.738-1.227.765-1.957.887h0" transform="translate(-50.239 -32.168)" fill="#ba603e"/>
              <path id="Path_11920" data-name="Path 11920" d="M21.5,87.7a1.98,1.98,0,0,1,.415.027c.249.067.3.265.26.494a.362.362,0,0,1-.4.31c-.244,0-.411-.125-.408-.374A1.782,1.782,0,0,1,21.5,87.7h0" transform="translate(-8.856 -36.349)" fill="#a53b24"/>
              <path id="Path_11921" data-name="Path 11921" d="M129.894,80.924c.222,1.831-1.4,2.754-2.736,2.978a3.583,3.583,0,0,0-2.121.892c-.5.485-1.108-.1-1.644-.29-.391-.136-.309-.451-.155-.755a1.076,1.076,0,0,0-.072-.879c-.622-1.816-.369-2.567,1.374-3.3a13.393,13.393,0,0,1,3.4-.95c1.4-.183,1.82.289,1.947,1.709.018.208,0,.42,0,.595" transform="translate(-50.92 -32.569)" fill="#9d432a"/>
              <path id="Path_11922" data-name="Path 11922" d="M127.555,80.5a1.677,1.677,0,0,1,.953,3.194,3.428,3.428,0,0,1-3.083.136,1.55,1.55,0,0,1-1.042-1.37,1.407,1.407,0,0,1,.889-1.375,6.882,6.882,0,0,1,2.282-.585" transform="translate(-51.55 -33.366)" fill="#7a2e1c"/>
              <path id="Path_11923" data-name="Path 11923" d="M127.659,81.939c.926,0,1.526.42,1.523,1.042,0,.559-.829,1.109-1.587,1.061a1.928,1.928,0,0,1-1.134-.5c-.455-.392-.247-1.089.367-1.412a1.442,1.442,0,0,1,.831-.192" transform="translate(-52.311 -33.957)" fill="#5a1b11"/>
            </g>
          </g>
        </g>
      </g>
    </g>
  </g>
</svg>
