<svg xmlns="http://www.w3.org/2000/svg" width="16.622" height="17.788" viewBox="0 0 16.622 17.788">
  <g id="Group_663" data-name="Group 663" transform="translate(0 0)">
    <path id="Path_5938" data-name="Path 5938" d="M33.839,11.248c.376.082.45-.263.618-.454a7.244,7.244,0,0,1,7.9-1.733,4,4,0,0,1,2.57,3.587,4.364,4.364,0,0,1-2.314,4.167,8.055,8.055,0,0,1-12.248-5.838c-.59.387-.175,1.042-.513,1.62a7.379,7.379,0,0,1-1.5-5.377c.064-.834.167-1.666.219-2.5a4.629,4.629,0,0,1,3.4-4.3,4.307,4.307,0,0,1,5.038,2.06c1.245,2.368,2.317,4.8,5.218,5.671-4.489-.449-7.89.778-8.388,3.1" transform="translate(-28.32 -0.255)" fill="#6fa6d6"/>
    <path id="Path_5939" data-name="Path 5939" d="M32.952,1.085a3.763,3.763,0,0,1,3.927,2.934,3.819,3.819,0,1,1-6.588-1.712A2.118,2.118,0,0,1,31.8,1.43a.634.634,0,0,1,.712.758c-.056.456-.337.474-.669.183-.113-.1-.29-.182-.392.02a.451.451,0,0,0,.12.543.822.822,0,0,0,.889.18.822.822,0,0,0,.623-.793c0-.39-.078-.78-.129-1.236" transform="translate(-28.32 -0.255)" fill="#fafafa"/>
    <path id="Path_5940" data-name="Path 5940" d="M33.355,7.286a3.641,3.641,0,0,1-.7-.281c-.268-.16-.637-.457-.454-.743.3-.47.5.083.724.217.9.533,1.547.168,1.69-.962.028-.216-.132-.551.209-.576.372-.028.386.342.418.607a1.666,1.666,0,0,1-1.887,1.738" transform="translate(-28.32 -0.255)" fill="#6fa6d6"/>
    <path id="Path_5941" data-name="Path 5941" d="M34.418,3.266a.4.4,0,0,1,.333.532.367.367,0,0,1-.449.292.394.394,0,0,1-.339-.522.413.413,0,0,1,.455-.3" transform="translate(-28.32 -0.255)" fill="#6fa6d6"/>
    <path id="Path_5942" data-name="Path 5942" d="M32.156,4.842a.392.392,0,0,1-.445.4c-.233-.011-.317-.189-.319-.394s.075-.384.308-.405c.272-.025.42.124.456.395" transform="translate(-28.32 -0.255)" fill="#6fa6d6"/>
  </g>
</svg>
