<svg xmlns="http://www.w3.org/2000/svg" xmlns:xlink="http://www.w3.org/1999/xlink" width="108.087" height="102.604" viewBox="0 0 108.087 102.604">
  <defs>
    <clipPath id="clip-path">
      <rect id="Rectangle_1706" data-name="Rectangle 1706" width="108.087" height="102.604" fill="none"/>
    </clipPath>
  </defs>
  <g id="Group_1081" data-name="Group 1081" transform="translate(90 10)">
    <g id="Group_571" data-name="Group 571" transform="translate(-90 -10)" clip-path="url(#clip-path)">
      <path id="Path_5456" data-name="Path 5456" d="M0,39.1c2.635.3,5.266.648,7.908.872,1.013.086,1.151.539.977,1.339.293.988-.2,1.908-.273,2.866-.045.618-.224,1.237-.306,1.862-.361,1.54-.566,3.108-.811,4.668-.3,1.9-.683,3.794-.95,5.7-.459,2.137-.77,4.3-1.224,6.441a.851.851,0,0,1-.335.442c.005.347-.005.686-.4.854C4.434,64,4.539,63.8,4.5,63.62c.028-.112-.172.047-.059.016.069-.019.073,0,.063.057-.1.65-.615.288-.944.376l-.735-.086c.392-2.067-.19-4.079-.3-6.116-.121-2.286-.568-4.508-.847-6.76-.238-1.924.054-3.893-.364-5.783A17.3,17.3,0,0,1,.781,40.8c.025-.573-.371-.878-.781-1.171Z" transform="translate(0 -10.692)" fill="rgba(112,82,37,0.85)"/>
      <path id="Path_5457" data-name="Path 5457" d="M0,39.812c.808-.142,1.026.328,1.056.99a2.617,2.617,0,0,1,0,.521,12.479,12.479,0,0,0,.606,4.492,7.7,7.7,0,0,1,.1,1.551,22.588,22.588,0,0,0,.547,6.092,7.434,7.434,0,0,1,.32,2.98c-.156,1.256.5,2.38.457,3.621-.015.492.063,1.027.092,1.543.015.26-.086.59.04.769a1.113,1.113,0,0,1-.391,1.8L0,64V39.812" transform="translate(0 -10.879)" fill="rgba(112,82,37,0.85)"/>
      <path id="Path_5458" data-name="Path 5458" d="M20.99,61.632a33.579,33.579,0,0,1-6.358-.644,24.388,24.388,0,0,1-2.769-.4c-.671-.209-.468.652-.921.687a.86.86,0,0,1-.261-.709,6.3,6.3,0,0,1,.375-2.121c.328-1.843.442-3.722.941-5.536a6.731,6.731,0,0,0,.1-1.643,1.7,1.7,0,0,1,.1-.586c.374-.511.213-1.113.291-1.675a43.713,43.713,0,0,0,.668-4.334c.137-1.024.377-2.032.457-3.066a1.024,1.024,0,0,1,.512-.864c2.395.126,4.6-.752,6.882-1.248a83.8,83.8,0,0,0,8.309-2.414,40.5,40.5,0,0,0,6.554-2.571,23.928,23.928,0,0,1,4.444-2.172,12.269,12.269,0,0,1,5.188-.515,25.986,25.986,0,0,0,3.594.2c3.085-.028,6.148.364,9.229.418a5.438,5.438,0,0,1,2.227.3c-.066.483-.434.272-.677.26a7.638,7.638,0,0,0-2.366.158,1.087,1.087,0,0,1-.7.02c-1.064-.452-2.162.1-3.232-.123-.132-.028-.325,0-.328.189s.164.215.317.22c.206.007.408-.049.616-.043.458.015.71.211.683.7a30.406,30.406,0,0,1-.136,4.485,10.027,10.027,0,0,0,.1,1.275c-.041.835-.3,1.41-1.249,1.563a14.942,14.942,0,0,0,1.534.329A1.3,1.3,0,0,1,56.345,43.2c.013.61.13,1.212.126,1.819,0,.429.158.57.513.317,1.439-1.026,3.189-1.453,4.67-2.406a1.36,1.36,0,0,1,2.1.594.666.666,0,0,1-.736.156,1.751,1.751,0,0,0-1.706.357,31.511,31.511,0,0,1-8.027,3.748c-2.093.65-4.226,1.225-6.386,1.665a18.005,18.005,0,0,0-9.266,4.839,24.661,24.661,0,0,1-8.321,4.944c-1.817.73-3.6,1.556-5.416,2.31a3.808,3.808,0,0,1-2.9.089" transform="translate(-2.802 -8.675)" fill="#fad5d2"/>
      <path id="Path_5459" data-name="Path 5459" d="M21.621,65.969c2.125.334,3.916-.7,5.713-1.493,2.091-.921,4.237-1.728,6.252-2.828A25.379,25.379,0,0,0,39.26,57.5a13.41,13.41,0,0,1,5.851-3.291c2.577-.747,5.2-1.325,7.78-2.061a32.942,32.942,0,0,0,9.382-4.286.922.922,0,0,1,1.132-.123,1.638,1.638,0,0,0,.945.127,1.605,1.605,0,0,1,1.422.7.851.851,0,0,1-.569,1.045,1.312,1.312,0,0,0-.735,1.648c.152.884.038,1.022-.893,1.154-.9.126-1.814-.071-2.709.132a51.517,51.517,0,0,0-6.6,1.106,34.779,34.779,0,0,0-9.843,4.594,18.981,18.981,0,0,1-7.663,3.209,4.077,4.077,0,0,0,1.028.256c.381.038.764.006,1.145.031.311.02.767-.068.837.295.066.343-.382.459-.658.6a12.67,12.67,0,0,1-4.2.993c.7.178,1.4.2,2.058.4.375.118.51.344.158.6a5.784,5.784,0,0,0-2.087,2.628,18.571,18.571,0,0,0-.666,3.322,8.731,8.731,0,0,1,1.87-2.335c.2-.158.461-.351.711-.153.229.181.064.438-.049.631-1.442,2.456-1.265,4.987-.315,7.715a5.781,5.781,0,0,1,.144-1.689,7.652,7.652,0,0,1,.473-1.491c.107-.242.248-.517.545-.5.276.012.329.309.38.527.707,2.958,2.183,5.623,3.3,8.425a8.284,8.284,0,0,1,.729,3.461,2.766,2.766,0,0,1-.869,2.018,8.352,8.352,0,0,0-1.2,1.266,1.1,1.1,0,0,0,.241,1.741,8.2,8.2,0,0,0,.879.58,1.683,1.683,0,0,1,.742,2.571c-.586,1.181-.554,1.25.725,1.713.238.086.614.1.624.389.013.355-.357.39-.644.444-2.173.336-4.295.9-6.432,1.393a23.083,23.083,0,0,1-5.405.591,6.485,6.485,0,0,0-1.317.056c-.451.089-.552.295-.192.628a4.056,4.056,0,0,1,1.044,1.784,2.727,2.727,0,0,1-.668,2.887,1.052,1.052,0,0,1-1.086.412c-.346-.32,0-.516.158-.715a5.474,5.474,0,0,0,.7-.991,1.833,1.833,0,0,0-.655-2.442,3.05,3.05,0,0,1-1.188-1.125,1.5,1.5,0,0,1-.128-1.027,3.053,3.053,0,0,1,1.2-1.1c1.031-.679,1.062-1.428.121-2.211a6.141,6.141,0,0,1-1.411-1.27,2.2,2.2,0,0,1-.144-1.307,2.675,2.675,0,0,1,.817-1.213c1.29-1.227,1.19-2.138-.332-3.1-.074-.046-.144-.1-.215-.153a3.737,3.737,0,0,1-1.127-.874,2.556,2.556,0,0,1-.349-2,5.474,5.474,0,0,0,.1-1.3c-.046-1.2-.672-1.705-1.891-1.523-.646.135-.972.663-1.378,1.093a2.642,2.642,0,0,0-.473,1.646,23.288,23.288,0,0,0,.117,3.122,4.248,4.248,0,0,1-.972,3.582,3.059,3.059,0,0,0-.945,2.347.61.61,0,0,1-.23.542c-.478-.121-.524-.569-.722-.91a9.255,9.255,0,0,1-1.171-4.994c.055-1.614-.92-2.61-1.882-3.536A5.128,5.128,0,0,0,14.4,82.559c-.1-.024-.189-.141-.251-.235-.907-1.383-1.586-3.6-.609-5.385.4-.729.494-1.676,1.025-2.264.61-.676,1.243-1.364,1.922-2a23.43,23.43,0,0,0,5.139-5.912.724.724,0,0,0,0-.8" transform="translate(-3.432 -13.012)" fill="#dfd7cc"/>
      <path id="Path_5460" data-name="Path 5460" d="M77.849,51.785c.425-.31.91-.116,1.365-.153.5-.04,1,.005,1.493-.056.461-.057.8-.126.57-.837-.22-.676-.366-1.561.786-1.857.278-.072.792-.364.557-.915a.768.768,0,0,1,.9-.081A34.351,34.351,0,0,0,88.8,49.5a17.149,17.149,0,0,1,3.223,1.37A18.068,18.068,0,0,0,98.635,53.1a9.459,9.459,0,0,0,3.4-.34c.919-.244,1.036-.876.348-1.532a12.063,12.063,0,0,0-1.12-.839c-.477-.359-.531-.695-.02-1.111.845-.687.832-.9.037-1.618a15.558,15.558,0,0,0-1.311-1.022c-.235-.17-.618-.31-.4-.737a12.272,12.272,0,0,1,4.191-.413,14.109,14.109,0,0,1,3.776.65,10.985,10.985,0,0,1,6.147,5.72,15.452,15.452,0,0,1,.851,11.849c-.594,1.923-1.3,3.811-1.777,5.77-.145.6-.36,1.346.034,1.74.417.417,1.047-.238,1.614-.269a1.589,1.589,0,0,1-.552,1.221.792.792,0,0,1-1.1.13c-1.313-.671-.932-1.84-.907-2.895a4.525,4.525,0,0,1,.254-1.1,1.194,1.194,0,0,1,.1-.241,2.547,2.547,0,0,0,.383-.777c.379-1.571,1.252-2.973,1.5-4.6.46-3,.747-5.967-.469-8.87a5.86,5.86,0,0,1-.268-.918A6.029,6.029,0,0,0,111,49.358a18.236,18.236,0,0,1-2.012-1.726,1.49,1.49,0,0,0-1.117-.45,2.25,2.25,0,0,1-1.737-.4.347.347,0,0,0-.54.086c-.156.279.041.46.276.528a13.517,13.517,0,0,0,2.249.74c.765.086.8.354.432,1.025a3.217,3.217,0,0,0-.156,1.86c.07.673-.021,1.337.026,2.008a17.822,17.822,0,0,1,0,2.406,8.854,8.854,0,0,1-.055,2.007,4.591,4.591,0,0,0,.023,1.583c.061,1.141-.038,2.285.021,3.426.032.638,0,1.349,0,2,0,.685.021,1.411-.014,2.08-.06,1.137.674,1.814,1.141,2.653a.768.768,0,0,1-.459,1.221,1.737,1.737,0,0,0-1.41,1.952,5.923,5.923,0,0,1-.108.862c-.057.389-.153.791-.644.8-.539.007-.779-.377-.823-.848a3.4,3.4,0,0,0-.433-1.659c-.433-.654-.974-.685-1.424-.02a7.722,7.722,0,0,0-1.492,2.921c-.055.312-.2.657-.563.706-.346.046-.555-.282-.617-.529-.165-.661-.9-.475-1.216-.874-.316-1.912-.57-3.833-1.027-5.722a22.252,22.252,0,0,0-4.18-9.1,11.569,11.569,0,0,0-2.455-2.228,2.851,2.851,0,0,1-.8-.667,2.919,2.919,0,0,0-2.159-1.489c-3.007-1.877-6.376-2.336-9.835-2.467-.683-.025-1.41.219-2.039-.254" transform="translate(-20.464 -12.427)" fill="#dfd7cc"/>
      <path id="Path_5461" data-name="Path 5461" d="M96.926,42.518c.4.715,1.2.961,1.775,1.471,1.165,1.027,1.188,1.259-.105,2.172-.358.253-.244.38.02.57.495.356,1,.7,1.465,1.093a.929.929,0,0,1-.316,1.7,10.25,10.25,0,0,1-4.062.4,20.486,20.486,0,0,1-7.372-2.71,35.735,35.735,0,0,0-4.794-1.577c-.921-.331-1.959-.32-2.783-.961-.172-.134-.509-.06-.771-.082L78.743,43.9c-.581-.533-1.2-.968-1.99-.4a20.857,20.857,0,0,1-3.7,1.808,4.165,4.165,0,0,0-.99.713.724.724,0,0,1-.83.073c-.35-.185.043-.386.035-.575a22.737,22.737,0,0,0-.178-2.488c-.066-.433-.521-.607-.941-.676-.517-.085-1.042-.133-1.563-.19-.235-.025-.517-.018-.523-.328-.005-.248.266-.31.45-.335.534-.073,1.16-.06,1.027-.836-.081-.472.512-1.016-.158-1.418a.245.245,0,0,1-.085-.221c.853-1.5.1-3.118.365-4.668.1-.612-.6-.43-.834-.3a.583.583,0,0,1-.879-.187c-.138-.177-.207-.367-.046-.552a.718.718,0,0,1,.893-.126c.63.28,1.236-.219,1.813-.058,1.611.449,3.226-.3,4.826.079.033.008.087-.067.131-.1a16.115,16.115,0,0,1,7.21,1.768c2.671,1.415,5.391,2.749,8.029,4.224A51.577,51.577,0,0,1,96.1,42.3a1.41,1.41,0,0,0,.826.221" transform="translate(-17.826 -9.046)" fill="#f9cbc6"/>
      <path id="Path_5462" data-name="Path 5462" d="M93.539,131.006c2.029.643,4.214.705,6.171,1.645a5.311,5.311,0,0,1,1.558,1.093c.736.759.524,1.27-.464,1.709a8.8,8.8,0,0,1-3,.57c-11.6.775-23.214.071-34.816.388-4.349.118-8.7-.062-13.039.171-3.734.2-7.46.06-11.189.131-2.009.038-4.028.13-6.026-.023-2.7-.208-5.408.017-8.1-.174a60.983,60.983,0,0,1-6.893-.6c-1.2-.224-2.432-.416-3.662-.533-.215-.021-.52-.055-.558-.338s.282-.339.453-.473a5.023,5.023,0,0,1,2.249-.629c.336-.072.217.251.368.457.571-1.712,2.126-1,3.249-1.288a16.492,16.492,0,0,0,2.564-.461.67.67,0,0,1,.655.059c.594.326.174-.208.261-.32.444-.142.607.248.854.456.427.36.684.87,1.094,1.246.093.068.166.2.314.093.388-.957,1.054-1.753,1.524-2.661.161-.16.312-.363.565-.132a1,1,0,0,0,1.162.556,45.384,45.384,0,0,0,4.6-.422.749.749,0,0,1,.657.706,2.973,2.973,0,0,0,1.648,2.2,6.021,6.021,0,0,1,.73.614c.309.323.711.209,1.086.223.5-.009.993-.007,1.488,0a1.829,1.829,0,0,0,1.081-.129,1.225,1.225,0,0,1,.212-.113,1.038,1.038,0,0,0,.83-.728,5.129,5.129,0,0,1,1.282-1.484,1.221,1.221,0,0,1,1.068-.308c1.252.405,2.565.189,3.827.439.964.479,2,.1,2.985.226,2.093.142,4.185.274,6.258.613a11.253,11.253,0,0,0,2.458.04c.582-.033.693-.559.971-.911a.49.49,0,0,1,.285-.107c3,.055,5.994.009,8.992.022a2.788,2.788,0,0,1,1.531.305.779.779,0,0,0,.91-.005,1.724,1.724,0,0,1,1.6-.11,1.031,1.031,0,0,1,.7.692c.409,1.014.459,1.025,1.493.5.332-.345.152-.931.59-1.226a1.888,1.888,0,0,1,.928-.14,1.927,1.927,0,0,1,.259.014,2.19,2.19,0,0,0,1.084.046c.82-.04.267-.737.513-1.049.147-.421.116-.721-.457-.661-.327-1.059.074-1.726,1.221-2.039.506-.361.329-.778.1-1.2a1.056,1.056,0,0,0-.475-.208c-1.574-.317-1.91-1.276-.871-2.47.2-.176.393-.389.71-.261a2.939,2.939,0,0,0,1.6,1.764,2.08,2.08,0,0,1,.487,2.688c-.817.977-.684,1.727.411,2.415a.518.518,0,0,0,.652-.019,1.835,1.835,0,0,1,2.482.055,2.83,2.83,0,0,0,.321.143,1.366,1.366,0,0,1,.627,1.42c-.006.519.109.878.758.924,1.323.094,1.522.078,1.635-.722a1.518,1.518,0,0,1,1.462-1.441,1.55,1.55,0,0,1,1.981.328c.27.3.595.651,1.03.268s1.286-.517.95-1.412a.514.514,0,0,1,0-.419" transform="translate(-3.555 -34.171)" fill="#dfd7cc"/>
      <path id="Path_5463" data-name="Path 5463" d="M119.881,87.035c.778,2.43,2.566,4.27,3.829,6.416a10.323,10.323,0,0,1,1.838,5.739,6.53,6.53,0,0,1-3.193,5.326c-.267.18-.562.31-.708.618a.505.505,0,0,1-.509-.124,11.91,11.91,0,0,0-1.651-1.29,6.155,6.155,0,0,0-6.424-.216c-.943.464-1.79,1.1-2.783,1.476a4.807,4.807,0,0,1-1.346.38,9.725,9.725,0,0,0-1.045.15,2.428,2.428,0,0,1-2.048-.567,6.972,6.972,0,0,0-1.084-.741,2.666,2.666,0,0,0-2.762,0,5.69,5.69,0,0,1-1.937-.639,1.058,1.058,0,0,1,.273-.8,39.782,39.782,0,0,0,2.52-4.375c.136-.281.257-.6.634-.666a7.755,7.755,0,0,0,4.513.1,5.427,5.427,0,0,0,1.482-.716,11.133,11.133,0,0,0-2.951-1.227c-.708-.225-1.541-.075-2.125-.675a3.744,3.744,0,0,1,.714-2.163.752.752,0,0,1,1.155.111,4.968,4.968,0,0,0,5.28,1.208c.193-.052.471-.065.51-.283.052-.283-.254-.353-.446-.466a9.5,9.5,0,0,0-3.809-1.516c-.727-.078-.852-.447-.382-.993a7.443,7.443,0,0,1,1.851-1.463,1.061,1.061,0,0,1,1.359.268c1.493,1.424,3.271,1.184,5.064.873.17-.03.386-.065.438-.248.069-.239-.155-.357-.317-.467a12.305,12.305,0,0,0-2.852-1.358c-.36-.129-.792-.221-.859-.652-.07-.448.358-.621.655-.844.164-.123.349-.219.511-.341a1.46,1.46,0,0,1,2-.005,3.931,3.931,0,0,0,3.5.676,3.1,3.1,0,0,0,1.1-.508" transform="translate(-26.298 -23.644)" fill="#dfd7cc"/>
      <path id="Path_5464" data-name="Path 5464" d="M108.5,74.073c1.059-.216,1.159.81,1.673,1.293a.827.827,0,0,0,.405-.67c.119-1.283,1.014-2.183,1.635-3.211a.942.942,0,0,1,1.6.164,2.561,2.561,0,0,1,.493,1.707c-.042.419.12.8.568.842.518.049.463-.4.491-.74a3.228,3.228,0,0,0,.04-1.182c-.15-.569.8-1.632,1.422-1.677a.768.768,0,0,0,.7-.432c.2-.363-.113-.437-.283-.611-.468-.477-.366-1.346-1.164-1.618-.151-.051-.112-.312.05-.445.335-.273.29-.531-.021-.785-.022-.019-.06-.054-.055-.064.335-.642-.084-1.322.11-1.969.015-.05.117-.11.108-.127-.361-.639.115-1.327-.122-1.969-.029-.077-.169-.173-.153-.2.348-.57.027-1.161.086-1.7.043-.391.373-.7-.07-1.064a.246.246,0,0,1,.036-.385c.445-.347.355-.66-.024-.989a.246.246,0,0,1,.011-.387c.411-.336.012-.8.069-.96.251-.688-.217-1.36.085-1.988.086-.18.307-.339.1-.524-.385-.344-.027-.769-.083-.967-.193-.686.235-1.366-.077-1.978-.138-.27-.251-.444.007-.666s.319-.459.028-.724c-.329-.3-.3-.548.153-.688.2-.064.422-.126.388-.387a.378.378,0,0,0-.463-.305c-.972.109-1.685-.624-2.594-.748-.515-.07-.5-.565-.315-.9a.6.6,0,0,1,.982-.122,1.488,1.488,0,0,0,1.4.39,2.324,2.324,0,0,1,2.181,1.349c.2.31.37.58.8.557.133-.007.354.045.4.134.4.852,1.446,1.178,1.783,2.053a23.082,23.082,0,0,1,1.628,4.8,20.942,20.942,0,0,1-.156,6.832c-.31,1.717-1.213,3.206-1.576,4.882a.7.7,0,0,1-.5.576c-.492-.491-.323-1.13-.581-1.643.291.53-.175,1.3.581,1.643a10.774,10.774,0,0,1-.236,2.37c-.251,1.093.548,1.272,1.031,1.736.269.257.551-.025.719-.264.232-.328.425-.684.635-1.029.5,0,.991-.01,1.487,0,.189,0,.447-.092.54.153.077.2-.067.4-.2.539-.236.25-.507.468-.763.7a5.828,5.828,0,0,1-1.672.719c-1.061.347-1.2.632-.771,1.682a.4.4,0,0,1-.018.407,5.161,5.161,0,0,1-2.026-.745c-.409-.2-.4-.538-.019-.819a5.085,5.085,0,0,1,.795-.371c.248-.122.582-.185.524-.607-.337-.143-.43.206-.634.311s-.422.237-.656.089a.53.53,0,0,1-.2-.692,4.193,4.193,0,0,0,.372-1.771c-.022-.283-.133-.5-.427-.239a7.57,7.57,0,0,0-2.2,2.336,3.208,3.208,0,0,0-.347,1.248,3.271,3.271,0,0,1-2.3,2.467c-.31.041-.43-.108-.489-.363a2.7,2.7,0,0,1,.055-1.033,5.81,5.81,0,0,0-.608-3.579A9.5,9.5,0,0,0,111.034,76a1.783,1.783,0,0,0,.447,1.458.805.805,0,0,1-.217,1.323c-.312.219-.566.5-.872.732-.243.181-.49.363-.793.171-.273-.173-.192-.454-.152-.713a8.964,8.964,0,0,0-.141-3.183,1.943,1.943,0,0,0-.869-1.344.306.306,0,0,1,.067-.366" transform="translate(-28.496 -12.77)" fill="#dfd7cc"/>
      <path id="Path_5467" data-name="Path 5467" d="M119.775,111.378l.352.174c.51.9,1.49,1.43,1.829,2.481.375,1.165-.116,1.946-1.427,2.043a7.482,7.482,0,0,1-2.507-.354,4.636,4.636,0,0,0-3.021.023,11.379,11.379,0,0,1-1.392.852c-.758.464-1.294-.166-1.9-.422a1.307,1.307,0,0,1-.829-1.457c.027-.513-.007-.971-.737-1.017-1.175-.074-1.508,0-1.619.795-.175,1.253-1.227,1.211-2.057,1.526-.621.166-.972-.268-1.375-.6-.629-.514-.752-.446-1.717.306-.565.442-.374.785-.076,1.238a2.082,2.082,0,0,1-1.666,3.125c-.729-.007-.906.507-1.286.857-.272-.026-.345.278-.568.333-.5-.287-.773-1.071-1.576-.726-1.087.692-1.919.5-2.409-.645-.212-.5-.736-.418-1.023-.73a6.844,6.844,0,0,1-.308-4.088c.388-.237.36.12.421.306.106.323-.057.69.166,1.047.628-.328.923-.958,1.4-1.4a27.132,27.132,0,0,0,3.265-3.97,1.311,1.311,0,0,1,.644-.565c1.37-1.015,2.658-.525,3.737.4a2.9,2.9,0,0,0,2.975.652,1.329,1.329,0,0,1,.349-.011,5.128,5.128,0,0,0,2.37.775c.716.113,1.457.14,2.181.251a1.051,1.051,0,0,0,.435.04,3.822,3.822,0,0,1,2.708-.063.536.536,0,0,0,.43-.05c1.3-.79,2.921-.4,4.236-1.126" transform="translate(-24.779 -30.062)" fill="#f6f1ed"/>
      <path id="Path_5470" data-name="Path 5470" d="M108.1,83.219a.758.758,0,0,1,.848.6,8.832,8.832,0,0,1,.277,4.093c-.033.171-.13.349.06.464.175.106.334,0,.473-.118.421-.358.845-.711,1.263-1.074.166-.144.287-.332.086-.52-1.205-1.13-.634-2.392-.275-3.627a14.254,14.254,0,0,1,1.288-2.555c.081-.155.162-.331.369-.325.262.007.289.225.359.421a7.549,7.549,0,0,1,.356,4.335,2.016,2.016,0,0,0,.032.506A12.964,12.964,0,0,0,115.477,84a.444.444,0,0,0,.177-.468,3.215,3.215,0,0,1,1.061-2.956,13.458,13.458,0,0,1,1.685-1.513c.342-.288.587-.244.622.256a4.221,4.221,0,0,1-.281,1.954c-.108.259-.427.543-.07.74.336.185.56-.141.745-.421.152-.229.324-.57.66-.189a.618.618,0,0,1,.047.865c-.1.118-.311.147-.475.211-.217.086-.443.153-.654.252s-.535.124-.546.376c-.014.321.346.373.577.428a8.043,8.043,0,0,1,1.587.726c.343-.093.453.267.7.353l.356.346a.639.639,0,0,1-.5.643c-1.352.227-2.7.5-3.956-.419a2.1,2.1,0,0,0-3.061.506c-.4.507.13.555.43.655a11.979,11.979,0,0,1,3.521,1.717c.481.363.46.6-.1.731-2.026.469-4.048.858-5.755-.844a.868.868,0,0,0-1.312-.061,15.221,15.221,0,0,0-1.678,1.387c-.318.344-.2.548.21.542,1.7-.023,2.993.99,4.409,1.683.22.108.5.3.47.578s-.366.256-.567.317c-1.868.569-3.688.665-5.326-.639a1.8,1.8,0,0,1-.5-.466c-.24-.452-.546-.466-.939-.239a.841.841,0,0,1-.09-.822,30.305,30.305,0,0,0,.91-6.31.816.816,0,0,1,.268-.7" transform="translate(-28.09 -21.569)" fill="#f6f1ed"/>
      <path id="Path_5472" data-name="Path 5472" d="M117.379,118.208a1.722,1.722,0,0,0,2.473-.161.572.572,0,0,1,.652-.137c.1.139.2.279.308.415.356.456.944.881,1,1.371s-.666.805-1.039,1.2c-.176.187-.288.348-.126.6a1.156,1.156,0,0,1,.186.485,1.49,1.49,0,0,0,1.664,1.532c.532.005.778.3.648.845a2.159,2.159,0,0,0-.021.259c-.164,1.547-.164,1.558-1.726,1.623-.363.015-.6.085-.736.459a3.091,3.091,0,0,1-.493.914.949.949,0,0,0,.092,1.441c.054.387.649.722.341,1.071a6.434,6.434,0,0,1-1.629,1.267c-.318.181-.553-.262-.731-.485a1.334,1.334,0,0,0-1.8-.49c-.224.121-.452.163-.6-.092-.116-.206.03-.361.153-.533.63-.883.574-1.094-.435-1.571-.206-.1-.363-.2-.372-.417-.013-.28.229-.325.425-.3.389.041.494-.215.607-.484a8.593,8.593,0,0,0,1.084-1.238,3.23,3.23,0,0,0,.2-2.914c-.212-.8-.932-1.213-1.4-1.816.18-.719.322-1.449.519-2.162.086-.314.263-.715.753-.684" transform="translate(-30.282 -32.227)" fill="#705225"/>
      <path id="Path_5473" data-name="Path 5473" d="M22.973,106.636a3.576,3.576,0,0,1,1.045-3.136,4.054,4.054,0,0,0,.818-3.65,15.743,15.743,0,0,1-.088-3.188,1.924,1.924,0,0,1,.7-1.521,16.842,16.842,0,0,1,.326,3.076c-.047.212-.111.421-.141.636a45.377,45.377,0,0,0-.012,6.841,1.342,1.342,0,0,1-.343,1.035c.01.165-.593.017-.192.407.337.328.808.586.817,1.149-.5.61-.14,1.249-.049,1.869a7.172,7.172,0,0,1-.338,3.43c.008.1-.3-.027-.136.153.795.885,1.617,1.746,2.393,2.648.192.224.377.47.22.781-.14.278-.4.158-.624.136a5.179,5.179,0,0,1-3.271-1.481,2.394,2.394,0,0,1,0-3.6c1.094-1.1,1.151-1.763.212-3.461-.4-.731-.89-1.418-1.339-2.124" transform="translate(-6.03 -26.014)" fill="#cfc2a9"/>
      <path id="Path_5474" data-name="Path 5474" d="M78.6,14.045a34.46,34.46,0,0,1-.7,8.974c-.187.753-.522,1.63-1.315,1.663-.728.03-1.349-.672-1.636-1.406a6.069,6.069,0,0,1,.1-3.652A16.013,16.013,0,0,1,78.6,14.045" transform="translate(-19.638 -3.84)" fill="rgba(215,210,181,0.6)"/>
      <path id="Path_5475" data-name="Path 5475" d="M12.23,53.532l-.013.5a1.265,1.265,0,0,0-.2.74c-.022.187-.111.344-.313.359s-.3-.145-.36-.317a3.781,3.781,0,0,1-.1-.771,2.611,2.611,0,0,0-.806-1.94.763.763,0,0,1-.178-.891c.545-1.3.236-2.686.45-4.017a.765.765,0,0,1,.081-.33,33.993,33.993,0,0,1,.77-4.721c.346.008.691.012,1.036.025,1.384.05,1.384.051,1.393,1.417-.406,1.439-.464,2.936-.748,4.392a24.276,24.276,0,0,1-.679,3.963c-.38.474,0,1.106-.338,1.588" transform="translate(-2.68 -11.524)" fill="rgba(215,210,181,0.6)"/>
      <path id="Path_5476" data-name="Path 5476" d="M27.283,26.383a8.667,8.667,0,0,1,.949-2.489,15.5,15.5,0,0,1,3.544-4.017c.144-.116.256-.39.5-.212.219.163.017.359-.026.547-.245,1.091-.425,2.2-.717,3.276a13.639,13.639,0,0,1-1.9,4.757c-.453.61-.968.615-1.556.124-.638-.534-.558-1.3-.786-1.985" transform="translate(-7.172 -5.361)" fill="#e4ddc8"/>
      <path id="Path_5478" data-name="Path 5478" d="M24.378,132.275l-.358-.334a3.868,3.868,0,0,1-2.144-2.572c-.2-1.123.209-1.63,1.347-1.51a3.955,3.955,0,0,1,3,2.261,22.318,22.318,0,0,1,1.364,3.526,2.021,2.021,0,0,1,.128,1.188c-.419.221-.557-.153-.719-.37a6.933,6.933,0,0,0-2.62-2.189" transform="translate(-5.738 -34.955)" fill="#fcfcfb"/>
      <path id="Path_5479" data-name="Path 5479" d="M81.221.065c1.618-.007,1.663,0,1.527,1.573A7.651,7.651,0,0,1,81.9,4.7a1.078,1.078,0,0,1-1.757.252,4.486,4.486,0,0,1-.73-4.607c.136-.281.339-.279.572-.282.411-.005.823,0,1.235,0" transform="translate(-20.786 -0.017)" fill="rgba(215,210,181,0.6)"/>
      <path id="Path_5480" data-name="Path 5480" d="M41.883,14.234a19.585,19.585,0,0,1-.635,4.327c-.135.6-.319,1.41-1.178,1.2a1.433,1.433,0,0,1-1.025-1.514,7.181,7.181,0,0,1,1.476-3.8,7.712,7.712,0,0,1,.826-1c.123-.135.166-.435.433-.344s.118.334.106.523,0,.4,0,.605" transform="translate(-10.264 -3.579)" fill="#e4ddc8"/>
      <path id="Path_5481" data-name="Path 5481" d="M26.364,111.5c-.351-.369-.708-.732-1.047-1.112-.115-.128-.412-.242-.2-.467.277-.291.347.153.539.194.92.394,1.381,1.315,2.232,1.9a22.733,22.733,0,0,0-.109-3.413,1.672,1.672,0,0,1,.119-1.267.363.363,0,0,1,.248-.076c.49.217.374.668.384,1.046.027,1.059-.007,2.118.018,3.177.015.647.3.486.607.171.3-.273.571-.578.895-.82.178-.133.4-.435.626-.027,0,.4-.319.61-.543.876a3.655,3.655,0,0,0-1.339,4.01,29.44,29.44,0,0,1,.121,3.216,11.827,11.827,0,0,0,1.532-1.669c.208-.175.415-.538.708-.235.237.246,0,.536-.175.772-.432.582-.935,1.106-1.387,1.672-.585.734-.591.729.159,1.16-.175.444-.58.307-.913.354a3.655,3.655,0,0,1-.4-.059l-.521-.287c.625-.065.692-.312.28-.764q-1.2-1.317-2.365-2.66c-.167-.192-.369-.468.169-.282,1,.43,1.429,1.41,2.161,2.151a36.79,36.79,0,0,1-.09-3.955,3.071,3.071,0,0,0-1.171-2.834,1.36,1.36,0,0,1-.543-.771" transform="translate(-6.583 -29.327)" fill="#f6f1ed"/>
      <path id="Path_5482" data-name="Path 5482" d="M118.692,37.49a13.283,13.283,0,0,1,1.484-2.347,9.344,9.344,0,0,1,.113,2.67,12.952,12.952,0,0,1-.521,3.588c-.161.5-.344,1.019-1.054.945a9.592,9.592,0,0,1-.021-4.856" transform="translate(-31.121 -9.609)" fill="#dccdbc"/>
      <path id="Path_5483" data-name="Path 5483" d="M95.178,16.479a9.707,9.707,0,0,1,1.538-2.211,16.735,16.735,0,0,1-.652,6.56c-.229.318-.472.605-.932.425s-.442-.577-.365-.945a18.2,18.2,0,0,0,.162-2.922,2.462,2.462,0,0,1,.249-.907" transform="translate(-24.9 -3.901)" fill="#dccdbc"/>
      <path id="Path_5484" data-name="Path 5484" d="M46.8.06c.9-.2,1.137.111.887.945a9.394,9.394,0,0,1-1.025,2.452c-.388.6-.79.528-1.185.042A2.751,2.751,0,0,1,45.658.252C46-.1,46.44.111,46.8.06" transform="translate(-11.838 0)" fill="#e4ddc8"/>
      <path id="Path_5485" data-name="Path 5485" d="M63.632,10.243a12.355,12.355,0,0,1,1.409-2.167c0,1.4.039,2.553-.015,3.706A15.121,15.121,0,0,1,64.7,13.9a1.5,1.5,0,0,1-.7,1.228.242.242,0,0,1-.374-.049.748.748,0,0,1-.161-.485c.145-1.449-.224-2.916.169-4.355" transform="translate(-16.678 -2.208)" fill="#dccdbc"/>
      <path id="Path_5486" data-name="Path 5486" d="M25.008,9.11a1.585,1.585,0,0,1,1.125-.773c-.491,2.161-.626,4.354-1.985,6.187-.747-.068-1.135-.661-.7-1.29a2.777,2.777,0,0,0,.434-1.976c-.106-.988.63-1.5,1.131-2.149" transform="translate(-6.115 -2.28)" fill="#dccdbc"/>
      <path id="Path_5487" data-name="Path 5487" d="M108.321,26.981a9.249,9.249,0,0,1,.061,3.858c-.041.4-.42.866-.786.8-.441-.083-.652-.612-.765-1.072a2.724,2.724,0,0,1,.386-1.664,14.006,14.006,0,0,1,1.1-1.92" transform="translate(-28.073 -7.377)" fill="rgba(215,210,181,0.6)"/>
      <path id="Path_5488" data-name="Path 5488" d="M134.74,27.408c-.129.911-.232,1.827-.4,2.73-.066.357-.238.756-.7.779-.418.02-.477-.389-.589-.664a4.361,4.361,0,0,1,1.2-3.721c.229-.147.4-.1.439.178a5.317,5.317,0,0,1,.006.694l.041,0" transform="translate(-34.952 -7.233)" fill="rgba(215,210,181,0.6)"/>
      <path id="Path_5489" data-name="Path 5489" d="M24.77,9.4a4.122,4.122,0,0,0-.887,3.413.665.665,0,0,1-.237.53c-.552.565-.46,1.04.264,1.471-.508.607-.924.358-1.235-.174a2.5,2.5,0,0,1-.051-2.334A6.854,6.854,0,0,1,24.77,9.4" transform="translate(-5.878 -2.571)" fill="#e4ddc8"/>
      <path id="Path_5490" data-name="Path 5490" d="M63.31,11.058c-.08,1.258.362,2.507.035,3.779a.91.91,0,0,0,.331,1.11c-.747.324-1.073-.165-1.249-.717a4.372,4.372,0,0,1,.883-4.172" transform="translate(-16.356 -3.024)" fill="rgba(215,210,181,0.6)"/>
      <path id="Path_5491" data-name="Path 5491" d="M94.945,17.311a24.076,24.076,0,0,1-.136,3.7c-.061.279-.342.691.08.935.383.221.643-.135.941-.286-.41.8-.908.864-1.475.172a2.721,2.721,0,0,1-.423-2.38,4,4,0,0,1,1.013-2.141" transform="translate(-24.667 -4.733)" fill="rgba(215,210,181,0.6)"/>
      <path id="Path_5492" data-name="Path 5492" d="M118.431,38.373q.011,2.428.021,4.856a2.532,2.532,0,0,1-1-2.67,4.818,4.818,0,0,1,.978-2.186" transform="translate(-30.86 -10.492)" fill="rgba(215,210,181,0.6)"/>
      <path id="Path_5493" data-name="Path 5493" d="M27.39,133.631a17.346,17.346,0,0,0-1.4-3.611,4.34,4.34,0,0,0-2.324-2,1.366,1.366,0,0,0-1.49.126c-.447.444-.3,1.027-.128,1.548a3.18,3.18,0,0,0,1.016,1.386c.3.265.6.538.9.808a3.226,3.226,0,0,1-2.284-3.4,1,1,0,0,1,1.045-.843,3.69,3.69,0,0,1,3.153,1.726,12.008,12.008,0,0,1,1.664,3.865c.155.212.016.312-.157.4" transform="translate(-5.685 -34.901)" fill="rgba(112,82,37,0.69)"/>
      <path id="Path_5494" data-name="Path 5494" d="M126.061,85.593c-.306.02-.46-.253-.7-.353-.793-1.324-.585-1.778.969-2.329.5-.177,1-.322,1.506-.452a2.434,2.434,0,0,1-1.75,1.012c-.788.124-.846.461-.557,1.054.175.358.357.712.536,1.068" transform="translate(-32.834 -22.547)" fill="#f6f1ed"/>
      <path id="Path_5495" data-name="Path 5495" d="M29.44,133.13l.157-.4q0-3.38,0-6.759l.242-.166a1.7,1.7,0,0,1,.248,1.152c.01,1.633.01,3.265-.024,4.9a11.034,11.034,0,0,1-.215,2.977c-.295.092-.334-.144-.421-.318.024-.1.128-.127.192-.191l-.177-1.194" transform="translate(-7.735 -34.399)" fill="rgba(112,82,37,0.69)"/>
      <path id="Path_5496" data-name="Path 5496" d="M28.529,136.549l-.192.191c-.731-.545-1.073-1.471-1.919-1.9-.275-.423-.886-.434-1.13-.9a4.585,4.585,0,0,1,2.427,1.718c.282.287.434.69.815.889" transform="translate(-6.647 -36.624)" fill="rgba(112,82,37,0.69)"/>
      <path id="Path_5497" data-name="Path 5497" d="M6.765,72.242l.227-.36c.492-.24.874.273,1.345.19a1.972,1.972,0,0,1,.234.058c.225.128.605.036.637.437-.826-.025-1.69.233-2.443-.325" transform="translate(-1.778 -19.637)" fill="#f8ecc1"/>
      <path id="Path_5499" data-name="Path 5499" d="M9.821,72.461c-.173-.254-.558-.049-.723-.323.521-.135.866-.61,1.406-.706.009.233.018.465.027.7-.074.45-.424.325-.711.331" transform="translate(-2.392 -19.532)" fill="rgba(215,210,181,0.6)"/>
      <path id="Path_5500" data-name="Path 5500" d="M4.83,73.241c.308-.219,1.024.2,1.031-.6v.679a2.235,2.235,0,0,1-1.031-.082" transform="translate(-1.27 -19.863)" fill="#914e8f"/>
      <path id="Path_5501" data-name="Path 5501" d="M10.156,65.2a1.128,1.128,0,0,1-1.406.706v0c-.8-.191-1.012-.725-.972-1.479A9.326,9.326,0,0,1,8.1,61.788a23.9,23.9,0,0,0,.287-2.726,39.44,39.44,0,0,1,.767-5.024,38.6,38.6,0,0,1,1-5.394c0,1.118.01,2.236.009,3.355a1.665,1.665,0,0,1-.195.727c-.177.376-.46.758.272,1.138.5.259.537,1.144.626,1.8.049.357-.108.74.156,1.144.331-.284.066-.867.554-1a18.392,18.392,0,0,1-.638,4.353c-.165.864-.221,1.751-.349,2.624a14.98,14.98,0,0,0-.437,2.415" transform="translate(-2.043 -13.301)" fill="rgba(215,210,181,0.6)"/>
      <path id="Path_5502" data-name="Path 5502" d="M8.186,62.983c.366,1.581-.358,3.084-.339,4.64.01.8-.226,1.682.7,2.2a2.364,2.364,0,0,1-1.492-.359,5.651,5.651,0,0,1,.289-2.172c.191-1.449.552-2.876.843-4.311" transform="translate(-1.841 -17.221)" fill="rgba(215,210,181,0.6)"/>
      <path id="Path_5503" data-name="Path 5503" d="M12.939,57.219c.125-.527-.36-1.18.338-1.588-.077.537.243,1.156-.338,1.588" transform="translate(-3.388 -15.211)" fill="rgba(215,210,181,0.6)"/>
      <path id="Path_5504" data-name="Path 5504" d="M90.916,76.46a31.923,31.923,0,0,1-1.088,7.832,11.035,11.035,0,0,0-.706,2.079,4.767,4.767,0,0,1-1.093,2.6c-1,1.978-2.129,3.879-3.288,5.766.05.466-.318.732-.552,1.04a18.455,18.455,0,0,1-3.383,3.957,9.039,9.039,0,0,0,.1,3.61c.018.2.059.393.09.589A2.681,2.681,0,0,0,80.479,105a1.491,1.491,0,0,1-2.161.935c-.614-.638-.747-.031-.96.365a.865.865,0,0,0,.13.819,1.515,1.515,0,0,1-.677,2.24c-.33.166-.649.294-.579.748s.344.6.774.69a1.558,1.558,0,0,1,1.16,1.621,1.357,1.357,0,0,1-1.522,1.2c-3-.008-6,.021-9-.015a.263.263,0,0,0-.111-.05c-.322-.489-.353-1.228-1.155-1.306-.68-.256-.634-.817-.582-1.37a4.762,4.762,0,0,0,.1-1.28c-.035-.2-.089-.406-.359-.411-.22,0-.287.166-.344.33-.066.19-.1.389-.156.582-.107.352-.274.639-.7.646s-.607-.271-.7-.634c-.049-.195-.136-.379-.183-.575a2.176,2.176,0,0,1,.323-1.068,5.268,5.268,0,0,0,.339-2.979,1.472,1.472,0,0,0-2.181-1.343,22.3,22.3,0,0,1-5.688,1.066,6.692,6.692,0,0,1-2.6-.351,2.607,2.607,0,0,1-1.8-2.262,4.418,4.418,0,0,1-.031-1.039,1.809,1.809,0,0,0-1.137-2.033,1.465,1.465,0,0,1-.825-.863c-.145-.417-.265-.852.265-1.126l.641-.283c-.268-.073-.424-.118-.58-.159-1.593-.418-1.7-.67-.938-2.111.55-1.032.442-1.477-.517-2.117-.146-.1-.3-.185-.449-.277-1.709-1.045-1.845-1.952-.236-3.193a3.464,3.464,0,0,0,1.219-4.023,43.184,43.184,0,0,0-2.508-6.3,25.15,25.15,0,0,1-1.5-4.624,8.714,8.714,0,0,0-1.033,4.287c-1.071-1.37-1.952-5.459.17-8.759-.913.384-1.173.682-2.591,2.975-.266-1.905.186-5.2,2.934-6.9a14.305,14.305,0,0,1-3.234-.7c2.09-.395,4.064-.388,5.868-1.619a8.819,8.819,0,0,1-4.095-.546c.961-.2,1.74-.329,2.5-.522a17.5,17.5,0,0,0,5.568-2.542,33.026,33.026,0,0,1,14.412-5.716c.844-.109,1.7-.164,2.543-.244a28.665,28.665,0,0,1,8.271.868,13.261,13.261,0,0,1,3.9,1.8A16.1,16.1,0,0,1,82.4,58.25c4.569,2.8,6.385,7.288,7.6,12.129a32.39,32.39,0,0,1,.913,5.734c0,.116,0,.232,0,.347" transform="translate(-10.907 -14.811)" fill="#705225"/>
      <path id="Path_5505" data-name="Path 5505" d="M47.084,113.852c-.529.809-.083,1.4.588,1.7a2.306,2.306,0,0,1,1.381,2.685,2.557,2.557,0,0,0,2.605,2.946,17.637,17.637,0,0,0,7.194-.955,1.719,1.719,0,0,1,2.528,1.582,6.343,6.343,0,0,1-.872,4.006c-1.176.187-2.1,1.354-3.453.853a.653.653,0,0,1-.295-.5c-.243-1.157-.34-1.226-1.539-1.127a.666.666,0,0,0-.4.153,4.334,4.334,0,0,1-.326.379c-.32.318-.986-.129-1.16.512-.06.422.082.886-.278,1.242a14.712,14.712,0,0,1-3.506.141,1.849,1.849,0,0,1-.3-.04A15.644,15.644,0,0,0,47.14,127c-.354-.243-.268-.745-.6-1-.6-.691-1.023-1.539-1.955-1.936a4.571,4.571,0,0,0-5.133.792c-.133.113-.258.235-.386.353a1.182,1.182,0,0,0-.587,1.146c-.3.73-.209,1.556-.566,2.272a26.643,26.643,0,0,1-5.391.528c-.719.047-.626-.421-.624-.854-.128-.464.291-.632.513-.9.238-.288.607-.567.259-.953a.76.76,0,0,0-1.159.007,2.769,2.769,0,0,0-.24.25,5.837,5.837,0,0,0-.728,1.522c-.105.225-.125.62-.566.39q0-3.042.01-6.084c.346-.02.719.124,1.025-.157a2.5,2.5,0,0,1,1.914-.725,2.321,2.321,0,0,0,1.692-3.09,3.631,3.631,0,0,0-1.4-2.011c-.392-.219-.223-.475.125-.612a2.9,2.9,0,0,1,1.2-.192,29.458,29.458,0,0,0,8.959-1.274,18.353,18.353,0,0,1,3.581-.625" transform="translate(-7.879 -31.13)" fill="#f6f1ed"/>
      <path id="Path_5506" data-name="Path 5506" d="M30.145,107.945l-.744.825c-.382-.389-.273-.8-.3-1.187a23.025,23.025,0,0,0-.171-4.006c-.621-.786-.086-1.448.235-2.132.217-.536.285-1.115.407-1.383-.091.31-.251.9-.433,1.481-.485.232-.427-.19-.455-.407a14.542,14.542,0,0,1-.033-1.564c-.082-1.619-.242-3.235-.187-4.857-.008-.4-.632-.549-.441-1.032a1.582,1.582,0,0,1,2.3,1.63c.013,1.135-.427,2.294.185,3.4-.1.9-.37,1.776-.464,2.681-.015.139-.148.293-.1.413.5,1.217-.179,2.447.058,3.664a2.754,2.754,0,0,1-.153,1.936c-.235.419.271.326.3.538" transform="translate(-7.357 -25.578)" fill="rgba(180,166,128,0.6)"/>
      <path id="Path_5507" data-name="Path 5507" d="M31.828,118.921a25.116,25.116,0,0,1-1.731,2.1c-.262-.1-.2-.262-.2-.389-.063-1.468-.03-2.946-.2-4.4a3.3,3.3,0,0,1,1.591-3.12c.687-.063.711.36.563.816a1.307,1.307,0,0,0,.172,1.285q.074.517.147,1.033a5.208,5.208,0,0,1-.334,2.677" transform="translate(-7.798 -30.926)" fill="rgba(180,166,128,0.6)"/>
      <path id="Path_5508" data-name="Path 5508" d="M31.923,120.1c.036-.612-.223-1.274.289-1.809.271-.284-.691-.616.045-.868a3.21,3.21,0,0,0,.976.84,2.195,2.195,0,0,1,.465,3.549c-.238.286-.509.546-.764.817a10.051,10.051,0,0,1-1.914.726c-.116-.009-.232-.011-.346-.031-.212-.036-.493.132-.618-.158-.111-.259.1-.419.25-.594.6-.7,1.2-1.4,1.785-2.106.156-.188.418-.343.3-.665-.251-.044-.285.243-.469.3" transform="translate(-7.893 -32.108)" fill="rgba(180,166,128,0.6)"/>
      <path id="Path_5509" data-name="Path 5509" d="M30.71,109.866c-.437-.074-.73-.3-.489-.743a1.991,1.991,0,0,0,.144-1.4,4.221,4.221,0,0,1,.117-2.359.557.557,0,0,0,.029-.423c-.625-1,.153-1.987.009-2.976-.073-.5.6-.845.294-1.391l.254.06,1.085.679a10.509,10.509,0,0,1-.424,2.263,5.753,5.753,0,0,0,.206,2.283,2.537,2.537,0,0,0,.15,1.4,1.131,1.131,0,0,0-.042,1.221c.094.174.319.4-.077.512-.663-.047-.762.692-1.257.879" transform="translate(-7.921 -27.5)" fill="rgba(180,166,128,0.6)"/>
      <path id="Path_5510" data-name="Path 5510" d="M27.573,93.736c.08.376.453.469.691.695a12.819,12.819,0,0,0-.06,3.076c0,.8.039,1.612.111,2.416a10.441,10.441,0,0,1,.024,1.806c-.669-.343-1.729-2.624-1.833-3.827a10.7,10.7,0,0,1-.179-3.145c.334-.437.63-.92,1.247-1.02" transform="translate(-6.907 -25.63)" fill="rgba(180,166,128,0.6)"/>
      <path id="Path_5511" data-name="Path 5511" d="M32.419,111.5c.147-.43-.372-.635-.346-1.08.023-.389.066-.6.465-.654.472.378.946.752,1.414,1.135a1.38,1.38,0,0,1-.195,2.507,5.649,5.649,0,0,0-1.166.89c-.912-.191-.558-.874-.37-1.269.253-.532-.055-.639-.365-.832l.562-.7" transform="translate(-8.374 -30.013)" fill="rgba(180,166,128,0.6)"/>
      <path id="Path_5512" data-name="Path 5512" d="M32.386,106.136c-.652-.48-.558-1.193-.495-1.831a26.52,26.52,0,0,1,.484-2.622c.009-.044.149-.062.228-.092a5.068,5.068,0,0,0,.423.3,1.761,1.761,0,0,1,.434,3.031c-.408.378-.708.82-1.075,1.218" transform="translate(-8.371 -27.778)" fill="rgba(180,166,128,0.6)"/>
      <path id="Path_5513" data-name="Path 5513" d="M96.294,59.247a4.559,4.559,0,0,1-1.938-1.418c1.126-.165,1.445.742,1.938,1.418" transform="translate(-24.803 -15.807)" fill="#dfd7cc"/>
      <path id="Path_5514" data-name="Path 5514" d="M86.347,52.636c-.355.218-.442.792-1,.716-.061-.008-.167-.15-.153-.173.254-.434.76-.358,1.148-.543" transform="translate(-22.396 -14.392)" fill="#dfd7cc"/>
      <path id="Path_5515" data-name="Path 5515" d="M96.444,57.443c.056-.082.092-.162.111-.158.3.061.582-.334.878-.024a.216.216,0,0,1,.017.149,1.3,1.3,0,0,1-1.005.033" transform="translate(-25.352 -15.624)" fill="#dfd7cc"/>
      <path id="Path_5516" data-name="Path 5516" d="M102.463,122.742c.055-.828.447-1.221,1.335-1.072a.937.937,0,0,0,1.221-.8,1.439,1.439,0,0,1,.321-.611.882.882,0,0,0-.041-1.3c-.249-.312-.764-.775-.507-1.082a4.821,4.821,0,0,1,1.783-1.359c.3-.124.452.3.686.457.392.261.59.836,1.214.716.477.03.652.3.649.749a14.376,14.376,0,0,1-.015,2.323c-.15.78-1.005,1.147-1.161,1.924a3.349,3.349,0,0,0,.583,3.118,1.608,1.608,0,0,1,.385.674.875.875,0,0,1,0,.256c-.1.517.833.6.559,1.012a1.682,1.682,0,0,0-.443,1.03.989.989,0,0,1-.724,1.049c-.029.006-.069.028-.085.017-.967-.667-1.911-.856-2.822.1-.1.107-.328.131-.4.015-.4-.636-1.1-1.046-1.387-1.753-.175-.43.28-.583.484-.836.326-.4.885-.641.593-1.371s-.307-1.561-1.448-1.577c-.568-.008-1.195-.234-.773-1.084.08-.161,0-.4-.005-.6" transform="translate(-26.9 -31.854)" fill="#705225"/>
      <path id="Path_5517" data-name="Path 5517" d="M40.732,133.131a5.451,5.451,0,0,1,.355-2.426c.133-.11.013-.5.387-.344.3.351-.032,1.033.36,1.168.5.173.489-.593.864-.8.3-.169.571-.281.883-.057.174.387-.139.586-.336.819a1.478,1.478,0,0,0,1.418,2.364,1.4,1.4,0,0,0,1.179-1.335c.024-.369-.107-.756.1-1.108.7-.279.7.394.958.7.16.19.174.617.551.18.108-.126.282.012.371.113.226.261.421.255.632-.012a.456.456,0,0,1,.3-.163c.862-.124.862-.125,1.343-.632a6.13,6.13,0,0,1,1.94.134.265.265,0,0,1,.159,0c.414.336.9.138,1.357.175a6.765,6.765,0,0,1,1.482.127.893.893,0,0,0,.86-.315q0-.684.01-1.369a.193.193,0,0,1,.234-.009.857.857,0,0,1,.245.538c.167,1.065.206,1.081,1.344,1.085a7.485,7.485,0,0,0,1.834-.032c.084-.02.22-.043.255,0,.658.873,1.66.312,2.458.584a.608.608,0,0,0,.343.059c1.163-.332,2.2.387,3.327.375a1.471,1.471,0,0,1,.59.171c.24.133.448.312.388.618a.6.6,0,0,1-.607.538,22.233,22.233,0,0,1-3.152-.058c-1.9-.358-3.838-.5-5.767-.667-1.521-.135-3.024-.411-4.532-.623-1.546-.219-2.654.118-3.324,1.552l-1.062,1.42c-.349.239-.728.434-1.061.7h0c-.286.332-.774.044-1.072.34H44.622c-.3-.3-.785,0-1.067-.341-1.2-.727-2.445-1.415-2.558-3.04-.01-.148-.173-.286-.265-.429" transform="translate(-10.702 -35.63)" fill="#d7d2b5"/>
      <path id="Path_5518" data-name="Path 5518" d="M87.674,124.431a1.227,1.227,0,0,0,1.917-.923c.032-.5.161-.833.725-.851.652-.067,1.072.076,1.207.844.142.809,1.3.926,2.169.272.181.57-.251.688-.638.812a5.464,5.464,0,0,1-.784.071c-.285.047-.646.063-.722.384-.069.288.327.266.467.426.364.414.8.75,1.183,1.146a.7.7,0,0,1,.181.931c-.412.121-.52-.259-.726-.45a2.027,2.027,0,0,0-1.3-.727,1.978,1.978,0,0,0-2.228,1.111A2.171,2.171,0,0,0,89.69,130a6.722,6.722,0,0,1,.514.464c.125.716-.277,1.421-.052,2.14-.711-.154-1.419-.375-1.964.394-.178.252-.463.035-.6-.123a1.875,1.875,0,0,0-1.605-.49q-4.08.01-8.161,0c-.286,0-.572-.04-.857-.061,2.934-.012,5.869-.079,8.8,0,.9.023,1.158-.506,1.471-1.046s-.234-.9-.417-1.327c-.1-.235-.352-.262-.611-.207-.78.163-.829-.394-.935-.92-.115-.57.077-.83.677-.947a1.173,1.173,0,0,0,.638-1.909c-.475-.469-.439-.809.023-1.2.291-.311.518-.822,1.064-.329" transform="translate(-20.232 -33.534)" fill="rgba(112,82,37,0.69)"/>
      <path id="Path_5519" data-name="Path 5519" d="M52.693,135.349c.342-1.7,1.151-2.011,3.025-1.843,2.379.214,4.718.724,7.113.879a22.55,22.55,0,0,1,3.98.541,2.506,2.506,0,0,0,1.816-.112c.139-.073.279-.152.4-.03.4.419.769.224.859-.177.075-.331-.279-.589-.68-.61-.088-.005-.176,0-.265-.005.056-.4.324-.235.543-.2.9.1,1.011.725.994,1.438-.287,1.138-.388,1.178-1.613,1.208-1.9.046-3.749-.406-5.646-.454-.826-.021-1.708-.2-2.57-.254a1.538,1.538,0,0,0-1.6-.268,1.563,1.563,0,0,1-1.412-.07c-1.182-.1-2.386.179-3.547-.307a1.731,1.731,0,0,0-1.39.262" transform="translate(-13.851 -36.494)" fill="#d7d2b5"/>
      <path id="Path_5520" data-name="Path 5520" d="M98.336,128a.735.735,0,0,0-.275-.846c-.574-.369-.822-1.091-1.579-1.3-.326-.089-.639-.444.018-.759a2.479,2.479,0,0,1,1.252-.26c.5.026.86-.132.974-.655.6-.207,1.185.165,1.534.982-.527.522-.834,1.012-.223,1.742a.843.843,0,0,0,.744.411c.349-.008.716-.054.95.3.035.533.342,1.109-.246,1.545-1.053.067-1.456.653-1.228,1.785a.462.462,0,0,1,.4.493c-.054.485.041,1.026-.513,1.323-.341.436-.674.112-1.008-.012-.361-.553-.8-.253-1.232-.115-.786-.11-.921-.322-.557-.95a5.25,5.25,0,0,0,.577-1.667c.024-.338.2-.644.2-.985.034-.353-.057-.731.212-1.036" transform="translate(-25.266 -33.939)" fill="rgba(112,82,37,0.69)"/>
      <path id="Path_5521" data-name="Path 5521" d="M110.439,133.584a1.734,1.734,0,0,0,.525-1.546c-.053-.389-.035-.754.57-.477-.116-.521-1.238-.477-.555-1.248a.422.422,0,0,1,.5,0,3.366,3.366,0,0,0,2.967.214.57.57,0,0,1,.585.009c.195.994-.62.389-.942.552.015.2.034.328.293.343a.931.931,0,0,1,.965.632,1.257,1.257,0,0,1-.369,1.263c-.3.318-.3.319.225.483-1.049.123-1.386.794-1.449,1.739-.033.49-.253.768-.874.533a3.243,3.243,0,0,0-1.213-.01c-.531.024-.722-.2-.683-.728.046-.637.223-1.347-.54-1.756" transform="translate(-29.031 -35.609)" fill="#705225"/>
      <path id="Path_5522" data-name="Path 5522" d="M97.59,132.277c.116.021.287.144.232.179-.624.395-.27,1.2-.828,1.709-.452.411.139.546.538.543.274.078.658-.179.817.257l-.965.114c-.49.352-.074.966-.4,1.364-.192.056-.39.1-.575.169-.9.353-1.072.278-1.3-.658-.066-.278-.07-.571-.377-.719-.712-.674-.107-1.346,0-2.018.017-.059.054-.134.094-.129a4.879,4.879,0,0,0,2.76-.811" transform="translate(-24.813 -36.168)" fill="rgba(112,82,37,0.69)"/>
      <path id="Path_5523" data-name="Path 5523" d="M29.972,133.389c.531-.087.29-.6.492-.881.273-.38.261-.93.706-1.224.451.65.15,1.419.343,2.11-.092.594-.554.99-.838,1.479a9.657,9.657,0,0,0-.687,1.46q-.008-1.471-.017-2.943" transform="translate(-7.879 -35.897)" fill="#cfc2a9"/>
      <path id="Path_5524" data-name="Path 5524" d="M31.941,133.176c-.1.015-.259.144-.271-.019-.046-.7-.052-1.394-.073-2.092a1.023,1.023,0,0,1,1.245-.532.747.747,0,0,1,.414,1.3c-.3.347-.624.681-.936,1.02a.6.6,0,0,0-.379.322" transform="translate(-8.306 -35.679)" fill="#f6f1ed"/>
      <path id="Path_5525" data-name="Path 5525" d="M59.39,135.97a4.306,4.306,0,0,0,1.659-.281.916.916,0,0,1,1.356.619c-.777,0-1.553,0-2.33-.007-.273,0-.6.075-.685-.331" transform="translate(-15.612 -37.068)" fill="#d7d2b5"/>
      <path id="Path_5526" data-name="Path 5526" d="M101.575,135.487a2.483,2.483,0,0,0,.374-1.394c.175,0,.233.139.312.254a.9.9,0,0,0,.176,1.046,1.159,1.159,0,0,1-.862.094" transform="translate(-26.701 -36.665)" fill="rgba(112,82,37,0.26)"/>
      <path id="Path_5527" data-name="Path 5527" d="M99.469,135.766c-.259-.127-.616.052-.816-.257.439-.477.885-.336,1.3.022.136.119-.111.155-.15.248l-.329-.012" transform="translate(-25.933 -36.968)" fill="#705225"/>
      <path id="Path_5528" data-name="Path 5528" d="M49.812,138.708a.964.964,0,0,1,1.061-.7.87.87,0,0,1-1.061.7" transform="translate(-13.094 -37.736)" fill="#d7d2b5"/>
      <path id="Path_5529" data-name="Path 5529" d="M102.3,134.094l-.313-.254-.256-.422c.186-.025.237-.422.54-.159.33.287.038.557.029.835" transform="translate(-26.743 -36.412)" fill="#f1eaf4"/>
      <path id="Path_5530" data-name="Path 5530" d="M44.569,138.965c.36.1.86-.226,1.066.341-.365-.084-.886.305-1.066-.341" transform="translate(-11.716 -37.996)" fill="#d7d2b5"/>
      <path id="Path_5531" data-name="Path 5531" d="M48.359,139.306c.208-.571.706-.251,1.072-.339-.185.642-.705.254-1.072.339" transform="translate(-12.712 -37.994)" fill="#d7d2b5"/>
      <path id="Path_5532" data-name="Path 5532" d="M103.4,130.473c.57-.44.1-1.04.247-1.545.122.547.563,1.143-.247,1.545" transform="translate(-27.181 -35.253)" fill="#f1eaf4"/>
      <path id="Path_5533" data-name="Path 5533" d="M97.9,137.5c.2-.436-.349-1.087.4-1.364-.249.421,0,.987-.4,1.364" transform="translate(-25.733 -37.223)" fill="#f1eaf4"/>
      <path id="Path_5534" data-name="Path 5534" d="M124.44,110.991a3.966,3.966,0,0,1-2.82.876.868.868,0,0,0-.871.281,1.372,1.372,0,0,1-1.724.12c-.288-.2-.514-.294-.781-.126-.829.519-1.671.206-2.536.154a16.378,16.378,0,0,1-3.224-.594c-.315-.084-.607-.11-.4-.538a11.178,11.178,0,0,0,3.941-1.785,6.631,6.631,0,0,1,8.419,1.612" transform="translate(-29.445 -29.674)" fill="#f6f1ed"/>
      <path id="Path_5535" data-name="Path 5535" d="M104.624,101.091q.546-1.3,1.093-2.6a17.127,17.127,0,0,1,4.608,1.41c.269.152.742.185.75.5.01.368-.484.318-.751.458a6.293,6.293,0,0,1-5.7.23" transform="translate(-27.503 -26.93)" fill="#f6f1ed"/>
      <path id="Path_5536" data-name="Path 5536" d="M94.823,115l3.935-5c.59.137,1.244.072,1.739.519a38.056,38.056,0,0,1-4.776,5.824c-.2.211-.391.649-.732.487-.309-.147-.108-.578-.137-.881s-.021-.634-.029-.952" transform="translate(-24.924 -30.079)" fill="#fbfbfb"/>
      <path id="Path_5537" data-name="Path 5537" d="M124.3,75.821c-.784-.1-1.083-1.221-.606-2.368.453.763.3,1.621.606,2.368" transform="translate(-32.454 -20.084)" fill="#f6f1ed"/>
      <path id="Path_5540" data-name="Path 5540" d="M111.231,120.36c-.33-.7-.06-1.458-.142-2.188a1.158,1.158,0,0,0-.422-.963,1.213,1.213,0,0,1,.374-.194,1.606,1.606,0,0,0,1.625-1.7c.017-.45.33-.642.791-.573a3.293,3.293,0,0,0,.35.017c1.525.064,1.59.065,1.558,1.545-.014.682.5.743.822,1.051-.442.494-.924.953-.644,1.735.17.474-.571.654-.49,1.141a.6.6,0,0,1-.5.023c-1.123-.429-2.216-.042-3.317.11" transform="translate(-29.091 -31.369)" fill="#705225"/>
      <path id="Path_5541" data-name="Path 5541" d="M114.752,128.889a3.906,3.906,0,0,1-4.048-.221,3.578,3.578,0,0,1-1.062-3.984c.692-.037,1.152.48,1.723.727a2.909,2.909,0,0,0,3.8-.817c.279-.321.594-.617.972-.092.748,1.706.306,3.109-1.383,4.388" transform="translate(-28.757 -33.964)" fill="#fdfdfd"/>
      <path id="Path_5542" data-name="Path 5542" d="M116.223,123.81a.536.536,0,0,0-.819.181,2.933,2.933,0,0,1-3.951.97,13.848,13.848,0,0,1-1.723-.968,3.929,3.929,0,0,1,1.255-1.73,3.843,3.843,0,0,1,3.822-.132,3.026,3.026,0,0,1,1.417,1.679" transform="translate(-28.845 -33.273)" fill="#f6f1ed"/>
      <path id="Path_5543" data-name="Path 5543" d="M28.19,105.395a42.762,42.762,0,0,1,.093,5.281l-2.408-2.5a2.243,2.243,0,0,0,.2-1.624,21.3,21.3,0,0,1-.084-3.44,5.056,5.056,0,0,1,.248-2.941c.283-.032.305.2.394.372.559,1.061.891,2.22,1.519,3.259a2.338,2.338,0,0,1,.039,1.593" transform="translate(-6.802 -27.389)" fill="#cfc2a9"/>
      <path id="Path_5544" data-name="Path 5544" d="M26.7,113.1c.519.469,1.037.941,1.558,1.409.376.338.282.831.312,1.224.139,1.8-.018,3.613.254,5.632L26.344,118.5c.085-.98.184-1.96.249-2.941a3.741,3.741,0,0,0-.21-1.34c-.184-.56.129-.782.318-1.128" transform="translate(-6.921 -30.924)" fill="#cfc2a9"/>
      <path id="Path_5545" data-name="Path 5545" d="M28.318,105.2a5.283,5.283,0,0,0-.791-2.844c-.346-.81-.771-1.588-1.161-2.38,0-.187-.046-.388.161-.511l1.6,3.634.157,0v-1.538c-.077-.18-.158-.361.169-.355q.019.9.04,1.792c0,.024.013.063.029.069.133.05.1-.078.136-.129a.126.126,0,0,1,.2.007A5.189,5.189,0,0,0,28.5,105.2l-.184.007" transform="translate(-6.93 -27.198)" fill="#f6f1ed"/>
      <path id="Path_5546" data-name="Path 5546" d="M69.232,89.735a8.256,8.256,0,0,1-4.8-2.249,8.962,8.962,0,0,0-.989-1.385,1.552,1.552,0,0,1-.347-1.662,2.686,2.686,0,0,0,.079-1.029,14.676,14.676,0,0,1,.063-3.541,12.287,12.287,0,0,0-.126-3.022c.138-.392.493-.342.8-.384,1.361-.179,1.744-.929,1.087-2.07-.385-.668-.955-1.375-.47-2.164s1.375-.652,2.16-.629c1.622.047,2.127.9,1.412,2.344-.116.234-.237.464-.352.7-.455.925-.19,1.505.81,1.832a7.638,7.638,0,0,0,2.09.169c.459.02.944-.112,1.361.2.021.45-.352.365-.609.426a1.456,1.456,0,0,1-.436.018c-2.128-.166-2.141.759-1.734,2.293.14.527.538,1.115-.3,1.45-.868.564-1.044,2.652-.284,3.282.331.275.823.061,1.126.392.079.127.154.3.077.406-.579.818-.3,1.765-.416,2.648-.1.753-.086,1.516.935,1.885a1.15,1.15,0,0,1-1.137.1" transform="translate(-16.558 -19.572)" fill="#d7d2b5"/>
      <path id="Path_5547" data-name="Path 5547" d="M83.5,90.944a15.178,15.178,0,0,0-6.372.339c-.372-.564-.041-1.131.035-1.678a14.908,14.908,0,0,0,.071-2.6,3.356,3.356,0,0,0-.668-1.585,11.688,11.688,0,0,1-.008-1.968,4.669,4.669,0,0,0,.722-4.12c-.061-.31-.046-.634-.1-.95a.544.544,0,0,1,.144-.4,1.88,1.88,0,0,1,1.007-.177,18.888,18.888,0,0,1,3.571.182,2.635,2.635,0,0,1,1.008.493.989.989,0,0,1,.26,1.5,7.239,7.239,0,0,0-.389.675c-.682,1.222-.611,1.481.644,2.366A2.043,2.043,0,0,1,83.6,85.08a5.521,5.521,0,0,0-.126,2.739c.076.717.2,1.431.261,2.148a1.1,1.1,0,0,1-.226.977" transform="translate(-20.115 -21.275)" fill="#b4a680"/>
      <path id="Path_5548" data-name="Path 5548" d="M52.852,72.507c-.3-.243-.063-.484.027-.7A6.766,6.766,0,0,1,54.1,69.7a11.875,11.875,0,0,0,1.993-3.224,8.282,8.282,0,0,1,5.96-5.074,5.5,5.5,0,0,1,2.264-.11c.04.5-.329.59-.687.581a6.207,6.207,0,0,0-2.093.413c.135.021.455-.106.483.123.055.448-.489.416-.719.7.154.2.519.1.622.37.116.3-.122.482-.266.691a.9.9,0,0,0-.121.666,4.792,4.792,0,0,1-.543,2.766,1.308,1.308,0,0,1,1.111-.541c.206.02.428.039.515.261.1.254-.11.357-.278.472-.285.195-.607.354-.723.761.275.089.576-.177.819.057a.377.377,0,0,1,.055.254c-.942.676-1.02,1.042-.494,2.148a6.719,6.719,0,0,0,.333.606c.7,1.152.268,1.925-1.153,2.063-1.2.081-2.393.078-3.589.071a14.029,14.029,0,0,1-4.069-.744,1.233,1.233,0,0,1-.671-.51" transform="translate(-13.855 -16.739)" fill="rgba(230,186,149,0.47)"/>
      <path id="Path_5549" data-name="Path 5549" d="M60.308,78.4c.2.031.244.112.274.335a27.8,27.8,0,0,1-.121,4.622c-.035,1.071.371,2.164-.145,3.221-.077.158-.085.519.085.558.871.2.453,1.335,1.227,1.589.084.028.028.209-.077.288-.094-.062-.221-.1-.276-.19a2.783,2.783,0,0,0-3-1.192A4.43,4.43,0,0,1,53.6,84a6.2,6.2,0,0,0-.719-1.746,6.333,6.333,0,0,1-.546-5.084,12.012,12.012,0,0,1,1.468.256,23.52,23.52,0,0,0,5.69.733,1.129,1.129,0,0,1,.813.243" transform="translate(-13.683 -21.1)" fill="#d7d2b5"/>
      <path id="Path_5550" data-name="Path 5550" d="M98.213,79.724a5.607,5.607,0,0,1-2.4,7.92,4.929,4.929,0,0,1-1.677.45c-.565.063-.675.243-.551.774a2.619,2.619,0,0,1-.921,2.948,1.52,1.52,0,0,1-.4.15A2.45,2.45,0,0,1,91.7,90.2c-.093-3.086-.042-6.174-.039-9.261,0-.58-.119-1.15-.139-1.724-.024-.74-.415-.775-.992-.631-.442.11-.84.457-1.345.271-.256-.157-.135-.349-.053-.538a1.652,1.652,0,0,1,1.274-.5c.77-.014,1.539,0,2.308-.012.338-.016.675,0,1.012.01a9.686,9.686,0,0,1,3.854,1.227,1.368,1.368,0,0,1,.636.684" transform="translate(-23.403 -21.272)" fill="#b4a680"/>
      <path id="Path_5551" data-name="Path 5551" d="M73.023,60.039c.52-.421,1.227-.315,1.79-.614a.545.545,0,0,1,.785-.076c.257.21.164.543.083.812a11.708,11.708,0,0,0-.467,3.67,3.78,3.78,0,0,0,.192,1.1,1.3,1.3,0,0,0,1.852.894c.325-.112.617-.352,1-.252.393.589-.116.779-.489.916a3.191,3.191,0,0,0-1.069.7,2.414,2.414,0,0,1,1.659.518c.2.14.562.331.17.66-.544.117-.93-.305-1.413-.4a1.47,1.47,0,0,0-1.877,1.487,23.969,23.969,0,0,0,.009,2.865c.015.257.1.518-.077.756-.54.537-1.224.223-1.835.276a7.392,7.392,0,0,1-3.189-.235,1.612,1.612,0,0,1-.249-2.111,3.171,3.171,0,0,0,.414-2.049,3.219,3.219,0,0,1-.026-1.112c.077-.6.255-1.024,1.1-.719-.2-.7-.309-1.311-.458-1.907a2.46,2.46,0,0,1-.106-1.436.727.727,0,0,0-.046-.5,1.862,1.862,0,0,1,1.285-2.715c.352-.122.742-.183.966-.533" transform="translate(-18.299 -16.191)" fill="rgba(230,186,149,0.47)"/>
      <path id="Path_5552" data-name="Path 5552" d="M88.177,78.9c.784-.029,1.417-.679,2.25-.525.228.043.385-.015.418.358a55.035,55.035,0,0,1,.112,6.742c-.056,1.657.168,3.3.05,4.96a6.524,6.524,0,0,0,.324,1.683,1.363,1.363,0,0,1-1.622.283,24.982,24.982,0,0,0-3.849-1.306c.078-1.648-.488-3.25-.357-4.9.025-.315-.06-.653.139-.929a1.921,1.921,0,0,0,.039-2c.449-.406,1-.218,1.512-.239,1.549-.065,1.924-.7,1.2-2.06a3.82,3.82,0,0,1-.57-1.163.781.781,0,0,1,.352-.9" transform="translate(-22.472 -21.423)" fill="#b4a680"/>
      <path id="Path_5553" data-name="Path 5553" d="M89,73.684a2.394,2.394,0,0,0-1.045.368,1.244,1.244,0,0,0-.266,1.768,6.066,6.066,0,0,1,.7,1.478.874.874,0,0,1-.64,1.209,4.837,4.837,0,0,1-2.586.038c-.7-.156-.856-.618-.759-1.237a3.725,3.725,0,0,1,.58-1.347c.656-1.071.646-.936-.186-1.918a1.8,1.8,0,0,0-.456-.51c-.155-.155-.274-.376-.076-.522.6-.447.442-1.074.45-1.657a4.943,4.943,0,0,1,.265-1.941c.111-.262.212-.565-.27-.582-.234-.741.182-1.549-.251-2.266-.074-.317-.495-.471-.421-.857.45-.772,1.193-1.489.446-2.476a1.055,1.055,0,0,1-.217-.559.609.609,0,0,1,.323-.654.493.493,0,0,1,.624.162c.175.2.338.4.646.364a1.759,1.759,0,0,0,.9.243,4.385,4.385,0,0,1,2.782.663c-.877.706-.824,1.681-.815,2.656.016,1.672,0,3.344.007,5.016,0,.963-.057,1.971,1.185,2.327-.234.363-.639.071-.925.236" transform="translate(-22.089 -16.943)" fill="rgba(248,237,227,0.8)"/>
      <path id="Path_5554" data-name="Path 5554" d="M99.59,77.008a9.828,9.828,0,0,0-4.38-1.7,2.046,2.046,0,0,1-.944-1.835c0-1.207-.006-2.414,0-3.621a3.014,3.014,0,0,1,.08-.684c.253-1.037.515-1.254,1.576-1.309a6.4,6.4,0,0,1,4.442,4.992,11.366,11.366,0,0,1-.149,3.7c-.072.378-.192.607-.63.453" transform="translate(-24.78 -18.556)" fill="rgba(248,237,227,0.8)"/>
      <path id="Path_5555" data-name="Path 5555" d="M71.416,60.349a.57.57,0,0,1-.563.655c-.772,0-1.057.652-1.553,1.008-.254.183-.447.62-.283.849.779,1.083.212,2.382.655,3.5a3.134,3.134,0,0,1,.138.408c.07.288.573.5.267.823s-.7-.015-1.126-.113c.17.569-.358,1.074.01,1.617a.406.406,0,0,1-.381.094,1.836,1.836,0,0,1-.559-.4c-.466-.318-1-.176-1.506-.218-.419-.035-.866.128-1.25-.166-.355-.089-.593.179-.9.3-.36-.942.393-1.149,1-1.5-.865-.612-1.222.333-1.863.665.019-.709.445-1.128.551-1.662a4.437,4.437,0,0,0,.081-1.71c-.033-.174-.127-.367.011-.491,1.111-1,.051-.794-.522-.849.109-.642.736-.6,1.162-.926-.383-.236-.9.1-1.2-.339,1.126.037,2.1-.661,3.215-.494.1.015.237-.225.357-.347a.834.834,0,0,1,.254-.049,4.114,4.114,0,0,0,3.412-.542c.138-.111.393-.081.594-.117" transform="translate(-16.692 -16.501)" fill="rgba(230,186,149,0.47)"/>
      <path id="Path_5556" data-name="Path 5556" d="M94.821,66.809c-1.079.371-1.4.844-1.4,2.092,0,.723.005,1.447,0,2.17-.011,1.114-.138,2.249.686,3.187l-1.037-.01c-.518-.178-1.085.1-1.594-.166l-.066-.057c-.349-.3-1.075.222-1.162-.345a8.646,8.646,0,0,1-.184-1.35c.01-2.306-.015-4.612.016-6.918.01-.663.175-1.319,1.052-1.4a1.756,1.756,0,0,1,1.221,1.528c.1.4.267.653.653.7.65.072,1.191.449,1.818.576" transform="translate(-23.675 -17.502)" fill="rgba(248,237,227,0.8)"/>
      <path id="Path_5557" data-name="Path 5557" d="M84.038,61.844c-.345.27-.51-.07-.725-.216-.162-.11-.3-.323-.522-.15a.466.466,0,0,0-.1.691c.363.41.363.958.635,1.393.03.049.085.094.09.145a2.392,2.392,0,0,1-.014.324c-1-.357-.3,1.223-1.179,1.01-1.079.428-2.239.594-3.326,1.023a1.138,1.138,0,0,1-1.46-.809,7.2,7.2,0,0,1,.545-5.641,4.414,4.414,0,0,1,3.291.33,6.581,6.581,0,0,1,2.768,1.9" transform="translate(-20.266 -16.243)" fill="rgba(248,237,227,0.8)"/>
      <path id="Path_5558" data-name="Path 5558" d="M71.4,94.28h.784c-.7-.122-.784-.592-.862-1.192-.125-.965.453-1.937-.074-2.89-.08-.145.114-.235.271-.254.444-.056.33-.4.357-.671a4.316,4.316,0,0,1,2.452-1.057c.815-.132,1.48.542,1.584,1.612a17.7,17.7,0,0,1-.242,3.711c-.077.677-.567.869-1.165.915A10.341,10.341,0,0,1,71.4,94.28" transform="translate(-18.723 -24.116)" fill="#d7d2b5"/>
      <path id="Path_5559" data-name="Path 5559" d="M71.81,132.579c-.191.039-.415-.009-.543.2a5.235,5.235,0,0,0-1.636-.133,3.29,3.29,0,0,1-.326.049c-.193-.738-.8-.158-.9-.221-.9-.605-2.174.639-2.882-.6a.341.341,0,0,0-.306-.108,6.764,6.764,0,0,1-2.074.082c-1.209.07-1.454-.118-1.465-1.343a2.188,2.188,0,0,0-.125-.5c.32-.379.892.034,1.2-.372q.035-.237.07-.473a3.392,3.392,0,0,1,1.8,0c.358.022.447.309.464.626s-.069.642.185.905c.378.017.756.04,1.134.047.143,0,.4,0,.414-.055.328-1.171,1.311-.529,1.989-.712.348.091.319.363.3.623-.025.347.17.441.479.457.336.017.473-.138.5-.45a4.89,4.89,0,0,0,.09-.682c-.035-.522.222-.612.689-.589.528.025.632.278.578.729-.069.57-.076,1.147-.159,1.715a.637.637,0,0,0,.523.813" transform="translate(-16.182 -35.277)" fill="#d7d2b5"/>
      <path id="Path_5560" data-name="Path 5560" d="M74.073,93.332A1.438,1.438,0,0,0,75.149,91.8c.007-.836.158-1.67.161-2.506.007-1.83-.8-2.356-2.484-1.668-.456.187-.921.353-1.382.528-1.2-.039-1.538-.273-1.751-1.207a2.225,2.225,0,0,1,.881-2.677c.474-.007.977-.432,1.412.1-.138.344-.467.309-.745.342a.9.9,0,0,0-.913.785c-.079.624-.218,1.286.3,1.808a.9.9,0,0,0,.994.1c.555-.189,1.1-.416,1.658-.583.5-.147,1.025-.31,1.489.116,1.319,1.2.9,2.746.844,4.208a14.809,14.809,0,0,1-.3,1.859c-.321.445-.781.378-1.238.328" transform="translate(-18.294 -22.995)" fill="#d7d2b5"/>
      <path id="Path_5561" data-name="Path 5561" d="M77.867,59.491a12.838,12.838,0,0,0-.652,4.256,3.73,3.73,0,0,0,.222,1.184,1.212,1.212,0,0,0,1.743.75,5.793,5.793,0,0,1,2.926-.763c.179.241.562.311.589.681a.457.457,0,0,1-.373.105c-.7-.411-1.42-.052-2.13-.076-.3-.072-.484.163-.718.259-1.359.556-2.229.159-2.525-1.258a8.835,8.835,0,0,1,.342-4.507c.208-.658.052-.881-.624-.768.434-.564.757-.527,1.2.136" transform="translate(-20.154 -16.122)" fill="#705225"/>
      <path id="Path_5562" data-name="Path 5562" d="M53.7,77.413a1.955,1.955,0,0,1-1.263-.357l.343-.3.557.242c.027.219.451.1.363.417" transform="translate(-13.785 -20.987)" fill="#ebc8a3"/>
      <path id="Path_5563" data-name="Path 5563" d="M91.113,124.969c-.466-.241-.732.149-1.064.329.24-.47.431-1.1,1.064-.329" transform="translate(-23.671 -34.072)" fill="#8f457f"/>
      <path id="Path_5564" data-name="Path 5564" d="M50.153,130.826c-.007,1.033-.009,1.038-.922.685-.191-.073-.353-.09-.434.114-.512,1.288-.646.06-1.011-.185l-.214.744c-.652-.445-.537-1.424-1.312-1.705a21.88,21.88,0,0,0-2.444-.691.846.846,0,0,0-1.028.57c-.135.4-.4.756-.733.706-.433-.064-.371-.562-.374-.926,0-.228.005-.456.007-.684-.028-.3.175-.506.329-.729,1.872-2.572,6.317-2.3,7.594.568.032.074.118.125.178.187.3.362.056.864.327,1.234.013.037.024.075.037.113" transform="translate(-10.956 -34.714)" fill="#d7d2b5"/>
      <path id="Path_5565" data-name="Path 5565" d="M59.993,132.251c-.233.6-.489.855-1.224.472a4.643,4.643,0,0,0-1.718-.109c-.293-.017-.681.134-.758-.349l3.7-.014" transform="translate(-14.798 -36.161)" fill="#d7d2b5"/>
      <path id="Path_5566" data-name="Path 5566" d="M65.728,130.614c-.263,0-.392-.163-.342-.387.217-.977-.47-1.059-1.144-1.135a8.764,8.764,0,0,0-.958-.009c1.588-.729,2.415-.211,2.444,1.531" transform="translate(-16.636 -35.208)" fill="#d7d2b5"/>
      <path id="Path_5567" data-name="Path 5567" d="M55.287,132.122l-2.138.012h0a.261.261,0,0,1,.024-.388,5.218,5.218,0,0,1,2.116.377" transform="translate(-13.951 -36.023)" fill="#d7d2b5"/>
      <path id="Path_5568" data-name="Path 5568" d="M62.7,129.848c-.22.69-.818.2-1.2.372l-.085-.009-.086.01c.293-.713.932-.189,1.373-.373" transform="translate(-16.121 -35.5)" fill="#d7d2b5"/>
      <path id="Path_5569" data-name="Path 5569" d="M53.062,131.385c-.008.129-.015.259-.024.388-.676-.3-.213-.9-.362-1.345.389.217.346.6.386.957" transform="translate(-13.842 -35.663)" fill="#d7d2b5"/>
      <path id="Path_5570" data-name="Path 5570" d="M41.89,129.39a.948.948,0,0,1-.329.729l-.348.334a.869.869,0,0,1,.677-1.063" transform="translate(-10.829 -35.379)" fill="#d7d2b5"/>
      <path id="Path_5571" data-name="Path 5571" d="M29.019,99.907l-.169.355a8.381,8.381,0,0,1-.171-2.569,12.589,12.589,0,0,0-.133-2.507c-.067-.239-.039-.476.305-.494q.084,2.608.167,5.215" transform="translate(-7.496 -25.892)" fill="#f6f1ed"/>
      <path id="Path_5572" data-name="Path 5572" d="M29.678,103.588l-.2-.007q.274-.893.55-1.785l.2.048-.543,1.744" transform="translate(-7.748 -27.834)" fill="#f6f1ed"/>
      <path id="Path_5573" data-name="Path 5573" d="M44.249,130.833a2.435,2.435,0,0,1,2.444.691,7.823,7.823,0,0,1,.042,1.444,1.593,1.593,0,0,1-1.448,1.269,1.61,1.61,0,0,1-1.677-.823,1.571,1.571,0,0,1,.1-1.933c.188-.2.5-.323.537-.648" transform="translate(-11.389 -35.758)" fill="#fbfaf5"/>
      <path id="Path_5574" data-name="Path 5574" d="M97.187,130.939a2.788,2.788,0,0,1-2.854.939c-1.84-1.135-1.979-3.264-.28-4.245a1.966,1.966,0,0,1,1.512-.177,9.764,9.764,0,0,1,1.911,2.614q-.145.434-.289.868" transform="translate(-24.411 -34.83)" fill="#705225"/>
      <path id="Path_5575" data-name="Path 5575" d="M98.44,130.1a11.606,11.606,0,0,1-1.911-2.614c1,0,1.416.773,1.915,1.431q0,.591,0,1.183" transform="translate(-25.375 -34.858)" fill="#ecdcf0"/>
      <path id="Path_5576" data-name="Path 5576" d="M72.276,82.943c-.42-.37-.946-.064-1.4-.211.335-.158.582-.3.313-.755a6.393,6.393,0,0,1-.442-1.917c-.094-.408.647-1.092,1.124-1.128a7.594,7.594,0,0,0,2.165-.124c.391-.472.906-.3,1.4-.259a5.3,5.3,0,0,1,.134,4.339,1.3,1.3,0,0,1-1.935.741,5.177,5.177,0,0,1-1.272-.565c-.028-.041-.056-.081-.083-.123" transform="translate(-18.595 -21.46)" fill="#d7d2b5"/>
      <path id="Path_5577" data-name="Path 5577" d="M70.928,76.718a2.718,2.718,0,0,0-1.383.182,23.3,23.3,0,0,1-3.411-.2c-1.309-.355-1.652-1.089-1.031-2.253.178-.332.365-.66.529-1,.391-.809.158-1.352-.733-1.564a4.6,4.6,0,0,0-1.924-.014c-.812.155-1.071.728-.719,1.489a10.24,10.24,0,0,0,.545.982c.723,1.2.192,2.2-1.241,2.345-.28.028-.6-.092-.831.163a29.476,29.476,0,0,1-6.707-.874c-.091-.164-.363-.175-.363-.417a16.381,16.381,0,0,0,4,.783,21.42,21.42,0,0,0,3.98,0c1.136-.262,1.37-.737.837-1.7-.17-.305-.35-.6-.5-.919-.5-1.049-.311-1.575.717-2.1,1-.044,2.012-.355,2.967.2l.433.319c.526.847.011,1.556-.351,2.255-.511.987-.5,1.244.279,1.939a9.313,9.313,0,0,0,4.908-.04.222.222,0,0,1,0,.412" transform="translate(-14.106 -19.552)" fill="#a78359"/>
      <path id="Path_5578" data-name="Path 5578" d="M82.948,71.257c.244-.083.136-.62.511-.46.353.152.069.506,0,.679a8.585,8.585,0,0,0-.325,3.33c0,.449-.136.721-.647.664.1.469.7.416.635.867a16.63,16.63,0,0,0-3.945-.3c-.226.017-.467-.062-.676.089l-.96,0c-.368-.244-.359-.653-.388-1.006a16.675,16.675,0,0,1-.013-2.5,1.574,1.574,0,0,1,1.7-1.657c.634.1,1.154.5,1.777.66a2.661,2.661,0,0,0,2.326-.365" transform="translate(-20.267 -19.35)" fill="rgba(248,237,227,0.8)"/>
      <path id="Path_5579" data-name="Path 5579" d="M74.918,87.068c-1.025-.254-1.877.291-2.778.6-.556.187-1.109.48-1.632-.038a3.056,3.056,0,0,1-.165-2.5c.307-.674.873-.557,1.429-.519.116.009.234,0,.352,0l-.009-.007a6.083,6.083,0,0,0,2.82.863l.24.08c-.281.476.126,1.064-.255,1.524" transform="translate(-18.442 -23.126)" fill="#b4a680"/>
      <path id="Path_5580" data-name="Path 5580" d="M79,78.069a9.1,9.1,0,0,1,4.621.209,1.375,1.375,0,0,1,.282,2.109c-.419.6-1.019,1.343-.525,2.06.462.671,1.378.5,2.133.484,1.39-.035,1.734-.589,1.151-1.823-.2-.419-.454-.814-.629-1.241a.993.993,0,0,1,.6-1.466l-.159.365c-.484.781.086,1.372.414,1.97.84,1.528.394,2.356-1.336,2.385-.524.009-1.047,0-1.572.007-1.335-.545-1.547-1.2-.8-2.481.1-.175.19-.359.294-.534.561-.942.3-1.558-.795-1.853A16.1,16.1,0,0,0,79,78.069" transform="translate(-20.767 -21.291)" fill="#b4a680"/>
      <path id="Path_5581" data-name="Path 5581" d="M75.632,83.806a3.307,3.307,0,0,1-2.82-.863,6.741,6.741,0,0,1,1.552.526,1.117,1.117,0,0,0,1.63-.772,5.933,5.933,0,0,0,.123-3.13c-.06-.31-.1-.623-.154-.934l.048-.068a.317.317,0,0,1,.388.022,11.271,11.271,0,0,1,.28,3.131,3.007,3.007,0,0,1-1.047,2.088" transform="translate(-19.14 -21.467)" fill="#d7d2b5"/>
      <path id="Path_5582" data-name="Path 5582" d="M77.445,76.5l-.387-.021c-.017-.115-.033-.23-.049-.344a11.906,11.906,0,0,1-.148-3.546,1.652,1.652,0,0,1,2.289-1.61c.013.15-.018.244-.195.142-1.146,0-1.66.469-1.725,1.686a11.152,11.152,0,0,0,.231,3.349c0,.115-.01.229-.015.344" transform="translate(-20.187 -19.381)" fill="#705225"/>
      <path id="Path_5583" data-name="Path 5583" d="M63.06,78.165a9.89,9.89,0,0,1-3.979,0H63.06" transform="translate(-15.531 -21.373)" fill="#ebc8a3"/>
      <path id="Path_5584" data-name="Path 5584" d="M68.872,71.816a8.794,8.794,0,0,0-2.968-.2.4.4,0,0,1-.013-.171c.779,0,1.558-.007,2.337,0,.282,0,.606-.044.644.376" transform="translate(-17.32 -19.534)" fill="#e5b094"/>
      <path id="Path_5585" data-name="Path 5585" d="M91.659,77.872c.526.113,1.09-.142,1.6.166l-2.486,0c.263-.235.6-.094.89-.162" transform="translate(-23.861 -21.292)" fill="#dccdbc"/>
      <path id="Path_5586" data-name="Path 5586" d="M80.672,67.984c.7-.333,1.4-.721,2.122-.037a2.544,2.544,0,0,1,.066,2.662,1.34,1.34,0,0,1-1.956-.047,2.627,2.627,0,0,0-2.411-.953c.637-.279.866-1.1,1.7-1.071.154.005.443-.261.478-.554" transform="translate(-20.634 -18.475)" fill="rgba(230,186,149,0.47)"/>
      <path id="Path_5587" data-name="Path 5587" d="M81.23,70.7c1.489.6,2.018.282,2.076-1.245a4.408,4.408,0,0,0-.186-1.37l.381.007a3.667,3.667,0,0,1,.138,2.429c-.475.92-1.275.89-2.088.626a19.458,19.458,0,0,1-1.824-.793l.194-.141,1.31.488" transform="translate(-20.958 -18.617)" fill="#705225"/>
      <path id="Path_5588" data-name="Path 5588" d="M70.106,76.589c-1.031-.479-1.126-.814-.557-1.795.43-.739,1-1.45.627-2.4l.282,0a3.69,3.69,0,0,1-.573,2.52c-.4.554-.066,1.141.22,1.675" transform="translate(-18.191 -19.795)" fill="#c49d75"/>
    </g>
  </g>
</svg>
