<svg id="Group_1277" data-name="Group 1277" xmlns="http://www.w3.org/2000/svg" xmlns:xlink="http://www.w3.org/1999/xlink" width="104.974" height="101.026" viewBox="0 0 104.974 101.026">
  <defs>
    <clipPath id="clip-path">
      <rect id="Rectangle_1902" data-name="Rectangle 1902" width="104.974" height="101.026" fill="none"/>
    </clipPath>
  </defs>
  <g id="Group_1137" data-name="Group 1137" clip-path="url(#clip-path)">
    <path id="Path_16902" data-name="Path 16902" d="M4.994,63c-.044.748-.424.976-1.164.882-1.27-.162-2.552-.238-3.829-.35V39.191l3.641.493a2.067,2.067,0,0,0-.417,2.194,13.91,13.91,0,0,1,.1,3.325,3.644,3.644,0,0,0,.327,1.745,3.108,3.108,0,0,1,.193,1.427,26.054,26.054,0,0,0,.379,4.4,23.31,23.31,0,0,1,.517,6.357,2.628,2.628,0,0,0,.513,2.156A1.685,1.685,0,0,1,4.994,63" transform="translate(0 -11.177)" fill="#373b5d"/>
    <path id="Path_16906" data-name="Path 16906" d="M82.9.1a12.841,12.841,0,0,1-.914,4.39c-.455.98-1.16,1.008-1.936.26C78.881,3.626,79.063,2.3,79.347.94A3.2,3.2,0,0,0,79.475.1Z" transform="translate(-22.569 -0.03)" fill="#deeafa"/>
    <path id="Path_16907" data-name="Path 16907" d="M47.818.1a9.436,9.436,0,0,1-1.059,3.254c-.322.678-.883.7-1.3.074A2.507,2.507,0,0,1,45.427.775c.109-.225.345-.387.334-.671Z" transform="translate(-12.852 -0.03)" fill="#deeafa"/>
    <path id="Path_16908" data-name="Path 16908" d="M145.946,3.16a5.449,5.449,0,0,0-1.51.121c-.375.124-.647-.012-.442-.476a6.216,6.216,0,0,0,.41-2.73c.514,0,1.229-.2,1.486.056s.056.971.056,1.486Z" transform="translate(-41.046 0)" fill="#fdfdfd"/>
    <path id="Path_16909" data-name="Path 16909" d="M20.182,93.146a6.689,6.689,0,0,1-1.7-4.766c.164-2.683-1.467-4.264-3.465-5.618a4.551,4.551,0,0,1-1.79-4.623,9.084,9.084,0,0,1,2.5-4.648,42.678,42.678,0,0,0,4.478-4.656,6.171,6.171,0,0,0,1.363-2.767.4.4,0,0,1,.282-.174c2.646-.113,4.83-1.565,7.205-2.469a37.974,37.974,0,0,0,7.793-4.352c.217-.039.43.046.649.019.617-.074.387-.336.134-.6a.935.935,0,0,1,.985-.9c.1.005.211.146.255.107.07-.062-.061-.164-.056-.265a.861.861,0,0,1,.722-.712c.272-.021.231.361.481.382.121-.257-.113-.492-.031-.741.495-.861,1.442-1.014,2.229-1.41.222-.112.489-.128.725-.222.653-.112,1.157-.727,1.892-.566.263.269.49.57.965.389.355-.135.067-.289.067-.437a.7.7,0,0,1,.311-.347,1.282,1.282,0,0,1,.432-.2,2.411,2.411,0,0,0,1.545-.317,2.638,2.638,0,0,1,.939-.155c.272.024.644.419.738-.205a.445.445,0,0,1,.53-.118c.9.373,1.041.332,1.7-.518,1.947-.881,3.976-1.559,5.926-2.432.388.066.276.347.258.593s.061.468.325.523c.279.058.291-.2.363-.375.182-.45.621-.818.442-1.386.229-.35.493-.625.967-.46.184.258.35.526.751.33a.411.411,0,1,1,.5.652,2.44,2.44,0,0,0-.575,1.731c-.105,1.346-.538,1.542-1.623.791a2.458,2.458,0,0,0-3.347.856,1.62,1.62,0,0,1-1.082.327c-.112-.008-.277,0-.315-.084-.3-.616-.356-.1-.482.094a.592.592,0,0,1-.2.107c-.427.028-.906-.124-1.2.352-1.418.635-2.93,1.031-4.335,1.7a1.683,1.683,0,0,1-.655.025c-.211-.028-.53-.179-.319.279-1.467,1.032-3.056,1.87-4.547,2.87a16.53,16.53,0,0,1-5.745,2.576,4.629,4.629,0,0,1-.926.154,2.128,2.128,0,0,0-.662.024c-.241.091,0,.123.051.174.5.172,1.034.18,1.535.339.247.18.522.107.794.108s.583-.054.613.359c-1.119.931-2.53.944-3.857,1.216-.194.04-.4.015-.649.069a7.886,7.886,0,0,0,1.78.395c.55.092.658.377.228.728a5.482,5.482,0,0,0-1.808,2.642,8.986,8.986,0,0,0-.475,3.089,7,7,0,0,1,1.379-1.858c.214-.187.475-.448.748-.264.311.21.058.525-.049.766a9.251,9.251,0,0,0,.022,7.239,8.6,8.6,0,0,1,.613-3.179c.109-.264.242-.585.568-.561.3.022.337.362.391.6.3,1.34.9,2.59,1.193,3.931.028.375-.139.746-.016,1.11-.026.125.172.029.057.026-.052,0-.066-.018-.066-.051.007-.207.024-.4.319-.337a3.574,3.574,0,0,1,.879,1.633c.695,1.644,1.543,3.245,1.517,5.117A2.915,2.915,0,0,1,40.4,87.07a6.314,6.314,0,0,0-1.1,1.187,1.074,1.074,0,0,0,.229,1.647,7.846,7.846,0,0,0,.923.615,1.648,1.648,0,0,1,.711,2.462c-.506,1.052-.505,1.051.422,1.7.16.112.367.217.152.46a15.662,15.662,0,0,1-3.65,1.192,28.491,28.491,0,0,1-7.009,1,13.727,13.727,0,0,0-2.22.087,1.83,1.83,0,0,1-1.374-.352c-.322-.457.093-.648.327-.9.182-.134.4-.214.583-.347a1.156,1.156,0,0,0,.08-2.036c-.487-.425-1.109-.7-1.445-1.293a1.845,1.845,0,0,1,.5-2.234,3.476,3.476,0,0,0,.406-.433c.963-1.269.723-2.3-.706-3.033-.567-.289-1.268-.42-1.425-1.2a4.378,4.378,0,0,1-.066-1.943c.1-.9.27-1.846-.64-2.5a1.19,1.19,0,0,0-1.431.143,3.07,3.07,0,0,0-1.507,2.619,20.625,20.625,0,0,0,.117,2.976,4.754,4.754,0,0,1-.208,2.439,5.586,5.586,0,0,1-.749,1.142A3.1,3.1,0,0,0,20.4,92.7a.494.494,0,0,1-.214.444" transform="translate(-3.746 -13.88)" fill="#e9f3fb" opacity="0.55"/>
    <path id="Path_16910" data-name="Path 16910" d="M42.313,50.151A6.66,6.66,0,0,0,39.4,51.7a.966.966,0,0,1-.512.345,1.82,1.82,0,0,0-.693.683.288.288,0,0,1-.168.167,1.582,1.582,0,0,0-1.021.866,1.049,1.049,0,0,1-.694.683,44.154,44.154,0,0,1-4.39,2.838c-1.949.949-3.915,1.862-5.933,2.655-.526.206-1.066.386-1.568.64a6.235,6.235,0,0,1-3.533.733A43.17,43.17,0,0,1,11.984,60.3c-.623-.132-.853.177-1.022.66-.321-.31-.21-.69-.144-1.047.4-2.159.628-4.344,1.05-6.5a6.236,6.236,0,0,0,.046-.938,3.029,3.029,0,0,1,.215-1.142,6.974,6.974,0,0,0,.3-1.941c.357-2.65.785-5.288,1.185-7.931.041-.28-.039-.664.413-.724,2.352.107,4.524-.771,6.766-1.255a81.3,81.3,0,0,0,8.4-2.506,37.656,37.656,0,0,0,7.949-3.545,8.925,8.925,0,0,1,4.829-1.437c-.031.449-.442.378-.7.484a1.3,1.3,0,0,0-.941,1.362c.023.483.018.97,0,1.454A1.388,1.388,0,0,0,41,36.743a.776.776,0,0,1,.3,1.114,3.093,3.093,0,0,0-.285,1.5c.026,1.065.6,1.538,1.674,1.347a18.446,18.446,0,0,1,5.014-.2c.352.034.829-.033.868.478.037.478-.41.53-.757.66a24.091,24.091,0,0,1-5.44.891c-.833.109-1.027.259-.894,1.079a34.367,34.367,0,0,1,.238,5.034,2.6,2.6,0,0,0,.59,1.509" transform="translate(-3.064 -9.124)" fill="#fbd7d4"/>
    <path id="Path_16911" data-name="Path 16911" d="M106.453,45.989c.392-.383.934-.244,1.377-.3a12.979,12.979,0,0,1,6.523.6,10.33,10.33,0,0,1,4.407,3.373A14.753,14.753,0,0,1,121.7,59.836a21.747,21.747,0,0,1-1.3,5.443,18.791,18.791,0,0,0-1.283,4.992c-.035.811.186,1.035.909.673a5.341,5.341,0,0,1,2.433-.282c.485-.011.548.254.262.594a4.189,4.189,0,0,1-2.786,1.8c-.529.05-.64.315-.422.751a1.976,1.976,0,0,1,.31,1.136,8.017,8.017,0,0,1-2.433-.919c-.365-.127-.247-.475.016-.68a6.233,6.233,0,0,1,1.044-.584c.216-.111.505-.2.319-.547-.232-.07-.306.122-.425.227-.24.208-.489.456-.825.246s-.234-.537-.146-.849a5.119,5.119,0,0,0,.271-2.077c-.611.365-.969.9-1.495,1.228a3.047,3.047,0,0,0-1.282,2.874,1.3,1.3,0,0,1-.094.748,7.445,7.445,0,0,1-2.431,1.407.9.9,0,0,1-.24-1.019,5.791,5.791,0,0,0-.531-3.8,4.493,4.493,0,0,0-1.122,1.868c-.466,1.232-1.087,2.49-.19,3.831.327.489.047.938-.387,1.251s-.794.943-1.364.687c-.523-.234-.165-.88-.222-1.339a7.937,7.937,0,0,1-.007-.941,3.57,3.57,0,0,0-1.094-3.014c-.35-1.9-.5-3.837-.967-5.724-.289-1.159-.722-2.282-.909-3.468.738-1.821.537-3.736.563-5.63a38.934,38.934,0,0,1,.074-4.085c.052-.44-.214-.587-.533-.757-.447-.237-1.026-.151-1.387-.581.272-.523.726-.3,1.112-.243a8.788,8.788,0,0,0,3.548-.241c.389-.106.793-.219.9-.68.117-.5-.218-.792-.558-1.063s-.7-.48-1.046-.736c-.4-.3-.478-.576-.027-.939,1-.8.985-.942.031-1.788-.363-.322-.758-.6-1.144-.889-.227-.171-.592-.305-.394-.723" transform="translate(-29.67 -12.989)" fill="#e9f3fb" opacity="0.55"/>
    <path id="Path_16912" data-name="Path 16912" d="M54.021,50.105c-.559-.159-.771-.355-.806-1.1-.092-1.949.133-3.926-.367-5.857-.165-.638.35-.929.861-.889,1.382.108,2.676-.477,4.064-.408.716.036,1.4-.524,2.16-.618a.264.264,0,0,0,.214-.321c-.032-.167-.174-.209-.325-.214a19.425,19.425,0,0,0-5.4.234,1.437,1.437,0,0,1-1.939-1.439,2.738,2.738,0,0,1,.377-1.88c.328-.417-.03-.748-.4-.821-.624-.123-.66-.535-.663-1.011,0-.571,0-1.142,0-1.713,0-1.5.158-1.685,1.683-1.972.074-.014.136-.1.2-.147a1.452,1.452,0,0,1,.167,0,1.854,1.854,0,0,1,1.089-.066,31.4,31.4,0,0,0,4.421.159,1.153,1.153,0,0,1,.664.081c4.007.108,8,.39,12,.69A15.61,15.61,0,0,1,78.97,35.15c.528.318,1.185.413,1.613.914-.279.256-.585.149-.883.056-.487-.154-.7.061-.728.525-.034.54-.015,1.079-.016,1.619,0,1.648.019,3.3-.009,4.944-.016.9.119,1.644,1.144,1.9a.816.816,0,0,1,.52.414c-.2.52-.6.286-.919.222a19.339,19.339,0,0,1-3.325-1.053c-1.112-.447-2.277-.727-3.377-1.181-.708-.292-1.1.332-1.659.422a1.861,1.861,0,0,0-.863.51c-.3.531-.863.554-1.36.7a43.561,43.561,0,0,1-5.123,2.1c-.295.093-.585.2-.878.3a1.98,1.98,0,0,1-1.711.515c-.189,0-.39-.036-.518.161-.184.231-.393.363-.683.172l-1.026.172c-.475.3-1.1-.094-1.545.342l-.343.172c-.44.044-.821.3-1.257.359l-.112-.01c-.7.028-1.2.6-1.89.666" transform="translate(-14.771 -9.078)" fill="#f9ceca"/>
    <path id="Path_16913" data-name="Path 16913" d="M93.365,127.226a16.343,16.343,0,0,1,6.164,1.47,3.622,3.622,0,0,1,1.06.847c.741.754.542,1.426-.451,1.789a9.133,9.133,0,0,1-2.232.482c-1.722.174-3.452.351-5.18.357-9.709.034-19.419.011-29.129.024-1.078,0-2.164.218-3.232.139a54.67,54.67,0,0,0-6.062-.127,39.758,39.758,0,0,0-5.316.293,10.424,10.424,0,0,1-1.773-.134c-1.8-.021-3.6-.039-5.4,0-5.364.112-10.721-.244-16.085-.2-1.555.014-3.112-.209-4.667-.33-.466-.036-.683-.261-.7-.771-.08-1.933.109-2.011,2.056-2.177a6.054,6.054,0,0,1,3.817.7l.091.074c.228.312.351.69.6.988.074.087-.027.022.064.028s-.017-.126.016-.2a1.029,1.029,0,0,1,.1-.207c.2-.323.14-.847.7-.888a4.243,4.243,0,0,1,.432.152c.136-.2-.025-.418.02-.622.132-.6.452-1.005,1.109-.943a8.25,8.25,0,0,0,2.878-.2,1.579,1.579,0,0,1,1.427.4c.444.366.7.2.893-.276a4.477,4.477,0,0,0,.168-1.346c.029-.333-.125-.773.4-.895.3.34.205.756.21,1.146a4.049,4.049,0,0,0,2.7,4.038,4.2,4.2,0,0,0,4.983-1.6c.083-.116.155-.239.245-.352a1.067,1.067,0,0,1,1.117-.438c4.638.428,9.28.8,13.918,1.227.941.086,1.828.085,2.41-.836a3.027,3.027,0,0,1,1.338-.217c2.043.169,4.09.016,6.134.079,1.064.033,2.167-.222,3.165.4a.6.6,0,0,0,.64-.105,1.438,1.438,0,0,1,.882-.264,1.456,1.456,0,0,1,1.462,1.062A.564.564,0,0,0,75,130.2c.3-.027.615-.132.626-.46.032-.939.638-1.081,1.379-1.082a1.856,1.856,0,0,1,.5.032,2.381,2.381,0,0,0,.942-.06c.235-.024.486-.124.688.14-.059-.212-.275-.33-.274-.55a2.214,2.214,0,0,0-.312-.873,1.508,1.508,0,0,1,.726-2.187.746.746,0,0,0,.53-.764c0-.448-.293-.546-.644-.652a1.438,1.438,0,0,1-1.029-2.124.585.585,0,0,0-.208-.8c-.282-.216-.541-.3-.824-.011a.879.879,0,0,1-.44.251c-.918.02-1.8,0-2.063-1.167-.089-.4-.59-.3-.826-.545a6.55,6.55,0,0,1-.322-4.069c.374-.212.345.129.407.312.1.288-.059.628.17.9.342.007.5-.264.675-.465a38.518,38.518,0,0,0,4.1-5.132.907.907,0,0,1,.5-.446c1.483.1,3,.043,4.31.927.626.423,1.37.267,2.04.465a10.543,10.543,0,0,0,3.118.758,3.159,3.159,0,0,1,2.083.523c-.175.648-.914.421-1.257.811a4.97,4.97,0,0,1-.934-.016c-1.267-.026-1.283-.034-1.681,1.2a1.132,1.132,0,0,1-.984.81,1.979,1.979,0,0,0-.5.09,1.275,1.275,0,0,1-1.675-.37c-.507-.515-1.97-.023-2.1.7-.067.361.214.638.371.935a2.069,2.069,0,0,1-1.616,2.937c-.73.011-1.034.292-1.078.994-.059.945.036,1.152.932,1.288a1.169,1.169,0,0,1,1.056.92c.327.963.482,1.81-.494,2.5-.308.217-.266.54-.039.831.192.248.377.5.569.751a.6.6,0,0,0,.956.137,1.573,1.573,0,0,1,2.167-.038c.336.2.73.322.929.7.236.512-.072,1.112.264,1.605a4.133,4.133,0,0,0,1.49.294c.437.084.621-.222.65-.6a1.472,1.472,0,0,1,1.283-1.469,1.693,1.693,0,0,1,1.97.226,1.292,1.292,0,0,0,2.151-.806.646.646,0,0,1,.1-.316" transform="translate(-5.803 -31.498)" fill="#deeafa"/>
    <path id="Path_16914" data-name="Path 16914" d="M108.44,105.151a3.977,3.977,0,0,1-3.01-.856c-.471-.362-1.047-.116-1.571-.273a10.953,10.953,0,0,0-1.932-.242,1.862,1.862,0,0,1-1.756-.344,1.168,1.168,0,0,1,.286-.783c.861-1.442,1.745-2.871,2.46-4.395.118-.252.239-.53.582-.564a6.751,6.751,0,0,0,5.88-.616,13.165,13.165,0,0,0-3.34-1.331c-.557-.154-1.21-.031-1.652-.542a3.647,3.647,0,0,1,.7-2.144.673.673,0,0,1,1.046.1c1.42,1.572,3.179,1.731,5.1,1.23.215-.056.511-.069.571-.312.083-.332-.258-.4-.466-.514a10.714,10.714,0,0,0-3.638-1.423c-.615-.078-.753-.463-.367-.969a5.511,5.511,0,0,1,1.964-1.48.707.707,0,0,1,.863.174c1.347,1.353,3.019,1.285,4.719,1.092.217-.065.44-.113.651-.2a.432.432,0,0,0,.247-.2,5.216,5.216,0,0,0-1.793-1.137c-.625-.271-1.294-.432-1.9-.748-.587-.308-.615-.589-.122-1.025a6.7,6.7,0,0,1,1.573-1,1.116,1.116,0,0,1,1.291.351,2.12,2.12,0,0,0,1.407.67,4.04,4.04,0,0,0,3.174-.517c.416.421.107,1.051.485,1.524.545.68.969,1.454,1.46,2.177a22.252,22.252,0,0,1,3.026,5.179,7.563,7.563,0,0,1,.315,4.318,7.018,7.018,0,0,1-3.573,4.456c-.177.243-.3.587-.715.347a1.439,1.439,0,0,0-.634-1.049c-2.478-1.927-4.954-2.016-7.9-.214a20.679,20.679,0,0,1-2.123,1.085,1.65,1.65,0,0,1-1.312.174" transform="translate(-28.566 -24.688)" fill="#e9f3fb" opacity="0.55"/>
    <path id="Path_16915" data-name="Path 16915" d="M91.326,47.225c-.264-.156-.518-.421-.795-.448-1.036-.1-1.087-.82-1.087-1.589q-.005-3.457,0-6.914c0-1.049.216-1.172,1.215-.759a2.891,2.891,0,0,0,.662.107c2.29,1.231,4.593,2.438,6.864,3.7,1.114.62,2.179,1.331,3.239,2.039a1.517,1.517,0,0,0,.868.272c.26.63.936.778,1.393,1.183,1.583,1.4,1.6,1.528-.153,2.692.533.361,1.056.687,1.548,1.057a1.215,1.215,0,0,1,.638,1.293c-.139.561-.621.649-1.1.8a11.5,11.5,0,0,1-4.725.152c-.482.283-.872-.108-1.306-.175a2.865,2.865,0,0,0-.467-.122,1.759,1.759,0,0,1-.878-.39,9.458,9.458,0,0,0-.881-.407c-1.6-.67-3.017-1.752-4.741-2.157-.159-.037-.338-.1-.3-.34" transform="translate(-25.508 -10.637)" fill="#f8c9c5"/>
    <path id="Path_16916" data-name="Path 16916" d="M6.242,61.5c-.417-.55-1.44-.884-.608-1.871.243-.287-.144-.645-.1-.985a16.119,16.119,0,0,0-.445-5.39c-.387-1.876-.006-3.8-.5-5.536-.516-1.8-.285-3.532-.42-5.29a3.1,3.1,0,0,0-.25-.808c-.317-.892-.1-1.349.8-1.739,1.543.042,3.061.328,4.591.485.95.1.164.773.391,1.107.252.382.079.773.013,1.156-.412,2.407-.818,4.816-1.2,7.229-.53,2.993-.959,6.005-1.55,8.987A5.7,5.7,0,0,1,6.242,61.5" transform="translate(-1.078 -11.374)" fill="#373b5d"/>
    <path id="Path_16917" data-name="Path 16917" d="M120.594,129.339c.5.72-.114.994-.543,1.336-.966.769-.992.793-1.869-.074a1.385,1.385,0,0,0-1.635-.221c-.529.136-.568-.172-.374-.5a1.294,1.294,0,0,0-.213-1.762c-.241-.239-.146-.4.1-.516a1.2,1.2,0,0,0,.491-.564,13.629,13.629,0,0,0,1.107-1.516,3.129,3.129,0,0,0-.3-3.087,6.138,6.138,0,0,0-.574-.974,6.257,6.257,0,0,1,.326-3.244.461.461,0,0,1,.56-.041,1.738,1.738,0,0,0,2.183-.144c.292-.224.7-.311.928.175a2.763,2.763,0,0,0,.172.288c.328.425.881.821.934,1.276.059.5-.635.8-.994,1.184a.492.492,0,0,0-.107.673.905.905,0,0,1,.149.4,1.5,1.5,0,0,0,1.67,1.549c.5.019.693.294.58.786a3.122,3.122,0,0,0-.026.34c-.169,1.478-.169,1.493-1.64,1.539-.4.012-.641.113-.761.51a1.669,1.669,0,0,1-.318.6,1.3,1.3,0,0,0,.157,1.991" transform="translate(-33.031 -33.611)" fill="#9cb4cc"/>
    <path id="Path_16920" data-name="Path 16920" d="M121.078,116.565a.58.58,0,0,0-.891.006,1.437,1.437,0,0,1-2.139.166,1.52,1.52,0,0,0-.553-.163c-.349.125-.493-.1-.533-.369a2.566,2.566,0,0,1,.152-1.826c.106-.752.867-.425,1.233-.749a1.571,1.571,0,0,1,1.847-.414,1.2,1.2,0,0,0,.666.074,27.053,27.053,0,0,0,3.529-.772c.269-.07.524-.235.815-.087.3.024.447-.247.685-.342.212.786,1,1.121,1.393,1.785.379.642.9,1.237.513,2.009a2.333,2.333,0,0,1-2.463.958c-.715-.169-1.406-.456-2.127-.578s-1.5-.385-2.127.3" transform="translate(-33.331 -31.967)" fill="#deeafa"/>
    <path id="Path_16922" data-name="Path 16922" d="M7.156,65.476q.926-5.326,1.855-10.652c.059-.335.136-.665.2-1,.749-.021.989.4,1.031,1.087a11,11,0,0,0,.563,2.991c.222.628-.143,1.152-.233,1.7.2-.3.039-.8.5-.987-.214,1.626-.416,3.254-.645,4.879a35.464,35.464,0,0,0-.545,3.688c-.1.4-.37.312-.662.269-.745-.109-1.495-.19-2.242-.283q.085-.848.17-1.7" transform="translate(-1.992 -15.351)" fill="#365997"/>
    <path id="Path_16923" data-name="Path 16923" d="M11.971,55.27c-.319.412-.252.951-.436,1.415a.337.337,0,0,1-.224-.495c.692-.955-.046-1.842-.115-2.753a17.952,17.952,0,0,1-.277-1.961c.01-.324.068-.87-.608-.659-.03.009-.134-.221-.2-.34.408-2.8.849-5.6,1.4-8.377a4.123,4.123,0,0,1,1.169.121c1.224.124,1.225.121,1.174,1.395-.283,1.706-.573,3.41-.846,5.117-.193,1.207-.365,2.417-.545,3.625a8.547,8.547,0,0,0-.309,1.9l-.178,1.007" transform="translate(-2.882 -12.001)" fill="#365997"/>
    <path id="Path_16924" data-name="Path 16924" d="M78.534,13.87a39.532,39.532,0,0,1-.205,6.529,13.591,13.591,0,0,1-.436,2.419c-.25.775-.495,1.569-1.4,1.75-.53.106-1.6-1.352-1.707-2.118a6.806,6.806,0,0,1,.43-3.315,16.874,16.874,0,0,1,3.317-5.265" transform="translate(-21.313 -3.956)" fill="#deeafa"/>
    <path id="Path_16926" data-name="Path 16926" d="M27.32,26.455a8.942,8.942,0,0,1,1.865-3.981,20.986,20.986,0,0,1,2.452-2.462c.147-.136.307-.308.518-.175s.081.347.026.534c-.572,1.943-.806,3.974-1.57,5.871a10.761,10.761,0,0,1-1.06,2c-.4.588-.9.583-1.44.117a2.992,2.992,0,0,1-.79-1.9" transform="translate(-7.792 -5.644)" fill="#deeafa"/>
    <path id="Path_16927" data-name="Path 16927" d="M27.052,121.823a5.364,5.364,0,0,1-2.91-1.506,2.221,2.221,0,0,1-.174-3.162c1.42-1.28,1.253-2.521.349-3.916-.118-.546.4-.875.463-1.362.737-.044.984.482,1.209,1.036.006,1.074-.122,2.142-.044,3.222a3.822,3.822,0,0,1-.317,2c.053.2-.37-.049-.192.165.63.757,1.31,1.472,1.944,2.226.072.086.161.159.234.244.238.274.591.561.36.948-.206.345-.6.147-.924.11" transform="translate(-6.669 -31.906)" fill="#6fa6d6"/>
    <path id="Path_16928" data-name="Path 16928" d="M124.988,84.971c-.072.513-.4.65-.88.7a4.329,4.329,0,0,1-2.376-.014,2.376,2.376,0,0,1-.952-1.352,3.348,3.348,0,0,0-.58-1.213c-.821-1.065-.5-1.92.332-2.748.436-.407.869-.816,1.31-1.218.116-.107.229-.312.416-.165a.524.524,0,0,1,.152.373,5.947,5.947,0,0,1-.356,2.079c-.091.242-.269.515.039.672.262.133.475-.089.631-.3s.262-.58.611-.472c.208.065.251.351.281.585.059.457-.259.5-.578.554a.17.17,0,0,0-.079.032c-.355.3-1.081.318-1.089.775-.006.344.71.3,1.077.5.451.237.906.469,1.359.7l.683.516" transform="translate(-34.144 -22.504)" fill="#deeafa"/>
    <path id="Path_16929" data-name="Path 16929" d="M27.492,116.934c.27-.108.693.182.822-.228.112-.353-.271-.521-.466-.748-.683-.793-1.376-1.578-2.054-2.374-.172-.2-.339-.46.167-.272.931.369,1.222,1.388,2.066,1.973-.117-1.622.015-3.211-.1-4.8a1.978,1.978,0,0,0-.726-1.392,2.419,2.419,0,0,1-.888-1.114,4.309,4.309,0,0,0-1.032-1.031c-.212-.077-.431-.194-.328-.449s.348-.186.56-.124c.818.57,1.4,1.4,2.28,2.1-.012-.975.059-1.854-.036-2.723a22.623,22.623,0,0,1-.146-2.388,6.957,6.957,0,0,0-1.017-2.786c-.235-.52-.472-1.038-.656-1.578-.089-.261-.24-.625.1-.745.32-.112.473.252.58.508a18.66,18.66,0,0,1,1.024,2.432,44.7,44.7,0,0,1-.221-5.786c-.014-.287-.149-.676.377-.679a.408.408,0,0,1,.2.2,16.621,16.621,0,0,1,.089,2.72,3.71,3.71,0,0,0,.1,1.013,8.739,8.739,0,0,1-.044,2.74c.016.328.186.228.074.253-.042.01-.068-.01-.062-.058.086-.68-.025-1.434.706-1.869.42.487.118.988-.024,1.448-.693,2.264-.357,4.569-.327,6.862a.43.43,0,0,0,.183.345c.411-.271.7-.712,1.1-1,.208-.149.463-.532.721-.029-.029.35-.3.537-.5.773-1.4.987-1.543,2.417-1.425,3.959a25.485,25.485,0,0,1,.231,3.151,11.3,11.3,0,0,0,1.455-1.595c.2-.177.4-.526.685-.262.247.229.029.523-.142.754-.418.568-.9,1.084-1.336,1.638-.565.717-.569.714.13,1.19-.185.414-.569.291-.893.334-.129,0-.253-.038-.381-.051l-.836-.315" transform="translate(-7.109 -27.018)" fill="#b3deee"/>
    <path id="Path_16930" data-name="Path 16930" d="M41.74,12.989a12.246,12.246,0,0,1-.168,3.766,15.149,15.149,0,0,1-.435,1.981c-.127.466-.31,1.052-.9.947a1.406,1.406,0,0,1-1.14-1.22,4.275,4.275,0,0,1,.62-2.681,16.384,16.384,0,0,1,2.026-2.794" transform="translate(-11.14 -3.704)" fill="#deeafa"/>
    <path id="Path_16931" data-name="Path 16931" d="M24.885,109.537c-.67-.044-.3.274-.177.507.162.592-.205.987-.523,1.4a10.781,10.781,0,0,1-1.214-2.066c-.308-1.665.839-2.67,1.722-3.795a4.024,4.024,0,0,1,.634,3.587.635.635,0,0,1-.443.367" transform="translate(-6.537 -30.112)" fill="#6fa6d6"/>
    <path id="Path_16932" data-name="Path 16932" d="M95.251,16.527a9.036,9.036,0,0,1,1.427-2.109,9.558,9.558,0,0,1,.093,2.473,13.279,13.279,0,0,1-.5,3.513c-.149.5-.342.992-1.023.919a.774.774,0,0,1-.422-.984,7.334,7.334,0,0,0,.15-2.512,3.064,3.064,0,0,1,.271-1.3" transform="translate(-27.033 -4.112)" fill="#6fa6d6"/>
    <path id="Path_16933" data-name="Path 16933" d="M63.636,10.354a5.157,5.157,0,0,1,1.392-1.9c0,.885.03,1.771-.008,2.654a11.809,11.809,0,0,1-.5,3.355c-.156.455-.313,1.047-1.049.716a.842.842,0,0,1-.153-.56,19.649,19.649,0,0,1,.319-4.269" transform="translate(-18.057 -2.412)" fill="#6fa6d6"/>
    <path id="Path_16934" data-name="Path 16934" d="M23.884,14.774a.468.468,0,0,1-.684.3,1.4,1.4,0,0,1-.691-1.1,4.1,4.1,0,0,1,1.105-3.26,3.757,3.757,0,0,1,1.139-1.238,2.048,2.048,0,0,1,.111,1.721,19.133,19.133,0,0,1-.979,3.575" transform="translate(-6.406 -2.703)" fill="#6fa6d6"/>
    <path id="Path_16935" data-name="Path 16935" d="M119.293,36.853l1.18-1.65a19.62,19.62,0,0,1-.508,6.293,1.551,1.551,0,0,1-.513.663c-.315.189-.44-.02-.435-.267a18.939,18.939,0,0,1,.277-5.039" transform="translate(-33.934 -10.04)" fill="#6fa6d6"/>
    <path id="Path_16936" data-name="Path 16936" d="M108.6,26.865a13.272,13.272,0,0,1-.227,4.179.75.75,0,0,1-.538.614c-.335.051-.435-.292-.61-.51a1.492,1.492,0,0,1-.184-1.61,7.491,7.491,0,0,1,1.559-2.673" transform="translate(-30.485 -7.662)" fill="#deeafa"/>
    <path id="Path_16937" data-name="Path 16937" d="M134.79,27.386c-.123.887-.239,1.869-.407,2.843a.7.7,0,0,1-.564.673c-.415.059-.523-.3-.679-.545a2.016,2.016,0,0,1-.011-1.64,4.157,4.157,0,0,1,.84-1.66c.189-.239.248-.78.658-.633.3.109.072.567.164.961" transform="translate(-37.918 -7.529)" fill="#deeafa"/>
    <path id="Path_16938" data-name="Path 16938" d="M118.886,37.511c-.054.95-.06,1.906-.1,2.852-.029.768.056,1.573.036,2.365,0,.028.143.059.219.089-.286.351-.5.075-.7-.1-.924-.8-.936-1.841-.543-3.117a6.208,6.208,0,0,1,1.084-2.091" transform="translate(-33.527 -10.698)" fill="#6fa6d6"/>
    <path id="Path_16939" data-name="Path 16939" d="M26.606,134.545a5.079,5.079,0,0,0-1.812-1.761,9.73,9.73,0,0,1-2.309-1.734,2.587,2.587,0,0,1-.743-2.49.9.9,0,0,1,.926-.719,3.716,3.716,0,0,1,3.287,1.935,19.827,19.827,0,0,1,1.477,3.43.209.209,0,0,1,.231-.026c.247.224.348.463.071.738a1.6,1.6,0,0,1-.657-.192c-.343-.66-.42-1.409-.709-2.089a5.506,5.506,0,0,0-2.193-2.951c-.563-.315-1.192-.669-1.817-.164-.371.3-.193,1.2.253,1.9a6.762,6.762,0,0,0,2.227,1.819,8.183,8.183,0,0,1,2.631,2.625.245.245,0,0,1-.162.3c-.435.026-.533-.344-.719-.61Z" transform="translate(-6.175 -36.459)" fill="#365997"/>
    <path id="Path_16940" data-name="Path 16940" d="M63.313,11.11a34.588,34.588,0,0,1-.166,4.829c-.893-.292-.969-1.136-.964-1.807a4.761,4.761,0,0,1,1.13-3.022" transform="translate(-17.734 -3.169)" fill="#6fa6d6"/>
    <path id="Path_16941" data-name="Path 16941" d="M24.37,14.445c-.152-.02-.26-.039-.172-.252a13.318,13.318,0,0,0,1.04-5.044l.866-.823c.294,1.1-.771,4.788-1.734,6.119" transform="translate(-6.892 -2.375)" fill="#6fa6d6"/>
    <path id="Path_16942" data-name="Path 16942" d="M95,17.368c-.131,1.371.234,2.775-.262,4.121-.117.317.19.446.264.675a2.152,2.152,0,0,1-.991-2.673A4.39,4.39,0,0,1,95,17.368" transform="translate(-26.784 -4.953)" fill="#6fa6d6"/>
    <path id="Path_16943" data-name="Path 16943" d="M60.84,32.083a57.572,57.572,0,0,1-6.173-.174,1.609,1.609,0,0,1,1.31-.147,35.56,35.56,0,0,0,4.4.156.528.528,0,0,1,.459.166" transform="translate(-15.591 -9.039)" fill="#fbd7d4"/>
    <path id="Path_16944" data-name="Path 16944" d="M29.874,132.663a1.2,1.2,0,0,1-.152.016q-.018-3.258-.037-6.517c.054-.1.109-.191.244-.175a1.758,1.758,0,0,1,.233,1.145c0,1.59.017,3.179-.027,4.768a.884.884,0,0,1-.26.763" transform="translate(-8.466 -35.93)" fill="#365997"/>
    <path id="Path_16950" data-name="Path 16950" d="M86.7,88.477c-.964,1.951-2.061,3.826-3.191,5.684A5.583,5.583,0,0,1,82.315,96.1a13.278,13.278,0,0,1-2.623,2.985,8.683,8.683,0,0,0,.08,3.477c.018.222.063.442.1.664a1.383,1.383,0,0,0-.46.882,1.216,1.216,0,0,1-.664,1.03,1.3,1.3,0,0,1-1.444.143.609.609,0,0,0-.836.17.718.718,0,0,0,0,.867,1.491,1.491,0,0,1-.7,2.249c-.307.159-.523.317-.483.7a.8.8,0,0,0,.655.773,1.363,1.363,0,0,1,.854,2.233.979.979,0,0,1-.994.482c-2.535-.014-5.069,0-7.6-.007-.451-.04-.89.187-1.345.059-.326-.357-.19-.985-.718-1.224-.734-.219-1.214-.607-.991-1.469a3.639,3.639,0,0,0,.1-1.1c-.019-.266.069-.631-.342-.663-.329-.026-.381.282-.457.525-.051.162-.089.329-.127.495a.635.635,0,0,1-.733.555c-.66-.144-.528-.78-.748-1.2a2.14,2.14,0,0,1,.312-1.052,5.254,5.254,0,0,0,.317-3.021,1.407,1.407,0,0,0-2.093-1.249,21.3,21.3,0,0,1-5.525,1.056,6.267,6.267,0,0,1-2.526-.344,2.635,2.635,0,0,1-1.767-2.405,10.957,10.957,0,0,1-.022-1.282,1.517,1.517,0,0,0-.807-1.4c-1.336-.813-1.445-1.205-.791-2.508-.234-.1-.471-.187-.7-.287-.756-.33-.881-.7-.474-1.393.942-1.6.877-1.861-.707-2.839s-1.738-1.881-.264-3.026a3.589,3.589,0,0,0,1.224-4.257,29.811,29.811,0,0,0-2.065-5.134c-.347-.1-.145-.467-.321-.648a33.841,33.841,0,0,1-1.45-4.773,8.648,8.648,0,0,0-1.018,4.252c-1.214-1.277-1.731-5.548-.107-8.292-.568.091-.568.091-2.36,2.675-.059-2.735.34-5.146,2.883-6.937A5.679,5.679,0,0,1,41.5,65.2a16.058,16.058,0,0,0,5.124-1.236c.086-.36-.2-.2-.337-.237-.338-.086-.7.215-1.029-.07-.583-.143-1.226.006-1.765-.357-.135-.159-.278-.335.056-.413.239-.056.5.031.738-.083a13.518,13.518,0,0,0,5.523-2.036c1.922-1.14,3.736-2.459,5.729-3.483.207-.31.6-.144.853-.33,1.43-.726,2.984-1.132,4.463-1.733.367-.335.85-.181,1.268-.3a.063.063,0,0,0,.1-.023c.194-.247.5.024.714-.158a3.311,3.311,0,0,0,1.169-.2,7.754,7.754,0,0,1,3.5-.5c.5,0,1-.028,1.505-.03,3.641-.022,7.185.428,10.249,2.629a24.8,24.8,0,0,0,2.3,1.615c.43.32.857.645,1.295.958a3.956,3.956,0,0,1,.444.389q.362.374.743.731a13.357,13.357,0,0,1,2.375,3.443c.217.477.473.934.69,1.411a4.269,4.269,0,0,1,.42,1.525A36.742,36.742,0,0,1,89.5,75.988a3.469,3.469,0,0,1,.2,2.092,35.855,35.855,0,0,1-.761,4.717,2.83,2.83,0,0,1-.5,1.075,10.716,10.716,0,0,0-.684,2.046A4.674,4.674,0,0,1,86.7,88.477" transform="translate(-11.837 -15.406)" fill="#302a6d"/>
    <path id="Path_16951" data-name="Path 16951" d="M46.661,113.487l.553.066c-1.039.645-1.124,1.447-.1,1.936,1.318.632,1.51,1.585,1.411,2.866a2.468,2.468,0,0,0,2.361,2.717,16.533,16.533,0,0,0,7.075-.895c1.489-.48,2.352.054,2.546,1.618a6.333,6.333,0,0,1-.859,3.859c-.2.269-.5.255-.775.272a.862.862,0,0,0-.781.425c-.33.56-.875.442-1.38.366a1,1,0,0,1-.909-.876,1.017,1.017,0,0,0-1.683-.553,1.965,1.965,0,0,1-.968.488c-.36.045-.437.312-.461.618a1.391,1.391,0,0,1-.234.893,1.947,1.947,0,0,1-1.239.188,24.593,24.593,0,0,1-4.532-.539.99.99,0,0,1-.362-.435,2.147,2.147,0,0,0-.711-1.418,4.335,4.335,0,0,0-3.08-1.6,4.107,4.107,0,0,0-4.158,2.525c-.134.212-.232.457-.509.53a1.831,1.831,0,0,0-.147,1.4,2.945,2.945,0,0,1-.417,1.45c-.2.487-.7.129-.844-.037a1.7,1.7,0,0,0-2.022-.385,5.873,5.873,0,0,1-2.287.087.849.849,0,0,0-.923,1.124c.073.239.523.479.154.709-.264.165-.42-.312-.686-.405-.074-.026-.128-.107-.192-.164-.106-.833.613-1.281.9-1.931a7.873,7.873,0,0,1,.971-1.191c.264-.261.6-.562.229-.94a.739.739,0,0,0-1.136.055,2.366,2.366,0,0,0-.354.481,7.239,7.239,0,0,0-.54,1.126c-.117.242-.187.548-.564.5q.008-3,.014-6.008c.339-.011.7.132,1-.149.184-.34.553-.382.858-.514a3.768,3.768,0,0,0,1.807-1.512,1.881,1.881,0,0,0-.448-2.658c-.428-.367-.956-.638-1.222-1.177-.061-.362-.41-.782.2-1.012,1.695.538,3.422.131,5.126.109a23.488,23.488,0,0,0,4.753-.767c1.161-.258,2.287-.614,3.425-.943.38-.109.763-.209,1.145-.312" transform="translate(-8.557 -32.366)" fill="#fefefe"/>
    <path id="Path_16952" data-name="Path 16952" d="M92.256,57.923a.477.477,0,0,1-.343-.3c-.183-.432.493-.713.169-1.219-.024.613-.218.953-.726.4-.249-.272-.47.154-.665-.066a9.468,9.468,0,0,1-2.119-1.4c-2.121-1.818-4.728-2.392-7.407-2.738a33.683,33.683,0,0,0-8.083.157c-.212-.439-.224-.606.354-.913a5.317,5.317,0,0,1,1.983-.406,1.232,1.232,0,0,1,1.4.556.508.508,0,0,0,.578.252c.32-.029.279-.3.353-.5a2.056,2.056,0,0,0,.135-.92,1.46,1.46,0,0,1,.543-1.435c.133-.1.387-.249.188-.475-.137-.156-.315-.036-.45.076-.822.683-.772.027-.8-.516.5-.462.824-.948,1.772-.637,2.3.756,4.525,1.759,6.895,2.308a4.49,4.49,0,0,0,.59.06,22.7,22.7,0,0,1,5.149,2.388c.108.149,0,.312,0,.469.32.032.547-.344.861-.121.271.148.495.407.849.355.079.356-.084.8.356,1.026.139.1.2.379.494.189-.155-.211-.535-.012-.608-.332a.6.6,0,0,1,.107-.731l1.369.349a10.439,10.439,0,0,1,1.96.725c.148.1.4.124.292.42a10.807,10.807,0,0,0-.184,3.371c-.046,1.049-.036,2.1,0,3.15a6.647,6.647,0,0,1-.653,3.468,4.04,4.04,0,0,1-.568-1.5c-.013-.527-.384-.957-.4-1.483.051-.1,0,.037.049-.066.036-.074.092-.154.066-.228-.02-.055-.049-.027-.02.059a.2.2,0,0,1-.037.159c-.1.1-.164.278-.359.165a23.288,23.288,0,0,0-2.386-3.415c-.082-.383-.259-.67-.7-.7" transform="translate(-20.804 -13.614)" fill="#e9f3fb" opacity="0.55"/>
    <path id="Path_16953" data-name="Path 16953" d="M25.58,106.077a3.917,3.917,0,0,0,.04-3.345,1.94,1.94,0,0,1-.231-.609c.454-1.752-.044-3.5-.031-5.252a3.552,3.552,0,0,1,1.619-3.014,1.314,1.314,0,0,1,1.721-.134c-.24.242-.643.318-.731.716-.38.039-.224.282-.214.5.093,2.164-.06,4.334.084,6.544q-.773-1.781-1.547-3.563a11.414,11.414,0,0,0,1.279,3.567,4.918,4.918,0,0,1,.415,1.8c.031,1.736.24,3.467.119,5.437l-2.523-2.656" transform="translate(-7.232 -26.653)" fill="#6fa6d6"/>
    <path id="Path_16954" data-name="Path 16954" d="M31.68,109.043c.018-.465-.186-.209-.311-.086-.522.515-1.034,1.04-1.623,1.635a7.739,7.739,0,0,1-.231-1.646,21.593,21.593,0,0,1,.694-7.658.922.922,0,0,0,.129-.7c-.087-.267.034-.438.353-.279a.777.777,0,0,0,.568.663,5.078,5.078,0,0,1,.544.236c1.933.926,2.149,2.33.588,3.839a1.721,1.721,0,0,0-.528,2.129c.105.486-.169,1.011.241,1.487.139.162-.062.485-.425.377" transform="translate(-8.405 -28.591)" fill="#6fa6d6"/>
    <path id="Path_16955" data-name="Path 16955" d="M32.152,115.332c-.3.342.014.685,0,1.028A8.322,8.322,0,0,1,31.823,119a15.833,15.833,0,0,1-1.866,2.257c-.067-2.2-.234-4.2-.133-6.187.037-.717.831-1.306,1.466-1.795.415-.111.672.168.593.472-.2.783.362.776.812.919-.137.259-.486.346-.543.67" transform="translate(-8.497 -32.297)" fill="#6fa6d6"/>
    <path id="Path_16956" data-name="Path 16956" d="M30.506,98.482c-.333.017-.269.23-.146.381.417.513.034.544-.336.595a14.647,14.647,0,0,0-.9,2.264V98.494a27.166,27.166,0,0,1-.079-3.041c-.016-.3.094-.623-.094-.909l0,.006c-.445-.941.352-.615.731-.717a1.593,1.593,0,0,1,.821,1.625c.026,1.009-.332,2.017,0,3.025" transform="translate(-8.22 -26.761)" fill="#6fa6d6"/>
    <path id="Path_16957" data-name="Path 16957" d="M33.294,113.72c-.821.25-1.046.054-.94-.814.041-.345-.219-.459-.465-.577l.48-.522c.224-.083.5-.32.269-.453-.821-.467-.068-.948-.085-1.41a4.445,4.445,0,0,0,1.159.957c1.337,1.072,1.19,2.116-.419,2.819" transform="translate(-9.095 -31.356)" fill="#6fa6d6"/>
    <path id="Path_16958" data-name="Path 16958" d="M75.955,50.182c.341-.452.934-.416,1.36-.7.152.374.6.79-.174,1.023-.081.025-.137.239-.149.37-.033.36-.094.788-.552.612-.366-.142-.881-.415-.5-1.017.061-.1.141-.181.019-.285" transform="translate(-21.619 -14.111)" fill="#edf6f8"/>
    <path id="Path_16959" data-name="Path 16959" d="M65.227,54.345l1.711-.515c-.331.965-1.068,1.187-1.711.515" transform="translate(-18.603 -15.352)" fill="#edf6f8"/>
    <path id="Path_16960" data-name="Path 16960" d="M58.579,56.2l.565.341c-1.183.689-1.4.665-1.59-.168l0-.016c.351,0,.648-.352,1.029-.157" transform="translate(-16.413 -16.011)" fill="#edf6f8"/>
    <path id="Path_16961" data-name="Path 16961" d="M46.516,63.135a1.759,1.759,0,0,1,.693-.683c.254,0,.563-.016.609.3.049.342-.3.325-.512.435a.755.755,0,0,1-.791-.052" transform="translate(-13.266 -17.811)" fill="#edf6f8"/>
    <path id="Path_16962" data-name="Path 16962" d="M50.118,59.915a.525.525,0,0,1,.512-.345,1.283,1.283,0,0,1,.07.149c.077.242.387.46.115.738a.491.491,0,0,1-.371.106c-.4-.054-.171-.452-.326-.648" transform="translate(-14.293 -16.989)" fill="#edf6f8"/>
    <path id="Path_16963" data-name="Path 16963" d="M59.948,55.551c.354-.845,1.023-.259,1.545-.341-.411.584-1,.383-1.545.341" transform="translate(-17.097 -15.711)" fill="#fbd7d4"/>
    <path id="Path_16964" data-name="Path 16964" d="M46.76,67.506h1.866a.714.714,0,0,1-.5.307.786.786,0,0,0-.877-.051c-.264.1-.446.059-.489-.256" transform="translate(-13.336 -19.252)" fill="#edf6f8"/>
    <path id="Path_16965" data-name="Path 16965" d="M71.168,54.87a.966.966,0,0,1-.714.159c-.039-.168-.248-.322.04-.5.438-.264.39.35.674.337" transform="translate(-20.062 -15.534)" fill="#edf6f8"/>
    <path id="Path_16966" data-name="Path 16966" d="M48.612,88.886c.241.15.254.412.321.649l-.225.518c-.223-.374-.4-.751-.1-1.167" transform="translate(-13.818 -25.35)" fill="#edf6f8"/>
    <path id="Path_16967" data-name="Path 16967" d="M69.848,55.233a2.763,2.763,0,0,1-1.268.3c.257-.8.836-.241,1.268-.3" transform="translate(-19.559 -15.714)" fill="#edf6f8"/>
    <path id="Path_16968" data-name="Path 16968" d="M48.914,61.175l.169-.167c.189.118.426.2.4.485a.242.242,0,0,1-.184.147c-.3,0-.36-.224-.384-.465" transform="translate(-13.95 -17.399)" fill="#edf6f8"/>
    <path id="Path_16969" data-name="Path 16969" d="M63.545,54.948l.683-.172c.2.024.347.108.113.273-.273.193-.588.367-.8-.1" transform="translate(-18.123 -15.622)" fill="#edf6f8"/>
    <path id="Path_16970" data-name="Path 16970" d="M58.579,56.114a2.942,2.942,0,0,1-1.029.157c.426-.238.823-.6,1.371-.332a.374.374,0,0,1-.342.176" transform="translate(-16.413 -15.927)" fill="#fbd7d4"/>
    <path id="Path_16971" data-name="Path 16971" d="M44.93,66.313c-.159.335-.848-.177-.794.5-.154-.022-.367.036-.389-.2a.27.27,0,0,1,.265-.275c.3-.026.612-.016.918-.021" transform="translate(-12.476 -18.912)" fill="#edf6f8"/>
    <path id="Path_16972" data-name="Path 16972" d="M61.92,58.1a1.261,1.261,0,0,1-.853.33c-.128-.15-.387-.343.045-.4a3.946,3.946,0,0,1,.808.065" transform="translate(-17.36 -16.55)" fill="#edf6f8"/>
    <path id="Path_16973" data-name="Path 16973" d="M12.948,58.363c.1-.634-.307-1.352.308-1.9a6.285,6.285,0,0,1-.308,1.9" transform="translate(-3.681 -16.102)" fill="#365997"/>
    <path id="Path_16974" data-name="Path 16974" d="M107.176,91.5a36.168,36.168,0,0,0,.932-5.255q.062-1.315.123-2.628c1.227.446,1.054,1.576,1.161,2.516a24.187,24.187,0,0,1,.021,2.682c.687-.142,1.066-.752,1.6-1.119a.44.44,0,0,0,.014-.628c-1.159-1.357-.347-2.7.066-4.009a10.839,10.839,0,0,1,.993-1.87c.105-.19.166-.475.463-.412.277.058.227.337.3.545a7.161,7.161,0,0,1,.34,4.149.494.494,0,0,0,.164.542c-.424.936-.434.942.083,1.785a2.742,2.742,0,0,0,2.206,1.425c.441.035.921-.129,1.312.219-1.72.357-3.391.39-4.766-.931-.408-.393-.708-.461-1.156-.105a9.053,9.053,0,0,0-1.476,1.148c-.142.169-.374.311-.252.578.106.233.343.147.532.164a11.315,11.315,0,0,1,4.2,1.743c.343.184.348.464-.064.7a5.307,5.307,0,0,1-5.9-.973c-.274-.307-.482-.561-.9-.265" transform="translate(-30.566 -23.035)" fill="#deeafa"/>
    <path id="Path_16975" data-name="Path 16975" d="M119.111,90.909c-1.254.036-2.478.066-3.405-1.058-.378-.459-.523-1.028-.919-1.49-.254-.3.482-.561.724-.882a8.224,8.224,0,0,1,2.227-1.371c.122-.179.264-.3.455-.092.158.174.051.289-.111.382a2.7,2.7,0,0,0-.343.224c-.468.317-.919.665-1.41.943-.694.391-.384.61.108.8A11.851,11.851,0,0,1,119.879,90c.168.137.518.139.5.395-.026.3-.369.3-.6.367-.216.063-.439.1-.659.147" transform="translate(-32.722 -24.5)" fill="#deeafa"/>
    <path id="Path_16976" data-name="Path 16976" d="M118.914,85.2c-.005-.266.477-.233.355-.535-.063-.154-.235-.01-.357.02-.172-1.486-.014-2.852,1.373-3.771.014.32-.225.525-.387.743a1.1,1.1,0,0,0-.033,1.394c.6,1.026,1.086,2.114,1.62,3.177a1.558,1.558,0,0,1-1.4-.626,1,1,0,0,0-1.174-.4" transform="translate(-33.897 -23.076)" fill="#daecf2"/>
    <path id="Path_16977" data-name="Path 16977" d="M107.9,129.554a1.477,1.477,0,0,0-2.151.172c-.38.354-.645.234-.9-.134-.081-.117-.183-.218-.269-.332-.876-1.145-.886-1.154.08-2.181a.755.755,0,0,0,.211-.977,3.534,3.534,0,0,1-.293-.977.638.638,0,0,0-.655-.618c-.452-.051-1.119.016-1.256-.5a3.51,3.51,0,0,1,.157-2.019c.122-.348.5-.2.759-.2a1.873,1.873,0,0,0,1.658-2.861c-.161-.295-.661-.619-.352-.939a5.3,5.3,0,0,1,1.764-1.3c.079-.032.277.094.346.2a1.642,1.642,0,0,0,2.3.649,9.013,9.013,0,0,0,.064,3.2c-.056.487-.525.644-.786.968a3.113,3.113,0,0,0-.648,1.094,4.645,4.645,0,0,0,.457,3.187c.038.108-.042-.01.021.08a3.045,3.045,0,0,1,.474,2.63c-.212.931-.046.968-.984.864" transform="translate(-29.255 -33.276)" fill="#9cb4cc"/>
    <path id="Path_16978" data-name="Path 16978" d="M49.746,131.679a4.5,4.5,0,0,0,1.984.311,18.536,18.536,0,0,0,3.8.222,1.4,1.4,0,0,1,.839-.058c2.791.365,5.584.716,8.388.989.431.042,1.076.026,1.164.738-.059.663-.307.854-1.053.744a81.351,81.351,0,0,0-8.136-.961,4.786,4.786,0,0,1-1.011-.149,33.262,33.262,0,0,0-4.741-.5c-.261-.031-.575.01-.683.257-.275.627-.819,1.074-1.076,1.7a4.366,4.366,0,0,1-5.05,2.046,4.315,4.315,0,0,1-3.22-4.293c0-.4.021-.8.031-1.2l.337-.533c.122.094.122.234.157.37.164.638.56.781,1.081.4.119-.086.232-.154.368-.039a.826.826,0,0,1,.038.5c-.078,1.006.155,1.48.853,1.74.836.312,1.27.166,1.906-.645a1.109,1.109,0,0,1,.291-.306c.444-.172.127-.993.526-.9.3.071.663.206,1,.3.164.045.335.056.5.09.786.159,1.454.1,1.7-.836" transform="translate(-11.68 -37.362)" fill="#d3cedf"/>
    <path id="Path_16979" data-name="Path 16979" d="M123.741,111.458a20.667,20.667,0,0,1-4.573,1.154c-.08.017-.2.042-.245,0-.7-.708-1.362-.054-2.039.044a6.894,6.894,0,0,0-2.147-.342,16.489,16.489,0,0,1-2.844-.583c-.064-.009-.1-.179-.152-.275,1.864-.315,3.295-1.582,4.99-2.277a6.012,6.012,0,0,1,6.084.761c.3.209.568.467.866.68.367.264.332.536.059.836" transform="translate(-31.868 -30.995)" fill="#deeafa"/>
    <path id="Path_16980" data-name="Path 16980" d="M52.525,135.656a8.874,8.874,0,0,1,.883-1.981c.174-.389.673-.331,1.013-.239a8.109,8.109,0,0,0,2.124.144,12.265,12.265,0,0,1,2.707.44c.917.212,1.861.067,2.8.218,2.012.324,4.049.484,6.074.73a3.08,3.08,0,0,1,.7.267c.228-.149-.2-.637.318-.623.282-.059-.157-.587.332-.51.558.3.445.853.523,1.336-.467,1.1-.941,1.233-2.678,1.044-2.513-.273-5.033-.465-7.55-.687-2.092-.184-4.189-.32-6.272-.573a.912.912,0,0,0-.973.434" transform="translate(-14.98 -38.036)" fill="#d3cedf"/>
    <path id="Path_16981" data-name="Path 16981" d="M78.851,133l7.433-.052a1.714,1.714,0,0,0,1.332-1.242,1.35,1.35,0,0,0-1.22-1.222c-.895-.013-.6-.716-.75-1.167-.182-.554.223-.591.585-.692a1.172,1.172,0,0,0,.609-1.985c-.56-.547-.146-.824.129-1.189.29-.382.608-.618,1.043-.173.462.471.882.135,1.306-.08.809-.135.858-.114.723.634-.078.429.105.822.054,1.235a2.862,2.862,0,0,0-.26,3.84,1.976,1.976,0,0,1-.153,2.162c-.748-.424-1.084,1.246-1.9.385-.617-.651-1.392-.379-2.1-.394-2.277-.047-4.554-.044-6.831-.061" transform="translate(-22.488 -35.661)" fill="#6fa6d6"/>
    <path id="Path_16982" data-name="Path 16982" d="M111.822,120.258c-.6-.2-.235-.756-.27-1.069-.08-.707-.378-1.524.267-2.17.766-.037.974-.581,1.011-1.2.047-.786.442-1.029,1.168-.9.518.094,1.081-.082,1.56.256,0,.512-.007,1.024,0,1.536.006.282-.009.59.378.658-.343.88.031,1.865-.4,2.743-.056.113.134.347.209.525-.026.011-.059.038-.076.031a7.127,7.127,0,0,0-3.846-.414" transform="translate(-31.775 -32.766)" fill="#9cb4cc"/>
    <path id="Path_16983" data-name="Path 16983" d="M99,124.768c.274-.289.392-.978,1-.461.414.352,1.223.569.505,1.413-.475.56.117,1.663.885,1.7.558.026.9.108.9.8,0,.571.007.966-.721,1.06-.708.091-1.051,1.278-.615,1.888.214.3.659.545.273,1.009-.053.279-.366.322-.487.538-.316.332-.641.057-.963.016-.222-.3-.625-.185-.891-.387-.355-.233-.622-.452-.294-.944.241-.364-.022-.758-.159-1.124-.022-.422.354-.728.337-1.149.162-.722-.335-1.293-.445-1.952a3.231,3.231,0,0,0,.437-2c-.034-.184.092-.312.241-.407" transform="translate(-28.042 -35.399)" fill="#6fa6d6"/>
    <path id="Path_16984" data-name="Path 16984" d="M110.02,133.3c.955.062.684-.635.721-1.152.021-.29-.11-.608.294-.808.344-.171-.07-.277-.106-.421-.1-.406-.818-.51-.53-1.094.271.031.438.246.657.37a3.519,3.519,0,0,0,2.93.435c.327-.1.663-.38,1.04-.107-.019.445-.327.637-.688.781a1.562,1.562,0,0,1,.667.878,1.114,1.114,0,0,1-.262,1.105c-.27.242-.232.435.15.5-.916.124-1.23.731-1.249,1.569-.011.517-.277.736-.768.6-.593-.161-1.239.026-1.8-.29-.221-.619.086-1.286-.169-1.9l-.881-.472" transform="translate(-31.377 -37.027)" fill="#9cb4cc"/>
    <path id="Path_16985" data-name="Path 16985" d="M94.928,115.1l3.815-4.921,1.691.337a20.916,20.916,0,0,1-2.824,3.923c-.589.726-1.255,1.39-1.894,2.074-.151.162-.31.385-.569.293-.283-.1-.183-.382-.194-.6-.019-.369-.018-.739-.025-1.109" transform="translate(-27.073 -31.422)" fill="#fcfcfc"/>
    <path id="Path_16986" data-name="Path 16986" d="M97.3,132.712a1.03,1.03,0,0,1,.116,1.409c-.247.422.518.3.36.671.067.144.3.173.269.388-.735.009-1.33.1-1.185,1.117.08.556-.494.441-.816.482s-.826.267-.886-.311A1.317,1.317,0,0,0,94,135.26a3.946,3.946,0,0,0,0-2.182c.047-.036.109-.081.152-.062a3.4,3.4,0,0,0,3.154-.3" transform="translate(-26.808 -37.849)" fill="#6fa6d6"/>
    <path id="Path_16987" data-name="Path 16987" d="M97.627,124.4a.8.8,0,0,0-.021.564,2.131,2.131,0,0,1-.52,1.891c-.513.048-.894-.365-1.385-.392-.5-.27-1.011.207-1.508-.038a1.518,1.518,0,0,1-.155-1.407c.315-.65-.32-.342-.544-.447a.85.85,0,0,0,.5-.951c-.063-.518.162-.787.7-.771.6-.039.983.024,1.137.81.179.915,1.112.672,1.794.742" transform="translate(-26.664 -35.035)" fill="#6fa6d6"/>
    <path id="Path_16988" data-name="Path 16988" d="M29.914,133.691c.6-.435.414-1.3.978-1.756a3.206,3.206,0,0,1,.568,1.764l-1.051,1.889c-.383.222-.233.7-.481.992-.171-.5-.447-1.007-.011-1.516.238-.25.062-.475-.043-.7.014-.223.026-.446.04-.669" transform="translate(-8.465 -37.627)" fill="#6fa6d6"/>
    <path id="Path_16989" data-name="Path 16989" d="M28.557,137.233l.618.55c.146.079.385.1.214.367.086.139.4.209.174.444-.2.21-.265-.1-.362-.165a1.675,1.675,0,0,1-.644-1.2" transform="translate(-8.144 -39.138)" fill="#fefefe"/>
    <path id="Path_16990" data-name="Path 16990" d="M29.589,137.771l-.214-.367.213-.194c-.176-.374-.535-.72-.174-1.174.274-.3.31-.026.382.16q.005.758.011,1.516l-.217.059" transform="translate(-8.345 -38.759)" fill="#365997"/>
    <path id="Path_16991" data-name="Path 16991" d="M111.253,135.35c.373.605.113,1.267.17,1.9-.275-.614-.056-1.272-.17-1.9" transform="translate(-31.729 -38.601)" fill="#aa6fa9"/>
    <path id="Path_16992" data-name="Path 16992" d="M99.524,136c-.2-.05-.492-.041-.269-.388.294.05.753-.224.764.387h-.5" transform="translate(-28.284 -38.671)" fill="rgba(54,89,151,0.56)"/>
    <path id="Path_16993" data-name="Path 16993" d="M101.705,135.926a.951.951,0,0,1,.487-.538c.11.153.377.315.234.484-.166.194-.475.044-.721.054" transform="translate(-29.006 -38.612)" fill="#4c376d"/>
    <path id="Path_16994" data-name="Path 16994" d="M104.73,101.2l1.064-2.558a15.533,15.533,0,0,1,4.874,1.588c.219.123.653.247.126.543a7.54,7.54,0,0,1-5.342.832,1.685,1.685,0,0,1-.723-.4" transform="translate(-29.869 -28.134)" fill="#deeafa"/>
    <path id="Path_16995" data-name="Path 16995" d="M101.9,55.663q0,.433,0,.866c-1.041-.024-.533-.575-.347-1.017a.339.339,0,0,1,.348.152" transform="translate(-28.88 -15.831)" fill="#e9f3f4"/>
    <path id="Path_16996" data-name="Path 16996" d="M100.042,54.876a1.6,1.6,0,0,0-.32.092c-.223.117-.385.528-.692.227-.237-.232.11-.439.155-.668a1.7,1.7,0,0,1,.856.348" transform="translate(-28.22 -15.551)" fill="#e9f3f4"/>
    <path id="Path_16997" data-name="Path 16997" d="M114.879,128.887a4.332,4.332,0,0,1-3.442.184,2.643,2.643,0,0,1-1.185-.881,3.7,3.7,0,0,1-.5-3.425c.4-.247.622.1.9.259a3.9,3.9,0,0,0,2.431.865,2.573,2.573,0,0,0,2.138-1.341c.107-.2.164-.511.515-.47,1.221,1.87.631,3.419-.853,4.809" transform="translate(-31.232 -35.385)" fill="#fdfdfd"/>
    <path id="Path_16998" data-name="Path 16998" d="M115.827,123.449a3.012,3.012,0,0,1-3.049,2.054,4.707,4.707,0,0,1-2.138-.916c-.266-.148-.453-.436-.8-.452a3.713,3.713,0,0,1,1.53-1.887,3.817,3.817,0,0,1,3.923.383c.154.287.491.455.53.817" transform="translate(-31.327 -34.757)" fill="#deeafa"/>
    <path id="Path_16999" data-name="Path 16999" d="M26.726,113.265a3.847,3.847,0,0,1,1.894,3.846c-.118,1.31-.043,2.64-.045,4.059l-2.2-2.573a27.314,27.314,0,0,0,.183-4.767,2.225,2.225,0,0,1,.167-.565" transform="translate(-7.522 -32.303)" fill="#6fa6d6"/>
    <path id="Path_17000" data-name="Path 17000" d="M31.9,120.238a4.894,4.894,0,0,1,.328-2.636q.613.515,1.226,1.031a2.094,2.094,0,0,1,.425,2.956,4.452,4.452,0,0,1-2.844,1.858c-.142-.007-.283-.016-.425-.02-.2-.006-.412.04-.512-.2s.087-.37.209-.518c.56-.68,1.131-1.352,1.689-2.034.172-.209.446-.375.376-.723-.257-.044-.288.246-.472.289" transform="translate(-8.577 -33.54)" fill="#6fa6d6"/>
    <path id="Path_17001" data-name="Path 17001" d="M29,94.827c.365.635.13,1.325.171,1.989s0,1.307,0,1.962A24.248,24.248,0,0,1,29,94.827" transform="translate(-8.272 -27.044)" fill="#65b8cd"/>
    <path id="Path_17002" data-name="Path 17002" d="M27.355,133.829q.088.587.175,1.173a16.774,16.774,0,0,0-4.065-3.441,2.819,2.819,0,0,1-1.424-2.475.83.83,0,0,1,.961-.919,3.234,3.234,0,0,1,2.462,1.339,9.411,9.411,0,0,1,1.7,3.768c.049.189.124.37.187.555" transform="translate(-6.285 -36.553)" fill="#fdfdfd"/>
    <path id="Path_17003" data-name="Path 17003" d="M67.221,89.261a7.752,7.752,0,0,1-4.149-2.59,1.72,1.72,0,0,0-1.65-.7,11.835,11.835,0,0,0,.242-2.073,47.6,47.6,0,0,0-.09-5.622c-.051-.455-.194-1.019.262-1.244.275-.069.1-.177.173-.09-.412.134-.843.4-1.144-.179.347-.36.8-.215,1.21-.245a6.337,6.337,0,0,0,1.776-.129,1.05,1.05,0,0,0,.695-1.595c-.177-.388-.4-.753-.585-1.137a1.2,1.2,0,0,1,1.021-1.906,4.447,4.447,0,0,1,1.78.066,1.189,1.189,0,0,1,.841,1.836c-.172.358-.378.7-.547,1.061-.427.911-.317,1.232.573,1.7a2.04,2.04,0,0,1,.582.348c.43.313.633.53.249,1.164a3.359,3.359,0,0,0-.045,2.227c.058.326.1.612-.22.819-.969.7-.78,1.671-.618,2.634.056.334.327.609.268.976-.413,1.36.109,2.711.031,4.069-.026.452-.029.838-.653.61" transform="translate(-17.358 -20.446)" fill="#d3cedf"/>
    <path id="Path_17004" data-name="Path 17004" d="M78.476,90.678a4.23,4.23,0,0,1-1.718.485c-.353-.392-.121-.83-.046-1.223a12.532,12.532,0,0,0,.151-2.548c-.022-1.407-.367-1.828-1.683-2.084-.083-.064-.242-.189-.139-.245.786-.422.458-.944.163-1.472.462-.286,1.189-.114,1.408-.82a5.228,5.228,0,0,0,.313-3.172c-.088-.507-.355-1.145.282-1.565a1.946,1.946,0,0,1,1.106-.214c1,.237,2.034-.035,3.04.243,1.45.4,1.754,1.008,1.046,2.344a2.64,2.64,0,0,0-.406,2.327c.046.152-.52.249-.049.434.6.236.536.547.148.935a1.229,1.229,0,0,0-.3.948c.027,1.7-.069,3.4.041,5.1.021.322.041.663-.467.513l-.5-.019a6.188,6.188,0,0,0-2.391.032" transform="translate(-21.391 -22.19)" fill="#9cb4cc"/>
    <path id="Path_17005" data-name="Path 17005" d="M58.387,78.323c.415.28.9.034,1.377.182-.866.349-.494,1.061-.441,1.6.2,2.02.025,4.04.091,6.058.01.292-.258.4-.361.653l.788.087c-.093.6-.691.318-.928.606-2.8.329-4.618-.895-5.33-3.613a5.952,5.952,0,0,0-.634-1.565,6.1,6.1,0,0,1-.573-5.1,1.3,1.3,0,0,1,1.231.053,16.656,16.656,0,0,0,4.1.764c.254.025.52.016.682.272" transform="translate(-14.849 -21.987)" fill="#d3cedf"/>
    <path id="Path_17006" data-name="Path 17006" d="M83.9,90.773c.172-.036.37-.083.328-.307-.35-1.871-.017-3.759-.148-5.635-.042-.6.36-.846.788-1.157-.34.021-.608.025-.744-.355s.232-.3.32-.465c.736-.03,1.45.184,2.193.152,1.555-.065,1.926-.619,1.285-2.038a2.681,2.681,0,0,0-.242-.451A1.479,1.479,0,0,1,87.8,78.5a1.1,1.1,0,0,1,.66-.294c.114-.011.228-.014.342-.015.97-.013,1.3,0,1.093,1.2a29.949,29.949,0,0,0-.054,4.7c-.031,2.737.039,5.475-.1,8.211a1.265,1.265,0,0,1-.745-.1,10.548,10.548,0,0,0-4.788-1.286.94.94,0,0,1-.3-.132" transform="translate(-23.929 -22.298)" fill="#9cb4cc"/>
    <path id="Path_17007" data-name="Path 17007" d="M71.791,60.884a8.992,8.992,0,0,1,4.129-1.317A12.531,12.531,0,0,0,75.244,64a2.439,2.439,0,0,0,1.2,2.288c.625.444.268.929.06,1.407a2.94,2.94,0,0,0-1.047,2.473c.046.9.039,1.8.046,2.709-.068.165-.177.335-.345.354-1.228.134-2.45.557-3.693.105-.129-.122-.247-.409-.18-.434.78-.292.237-.838.263-1.263a5.3,5.3,0,0,0-.38-2.92.948.948,0,0,1,.11-.823,3.607,3.607,0,0,0,.051-2.9,21.168,21.168,0,0,1-.439-3.355c-.041-.21.126-.369.347-.422s.451-.09.556-.336" transform="translate(-20.215 -16.988)" fill="#d3e0ea"/>
    <path id="Path_17008" data-name="Path 17008" d="M91.523,92.211a1.428,1.428,0,0,1-.226-1.339,8.121,8.121,0,0,0,.056-2.457c-.078-2.29.043-4.58-.071-6.875a5.807,5.807,0,0,1,.388-3.2H90.147c.037-.367.337-.345.587-.4A23.045,23.045,0,0,1,94.146,78a1.15,1.15,0,0,1,.278.122c.55.22,1.094.46,1.653.66.493.175.718.418.182.8a.943.943,0,0,0-.36.9c.088,2.122-.23,4.257.211,6.366a.779.779,0,0,1-.466.9c-.569.3-1.389-.076-1.772.367-.4.468.127,1.179.059,1.808a2.455,2.455,0,0,1-2.408,2.282" transform="translate(-25.71 -22.217)" fill="#9cb4cc"/>
    <path id="Path_17009" data-name="Path 17009" d="M84.367,61.236a6.53,6.53,0,0,1,1.706,1.407,1.023,1.023,0,0,0,.5.064c1.284.021,1.29.02,1.293,1.356q.009,3.468,0,6.934a1.936,1.936,0,0,0,.449,1.51c.274.272.173.522-.1.712a1.768,1.768,0,0,0-.47.483c-.655.713-.467,1.372-.02,2.153,1.022,1.787.59,2.39-1.482,2.463-1.678.058-2.629-.706-1.49-2.432.125-.189.214-.4.326-.6a1.108,1.108,0,0,0-.6-1.643c-.28-.134-.717.055-.848-.387a1.043,1.043,0,0,0,.612-1.063,8.6,8.6,0,0,0-.146-2.879c0-.332.229-.577.325-.873a2.511,2.511,0,0,0-.34-2.582.433.433,0,0,1-.11-.4c.545-.959.128-1.941.064-2.913-.031-.48-.161-.968.325-1.314" transform="translate(-23.854 -17.464)" fill="#f2d7d9"/>
    <path id="Path_17010" data-name="Path 17010" d="M52.7,72.69a10,10,0,0,1,2.323-3.653,2.268,2.268,0,0,0,.467-.9,11.631,11.631,0,0,1,3.151-4.719,2.388,2.388,0,0,1,.936-.56c.355.342.274.791.275,1.207.005,2.645.016,5.29,0,7.936,0,.332-.084.686.258.936.142.1.424.182.277.432a.53.53,0,0,1-.615.192,9.133,9.133,0,0,0-1.823-.122c.4.016.793.006,1.19.019.325.01.552.134.523.512a2.688,2.688,0,0,1-1.713.147,16.466,16.466,0,0,1-4.635-.924c-.252-.09-.568-.142-.613-.5" transform="translate(-15.03 -17.928)" fill="#d3e0ea"/>
    <path id="Path_17011" data-name="Path 17011" d="M61.612,73.644c-.046-.465-.373-.508-.741-.5a2.877,2.877,0,0,1-1.1-.138h2.518c-1.109-.012-.683-.763-.682-1.316.005-3.074-.005-6.148-.01-9.222a5.56,5.56,0,0,1,3.1-.988A3.5,3.5,0,0,1,65.746,63.9a16.624,16.624,0,0,1-.182,4.087c-.054.585-.618.612-.909.934-1.305.224-1.432.847-.889,2.027.131.284.309.543.45.823a1.116,1.116,0,0,1-.617,1.773,2.933,2.933,0,0,1-1.989.1" transform="translate(-17.046 -17.534)" fill="#d3e0ea"/>
    <path id="Path_17012" data-name="Path 17012" d="M95.8,75.422c-.01-.048-.021-.1-.034-.143-.038-.988.05-1.979.04-2.959a13.678,13.678,0,0,0-.3-4.025c-.107-.34-.014-.462.274-.545a6.1,6.1,0,0,1,4.788,4.927,7.661,7.661,0,0,1-.1,3.792c-.1.342-.16.61-.6.473a.969.969,0,0,1-.71-.236A9.892,9.892,0,0,0,95.8,75.422" transform="translate(-27.225 -19.322)" fill="#f2d7d9"/>
    <path id="Path_17013" data-name="Path 17013" d="M66.589,68.758c-.043-.038-.089-.072-.128-.114-.137-.142-.038-.187.09-.182.643.031.655-.3.69-.861.065-1.074.223-2.139.214-3.224a8.934,8.934,0,0,0-.868-2.951,7.126,7.126,0,0,1,2.861.055,2.8,2.8,0,0,0,1.063-.105c.014.234-.081.352-.327.405-.572.124-.6.372-.114.686.054.035.153,0,.091.142a4.368,4.368,0,0,0,.069,2.712,2.316,2.316,0,0,1,.259,1.878c-.612,1.418.081,2.752.035,4.119a10.092,10.092,0,0,0,.047,1.5c.027.235.214.226.3.348-.1.354-.846-.289-.684.454-.712.337-1.207-.133-1.643-.534-.418-.385-.248-.877.042-1.322.2-.308.328-.661.5-.989.555-1.051.165-1.763-1.016-1.886-.493-.052-1.006.145-1.479-.129" transform="translate(-18.936 -17.48)" fill="#d3e0ea"/>
    <path id="Path_17014" data-name="Path 17014" d="M82.61,60.749a5.856,5.856,0,0,0,.106,2.668c.051.6.255,1.254-.472,1.634a19.745,19.745,0,0,0-3.308,1.231c-.2.046-.345.009-.39-.216a2.446,2.446,0,0,1-1.066-2.18A12.867,12.867,0,0,1,78,60.107a.682.682,0,0,1,.782-.578,6.723,6.723,0,0,1,3.829,1.219" transform="translate(-22.096 -16.978)" fill="#f2d7d9"/>
    <path id="Path_17015" data-name="Path 17015" d="M69.757,93.993c.335,0,.473-.051.419-.493-.138-1.125-.157-2.265-.235-3.4a.914.914,0,0,1,.344-.9,12.194,12.194,0,0,0,3.083-.8,1.4,1.4,0,0,1,2,1.318,8.3,8.3,0,0,1-.465,4.431,7.545,7.545,0,0,1-5.15-.159" transform="translate(-19.894 -25.177)" fill="#d3cedf"/>
    <path id="Path_17016" data-name="Path 17016" d="M88.584,74.3c-.024-.5.232-.751.812-.821-1-.461-.8-1.3-.807-2.067-.005-2.308-.034-4.617.015-6.924.018-.836-.128-1.325-1.091-1.147a.481.481,0,0,1-.469-.144,8.814,8.814,0,0,1,2.349.159,2.514,2.514,0,0,1,2.125,2.378,4.946,4.946,0,0,0-.447,2.8c-.016,1.36.045,2.72-.041,4.079-.076,1.208-.076,1.208-1.237,1.331-.179.059-.4,0-.531.2l-.486.172c-.069.1-.133.1-.192-.009" transform="translate(-24.825 -18.019)" fill="#f2d7d9"/>
    <path id="Path_17017" data-name="Path 17017" d="M95.935,78.483A7.091,7.091,0,0,1,100.008,80a5.536,5.536,0,0,1-1.467,7.216,2.94,2.94,0,0,1-1.246.7.876.876,0,0,0,.182-1.077,4,4,0,0,1-.18-1.848c-.009-1.451.011-2.9-.01-4.353-.009-.6-.1-1.212,1.09-1.181l-2.442-.977" transform="translate(-27.36 -22.383)" fill="#9cb4cc"/>
    <path id="Path_17018" data-name="Path 17018" d="M90.891,74.958c.439-.219.993-.013.985-1.02-.015-1.874.005-3.76.016-5.64a1.5,1.5,0,0,1,.723-1.545c.535.457,1.28.369,1.858.714-.064.088-.2.207-.18.26a11.57,11.57,0,0,1,.39,4.726,18.711,18.711,0,0,0,.053,2.157c.029.292-.041.355-.275.385l-3.57-.037" transform="translate(-25.922 -19.038)" fill="#f2d7d9"/>
    <path id="Path_17019" data-name="Path 17019" d="M71.993,132.947c-.149.1-.134.222-.046.357.054.083.2.178.061.274s-.263.011-.347-.122c-.127-.522-.61-.583-.98-.6-3.029-.127-6.009-.671-9.014-.995a1.194,1.194,0,0,1-.315-.133,7.514,7.514,0,0,0,.016-.94c-.059-.585.136-.858.758-.755.331.054.629.028.622-.448,0-.279.244-.274.442-.269.4.009.8.064,1.2.042.5-.027.688.194.613.66-.079.5-.074.978.592.939.455-.026,1.207.523,1.272-.523.021-.337.308-.269.525-.271.4,0,.8,0,1.2.005.313.088.32.332.29.587a.4.4,0,0,0,.387.5c.153.14.412.1.453,0,.49-1.171.774-.084,1.132.1a.382.382,0,0,1,.139.207c-.279.909.418,1.1,1.007,1.378" transform="translate(-17.497 -36.881)" fill="#d3cedf"/>
    <path id="Path_17020" data-name="Path 17020" d="M78.877,68.339l.231.159c.774-.272,1.5-.67,2.293-.893,1.136-.316,1.67.046,1.762,1.224a4.206,4.206,0,0,1,.006.425c-.046,1.708-.761,2.2-2.346,1.62a3.157,3.157,0,0,0-.723-.241,1.369,1.369,0,0,1-.495-.193c-.282-.246-.693-.258-.964-.525-.041-.457.384-.909.011-1.368l.224-.209" transform="translate(-22.428 -19.25)" fill="#d3e0ea"/>
    <path id="Path_17021" data-name="Path 17021" d="M62.626,71.737a10.55,10.55,0,0,1,1.954.108c.921.259,1.182.768.848,1.665a10.666,10.666,0,0,1-.556,1.229c-.551,1.055-.257,1.655.924,1.836a4,4,0,0,0,.425.021,11.273,11.273,0,0,0,3.657-.072c.094-.006.177-.189.266-.289.5.25.174.448-.04.655a7.056,7.056,0,0,1-4.378-.016c-.262-.107-.53-.2-.783-.324a1.128,1.128,0,0,1-.589-1.748c.2-.407.447-.8.656-1.2.428-.831.19-1.386-.723-1.582a4.54,4.54,0,0,0-1.87.005c-.826.172-1.061.748-.67,1.528.152.305.332.6.487.9.655,1.287.13,2.214-1.328,2.3-.8.048-1.6.029-2.395.04A23.876,23.876,0,0,1,52.5,75.707c.019-.171-.027-.361.145-.485a7.245,7.245,0,0,0,3.022,1,14.176,14.176,0,0,0,3.872.346,3.209,3.209,0,0,0,2.175-.41c.533-.382.643-.729.3-1.266a7.364,7.364,0,0,1-.44-.826c-.619-1.29-.64-2.087,1.054-2.33" transform="translate(-14.973 -20.459)" fill="#643c6c"/>
    <path id="Path_17022" data-name="Path 17022" d="M74.9,92.99a16.011,16.011,0,0,0,.365-3.908c-.072-1.654-.848-2.131-2.362-1.442a3.268,3.268,0,0,1-2.626.4,3.049,3.049,0,0,1-.32-2.964.872.872,0,0,1,.677-.683c.462-.1.934-.393,1.366.069-.114.42-.49.307-.773.372-.8.184-1.142,1.023-.831,2.087.189.645.617.795,1.448.544.563-.169,1.056-.58,1.694-.49,1.447.01,2,.583,2.074,2.051a20.425,20.425,0,0,1-.359,3.966H74.9" transform="translate(-19.884 -24.016)" fill="#46316d"/>
    <path id="Path_17023" data-name="Path 17023" d="M74.141,131.647a.593.593,0,0,1-.443-.2c-.221-.243-.44-.831-.71-.03-.172-.163-.462.573-.57-.075.751.008.535-.606.6-.994.076-.446.077-.793.728-.75.7.048.595.456.554.88a3.1,3.1,0,0,1-.161,1.172" transform="translate(-20.653 -36.959)" fill="#d3cedf"/>
    <path id="Path_17024" data-name="Path 17024" d="M97.769,60.046c.533-.767.769.144,1.14.217a.212.212,0,0,0,.026-.315c-.124-.154-.32-.28-.082-.49a.357.357,0,0,1,.4-.064.46.46,0,0,1,.272.487c-.02.43-.356.7-.529,1.054l-1.223-.89" transform="translate(-27.883 -16.929)" fill="#e9f3f4"/>
    <path id="Path_17025" data-name="Path 17025" d="M104.273,67.669l.369-.183c.148.518.608.971.33,1.578l-.7-1.395" transform="translate(-29.738 -19.247)" fill="#e9f3f4"/>
    <path id="Path_17026" data-name="Path 17026" d="M99.96,61.893c.187-.008.332-.385.48-.169.159.232.549.486.217.868l-.7-.7" transform="translate(-28.508 -17.584)" fill="#e9f3f4"/>
    <path id="Path_17027" data-name="Path 17027" d="M79.86,95.721a3.408,3.408,0,0,1,2.391-.032l-2.391.032" transform="translate(-22.776 -27.233)" fill="#975696"/>
    <path id="Path_17028" data-name="Path 17028" d="M42.985,130.6c-.07.046-.137.1-.211.139-.252.14.017.72-.389.61-.362-.1-.618-.521-1.059-.549l.1-.9a3.906,3.906,0,0,1,3.207-2.693,4.183,4.183,0,0,1,4.356,1.662,3.106,3.106,0,0,1,.667,1.39l.193.315c-.051,1.165-.082,1.189-1.212,1.066a2.706,2.706,0,0,1-1.167-.158c-.472-.273-.306.333-.528.412-.356-.17-.071-.541-.326-.821a3.115,3.115,0,0,1-.078.989c-.167.376-.255.078-.316-.107a.451.451,0,0,1-.139-.209c-.518-1.8-1.163-2.075-2.785-1.183a.336.336,0,0,1-.318.041" transform="translate(-11.786 -36.254)" fill="#d3cedf"/>
    <path id="Path_17029" data-name="Path 17029" d="M31.934,133.331c-.13.008-.392.047-.371.019.5-.666-.338-1.173-.2-1.783a1.093,1.093,0,0,1,.613-.768.916.916,0,0,1,1.224.192c.369.4.238.748-.122,1.1-.4.392-.766.826-1.147,1.241" transform="translate(-8.941 -37.259)" fill="#6fa6d6"/>
    <path id="Path_17030" data-name="Path 17030" d="M52.718,130.955l-.666-1.389a1.516,1.516,0,0,1,.666,1.389" transform="translate(-14.845 -36.952)" fill="#d3cedf"/>
    <path id="Path_17031" data-name="Path 17031" d="M102.151,56.835c.338.034.574-.351,1.01-.227-.239.351-.267.876-.785.858C102.038,57.454,102.192,57.064,102.151,56.835Z" transform="translate(-29.133 -16.137)" fill="#e9f3f4"/>
    <path id="Path_17032" data-name="Path 17032" d="M104.374,66.424c.279.113.5.249.516.55,0,.065-.147.139-.227.209-.082-.242-.41-.387-.289-.759" transform="translate(-29.76 -18.944)" fill="#e9f3f4"/>
    <path id="Path_17033" data-name="Path 17033" d="M43.581,131.67c.588-.555,1.2-1.051,2.087-.683a1.787,1.787,0,0,1,1.155,2.033c-.593,1.169-1.339,1.526-2.381,1.14-.988-.367-1.234-1.082-.861-2.49" transform="translate(-12.382 -37.321)" fill="#fcfbfa"/>
    <path id="Path_17034" data-name="Path 17034" d="M94.046,127.751c.508-.1.991-.457,1.538-.147a8.954,8.954,0,0,1,1.846,2.6c.011.4-.294.67-.417,1.015a2.328,2.328,0,1,1-2.966-3.469" transform="translate(-26.517 -36.357)" fill="#302a6d"/>
    <path id="Path_17035" data-name="Path 17035" d="M98.47,130.252a12.614,12.614,0,0,1-1.846-2.6c.555-.051.924.335,1.355.578a2.381,2.381,0,0,1,.492,2.024" transform="translate(-27.557 -36.404)" fill="#eadeeb"/>
    <path id="Path_17036" data-name="Path 17036" d="M72.343,83.049c-.413-.339-.92-.078-1.365-.213.112-.14.232-.207.129-.48a8.132,8.132,0,0,1-.124-2.6c0-.074.044-.2.094-.218.883-.265-.076-.274-.06-.42a1,1,0,0,0-.033-.249,20.937,20.937,0,0,0,4.443-.123c.536.135.262.578.339.889a12.613,12.613,0,0,1,.009,2.576c-.019.189-.1.368-.1.56-.636,1.123-1.272,1.335-2.418.793a6.232,6.232,0,0,1-.828-.416l-.085-.1" transform="translate(-20.231 -22.46)" fill="#d3cedf"/>
    <path id="Path_17037" data-name="Path 17037" d="M79.257,71.351l.294.074a5.9,5.9,0,0,0,2.771.684c.676.85.253,1.831.32,2.752.01.131-.14.307-.092.4.545,1.022-.3.738-.754.817a17.839,17.839,0,0,1-2.872.04c-.372-.091-.7.138-1.057.151-.375.121-.459-.177-.505-.41a7.53,7.53,0,0,1,.045-3.786,1.157,1.157,0,0,1,1.851-.718" transform="translate(-22 -20.279)" fill="#f2d7d9"/>
    <path id="Path_17038" data-name="Path 17038" d="M73.688,87.111c-.652.268-1.29.583-1.96.792-.865.269-1.363-.1-1.46-.994a2.976,2.976,0,0,1-.014-.339c0-1.635.241-2.034,1.894-1.827l-.009-.011a8.963,8.963,0,0,1,1.71.893c.525.08.6.44.651.9.074.732-.66.234-.811.586" transform="translate(-20.036 -24.154)" fill="#9cb4cc"/>
    <path id="Path_17039" data-name="Path 17039" d="M79.634,78.1l2.872-.041c.126.143.306.122.468.165,1.39.366,1.685,1.049.992,2.278a1.682,1.682,0,0,0-.081.15c-.291.658-1.046,1.291-.263,2.043a3.6,3.6,0,0,0,3.1-.01.774.774,0,0,0,.19-.936,7.432,7.432,0,0,0-.6-1.222,1.388,1.388,0,0,1,.149-1.983l.192.009a1.531,1.531,0,0,0,.105,2.013,3.241,3.241,0,0,1,.406.933,1.025,1.025,0,0,1-.785,1.547,4.481,4.481,0,0,1-3.157-.226,1.354,1.354,0,0,1-.145-1.585c.2-.408.414-.806.633-1.2a.955.955,0,0,0-.578-1.529,6.747,6.747,0,0,0-2.425-.307,1.943,1.943,0,0,1-1.081-.1" transform="translate(-22.711 -22.262)" fill="#454179"/>
    <path id="Path_17040" data-name="Path 17040" d="M79.173,71.288c-1.069-.194-1.595.085-1.8,1.122a9.942,9.942,0,0,0,.093,3.548c.027.164.174.207.312.245-.423.511-.146,1.083-.076,1.6a5.14,5.14,0,0,1-.42,3.192.329.329,0,0,1-.033-.408l.043-.473a11.119,11.119,0,0,0,.007-2.753c-.091-.278.061-.61-.19-.853.044-.174.271-.357-.025-.516-.17-1.629-.64-3.286.507-4.781a.636.636,0,0,1,.537-.328c.354.118.833-.085,1.042.406" transform="translate(-21.916 -20.215)" fill="#454179"/>
    <path id="Path_17041" data-name="Path 17041" d="M76.124,84.459c.011.136.022.272.034.408-.3.736-.948.664-1.558.691a4.8,4.8,0,0,1-1.71-.893,1.683,1.683,0,0,1,.881.272c1.361.628,1.437.614,2.352-.479" transform="translate(-20.788 -24.087)" fill="#712c72"/>
    <path id="Path_17042" data-name="Path 17042" d="M82.935,71.011a3.406,3.406,0,0,1-2.77-.684c.548-.079.946.327,1.437.445.936.225,1.412-.079,1.534-1.029.267-2.094-.362-2.563-2.327-1.811-.49.188-.895.691-1.514.5a6.143,6.143,0,0,1,3.468-1.174,2.644,2.644,0,0,1,.173,3.757" transform="translate(-22.615 -19.18)" fill="#454871"/>
    <path id="Path_17043" data-name="Path 17043" d="M77.481,79.946a4.951,4.951,0,0,1-.007,2.753q0-1.377.007-2.753" transform="translate(-22.095 -22.8)" fill="#712c72"/>
  </g>
</svg>
