<svg xmlns="http://www.w3.org/2000/svg" xmlns:xlink="http://www.w3.org/1999/xlink" width="55.998" height="84" viewBox="0 0 55.998 84">
  <defs>
    <clipPath id="clip-path">
      <rect id="Rectangle_1747" data-name="Rectangle 1747" width="27.84" height="68.699" fill="none"/>
    </clipPath>
  </defs>
  <g id="Group_1083" data-name="Group 1083" transform="translate(-288.002 -194)">
    <g id="Group_633" data-name="Group 633" transform="translate(260 194)">
      <g id="Group_634" data-name="Group 634">
        <path id="Path_5665" data-name="Path 5665" d="M276.9,21.634l-.007,2.122c-1.208,1.006-2.694.467-3.94.631,1.247.15,2.731-.376,3.94.626l.007,2.122q-1.39.635,0,1.27V30.52q-1.39.635,0,1.27V33.9q-1.39.635,0,1.27,0,1.061-.008,2.122c-1.208,1.006-2.694.467-3.939.631,1.247.15,2.731-.376,3.939.625q0,1.061.008,2.122-1.39.635,0,1.27V44.06q-1.39.635,0,1.27v2.115q-1.39.635,0,1.27l-.007,2.122c-1.208,1.006-2.694.467-3.94.631,1.247.15,2.731-.376,3.94.625q0,1.061.007,2.122-1.39.635,0,1.27V57.6q-1.39.635,0,1.27v2.115q-1.39.635,0,1.27,0,1.061-.008,2.122c-1.2,1.035-2.7.406-3.82.645,1.128.135,2.611-.39,3.82.611q0,1.061.008,2.122-1.39.635,0,1.27v2.115q-1.39.635,0,1.27v2.115q-1.39.635,0,1.27l-.007,2.122c-1.208,1.006-2.694.467-3.94.631,1.247.149,2.731-.376,3.94.625q.006,1.079.012,2.158a4.592,4.592,0,0,1-3.044.938q-7.838.147-15.676,0a4.59,4.59,0,0,1-3.044-.938Q255.1,43.266,255.075,5.2c0-3.223,2.137-5.167,5.628-5.19,3.281-.022,6.563,0,9.844,0,4.541-.005,6.428,1.694,6.414,5.81,0,1.466-.047,2.931-.072,4.4-1.208,1.006-2.694.467-3.939.631,1.247.149,2.731-.376,3.939.625q0,1.061.008,2.122-1.39.635,0,1.27v2.115q-1.39.635,0,1.27v2.115q-1.39.635,0,1.27" transform="translate(-192.985 0)" fill="#ded5c0"/>
        <path id="Path_5673" data-name="Path 5673" d="M255.069,360.028h21.765c.3,1.746-.157,2.707-2.4,2.665q-8.476-.159-16.958,0c-2.246.042-2.707-.919-2.4-2.665" transform="translate(-192.917 -278.694)" fill="#705225"/>
        <path id="Path_5674" data-name="Path 5674" d="M325.746,46.216h-6.1q0-.5.006-1.007c1.97-.578,4.056-.2,6.089-.249q0,.629,0,1.257" transform="translate(-241.843 -34.743)" fill="#b4a680"/>
        <path id="Path_5675" data-name="Path 5675" d="M325.766,166.24c-2.034-.049-4.119.329-6.089-.628,1.97-.957,4.056-.579,6.089-.628q0,.629,0,1.257" transform="translate(-241.862 -127.686)" fill="#b4a680"/>
        <path id="Path_5676" data-name="Path 5676" d="M325.766,106.3c-2.034-.049-4.119.329-6.089-.628,1.97-.957,4.056-.579,6.09-.628q0,.629,0,1.257" transform="translate(-241.862 -81.288)" fill="#b4a680"/>
        <path id="Path_5677" data-name="Path 5677" d="M325.766,226.179c-2.034-.049-4.119.329-6.089-.628,1.97-.957,4.056-.579,6.09-.628q0,.629,0,1.257" transform="translate(-241.862 -174.084)" fill="#b4a680"/>
        <path id="Path_5678" data-name="Path 5678" d="M325.765,286.118c-2.034-.049-4.119.329-6.089-.628,1.97-.957,4.056-.579,6.09-.628q0,.629,0,1.257" transform="translate(-241.861 -220.483)" fill="#b4a680"/>
        <path id="Path_5679" data-name="Path 5679" d="M325.766,346.057c-2.034-.049-4.119.329-6.089-.628,1.97-.957,4.056-.579,6.09-.628q0,.629,0,1.257" transform="translate(-241.862 -266.881)" fill="#b4a680"/>
        <path id="Path_5681" data-name="Path 5681" d="M334.506,151.149c-1.079-.135-2.338.506-3.287-.635.95-1.141,2.209-.5,3.287-.635q0,.635,0,1.27" transform="translate(-250.595 -115.974)" fill="#b4a680"/>
        <path id="Path_5682" data-name="Path 5682" d="M334.506,181.119c-1.079-.135-2.338.507-3.287-.635.95-1.141,2.209-.5,3.287-.635q0,.635,0,1.27" transform="translate(-250.595 -139.174)" fill="#b4a680"/>
        <path id="Path_5683" data-name="Path 5683" d="M334.162,61.294c-1.1-.026-2.288.292-3.4-.5,1.06-1.273,2.319-.632,3.4-.768q0,.635,0,1.27" transform="translate(-250.251 -46.429)" fill="#b4a680"/>
        <path id="Path_5684" data-name="Path 5684" d="M334.506,196.1c-1.079-.135-2.338.506-3.287-.635.95-1.141,2.209-.5,3.287-.635q0,.635,0,1.27" transform="translate(-250.595 -150.773)" fill="#b4a680"/>
        <path id="Path_5685" data-name="Path 5685" d="M334.506,211.088c-1.079-.135-2.338.506-3.287-.635.95-1.141,2.209-.5,3.287-.635q0,.635,0,1.27" transform="translate(-250.595 -162.372)" fill="#b4a680"/>
        <path id="Path_5686" data-name="Path 5686" d="M334.506,76.226c-1.079-.135-2.338.506-3.287-.635.95-1.141,2.209-.5,3.287-.635q0,.635,0,1.27" transform="translate(-250.595 -57.976)" fill="#b4a680"/>
        <path id="Path_5687" data-name="Path 5687" d="M334.506,91.21c-1.079-.135-2.338.506-3.287-.635.95-1.14,2.209-.5,3.287-.635q0,.635,0,1.27" transform="translate(-250.595 -69.576)" fill="#b4a680"/>
        <path id="Path_5688" data-name="Path 5688" d="M334.506,256.043c-1.079-.135-2.338.506-3.287-.635.95-1.141,2.209-.5,3.287-.635q0,.635,0,1.27" transform="translate(-250.595 -197.171)" fill="#b4a680"/>
        <path id="Path_5689" data-name="Path 5689" d="M334.506,121.18c-1.079-.135-2.338.506-3.287-.635.95-1.141,2.209-.5,3.287-.635q0,.635,0,1.27" transform="translate(-250.595 -92.775)" fill="#b4a680"/>
        <path id="Path_5690" data-name="Path 5690" d="M334.506,271.027c-1.079-.135-2.338.506-3.287-.635.95-1.141,2.209-.5,3.287-.635q0,.635,0,1.27" transform="translate(-250.595 -208.77)" fill="#b4a680"/>
        <path id="Path_5691" data-name="Path 5691" d="M334.506,241.059c-1.079-.135-2.338.506-3.287-.635.95-1.141,2.209-.5,3.287-.635q0,.635,0,1.27" transform="translate(-250.595 -185.572)" fill="#b4a680"/>
        <path id="Path_5692" data-name="Path 5692" d="M334.506,301c-1.079-.135-2.338.506-3.287-.635.95-1.141,2.209-.5,3.287-.635q0,.635,0,1.27" transform="translate(-250.595 -231.97)" fill="#b4a680"/>
        <path id="Path_5693" data-name="Path 5693" d="M334.506,315.981c-1.079-.135-2.338.506-3.287-.635.95-1.141,2.209-.5,3.287-.635q0,.635,0,1.27" transform="translate(-250.595 -243.569)" fill="#b4a680"/>
        <path id="Path_5694" data-name="Path 5694" d="M334.506,330.966c-1.079-.135-2.338.506-3.287-.635.95-1.141,2.209-.5,3.287-.635q0,.635,0,1.27" transform="translate(-250.595 -255.168)" fill="#b4a680"/>
        <path id="Path_5695" data-name="Path 5695" d="M334.506,136.165c-1.079-.135-2.338.507-3.287-.635.95-1.141,2.209-.5,3.287-.635q0,.635,0,1.27" transform="translate(-250.595 -104.375)" fill="#b4a680"/>
        <path id="Path_5696" data-name="Path 5696" d="M293.321,19.216c-1.446-.087-2.173-.847-2.084-2.192a1.86,1.86,0,0,1,2.157-1.8c1.49.029,2.207.838,2.121,2.178-.077,1.2-.878,1.783-2.194,1.818" transform="translate(-220.34 -11.781)" fill="#f1efe6"/>
      </g>
    </g>
    <g id="Group_684" data-name="Group 684" transform="translate(288.002 209.301)">
      <g id="Group_683" data-name="Group 683" transform="translate(0 0)" clip-path="url(#clip-path)">
        <path id="Path_6894" data-name="Path 6894" d="M25.766,57.025c-.178,2.984-.657,5.934-.974,8.9-.37,3.469-.72,6.939-1.085,10.408-.047.445-.136.887-.206,1.33-.223.657-.919.44-1.343.727a7.769,7.769,0,0,1-2.751-.307,1.356,1.356,0,0,1-.394-.4,2.535,2.535,0,0,1-.171-1.321c.094-3.307-.182-6.605-.2-9.911-.009-1.415-.068-2.845-.174-3.994-.111,2.474-.413,5.2-.638,7.934-.161,1.949-.363,3.895-.576,5.839a8.956,8.956,0,0,1-.3,1.716.928.928,0,0,1-.2.365,5.3,5.3,0,0,1-2.891.03,6.3,6.3,0,0,0-.686-.072c-.316-.044-.463-.209-.286-.534a1.078,1.078,0,0,0,.317-1.006c-.369-3.255-.6-6.518-.759-9.793a46.429,46.429,0,0,0-.243-4.985,6.317,6.317,0,0,1,.024-1.9c.182-1.207.734-1.535,1.93-1.269a17.742,17.742,0,0,0,9.463-.485c.675-.219,1.425-.46,1.711-1.263.135-.215.272-.422.431-.017" transform="translate(-4.095 -19.145)" fill="#705225"/>
        <path id="Path_6895" data-name="Path 6895" d="M6.208,21.039a2.469,2.469,0,0,1-1.566-2.873,1.7,1.7,0,0,1,1.2-.8c.412-.028.493-.328.569-.642a1.507,1.507,0,0,1,1.37-1.282,18.439,18.439,0,0,0,5.186-2.062,1.2,1.2,0,0,1,.51-.2.3.3,0,0,1,.286.323c-.038.359-.352.557-.61.906a6.235,6.235,0,0,0,3.629-2.117c.563-.713.648-.7,1.4-.143a19.452,19.452,0,0,0,3.26,1.762A3.317,3.317,0,0,1,22.88,15.1a2.142,2.142,0,0,1,.4.837c.363,1.295.366,1.294,1.652,1.3-.134.576.367,1,.351,1.573a1.828,1.828,0,0,1-1.592,2.068.694.694,0,0,0-.51.439,6.639,6.639,0,0,1-3.635,3.636c-.067.032-.111.111-.166.168a5.956,5.956,0,0,1-2.176.866,15.126,15.126,0,0,1-3.94.188c-.81-.268-1.735-.155-2.451-.738a1.616,1.616,0,0,0-.388-.246A5.925,5.925,0,0,1,6.92,22.264a1.224,1.224,0,0,1-.054-.459c-.1-.359,0-.89-.658-.766" transform="translate(-1.547 -3.958)" fill="#ffc894"/>
        <path id="Path_6896" data-name="Path 6896" d="M12.975,9.3a18.4,18.4,0,0,1-5.459,2.337C6.807,11.815,6.19,12,6,12.805c-1.277-.612-1.4-1.783-1.413-3.024-.354.171-.353.729-.834.649-.381-.064-.426-.518-.745-.658A6.747,6.747,0,0,1,4.076,6.533a.875.875,0,0,0-.1-.068c-.314-.135-.866.225-.951-.284-.093-.558.506-.266.765-.419A4.1,4.1,0,0,0,5.125,4.325,7.829,7.829,0,0,1,11.533.731a2.264,2.264,0,0,0,.624-.08c3.6-1.442,6.658-.361,9.419,2.039.715.622,1.373,1.309,2.057,1.967.126.2.338.456.076.626-.522.338-.354.772-.247,1.2a4.614,4.614,0,0,1-1.27,4.725A3.889,3.889,0,0,0,20.5,9.961a11.893,11.893,0,0,1-3.274-1.87c-.355-.317-.508-.08-.674.167a6.235,6.235,0,0,1-4.008,2.421.229.229,0,0,1-.294-.131l.868-.943a.666.666,0,0,0,.215-.466c-.128.064-.245.113-.363.159" transform="translate(-1.014 0)" fill="#705225"/>
        <path id="Path_6897" data-name="Path 6897" d="M5.344,89.526a1.709,1.709,0,0,1,1.609-.781,6.253,6.253,0,0,1,2.084.111c.093.26-.117.337-.268.451a3.482,3.482,0,0,0-.86.5c-.889.493-.9.558-.393,1.816a2.345,2.345,0,0,0,2.231.632,14.294,14.294,0,0,0,4-.915,4.686,4.686,0,0,1,3.023.119,12.413,12.413,0,0,0,4.365.559c.66-.064,1.317-.2,1.535-.98,0-.609-.118-1.144-.782-1.371a6.106,6.106,0,0,0-.841-.524c-.112-.111-.217-.224-.125-.4a9.229,9.229,0,0,1,2.7.16c.984.544,1.14,1.626,1.52,2.516.463,1.083.725,2.255,1.171,3.354.191.47,0,.707-.427.823a3.313,3.313,0,0,1-.869.048q-10.351,0-20.7,0c-.158,0-.318,0-.476-.005-.814-.046-.992-.286-.726-1.051.52-1.5,1.29-2.884,1.92-4.332.105-.241.189-.493.314-.726" transform="translate(-1.01 -29.903)" fill="#b4a680"/>
        <path id="Path_6898" data-name="Path 6898" d="M26.448,99.975c.107,2.294.02,2.386-2.249,2.386q-9.75,0-19.5,0c-2.19,0-2.322-.148-2.206-2.378a1.257,1.257,0,0,1,.7-.086c7.629-.02,15.258.038,22.886-.032a.593.593,0,0,1,.37.111" transform="translate(-0.831 -33.663)" fill="#b4a680"/>
        <path id="Path_6899" data-name="Path 6899" d="M5.341,38.268q.236-.317.471-.635a.766.766,0,0,1,.878.131,5.21,5.21,0,0,0,1.2.595.682.682,0,0,0,.854-.2,1.152,1.152,0,0,1,1.208-.39,30.839,30.839,0,0,0,5.444.253,27.018,27.018,0,0,0,3.7-.353,5.258,5.258,0,0,1,1.179-.106,1.741,1.741,0,0,1,.541.079c.333.121.391.335.16.6-.209.239-.481.523-.79.438-.529-.147-.735.16-.965.5a8.654,8.654,0,0,1-2.729.409,38.458,38.458,0,0,1-6.56-.213,1.673,1.673,0,0,0-.315-.03c-.186.005-.4,0-.446.231-.05.269.166.379.374.427a8.855,8.855,0,0,0,1.8.218,40.668,40.668,0,0,0,10.01-.583c.487-.11.927-.209,1-.822.03-.265.265-.373.5-.453a10.148,10.148,0,0,0,2.119-.868.466.466,0,0,1,.693.123l.453.627a3.188,3.188,0,0,1-1.986,1.578c-.587.228-1.2.377-1.441,1.1-.115.338-.525.429-.861.5a25.241,25.241,0,0,1-9.973.544c-.727-.14-1.47-.178-2.187-.371-.538-.145-1.079-.27-1.262-.929-.088-.318-.429-.367-.7-.449a5.85,5.85,0,0,1-1.889-.981c-.3-.23-.667-.472-.475-.965" transform="translate(-1.782 -12.605)" fill="#705225"/>
        <path id="Path_6900" data-name="Path 6900" d="M24.709,57c.424.417.021.614-.244.785a8.331,8.331,0,0,1-3.342,1.284,28.477,28.477,0,0,1-4.632.343,11.9,11.9,0,0,1-3.481-.544c-.587-.191-.95.116-1.128.67a5.952,5.952,0,0,0-.122,2.589c.092.712.058,1.418.126,2.123.213,2.221.037,4.458.388,6.683.18,1.14.123,2.333.222,3.5.07.812.158,1.616.3,2.416.088.495.126.994-.618.98-.148.06-.237-.023-.315-.133-.594-.779-.217-1.682-.32-2.523-.159-.538.045-1.1-.117-1.638-.173-2.49-.323-4.982-.524-7.47-.244-3.016-.53-6.027-.8-9.041.152-.437.465-.225.711-.152a24.584,24.584,0,0,0,11.212.657c.6-.1,1.174-.316,1.763-.465.3-.076.6-.244.919-.065" transform="translate(-3.406 -19.132)" fill="#705225"/>
        <path id="Path_6901" data-name="Path 6901" d="M35.783,44.233a37.312,37.312,0,0,1,1.27,5.651c.166.878.245,1.773.377,2.658a2.037,2.037,0,0,0,.535,1.11,3.657,3.657,0,0,1,.833,2.565c0,.259-.206.38-.327.561-.278.414-.835.263-1.128.771-.225.39-.386-.211-.5-.457-.324.042-.123.65-.5.534-.337-.1-.188-.5-.238-.776s-.1-.571-.145-.856c-.022-.131-.039-.27-.2-.3a.233.233,0,0,0-.291.191c-.045.145-.07.349-.279.3a.377.377,0,0,1-.308-.412c.6-2.685-.977-4.944-1.453-7.417a3.084,3.084,0,0,0-.339-1.271,1.4,1.4,0,0,1-.568-1.212.391.391,0,0,1,.152-.164,8.429,8.429,0,0,0,2.361-.725,2.347,2.347,0,0,0,.752-.752" transform="translate(-10.957 -14.91)" fill="#ffc894"/>
        <path id="Path_6902" data-name="Path 6902" d="M6.126,45.874c-.79,1.566-.945,3.321-1.466,4.967A12.336,12.336,0,0,1,4.1,52.569a4.856,4.856,0,0,0-.255,2.941c.039.263.134.664-.215.766-.327.1-.234-.336-.382-.495-.282-.3-.375,0-.412.164-.107.459-.147.933-.244,1.394-.064.3-.15.646-.529.2-.257-.306-.571.4-.964-.095-.259-.325-.933-.487-1.019-.927a2.666,2.666,0,0,1,.385-2.262,5.664,5.664,0,0,0,1.059-3.128,35.709,35.709,0,0,1,1.087-5.488c.166-.544.03-1.175.465-1.639.466,1.486,1.669,1.673,2.971,1.684a.155.155,0,0,1,.075.194" transform="translate(0 -14.831)" fill="#ffc895"/>
        <path id="Path_6903" data-name="Path 6903" d="M4.439,42.582c-.532-.588-1.185-1.149-.436-2.015.384-.105.579.194.8.4a5.136,5.136,0,0,0,2.544,1.375c.155.031.347.031.451.136,1.172,1.171,2.742,1.083,4.2,1.3a21.112,21.112,0,0,0,9.018-.613,2.241,2.241,0,0,0,1.37-.719.945.945,0,0,1,.559-.278,6.332,6.332,0,0,0,2.868-1.614c.111-.109.231-.223.414-.169.6.829.6.829-.36,2.087A4.106,4.106,0,0,1,23.88,43.78c-.386.168-.787.288-.969.719H22.85c-.3.231-.7.135-1.026.3A26.472,26.472,0,0,1,9.151,45a4.782,4.782,0,0,1-1.718-.831,4.783,4.783,0,0,1-2.494-.91.9.9,0,0,1-.5-.674" transform="translate(-1.236 -13.608)" fill="#705225"/>
        <path id="Path_6904" data-name="Path 6904" d="M26.4,39.813a5.859,5.859,0,0,1-2.714,1.833c-1.167.393-2.133,1.182-3.405,1.441a24.556,24.556,0,0,1-8.64.276c-.862-.129-1.711-.29-2.557-.491-.433-.1-.923-.053-1-.674-.008-.062-.156-.143-.246-.152A6.571,6.571,0,0,1,4.175,40l.791-1.3c.4,1.031,1.389,1.282,2.259,1.679.477.218,1.211.092,1.111.991-.027.242.32.239.505.292a27,27,0,0,0,3.956.688,25.972,25.972,0,0,0,8.3-.648c.544-.1,1.293-.054,1.207-1-.026-.292.283-.247.474-.3a6.66,6.66,0,0,0,2.971-1.724c.064.465.546.692.65,1.134" transform="translate(-1.407 -13.038)" fill="#d7d2b5"/>
        <path id="Path_6905" data-name="Path 6905" d="M20.67,36.131a45.465,45.465,0,0,1-7.412.47c-1.024-.058-2.045-.18-3.067-.272-.437-.04-.9-.184-1.047.479-.088.39-.447.316-.725.238a4.929,4.929,0,0,1-1.641-.767c-.216-.162-.4-.347-.7-.3l.954-1.115a2.247,2.247,0,0,1,.784.369c.49.273.943.435,1.43-.059.3-.3.742-.206,1.139-.17a35.557,35.557,0,0,0,3.793.266,40.577,40.577,0,0,0,6.855-.652,2.347,2.347,0,0,0,.46-.12c.293-.121.836-.1.705-.551-.107-.364-.553-.085-.842-.046a38.346,38.346,0,0,1-9.318.429c-.577-.062-1.163-.025-1.739-.131a.679.679,0,0,0-.531.095c-.9.618-1.132.611-2.093-.05A7.6,7.6,0,0,1,9.9,32.959c.342-.194.613.062.89.168a11.9,11.9,0,0,0,4.188.719,8.649,8.649,0,0,0,1.936-.135A14.977,14.977,0,0,0,20.541,33a1.271,1.271,0,0,0,.776-.5,4.7,4.7,0,0,1,2.549,1.458.359.359,0,0,1-.206.393,1.674,1.674,0,0,0-1,1.112c-.143.475-.7.5-1.134.589-.28.058-.579-.067-.851.087" transform="translate(-2.049 -10.953)" fill="#d7d2b5"/>
        <path id="Path_6906" data-name="Path 6906" d="M23.792,46.64a1.454,1.454,0,0,1,.913-.066c.007.494.512.788.514,1.285L25.2,50.425a5.428,5.428,0,0,1-1.947.625,24.716,24.716,0,0,1-9.291.507,18.537,18.537,0,0,1-4.218-1.084.928.928,0,0,1-.565-.406c.079-.631-.141-1.285.141-1.9a3.428,3.428,0,0,0,2.07,1.055,24.281,24.281,0,0,0,12.684-.174,1.428,1.428,0,0,0,.512-.2.492.492,0,0,0,.19-.562c-.089-.3-.322-.2-.524-.157a1.734,1.734,0,0,1-1,.141c-.2-.67.377-1.08.545-1.627" transform="translate(-3.091 -15.684)" fill="#d7d2b5"/>
        <path id="Path_6907" data-name="Path 6907" d="M9.1,51.867a23.324,23.324,0,0,0,9.439,1.451,30.873,30.873,0,0,0,5.734-.964,1.893,1.893,0,0,1,.848-.129l0,.9c-.12.343-.443.427-.725.562a15.16,15.16,0,0,1-5.6,1.236,19.789,19.789,0,0,1-8.681-1.291,3.557,3.557,0,0,1-1.148-.683c.021-.363-.132-.748.129-1.083" transform="translate(-3.016 -17.484)" fill="#705225"/>
        <path id="Path_6908" data-name="Path 6908" d="M26.449,96.311a4.276,4.276,0,0,1-1.245.162q-10.853-.01-21.705-.005a1.758,1.758,0,0,1-1-.149,3.416,3.416,0,0,1,.4-2.046c.659-1.317,1.214-2.686,1.825-4.028.105-.231.156-.518.446-.624a5.411,5.411,0,0,1-.9,2.388,26.055,26.055,0,0,0-1.19,2.71c-.275.692,0,.807.634.8,3.541-.019,7.083-.009,10.624-.009H25.121c1.023,0,.993.008.644-.933-.318-.858-.543-1.751-.845-2.615a10.874,10.874,0,0,0-1.477-2.971,1.707,1.707,0,0,1,1.273,1.287q.868,2.335,1.681,4.691a3.268,3.268,0,0,1,.052,1.339" transform="translate(-0.832 -29.999)" fill="#d7d2b5"/>
        <path id="Path_6909" data-name="Path 6909" d="M23.75,46.432a1.9,1.9,0,0,1-.636,1.513c-.127.362-.459.42-.763.477a23.555,23.555,0,0,1-12.339-.577,1.783,1.783,0,0,1-.7-.345,2.448,2.448,0,0,0,.121-1.356c-.118.174-.186.275-.254.377-.012-.048-.021-.1-.028-.144-.129-.17-.158-.329.046-.466a18.993,18.993,0,0,0,8.58,1.385,24.025,24.025,0,0,0,5.977-.864" transform="translate(-3.049 -15.476)" fill="#d7d2b5"/>
        <path id="Path_6910" data-name="Path 6910" d="M9.426,48.3a14.783,14.783,0,0,1,2.74.694,22.522,22.522,0,0,0,9.149.144,7.35,7.35,0,0,0,1.916-.392,4.622,4.622,0,0,0,1.145-.272c.241-.04.621-.414.711.054.077.4.336,1.016-.369,1.189-1.175.288-2.357.561-3.546.784a22.924,22.924,0,0,1-9.711-.475c-.561-.135-1.1-.345-1.659-.506-.4-.117-.391-.443-.409-.76l.032-.459" transform="translate(-3.167 -16.281)" fill="#705225"/>
        <path id="Path_6911" data-name="Path 6911" d="M27.461,37.089c-.189-.087-.358-.2-.571,0a4.875,4.875,0,0,1-2.223.953c-.3.082-.447.2-.352.473.19.544-.127.6-.538.7a30.232,30.232,0,0,1-6.976.763A39.455,39.455,0,0,1,11.74,39.8a5.83,5.83,0,0,0-.62-.111c-.57-.013-.514-.4-.5-.777.025-.526.43-.415.7-.365a35.138,35.138,0,0,0,6.239.309,31.547,31.547,0,0,0,3.537-.341c.49-.441,1.158-.258,1.714-.485.262-.107.56-.135.834-.224.379-.074.358-.359.338-.644a.663.663,0,0,1,.577-.564,9.234,9.234,0,0,0,1.8-.77c.186.577.813.772,1.1,1.265" transform="translate(-3.578 -12.076)" fill="#d7d2b5"/>
        <path id="Path_6912" data-name="Path 6912" d="M8.926,53.5c.465-.068.75.316,1.134.457a20.538,20.538,0,0,0,9.279,1.22,16.434,16.434,0,0,0,5.741-1.5q0,.652.009,1.305a9.691,9.691,0,0,1-4.328,1.415,23.105,23.105,0,0,1-7.808-.12,20.712,20.712,0,0,1-3.087-1,4.318,4.318,0,0,0-.981-.3c-.233-.5.144-.978.04-1.472" transform="translate(-2.969 -18.03)" fill="#d7d2b5"/>
        <path id="Path_6913" data-name="Path 6913" d="M8.16,34.729c.28-.06.51.1.762.17.413.111.931.659,1.03-.34.029-.292.465-.179.7-.144a26.722,26.722,0,0,0,5.438.27,34.718,34.718,0,0,0,6.34-.676c.247-.06.554-.229.624.186.056.331.1.685-.365.839a13.7,13.7,0,0,1-3.01.613,38.909,38.909,0,0,1-5.912.318c-.97-.052-1.934-.2-2.9-.251-.434-.025-1.028-.353-1.185.461-.037.193-.327.172-.495.125a2.565,2.565,0,0,1-1.667-.95l.643-.62" transform="translate(-2.534 -11.435)" fill="#705225"/>
        <path id="Path_6914" data-name="Path 6914" d="M31.945,13.573a.754.754,0,0,1,.239-.636c1.216-1.2,1.13-2.678.81-4.164-.11-.511-.366-.925.35-1.175.243-.085-.018-.381.042-.575.422.174.807.528,1.313.182a.588.588,0,0,1-.353.711c-.8.228-.515.691-.337,1.181a11.413,11.413,0,0,1,.148,6.553,1.047,1.047,0,0,1-1.682-.612,4.323,4.323,0,0,0-.53-1.464" transform="translate(-10.767 -2.367)" fill="#705225"/>
        <path id="Path_6915" data-name="Path 6915" d="M8.925,55.587c.046-.3.184-.316.44-.187a18.586,18.586,0,0,0,9.806,1.59,15.162,15.162,0,0,0,5.355-1.262.926.926,0,0,1,.6-.132,1.191,1.191,0,0,1-.449.933.219.219,0,0,0-.37-.014,24.467,24.467,0,0,1-4.886,1.11,6.57,6.57,0,0,1-1.181-.009c-2.782-.088-5.586-.031-8.216-1.182a.214.214,0,0,0-.321.106c-.393-.21-.785-.421-.782-.955" transform="translate(-3.009 -18.649)" fill="#b4a680"/>
        <path id="Path_6916" data-name="Path 6916" d="M3,14.54c.118-.085.16-.3.337.03.374.7.516.671.892.023.1-.176.1-.549.441-.415.285.113.1.391.111.613.04.906.03,1.853.959,2.41a.472.472,0,0,1,.251.372c.021.483-.046.868-.693.8-.514-.057-.711.573-1.2.607-.111-.481-.215-.963-.334-1.441-.074-.3.208-.815-.506-.751C3.1,16.8,3.01,16.356,3,16.1c-.022-.519,0-1.04,0-1.56" transform="translate(-1.008 -4.77)" fill="#705225"/>
        <path id="Path_6917" data-name="Path 6917" d="M29.126,37.537a9.225,9.225,0,0,1-2.713.593c-.088-.6-.124-1.039.709-.543.478.285.61-.4,1.026-.464-.219-.331-.451-.207-.638-.251a2.9,2.9,0,0,1,1.041-.318c.489-.14,1-.227.895-.945-.046-.312.249-.371.461-.454.292-.115.618-.162.8-.465a2.06,2.06,0,0,1,.971.752c-.355.653-1.045.736-1.652.934-.289.093-.581.1-.581.5-.19.18-.191.449-.316.66" transform="translate(-8.889 -11.694)" fill="#705225"/>
        <path id="Path_6918" data-name="Path 6918" d="M32.658,45.567c-.054-.268-.241-.554.24-.665a9.507,9.507,0,0,0,2.711-1.366q.1.231.2.461c.19.888-.684,1-1.1,1.165a3.69,3.69,0,0,1-2.054.4" transform="translate(-10.981 -14.676)" fill="#f4a672"/>
        <path id="Path_6919" data-name="Path 6919" d="M7.707,45.167c-.015.155-.03.311-.045.466a3.055,3.055,0,0,1-2.9-.83c-.225-.291-.079-.6-.123-.9l.125-.19a5.95,5.95,0,0,0,2.939,1.459" transform="translate(-1.563 -14.734)" fill="#f5a872"/>
        <path id="Path_6920" data-name="Path 6920" d="M26.877,32.42c.259.514-.243.534-.468.609a13.559,13.559,0,0,1-3.834.8c.069-.5.441-.731.838-.941.965-.33,2-.312,2.974-.609l.491.141" transform="translate(-7.61 -10.881)" fill="#b4a680"/>
        <path id="Path_6921" data-name="Path 6921" d="M16.91,34.163a11.308,11.308,0,0,1-5.063-1.12.759.759,0,0,1,.632-.3c.734.156,1.486.172,2.226.278a3.289,3.289,0,0,1,.9.224c.32.465,1.049.355,1.3.919" transform="translate(-3.993 -11.036)" fill="#b4a680"/>
        <path id="Path_6922" data-name="Path 6922" d="M26.762,32.161c-.549.58-1.332.389-1.995.6a6.514,6.514,0,0,1-1,.158.233.233,0,0,1-.023-.321l2.081-.666.94.232" transform="translate(-7.985 -10.763)" fill="#c0b494"/>
        <path id="Path_6923" data-name="Path 6923" d="M15.924,33.234c-.841-.1-1.682-.2-2.523-.3-.235-.029-.552.094-.6-.306l.785-.221,2.341.538c.144.1.111.194,0,.289" transform="translate(-4.315 -10.924)" fill="#c0b494"/>
        <path id="Path_6924" data-name="Path 6924" d="M12.355,88.344l.314.133c.15.659.747-.051.99.324-.854.971-1.281,1.024-2.1.258l.363-.325.431-.389" transform="translate(-3.897 -29.78)" fill="#d7d2b5"/>
        <path id="Path_6925" data-name="Path 6925" d="M29.124,88.594l.168.335c-.656.618-.847.637-1.543.161-.125-.086-.321-.035-.407-.2.269-.536.984-.131,1.282-.607l.5.314" transform="translate(-9.217 -29.758)" fill="#d7d2b5"/>
        <path id="Path_6926" data-name="Path 6926" d="M7.032,25.655c.166-.187.506-.3.569-.14.1.262.394.58.088.906l-.658-.766" transform="translate(-2.37 -8.575)" fill="#bd8736"/>
        <path id="Path_6927" data-name="Path 6927" d="M12.088,82.066a3.39,3.39,0,0,1,.117,1.638,4.8,4.8,0,0,1-.117-1.638" transform="translate(-4.068 -27.664)" fill="#393832"/>
        <path id="Path_6928" data-name="Path 6928" d="M19.045,80.327a30.749,30.749,0,0,0,.594-4.694c.358-3.732.668-7.468,1-11.2a.88.88,0,0,1,.219-.651,45.288,45.288,0,0,1,.346,5.338c.105,3.46.143,6.921.212,10.381,0,.2-.067.429.132.591.16.246-.025.372-.2.4a3.215,3.215,0,0,1-2.3-.159" transform="translate(-6.42 -21.5)" fill="#fbfafa"/>
        <path id="Path_6929" data-name="Path 6929" d="M11.163,89.29l1.309.49c-.376-.978.656-.327.788-.748a17.223,17.223,0,0,0,2.809.144.545.545,0,0,1,.284.626.947.947,0,0,1-.173.331,6.779,6.779,0,0,1-3.17,1.276c-.289.05-.634.058-.8-.207a5.032,5.032,0,0,0-1.832-1.417,1.066,1.066,0,0,1,.783-.495" transform="translate(-3.499 -30.012)" fill="rgba(112,82,37,0.85)"/>
        <path id="Path_6930" data-name="Path 6930" d="M25.755,89.037c.348.012,1-.491.714.52l1.236-.479a.83.83,0,0,1,.821.453c-.605.441-1.34.716-1.737,1.423a.538.538,0,0,1-.57.2,6.214,6.214,0,0,1-3.443-1.378.707.707,0,0,1,.215-1.052c.9.279,1.855.1,2.764.312" transform="translate(-7.63 -29.908)" fill="rgba(112,82,37,0.85)"/>
        <path id="Path_6931" data-name="Path 6931" d="M21.754,88.609a1.32,1.32,0,0,0-.105.989c-.012.227.118.483-.136.66a1.463,1.463,0,0,0-1.42-.476,1.009,1.009,0,0,1-.955-.2l-.176-.627c.019-.113.036-.225.055-.337.675,0,1.351.009,2.027.009.2,0,.438.067.476-.247l.234.227" transform="translate(-6.392 -29.793)" fill="#b4a680"/>
        <path id="Path_6932" data-name="Path 6932" d="M28.743,23.6a1.43,1.43,0,0,1,1.308.572,1.024,1.024,0,0,1,.06,1.436,1.07,1.07,0,0,1-1.435.246.966.966,0,0,1-.467-1.258,4.045,4.045,0,0,1,.389-.835c-.059-.15.021-.176.145-.161" transform="translate(-9.489 -7.95)" fill="#f7a185"/>
        <path id="Path_6933" data-name="Path 6933" d="M9.19,25.127a1.492,1.492,0,0,1,1.26-1.256c.428,0,.974.721.963,1.281a1.226,1.226,0,0,1-1.153,1.083A1.093,1.093,0,0,1,9.19,25.127" transform="translate(-3.098 -8.047)" fill="#f7a186"/>
        <path id="Path_6934" data-name="Path 6934" d="M17.512,33.412c0-.1,0-.193,0-.289a25.177,25.177,0,0,0,4.145-.189c.007.107.015.214.023.321l-.813.794a6.083,6.083,0,0,1-2.049.179c-.438-.269-1.1-.177-1.307-.816" transform="translate(-5.903 -11.102)" fill="rgba(112,82,37,0.69)"/>
        <path id="Path_6935" data-name="Path 6935" d="M27.47,22.858c-.766.969-1.419.921-2.029-.146-.308-.5-.025-.872.336-1.131a1.154,1.154,0,0,1,1.452.055.823.823,0,0,1,.24,1.222" transform="translate(-8.532 -7.197)" fill="#101010"/>
        <path id="Path_6936" data-name="Path 6936" d="M13.922,23.053c-.318.4-.652.752-1.242.571s-.7-.638-.723-1.161c-.139-.547.233-.766.631-.934a1.052,1.052,0,0,1,1.169.241.944.944,0,0,1,.165,1.282" transform="translate(-4.021 -7.228)" fill="#111010"/>
        <path id="Path_6937" data-name="Path 6937" d="M27.385,22.557c.086-.7-.145-1.212-.884-1.332-.646-.106-1.013.3-1.145,1.186-.393-.377-.393-.377-.021-1.4.867-.846,1.86-.705,2.247.318a2.4,2.4,0,0,1,.119,1.216l-.145.16-.171-.147" transform="translate(-8.447 -6.896)" fill="#eeedec"/>
        <path id="Path_6938" data-name="Path 6938" d="M13.792,22.757c.093-.636-.03-1.205-.719-1.382a.977.977,0,0,0-1.247.792c-.05.088-.083.231-.153.251-.164.05-.093-.113-.113-.187-.091-.351.18-.642.165-.981a1.206,1.206,0,0,1,1.307-.671,1.161,1.161,0,0,1,1.1,1.054c-.043.4.226.887-.341,1.124" transform="translate(-3.891 -6.933)" fill="#e5e4e4"/>
        <path id="Path_6939" data-name="Path 6939" d="M21.34,27.11a1.39,1.39,0,0,1-.648,1.706,1.9,1.9,0,0,1-2.158,0,1.584,1.584,0,0,1-.586-1.835c.24.965.513,1.907,1.739,1.835,1.018-.06,1.474-.743,1.653-1.711" transform="translate(-6.025 -9.097)" fill="#8e2d20"/>
        <path id="Path_6940" data-name="Path 6940" d="M7.015,22.655c-.115.376.165.937-.394.927-.507-.011-.673-.54-.694-.989a.64.64,0,0,1,.677-.71c.671,0,.186.581.41.772" transform="translate(-1.998 -7.377)" fill="#f79764"/>
        <path id="Path_6941" data-name="Path 6941" d="M32.862,22.584c.142-.292-.222-.851.415-.835.445.011.576.386.567.8-.011.46-.271.85-.664.849-.545,0-.169-.544-.318-.817" transform="translate(-11.077 -7.331)" fill="#fba872"/>
        <path id="Path_6942" data-name="Path 6942" d="M26.205,17.419a1.227,1.227,0,0,1,.768.221c.2.13.442.312.356.548-.122.333-.388.044-.591.032a2.256,2.256,0,0,1-.54-.077c-.239-.074-.674.257-.7-.18-.025-.467.484-.444.7-.545" transform="translate(-8.596 -5.871)" fill="#7a4f20"/>
        <path id="Path_6943" data-name="Path 6943" d="M12.038,18.713c.367-.87,1.144-1.051,1.639-.5.086.1.2.194.127.339s-.214.128-.341.09a2.255,2.255,0,0,0-1.425.071" transform="translate(-4.058 -6.034)" fill="#784e1f"/>
        <path id="Path_6944" data-name="Path 6944" d="M14.228,21.556c-.666-1.075-1.342-1.183-2.408-.383.107-.825.778-.839,1.348-.839a1.107,1.107,0,0,1,1.06,1.222" transform="translate(-3.984 -6.854)" fill="#48352a"/>
        <path id="Path_6945" data-name="Path 6945" d="M27.723,21.225c-.648-.852-1.114-.917-2.247-.318a1.18,1.18,0,0,1,1.515-.689.856.856,0,0,1,.732,1.006" transform="translate(-8.588 -6.794)" fill="#463a31"/>
        <path id="Path_6946" data-name="Path 6946" d="M20.479,23.639c.128-.413.472-.852-.357-.817-.309.013-.363-.225-.322-.646.229.607.79.284,1.031.563.355.409-.036.672-.353.9" transform="translate(-6.671 -7.475)" fill="#86593b"/>
        <path id="Path_6947" data-name="Path 6947" d="M18.044,13.722a1.206,1.206,0,0,1,.753-.6.992.992,0,0,1-.606.9.307.307,0,0,0-.147-.307" transform="translate(-6.082 -4.425)" fill="#ebaf5e"/>
        <path id="Path_6948" data-name="Path 6948" d="M8.456,7.387c.139-.62-.379-1.156-.021-1.747-.481-.069-.542.5-.976.439a1.078,1.078,0,0,1,.4-.8c.083-.093.2-.214.05-.331-.123-.094-.243-.03-.336.088a1.963,1.963,0,0,1-.886.772A5.569,5.569,0,0,1,10.92,2.894c0,.292-.4.348-.379.715.231,0,.46-.005.689,0a1.637,1.637,0,0,1,.294.051c-.2,1.285.67.174.961.411.146.119.458-.05.861.222a9.438,9.438,0,0,0-4.89,3.092" transform="translate(-2.252 -0.975)" fill="rgba(112,82,37,0.69)"/>
        <path id="Path_6949" data-name="Path 6949" d="M15.879,90.169a5.977,5.977,0,0,0,1.312-.009.781.781,0,0,1,1.082.654A9.144,9.144,0,0,0,21.322,92a5.041,5.041,0,0,0,3.627-.554c.358.56-.2.68-.468.856a4.566,4.566,0,0,1-3.3.331,26.239,26.239,0,0,1-3.531-.754,2.684,2.684,0,0,0-1.769.151,16.449,16.449,0,0,1-4.131.944,3.307,3.307,0,0,1-2.187-.51c-.1-.065-.529-.221-.029-.38a.418.418,0,0,1,.381-.021,6.57,6.57,0,0,0,4.412-.27c.723-.219,1.374-.576,1.45-1.467l.1-.156" transform="translate(-3.133 -30.378)" fill="#d7d2b5"/>
        <path id="Path_6950" data-name="Path 6950" d="M15.656,90.342a.711.711,0,0,1-.3,1.119c-1.886.988-3.838,1.555-5.937.638-.764-1-.6-1.636.481-1.932a2.082,2.082,0,0,1,1.746,1.048.694.694,0,0,0,.831.383,7,7,0,0,0,3.184-1.256" transform="translate(-3.014 -30.394)" fill="rgba(237,235,222,0.6)"/>
        <path id="Path_6951" data-name="Path 6951" d="M29.514,91.385a2.89,2.89,0,0,1-2.888.835c-1.381-.15-2.79-.3-3.789-1.466.032-.211-.051-.444.117-.63a7.315,7.315,0,0,0,3.131,1.226.665.665,0,0,0,.829-.374,2.012,2.012,0,0,1,1.679-1.034c.9.1.993.719.919,1.442" transform="translate(-7.698 -30.319)" fill="rgba(237,235,222,0.6)"/>
        <path id="Path_6952" data-name="Path 6952" d="M19.421,94.275a4.223,4.223,0,0,1,1.967.306c.55.227,1.143.567,1.055,1.189a1.621,1.621,0,0,1-1.356,1.169,7.836,7.836,0,0,1-3.432.009c-.76-.146-1.533-.813-1.482-1.323.084-.831.815-1.011,1.422-1.149a4.382,4.382,0,0,1,1.826-.2" transform="translate(-5.451 -31.765)" fill="#616b7b"/>
        <path id="Path_6953" data-name="Path 6953" d="M26.089,99.358H3.125c0-.045,0-.091,0-.136H26.088c0,.045,0,.091,0,.136" transform="translate(-1.053 -33.447)" fill="rgba(112,82,37,0.85)"/>
        <path id="Path_6954" data-name="Path 6954" d="M30.467,38.649c-.214-.373-.158-.617.316-.66.154.344.254.662-.316.66" transform="translate(-10.23 -12.806)" fill="#705225"/>
        <path id="Path_6955" data-name="Path 6955" d="M22.1,96.535a5.191,5.191,0,0,1-4.642.275c-.243-.085-.561-.211-.575-.578.175-.461.595-.561,1-.665a6.1,6.1,0,0,1,3.568.106c.375.129.847.265.646.862" transform="translate(-5.69 -32.142)" fill="#f0eeee"/>
        <path id="Path_6956" data-name="Path 6956" d="M22.062,96.323c-.194-.878-1.012-.8-1.582-.882a5.071,5.071,0,0,0-3.635.579c-.252-.564.271-.755.557-.866a5.3,5.3,0,0,1,4.369.082c.435.209.829.557.291,1.088" transform="translate(-5.656 -31.93)" fill="#b8bdc5"/>
        <path id="Path_6957" data-name="Path 6957" d="M20.779,96.13c.057.484-.076,1.108.785,1-.972.222-.972.222-.785-1" transform="translate(-6.972 -32.404)" fill="#ad8891"/>
      </g>
    </g>
  </g>
</svg>
