<svg xmlns="http://www.w3.org/2000/svg" xmlns:xlink="http://www.w3.org/1999/xlink" width="87" height="94" viewBox="0 0 87 94">
  <defs>
    <clipPath id="clip-path">
      <rect id="Rectangle_1891" data-name="Rectangle 1891" width="87" height="94" fill="none"/>
    </clipPath>
    <clipPath id="clip-path-2">
      <rect id="Rectangle_1810" data-name="Rectangle 1810" width="13.341" height="11.261" fill="none"/>
    </clipPath>
    <clipPath id="clip-path-3">
      <rect id="Rectangle_1812" data-name="Rectangle 1812" width="12.672" height="13.531" fill="none"/>
    </clipPath>
    <clipPath id="clip-path-4">
      <rect id="Rectangle_1814" data-name="Rectangle 1814" width="10.505" height="16.967" transform="translate(-0.005)" fill="none"/>
    </clipPath>
    <clipPath id="clip-path-5">
      <rect id="Rectangle_1892" data-name="Rectangle 1892" width="6.785" height="14.599" fill="none"/>
    </clipPath>
  </defs>
  <g id="Group_1294" data-name="Group 1294" transform="translate(-226 -299)">
    <g id="Group_1086" data-name="Group 1086" transform="translate(226 299)">
      <g id="Group_1085" data-name="Group 1085" clip-path="url(#clip-path)">
        <path id="Path_15360" data-name="Path 15360" d="M42.758,118.07q.458-1.489.917-2.977c.408-.294.818-.1,1.212.021a37.419,37.419,0,0,0,8.532,1.532,50.592,50.592,0,0,0,6.472-.193,3.372,3.372,0,0,1,1.583.113c.344.269.283.668.3,1.035.059,1.481.375,1.836,1.81,2.119.525.1,1.159-.01,1.473.632l1.056,5.362H41.237c-.041-.879.341-1.7.363-2.565a3.931,3.931,0,0,1,.517-2.458,9.171,9.171,0,0,0,.5-2.093.514.514,0,0,1,.14-.529" transform="translate(-12.153 -31.714)" fill="#373b5d"/>
        <path id="Path_15362" data-name="Path 15362" d="M75.1,84.2a1.989,1.989,0,0,1,0,1.841,3,3,0,0,1-.623,1.212,19.352,19.352,0,0,1-4.418,4.6A9.732,9.732,0,0,1,68.132,93.1a1.477,1.477,0,0,0-.857,1.187c-.412,2.444-.937,4.865-1.4,7.3a4.317,4.317,0,0,1-.932,1.908.7.7,0,0,1-.607.238,1.383,1.383,0,0,0-1.664,1.091c-.061.18-.132.4-.4.369-1.714-.012-3.415.253-5.122.3a37.41,37.41,0,0,1-7.7-.623c-1.714-.316-3.354-.913-5.055-1.266-.786-1.529-.643-3.2-.724-4.843.162-.361.477-.238.741-.231a3.9,3.9,0,0,0,2.106-.544,9.375,9.375,0,0,0,4.1-4.461,103.936,103.936,0,0,0,3.806-11.129c.356-1.188.743-2.368,1.007-3.584a3.535,3.535,0,0,1,.605-1.234c.537-.778,1.078-1.553,1.615-2.331a12.734,12.734,0,0,0,4.711-1.962c1.936-.013,3.435,1.125,5.027,2.017a13.049,13.049,0,0,1,2.982,2.764,47.858,47.858,0,0,1,4.179,5.082A2.609,2.609,0,0,1,75.1,84.2" transform="translate(-12.87 -20.219)" fill="#365997"/>
        <path id="Path_15363" data-name="Path 15363" d="M91.184,103.905l.144,0c0,.319.026.639,0,.954a.763.763,0,0,0,.544.909,1.675,1.675,0,0,1,.986,1.909c-.028.308-.035.62-.061,1.117a9.345,9.345,0,0,1,3.355-1.463,3.919,3.919,0,0,1,3.3.5,1.535,1.535,0,0,1,.071,2.527c-.207.18-.42.352-.717.6,1.437.267,2.783.463,4.1.777a4.648,4.648,0,0,1,3.394,2.569,2.055,2.055,0,0,1-1.841,3.142,14.094,14.094,0,0,1-5.278-1.224c-.13-.051-.252-.126-.384-.169-.233-.077-.492-.282-.713-.08-.25.23.117.384.15.592a2.6,2.6,0,0,1-.638,2.384,1.891,1.891,0,0,1-1.97.336,6.411,6.411,0,0,1-2.411-1.376c-.132-.1-.25-.3-.427-.167-.152.111-.085.312-.057.484.3,1.9-.272,2.584-2.117,2.532a5.933,5.933,0,0,1-3.924-2.1,22.16,22.16,0,0,0-4.014-2.831,1.818,1.818,0,0,0-.652-.11c-.037-.386.3-.447.513-.6a29.511,29.511,0,0,0,6.673-6.462c.909-1.28,1.865-2.567,1.766-4.3a.473.473,0,0,1,.212-.447" transform="translate(-24.172 -28.67)" fill="rgba(188,213,234,0.7)"/>
        <path id="Path_15364" data-name="Path 15364" d="M19.451,81.526a6.392,6.392,0,0,1-1.016-2.589c-.151-1.8.662-2.309,2.4-2.622a1.543,1.543,0,0,1,.252,0c1.687-.015,1.782.073,1.923,1.8a.711.711,0,0,0,0,.087c.09.422.2,1.042.56,1.064.451.028.357-.629.419-.972.329-1.8.525-1.962,2.27-1.408A12.775,12.775,0,0,1,28.751,77.9a28.694,28.694,0,0,1,4.969,3.266c.2.18.375.346.657.2.181.444-.142.725-.365.98a3.692,3.692,0,0,0-.65,3.846c.4,1.287,1.006,2.5,1.347,3.806-.1,1.029-.1,2.061-.126,3.093a11.041,11.041,0,0,0,.654,4.05c.109.3.208.6-.043.887a10.524,10.524,0,0,1-3.151-2.489c-2.162-2.1-4.449-4.058-6.493-6.281-.5-.543-.946-1.138-1.466-1.659-.422-.423.063-.644.257-1.07-1.285.348-1.767-.614-2.333-1.287a13.882,13.882,0,0,1-2.556-3.715" transform="translate(-5.428 -21.055)" fill="rgba(188,213,234,0.7)"/>
        <path id="Path_15365" data-name="Path 15365" d="M30.644,114.971a.616.616,0,0,1-.14.529c-.741-.059-1.4-.753-2.05-.626-.735.144-.613,1.239-1.091,1.8a7.033,7.033,0,0,1-4.513,2.459c-.748.106-1.506.135-2.261.179-.562.033-.791-.173-.366-.687a15.633,15.633,0,0,1,4.756-4.314c.241-.122.55-.164.681-.527a12.56,12.56,0,0,0-3.1-1.139c-.274-.088-.344.043-.373.29-.243,2.04-1.605,3.056-3.289,3.772a12.1,12.1,0,0,1-2.6.686.508.508,0,0,1-.549-.131c-.17-.242.105-.342.2-.5a12.469,12.469,0,0,1,3.824-4.306c.133-.085.3-.255.3-.39.006-.291-.284-.2-.454-.254-.7-.211-1.393-.449-2.1-.6-.614-.132-1.028-.162-1.333.761A4.856,4.856,0,0,1,12.8,114.95c-.666.212-1.359.332-2.041.492-.22.051-.477.133-.641-.054-.221-.251,0-.5.128-.7a18.209,18.209,0,0,1,3.107-3.746c.137-.13.4-.191.331-.445-.085-.3-.369-.182-.578-.215-.607-.095-1.219-.173-1.82-.3a.847.847,0,0,0-1.126.593c-.844,2.2-2.7,2.853-4.743,3.166-.443.068-.591-.195-.355-.576A9.413,9.413,0,0,1,7.3,110.28c.185-.135.465-.269.411-.5-.08-.339-.425-.177-.656-.191a2.69,2.69,0,0,0-1.969.559c-1.012.805-4.018.379-4.835-.585-.235-.278-.1-.4.136-.515a8.8,8.8,0,0,1,4.22-1.009,1.045,1.045,0,0,1,.932.5c.276.484.82.286,1.22.464.053.024.252-.128.244-.16a.805.805,0,0,0-.194-.356,10.842,10.842,0,0,1-1.755-2.513c-.1-.19-.185-.388-.07-.568.152-.238.37-.043.533.007a14.486,14.486,0,0,1,4,1.724,1.963,1.963,0,0,1,.991,1.713c-.015.333.075.523.458.567.971.112,1.938.272,2.9.426.147.024.289.065.381-.068.111-.162-.036-.24-.138-.341a7.464,7.464,0,0,1-2.081-5.728,12.694,12.694,0,0,1,2.992,2.163,8.128,8.128,0,0,1,1.313,1.546,2.747,2.747,0,0,1,.485,2.437c-.087.261-.088.505.27.6a10.321,10.321,0,0,0,2.491.521,13.893,13.893,0,0,1-1.514-2.507,15.145,15.145,0,0,1-.593-2.774c-.093-.484.3-.569.59-.36a12.979,12.979,0,0,1,4.337,4.376c.3.579,0,1.132-.11,1.683-.061.308-.17.521.263.639.784.216,1.549.5,2.322.763.134.046.283.131.393.007.163-.187-.03-.3-.126-.432-1.417-1.888-1.461-4.106-1.438-6.338,0-.371.155-.51.453-.223,1.717,1.653,3.523,3.226,4.413,5.578a2.283,2.283,0,0,1-.075,2.071c-.262.456-.208.706.338.873a8.974,8.974,0,0,0,1.8.64" transform="translate(-0.038 -28.615)" fill="rgba(188,213,234,0.7)"/>
        <path id="Path_15366" data-name="Path 15366" d="M41.838,96.594c.071-.672-.393-1.177-.531-1.795a19.027,19.027,0,0,1-.148-6.362c.38-.052.438.3.588.516a8.173,8.173,0,0,0,.786,1.016c.274.283.458.232.653-.1,2.343-4.019,5.232-7.657,7.672-11.609a2.746,2.746,0,0,0,.48-2.117,5.775,5.775,0,0,1,.043-2.324,5.21,5.21,0,0,0,.194-1.8,1.441,1.441,0,0,1-.037-.639c.687-.518,1.1-.287,1.439.8a.9.9,0,0,0,.432.652,3.866,3.866,0,0,0,2.849-.782.631.631,0,0,1,.141-.095c.37-.188.758-.545,1.162-.2.355.3.185.753.066,1.138a8.15,8.15,0,0,1-.714,1.851,2.5,2.5,0,0,1-.327.694c-1.615,1.7-2.018,3.946-2.655,6.09a103.23,103.23,0,0,1-3.964,11.6,9.41,9.41,0,0,1-4.328,4.558,5.427,5.427,0,0,1-2.768.47,4.529,4.529,0,0,0-1.034-1.564" transform="translate(-12.073 -19.622)" fill="#f9cbc2"/>
        <path id="Path_15367" data-name="Path 15367" d="M87.641,100.318c.21,2.374-1.159,4.03-2.453,5.73a27.879,27.879,0,0,1-3.689,3.788c-.94.844-2.011,1.536-3.023,2.3a13.6,13.6,0,0,1-2.363,1.311,2.647,2.647,0,0,1-1.967.142.5.5,0,0,0-.615.138c-.318-.361-.771-.29-1.166-.342-2.048-.272-2.512-.849-2.337-2.98.009-.113,0-.228,0-.342a2.022,2.022,0,0,1,2.483-1.735,9.062,9.062,0,0,1,2.141,1.522c.444.42.8.391,1.188-.117,1.693-2.2,3.406-4.385,5.041-6.631a2.08,2.08,0,0,0,.109-2.78,17.3,17.3,0,0,0-2.825-3.434.911.911,0,0,1-.313-.4,24.771,24.771,0,0,0,5-5.578,32.367,32.367,0,0,1,4.289,7.415,7.776,7.776,0,0,1,.5,2" transform="translate(-20.629 -25.083)" fill="#f3bdb9"/>
        <path id="Path_15368" data-name="Path 15368" d="M10.708.721C16.453.5,21.526,5.627,21.44,11.766A10.921,10.921,0,0,1,10.792,22.653,10.877,10.877,0,0,1,0,11.591,10.719,10.719,0,0,1,10.708.721" transform="translate(0 -0.197)" fill="#365997"/>
        <path id="Path_15369" data-name="Path 15369" d="M107.589,61.47a10.7,10.7,0,0,1-7.977-.154A10.865,10.865,0,0,1,93.1,49.6a10.489,10.489,0,0,1,6.5-8.584,10.316,10.316,0,0,1,7.146-.407,10.628,10.628,0,0,1,7.276,7.8,10.907,10.907,0,0,1-2.235,9.964,12.224,12.224,0,0,1-4.2,3.094" transform="translate(-27.407 -11.082)" fill="#365997"/>
        <path id="Path_15370" data-name="Path 15370" d="M14.533,40.816a15.015,15.015,0,0,1,3.632,2.455,11.447,11.447,0,0,1,3.169,6.517,10.238,10.238,0,0,1-.311,4.268,10.511,10.511,0,0,1-7.057,7.569,10.162,10.162,0,0,1-9.247-1.342A10.777,10.777,0,0,1,.013,50.949,10.559,10.559,0,0,1,6.052,41.31a10.208,10.208,0,0,1,8.066-.56,2.618,2.618,0,0,0,.415.066" transform="translate(-0.002 -11.086)" fill="#365997"/>
        <path id="Path_15371" data-name="Path 15371" d="M104.56,22.616a10.144,10.144,0,0,1-5.177-.9,11.188,11.188,0,0,1-5.2-5.067A11.938,11.938,0,0,1,93.552,8,11.365,11.365,0,0,1,97.187,2.95a10.132,10.132,0,0,1,10.654-1.411,10.945,10.945,0,0,1,5.567,14.679,10.168,10.168,0,0,1-7.206,6.055,5.687,5.687,0,0,1-1.643.344" transform="translate(-27.419 -0.174)" fill="#365997"/>
        <path id="Path_15373" data-name="Path 15373" d="M41.565,122.883a12.8,12.8,0,0,1-.517,2.458c-.381-.289-.785-.106-1.186-.075-.332.027-.677-.175-.392-.474.65-.683,1.132-1.585,2.1-1.909" transform="translate(-11.602 -33.906)" fill="#eaeaed"/>
        <path id="Path_15374" data-name="Path 15374" d="M53.964,65.338l.146.49a3.419,3.419,0,0,1-1.5.726c-.736.257-1.509.4-2.232.71a.766.766,0,0,1-.866-.1,4.018,4.018,0,0,1,.092-4.448,10.938,10.938,0,0,1,1.357-1.639,2.563,2.563,0,0,0,.272-3.147,4.273,4.273,0,0,1-.278-.529c-.1-.155.016-.485-.338-.433-.562-2.06.486-3.5,1.827-4.764a10.843,10.843,0,0,1,5.364-2.7c.189-.039.371-.111.556-.167a4.213,4.213,0,0,1,3.408.135l1.322.245c.13.326.454.371.711.515a6.962,6.962,0,0,1,3.866,5.756,27.234,27.234,0,0,0,.6,3.667,4.469,4.469,0,0,0,3.588,3.586,10.163,10.163,0,0,1,2.361.642c.842.39,1.611.865,1.561,2,.013.1.025.2.037.3.2.873-.056,1.771.142,2.644,0,.85.633,1.218,1.181,1.667a4.6,4.6,0,0,1,1.77,3.989,3.38,3.38,0,0,1-2.279,3.027c-.881-1.141-1.715-2.326-2.654-3.413-1.624-1.878-3.074-3.953-5.192-5.313a11.959,11.959,0,0,0-4.747-2.068,1.4,1.4,0,0,1-.985-1.077,10.03,10.03,0,0,1-.516-3.219,2.388,2.388,0,0,0-1.084-2.286,5.107,5.107,0,0,0-1.027-.4,3.918,3.918,0,0,1-.893-.339,5.605,5.605,0,0,0-.722-.4,5.428,5.428,0,0,1-2.567-2.91,4.594,4.594,0,0,1-1.918,1.642A3.132,3.132,0,0,0,52.6,59.52a4.519,4.519,0,0,0-.086,1.263,6.25,6.25,0,0,0,1.111,3.782,1.984,1.984,0,0,1,.336.774" transform="translate(-14.408 -13.532)" fill="#373b5d"/>
        <path id="Path_15375" data-name="Path 15375" d="M46.7,73.483c.354.241.638-.046.942-.14,1.171-.365,2.337-.744,3.505-1.117a5.45,5.45,0,0,1-.183,2.056,5.771,5.771,0,0,0-.045,2.156,2.681,2.681,0,0,1-.528,2.25c-2.186,3.506-4.619,6.837-6.9,10.273a12.239,12.239,0,0,0-.72,1.273c-.435.863-.465.888-1.1.116-.415-.5-.757-1.067-1.132-1.6a28.984,28.984,0,0,1-1.511-4.187,3.086,3.086,0,0,1,.58-3.119,9.461,9.461,0,0,0,.793-1.2,35.2,35.2,0,0,1,4.86-5.607c.281-.237.58-.45.87-.675a3.832,3.832,0,0,0,.261-.3c.093-.08.14-.251.315-.175" transform="translate(-11.45 -19.928)" fill="#365997"/>
        <path id="Path_15376" data-name="Path 15376" d="M71.623,15.325a13.1,13.1,0,0,1-4.948,10.46,19.79,19.79,0,0,1-13.109,4.956c-3.619.049-6.431-1.651-8.666-4.446a12.606,12.606,0,0,1-2.8-6.289A6.383,6.383,0,0,1,44.744,13.7a12.571,12.571,0,0,1,6.077-2.382A7.61,7.61,0,0,0,55.015,9.3a15.7,15.7,0,0,1,4.523-2.964c4.059-1.681,7.927-.3,10.373,3.242a9.424,9.424,0,0,1,1.712,5.75" transform="translate(-12.386 -1.551)" fill="#365997"/>
        <path id="Path_15377" data-name="Path 15377" d="M43.55,44.947A3.338,3.338,0,0,1,46.387,46.8a3.828,3.828,0,0,1-.345,3.848,16.509,16.509,0,0,0-1.966,3.089c-.347.9-1.422.953-2.346.24A3.628,3.628,0,0,1,42.889,51a4.359,4.359,0,0,0,1.124-1.873c.105-.468.211-.959-.286-1.3-.671-.705-1.429-.56-1.655.371-.105.432-.265.573-.664.555-.64-.028-1.28-.033-1.92-.047a3.076,3.076,0,0,1,1.358-3.171c.189-.124.4-.218.577-.359a11.868,11.868,0,0,1,2.127-.232" transform="translate(-11.616 -12.402)" fill="#6fa6d6"/>
        <path id="Path_15378" data-name="Path 15378" d="M78.85,42.579c-1.457,0-2.587-.878-2.584-2a2.311,2.311,0,0,1,2.362-2.163c1.726.025,2.433.711,2.53,2.271.073,1.168-.881,1.9-2.308,1.9" transform="translate(-22.477 -10.598)" fill="#6fa6d6"/>
        <path id="Path_15379" data-name="Path 15379" d="M61.393,46.435c-.156-1.768.332-2.319,2.082-2.342.2,0,.392.007.588.023,1.893.155,2.4,1.043,1.651,2.823-.083.2-.479.4-.11.692.059.035.08.071.062.109s-.037.058-.056.058l-.008.039a26.372,26.372,0,0,1-3.734-.188l.01-.03c-.02-.455-.738-.609-.485-1.182" transform="translate(-18.078 -12.166)" fill="#373b5d"/>
        <path id="Path_15380" data-name="Path 15380" d="M82.314,48.384a1.649,1.649,0,0,1-1.724-1.516A1.646,1.646,0,0,1,82.27,45.6a1.622,1.622,0,0,1,1.7,1.427,1.575,1.575,0,0,1-1.654,1.354" transform="translate(-23.751 -12.583)" fill="#6fa6d6"/>
        <path id="Path_15381" data-name="Path 15381" d="M69.536,50.617c-.782-.306-.782-.306-.553-.641,2.8.711,4.077,2.833,4.775,5.473.376,1.421.4,2.91.813,4.333a4.288,4.288,0,0,0,3.461,3.359,7.153,7.153,0,0,1,3.488,1.424,2.766,2.766,0,0,1,.725,2.71c-.549-.237.1-.739-.219-1.008C81.453,64.5,80,63.93,78.439,63.689c-2.934-.453-3.978-2.1-4.53-4.713-.22-1.041-.26-2.109-.5-3.145a6.884,6.884,0,0,0-2.957-4.826,1.584,1.584,0,0,0-.915-.389" transform="translate(-20.292 -13.789)" fill="#696677"/>
        <path id="Path_15382" data-name="Path 15382" d="M75.4,57.864c.284,1.321.368,2.678.717,3.99a4.707,4.707,0,0,0,4.066,3.824,6.349,6.349,0,0,1,2.452.859,2.281,2.281,0,0,1,1.262,1.907c-.142.027-.135-.4-.36-.125a3.062,3.062,0,0,0-2.463-2.1c-.465-.11-.93-.235-1.4-.313-2.24-.372-3.4-1.852-3.923-3.995a20.5,20.5,0,0,1-.494-3.51c-.028-.2-.229-.45.145-.536" transform="translate(-22.155 -15.966)" fill="#edebf3"/>
        <path id="Path_15383" data-name="Path 15383" d="M43.125,58.935a1.364,1.364,0,0,1,1.762.729,1.237,1.237,0,0,1-.361,1.618,1.59,1.59,0,0,1-2.05-.209c-.028-.791-.224-1.636.649-2.138" transform="translate(-12.507 -16.236)" fill="#6fa6d6"/>
        <path id="Path_15384" data-name="Path 15384" d="M81.577,53.267c-.637.085-1.064-.052-1.007-.85.042-.6.5-1.129,1.063-1.022.511.1,1.1.285,1.124.955.023.79-.481,1.037-1.179.917" transform="translate(-23.744 -14.177)" fill="#6fa6d6"/>
        <path id="Path_15385" data-name="Path 15385" d="M44.6,48.86c.042-.172.1-.274.238-.061a1.736,1.736,0,0,1,.222,1.4,3.3,3.3,0,0,1-.8,1.489A5.632,5.632,0,0,0,42.6,55.007a1.416,1.416,0,0,1-.039-1.474,12.63,12.63,0,0,1,1.514-2.185A2.375,2.375,0,0,0,44.6,48.86" transform="translate(-12.489 -13.431)" fill="#44576f"/>
        <path id="Path_15386" data-name="Path 15386" d="M49.229,71.893a.276.276,0,0,1-.3.14,4.946,4.946,0,0,1-.317-3.906,8.163,8.163,0,0,1,1.992-2.87.39.39,0,0,1,.127.227.734.734,0,0,1-.3.592,4.673,4.673,0,0,0-1.205,5.559.566.566,0,0,1,0,.258" transform="translate(-14.25 -18.006)" fill="#656576"/>
        <path id="Path_15387" data-name="Path 15387" d="M41.334,45.353A3.889,3.889,0,0,0,39.376,48.8c-.429.046-.348-.277-.32-.509a3.307,3.307,0,0,1,2-2.981.2.2,0,0,1,.275.043" transform="translate(-11.503 -12.492)" fill="#475772"/>
        <path id="Path_15388" data-name="Path 15388" d="M62.089,48.973a10.845,10.845,0,0,1,3.734.188l-.154.272a27.9,27.9,0,0,0-3.408-.136l-.172-.324" transform="translate(-18.299 -13.491)" fill="#6fa6d6"/>
        <path id="Path_15389" data-name="Path 15389" d="M51.532,64.006l-.044-.274a2.613,2.613,0,0,0,.165-2.758,6.212,6.212,0,0,1-.305-1.059c.412-.441.365.03.451.24.157.811.712,1.514.566,2.416a1.644,1.644,0,0,1-.833,1.436" transform="translate(-15.133 -16.481)" fill="#666277"/>
        <path id="Path_15390" data-name="Path 15390" d="M61.046,47.029c-.02.473.932.525.485,1.182-.771-.345-.987-1.065-1.369-1.967.521.264.477.778.884.784" transform="translate(-17.731 -12.76)" fill="#6d6c7f"/>
        <path id="Path_15391" data-name="Path 15391" d="M43.027,58.97l.184.152c-.831.375-.8,1.061-.622,1.8.039.169-.111.156-.211.181-.5-1.132-.319-1.741.649-2.137" transform="translate(-12.41 -16.271)" fill="#4d5e77"/>
        <path id="Path_15392" data-name="Path 15392" d="M42.182,45.238l-.275-.043a3.739,3.739,0,0,1,2.377-.273l-2.1.316" transform="translate(-12.351 -12.377)" fill="#6b8494"/>
        <path id="Path_15393" data-name="Path 15393" d="M87.208,75.364a9.061,9.061,0,0,1-.142-2.644,8.342,8.342,0,0,1,.142,2.644" transform="translate(-25.652 -20.065)" fill="#edebf3"/>
        <path id="Path_15394" data-name="Path 15394" d="M67.391,48.936q-.006-.084-.006-.167c.272-.222.619-.316.892-.548a.823.823,0,0,1-.886.715" transform="translate(-19.86 -13.305)" fill="#716c7a"/>
        <path id="Path_15396" data-name="Path 15396" d="M55.393,69.46a6.219,6.219,0,0,1-1.658-4.53c.378-.026.4.353.573.55a1.789,1.789,0,0,0,2.745.3c.217-.164.382-.448.72-.347.288.384-.038.705-.116,1.044-.173.751-.188.752.208,1.337-.4-.53-.4-.592-.121-1.544.1-.332.363-.688-.089-.972-.111-.381-.147-.759.235-1,.456-.285.9.044.954.769a1.725,1.725,0,0,0,1.312,1.607,1.972,1.972,0,0,0,2.246-.5,1.745,1.745,0,0,0,.387-1.189c0-.334-.182-.684.052-1.006a2.131,2.131,0,0,1,1.33,2.284,12.562,12.562,0,0,0,.492,3.4,2.366,2.366,0,0,0,.807,1.177c-.758.436-1.5.9-2.278,1.3a5.2,5.2,0,0,1-2.515.634c-.089-.652.352-1.157.461-1.754.069-.379.43-.854.067-1.118s-.813.129-1.1.4a3.767,3.767,0,0,1-3.175.741c.458-.519-.188-.5-.335-.731-.3-.437-.235-1.416-1.2-.849" transform="translate(-15.837 -17.653)" fill="#f1bcb8"/>
        <path id="Path_15397" data-name="Path 15397" d="M57.793,72.718a2.026,2.026,0,0,1,.415.011c.258.06.539.222.525.482-.019.392-.4.151-.6.239a1.394,1.394,0,0,1-.336-.731" transform="translate(-17.033 -20.063)" fill="#365997"/>
        <path id="Path_15398" data-name="Path 15398" d="M20.734,12.058a9.774,9.774,0,0,1-9.623,9.926A9.83,9.83,0,0,1,1.522,11.7,9.728,9.728,0,0,1,11.516,2.16a9.748,9.748,0,0,1,9.219,9.9" transform="translate(-0.448 -0.596)" fill="#eaf5ff"/>
        <path id="Path_15399" data-name="Path 15399" d="M113.791,51.711c-.205,5.741-4.312,9.853-9.774,9.769-5.522-.085-9.416-4.292-9.509-9.993a9.645,9.645,0,1,1,19.282.224" transform="translate(-27.854 -11.503)" fill="#eaf5ff"/>
        <path id="Path_15400" data-name="Path 15400" d="M1.637,51.345c-.426-4.746,4.369-9.915,9.915-9.663A9.971,9.971,0,0,1,20.8,52.148,9.819,9.819,0,0,1,11.1,61.5,9.587,9.587,0,0,1,1.637,51.345" transform="translate(-0.475 -11.499)" fill="#eaf5ff"/>
        <path id="Path_15401" data-name="Path 15401" d="M113.787,11.9a9.659,9.659,0,1,1-19.29-.211,9.752,9.752,0,0,1,10.2-9.521,9.879,9.879,0,0,1,9.091,9.732" transform="translate(-27.849 -0.595)" fill="#eaf5ff"/>
        <path id="Path_15402" data-name="Path 15402" d="M57.779,64.851c-.533.35-.911.952-1.614,1.03-1.131.126-1.826-.307-2.455-1.546a2.656,2.656,0,0,1,.071-1.4,2.378,2.378,0,0,1,1.887-1.111,2.351,2.351,0,0,1,1.749.679c.722.728.976.717,1.82.159a1.126,1.126,0,0,1,1.1-.266,1.487,1.487,0,0,1,.687.363c-.112.283-.368.331-.613.39-.578.141-1.072.386-1.158,1.074a1.245,1.245,0,0,0,.654,1.3,1.531,1.531,0,0,0,1.817-.024,1.321,1.321,0,0,0,.377-1.756c-.1-.215-.4-.352-.27-.668a2.166,2.166,0,0,1,.987.31c.29.991.379,1.938-.567,2.652a2.286,2.286,0,0,1-2.322.239,1.9,1.9,0,0,1-1.339-1.71c-.018-.313.133-.765-.424-.751s-.339.483-.4.782a1.1,1.1,0,0,0,.007.258Z" transform="translate(-15.813 -17.059)" fill="#6fa6d6"/>
        <path id="Path_15403" data-name="Path 15403" d="M60.388,61.41a2.022,2.022,0,0,0-1.184.61c-.559.638-1.114.411-1.58-.021-1.368-1.271-2.03-1.321-3.559-.152a1.045,1.045,0,0,1-.231.1,3.054,3.054,0,0,1,1.52-1.676,5.974,5.974,0,0,0,2.4-2.027,5.74,5.74,0,0,0,2.629,3.164" transform="translate(-15.866 -16.071)" fill="#f2bcb9"/>
        <path id="Path_15404" data-name="Path 15404" d="M64.063,63.432c.8.838.946,1.741.374,2.331a1.822,1.822,0,0,1-2.751.037,1.455,1.455,0,0,1,.67-2.483c.295-.083.6-.133.9-.2l.808.314" transform="translate(-18.046 -17.416)" fill="#f1bdba"/>
        <path id="Path_15405" data-name="Path 15405" d="M50.746,64.167a2.68,2.68,0,0,0,.449-2.931c-.1-.29-.451-.548-.183-.921a5.765,5.765,0,0,1,.765,1.959,2.557,2.557,0,0,1-.688,2.021,10.855,10.855,0,0,0-1.628,2.089A3.955,3.955,0,0,0,49.6,70.2c-.029.166-.087.306-.275.333-1.131-1.846-.65-3.547.461-5.176.286-.419.637-.791.958-1.185" transform="translate(-14.347 -16.642)" fill="#dad9e5"/>
        <path id="Path_15406" data-name="Path 15406" d="M73.819,55.9c-.171.143-.1.357-.145.536a7.866,7.866,0,0,0-2.138-4.383,7.526,7.526,0,0,0-1.712-1.224c.4-.254.662.1.925.262A7.1,7.1,0,0,1,73.819,55.9" transform="translate(-20.579 -13.999)" fill="#d6d5e7"/>
        <path id="Path_15407" data-name="Path 15407" d="M53.964,30.427c-4.074.167-6.812-1.982-9.062-4.991a11.161,11.161,0,0,1-2.21-5.707,5.842,5.842,0,0,1,2.566-5.5,12.809,12.809,0,0,1,6.173-2.32,7.976,7.976,0,0,0,4.152-2.12,14.21,14.21,0,0,1,5.175-3.137c4.227-1.191,7.79.815,9.6,4.539a10.611,10.611,0,0,1,.6,7.558,14.393,14.393,0,0,1-6.314,8.308,20.113,20.113,0,0,1-10.684,3.365" transform="translate(-12.573 -1.742)" fill="#eaf5ff"/>
        <path id="Path_15408" data-name="Path 15408" d="M59.331,65.89c.173-.064.174-.383.5-.3-.163.435-.341.85-.473,1.28-.207.677-.358,1.352.808,1.327-.776.39-1.164.171-1.222-.551-.049-.629.324-1.156.389-1.756l-.007.005" transform="translate(-17.372 -18.093)" fill="#705e6f"/>
        <path id="Path_15409" data-name="Path 15409" d="M60.3,70.8a1.338,1.338,0,0,1,1.361-.3,1.772,1.772,0,0,1-1.361.3" transform="translate(-17.773 -19.433)" fill="#755f6d"/>
        <path id="Path_15436" data-name="Path 15436" d="M56.022,65.614a1.483,1.483,0,1,1-.028-2.957,1.616,1.616,0,0,1,1.645,1.5,1.426,1.426,0,0,1-1.616,1.453" transform="translate(-16.036 -17.288)" fill="#f0bcb7"/>
        <path id="Path_15437" data-name="Path 15437" d="M62.313,64.6a1.223,1.223,0,0,1,1.736-.287l-1.736.287" transform="translate(-18.365 -17.678)" fill="#7b6475"/>
        <path id="Path_15438" data-name="Path 15438" d="M63.554,65.358c-.018.264-.118.376-.315.363a.311.311,0,0,1-.319-.31.3.3,0,0,1,.358-.345c.2.015.242.188.276.291" transform="translate(-18.544 -17.953)" fill="#5f5166"/>
        <path id="Path_15439" data-name="Path 15439" d="M70.341,16.513c-.178,2.119-.906,3.911-2.9,4.877a3.791,3.791,0,0,1-2.366.361c-1.026-.193-1.314-.059-1.821.911A11.781,11.781,0,0,1,59.034,27.6a5.28,5.28,0,0,1-5.232.342,3.78,3.78,0,0,1-2.26-3.078c-.036-.55-.278-.7-.782-.379a8.575,8.575,0,0,1-1.478.77c-.832.327-1-.52-1.4-.929a.858.858,0,0,1-.166-.484c-.028-.267-.36-.56-.057-.79.242-.183.446.123.662.235.6.311.769-.151.985-.575.286-.558-.162-.456-.421-.531a.628.628,0,0,1-.508-.524,6.558,6.558,0,0,1,.084-2.322c.058-.185.071-.426.351-.4.19.017.276.158.351.327.486,1.1.452.949,1.561.653,1.258-.335,2.507-1.086,3.911-.42.476.226.784-.061.7-.676a4.057,4.057,0,0,1,1.773-3.443.894.894,0,0,1,.966-.037c.585.462.741.07.993-.367.317-.55.556-1.166,1.351-1.271a1.339,1.339,0,0,0,.929-.935,3.413,3.413,0,0,1,4.009-2.145,5.894,5.894,0,0,1,4.486,3.744,5.12,5.12,0,0,1,.5,2.149" transform="translate(-14.008 -2.902)" fill="#cfe0ef"/>
        <path id="Path_15457" data-name="Path 15457" d="M57.036,64.283c-.612-.273-.975-.584-1.549-.442.647-.425.923-.357,1.549.442" transform="translate(-16.353 -17.544)" fill="#6b5a6e"/>
        <path id="Path_15458" data-name="Path 15458" d="M56.393,64.662a.36.36,0,0,1,.363.332c.029.271-.157.337-.365.325a.275.275,0,0,1-.276-.335c.017-.206.163-.267.279-.322" transform="translate(-16.537 -17.842)" fill="#5c536c"/>
        <path id="Path_15459" data-name="Path 15459" d="M62.027,18.723a2.241,2.241,0,0,1,1.328,1.369c0,.1-.082.256-.154.275-.576.151-1.06-.255-1.611-.318-.311-.035-.174-.429-.2-.67-.068-.558.216-.721.64-.656" transform="translate(-18.089 -5.162)" fill="#edf7fa"/>
        <g id="Group_1089" data-name="Group 1089" transform="translate(4.07 33.576)">
          <g id="Group_849" data-name="Group 849" clip-path="url(#clip-path-2)">
            <path id="Path_9598" data-name="Path 9598" d="M0,81.447c.329-.352.663-.7.987-1.056a9.384,9.384,0,0,1,4.5-2.918,5.043,5.043,0,0,1,1.186-.089.673.673,0,0,1,.089.642.316.316,0,0,1-.093.131,7.791,7.791,0,0,0-3.342,1.334c-.282.2-.539.434-.82.637a7.042,7.042,0,0,0-.575.554c-1.009.986-.983,1.2.276,2.153.207.16.376.361.573.533a5.344,5.344,0,0,0,1.328.876,2.1,2.1,0,0,0,.845.381,3.61,3.61,0,0,0,1.418.386.643.643,0,0,1,.365.218.639.639,0,0,1-.06.691,6.866,6.866,0,0,1-4.247-1.687A14.385,14.385,0,0,1,0,81.76v-.313" transform="translate(0 -74.672)" fill="#373b5d"/>
            <path id="Path_9599" data-name="Path 9599" d="M0,50.379c.04-.033.082-.064.12-.1.287-.263.5.059.746.075.282.019.152-.522.53-.525a2.261,2.261,0,0,1,1.2.906.358.358,0,0,1-.133.37.352.352,0,0,1-.477,0c-.214-.17-.342-.237-.445.124-.1.334-.373.4-.658.181-.3-.229-.591-.481-.885-.722v-.313" transform="translate(0 -48.083)" fill="#ee6c6f"/>
            <path id="Path_9600" data-name="Path 9600" d="M190.3,77.989q0-.361,0-.722a6.762,6.762,0,0,1,4.532,1.884,12.434,12.434,0,0,1,1.969,2.047.428.428,0,0,1,.032.6,10.2,10.2,0,0,1-5.254,3.845,3.563,3.563,0,0,1-1.276.159q0-.361,0-.721a.719.719,0,0,1,.557-.228,4.191,4.191,0,0,0,1.24-.349,2.145,2.145,0,0,0,.775-.382,5.327,5.327,0,0,0,1.316-.87c.2-.169.367-.373.576-.532a3.024,3.024,0,0,0,.68-.636c.48-.588.476-.631-.073-1.191-.109-.111-.222-.218-.333-.328a6.955,6.955,0,0,0-.579-.557,7.259,7.259,0,0,0-3.992-1.912.248.248,0,0,1-.17-.107" transform="translate(-183.633 -74.555)" fill="#373b5d"/>
            <path id="Path_9601" data-name="Path 9601" d="M235.5.558a3.719,3.719,0,0,1,.179-.365.353.353,0,0,1,.445-.167.352.352,0,0,1,.249.451,4.224,4.224,0,0,1-.4,1c-.3.461-.579.119-.845-.091-.029.012-.07.015-.08.034-.144.265-.236.652-.658.449-.381-.184-.164-.5-.077-.766.021-.065.056-.126.081-.19.332-.842.378-.858,1.109-.356" transform="translate(-225.958 0)" fill="#ea4345"/>
            <path id="Path_9602" data-name="Path 9602" d="M84.532,1.387c-.635.477-.79.43-1.084-.307-.057-.144-.11-.289-.169-.432-.106-.259-.079-.493.2-.606.26-.107.421.052.519.286.033.079.073.155.113.239.27-.083.43-.529.8-.247A2.629,2.629,0,0,1,85.4,1.7a.389.389,0,0,1-.645.079,2.356,2.356,0,0,1-.224-.391" transform="translate(-80.305 -0.007)" fill="#ee6c6f"/>
            <path id="Path_9603" data-name="Path 9603" d="M306.884,50.358l-.3.2a.353.353,0,0,1-.511-.064.362.362,0,0,1,.055-.552,7.21,7.21,0,0,1,.779-.608c.243-.158.509-.107.591.182.1.363.223.342.486.145a.358.358,0,0,1,.541.125.365.365,0,0,1-.115.505c-.115.1-.24.2-.363.3-.717.566-.776.555-1.168-.225" transform="translate(-295.25 -47.515)" fill="#ea4345"/>
            <path id="Path_9604" data-name="Path 9604" d="M183.534,104.591a4.877,4.877,0,0,1-1.87.488c-.114-.008-.237.015-.315-.1.293-.437.085-.956.232-1.417.093-.2.278-.236.468-.281a2.153,2.153,0,0,0,1.764-2.486,2.118,2.118,0,0,0-2.163-1.835.489.489,0,0,1-.3-.106,3.562,3.562,0,0,1,.315-.85l0-.015a6.263,6.263,0,0,1,3.768,1.536c.176.136.336.292.5.439-.132.438-.474.542-.878.563-.178.009-.438-.016-.419.253.015.21.247.2.417.209a1.187,1.187,0,0,0,1-.294.614.614,0,0,1,.409-.2c1.052.862,1.065,1.08.11,2.016-.119.117-.216.275-.415.275-.332-.08-.322-.355-.354-.611-.02-.161.034-.386-.2-.419-.2-.028-.241.167-.28.313-.065.242-.257.3-.46.357-.136.039-.272.1-.253.277s.158.209.3.243c.269.066.613-.009.709.38-.425.322-.764.787-1.361.827-.3.018-.349-.214-.427-.419-.043-.112-.078-.242-.234-.222s-.2.161-.231.3c-.073.29.135.518.166.784" transform="translate(-174.993 -94.552)" fill="#dedeef"/>
            <path id="Path_9605" data-name="Path 9605" d="M33.086,98.426c-.025.3.125.665-.315.8-.091.175-.278.192-.434.257a2.078,2.078,0,0,0-1.415,1.925,2.133,2.133,0,0,0,1.3,2.165,5.2,5.2,0,0,0,.733.26.324.324,0,0,1,.125.091c0,.377-.008.754,0,1.131.007.232-.065.364-.317.346a1.926,1.926,0,0,1-1.459-.417c-.068-.241.124-.453.075-.694-.031-.152-.043-.322-.232-.35s-.205.138-.253.262c-.074.192-.143.391-.409.376-.6-.037-.934-.51-1.363-.827.072-.337.355-.322.605-.364.17-.029.373-.044.395-.259s-.184-.265-.348-.305a.485.485,0,0,1-.377-.377c-.037-.132-.093-.289-.263-.268-.208.026-.179.22-.2.367-.032.268,0,.569-.353.664-.581-.2-.766-.8-1.182-1.168-.094-.084.017-.182.07-.268a3.064,3.064,0,0,1,.8-.852.7.7,0,0,1,.449.23,1.3,1.3,0,0,0,1.115.247c.124-.01.256-.056.269-.2.018-.181-.133-.227-.273-.24a1.146,1.146,0,0,1-.9-.307.444.444,0,0,1-.135-.269,6.707,6.707,0,0,1,4.271-1.959" transform="translate(-26.414 -94.976)" fill="#f0f0f8"/>
            <path id="Path_9606" data-name="Path 9606" d="M62.134,200.722a.885.885,0,0,0,.2-.721c-.006-.252.012-.512.35-.519a.374.374,0,0,1,.4.436c-.009.269.128.307.349.312.25.006.456.135.446.4-.011.292-.237.4-.509.391a.727.727,0,0,0-.691.241,1.724,1.724,0,0,1-.538-.542" transform="translate(-59.956 -192.491)" fill="#ee6c6f"/>
            <path id="Path_9607" data-name="Path 9607" d="M53.916,154.3a1.167,1.167,0,0,0,1.1.423.335.335,0,0,1,.415.354c-.006.23-.163.345-.408.389a1.566,1.566,0,0,1-1.637-.632,2.236,2.236,0,0,1,.53-.534" transform="translate(-51.515 -148.897)" fill="#ee6c6f"/>
            <path id="Path_9608" data-name="Path 9608" d="M116.37,250.746c.23-.094.27-.287.283-.507a.321.321,0,0,1,.327-.334.356.356,0,0,1,.4.326c.036.32.1.663-.191.922a.792.792,0,0,1-.819-.407" transform="translate(-112.291 -241.146)" fill="#ee6c6f"/>
            <path id="Path_9609" data-name="Path 9609" d="M270.154,201.22a.7.7,0,0,0-.692-.242c-.275.014-.5-.1-.509-.391-.007-.268.2-.4.454-.391.231,0,.353-.049.339-.315a.371.371,0,0,1,.393-.442c.333.007.366.259.362.518a.854.854,0,0,0,.192.724,1.573,1.573,0,0,1-.54.539" transform="translate(-259.526 -192.448)" fill="#ea4446"/>
            <path id="Path_9610" data-name="Path 9610" d="M270.993,154.862a1.547,1.547,0,0,1-1.568.64c-.271-.054-.488-.128-.477-.419a.357.357,0,0,1,.479-.335,1.085,1.085,0,0,0,1.035-.418l.53.533" transform="translate(-259.522 -148.92)" fill="#ea4346"/>
            <path id="Path_9611" data-name="Path 9611" d="M234.894,251.142c-.4-.229-.324-.614-.289-.966a.345.345,0,0,1,.355-.316.333.333,0,0,1,.377.338.492.492,0,0,0,.283.5c-.125.339-.456.339-.725.441" transform="translate(-226.353 -241.103)" fill="#ea4446"/>
            <path id="Path_9612" data-name="Path 9612" d="M125.951,125.912a2.341,2.341,0,0,1-.766-4.516,5.6,5.6,0,0,1,.545-.151l.313.028a.625.625,0,0,1,.072.66c-.12.2-.347.206-.529.292a1.525,1.525,0,0,0-.965,1.4,1.418,1.418,0,0,0,1.056,1.32.794.794,0,0,1,.411.2c.1.281.191.56-.138.763" transform="translate(-119.373 -116.994)" fill="#373b5d"/>
            <path id="Path_9613" data-name="Path 9613" d="M187.666,126.661c.168-.245.066-.522.089-.784l.048-.056a1.143,1.143,0,0,1,.289-.113,1.457,1.457,0,0,0,1.1-1.356,1.522,1.522,0,0,0-1.014-1.379,1.559,1.559,0,0,1-.379-.169l-.044-.06q0-.362,0-.723a2.239,2.239,0,0,1,2.306,1.99,2.31,2.31,0,0,1-1.851,2.594c-.152.027-.3.057-.456.086a.119.119,0,0,0-.092-.03" transform="translate(-181.088 -117.744)" fill="#373b5d"/>
            <path id="Path_9614" data-name="Path 9614" d="M147.277,145.809a1.543,1.543,0,0,1-1.56-1.574,1.673,1.673,0,0,1,1.56-1.559l.008.007a6.981,6.981,0,0,0,.476,1.586c-.337.455-.277,1.034-.477,1.532Z" transform="translate(-140.61 -137.675)" fill="#365997"/>
            <path id="Path_9615" data-name="Path 9615" d="M190.03,146.007c.035-.488-.171-1.03.331-1.415a.174.174,0,0,0-.009-.274c-.511-.389-.275-.939-.322-1.428a1.568,1.568,0,0,1,1.237,2.508,1.427,1.427,0,0,1-1.237.611" transform="translate(-183.356 -137.881)" fill="#365997"/>
          </g>
        </g>
      </g>
    </g>
    <g id="Group_1090" data-name="Group 1090" transform="translate(230.225 303.365)">
      <g id="Group_853" data-name="Group 853" clip-path="url(#clip-path-3)">
        <path id="Path_9647" data-name="Path 9647" d="M99.286,3.054a1.194,1.194,0,0,1-.159-1.36A2.718,2.718,0,0,1,100.964,0h1.162a7.58,7.58,0,0,0,1.353.6,1.707,1.707,0,0,1,.85,2.456l-.054.06c-.53.181-.886-.162-1.2-.471a.719.719,0,0,0-1.091-.085,4.266,4.266,0,0,1-1.533.667,1.511,1.511,0,0,1-1.12-.108l-.049-.063" transform="translate(-95.475)" fill="#373b5d"/>
        <path id="Path_9648" data-name="Path 9648" d="M71.451,216.5l-6.305.007a1.1,1.1,0,0,1-.248-.676c-.2-1.191-.4-2.382-.592-3.573-.044-.271-.132-.555.093-.8a23.176,23.176,0,0,1,2.624-.979c.159.11.148.309.238.455a1.137,1.137,0,0,0,2.086,0c.09-.146.079-.345.238-.455a21.869,21.869,0,0,1,2.624.98.507.507,0,0,1,.109.488c-.2,1.4-.444,2.793-.684,4.187a.526.526,0,0,1-.182.365" transform="translate(-61.969 -203.008)" fill="#365997"/>
        <path id="Path_9649" data-name="Path 9649" d="M266.937,162.9c.2-1.267.41-2.533.607-3.8.064-.411.1-.825.15-1.238a5.415,5.415,0,0,0-.482-1.1,1.2,1.2,0,0,1-.079-1.016,1.276,1.276,0,0,1,1.005-.835c.516-.034.631.432.8.785a7.753,7.753,0,0,1,.29.856c.084-.053.142-.088.2-.126.18-.121.379-.243.58-.09.236.181.08.411-.034.563a4.457,4.457,0,0,0-.68,2.96c.022.861-.009,1.723.011,2.584.008.352-.081.511-.467.49-.631-.034-1.265-.023-1.9-.031" transform="translate(-257.455 -149.4)" fill="#feba8d"/>
        <path id="Path_9650" data-name="Path 9650" d="M2.43,157.693a30.112,30.112,0,0,0,.463,3.247c.08.6.189,1.2.284,1.8-.615.006-1.23-.009-1.844.024-.388.021-.523-.1-.513-.5.026-1.054,0-2.108.011-3.162a3.515,3.515,0,0,0-.551-2.148c-.145-.207-.428-.484-.185-.748.275-.3.533.044.8.171a8.582,8.582,0,0,1,.293-.854c.179-.388.308-.874.9-.779a1.46,1.46,0,0,1,.972,1.187,2.09,2.09,0,0,1-.264.9,2.822,2.822,0,0,0-.371.862" transform="translate(0 -149.237)" fill="#feba8d"/>
        <path id="Path_9651" data-name="Path 9651" d="M107.308,76.282a2.184,2.184,0,0,0-.554-1.127,5.209,5.209,0,0,1-.477-1.2,1.34,1.34,0,0,1-.151-1.25,1.958,1.958,0,0,1,1.281.049c.151.117-.092.247.009.371.277-.021.271-.221.271-.418.366-.552,1.011-.648,1.537-.938a.285.285,0,0,1,.3.06,7.408,7.408,0,0,0,1.58.906,1.442,1.442,0,0,1-.18,1.22c-.281.586-.324,1.288-.9,1.731-.156.12.022.414-.127.594l-.063-.038c-.07-.152-.134-.279-.349-.162a1.786,1.786,0,0,1-1.719.023c-.145-.07-.268-.089-.348.087a.219.219,0,0,1-.1.092" transform="translate(-102.264 -69.199)" fill="#feba8d"/>
        <path id="Path_9652" data-name="Path 9652" d="M144.554,198.182a1.281,1.281,0,1,1-2.562,0q-.005-.2-.01-.393l.045-.008a.237.237,0,0,1,.291,0,1.963,1.963,0,0,0,1.9.031.356.356,0,0,1,.3-.024h.045q-.005.2-.01.4" transform="translate(-136.938 -190.705)" fill="#f3a06f"/>
        <path id="Path_9653" data-name="Path 9653" d="M84.711,86.4a11.425,11.425,0,0,0,.1,1.269c-.619,0-.951-.237-1.028-.736-.066-.433.278-.836.827-.967l-.005.006c.1.127.187.258.1.429" transform="translate(-80.804 -82.915)" fill="#f3a271"/>
        <path id="Path_9654" data-name="Path 9654" d="M243.636,87.7a11.7,11.7,0,0,0,.105-1.27c-.084-.17,0-.3.1-.427l-.008,0a.925.925,0,0,1,.829.967c-.06.485-.411.737-1.026.735" transform="translate(-234.979 -82.946)" fill="#f3a271"/>
        <path id="Path_9655" data-name="Path 9655" d="M112.018,61.155a.644.644,0,0,1-.1.427,1.327,1.327,0,0,1-1.089-.408c-.389-.382-.775-.525-1.247-.122-.282.241-.735.229-.935.606-.074.132-.169.205-.321.109-.4-.214-.869.057-1.263-.184a.649.649,0,0,1-.1-.429,3.331,3.331,0,0,0,2.821-.741.618.618,0,0,1,.973.133,1.418,1.418,0,0,0,1.263.608" transform="translate(-103.155 -58.095)" fill="#f3ac80"/>
        <path id="Path_9656" data-name="Path 9656" d="M295.161,205.522c-.024.114-.092.191-.21.18a.191.191,0,0,1-.184-.206c0-.131.095-.171.209-.168a.168.168,0,0,1,.185.194" transform="translate(-284.296 -198.034)" fill="#ec5b62"/>
        <path id="Path_9657" data-name="Path 9657" d="M310.658,272.016c.011.164-.042.226-.141.233a.2.2,0,0,1-.226-.167.166.166,0,0,1,.175-.2.182.182,0,0,1,.192.138" transform="translate(-299.267 -262.22)" fill="#ed5c63"/>
        <path id="Path_9658" data-name="Path 9658" d="M318.781,217.956a.2.2,0,0,1,.216.179.167.167,0,0,1-.139.184.178.178,0,0,1-.229-.143c-.029-.12.065-.177.152-.221" transform="translate(-307.305 -210.214)" fill="#eb5560"/>
        <path id="Path_9659" data-name="Path 9659" d="M301.214,242.065c-.145-.022-.219-.082-.216-.2a.175.175,0,0,1,.157-.172.182.182,0,0,1,.211.17c.017.126-.085.165-.152.206" transform="translate(-290.305 -233.102)" fill="#eb5460"/>
        <path id="Path_9660" data-name="Path 9660" d="M297.306,173.377c-.114-.031-.139-.128-.121-.237a.147.147,0,0,1,.179-.14c.13.024.152.129.134.236a.155.155,0,0,1-.192.14" transform="translate(-286.623 -166.852)" fill="#ec5861"/>
        <path id="Path_9661" data-name="Path 9661" d="M289.53,330.9c0,.115-.062.2-.181.2a.179.179,0,0,1-.191-.191.174.174,0,0,1,.154-.175c.117-.02.187.053.218.168" transform="translate(-278.887 -318.976)" fill="#eb5460"/>
        <path id="Path_9662" data-name="Path 9662" d="M301.167,352.038a.188.188,0,0,1-.19-.194.174.174,0,0,1,.151-.178.179.179,0,0,1,.216.163c.017.118-.061.185-.177.209" transform="translate(-290.285 -339.171)" fill="#eb5460"/>
        <path id="Path_9663" data-name="Path 9663" d="M309.421,312.86c-.012.092-.061.184-.19.174-.107-.009-.129-.1-.126-.194a.155.155,0,0,1,.159-.169c.1,0,.157.061.157.189" transform="translate(-298.125 -301.564)" fill="#eb5560"/>
        <path id="Path_9664" data-name="Path 9664" d="M294.988,291.576a.189.189,0,0,1-.175.156c-.094.006-.169-.023-.179-.13-.013-.129.056-.187.18-.182a.185.185,0,0,1,.174.155" transform="translate(-284.166 -281.069)" fill="#ec5560"/>
        <path id="Path_9665" data-name="Path 9665" d="M51.129,205.662c-.039.112-.112.193-.23.158a.194.194,0,0,1-.149-.239.156.156,0,0,1,.194-.126.192.192,0,0,1,.185.206" transform="translate(-48.941 -198.155)" fill="#ec5962"/>
        <path id="Path_9666" data-name="Path 9666" d="M36.212,272.076a.2.2,0,0,1-.2.183.146.146,0,0,1-.176-.143.193.193,0,0,1,.217-.226c.089,0,.15.076.159.187" transform="translate(-34.562 -262.23)" fill="#ed5c63"/>
        <path id="Path_9667" data-name="Path 9667" d="M27.861,218.221a.184.184,0,0,1-.2.185.172.172,0,0,1-.173-.154.179.179,0,0,1,.169-.21c.116-.012.181.068.2.179" transform="translate(-26.511 -210.296)" fill="#eb5560"/>
        <path id="Path_9668" data-name="Path 9668" d="M45.132,241.833a.192.192,0,0,1,.179-.207.174.174,0,0,1,.19.138.177.177,0,0,1-.144.231c-.116.027-.19-.048-.225-.162" transform="translate(-43.529 -233.042)" fill="#eb525f"/>
        <path id="Path_9669" data-name="Path 9669" d="M50.719,173.232c-.008.1-.057.173-.154.174-.128,0-.172-.094-.168-.209,0-.1.053-.171.152-.172.13,0,.171.092.169.208" transform="translate(-48.607 -166.878)" fill="#ec5861"/>
        <path id="Path_9670" data-name="Path 9670" d="M57.447,330.9c-.029.146-.094.224-.213.21a.185.185,0,0,1,.01-.369c.126,0,.16.1.2.159" transform="translate(-55.04 -318.991)" fill="#eb5460"/>
        <path id="Path_9671" data-name="Path 9671" d="M45.651,351.816c-.018.115-.078.19-.2.186a.176.176,0,0,1-.172-.158.178.178,0,0,1,.17-.21c.12-.013.181.069.2.183" transform="translate(-43.669 -339.141)" fill="#eb5460"/>
        <path id="Path_9672" data-name="Path 9672" d="M52.56,291.747c-.093-.023-.167-.073-.151-.176a.163.163,0,0,1,.2-.133.145.145,0,0,1,.143.178c-.011.114-.092.134-.187.131" transform="translate(-50.545 -281.084)" fill="#ea4c5c"/>
        <path id="Path_9673" data-name="Path 9673" d="M38.911,312.8c-.011.13-.072.211-.157.206a.176.176,0,0,1-.156-.221.145.145,0,0,1,.179-.134.149.149,0,0,1,.134.15" transform="translate(-37.225 -301.543)" fill="#eb505e"/>
        <path id="Path_9674" data-name="Path 9674" d="M145.356,185.694a2.145,2.145,0,0,1-2.493-.005c-.005-.1-.016-.209-.013-.313a.849.849,0,0,1,.057-.184,1.993,1.993,0,0,0,2.393.009.723.723,0,0,1,.056.493" transform="translate(-137.775 -178.614)" fill="#eb915d"/>
        <path id="Path_9675" data-name="Path 9675" d="M159.454,136.273a.592.592,0,0,1,.581.416c.062.136.089.275-.059.371s-.227-.012-.293-.119c-.2-.328-.416-.344-.638-.023-.07.1-.127.23-.279.162-.175-.079-.114-.219-.072-.358.1-.346.363-.439.76-.449" transform="translate(-153.014 -131.429)" fill="#373b5d"/>
        <path id="Path_9676" data-name="Path 9676" d="M198.746,101.575c-.193-.049-.428-.1-.494-.354a.15.15,0,0,1,.2-.166c.2.071.472.059.546.321.046.163-.09.2-.253.2" transform="translate(-191.205 -97.457)" fill="#373b5d"/>
        <path id="Path_9677" data-name="Path 9677" d="M137.169,100.443l.321-.108c.183.162.131.305-.045.424-.147.1-.361.22-.482.1-.255-.255.024-.329.207-.415" transform="translate(-131.998 -96.771)" fill="#373b5d"/>
      </g>
    </g>
    <g id="Group_1091" data-name="Group 1091" transform="translate(296.835 331)">
      <g id="Mask_Group_857" data-name="Mask Group 857" transform="translate(0 0)" clip-path="url(#clip-path-4)">
        <path id="Path_9680" data-name="Path 9680" d="M10.614,4.648l.093.235a1,1,0,0,1-.019.707c-.6.375-.782,1.057-1.251,1.523a4.782,4.782,0,0,1-3.246,1.31A5.461,5.461,0,0,1,3.7,7.974,3.216,3.216,0,0,1,1.84,6.213a.547.547,0,0,0-.122-.183c-.4-.281-.734-.593-.56-1.132a.493.493,0,0,1,.093-.331.816.816,0,0,1,.572-.39c.234-.03.347-.22.483-.372A4.86,4.86,0,0,1,5.419,2.351a1.221,1.221,0,0,1,.541.036c.551.546.667.573,1.205.269a.625.625,0,0,1,.282-.149,4.212,4.212,0,0,1,2.3,1.483.617.617,0,0,0,.367.247.748.748,0,0,1,.5.41" transform="translate(-0.685 -1.485)" fill="#f4c9a4"/>
        <path id="Path_9681" data-name="Path 9681" d="M.473,9.334a1.065,1.065,0,0,0,.651,1.05,7.518,7.518,0,0,1-.111,1.592,2.566,2.566,0,0,0,.029.948c.056.165-.077.225-.182.309-.386.311-.411.43-.2.856a1.851,1.851,0,0,0,.423.613,1.041,1.041,0,0,1,.3.493c.075.321-.3.559-.177.89a7.723,7.723,0,0,1,.277,1.233c.033.215.145.217.3.229A5.366,5.366,0,0,0,4.227,21.5a2.417,2.417,0,0,0,2.632-.012,5.922,5.922,0,0,0,2.149-2.707,14.672,14.672,0,0,0,1.12-5.443c.01-.171-.218.012-.172-.143A5.928,5.928,0,0,0,9.83,10.49a.7.7,0,0,1,.082-.463,2.406,2.406,0,0,0,.111-.708,7.481,7.481,0,0,1,.453,2.547,17.088,17.088,0,0,1-.381,4.972,9.538,9.538,0,0,1-2.64,5.115,3.053,3.053,0,0,1-2.963.823,4.281,4.281,0,0,1-2.275-1.731A12.264,12.264,0,0,1,.2,15.7a18.7,18.7,0,0,1-.168-4.038,6.628,6.628,0,0,1,.44-2.33" transform="translate(0 -5.92)" fill="#373b5d"/>
        <path id="Path_9682" data-name="Path 9682" d="M6.251.983A4.459,4.459,0,0,0,2.393,2.7c-.048.066-.1.124-.174.11-.308-.055-.5.157-.741.27A4.418,4.418,0,0,1,5.844,0,5.418,5.418,0,0,1,9.185.8a3.983,3.983,0,0,1,1.656,2.362,1.273,1.273,0,0,0-.621-.337.348.348,0,0,1-.233-.115A4.52,4.52,0,0,0,7.625,1.069c-.1-.123,0-.251-.013-.376a.441.441,0,0,0-.5-.387c-.21.062-.225.187-.086.347C6.94.617,6.9.516,7,.4a.275.275,0,0,1,.369-.05.458.458,0,0,1,0,.8A2.287,2.287,0,0,1,6.251.983" transform="translate(-0.912 0)" fill="#373b5d"/>
        <path id="Path_9683" data-name="Path 9683" d="M11.217,11.26q.145.975.29,1.949a3.224,3.224,0,0,1-.182,1.3c.075.076.034.146-.013.215a3.748,3.748,0,0,0-.388.679.71.71,0,0,1-.075.112A4.323,4.323,0,0,1,6.4,17.277a4.07,4.07,0,0,0-1.543.039.821.821,0,0,1-.448.042c-.248-.108-.126-.486-.44-.545a.7.7,0,0,0-.653.193c-.079.069-.145.165-.277.133-.173-.121-.336-.248-.308-.485a2,2,0,0,1,.98-.675,15.68,15.68,0,0,1,3.14-.549A5,5,0,0,0,10.4,13.406c.018-.065-.1-.021-.038-.022.023,0,.027.014.01.042a4.011,4.011,0,0,1-2.232,1.636,8.708,8.708,0,0,1-2.284.415,5.5,5.5,0,0,0-2.978.972c-.1.075-.179.108-.268,0l-.282-.454c-.067-.4.169-.777.133-1.192-.012-.136.291-.133.418.057.075.113,0,.261.1.369.159.035.293-.137.423-.063a1.416,1.416,0,0,0-1.063-.917c-.34-.1-.188-.37-.175-.547a9.164,9.164,0,0,1,.268-2.084,8.907,8.907,0,0,0,.752,1.148,4.571,4.571,0,0,0,2.79,1.194,5.108,5.108,0,0,0,3.061-.569,2.787,2.787,0,0,0,1.391-1.356c.15-.383.5-.543.795-.774" transform="translate(-1.306 -7.153)" fill="rgba(254,245,237,0.65)"/>
        <path id="Path_9684" data-name="Path 9684" d="M11.213,14.428a.634.634,0,0,1,.174-.823,1.3,1.3,0,0,1,1.376-.059.616.616,0,0,1,.262.83c-.144.028-.213-.075-.316-.168.13.229.229.44-.075.593a1.154,1.154,0,0,1-1.064-.061.287.287,0,0,1-.1-.437c-.1.019-.115.185-.255.124" transform="translate(-6.865 -8.499)" fill="#373b5d"/>
        <path id="Path_9685" data-name="Path 9685" d="M12.808,15.784c.31-.309-.266-.439-.165-.713.265.023.333.276.519.381a.749.749,0,0,1-.691.771c-.658.059-.95-.128-1.122-.719.148-.135.222-.35.48-.4.1.241-.437.362-.131.622a.818.818,0,0,0,1.11.058" transform="translate(-7.001 -9.574)" fill="#f3f3f1"/>
        <path id="Path_9686" data-name="Path 9686" d="M9.292,11.235l-.134.222a.636.636,0,0,1-.843.024l0,0c-.082-.175-.262-.318-.2-.541a.29.29,0,0,1,.252-.053.7.7,0,0,1,.124.054c.1.049.209.182.31.027.09-.14.006-.247-.139-.312a.225.225,0,0,1-.1-.083c-.032-.183.1-.273.23-.36a.276.276,0,0,1,.2.035.4.4,0,0,1,.3.509,1.622,1.622,0,0,0,0,.476" transform="translate(-5 -6.486)" fill="#006292"/>
        <path id="Path_9687" data-name="Path 9687" d="M16.307,11.431c-.077-.041-.074-.115-.084-.184a1.823,1.823,0,0,1,.015-.8l0,0c.224-.157.448-.346.691-.026a.231.231,0,0,1-.013.124.306.306,0,0,1-.06.065c-.134.1-.3.226-.164.392.164.206.275-.078.423-.089a.262.262,0,0,1,.259.068.627.627,0,0,1,0,.28l-.286.319a.621.621,0,0,1-.777-.156" transform="translate(-9.984 -6.514)" fill="#006395"/>
        <path id="Path_9688" data-name="Path 9688" d="M17.024,10.21a.8.8,0,0,0-.71.038.855.855,0,0,1,1.378.064.69.69,0,0,0,.372.333l-.345.248-.054-.387-.216.556-.043-.279a.6.6,0,0,0-.382-.572" transform="translate(-10.064 -6.308)" fill="#252627"/>
        <path id="Path_9689" data-name="Path 9689" d="M13.934,2.666a7.861,7.861,0,0,1,1.2.087c.061.073.027.143,0,.214-.62.328-1.055.218-1.191-.3" transform="translate(-8.596 -1.684)" fill="#f1ceac"/>
        <path id="Path_9690" data-name="Path 9690" d="M19.855,14.079a.6.6,0,0,1-.518.3.238.238,0,0,1-.249-.291c.045-.263.3-.274.52-.275.151,0,.256.072.247.27" transform="translate(-11.773 -8.773)" fill="#eb9170"/>
        <path id="Path_9691" data-name="Path 9691" d="M16,1.679c0-.071,0-.143.005-.214.116-.248.2-.491-.119-.667A.234.234,0,0,0,15.6.823a.155.155,0,0,0-.024.152c.105.114.134-.037.2-.062.029-.01.108.025.108.042a.286.286,0,0,1-.037.159.239.239,0,0,1-.28.09.252.252,0,0,1-.2-.21.267.267,0,0,1,.118-.3.51.51,0,0,1,.746.3,1.365,1.365,0,0,1-.041.472L16,1.679" transform="translate(-9.474 -0.395)" fill="#373b5d"/>
        <path id="Path_9692" data-name="Path 9692" d="M6.757,14.44c-.174-.053-.425-.065-.422-.33,0-.183.181-.211.338-.194.227.026.412.146.423.366.008.16-.179.156-.339.158" transform="translate(-3.908 -8.838)" fill="#ec8e6f"/>
        <path id="Path_9693" data-name="Path 9693" d="M8.016,10.053l-.165.022c-.218.121-.451.214-.661.348-.266.036-.264.237-.278.43l-.324-.2c.457-.355.751-1.072,1.555-.609a.078.078,0,0,1-.128.015" transform="translate(-4.065 -6.282)" fill="#292723"/>
        <path id="Path_9694" data-name="Path 9694" d="M8.006,10.749c.083-.352.393-.314.66-.348.051.158-.287.126-.169.317.085.194-.025.287-.2.346l-.252.022c-.094-.032-.161-.079-.126-.189l.086-.147" transform="translate(-4.88 -6.608)" fill="#dbe3e7"/>
        <path id="Path_9695" data-name="Path 9695" d="M10.314,10.316l.128-.015c.535.24.208.648.214.992-.119-.143-.034-.3-.032-.452a.564.564,0,0,0-.309-.526" transform="translate(-6.363 -6.544)" fill="#1b2434"/>
        <path id="Path_9696" data-name="Path 9696" d="M8.654,13.653a1.149,1.149,0,0,0,.843-.024c-.37.341-.553.346-.843.024" transform="translate(-5.339 -8.658)" fill="#2b353c"/>
        <path id="Path_9697" data-name="Path 9697" d="M18.373,8.582c.4-.235.595-.12.746.139-.184-.194-.439-.085-.746-.139" transform="translate(-11.334 -5.371)" fill="#373b5d"/>
        <path id="Path_9698" data-name="Path 9698" d="M7.1,8.683c.175-.255.378-.377.7-.135-.26.09-.524-.051-.7.135" transform="translate(-4.383 -5.347)" fill="#373b5d"/>
        <path id="Path_9699" data-name="Path 9699" d="M16.5,13.482a1.083,1.083,0,0,0,.777.156c-.335.292-.574.152-.777-.156" transform="translate(-10.181 -8.565)" fill="#3c3b3f"/>
        <path id="Path_9700" data-name="Path 9700" d="M7.907,11.759l.126.188c-.064.2.162.331.154.52a.642.642,0,0,1-.28-.708" transform="translate(-4.867 -7.47)" fill="#0a1e28"/>
        <path id="Path_9701" data-name="Path 9701" d="M16.115,10.8q-.007.4-.015.8c-.057-.267-.233-.535.015-.8" transform="translate(-9.862 -6.858)" fill="#092231"/>
        <path id="Path_9702" data-name="Path 9702" d="M12.518,20.165a.186.186,0,0,0,.108-.174c.074-.031.182-.253.188.046a16.143,16.143,0,0,1-.205,2.5,11.41,11.41,0,0,1-1.092,3.431,4.994,4.994,0,0,1-2.258,2.474A2.6,2.6,0,0,1,6.314,28a7.37,7.37,0,0,1-2.07-3.207c-.081-.214.144-.344.125-.533-.1-.122-.02-.22.046-.321a3.086,3.086,0,0,1,3.154-1.2,5.569,5.569,0,0,0,2.263-.052,4.069,4.069,0,0,0,2.337-1.832l0,.005a2.351,2.351,0,0,0,.353-.691" transform="translate(-2.607 -12.631)" fill="rgba(254,245,237,0.65)"/>
        <path id="Path_9703" data-name="Path 9703" d="M2.951,19.888c.044,0,.108.021.131,0,1.05-.954,2.4-1.013,3.73-1.159a5,5,0,0,0,3.971-2.054.819.819,0,0,1-.308.686,5.372,5.372,0,0,1-3.241,1.628,18.221,18.221,0,0,0-2.916.449,1.781,1.781,0,0,0-1.171.753c-.154.166-.168.422-.391.543-.2-.133-.02-.255.02-.372.055-.159.221-.28.174-.474" transform="translate(-1.643 -10.593)" fill="#373b5d"/>
        <path id="Path_9704" data-name="Path 9704" d="M1.676,19.436c.628-.062.868.148,1.2,1.075-.3-.211-.457.128-.708.119-.113-.149,0-.3,0-.451a.184.184,0,0,0-.139-.2.244.244,0,0,0-.165.036c-.091.062-.072.143-.022.229.156.267.353.536-.157.678-.157.044.031.173-.013.26a1.552,1.552,0,0,1-.608-.989c-.1-.41.286-.59.613-.756" transform="translate(-0.646 -12.341)" fill="#373b5d"/>
        <path id="Path_9705" data-name="Path 9705" d="M2.906,26.86a.774.774,0,0,1,.391-.543l.26.376c.238.109.358.348.591.47.165.087.1.223-.016.323a2.506,2.506,0,0,0-.491.623l-.087.235c-.183.087-.326.146-.371-.148-.069-.448-.183-.89-.278-1.335" transform="translate(-1.793 -16.719)" fill="#fef5ed"/>
        <path id="Path_9706" data-name="Path 9706" d="M4.69,25.709c.024-.354.347-.525.555-.817a1.065,1.065,0,0,1-.639-.6l.177-.171c.081.051.1.143.144.214.213.324.377.342.781.09a.183.183,0,0,1,.182.034,7.7,7.7,0,0,1,2.72-.09,3.927,3.927,0,0,0,3.63-1.7.828.828,0,0,1,.164-.134,3.566,3.566,0,0,1-2.612,2.012,5.838,5.838,0,0,1-2.043-.023,2.872,2.872,0,0,0-2.979,1.145c-.014.019-.052.023-.079.034" transform="translate(-2.841 -14.319)" fill="#373b5d"/>
        <path id="Path_9707" data-name="Path 9707" d="M6.008,26.747c-.083.278-.313.311-.547.254a.507.507,0,0,1-.4-.6c.162-.281.448-.265.724-.275.21.163.47.309.223.621" transform="translate(-3.12 -16.598)" fill="#373b5d"/>
        <path id="Path_9708" data-name="Path 9708" d="M25.3,20.657a.867.867,0,0,1-.353.691,1.7,1.7,0,0,1,.353-.691" transform="translate(-15.39 -13.123)" fill="#373b5d"/>
        <path id="Path_9709" data-name="Path 9709" d="M7.18,26.747c.129-.273-.106-.428-.223-.621.376.064.353.353.382.613l-.159.008" transform="translate(-4.292 -16.598)" fill="#373b5d"/>
        <path id="Path_9710" data-name="Path 9710" d="M13.267,14.655c.157,0,.273.052.273.217,0,.14-.107.2-.24.208s-.286-.028-.3-.2.106-.224.262-.229" transform="translate(-8.022 -9.31)" fill="#ece0d0"/>
        <path id="Path_9711" data-name="Path 9711" d="M13.371,16.926c-.441.395-.819.375-1.11-.058a1.515,1.515,0,0,0,1.11.058" transform="translate(-7.564 -10.716)" fill="#f1c8a0"/>
        <path id="Path_9712" data-name="Path 9712" d="M8.922,11.577c.076-.11.191-.2.2-.346.2-.057.332-.005.339.208.005.15.058.342-.148.407-.233.073-.3-.122-.391-.268" transform="translate(-5.504 -7.121)" fill="#0d1215"/>
        <path id="Path_9713" data-name="Path 9713" d="M17.609,11.54c-.089.143-.151.338-.39.259-.149-.049-.159-.186-.167-.32-.015-.242.116-.336.351-.336a.411.411,0,0,1,.207.4" transform="translate(-10.518 -7.079)" fill="#0c1318"/>
        <path id="Path_9714" data-name="Path 9714" d="M18.173,11.258c-.092-.122-.224-.224-.207-.4l.076-.161c.433-.012.568.189.383.571l-.252-.013" transform="translate(-11.082 -6.797)" fill="#eaedec"/>
      </g>
    </g>
    <g id="Group_1093" data-name="Group 1093" transform="translate(299.075 302.658)">
      <g id="Group_1092" data-name="Group 1092" clip-path="url(#clip-path-5)">
        <path id="Path_15470" data-name="Path 15470" d="M5.352,104.239l.058,1.3H3.134a.153.153,0,0,1-.057-.1A4.971,4.971,0,0,1,3,104.779a5.781,5.781,0,0,1-.108.664.173.173,0,0,1-.046.092H.57c-.052-.952-.073-1.9-.052-2.858,0-.191.019-.382.029-.573a.107.107,0,0,1,.112,0,6.3,6.3,0,0,0,1.586.311,11.219,11.219,0,0,0,1.5.077.435.435,0,0,1,.142.013c.068.031.035.079.017.12a.889.889,0,0,1-.124.183.916.916,0,0,0-.2.35c-.027.112.029.166.143.14a.214.214,0,0,0,.121-.073.366.366,0,0,0,.05-.076c.179-.377.462-.326.742-.127a.379.379,0,0,1,0,.52c-.059.07-.119.139-.177.209-.029.036-.08.079-.036.123s.087-.011.125-.035c.06-.036.1-.094.16-.134.029-.02.063-.044.1-.02s.01.064,0,.094c-.056.118-.131.226-.186.345-.028.061-.079.143-.009.19s.124-.035.167-.085a2.092,2.092,0,0,0,.214-.343c.018-.032.035-.086.081-.068s.028.068.023.106c-.019.125-.067.244-.082.37-.006.053-.034.128.028.151s.093-.049.127-.093c.058-.073.068-.179.156-.234.049.033.01.086.034.122" transform="translate(-0.455 -90.936)" fill="#060707"/>
        <path id="Path_15471" data-name="Path 15471" d="M21.9,127.358a5.426,5.426,0,0,1,.163-.773l.125.773Z" transform="translate(-19.506 -112.758)" fill="#f4f3f3"/>
        <path id="Path_15472" data-name="Path 15472" d="M3.463,38.254c-.361-.007-.722,0-1.083-.03a11.029,11.029,0,0,1-1.931-.275c-.121-.031-.237-.081-.355-.123-.131-.11-.092-.254-.07-.388.074-.451.211-.888.284-1.34.117-.73.238-1.459.357-2.189a1.152,1.152,0,0,1,.028-.167,2.243,2.243,0,0,0-.119-1.151,2.668,2.668,0,0,1,.086-1.564,1.341,1.341,0,0,1,.9-.839A10.018,10.018,0,0,1,2.8,29.93a.821.821,0,0,1,.143,0,1.1,1.1,0,0,1,.181.167.807.807,0,0,0,1.012.154c.023-.014.047-.026.071-.037s.043-.022.062-.016a1.885,1.885,0,0,1,.429.112,3.828,3.828,0,0,1,1.157.994,3.438,3.438,0,0,1,.54,1.314c.013.056.008.1-.06.119-.107.1-.252.082-.377.125-.23.078-.473.11-.7.193a1.473,1.473,0,0,0-.043.385c-.04.6-.1,1.193-.143,1.789a1.325,1.325,0,0,1-.39.437.8.8,0,0,1-.239.151,1.793,1.793,0,0,1-.62.058,1.221,1.221,0,0,0-.156,0l-.038.014c-.031.009-.058.03-.088.042a.124.124,0,0,1-.077,0,1.186,1.186,0,0,1-.2-.279,9.308,9.308,0,0,1-.914-1.915c-.019-.049-.038-.1-.058-.146-.1-.255-.056-.228-.328-.2-.3.027-.6.044-.894.094-.126.021-.132.027-.086.149a10.676,10.676,0,0,0,.7,1.456,12.067,12.067,0,0,0,.746,1.117.822.822,0,0,0,.084.119c.049.072.1.141.157.21s.09.119.13.182a.565.565,0,0,0,.061.083c.074.108.15.213.232.315a3.1,3.1,0,0,0,.242.345,2.039,2.039,0,0,1,.242.432.33.33,0,0,1-.111.357" transform="translate(0 -26.658)" fill="#365997"/>
        <path id="Path_15473" data-name="Path 15473" d="M30.985,11.475A1.116,1.116,0,0,1,30.6,11.4c-.041-.02-.074.008-.111.01-.045-.057-.116-.073-.172-.114a1.776,1.776,0,0,1-.5-.595c-.024-.043-.038-.1-.107-.1l-.016-.009a.283.283,0,0,0-.015-.333c.021-.052-.02-.079-.046-.113a.539.539,0,0,1-.125-.3.239.239,0,0,1,.221-.282c.105-.012.135-.086.166-.161a1.21,1.21,0,0,1,.433-.527.456.456,0,0,1,.515-.04,1.011,1.011,0,0,1,.157.092,1.016,1.016,0,0,0,.5.214.567.567,0,0,1,.454.311c.065.126.172.222.244.342-.076.079-.073.19-.107.285a3,3,0,0,1-.828,1.235.786.786,0,0,1-.283.153" transform="translate(-26.291 -7.821)" fill="#f99d72"/>
        <path id="Path_15474" data-name="Path 15474" d="M29.359,55.945l1.083-.273c.1.365.2.73.29,1.1.055.21.107.421.154.633.043.191-.081.32-.183.454a3.568,3.568,0,0,1-.663.585,2.487,2.487,0,0,1-.476.335c-.055,0-.113-.006-.077-.088.014-.032.078-.049.038-.095s-.049-.106-.111-.14-.173,0-.164-.124c0-.018-.009.006-.01.008-.023.071-.091.074-.146.1a.193.193,0,0,0-.129.18.185.185,0,0,0,.121.17.517.517,0,0,0,.2.044c.06.007.092.031.04.09-.081.08-.2.106-.274.2a5.293,5.293,0,0,0-.57.813c-.046.076-.074.168-.163.211a.515.515,0,0,1-.32.13c-.03,0-.065,0-.081-.031s.011-.057.033-.076a1.359,1.359,0,0,0,.125-.144.607.607,0,0,1-.288.217.225.225,0,0,1-.14.015c-.054-.015-.126-.016-.132-.085s.068-.07.114-.087a.552.552,0,0,0,.226-.155c-.176.068-.312.217-.511.218-.112-.009-.172-.062-.152-.181.046-.055.116-.053.177-.07a.706.706,0,0,0,.312-.171.706.706,0,0,0-.278.042.538.538,0,0,1-.216.039c-.049,0-.1-.011-.118-.064s.027-.086.066-.114a.561.561,0,0,1,.167-.069,3.8,3.8,0,0,0,.408-.131.381.381,0,0,0,.135-.1c.053-.156.023-.21-.122-.221a.787.787,0,0,0-.1.06c-.039.02-.083.044-.121.011s-.016-.089,0-.132a.186.186,0,0,1,.072-.09c.1.01.079-.1.127-.134l.024-.013a4.222,4.222,0,0,1,.53-.014.746.746,0,0,0,.313-.066,2.863,2.863,0,0,0,.577-.528c.118-.172.281-.309.383-.494a1.552,1.552,0,0,1,.136-.208.386.386,0,0,0,.042-.416c-.123-.308-.2-.63-.318-.94a.327.327,0,0,1-.031-.191" transform="translate(-24.111 -49.591)" fill="#f8a177"/>
        <path id="Path_15475" data-name="Path 15475" d="M31.157,1.98a.533.533,0,0,1-.211-.224.66.66,0,0,0-.558-.412.9.9,0,0,1-.415-.18,2.321,2.321,0,0,0-.226-.129.4.4,0,0,0-.418.035,1.2,1.2,0,0,0-.48.616c-.028.074-.058.109-.148.1-.108-.016-.183.059-.2.178a.37.37,0,0,0,.11.333c.041.04.106.081.028.146a1.246,1.246,0,0,1-.258-.616,1.623,1.623,0,0,1,.04-.886.481.481,0,0,1,.284-.318,1.114,1.114,0,0,0,.46-.374.459.459,0,0,1,.67-.163,1.048,1.048,0,0,0,.734.044.437.437,0,0,1,.493.207.864.864,0,0,0,.4.356.327.327,0,0,1,.167.389,1.092,1.092,0,0,0,.023.515.312.312,0,0,1-.109.341.35.35,0,0,1-.39.047" transform="translate(-25.245 0)" fill="#070808"/>
        <path id="Path_15476" data-name="Path 15476" d="M28.584,97.69a.409.409,0,0,0,.011-.5c-.061-.093-.116-.19-.173-.286.039-.071.085-.037.13-.009a.651.651,0,0,0,.42.033c.068,0,.033-.111.093-.142.085-.046.174-.084.258-.133a.61.61,0,0,1,.195.342,2.7,2.7,0,0,0,.262.565,1.226,1.226,0,0,1,.141.258c.054.146.106.292.162.437a1.076,1.076,0,0,1-.045.88c-.046.1.018.179-.017.263l-.03-.119a1.367,1.367,0,0,1-.2.331c-.033.034-.075.072-.125.054s-.043-.08-.041-.126a4.8,4.8,0,0,1,.1-.471c0-.025.006-.051.013-.1-.1.159-.173.3-.263.431-.051.075-.113.189-.224.124s-.037-.175,0-.255c.064-.136.144-.265.2-.414-.089.07-.177.142-.268.209-.041.031-.091.066-.137.007a.1.1,0,0,1,.011-.143c.056-.061.112-.121.169-.182a.522.522,0,0,0,.132-.222.28.28,0,0,0-.162-.377.87.87,0,0,0-.143-.062.309.309,0,0,0-.417.162c-.054.088-.085.194-.2.235a.188.188,0,0,1-.2-.008c-.059-.049-.045-.115-.024-.18a1.041,1.041,0,0,1,.171-.306,1.358,1.358,0,0,0,.193-.293" transform="translate(-25.122 -86.094)" fill="#f8a177"/>
        <path id="Path_15477" data-name="Path 15477" d="M38.767,89.135a5.105,5.105,0,0,1-.363-.783c-.022-.042-.048-.081-.072-.122a.032.032,0,0,1,0-.052c.08-.047.105-.134.15-.206a6.646,6.646,0,0,1,.492-.72c.026-.032.046-.078.1-.068a7.032,7.032,0,0,0-.047,1.609.207.207,0,0,1-.061.2c-.049.04-.038.092-.048.141a.228.228,0,0,0-.157,0" transform="translate(-34.136 -77.661)" fill="#365997"/>
        <path id="Path_15478" data-name="Path 15478" d="M28.12,26.22a.752.752,0,0,1-.752.058,1.035,1.035,0,0,1-.464-.4,1.593,1.593,0,0,0,.472-.5l.007,0a1.831,1.831,0,0,0,.56.715c.058.044.135.061.179.124" transform="translate(-23.964 -22.606)" fill="#f7a176"/>
        <path id="Path_15479" data-name="Path 15479" d="M44.51,79.806c.02-.058-.011-.066-.059-.063a.407.407,0,0,1-.2-.041.213.213,0,0,1-.143-.2.221.221,0,0,1,.157-.217c.062-.024.161-.012.123-.132-.005-.016.023-.038.048-.032s.057.044.039.069c-.058.081.007.084.054.089.129.013.165.136.247.2.041.034-.023.058-.047.071-.092.052-.03.077.015.107a1.123,1.123,0,0,1-.236.141" transform="translate(-39.291 -70.481)" fill="#f2816e"/>
        <path id="Path_15480" data-name="Path 15480" d="M42.4,104.462c.053-.053.107-.133.157,0q0,.122.01.245a1.187,1.187,0,0,1-.167-.248" transform="translate(-37.77 -92.988)" fill="#191715"/>
        <path id="Path_15481" data-name="Path 15481" d="M9.742,64.1a8.312,8.312,0,0,1-.787-1.162,10.134,10.134,0,0,1-.674-1.4c-.016-.041-.03-.081-.046-.122-.024-.065-.007-.091.068-.1.381-.033.761-.068,1.141-.112.085-.01.114.018.141.09q.28.738.6,1.461a6.711,6.711,0,0,0,.381.667c.017.03.031.061.047.092s0,.067-.042.069-.1.009-.142.008c-.1,0-.161.02-.145.138.007.052-.026.059-.076.054-.1-.011-.139.026-.134.133a.26.26,0,0,1-.02.152c-.02.035-.047.08-.085.07-.074-.019-.149-.032-.224-.045" transform="translate(-7.327 -54.523)" fill="#f8a077"/>
        <path id="Path_15483" data-name="Path 15483" d="M26.311,84.147c-.048.057-.128.135-.078.191s.111-.043.167-.075a.167.167,0,0,1,.049-.011,1.153,1.153,0,0,0,.148.253.413.413,0,0,1-.273.182c-.116.037-.234.066-.35.1a.3.3,0,0,0-.117.055c-.025.022-.071.031-.056.076s.054.037.089.039c.156.01.29-.088.444-.092.037,0,.081-.033.1.017s-.024.07-.056.093a.869.869,0,0,1-.459.166c-.033.029.006.08-.031.108a1.4,1.4,0,0,1-.232-.315,1.3,1.3,0,0,1-.032-.473.169.169,0,0,1,.008-.039.6.6,0,0,1,.222-.281.086.086,0,0,0,.044-.087c.055-.122.077-.132.175-.06a.381.381,0,0,0,.21.055l.08-.014c.021.055-.019.081-.053.11" transform="translate(-22.821 -74.781)" fill="#f2816d"/>
        <path id="Path_15484" data-name="Path 15484" d="M23.161,82.648a.17.17,0,0,1-.225-.027c-.1-.112-.111-.028-.138.044a.149.149,0,0,1-.137.1c-.08.013-.116.043-.1.128a.142.142,0,0,1-.027.111c0,.009,0,.017,0,.026a.278.278,0,0,0-.042.21.363.363,0,0,1-.012.214.69.69,0,0,1-.137-.185.215.215,0,0,0-.151-.207.182.182,0,0,1-.079-.109.054.054,0,0,0,.084-.029c.016-.033.036-.07.083-.064.037.041-.064.074-.005.11a.083.083,0,0,0,.074,0,.142.142,0,0,0,.067-.144c-.018-.08-.032-.157.052-.207.048-.029.1-.1.136.02.042-.05,0-.079.007-.112.008-.073.024-.131.119-.107.075.019.15-.039.227-.005,0,0,.015-.027.023-.042a2.079,2.079,0,0,1,.18.273" transform="translate(-19.699 -73.377)" fill="#f8a177"/>
        <path id="Path_15485" data-name="Path 15485" d="M28.092,94.97c.01-.036-.01-.081.031-.108-.013.117.045.164.156.156.072.011.146.024.161.112.009.055.036.038.072.033a.942.942,0,0,1,.473.038l-.013.022a.393.393,0,0,1-.219.154.4.4,0,0,1-.339-.066c-.037-.034-.061-.012-.091,0a1.415,1.415,0,0,1-.232-.338" transform="translate(-25.024 -84.5)" fill="#f1836e"/>
        <path id="Path_15486" data-name="Path 15486" d="M32,25.918a.811.811,0,0,1-.38-.259,1.623,1.623,0,0,1-.334-.457.2.2,0,0,1-.024-.123c.043-.032.064-.081.11.02a1.765,1.765,0,0,0,.553.688c.041.03.157-.016.119.1L32,25.918" transform="translate(-27.847 -22.303)" fill="#f18c5b"/>
        <path id="Path_15487" data-name="Path 15487" d="M25.261,88.811c-.008-.1-.014-.2-.025-.294a.108.108,0,0,1,.079-.13v.5a.1.1,0,0,1-.054-.077" transform="translate(-22.479 -78.733)" fill="#f8a077"/>
        <path id="Path_15488" data-name="Path 15488" d="M33.967,83.592c-.069.1-.178.07-.269.075-.191.012-.383,0-.574,0,.035-.05.087-.028.132-.029a3.1,3.1,0,0,0,.711-.051" transform="translate(-29.506 -74.461)" fill="#da6f5f"/>
        <path id="Path_15489" data-name="Path 15489" d="M22.836,88.327c.007-.015.015-.043.021-.042a.413.413,0,0,1,.175.231c0,.009-.029.013-.045.019a.727.727,0,0,1-.151-.207" transform="translate(-20.342 -78.642)" fill="#f8a077"/>
        <path id="Path_15490" data-name="Path 15490" d="M31.952,84.573c0-.047.042-.07.053-.11.009-.024.023-.04.051-.032a.364.364,0,0,0-.005.088c.007.08-.038.086-.1.054" transform="translate(-28.462 -75.207)" fill="#f8a077"/>
        <path id="Path_15491" data-name="Path 15491" d="M48.3,16.029a1.319,1.319,0,0,0,.38.351c.018.01.041.025.026.05s-.039.019-.058.014a.712.712,0,0,1-.346-.195c-.061-.064-.014-.13,0-.219" transform="translate(-42.996 -14.278)" fill="#1c130f"/>
        <path id="Path_15492" data-name="Path 15492" d="M37.742,14.721a2.057,2.057,0,0,0,.537-.151c-.013.084-.007.164-.1.188a.526.526,0,0,1-.442-.037" transform="translate(-33.62 -12.979)" fill="#18120f"/>
        <path id="Path_15493" data-name="Path 15493" d="M42.38,22a1.429,1.429,0,0,1,0,.442c-.016.089-.18.128-.248.064a.043.043,0,0,1-.014-.032c.007-.029.031-.02.052-.018.158.018.165.01.171-.145A.746.746,0,0,1,42.38,22" transform="translate(-37.521 -19.6)" fill="#e16c48"/>
        <path id="Path_15494" data-name="Path 15494" d="M48.478,20.453c0,.063-.019.134-.1.132s-.083-.073-.078-.128.021-.129.1-.131.081.063.082.128" transform="translate(-43.021 -18.105)" fill="#1d140f"/>
        <path id="Path_15495" data-name="Path 15495" d="M39.343,18.027c-.012.072-.024.147-.106.147-.062,0-.08-.063-.076-.117s.015-.14.1-.14c.069,0,.068.066.08.11" transform="translate(-34.883 -15.96)" fill="#201712"/>
        <path id="Path_15496" data-name="Path 15496" d="M41.045,28.186a.455.455,0,0,0-.387-.043c.127-.119.233-.108.387.043" transform="translate(-36.217 -24.997)" fill="#dd6b43"/>
        <path id="Path_15497" data-name="Path 15497" d="M49.152,74c-.113-.053-.18-.03-.192.094,0,.041-.046.061-.061.04-.06-.088-.165-.063-.242-.109-.052-.031-.077-.055-.056-.122a.217.217,0,0,0,.018-.139.056.056,0,0,1,.063-.074c.117.026.16-.063.179-.133a1.019,1.019,0,0,1,.152-.267c.037-.06.1-.055.138.006a.665.665,0,0,1,.111.256.513.513,0,0,1-.066.308c-.048.04-.046.084-.045.141" transform="translate(-43.287 -65.249)" fill="#f2826e"/>
        <path id="Path_15498" data-name="Path 15498" d="M30.51,94.444a2.142,2.142,0,0,1-.218-.02.353.353,0,0,0-.3.041c-.027.023-.093.019-.074-.019.067-.137-.047-.144-.115-.186.2-.016.33-.163.5-.231.019-.007.032-.031.07-.01a.622.622,0,0,1-.407.28c.123.156.374.064.6-.23a.443.443,0,0,1-.194.3c.125.041.133.039.375-.109l0,.052-.235.132" transform="translate(-26.549 -83.742)" fill="#e87357"/>
        <path id="Path_15499" data-name="Path 15499" d="M35.267,89.112a.513.513,0,0,1,.08,0,.146.146,0,0,1,.107.086c.028.051-.017.079-.046.109s-.078.082-.119.12a.134.134,0,0,1-.237-.07c-.021-.2-.023-.261.215-.246" transform="translate(-31.216 -79.377)" fill="#eb665e"/>
        <path id="Path_15500" data-name="Path 15500" d="M33.36,86.972a.251.251,0,0,1-.148-.253c.154,0,.193.07.148.253" transform="translate(-29.584 -77.247)" fill="#365997"/>
        <path id="Path_15501" data-name="Path 15501" d="M25.837,85.37a.133.133,0,0,0,0-.026c-.029-.14-.041-.265.165-.258.032,0,.065-.038.1-.058.022.016.027.041.007.054a.98.98,0,0,0-.269.287" transform="translate(-23 -75.741)" fill="#f8a077"/>
      </g>
    </g>
  </g>
</svg>
