<svg xmlns="http://www.w3.org/2000/svg" xmlns:xlink="http://www.w3.org/1999/xlink" width="87.591" height="91.724" viewBox="0 0 87.591 91.724">
  <defs>
    <clipPath id="clip-path">
      <rect id="Rectangle_1809" data-name="Rectangle 1809" width="87.591" height="91.724" fill="none"/>
    </clipPath>
    <clipPath id="clip-path-2">
      <rect id="Rectangle_1810" data-name="Rectangle 1810" width="13.341" height="11.261" fill="none"/>
    </clipPath>
    <clipPath id="clip-path-3">
      <rect id="Rectangle_1812" data-name="Rectangle 1812" width="12.672" height="13.531" fill="none"/>
    </clipPath>
    <clipPath id="clip-path-4">
      <rect id="Rectangle_1813" data-name="Rectangle 1813" width="12.913" height="12.976" transform="translate(0 0)" fill="none"/>
    </clipPath>
    <clipPath id="clip-path-5">
      <rect id="Rectangle_1814" data-name="Rectangle 1814" width="10.001" height="16.967" fill="none"/>
    </clipPath>
  </defs>
  <g id="Group_1071" data-name="Group 1071" transform="translate(-219 -323)">
    <g id="Group_848" data-name="Group 848" transform="translate(219 323)">
      <g id="Group_847" data-name="Group 847" clip-path="url(#clip-path)">
        <path id="Path_9510" data-name="Path 9510" d="M44.306,102.364a13.333,13.333,0,0,1-.684-4.927c.139-.245.374-.223.6-.208a4.562,4.562,0,0,0,2.8-.846,9.4,9.4,0,0,0,3.723-4.4A130.89,130.89,0,0,0,55.372,78.2a4.768,4.768,0,0,1,.695-1.539c.55-.754,1.052-1.543,1.639-2.27,1.777-.156,3.218-1.14,4.741-1.922a11.869,11.869,0,0,1,4.85,1.892A14.009,14.009,0,0,1,70.4,77.1a35.527,35.527,0,0,1,4.642,5.639,1.752,1.752,0,0,1,.232.452,1.951,1.951,0,0,1-.019,1.836,6.276,6.276,0,0,1-1.492,2.321,22.611,22.611,0,0,1-3.255,3.183,18.58,18.58,0,0,1-2.235,1.4,1.657,1.657,0,0,0-.918,1.329c-.386,2.265-.893,4.506-1.321,6.763a4.366,4.366,0,0,1-1.018,2.117,3.1,3.1,0,0,0-2.666,1.77c-.018.038-.1.043-.154.061-4.646.332-9.284.531-13.886-.474-1.361-.3-2.683-.716-4.007-1.133" transform="translate(-12.596 -20.925)" fill="#e0d3b5"/>
        <path id="Path_9511" data-name="Path 9511" d="M76.774,76.216c-.575-.253-.69-.869-1.021-1.312-1.271-1.706-2.824-3.166-4.164-4.8a15.811,15.811,0,0,0-5.065-3.723,23.01,23.01,0,0,0-2.467-.755,1.364,1.364,0,0,1-.975-1.059,9.553,9.553,0,0,1-.516-3.144,2.349,2.349,0,0,0-1.081-2.24,2.9,2.9,0,0,0-1.007-.4c-.151-.05-.3-.116-.443-.179-.4-.163-.809-.319-1.2-.52-1.552-.94-2.373-1.91-2.5-3A5.121,5.121,0,0,1,54.3,56.829a3.037,3.037,0,0,0-1.726,1.75,4.4,4.4,0,0,0-.088,1.243,6.084,6.084,0,0,0,1.191,3.8,1.725,1.725,0,0,1,.415.821c.006.378-.262.53-.548.669-1.069.518-2.261.661-3.356,1.1a.688.688,0,0,1-.713-.129,3.74,3.74,0,0,1-.016-4.225A5.9,5.9,0,0,1,50.8,60.238a2.556,2.556,0,0,0,.339-3.3,2.072,2.072,0,0,1-.239-.446c-.069-.174-.049-.418-.335-.422-.542-2.028.5-3.452,1.876-4.687a10.785,10.785,0,0,1,5.524-2.63,1.7,1.7,0,0,0,.379-.165,4.447,4.447,0,0,1,3.44.139l1.341.238c.208.442.71.426,1.048.666a6.18,6.18,0,0,1,3.39,5.455,16.151,16.151,0,0,0,.717,4.174,4.374,4.374,0,0,0,3.479,3.13c.334.063.664.142,1,.213,2.639.565,3.2,1.226,3.164,3.94a3.156,3.156,0,0,0,1.41,2.881,3.867,3.867,0,0,1-.559,6.79" transform="translate(-14.093 -13.949)" fill="#705225"/>
        <path id="Path_9512" data-name="Path 9512" d="M43.619,114.439c.247-.3.484-.1.749-.012a38.818,38.818,0,0,0,15.515,1.467c.591-.05,1.188-.014,1.783-.018.3.329.2.74.218,1.123a1.56,1.56,0,0,0,1.447,1.75c.382.093.776.116,1.157.215.336.087.649.2.72.6.176.858.349,1.718.527,2.575.171.829.346,1.656.538,2.568h-.807c-7.824,0-15.648-.011-23.472.018-.782,0-.829-.2-.693-.9a85.488,85.488,0,0,1,2.317-9.383" transform="translate(-11.909 -33)" fill="#705225"/>
        <path id="Path_9513" data-name="Path 9513" d="M56.974,73.878a3.341,3.341,0,0,1-.427.82c-1.347,1.415-1.8,3.217-2.339,5.017a100.648,100.648,0,0,1-4.2,12.109,9.026,9.026,0,0,1-5.091,4.844,5.8,5.8,0,0,1-2.077.16,11.071,11.071,0,0,1-1.735-4.153,18.354,18.354,0,0,1,.014-5.314c.274-.139.324.125.437.254a4.334,4.334,0,0,1,.28.419c.932,1.361.932,1.361,1.723-.014,1.447-2.269,3.058-4.422,4.607-6.62.994-1.411,1.94-2.856,2.863-4.314a2.233,2.233,0,0,0,.339-1.7c-.3-1.543.26-3.023.395-4.536.141-.632.466-.614.865-.229a1.814,1.814,0,0,1,.4.81c.153.509.555.531.985.5a3.184,3.184,0,0,0,2.378-.713c.317-.255.73-.552,1.159-.238s.265.771.127,1.174a4.973,4.973,0,0,1-.7,1.72" transform="translate(-11.816 -20.315)" fill="#f4bfb6"/>
        <path id="Path_9514" data-name="Path 9514" d="M73.484,112.59c-.158-.4-.534-.344-.846-.4-2.674-.45-2.855-.668-2.7-3.292.382-.777.56-1.77,1.768-1.676.242.019.488.165.723-.026a8.539,8.539,0,0,1,2.232,1.52.643.643,0,0,0,1.073-.108c1.7-2.158,3.421-4.3,5.1-6.474.713-.927.837-1.763-.035-3.111a28.36,28.36,0,0,0-2.335-2.8c-.2-.232-.482-.422-.367-.8a26.132,26.132,0,0,0,4.75-5.3,29.516,29.516,0,0,1,4.531,7.863c.8,2.235,0,4.135-1.321,5.906a29.517,29.517,0,0,1-4.6,4.812,23.192,23.192,0,0,1-5.229,3.4,2.728,2.728,0,0,1-2.137.224c-.255-.09-.515-.1-.6.253" transform="translate(-20.184 -26.025)" fill="#efaeab"/>
        <path id="Path_9515" data-name="Path 9515" d="M10.817,39.577A10.594,10.594,0,0,1,21.592,50.3,10.8,10.8,0,0,1,0,50.258c.013-5.678,4.73-10.93,10.817-10.681" transform="translate(0 -11.426)" fill="#705225"/>
        <path id="Path_9516" data-name="Path 9516" d="M114.387,50.321a10.746,10.746,0,1,1-10.631-10.878,10.612,10.612,0,0,1,10.631,10.878" transform="translate(-26.824 -11.389)" fill="#705225"/>
        <path id="Path_9517" data-name="Path 9517" d="M10.58,21.532a10.748,10.748,0,1,1,11.01-10.7,10.69,10.69,0,0,1-11.01,10.7" transform="translate(-0.004 -0.011)" fill="#705225"/>
        <path id="Path_9518" data-name="Path 9518" d="M103.532,21.52C98,21.752,92.861,16.565,92.853,10.831a10.775,10.775,0,1,1,21.548.11A10.785,10.785,0,0,1,103.532,21.52" transform="translate(-26.812 0)" fill="#705225"/>
        <path id="Path_9519" data-name="Path 9519" d="M52.817,71.007a4.167,4.167,0,0,1-.058,1.6,7.127,7.127,0,0,0-.1,3.274,1.771,1.771,0,0,1-.445,1.488c-2.381,3.74-5.018,7.3-7.559,10.931a.971.971,0,0,1-.268-.939c.482-2.621.561-5.3,1.075-7.91.335-1.7.376-3.426.671-5.124l1.739-1.549c.123-.127.225-.287.436-.271.076.036.171.12.226.1A39.761,39.761,0,0,0,52.6,71.221c.058-.029.071-.147.1-.223l.067-.114.049.122" transform="translate(-12.81 -20.469)" fill="#e0d3b5"/>
        <path id="Path_9520" data-name="Path 9520" d="M44.523,75.722a12.276,12.276,0,0,1-.312,4.4c-.228,1.1-.3,2.229-.483,3.338a42.549,42.549,0,0,1-.758,5.321,2.607,2.607,0,0,0,.074.913c-.2.454-.313,1.185-.718,1.238-.557.073-.834-.629-1.161-1.068-.232-.31-.442-.636-.661-.954A23.1,23.1,0,0,1,38.872,84.3a2.574,2.574,0,0,1,.428-2.22,40.733,40.733,0,0,1,5.223-6.361" transform="translate(-11.201 -21.865)" fill="#e0d3b5"/>
        <path id="Path_9521" data-name="Path 9521" d="M71.774,14.4c.061,4.623-2.052,7.871-5.238,10.545a19.743,19.743,0,0,1-8.712,4.178,14.315,14.315,0,0,1-7.226.091,11.39,11.39,0,0,1-5.55-3.762,12.774,12.774,0,0,1-2.994-6.359,6.176,6.176,0,0,1,2.621-6.2,12.852,12.852,0,0,1,6.194-2.366,7.715,7.715,0,0,0,4.213-1.994,14.118,14.118,0,0,1,6.078-3.373,8.535,8.535,0,0,1,9,3.832A9.416,9.416,0,0,1,71.774,14.4" transform="translate(-12.12 -1.426)" fill="#705225"/>
        <path id="Path_9522" data-name="Path 9522" d="M43.711,47.025c-.708-.725-1.424-.6-1.664.361-.107.427-.269.56-.671.544-.647-.027-1.3-.029-1.945-.042a3.013,3.013,0,0,1,1.38-3.107c.19-.122.4-.214.58-.351.659-.125,1.327-.184,1.994-.25a3.412,3.412,0,0,1,2.979,1.8,3.659,3.659,0,0,1-.3,3.787A18.487,18.487,0,0,0,44.073,52.8c-.367.881-1.4.947-2.371.258A3.5,3.5,0,0,1,42.9,50.123a5.049,5.049,0,0,0,1.065-1.716,1.148,1.148,0,0,0-.25-1.381" transform="translate(-11.367 -12.758)" fill="#e0d3b5"/>
        <path id="Path_9523" data-name="Path 9523" d="M78.732,41.77c-1.326,0-2.673-.982-2.536-1.971a2.257,2.257,0,0,1,2.381-2.12,2.228,2.228,0,0,1,2.529,2.216c.016,1.06-1.03,1.873-2.375,1.875" transform="translate(-22 -10.88)" fill="#e0d3b5"/>
        <path id="Path_9524" data-name="Path 9524" d="M61.658,46.136c-.892-1.752-.329-2.7,1.632-2.759.085,0,.169,0,.254,0,.883.029,1.873.032,2.314.9.41.809-.066,1.63-.51,2.364a.8.8,0,0,1-.794.367,12.394,12.394,0,0,1-2.762-.169l.015-.031a5.9,5.9,0,0,1-.149-.674" transform="translate(-17.685 -12.525)" fill="#705225"/>
        <path id="Path_9525" data-name="Path 9525" d="M82.232,47.593a1.666,1.666,0,0,1-1.743-1.372c-.009-.7.843-1.35,1.764-1.353a1.665,1.665,0,0,1,1.629,1.4c.02.678-.79,1.326-1.65,1.322" transform="translate(-23.242 -12.956)" fill="#e0d3b5"/>
        <path id="Path_9526" data-name="Path 9526" d="M69.73,50.045c-.324-.156-.66-.292-.968-.475s.062-.223.1-.336c2.806.726,4.124,2.785,4.812,5.4.368,1.395.4,2.851.819,4.245a4.244,4.244,0,0,0,3.412,3.26,8.608,8.608,0,0,1,3.042,1.02,2.889,2.889,0,0,1,1.387,2.977c-.085-.034-.164-.05-.165-.068-.108-2.609-1.689-3.181-3.65-3.494-2.763-.441-4.067-2.085-4.544-4.642-.192-1.028-.356-2.061-.533-3.092a13.69,13.69,0,0,0-1.347-2.9,4.329,4.329,0,0,0-2.361-1.892" transform="translate(-19.822 -14.217)" fill="#705225"/>
        <path id="Path_9527" data-name="Path 9527" d="M43.09,58.188a1.433,1.433,0,0,1,1.772.723,1.2,1.2,0,0,1-.379,1.583,1.625,1.625,0,0,1-2.06-.216c-.056-.786-.171-1.59.668-2.089" transform="translate(-12.239 -16.784)" fill="#e0d3b5"/>
        <path id="Path_9528" data-name="Path 9528" d="M49.485,69.229c-.035.267-.207.316-.436.271a1.71,1.71,0,0,1-.339-1.025,2.594,2.594,0,0,1-.1-2.078,7.3,7.3,0,0,1,2-3.162l-.006.008a2.6,2.6,0,0,0,.271-2.988c-.188-.381-.167-.391.05-.714a5.56,5.56,0,0,1,.766,1.92,2.516,2.516,0,0,1-.726,2.05,9.4,9.4,0,0,0-1.632,2.051,3.832,3.832,0,0,0,.155,3.667" transform="translate(-13.988 -17.193)" fill="#d7d2b5"/>
        <path id="Path_9529" data-name="Path 9529" d="M44.57,48.114c.058-.23.145-.194.252-.031a1.708,1.708,0,0,1,.135,1.55,3.42,3.42,0,0,1-.724,1.24,5.375,5.375,0,0,0-1.671,3.277,1.407,1.407,0,0,1-.008-1.51A13.216,13.216,0,0,1,44.028,50.6a2.313,2.313,0,0,0,.542-2.482" transform="translate(-12.225 -13.846)" fill="rgba(112,82,37,0.69)"/>
        <path id="Path_9530" data-name="Path 9530" d="M70.17,50.31c.282-.358.494-.011.676.1A6.954,6.954,0,0,1,73.878,55.1c-.164.142-.087.349-.142.521a7.685,7.685,0,0,0-2.2-4.336,6.394,6.394,0,0,0-1.362-.974" transform="translate(-20.262 -14.482)" fill="#d7d2b5"/>
        <path id="Path_9531" data-name="Path 9531" d="M41.319,44.62a3.79,3.79,0,0,0-2,3.373c-.454.036-.337-.309-.307-.52a3.245,3.245,0,0,1,2.018-2.894.215.215,0,0,1,.287.041" transform="translate(-11.255 -12.862)" fill="rgba(112,82,37,0.69)"/>
        <path id="Path_9532" data-name="Path 9532" d="M50.573,64.735c-.075.489-.521.706-.783,1.058a4.744,4.744,0,0,0-1.113,4.183c-.361.042-.327-.235-.341-.445a5.317,5.317,0,0,1,2.237-4.8" transform="translate(-13.954 -18.693)" fill="#705225"/>
        <path id="Path_9533" data-name="Path 9533" d="M62.014,48.213a13.161,13.161,0,0,1,2.913-.006c.246.2.637-.169.836.213l-.16.256-3.44-.139-.149-.324" transform="translate(-17.907 -13.898)" fill="#d7d2b5"/>
        <path id="Path_9534" data-name="Path 9534" d="M51.743,59.375c-.28.489.188.817.277,1.227a2.15,2.15,0,0,1-.6,2.475c.936-1.343.245-2.63-.136-3.928.4-.432.368.023.457.226" transform="translate(-14.809 -17.028)" fill="#705225"/>
        <path id="Path_9535" data-name="Path 9535" d="M43,58.215l.075.04c-.678.532-.6,1.31-.662,2.041a.385.385,0,0,1-.081.008c-.49-1.12-.308-1.69.668-2.088" transform="translate(-12.148 -16.81)" fill="rgba(112,82,37,0.69)"/>
        <path id="Path_9536" data-name="Path 9536" d="M61.438,46.8c.318.165.338.4.149.674a1.978,1.978,0,0,1-1.1-1.8,6.7,6.7,0,0,0,.435.768c.122.167.137.549.519.361" transform="translate(-17.465 -13.188)" fill="#705225"/>
        <path id="Path_9537" data-name="Path 9537" d="M66.944,48.239c-.292-.023-.606.047-.836-.213l.644-.191c.51.38.7-.326,1.159-.331a1.127,1.127,0,0,1-.967.735" transform="translate(-19.089 -13.717)" fill="#705225"/>
        <path id="Path_9538" data-name="Path 9538" d="M42.153,44.5l-.287-.041a3.78,3.78,0,0,1,2.242-.294,8.113,8.113,0,0,1-1.955.335" transform="translate(-12.089 -12.743)" fill="rgba(112,82,37,0.69)"/>
        <path id="Path_9539" data-name="Path 9539" d="M79.124,97.575c.8.94,1.648,1.846,2.394,2.828,1.919,2.525,1.307,2.975-.031,4.741-1.463,1.932-3,3.812-4.5,5.711-.386.487-.746.937-1.376.215-.606-.7-1.55-1-2.152-1.721,1.26-1.51,1.119-3.45,1.572-5.2.366-1.42.588-2.876.86-4.319.05-.262.089-.488.373-.6a28.377,28.377,0,0,0,2.859-1.647" transform="translate(-21.212 -28.176)" fill="#fdf7f6"/>
        <path id="Path_9540" data-name="Path 9540" d="M55.5,68.79l-.058-.013-.058,0a6.75,6.75,0,0,1-1.72-4.629c.312-.06.35.23.481.388a1.873,1.873,0,0,0,2.937.409c.2-.138.341-.4.649-.309.291.413-.063.748-.151,1.106a1.072,1.072,0,0,0,.281,1.266c.04.048.078-.106.006-.018-.009.012-.022-.014-.063-.048-.493-.425-.285-.907-.139-1.4.1-.342.438-.718-.056-1.038-.116-.376-.148-.745.236-.98.46-.281.909.044.965.755a1.646,1.646,0,0,0,1.307,1.58,2.065,2.065,0,0,0,2.27-.5,1.652,1.652,0,0,0,.393-1.083c.011-.356-.2-.729.055-1.072a2.066,2.066,0,0,1,1.343,2.146,10.923,10.923,0,0,0,.4,3.086,2.676,2.676,0,0,0,.882,1.491c-.9.4-1.65,1.075-2.59,1.413a5.681,5.681,0,0,1-2.215.472,9.9,9.9,0,0,1,.578-2.048c.075-.255.152-.508-.064-.713-.253-.24-.509-.029-.683.11a3.6,3.6,0,0,1-2.881.94c-.307-.305-.743-.41-1.067-.689-.115-.234-.213-.478-.348-.7-.273-.454-.5-.307-.687.078" transform="translate(-15.494 -18.251)" fill="#ecadaa"/>
        <path id="Path_9541" data-name="Path 9541" d="M62.813,62.567c.275.937.4,1.84-.5,2.553a2.407,2.407,0,0,1-2.413.3,1.788,1.788,0,0,1-1.345-1.845c.009-.3.006-.585-.42-.58s-.386.322-.4.6c0,.141.007.282.011.424h0a3.617,3.617,0,0,1-1.675,1.009,2.3,2.3,0,0,1-2.435-1.512,1.9,1.9,0,0,1,.129-1.37,2.286,2.286,0,0,1,3.743-.329,1.083,1.083,0,0,0,1.639.1,1.121,1.121,0,0,1,1.169-.309l1.133.525c-.238.272-.568.2-.869.23-.835.087-1.388.585-1.357,1.224A1.754,1.754,0,0,0,60.84,64.95a1.335,1.335,0,0,0,1.211-2.022c-.109-.213-.373-.373-.246-.674a2.138,2.138,0,0,1,1.009.313" transform="translate(-15.471 -17.612)" fill="#705225"/>
        <path id="Path_9542" data-name="Path 9542" d="M60.4,60.588a2.166,2.166,0,0,0-1.255.646.949.949,0,0,1-1.464,0c-1.56-1.363-2.164-1.408-3.831-.11A2.659,2.659,0,0,1,55.459,59.4a5.8,5.8,0,0,0,2.278-1.916,5.746,5.746,0,0,0,2.663,3.1" transform="translate(-15.55 -16.6)" fill="#ecadab"/>
        <path id="Path_9543" data-name="Path 9543" d="M63.991,62.707c.9,1.036.983,1.781.26,2.408a1.758,1.758,0,0,1-2.679-.193,1.249,1.249,0,0,1-.321-1.39,1.436,1.436,0,0,1,1.2-.939,8.953,8.953,0,0,1,1.189-.014l.349.128" transform="translate(-17.658 -18.066)" fill="#eaaead"/>
        <path id="Path_9544" data-name="Path 9544" d="M57.7,71.926a.852.852,0,0,1,1.067.689c-.592.135-.979-.045-1.067-.689" transform="translate(-16.663 -20.764)" fill="rgba(112,82,37,0.69)"/>
        <path id="Path_9545" data-name="Path 9545" d="M1.655,50.389c-.414-4.57,4.329-9.707,10.117-9.437,4.371.2,9.529,4.321,9.184,10.254a9.8,9.8,0,0,1-9.947,9.181,9.529,9.529,0,0,1-9.354-10" transform="translate(-0.471 -11.822)" fill="#ece0d0"/>
        <path id="Path_9546" data-name="Path 9546" d="M113.793,50.783c-.213,5.568-4.286,9.632-9.745,9.585-5.6-.048-9.573-4.175-9.666-9.785a9.706,9.706,0,1,1,19.411.2" transform="translate(-27.253 -11.825)" fill="#ece0d0"/>
        <path id="Path_9547" data-name="Path 9547" d="M20.879,11.155c.275,5.3-4.519,9.921-9.743,9.772A9.685,9.685,0,0,1,1.524,10.8,9.585,9.585,0,0,1,11.808,1.513a9.572,9.572,0,0,1,9.07,9.642" transform="translate(-0.44 -0.434)" fill="#ece0d0"/>
        <path id="Path_9548" data-name="Path 9548" d="M104.035,1.51A9.782,9.782,0,0,1,113.791,11a9.72,9.72,0,1,1-9.755-9.488" transform="translate(-27.246 -0.435)" fill="#ece0d0"/>
        <path id="Path_9549" data-name="Path 9549" d="M54.289,29.3c-4.4.108-7.174-1.958-9.436-4.923a10.786,10.786,0,0,1-2.206-5.6,5.6,5.6,0,0,1,2.542-5.329,13.778,13.778,0,0,1,6.472-2.328,7.481,7.481,0,0,0,3.855-1.949,14.023,14.023,0,0,1,5.838-3.308A7.988,7.988,0,0,1,70.127,9.79a10.451,10.451,0,0,1,.7,9.053,12.235,12.235,0,0,1-2.885,4.528,18.18,18.18,0,0,1-5.576,3.941A18.96,18.96,0,0,1,54.289,29.3" transform="translate(-12.306 -1.633)" fill="#ece0d0"/>
        <path id="Path_9550" data-name="Path 9550" d="M59.277,65.087l.3-.385.175.091c-.158.414-.333.822-.469,1.243-.3.941-.2,1.12.7,1.357-.643.335-1.05.117-1.106-.588a7.037,7.037,0,0,1,.405-1.719h0" transform="translate(-17 -18.683)" fill="#705225"/>
        <path id="Path_9551" data-name="Path 9551" d="M60.2,69.984a1.576,1.576,0,0,1,1.33-.326,1.352,1.352,0,0,1-1.33.326" transform="translate(-17.382 -20.105)" fill="#705225"/>
        <path id="Path_9552" data-name="Path 9552" d="M55.926,64.792a1.5,1.5,0,0,1-1.592-1.481,1.439,1.439,0,0,1,1.56-1.418,1.618,1.618,0,0,1,1.7,1.516c-.014.856-.657,1.392-1.664,1.383" transform="translate(-15.689 -17.872)" fill="#e8ada9"/>
        <path id="Path_9553" data-name="Path 9553" d="M63.885,63.545c-.5-.092-.936.165-1.409.179a.974.974,0,0,1,1.409-.179" transform="translate(-18.041 -18.283)" fill="#705225"/>
        <path id="Path_9554" data-name="Path 9554" d="M63.48,64.659a.283.283,0,0,1-.341.282.314.314,0,0,1-.31-.331.309.309,0,0,1,.388-.329.333.333,0,0,1,.263.379" transform="translate(-18.142 -18.56)" fill="#705225"/>
        <path id="Path_9579" data-name="Path 9579" d="M70.282,16.072a4.451,4.451,0,0,1-4.619,4.756c-1.76-.095-2.209.735-2.9,1.871a9.58,9.58,0,0,1-4.294,4.186,5.361,5.361,0,0,1-4.659.07,3.886,3.886,0,0,1-2.288-3.037c-.048-.538-.284-.692-.79-.372a13.16,13.16,0,0,1-1.408.728.687.687,0,0,1-1.008-.3c-.153-.27-.464-.518-.474-.785-.016-.383-.539-.69-.27-.992.3-.339.565.174.863.26.626.181.676-.353.854-.7.247-.486-.179-.4-.42-.464a.622.622,0,0,1-.528-.5,6.171,6.171,0,0,1,.069-2.276c.053-.179.058-.425.337-.415.235.008.312.184.39.383.4,1.01.477.912,1.47.635,1.233-.343,2.441-1.027,3.831-.536.71.251.942-.018.853-.77a4.494,4.494,0,0,1,1.95-3.262.881.881,0,0,1,.824.006c.634.473.844.152,1.1-.419.232-.518.494-1.055,1.231-1.132a1.233,1.233,0,0,0,.932-.813,3.555,3.555,0,0,1,4.926-1.982,5.723,5.723,0,0,1,3.583,3.206,8.334,8.334,0,0,1,.446,2.649" transform="translate(-13.714 -2.854)" fill="#f5c6a5"/>
        <path id="Path_9580" data-name="Path 9580" d="M55.486,62.949a1.134,1.134,0,0,1,1.488.43c-.6-.062-.977-.485-1.488-.43" transform="translate(-16.022 -18.143)" fill="#705225"/>
        <path id="Path_9581" data-name="Path 9581" d="M56.695,64.248c0,.231-.149.3-.325.3s-.329-.059-.329-.275c0-.232.129-.369.356-.351a.334.334,0,0,1,.3.324" transform="translate(-16.182 -18.458)" fill="#705225"/>
        <path id="Path_9597" data-name="Path 9597" d="M61.315,18.726c-.061-.732.336-.936.881-.778.646.188.8.86,1.1,1.373.029.05-.067.249-.139.27-.546.168-1.023-.161-1.536-.245-.413-.068-.273-.422-.3-.62" transform="translate(-17.704 -5.168)" fill="#ece0d0"/>
      </g>
    </g>
    <g id="Group_850" data-name="Group 850" transform="translate(223.267 355.906)">
      <g id="Group_849" data-name="Group 849" clip-path="url(#clip-path-2)">
        <path id="Path_9598" data-name="Path 9598" d="M0,81.447c.329-.352.663-.7.987-1.056a9.384,9.384,0,0,1,4.5-2.918,5.043,5.043,0,0,1,1.186-.089.673.673,0,0,1,.089.642.316.316,0,0,1-.093.131,7.791,7.791,0,0,0-3.342,1.334c-.282.2-.539.434-.82.637a7.042,7.042,0,0,0-.575.554c-1.009.986-.983,1.2.276,2.153.207.16.376.361.573.533a5.344,5.344,0,0,0,1.328.876,2.1,2.1,0,0,0,.845.381,3.61,3.61,0,0,0,1.418.386.643.643,0,0,1,.365.218.639.639,0,0,1-.06.691,6.866,6.866,0,0,1-4.247-1.687A14.385,14.385,0,0,1,0,81.76v-.313" transform="translate(0 -74.672)" fill="#705225"/>
        <path id="Path_9599" data-name="Path 9599" d="M0,50.379c.04-.033.082-.064.12-.1.287-.263.5.059.746.075.282.019.152-.522.53-.525a2.261,2.261,0,0,1,1.2.906.358.358,0,0,1-.133.37.352.352,0,0,1-.477,0c-.214-.17-.342-.237-.445.124-.1.334-.373.4-.658.181-.3-.229-.591-.481-.885-.722v-.313" transform="translate(0 -48.083)" fill="#ee6c6f"/>
        <path id="Path_9600" data-name="Path 9600" d="M190.3,77.989q0-.361,0-.722a6.762,6.762,0,0,1,4.532,1.884,12.434,12.434,0,0,1,1.969,2.047.428.428,0,0,1,.032.6,10.2,10.2,0,0,1-5.254,3.845,3.563,3.563,0,0,1-1.276.159q0-.361,0-.721a.719.719,0,0,1,.557-.228,4.191,4.191,0,0,0,1.24-.349,2.145,2.145,0,0,0,.775-.382,5.327,5.327,0,0,0,1.316-.87c.2-.169.367-.373.576-.532a3.024,3.024,0,0,0,.68-.636c.48-.588.476-.631-.073-1.191-.109-.111-.222-.218-.333-.328a6.955,6.955,0,0,0-.579-.557,7.259,7.259,0,0,0-3.992-1.912.248.248,0,0,1-.17-.107" transform="translate(-183.633 -74.555)" fill="rgba(112,82,37,0.85)"/>
        <path id="Path_9601" data-name="Path 9601" d="M235.5.558a3.719,3.719,0,0,1,.179-.365.353.353,0,0,1,.445-.167.352.352,0,0,1,.249.451,4.224,4.224,0,0,1-.4,1c-.3.461-.579.119-.845-.091-.029.012-.07.015-.08.034-.144.265-.236.652-.658.449-.381-.184-.164-.5-.077-.766.021-.065.056-.126.081-.19.332-.842.378-.858,1.109-.356" transform="translate(-225.958 0)" fill="#ea4345"/>
        <path id="Path_9602" data-name="Path 9602" d="M84.532,1.387c-.635.477-.79.43-1.084-.307-.057-.144-.11-.289-.169-.432-.106-.259-.079-.493.2-.606.26-.107.421.052.519.286.033.079.073.155.113.239.27-.083.43-.529.8-.247A2.629,2.629,0,0,1,85.4,1.7a.389.389,0,0,1-.645.079,2.356,2.356,0,0,1-.224-.391" transform="translate(-80.305 -0.007)" fill="#ee6c6f"/>
        <path id="Path_9603" data-name="Path 9603" d="M306.884,50.358l-.3.2a.353.353,0,0,1-.511-.064.362.362,0,0,1,.055-.552,7.21,7.21,0,0,1,.779-.608c.243-.158.509-.107.591.182.1.363.223.342.486.145a.358.358,0,0,1,.541.125.365.365,0,0,1-.115.505c-.115.1-.24.2-.363.3-.717.566-.776.555-1.168-.225" transform="translate(-295.25 -47.515)" fill="#ea4345"/>
        <path id="Path_9604" data-name="Path 9604" d="M183.534,104.591a4.877,4.877,0,0,1-1.87.488c-.114-.008-.237.015-.315-.1.293-.437.085-.956.232-1.417.093-.2.278-.236.468-.281a2.153,2.153,0,0,0,1.764-2.486,2.118,2.118,0,0,0-2.163-1.835.489.489,0,0,1-.3-.106,3.562,3.562,0,0,1,.315-.85l0-.015a6.263,6.263,0,0,1,3.768,1.536c.176.136.336.292.5.439-.132.438-.474.542-.878.563-.178.009-.438-.016-.419.253.015.21.247.2.417.209a1.187,1.187,0,0,0,1-.294.614.614,0,0,1,.409-.2c1.052.862,1.065,1.08.11,2.016-.119.117-.216.275-.415.275-.332-.08-.322-.355-.354-.611-.02-.161.034-.386-.2-.419-.2-.028-.241.167-.28.313-.065.242-.257.3-.46.357-.136.039-.272.1-.253.277s.158.209.3.243c.269.066.613-.009.709.38-.425.322-.764.787-1.361.827-.3.018-.349-.214-.427-.419-.043-.112-.078-.242-.234-.222s-.2.161-.231.3c-.073.29.135.518.166.784" transform="translate(-174.993 -94.552)" fill="#dedeef"/>
        <path id="Path_9605" data-name="Path 9605" d="M33.086,98.426c-.025.3.125.665-.315.8-.091.175-.278.192-.434.257a2.078,2.078,0,0,0-1.415,1.925,2.133,2.133,0,0,0,1.3,2.165,5.2,5.2,0,0,0,.733.26.324.324,0,0,1,.125.091c0,.377-.008.754,0,1.131.007.232-.065.364-.317.346a1.926,1.926,0,0,1-1.459-.417c-.068-.241.124-.453.075-.694-.031-.152-.043-.322-.232-.35s-.205.138-.253.262c-.074.192-.143.391-.409.376-.6-.037-.934-.51-1.363-.827.072-.337.355-.322.605-.364.17-.029.373-.044.395-.259s-.184-.265-.348-.305a.485.485,0,0,1-.377-.377c-.037-.132-.093-.289-.263-.268-.208.026-.179.22-.2.367-.032.268,0,.569-.353.664-.581-.2-.766-.8-1.182-1.168-.094-.084.017-.182.07-.268a3.064,3.064,0,0,1,.8-.852.7.7,0,0,1,.449.23,1.3,1.3,0,0,0,1.115.247c.124-.01.256-.056.269-.2.018-.181-.133-.227-.273-.24a1.146,1.146,0,0,1-.9-.307.444.444,0,0,1-.135-.269,6.707,6.707,0,0,1,4.271-1.959" transform="translate(-26.414 -94.976)" fill="#f0f0f8"/>
        <path id="Path_9606" data-name="Path 9606" d="M62.134,200.722a.885.885,0,0,0,.2-.721c-.006-.252.012-.512.35-.519a.374.374,0,0,1,.4.436c-.009.269.128.307.349.312.25.006.456.135.446.4-.011.292-.237.4-.509.391a.727.727,0,0,0-.691.241,1.724,1.724,0,0,1-.538-.542" transform="translate(-59.956 -192.491)" fill="#ee6c6f"/>
        <path id="Path_9607" data-name="Path 9607" d="M53.916,154.3a1.167,1.167,0,0,0,1.1.423.335.335,0,0,1,.415.354c-.006.23-.163.345-.408.389a1.566,1.566,0,0,1-1.637-.632,2.236,2.236,0,0,1,.53-.534" transform="translate(-51.515 -148.897)" fill="#ee6c6f"/>
        <path id="Path_9608" data-name="Path 9608" d="M116.37,250.746c.23-.094.27-.287.283-.507a.321.321,0,0,1,.327-.334.356.356,0,0,1,.4.326c.036.32.1.663-.191.922a.792.792,0,0,1-.819-.407" transform="translate(-112.291 -241.146)" fill="#ee6c6f"/>
        <path id="Path_9609" data-name="Path 9609" d="M270.154,201.22a.7.7,0,0,0-.692-.242c-.275.014-.5-.1-.509-.391-.007-.268.2-.4.454-.391.231,0,.353-.049.339-.315a.371.371,0,0,1,.393-.442c.333.007.366.259.362.518a.854.854,0,0,0,.192.724,1.573,1.573,0,0,1-.54.539" transform="translate(-259.526 -192.448)" fill="#ea4446"/>
        <path id="Path_9610" data-name="Path 9610" d="M270.993,154.862a1.547,1.547,0,0,1-1.568.64c-.271-.054-.488-.128-.477-.419a.357.357,0,0,1,.479-.335,1.085,1.085,0,0,0,1.035-.418l.53.533" transform="translate(-259.522 -148.92)" fill="#ea4346"/>
        <path id="Path_9611" data-name="Path 9611" d="M234.894,251.142c-.4-.229-.324-.614-.289-.966a.345.345,0,0,1,.355-.316.333.333,0,0,1,.377.338.492.492,0,0,0,.283.5c-.125.339-.456.339-.725.441" transform="translate(-226.353 -241.103)" fill="#ea4446"/>
        <path id="Path_9612" data-name="Path 9612" d="M125.951,125.912a2.341,2.341,0,0,1-.766-4.516,5.6,5.6,0,0,1,.545-.151l.313.028a.625.625,0,0,1,.072.66c-.12.2-.347.206-.529.292a1.525,1.525,0,0,0-.965,1.4,1.418,1.418,0,0,0,1.056,1.32.794.794,0,0,1,.411.2c.1.281.191.56-.138.763" transform="translate(-119.373 -116.994)" fill="#774b2d"/>
        <path id="Path_9613" data-name="Path 9613" d="M187.666,126.661c.168-.245.066-.522.089-.784l.048-.056a1.143,1.143,0,0,1,.289-.113,1.457,1.457,0,0,0,1.1-1.356,1.522,1.522,0,0,0-1.014-1.379,1.559,1.559,0,0,1-.379-.169l-.044-.06q0-.362,0-.723a2.239,2.239,0,0,1,2.306,1.99,2.31,2.31,0,0,1-1.851,2.594c-.152.027-.3.057-.456.086a.119.119,0,0,0-.092-.03" transform="translate(-181.088 -117.744)" fill="#5f3c23"/>
        <path id="Path_9614" data-name="Path 9614" d="M147.277,145.809a1.543,1.543,0,0,1-1.56-1.574,1.673,1.673,0,0,1,1.56-1.559l.008.007a6.981,6.981,0,0,0,.476,1.586c-.337.455-.277,1.034-.477,1.532Z" transform="translate(-140.61 -137.675)" fill="#603c23"/>
        <path id="Path_9615" data-name="Path 9615" d="M190.03,146.007c.035-.488-.171-1.03.331-1.415a.174.174,0,0,0-.009-.274c-.511-.389-.275-.939-.322-1.428a1.568,1.568,0,0,1,1.237,2.508,1.427,1.427,0,0,1-1.237.611" transform="translate(-183.356 -137.881)" fill="#42281a"/>
      </g>
    </g>
    <g id="Group_854" data-name="Group 854" transform="translate(223.225 327.228)">
      <g id="Group_853" data-name="Group 853" clip-path="url(#clip-path-3)">
        <path id="Path_9647" data-name="Path 9647" d="M99.286,3.054a1.194,1.194,0,0,1-.159-1.36A2.718,2.718,0,0,1,100.964,0h1.162a7.58,7.58,0,0,0,1.353.6,1.707,1.707,0,0,1,.85,2.456l-.054.06c-.53.181-.886-.162-1.2-.471a.719.719,0,0,0-1.091-.085,4.266,4.266,0,0,1-1.533.667,1.511,1.511,0,0,1-1.12-.108l-.049-.063" transform="translate(-95.475)" fill="#705225"/>
        <path id="Path_9648" data-name="Path 9648" d="M71.451,216.5l-6.305.007a1.1,1.1,0,0,1-.248-.676c-.2-1.191-.4-2.382-.592-3.573-.044-.271-.132-.555.093-.8a23.176,23.176,0,0,1,2.624-.979c.159.11.148.309.238.455a1.137,1.137,0,0,0,2.086,0c.09-.146.079-.345.238-.455a21.869,21.869,0,0,1,2.624.98.507.507,0,0,1,.109.488c-.2,1.4-.444,2.793-.684,4.187a.526.526,0,0,1-.182.365" transform="translate(-61.969 -203.008)" fill="rgba(112,82,37,0.85)"/>
        <path id="Path_9649" data-name="Path 9649" d="M266.937,162.9c.2-1.267.41-2.533.607-3.8.064-.411.1-.825.15-1.238a5.415,5.415,0,0,0-.482-1.1,1.2,1.2,0,0,1-.079-1.016,1.276,1.276,0,0,1,1.005-.835c.516-.034.631.432.8.785a7.753,7.753,0,0,1,.29.856c.084-.053.142-.088.2-.126.18-.121.379-.243.58-.09.236.181.08.411-.034.563a4.457,4.457,0,0,0-.68,2.96c.022.861-.009,1.723.011,2.584.008.352-.081.511-.467.49-.631-.034-1.265-.023-1.9-.031" transform="translate(-257.455 -149.4)" fill="#feba8d"/>
        <path id="Path_9650" data-name="Path 9650" d="M2.43,157.693a30.112,30.112,0,0,0,.463,3.247c.08.6.189,1.2.284,1.8-.615.006-1.23-.009-1.844.024-.388.021-.523-.1-.513-.5.026-1.054,0-2.108.011-3.162a3.515,3.515,0,0,0-.551-2.148c-.145-.207-.428-.484-.185-.748.275-.3.533.044.8.171a8.582,8.582,0,0,1,.293-.854c.179-.388.308-.874.9-.779a1.46,1.46,0,0,1,.972,1.187,2.09,2.09,0,0,1-.264.9,2.822,2.822,0,0,0-.371.862" transform="translate(0 -149.237)" fill="#feba8d"/>
        <path id="Path_9651" data-name="Path 9651" d="M107.308,76.282a2.184,2.184,0,0,0-.554-1.127,5.209,5.209,0,0,1-.477-1.2,1.34,1.34,0,0,1-.151-1.25,1.958,1.958,0,0,1,1.281.049c.151.117-.092.247.009.371.277-.021.271-.221.271-.418.366-.552,1.011-.648,1.537-.938a.285.285,0,0,1,.3.06,7.408,7.408,0,0,0,1.58.906,1.442,1.442,0,0,1-.18,1.22c-.281.586-.324,1.288-.9,1.731-.156.12.022.414-.127.594l-.063-.038c-.07-.152-.134-.279-.349-.162a1.786,1.786,0,0,1-1.719.023c-.145-.07-.268-.089-.348.087a.219.219,0,0,1-.1.092" transform="translate(-102.264 -69.199)" fill="#feba8d"/>
        <path id="Path_9652" data-name="Path 9652" d="M144.554,198.182a1.281,1.281,0,1,1-2.562,0q-.005-.2-.01-.393l.045-.008a.237.237,0,0,1,.291,0,1.963,1.963,0,0,0,1.9.031.356.356,0,0,1,.3-.024h.045q-.005.2-.01.4" transform="translate(-136.938 -190.705)" fill="#f3a06f"/>
        <path id="Path_9653" data-name="Path 9653" d="M84.711,86.4a11.425,11.425,0,0,0,.1,1.269c-.619,0-.951-.237-1.028-.736-.066-.433.278-.836.827-.967l-.005.006c.1.127.187.258.1.429" transform="translate(-80.804 -82.915)" fill="#f3a271"/>
        <path id="Path_9654" data-name="Path 9654" d="M243.636,87.7a11.7,11.7,0,0,0,.105-1.27c-.084-.17,0-.3.1-.427l-.008,0a.925.925,0,0,1,.829.967c-.06.485-.411.737-1.026.735" transform="translate(-234.979 -82.946)" fill="#f3a271"/>
        <path id="Path_9655" data-name="Path 9655" d="M112.018,61.155a.644.644,0,0,1-.1.427,1.327,1.327,0,0,1-1.089-.408c-.389-.382-.775-.525-1.247-.122-.282.241-.735.229-.935.606-.074.132-.169.205-.321.109-.4-.214-.869.057-1.263-.184a.649.649,0,0,1-.1-.429,3.331,3.331,0,0,0,2.821-.741.618.618,0,0,1,.973.133,1.418,1.418,0,0,0,1.263.608" transform="translate(-103.155 -58.095)" fill="#f3ac80"/>
        <path id="Path_9656" data-name="Path 9656" d="M295.161,205.522c-.024.114-.092.191-.21.18a.191.191,0,0,1-.184-.206c0-.131.095-.171.209-.168a.168.168,0,0,1,.185.194" transform="translate(-284.296 -198.034)" fill="#ec5b62"/>
        <path id="Path_9657" data-name="Path 9657" d="M310.658,272.016c.011.164-.042.226-.141.233a.2.2,0,0,1-.226-.167.166.166,0,0,1,.175-.2.182.182,0,0,1,.192.138" transform="translate(-299.267 -262.22)" fill="#ed5c63"/>
        <path id="Path_9658" data-name="Path 9658" d="M318.781,217.956a.2.2,0,0,1,.216.179.167.167,0,0,1-.139.184.178.178,0,0,1-.229-.143c-.029-.12.065-.177.152-.221" transform="translate(-307.305 -210.214)" fill="#eb5560"/>
        <path id="Path_9659" data-name="Path 9659" d="M301.214,242.065c-.145-.022-.219-.082-.216-.2a.175.175,0,0,1,.157-.172.182.182,0,0,1,.211.17c.017.126-.085.165-.152.206" transform="translate(-290.305 -233.102)" fill="#eb5460"/>
        <path id="Path_9660" data-name="Path 9660" d="M297.306,173.377c-.114-.031-.139-.128-.121-.237a.147.147,0,0,1,.179-.14c.13.024.152.129.134.236a.155.155,0,0,1-.192.14" transform="translate(-286.623 -166.852)" fill="#ec5861"/>
        <path id="Path_9661" data-name="Path 9661" d="M289.53,330.9c0,.115-.062.2-.181.2a.179.179,0,0,1-.191-.191.174.174,0,0,1,.154-.175c.117-.02.187.053.218.168" transform="translate(-278.887 -318.976)" fill="#eb5460"/>
        <path id="Path_9662" data-name="Path 9662" d="M301.167,352.038a.188.188,0,0,1-.19-.194.174.174,0,0,1,.151-.178.179.179,0,0,1,.216.163c.017.118-.061.185-.177.209" transform="translate(-290.285 -339.171)" fill="#eb5460"/>
        <path id="Path_9663" data-name="Path 9663" d="M309.421,312.86c-.012.092-.061.184-.19.174-.107-.009-.129-.1-.126-.194a.155.155,0,0,1,.159-.169c.1,0,.157.061.157.189" transform="translate(-298.125 -301.564)" fill="#eb5560"/>
        <path id="Path_9664" data-name="Path 9664" d="M294.988,291.576a.189.189,0,0,1-.175.156c-.094.006-.169-.023-.179-.13-.013-.129.056-.187.18-.182a.185.185,0,0,1,.174.155" transform="translate(-284.166 -281.069)" fill="#ec5560"/>
        <path id="Path_9665" data-name="Path 9665" d="M51.129,205.662c-.039.112-.112.193-.23.158a.194.194,0,0,1-.149-.239.156.156,0,0,1,.194-.126.192.192,0,0,1,.185.206" transform="translate(-48.941 -198.155)" fill="#ec5962"/>
        <path id="Path_9666" data-name="Path 9666" d="M36.212,272.076a.2.2,0,0,1-.2.183.146.146,0,0,1-.176-.143.193.193,0,0,1,.217-.226c.089,0,.15.076.159.187" transform="translate(-34.562 -262.23)" fill="#ed5c63"/>
        <path id="Path_9667" data-name="Path 9667" d="M27.861,218.221a.184.184,0,0,1-.2.185.172.172,0,0,1-.173-.154.179.179,0,0,1,.169-.21c.116-.012.181.068.2.179" transform="translate(-26.511 -210.296)" fill="#eb5560"/>
        <path id="Path_9668" data-name="Path 9668" d="M45.132,241.833a.192.192,0,0,1,.179-.207.174.174,0,0,1,.19.138.177.177,0,0,1-.144.231c-.116.027-.19-.048-.225-.162" transform="translate(-43.529 -233.042)" fill="#eb525f"/>
        <path id="Path_9669" data-name="Path 9669" d="M50.719,173.232c-.008.1-.057.173-.154.174-.128,0-.172-.094-.168-.209,0-.1.053-.171.152-.172.13,0,.171.092.169.208" transform="translate(-48.607 -166.878)" fill="#ec5861"/>
        <path id="Path_9670" data-name="Path 9670" d="M57.447,330.9c-.029.146-.094.224-.213.21a.185.185,0,0,1,.01-.369c.126,0,.16.1.2.159" transform="translate(-55.04 -318.991)" fill="#eb5460"/>
        <path id="Path_9671" data-name="Path 9671" d="M45.651,351.816c-.018.115-.078.19-.2.186a.176.176,0,0,1-.172-.158.178.178,0,0,1,.17-.21c.12-.013.181.069.2.183" transform="translate(-43.669 -339.141)" fill="#eb5460"/>
        <path id="Path_9672" data-name="Path 9672" d="M52.56,291.747c-.093-.023-.167-.073-.151-.176a.163.163,0,0,1,.2-.133.145.145,0,0,1,.143.178c-.011.114-.092.134-.187.131" transform="translate(-50.545 -281.084)" fill="#ea4c5c"/>
        <path id="Path_9673" data-name="Path 9673" d="M38.911,312.8c-.011.13-.072.211-.157.206a.176.176,0,0,1-.156-.221.145.145,0,0,1,.179-.134.149.149,0,0,1,.134.15" transform="translate(-37.225 -301.543)" fill="#eb505e"/>
        <path id="Path_9674" data-name="Path 9674" d="M145.356,185.694a2.145,2.145,0,0,1-2.493-.005c-.005-.1-.016-.209-.013-.313a.849.849,0,0,1,.057-.184,1.993,1.993,0,0,0,2.393.009.723.723,0,0,1,.056.493" transform="translate(-137.775 -178.614)" fill="#eb915d"/>
        <path id="Path_9675" data-name="Path 9675" d="M159.454,136.273a.592.592,0,0,1,.581.416c.062.136.089.275-.059.371s-.227-.012-.293-.119c-.2-.328-.416-.344-.638-.023-.07.1-.127.23-.279.162-.175-.079-.114-.219-.072-.358.1-.346.363-.439.76-.449" transform="translate(-153.014 -131.429)" fill="rgba(112,82,37,0.5)"/>
        <path id="Path_9676" data-name="Path 9676" d="M198.746,101.575c-.193-.049-.428-.1-.494-.354a.15.15,0,0,1,.2-.166c.2.071.472.059.546.321.046.163-.09.2-.253.2" transform="translate(-191.205 -97.457)" fill="rgba(112,82,37,0.69)"/>
        <path id="Path_9677" data-name="Path 9677" d="M137.169,100.443l.321-.108c.183.162.131.305-.045.424-.147.1-.361.22-.482.1-.255-.255.024-.329.207-.415" transform="translate(-131.998 -96.771)" fill="rgba(112,82,37,0.69)"/>
      </g>
    </g>
    <g id="Group_856" data-name="Group 856" transform="translate(289.413 327.267)">
      <g id="Group_855" data-name="Group 855" transform="translate(0 0)" clip-path="url(#clip-path-4)">
        <path id="Path_9678" data-name="Path 9678" d="M12.771,21.738a11.462,11.462,0,0,0-.061-1.452,3.734,3.734,0,0,0-.7-1.8c-.1-.134-.084-.2.061-.26a4.7,4.7,0,0,1,2.889-.387,1.05,1.05,0,0,1,.678.482,6.573,6.573,0,0,1,.915,3.126c.04.473.039.949.059,1.423a.436.436,0,0,0,.432.466.421.421,0,0,0,.444-.425,9.152,9.152,0,0,0-.734-4.343,1.769,1.769,0,0,0-.152-.288c-.171-.22-.069-.324.146-.405a1.788,1.788,0,0,1,1.889.317,4.159,4.159,0,0,1,1.386,2.493,5.555,5.555,0,0,1-.626,4.012,3.617,3.617,0,0,1-6.59-1.5c-.053-.484-.02-.969-.033-1.453" transform="translate(-8.973 -13.323)" fill="rgba(112,82,37,0.85)"/>
        <path id="Path_9679" data-name="Path 9679" d="M11.872,6.94A6.583,6.583,0,0,0,11.2,5.33c-.044-.072-.047-.125.026-.175.049-.034.094-.072.141-.109.435-.343.439-.349-.055-.631A9.667,9.667,0,0,0,6.343,3.242,9.718,9.718,0,0,0,1.873,4.265c-.193.1-.373.224-.563.33-.154.086-.132.161-.006.254.254.189.491.4.76.568A1.3,1.3,0,0,1,2.6,6.1a5.114,5.114,0,0,1,.316,1.891c0,.433,0,.867,0,1.366-.113-.1-.185-.158-.249-.223A12.732,12.732,0,0,1,.03,4.87a.33.33,0,0,1,.016-.307,16.358,16.358,0,0,1,2.309-3.37,6.946,6.946,0,0,1,.7-.642A2.248,2.248,0,0,1,5.712.333a3.063,3.063,0,0,1,.891.682c.115.129.176.122.293,0A3.2,3.2,0,0,1,8.538.058a1.922,1.922,0,0,1,1.724.4,6.438,6.438,0,0,1,1.384,1.654,15.882,15.882,0,0,1,1.2,2.38.415.415,0,0,1,.042.339,13.514,13.514,0,0,1-1.02,2.107" transform="translate(0 0)" fill="rgba(112,82,37,0.85)"/>
      </g>
    </g>
    <g id="Group_858" data-name="Group 858" transform="translate(290.835 353.398)">
      <g id="Group_857" data-name="Group 857" transform="translate(0 0)" clip-path="url(#clip-path-5)">
        <path id="Path_9680" data-name="Path 9680" d="M10.158,4.648l.089.235a1.049,1.049,0,0,1-.018.707c-.567.375-.745,1.057-1.191,1.523a4.44,4.44,0,0,1-3.091,1.31,4.979,4.979,0,0,1-2.375-.449A3.132,3.132,0,0,1,1.805,6.213a.549.549,0,0,0-.116-.183c-.381-.281-.7-.593-.533-1.132a.511.511,0,0,1,.089-.331.778.778,0,0,1,.544-.39c.223-.03.33-.22.46-.372A4.538,4.538,0,0,1,5.212,2.351a1.109,1.109,0,0,1,.515.036c.524.546.635.573,1.147.269a.586.586,0,0,1,.269-.149A4,4,0,0,1,9.332,3.991a.588.588,0,0,0,.349.247.721.721,0,0,1,.477.41" transform="translate(-0.706 -1.485)" fill="#f4c9a4"/>
        <path id="Path_9681" data-name="Path 9681" d="M.451,9.334a1.072,1.072,0,0,0,.619,1.05,7.89,7.89,0,0,1-.105,1.592,2.693,2.693,0,0,0,.028.948c.054.165-.073.225-.173.309-.367.311-.391.43-.188.856a1.856,1.856,0,0,0,.4.613,1.051,1.051,0,0,1,.286.493c.071.321-.289.559-.168.89a8.057,8.057,0,0,1,.264,1.233c.031.215.138.217.284.229A5.408,5.408,0,0,0,4.024,21.5a2.209,2.209,0,0,0,2.506-.012,5.883,5.883,0,0,0,2.046-2.707,15.311,15.311,0,0,0,1.066-5.443c.009-.171-.208.012-.163-.143a6.217,6.217,0,0,0-.12-2.705.731.731,0,0,1,.078-.463,2.517,2.517,0,0,0,.105-.708,7.82,7.82,0,0,1,.431,2.547,17.926,17.926,0,0,1-.363,4.972A9.712,9.712,0,0,1,7.1,21.954a2.815,2.815,0,0,1-2.821.823A4.1,4.1,0,0,1,2.11,21.046,12.645,12.645,0,0,1,.192,15.7a19.637,19.637,0,0,1-.16-4.038,6.924,6.924,0,0,1,.419-2.33" transform="translate(0 -5.92)" fill="rgba(112,82,37,0.85)"/>
        <path id="Path_9682" data-name="Path 9682" d="M6.021.983A4.162,4.162,0,0,0,2.35,2.7c-.046.066-.091.124-.165.11-.294-.055-.479.157-.705.27A4.226,4.226,0,0,1,5.635,0,4.963,4.963,0,0,1,8.816.8a3.987,3.987,0,0,1,1.576,2.362A1.2,1.2,0,0,0,9.8,2.825a.326.326,0,0,1-.222-.115A4.309,4.309,0,0,0,7.33,1.069c-.092-.123,0-.251-.012-.376A.424.424,0,0,0,6.84.306c-.2.062-.214.187-.082.347C6.678.617,6.644.516,6.734.4a.253.253,0,0,1,.351-.05.469.469,0,0,1,0,.8A2.084,2.084,0,0,1,6.021.983" transform="translate(-0.94 0)" fill="rgba(112,82,37,0.85)"/>
        <path id="Path_9683" data-name="Path 9683" d="M10.78,11.26q.138.975.276,1.949a3.374,3.374,0,0,1-.174,1.3c.072.076.032.146-.012.215a3.8,3.8,0,0,0-.369.679.714.714,0,0,1-.071.112A4.025,4.025,0,0,1,6.2,17.277a3.693,3.693,0,0,0-1.469.039.746.746,0,0,1-.426.042c-.236-.108-.12-.486-.419-.545a.643.643,0,0,0-.622.193c-.075.069-.138.165-.264.133-.164-.121-.32-.248-.293-.485a1.9,1.9,0,0,1,.933-.675,14.28,14.28,0,0,1,2.989-.549,4.711,4.711,0,0,0,3.381-2.024c.018-.065-.094-.021-.036-.022.022,0,.026.014.01.042a3.837,3.837,0,0,1-2.125,1.636,7.935,7.935,0,0,1-2.174.415,5.063,5.063,0,0,0-2.835.972c-.093.075-.17.108-.255,0l-.268-.454c-.064-.4.161-.777.126-1.192-.012-.136.277-.133.4.057.071.113,0,.261.092.369.151.035.279-.137.4-.063a1.371,1.371,0,0,0-1.012-.917c-.323-.1-.179-.37-.167-.547a9.6,9.6,0,0,1,.255-2.084,8.964,8.964,0,0,0,.716,1.148,4.251,4.251,0,0,0,2.656,1.194A4.663,4.663,0,0,0,8.7,13.39a2.72,2.72,0,0,0,1.324-1.356c.143-.383.477-.543.756-.774" transform="translate(-1.345 -7.153)" fill="rgba(254,245,237,0.65)"/>
        <path id="Path_9684" data-name="Path 9684" d="M11.209,14.428a.655.655,0,0,1,.166-.823,1.192,1.192,0,0,1,1.31-.059.632.632,0,0,1,.25.83c-.137.028-.2-.075-.3-.168.124.229.218.44-.072.593a1.053,1.053,0,0,1-1.013-.061.294.294,0,0,1-.1-.437c-.092.019-.11.185-.243.124" transform="translate(-7.069 -8.499)" fill="rgba(112,82,37,0.69)"/>
        <path id="Path_9685" data-name="Path 9685" d="M12.738,15.784c.3-.309-.253-.439-.158-.713.253.023.317.276.495.381-.044.465-.274.735-.658.771a.842.842,0,0,1-1.068-.719c.141-.135.211-.35.457-.4.1.241-.416.362-.124.622a.752.752,0,0,0,1.057.058" transform="translate(-7.21 -9.574)" fill="#f3f3f1"/>
        <path id="Path_9686" data-name="Path 9686" d="M9.235,11.235l-.127.222a.584.584,0,0,1-.8.024l0,0c-.078-.175-.249-.318-.194-.541a.266.266,0,0,1,.24-.053.649.649,0,0,1,.118.054c.1.049.2.182.295.027.086-.14.006-.247-.132-.312a.216.216,0,0,1-.1-.083c-.031-.183.091-.273.219-.36a.252.252,0,0,1,.2.035.406.406,0,0,1,.282.509,1.7,1.7,0,0,0,0,.476" transform="translate(-5.149 -6.486)" fill="#006292"/>
        <path id="Path_9687" data-name="Path 9687" d="M16.3,11.431c-.074-.041-.071-.115-.08-.184a1.913,1.913,0,0,1,.015-.8l0,0c.214-.157.426-.346.658-.026a.242.242,0,0,1-.013.124.3.3,0,0,1-.057.065c-.128.1-.283.226-.156.392.156.206.261-.078.4-.089a.241.241,0,0,1,.247.068.658.658,0,0,1,0,.28l-.272.319a.572.572,0,0,1-.739-.156" transform="translate(-10.282 -6.514)" fill="#006395"/>
        <path id="Path_9688" data-name="Path 9688" d="M16.99,10.21a.728.728,0,0,0-.676.038.791.791,0,0,1,1.312.064.669.669,0,0,0,.354.333l-.328.248-.052-.387-.205.556-.04-.279a.6.6,0,0,0-.364-.572" transform="translate(-10.364 -6.308)" fill="#252627"/>
        <path id="Path_9689" data-name="Path 9689" d="M13.934,2.666a7.131,7.131,0,0,1,1.139.087c.058.073.026.143,0,.214-.59.328-1,.218-1.134-.3" transform="translate(-8.852 -1.684)" fill="#f1ceac"/>
        <path id="Path_9690" data-name="Path 9690" d="M19.818,14.079a.567.567,0,0,1-.493.3.236.236,0,0,1-.237-.291c.043-.263.283-.274.5-.275.144,0,.244.072.236.27" transform="translate(-12.124 -8.773)" fill="#eb9170"/>
        <path id="Path_9691" data-name="Path 9691" d="M15.972,1.679c0-.071,0-.143.005-.214.111-.248.188-.491-.113-.667a.215.215,0,0,0-.279.025.162.162,0,0,0-.023.152c.1.114.127-.037.193-.062.027-.01.1.025.1.042a.3.3,0,0,1-.035.159.222.222,0,0,1-.267.09.247.247,0,0,1-.193-.21.273.273,0,0,1,.113-.3.478.478,0,0,1,.71.3,1.431,1.431,0,0,1-.039.472l-.175.214" transform="translate(-9.756 -0.395)" fill="#705225"/>
        <path id="Path_9692" data-name="Path 9692" d="M6.737,14.44c-.165-.053-.4-.065-.4-.33,0-.183.173-.211.322-.194a.4.4,0,0,1,.4.366c.008.16-.17.156-.322.158" transform="translate(-4.025 -8.838)" fill="#ec8e6f"/>
        <path id="Path_9693" data-name="Path 9693" d="M7.948,10.053l-.157.022c-.207.121-.43.214-.629.348-.253.036-.251.237-.264.43l-.308-.2c.435-.355.715-1.072,1.48-.609a.072.072,0,0,1-.121.015" transform="translate(-4.186 -6.282)" fill="#292723"/>
        <path id="Path_9694" data-name="Path 9694" d="M8,10.749c.079-.352.374-.314.629-.348.049.158-.274.126-.16.317.081.194-.023.287-.19.346l-.24.022c-.089-.032-.154-.079-.12-.189L8,10.749" transform="translate(-5.025 -6.608)" fill="#dbe3e7"/>
        <path id="Path_9695" data-name="Path 9695" d="M10.314,10.316l.121-.015c.509.24.2.648.2.992-.113-.143-.032-.3-.031-.452a.569.569,0,0,0-.294-.526" transform="translate(-6.552 -6.544)" fill="#1b2434"/>
        <path id="Path_9696" data-name="Path 9696" d="M8.654,13.653a1.046,1.046,0,0,0,.8-.024c-.353.341-.527.346-.8.024" transform="translate(-5.498 -8.658)" fill="#2b353c"/>
        <path id="Path_9697" data-name="Path 9697" d="M18.373,8.582c.38-.235.566-.12.71.139-.175-.194-.418-.085-.71-.139" transform="translate(-11.672 -5.371)" fill="#7e442b"/>
        <path id="Path_9698" data-name="Path 9698" d="M7.1,8.683c.167-.255.36-.377.671-.135-.247.09-.5-.051-.671.135" transform="translate(-4.514 -5.347)" fill="#894a30"/>
        <path id="Path_9699" data-name="Path 9699" d="M16.5,13.482a.991.991,0,0,0,.739.156c-.319.292-.547.152-.739-.156" transform="translate(-10.484 -8.565)" fill="#3c3b3f"/>
        <path id="Path_9700" data-name="Path 9700" d="M7.906,11.759l.12.188c-.061.2.154.331.147.52a.657.657,0,0,1-.267-.708" transform="translate(-5.012 -7.47)" fill="#0a1e28"/>
        <path id="Path_9701" data-name="Path 9701" d="M16.109,10.8q-.007.4-.015.8c-.055-.267-.221-.535.015-.8" transform="translate(-10.156 -6.858)" fill="#092231"/>
        <path id="Path_9702" data-name="Path 9702" d="M12.12,20.165a.187.187,0,0,0,.1-.174c.07-.031.173-.253.179.046a16.939,16.939,0,0,1-.2,2.5,11.825,11.825,0,0,1-1.039,3.431,4.912,4.912,0,0,1-2.15,2.474A2.383,2.383,0,0,1,6.214,28a7.419,7.419,0,0,1-1.971-3.207c-.077-.214.137-.344.119-.533-.094-.122-.019-.22.043-.321a2.87,2.87,0,0,1,3-1.2,5.053,5.053,0,0,0,2.154-.052,3.911,3.911,0,0,0,2.224-1.832l0,.005a2.4,2.4,0,0,0,.336-.691" transform="translate(-2.685 -12.631)" fill="rgba(254,245,237,0.65)"/>
        <path id="Path_9703" data-name="Path 9703" d="M2.937,19.888c.042,0,.1.021.125,0,1-.954,2.287-1.013,3.551-1.159a4.7,4.7,0,0,0,3.78-2.054.839.839,0,0,1-.293.686,5.03,5.03,0,0,1-3.085,1.628,16.576,16.576,0,0,0-2.776.449,1.691,1.691,0,0,0-1.115.753c-.146.166-.16.422-.372.543-.191-.133-.019-.255.019-.372.052-.159.21-.28.166-.474" transform="translate(-1.692 -10.593)" fill="rgba(112,82,37,0.85)"/>
        <path id="Path_9704" data-name="Path 9704" d="M1.646,19.436c.6-.062.826.148,1.142,1.075-.284-.211-.435.128-.674.119-.108-.149,0-.3,0-.451a.184.184,0,0,0-.132-.2.223.223,0,0,0-.158.036c-.086.062-.069.143-.021.229.149.267.336.536-.15.678-.15.044.029.173-.012.26a1.565,1.565,0,0,1-.579-.989c-.1-.41.272-.59.584-.756" transform="translate(-0.665 -12.341)" fill="rgba(112,82,37,0.85)"/>
        <path id="Path_9705" data-name="Path 9705" d="M2.906,26.86a.773.773,0,0,1,.372-.543l.248.376c.226.109.341.348.563.47.158.087.1.223-.015.323a2.491,2.491,0,0,0-.468.623l-.082.235c-.174.087-.31.146-.353-.148C3.1,27.747,3,27.3,2.906,26.86" transform="translate(-1.846 -16.719)" fill="#fef5ed"/>
        <path id="Path_9706" data-name="Path 9706" d="M4.686,25.709c.023-.354.33-.525.528-.817a1.036,1.036,0,0,1-.608-.6l.168-.171c.077.051.092.143.137.214.2.324.359.342.744.09a.168.168,0,0,1,.173.034,6.981,6.981,0,0,1,2.589-.09,3.675,3.675,0,0,0,3.456-1.7.8.8,0,0,1,.156-.134,3.425,3.425,0,0,1-2.487,2.012A5.3,5.3,0,0,1,7.6,24.529a2.672,2.672,0,0,0-2.836,1.145c-.013.019-.05.023-.075.034" transform="translate(-2.926 -14.319)" fill="rgba(112,82,37,0.85)"/>
        <path id="Path_9707" data-name="Path 9707" d="M5.963,26.747c-.079.278-.3.311-.521.254a.507.507,0,0,1-.381-.6c.154-.281.427-.265.689-.275.2.163.447.309.212.621" transform="translate(-3.213 -16.598)" fill="rgba(112,82,37,0.85)"/>
        <path id="Path_9708" data-name="Path 9708" d="M25.284,20.657a.882.882,0,0,1-.336.691,1.732,1.732,0,0,1,.336-.691" transform="translate(-15.849 -13.123)" fill="rgba(112,82,37,0.85)"/>
        <path id="Path_9709" data-name="Path 9709" d="M7.169,26.747c.123-.273-.1-.428-.212-.621.358.064.336.353.364.613l-.152.008" transform="translate(-4.42 -16.598)" fill="rgba(112,82,37,0.69)"/>
        <path id="Path_9710" data-name="Path 9710" d="M13.254,14.655c.15,0,.26.052.26.217,0,.14-.1.2-.228.208s-.272-.028-.281-.2.1-.224.25-.229" transform="translate(-8.261 -9.31)" fill="#ece0d0"/>
        <path id="Path_9711" data-name="Path 9711" d="M13.318,16.926c-.42.395-.779.375-1.057-.058a1.378,1.378,0,0,0,1.057.058" transform="translate(-7.789 -10.716)" fill="#f1c8a0"/>
        <path id="Path_9712" data-name="Path 9712" d="M8.922,11.577c.072-.11.182-.2.19-.346.189-.057.316-.005.323.208.005.15.055.342-.141.407-.222.073-.288-.122-.372-.268" transform="translate(-5.668 -7.121)" fill="#0d1215"/>
        <path id="Path_9713" data-name="Path 9713" d="M17.582,11.54c-.085.143-.143.338-.372.259-.142-.049-.151-.186-.159-.32-.015-.242.111-.336.334-.336a.417.417,0,0,1,.2.4" transform="translate(-10.832 -7.079)" fill="#0c1318"/>
        <path id="Path_9714" data-name="Path 9714" d="M18.163,11.258c-.087-.122-.214-.224-.2-.4l.072-.161c.412-.012.54.189.365.571l-.24-.013" transform="translate(-11.412 -6.797)" fill="#eaedec"/>
      </g>
    </g>
  </g>
</svg>
