<svg id="Group_1299" data-name="Group 1299" xmlns="http://www.w3.org/2000/svg" xmlns:xlink="http://www.w3.org/1999/xlink" width="97" height="102" viewBox="0 0 97 102">
  <defs>
    <clipPath id="clip-path">
      <rect id="Rectangle_1864" data-name="Rectangle 1864" width="97" height="102" fill="none"/>
    </clipPath>
  </defs>
  <g id="Group_1000" data-name="Group 1000" transform="translate(0 0)" clip-path="url(#clip-path)">
    <path id="Path_11924" data-name="Path 11924" d="M51.115,4.13c.827.854,2.011.709,3.031.907a45.562,45.562,0,0,1,8.7,2.777A49.8,49.8,0,0,1,73.96,14.269,46.03,46.03,0,0,1,80.9,21.058a49.338,49.338,0,0,1,4.185,5.551,48.268,48.268,0,0,1,4.441,9.33c.732,1.966,1.055,4.017,1.708,6a17.9,17.9,0,0,1,.616,4.478,45.015,45.015,0,0,1-.592,12.911,48.843,48.843,0,0,1-4.406,12.352,47.687,47.687,0,0,1-9.5,12.484,43.184,43.184,0,0,1-10.305,7.414c-1.707.837-3.479,1.6-5.105,2.6a.6.6,0,0,1-.59.037.646.646,0,0,1-.247-.555,23.868,23.868,0,0,1,.927-5.266,1.074,1.074,0,0,1,.838-.275,11.467,11.467,0,0,0,3.57.431,6.5,6.5,0,0,0,4.148-1.3c.2-.173.381-.358.562-.547a3.525,3.525,0,0,1,.29-.291,9.011,9.011,0,0,0,2.119-5.48,31.963,31.963,0,0,0-.623-10.065c-.391-2.759-1.059-5.471-1.535-8.214-.1-.38-.141-.775-.273-1.15a23.748,23.748,0,0,0-3.263-8.144,4.461,4.461,0,0,0-.853-1.1c-.284-.289-.579-.569-.88-.842-.877-1.085-2.246-1.54-3.305-2.392-.112-.5.208-.779.581-1.025.472-.054.726.37,1.131.441-.519-.093-.938-.917-1.568-.153a1.22,1.22,0,0,1-.4.387,1.192,1.192,0,0,1-1.1-.351,2.713,2.713,0,0,1-.556-2.4c.147-.186.4-.309.4-.589.071-.155-.175-.108-.014-.044.044.018.008.149-.034.225a.908.908,0,0,1-.247.271c-.312-.029-.4-.263-.5-.495-.488-.8-.289-1.713-.444-2.568a18.112,18.112,0,0,0-4.415-8.827,3.309,3.309,0,0,1-.848-1.1,1.1,1.1,0,0,1,.091-.779,5.006,5.006,0,0,0,1.461-6.06,2,2,0,0,1-.088-.749,21.758,21.758,0,0,1,.5-2.349c1.085-5.31-.9-9.521-5.081-12.862-1.026-.819-1.485-1.6-.943-2.789.452-.993-.105-2.085.35-3.073" transform="translate(4.96 0.245)" fill="#deeafa"/>
    <path id="Path_11925" data-name="Path 11925" d="M64.542,86.09l-.814,5.829a30.819,30.819,0,0,1-6.266,1.8c-.29-.262-.661-.1-.986-.175.318.093.69-.083.975.177a5.3,5.3,0,0,1-2.316.51c-2.113.388-4.28.354-6.388.773-1.817.4-3.662.054-5.49.194a38.146,38.146,0,0,1-5.031-.532L36.374,94.2a8.123,8.123,0,0,0-2.153-.469,32.953,32.953,0,0,1-7.84-2.557,12.5,12.5,0,0,0,.93-5.876,4.553,4.553,0,0,1,3.766-1.367c.67.744.711,1.786,1.3,2.567.244.321.417.856.942.68.421-.142.3-.642.345-1.005.166-1.231-.57-2.36-.434-3.588a2.14,2.14,0,0,1,.734-.98,1.942,1.942,0,0,0,.606-2.125,3.592,3.592,0,0,1-.1-.724c-.107-1.188-.574-2.313-.669-3.5.256-.728.482-1.438-.786-1.325-.77-.217-1.658-.063-2.3-.685a5.836,5.836,0,0,1-.9-3.047,2.014,2.014,0,0,1,.324-.676c.187-.3.178-.305-.168-.479a.5.5,0,0,1-.111-.066,1.283,1.283,0,0,1-.18-1.629c.369-.667-.25-2.02,1.266-1.906,1.048.078,1.477-.244,1.25-1.267-.519.234-.785,1.093-1.6.638-.4-.879.814-1.076.807-1.789a11.717,11.717,0,0,0,2.47-6.126,16.8,16.8,0,0,0-.438-5.87,2.562,2.562,0,0,1-.147-.991c.283-.7,1.018-1.22.8-2.124-.1-.4.342-.474.667-.574a5.838,5.838,0,0,0-.895.28.781.781,0,0,1-.505-.252.764.764,0,0,1-.007-1.056,1.134,1.134,0,0,1,.879-.328,9.3,9.3,0,0,1,2.632.76c.24.124.29-.129.215.023-.01.018-.044-.008-.118-.024-1.022-.228-.513-.835-.363-1.356A1.055,1.055,0,0,1,37.279,45c.922-.03,1.2.525,1.263,1.283a1.823,1.823,0,0,1-.182,1.086c-.51.756-.04,1.031.6,1.248a1.98,1.98,0,0,1,.546.458c.494.436.891.959,1.352,1.426,3.659,3.322,9.108,2.868,12.6-1.053.365-.41.641-.912,1.231-1.09a1.1,1.1,0,0,1,.409-.007,1.673,1.673,0,0,1,.919.782,1.3,1.3,0,0,1,.537,1.566,16.052,16.052,0,0,0-.344,4.664c0,1.812.007,1.812,1.825,1.827a4.716,4.716,0,0,1,.6,2.162c.232,2.12.844,4.181,1,6.31a11.73,11.73,0,0,1-.121,1.852.915.915,0,0,1-.192.329,1.612,1.612,0,0,1-1.079.065c-.267,1.55.921,1.574,2.005,1.718a4.9,4.9,0,0,1,.678,2.827c.2.874-.781,1.456-.62,2.311.118-.433-.077-1.355.882-.531a1.379,1.379,0,0,1,.155.333,7.52,7.52,0,0,0,.955,3.265,13.834,13.834,0,0,1,1.182,2.416c.264.416.338.168.4-.113a18.754,18.754,0,0,0-1.086-3.472,7.239,7.239,0,0,1-.454-1.948A2.251,2.251,0,0,0,61.86,72.9a4.124,4.124,0,0,1-.4-2.9,2.21,2.21,0,0,0,.307-1.444c.007-1.507,0-3.014,0-4.521,0-1.724,0-1.724-1.755-2.1a.9.9,0,0,1-.518-.69,128.507,128.507,0,0,1-1.923-13.25,2.048,2.048,0,0,0,.005-.492c-.111-.519.417-1.112-.292-1.6-.217-.148.141-.588.374-.835a6.544,6.544,0,0,1,3.031-1.345c.606-.036.838.5,1.275.75-.032-.41-.6-.688-.354-1.178.434-.515.909-.835,1.56-.3.034.193.027.4.256.506l-.007,0a7.526,7.526,0,0,0,.607,2.49c.691.592-.27.793-.305,1.215-.9,1.081-.684,1.735.736,2.24.772.978.838,2.2,1.207,3.313a63.59,63.59,0,0,1,2.078,6.793,3.545,3.545,0,0,1-.353,2.633,1.928,1.928,0,0,1-.268.42c-.426.369-.425.369.169.735.465-.484-.4-1.519.748-1.715,1,.81,1.095,1.973,1.3,3.092a4.167,4.167,0,0,1-.362,1.447,3.387,3.387,0,0,0,1.688,3.513c.834.771.785,1.839,1.021,2.811.111.731-.391,1.263-.635,1.885-.187.477-.379,1.045.659.755,1.209-.339,2.062.745,3.151.76a6.3,6.3,0,0,1-.255-.753c-.048-.375-.179-.748.06-1.1.412-.4.225-.871.184-1.315-.1.153.092.252.055.388-.027.292.079.6-.167.85a5.651,5.651,0,0,1-1.032.946c-.559.307-1.088.428-1.221-.433a2.555,2.555,0,0,0-.08-2.034,3.918,3.918,0,0,1-.433-2.524,2.4,2.4,0,0,0,.365-1.677c-.018-.307.257-.961-.572-.448-.267.164-.432-.32-.54-.575-.194-.453-.189-1-.67-1.319A24.9,24.9,0,0,1,68.92,60.8a1.874,1.874,0,0,1,.837-1.611c.2-.13.625,0,.482-.481-.1-.354-.258-.68-.656-.667-1.008.033-1.4-.688-1.871-1.326-.787-2.329-2-4.543-2.038-7.073.109-.191.336-.272.468-.429a1.647,1.647,0,0,1,2.648-.2q.374.378.747.759a.245.245,0,0,1,.082.2c-.008.073-.02.11-.035.11-.751.176-.751.176-.475.823.462.381.8-.5,1.256-.119a19.763,19.763,0,0,1,3.411,8.373c-.2,1.321-.85,2.605-.36,3.955.03.2.169-.055.016.029-.058.032-.094.005-.093-.082a14.471,14.471,0,0,0-.1-1.756A.966.966,0,0,1,74,60.187a53.066,53.066,0,0,1,1.595,8.322,11.563,11.563,0,0,1-.115,5.319c-.131,1.2.044,2.4-.032,3.07.02-.592-.023-1.719,0-2.845.179-.462.032-1.017.567-1.394.345,4.159.444,8.275-2.272,11.922l0,0c-.383.106-.808-.115-1.172.143a.772.772,0,0,1-.675-.092c-.086-.7-.443-.18-.638-.1-.385.162-.329.558-.38.879-.085.54-.269.979-.924,1.038a8.5,8.5,0,0,1-.891-.216c-.005,0-.03.039-.045.06.172-.032-.038.221.079.1a.163.163,0,0,1-.111.2,5.915,5.915,0,0,1-3.668-.547c-.266-.132-.534-.308-.779.033" transform="translate(2.589 2.536)" fill="#365997"/>
    <path id="Path_11926" data-name="Path 11926" d="M39.752,47.564l-.519.261a5.641,5.641,0,0,1-2.443.729.856.856,0,0,0-.73.239c-.211.243-.573.283-.768.545-.081.792.523,1.363.707,2.068a1.045,1.045,0,0,1,.02.542c-.312.507.309.943.12,1.441-.265.181-.5.067-.739-.059a21.217,21.217,0,0,1-1.658-3.308c.167-.725.112-1.321-.866-1.385a17.334,17.334,0,0,0-3.6-3.28c-2.734-1.655-5.563-2.214-8.543-.6a7.319,7.319,0,0,0-3.164,3.285c-2.116,4.341-1.6,8.612.485,12.788a10.989,10.989,0,0,0,3.842,4.7.48.48,0,0,1,.2.661,5.028,5.028,0,0,0-.831,2.234c-.861,4.674-2.157,9.267-2.8,13.984a2.075,2.075,0,0,1-.206.6c-.415.672-.143,1.46-.392,2.157-.149.416-.072.916-.485,1.235a.476.476,0,0,1-.521-.513c-.086-.207-.175-.086-.264,0a33.726,33.726,0,0,1-5.951-5.921,44.788,44.788,0,0,1-5.976-9.223c-.9-2.034-1.744-4.086-2.461-6.17A30.646,30.646,0,0,1,.3,55.594a49.133,49.133,0,0,1-.275-5.038,56,56,0,0,1,.321-5.664,71.245,71.245,0,0,1,2.071-8.633,39.863,39.863,0,0,1,4.65-9.882,37.771,37.771,0,0,1,5.915-7.459,65.041,65.041,0,0,1,7.159-6.073A45.426,45.426,0,0,1,31.8,6.89a40.55,40.55,0,0,1,7.508-1.981,1.825,1.825,0,0,0,1.734-1.5,7.492,7.492,0,0,1,.5,3.407c.034.528-.56.686-.984.894a13.136,13.136,0,0,0-5.751,4.95,9.45,9.45,0,0,0-.6,1.1c-.046.109-.1.214-.157.319a7.566,7.566,0,0,0-.683,2.219c-.4,2.309-1.172,4.573-.664,6.977a3.881,3.881,0,0,0,1.4,2.608.942.942,0,0,1,.491,1.076c-1.5.913-1.781,2.842-.657,4.579a3.487,3.487,0,0,0,.937,1.052,4.87,4.87,0,0,1,2.2,3.975,10.487,10.487,0,0,0,5.67,7.8,1.518,1.518,0,0,1,.67.591,2.369,2.369,0,0,1-2.666,2.576c-.338-.043-.667-.209-.992.029" transform="translate(0 0.203)" fill="#deeafa"/>
    <path id="Path_11927" data-name="Path 11927" d="M31.717,27.185c-.082-.191-.11-.484-.256-.558-2.058-1.046-2.115-2.967-2.139-4.8a19.228,19.228,0,0,1,.913-5.551c.441-.274.656-.772,1.129-1.031.67-.368,1.014-.738-.137-.882-.188-.023-.264-.193-.191-.386l-.008.011c.411-.238.417-.677.561-1.048a11.735,11.735,0,0,1,6.033-5.317c.746-.329,1.028-.647.729-1.389a8.878,8.878,0,0,1-.19-2.623A4.928,4.928,0,0,1,42.355.256a12.117,12.117,0,0,1,7.671.888A6.152,6.152,0,0,1,53.2,4.375a5.9,5.9,0,0,1-.211,3.851c-.293.657-.04.94.484,1.32A13.632,13.632,0,0,1,59.364,18.5a10.33,10.33,0,0,1-.178,4.649.367.367,0,0,1-.512,0,13.359,13.359,0,0,1-.251-4.725c-.1,1.456-.067,2.911-.092,4.366-.008.452.264.261.4.375.36.67.043,1.106-.536,1.449-.537.319-.963.305-1.238-.337a.45.45,0,0,0-.563-.21c-1,.4-1.962-.067-2.942-.084a4.849,4.849,0,0,0-1.468.108,2.373,2.373,0,0,1-.365.068,2.788,2.788,0,0,1-1.712-.51,60.9,60.9,0,0,1-6.362-4.15c-1.8-1.427-1.445-1.148-2.522.371a11.481,11.481,0,0,1-1.335,1.616q-.88.812-1.722,1.659c-.078.085-.161.163-.246.239-.258.229-.5.476-.761.7-.627.418-1.3.77-1.9,1.233-.139.092-.283.18-.419.278a8.174,8.174,0,0,1-.651.5,9.242,9.242,0,0,1-1.043.441c-.09.051-.181.1-.268.155-.261.166-.358.507-.683.607a.323.323,0,0,1-.277-.12" transform="translate(2.878 0)" fill="#373b5d"/>
    <path id="Path_11928" data-name="Path 11928" d="M16.395,79.335q1.627-7.934,3.254-15.868c.1-.485.038-1.092.88-.846l.179,0c.612.543,1.707.5,1.95,1.488a.8.8,0,0,1-.635.386c-.216.093.074.212-.049.091a2.119,2.119,0,0,0,.87-.619,6.657,6.657,0,0,1,2.455.484,1.621,1.621,0,0,0,1.309.276,1.491,1.491,0,0,1,1.3.266,2.107,2.107,0,0,1,.368,1.554,11.042,11.042,0,0,0-.149,2.552c-.477.985.1,1.9.217,2.844.066.556.2,1.086-.2,1.573a1.152,1.152,0,0,1-.472.322,1.7,1.7,0,0,1-1.564-.539c.228.636.737,1.127.759,1.8-.347,1.307-.343,2.834-2.166,3.211a2.15,2.15,0,0,1-1.026-.007c-.961-.341-1.2.189-1.293.93a3.01,3.01,0,0,1-.135.337,10.17,10.17,0,0,0-.227,4.7,1.817,1.817,0,0,1,.079.553c.007.8,0,1.6-1.036,1.868a47.883,47.883,0,0,1-4.677-3.07c-.221-.257-.507-.541-.407-.877.335-1.12.067-2.3.411-3.412" transform="translate(1.567 3.715)" fill="#365997"/>
    <path id="Path_11929" data-name="Path 11929" d="M27.893,82.923c.7,1.608.13,4.912-1.019,5.859a26.369,26.369,0,0,1-5.524-2.807c.041-.787.742-1.093,1.219-1.565,1.722-.671,3.357-1.634,5.324-1.487" transform="translate(2.096 4.923)" fill="#365997"/>
    <path id="Path_11930" data-name="Path 11930" d="M46.747,92.12c.49-.567,1.24-.365,1.833-.458,1.5-.235,3.034-.227,4.555-.317a23.559,23.559,0,0,1-6.388.774" transform="translate(4.588 5.424)" fill="#365997"/>
    <path id="Path_11931" data-name="Path 11931" d="M22.73,84.659l-1.309,1.27a1.353,1.353,0,0,1-.81-.488,2.628,2.628,0,0,0,.817-1.789c.63.1.783.774,1.3,1.007" transform="translate(2.023 4.967)" fill="#365997"/>
    <path id="Path_11932" data-name="Path 11932" d="M16.407,78.4c.142,1.43-.478,2.859,0,4.289a.713.713,0,0,1-.569-.742,12.812,12.812,0,0,1,.572-3.548" transform="translate(1.554 4.655)" fill="#deeafa"/>
    <path id="Path_11933" data-name="Path 11933" d="M37.167,91.757l5.031.532a12.366,12.366,0,0,1-5.031-.532" transform="translate(3.648 5.448)" fill="#365997"/>
    <path id="Path_11934" data-name="Path 11934" d="M33.52,90.869c.761-.031,1.552-.182,2.153.469a5.088,5.088,0,0,1-2.153-.469" transform="translate(3.29 5.393)" fill="#365997"/>
    <path id="Path_11935" data-name="Path 11935" d="M15.121,81.294c.043-.227-.1-.522.245-.632a.239.239,0,0,1,.2.1.4.4,0,0,1-.182.535l-.264,0" transform="translate(1.484 4.789)" fill="#deeafa"/>
    <path id="Path_11936" data-name="Path 11936" d="M31.656,26.185a.108.108,0,0,1,.169.059,2.971,2.971,0,0,0,1.881.374c.172.014-.007-.261.02-.093,0,.016-.018.023-.059.026-.465.026-1,.221-1.35-.157-.314-.345-.022-.7.269-.987l-.02.015a2.443,2.443,0,0,1,2.006.226,1.987,1.987,0,0,0,1.746.227,1.918,1.918,0,0,1,.356-.111.9.9,0,0,1,.723.158.807.807,0,0,1,.124.336c.01.336-.1.661-.1,1,0,1.152.354,1.411,1.613,1.173.433-.118.62-.592,1.254-.619-.564-.535-1.115-.931-.925-1.651.208-.985.807-1.836,1.043-2.811,0-.211.087-.472-.024-.622-1.04-1.417-.09-2.653.353-3.935l1.185-1.963a44.392,44.392,0,0,0,7.745,5.359,4.6,4.6,0,0,0,1.867.757c0,.475-.4.446-.709.53-.9.139-1.771-.37-2.7-.163,1.146.923,2.39.954,4.936.133a1.829,1.829,0,0,1,.747.021,9.2,9.2,0,0,0,4.779.944c.249,1.168.8,2.283.594,3.532-.235,1.4-.6,2.7-2.086,3.354-.412.369-.645-.344-1.028-.156-.787-.153-1.077-.949-1.747-1.251-.446-.2-.93-.708-1.386-.217-.4.425.086.841.342,1.214a18.678,18.678,0,0,0,1.946,2.179c.248.26.638.4.746.781a3.305,3.305,0,0,1-.745,2.256,6.909,6.909,0,0,1-1.843,1.89c-.664.577-1.4,1.214-.656,2.218a1.175,1.175,0,0,1,.027.367,12.8,12.8,0,0,0-.055,2.209,4.161,4.161,0,0,0,1.128,2.522c.256.446.933.6.928,1.225-.071.1-.215.184-.232.289-.049.338.177.126.275.1a.63.63,0,0,1,.862.3.781.781,0,0,1-.021.515,5.338,5.338,0,0,0-.8,1.344.942.942,0,0,1-.284.236c-.082.035-.226.076-.245.039-.588-1.159-1.721-1.05-2.784-1.172a1.335,1.335,0,0,1-1.1-.825,1.792,1.792,0,0,0-2.3-1.157c-1.273.242-2.015-.67-2.966-1.1-.474-.215-.07-.47.22-.581.448-.169.965-.025,1.4-.274a1.867,1.867,0,0,1,.326-.173c.292-.1.659-.208.883-.055.712.485.687-.156.881-.477a1.731,1.731,0,0,1,.264-.221c.235-.146.475-.287.7-.445.09-.063.184-.118.279-.172.292-.156.522-.4.816-.55a.659.659,0,0,1,.333-.02c.837-.075.166-.625.3-.914-.575-.707-.794.067-1.049.285a7.536,7.536,0,0,1-8.377,1.333.542.542,0,0,0-.707.1.428.428,0,0,1-.3.1c-.324-.131-.419-.5-.726-.647a14.6,14.6,0,0,1-4.842-3.923,2.052,2.052,0,0,1-.683-1.315c.611-.715.658-1.281-.447-1.528-.245-.054-.067.234-.214.274a.212.212,0,0,1-.291-.052c-.376-.231-.2-.608-.272-.921A3.35,3.35,0,0,0,32.3,32.588a5.243,5.243,0,0,1-2.354-4.8c.024-1.171.436-1.764,1.71-1.6" transform="translate(2.939 0.999)" fill="#fae4e2"/>
    <path id="Path_11937" data-name="Path 11937" d="M50.577,39.62l.007-.253c-.422-1.057.324-1.652.993-2.247.611-.545,1.422-.835,2.014-1.412,1.375-.869,1.384-.924.436-2.594a3,3,0,0,1-.208-2.1.491.491,0,0,1,.363-.367c.41.03.611.347.866.589A17.893,17.893,0,0,1,60.5,41.458c.124.734.165,1.5.311,2.25-.631-.2-1.072.176-1.533.482a2.139,2.139,0,0,1-.87.46,8.518,8.518,0,0,0-2.83,1.269,1.881,1.881,0,0,1-1.607.206c-.267-.165-.356-.356-.087-.593.28-.276.706-.4.895-.773.054-.1.112-.195.167-.292.514-1.3-.615-.36-.837-.653.077.228.258.358.332.564a.939.939,0,0,1-.007.539,1.545,1.545,0,0,1-.482.558c-.723.239-.963-.421-1.411-.7-.472-.625-1.2-1.136-.989-2.066a11.687,11.687,0,0,0,2.676-1.437,13.6,13.6,0,0,0-2.633,1.4c-.492-.035-.517-.467-.707-.762a1.636,1.636,0,0,1-.2-1.242c.64-.938,1.958-.9,2.637-1.753-.87.207-1.544.913-2.468,1.068-.194-.051-.351-.128-.273-.368" transform="translate(4.953 1.82)" fill="#fae4e2"/>
    <path id="Path_11938" data-name="Path 11938" d="M68.81,69.667a8.668,8.668,0,0,0,.874,3.14,1.01,1.01,0,0,1-.323,1.429c-.717.279-.921-.179-1.077-.7-.108-.361-.027-.76-.23-1.1a9.249,9.249,0,0,0-.8-2.77,13.387,13.387,0,0,1-1.577-5.081,7.208,7.208,0,0,0-1.028-3.058c-.255-.657-.258-1.377-.546-2.027-.882-3.428-2.052-6.773-3.162-10.135a4.368,4.368,0,0,1-.777-2.559c-.141-.5.906-.391.545-1l1.007.274a.27.27,0,0,1,.079.3c.12,1.019.773,1.923.7,2.985.376,2.461,1.466,4.722,2.136,7.1a10.511,10.511,0,0,1,1.307,4.062c.219,1.78,1.086,3.374,1.56,5.08.406,1.362,1.3,2.577,1.311,4.058" transform="translate(5.904 2.72)" fill="#365997"/>
    <path id="Path_11939" data-name="Path 11939" d="M56.494,24.112c-1.725.787-3.21.057-4.692-.692.363-.606-.333-.51-.532-.745a.242.242,0,0,1,.023-.31c1.032.063,2.027.432,3.112.042.574-.206,1.038.231.922,1.01.58-.458,1.448-.6,1.229-1.56h.48q-.272,1.128-.542,2.256" transform="translate(5.028 1.298)" fill="#373b5d"/>
    <path id="Path_11940" data-name="Path 11940" d="M69.508,83.136A29.474,29.474,0,0,0,71.1,79.591a20.005,20.005,0,0,0,.738-4.043c.121-1.335.026-2.688.026-4.156-.426.325-.1.881-.525,1.067-.088.123-.176.123-.262,0a31.341,31.341,0,0,0,.286-5.4c.958,5,1.687,10-.775,14.837a2.808,2.808,0,0,1-1.075,1.235" transform="translate(6.823 3.982)" fill="#365997"/>
    <path id="Path_11941" data-name="Path 11941" d="M62.36,49.337a5.4,5.4,0,0,1-.809-3.035c.169-.055.188.144.309.168a8.011,8.011,0,0,1,3.48,2.324c-.165.033-.439.142-.479.088-.615-.821-1.1-.661-1.559.137-.2.343-.59.313-.941.318" transform="translate(6.039 2.749)" fill="#365997"/>
    <path id="Path_11942" data-name="Path 11942" d="M65.179,84.287c0-.087.005-.173.008-.26a.661.661,0,0,1,.777-.016c.892-.058.794-.7.8-1.272,0-.957.711-.978,1.418-1,.16,0,.222.083.137.217a2.294,2.294,0,0,1-.243.283c-.043.2-.248.468-.16.56.127.133.2-.2.388-.23a1.473,1.473,0,0,1,.982.057c.041.043.081.089.122.133a6.117,6.117,0,0,1-4.226,1.523" transform="translate(6.398 4.854)" fill="#365997"/>
    <path id="Path_11943" data-name="Path 11943" d="M69.824,59.266c-1.025.948-.236,2.238-.673,3.4-.307-1.587-.507-3.064.45-4.43a1.372,1.372,0,0,1,.223,1.033" transform="translate(6.763 3.458)" fill="#365997"/>
    <path id="Path_11944" data-name="Path 11944" d="M61.591,45.587c1.017-.7,1.754.23,2.613.433a.254.254,0,0,1,.121.408.5.5,0,0,1-.452.088c-.513-.285-1-.613-1.5-.927a.582.582,0,0,1-.783,0" transform="translate(6.045 2.692)" fill="#deeafa"/>
    <path id="Path_11945" data-name="Path 11945" d="M66.563,50.386a7.245,7.245,0,0,1-1.033.694c-.514.235-.463-.083-.339-.406a1.281,1.281,0,0,1,.511-1.013c.011-.1.023-.194.034-.29a2.135,2.135,0,0,1,.828,1.015" transform="translate(6.391 2.931)" fill="#365997"/>
    <path id="Path_11946" data-name="Path 11946" d="M71.9,62.441a2.03,2.03,0,0,1,0,2,2.263,2.263,0,0,1,0-2" transform="translate(7.034 3.708)" fill="#deeafa"/>
    <path id="Path_11947" data-name="Path 11947" d="M63.484,84.983c-.368.377-.92.083-1.312.331-.226.144-.432.375-.537-.063-.052-.212.1-.513.3-.468.515.114,1.117-.4,1.551.2" transform="translate(6.049 5.028)" fill="#ebebea"/>
    <path id="Path_11948" data-name="Path 11948" d="M67.259,49.558c.959.373.922.973,1.172,1.39-.112.04-.271.148-.328.111-.448-.3-.532-.772-.843-1.5" transform="translate(6.602 2.943)" fill="#deeafa"/>
    <path id="Path_11949" data-name="Path 11949" d="M54.72,31.27a.794.794,0,0,1-.786-.52.311.311,0,0,1,0-.492c.529-.691.355.73.814.252q-.015.38-.027.76" transform="translate(5.282 1.785)" fill="#eca2a4"/>
    <path id="Path_11950" data-name="Path 11950" d="M68.538,82.239c.381-.991.711.058,1.069.025a.863.863,0,0,1-.53.5l-.064-.047c-.193-.125-.424-.216-.474-.475" transform="translate(6.727 4.858)" fill="#365997"/>
    <path id="Path_11951" data-name="Path 11951" d="M60.115,43.52c.12-.371-.131-.86.45-1.159.144.533.293.991-.456,1.156l.005,0" transform="translate(5.9 2.515)" fill="#deeafa"/>
    <path id="Path_11952" data-name="Path 11952" d="M61.6,45.573l.783,0c.059.432-.523.534-.521.939-.1-.057-.205-.113-.309-.169l.033-.254.013-.517" transform="translate(6.041 2.706)" fill="#deeafa"/>
    <path id="Path_11953" data-name="Path 11953" d="M61.142,83.685c-.266-.225-.057-.36.125-.424.36-.126.51.143.653.391l-.779.033" transform="translate(5.989 4.942)" fill="#365997"/>
    <path id="Path_11954" data-name="Path 11954" d="M46.456,42.762c-.313,1.012-1.242.226-1.841.625.4.247.942.15,1.257.625a1.387,1.387,0,0,0,1.395.431c1.128-.122,2.369-.43,2.781,1.269.186.77,1.19,1,2,.834.751-.154,1.274-.279,1.285.73,0,.467.391.481.771.327.29.445,0,.72-.313.988a29.219,29.219,0,0,1-2.857,2.729,8.886,8.886,0,0,1-10.217.338,3.122,3.122,0,0,1-1.089-1.052c.146-.8.094-.859-1.1-1.25-.166-.054.04.023-.128-.025l-.353-.476c-.756-.613-.558-1.528-.786-2.308.059-.745-.1-1.313-1.065-1.245,1.014-.447,2.39-.054,3.077-1.293.227-.409.592-.734.39-1.252a2.032,2.032,0,0,1,.321-.773,1.418,1.418,0,0,1,.689-.487l-.007,0c.615-.033.967.606,1.586.568a13.391,13.391,0,0,0,2.853.351,1.706,1.706,0,0,1,1.349.344" transform="translate(3.553 2.464)" fill="#fae4e2"/>
    <path id="Path_11955" data-name="Path 11955" d="M22.677,85.387c-.954.29-.993-.522-1.3-1.007,0-.168-.008-.336-.012-.5a9.619,9.619,0,0,1,.293-5.066l-.005.006c.253-1.353,1.529-.935,2.369-1.271,1.839-.292,1.607-1.9,2.085-3.058.314-.45.458-1.031,1.043-1.274l.269-.243c.551-.234.849-.754,1.317-1.083A4.347,4.347,0,0,0,31.4,71.4c.676.493,1.559.22,2.274.57.814.236.481,1.055.833,1.527a17.953,17.953,0,0,1,.8,3.519c-.389.672-1.135.72-1.781.932a5.886,5.886,0,0,0-1.7.739c1.34-.334,2.257-1.236,3.518-.927.546.816.141,1.48-.388,2.1-.292.343-.638.644-.96.965a21.479,21.479,0,0,1-2.431,1.575c-1.38-.063-2.46.728-3.651,1.2a36.606,36.606,0,0,0-5.235,1.782" transform="translate(2.077 4.24)" fill="#fae4e2"/>
    <path id="Path_11956" data-name="Path 11956" d="M57.915,72.335a7.656,7.656,0,0,0-.561-3.01c-.718-.848-.451-1.9-.63-2.857-.059-.318.1-.666-.137-.961q-.573-3.626-1.148-7.251c-.071-.451-.138-.9-.208-1.355a2.3,2.3,0,0,1-.614-1.48c-.46-2.247-.613-4.536-.972-6.8-.183-1.152.433-1.54,1.613-1.1A92.635,92.635,0,0,0,56.992,59.4c.154.684-.159,1.443.368,2.056A18.545,18.545,0,0,1,58.455,66.1c.177,1.237.769,2.44.478,3.733a8.574,8.574,0,0,0,.547,2.783,3.412,3.412,0,0,1,.39,1.784,3.84,3.84,0,0,0,.359,1.822c.092.272.316.568-.074.756s-.657-.077-.869-.352a4.073,4.073,0,0,1-.479-1.674c-.1-.4-.038-.851-.388-1.171-.394-.408-.292-.978-.5-1.446" transform="translate(5.262 2.811)" fill="#365997"/>
    <path id="Path_11957" data-name="Path 11957" d="M30.83,71.936a1.974,1.974,0,0,1-2.648.532,1.912,1.912,0,0,1-.611-1.246c-.2-1.424-.745-2.805-.588-4.274a.544.544,0,0,1,.109-.346c.273-.028.392.1.4.357.049-.163.005-.336.064-.5a5.94,5.94,0,0,0,.122-1.741c.081-1.632.925-2.371,2.658-2.284a.459.459,0,0,1,.266.218c-.143,1-1.379.96-1.77,1.723-.04.828.48,1.514.618,2.3.07.791.618,1.478.533,2.3q.427,1.483.851,2.965" transform="translate(2.646 3.707)" fill="#fbf7f5"/>
    <path id="Path_11958" data-name="Path 11958" d="M55.4,47.657c-1.323-.006-1.475.234-1.248,1.585.435,2.593.817,5.2,1.22,7.795a1.291,1.291,0,0,1-1.618.4c-.566-.208-.461-.757-.441-1.2.087-1.993-.316-4.022.456-5.964.277-.693-.367-.813-.723-1.113.1-.37.47-.661.374-1.1-.424-.131-.589.283-.9.339l-.292-.011q.155-.494.312-.988h-.009a4.58,4.58,0,0,1,.725-1.282c.023-.161.047-.323.071-.484.1-.13.068-.295.126-.434l.12-.1,1.835-.026c.059.282-1.175.484-.031.917.2.076.026,1.093.024,1.676" transform="translate(5.126 2.676)" fill="#365997"/>
    <path id="Path_11959" data-name="Path 11959" d="M58.6,69.042a46.5,46.5,0,0,1-1.573-8.375c2.49,0,2.089-.228,2.116,2.077.019,1.671,0,3.342,0,5.014,0,.5.07,1.029-.547,1.284" transform="translate(5.597 3.602)" fill="#365997"/>
    <path id="Path_11960" data-name="Path 11960" d="M30.633,81.878A3.507,3.507,0,0,1,33.065,80.3c.134,1.362.68,2.674.538,4.072-.047.458-.005.992-.549,1.164-.57.181-.876-.314-1.122-.676a8.964,8.964,0,0,1-1.3-2.985" transform="translate(3.007 4.768)" fill="#f8e9e5"/>
    <path id="Path_11961" data-name="Path 11961" d="M33.11,50.687a4.327,4.327,0,0,1-.257-1.524c.223-.039.359,0,.247.258a16.86,16.86,0,0,1,.588,8.414,11.487,11.487,0,0,1-2.452,4.936c-.193.406-.348.868-.985.638l-.064-.051a1.662,1.662,0,0,1,.579-1.685,7.215,7.215,0,0,0,1.977-4.779c.168-1.627-.153-3.251-.142-4.881.169-.442.12-.963.51-1.325" transform="translate(2.958 2.918)" fill="#365997"/>
    <path id="Path_11962" data-name="Path 11962" d="M67.42,70.939c.608.484.161,1.681,1.307,1.8.21.774.626.5.992.151.324-.311.524-.777,1.111-.665h0c-.086.841.5,1.63.154,2.605-.248-.639-.763-.56-1.257-.583-.278-.013-.685.183-.815-.185-.312-.886-.887-.577-1.307-.224-.91.766-.986.247-.983-.512,0-.5-.071-1.024.482-1.354.416-.246.271-.674.317-1.037" transform="translate(6.539 4.212)" fill="#365997"/>
    <path id="Path_11963" data-name="Path 11963" d="M58.028,72.154c.794.4.641,1.178.756,1.832.1.579.17,1.134.933,1.44,0-.926-.582-1.674-.389-2.517.091-.109.176-.1.253.015a15.043,15.043,0,0,0,1.291,4.215,3.48,3.48,0,0,1,.277,1.593.754.754,0,0,1-1.031.015q-.535-1.265-1.069-2.529a12.092,12.092,0,0,1-1.04-3.554v0a.322.322,0,0,1,.019-.507" transform="translate(5.683 4.284)" fill="#365997"/>
    <path id="Path_11964" data-name="Path 11964" d="M29.778,68.964q-.384-1.163-.769-2.325c.277-1.033-.248-2.354,1.155-2.981l.166-.066c.963.173,1-1.174,2.007-1.033.157.09-.032.305,0,.479.313,1.481-.343,1.859-1.731,1.479-.27-.074-.7.119-.658.244.344,1.005-.833,1.9-.231,2.943.594-.054.111-.712.57-.809.038.744.231,1.511-.515,2.07" transform="translate(2.847 3.714)" fill="#365997"/>
    <path id="Path_11965" data-name="Path 11965" d="M65.238,63.528a27.941,27.941,0,0,1,1.577,5.081c-.834.089-1.384-.031-1.362-1.078.015-.789-.967-1.324-.771-2.281.125-.6.78-1.032.556-1.721" transform="translate(6.346 3.772)" fill="#365997"/>
    <path id="Path_11966" data-name="Path 11966" d="M65.538,59.932a18.647,18.647,0,0,1-1.307-4.062A2.322,2.322,0,0,0,66.4,56.946c.608-.049.463.624.426,1-.018.184.445.725-.435.638-.574-.056-.859.71-.853,1.345" transform="translate(6.305 3.317)" fill="#365997"/>
    <path id="Path_11967" data-name="Path 11967" d="M56.437,64.489a17.262,17.262,0,0,1,.768,3.818c-1.771.563-2.1.242-2.062-2l1.294.217a.41.41,0,0,1,.11.216c.024.149.012.3.023.449,0-.111,0-.222,0-.334a.441.441,0,0,0-.133-.332q0-1.017,0-2.033" transform="translate(5.412 3.829)" fill="#365997"/>
    <path id="Path_11968" data-name="Path 11968" d="M68.153,68.556A17.919,17.919,0,0,1,66.842,64.5c1,.258.3,1.31.937,1.756.325-.155-.018-.939.616-.793.4.091.377.577.291.877-.212.733.6,1.7-.533,2.218" transform="translate(6.561 3.83)" fill="#365997"/>
    <path id="Path_11969" data-name="Path 11969" d="M34.442,77.449a15.692,15.692,0,0,0-2.888,1.121c-.37.216-.974.38-1.173-.035-.243-.5.436-.462.734-.645,1.01-.623,2.252-.638,3.289-1.185.013.248.025.5.038.745" transform="translate(2.977 4.554)" fill="#f08f93"/>
    <path id="Path_11970" data-name="Path 11970" d="M63.847,58.728a3.128,3.128,0,0,1,.546,2.027c-.55.627-.323,1.229.142,1.8-1.67.5-1.761.421-1.73-1.438.43-.087.108.489.481.475a3.212,3.212,0,0,0,.561-2.866" transform="translate(6.164 3.487)" fill="#365997"/>
    <path id="Path_11971" data-name="Path 11971" d="M60.229,46.746a6.964,6.964,0,0,1,.779,2.559c-.475-.1-1.288.3-1.276-.565.01-.667-.753-1.6.5-1.995" transform="translate(5.841 2.776)" fill="#365997"/>
    <path id="Path_11972" data-name="Path 11972" d="M32.866,49.555,32.62,49.3c-.008-.159-.015-.318-.022-.477a.353.353,0,0,1-.057-.326,1.517,1.517,0,0,1,.605-1.226c.6-.163,1.182-.736,2.049-.033-.981,0-1.765-.042-1.339,1.168.191.545-.436.936-.991,1.152" transform="translate(3.192 2.784)" fill="#365997"/>
    <path id="Path_11973" data-name="Path 11973" d="M33.5,46.064a4.662,4.662,0,0,1,2.443-.729c-.031.621.4,1.134.539,1.843-.894-.889-2.03-.755-2.983-1.114" transform="translate(3.288 2.692)" fill="#365997"/>
    <path id="Path_11974" data-name="Path 11974" d="M38.206,48.909a4.4,4.4,0,0,1,.524-.31c.547.655,1.384.616,2.214.672-.389.759-1.406.031-1.511.913l-1.227-1.274" transform="translate(3.75 2.886)" fill="#fae4e2"/>
    <path id="Path_11975" data-name="Path 11975" d="M37.211,46.265A9.347,9.347,0,0,1,38,48.572c-1.332-.128-1.545-.493-.918-1.468a2.195,2.195,0,0,0,.132-.839" transform="translate(3.606 2.747)" fill="#365997"/>
    <path id="Path_11976" data-name="Path 11976" d="M58.114,72.226c-.007.17-.012.339-.019.507-.174.04-.389-.664-.534.037-.094.456.393.851.012,1.548-.459-.814-.8-1.5-.34-2.225a2.249,2.249,0,0,0,.348-1.159,3.4,3.4,0,0,1,.533,1.291" transform="translate(5.597 4.212)" fill="#365997"/>
    <path id="Path_11977" data-name="Path 11977" d="M35.525,78.773c-.384.23-.18.679-.5,1.346V76.11c.266-.1.259.342.5.381.164.761.505,1.521,0,2.282" transform="translate(3.438 4.518)" fill="#365997"/>
    <path id="Path_11978" data-name="Path 11978" d="M52.488,48.26c.079-.148.156-.3.236-.445.19-.354.493-.752.875-.434a.851.851,0,0,1,.022,1.221,2.907,2.907,0,0,1-.606.418.771.771,0,0,0-.527-.761" transform="translate(5.152 2.806)" fill="#365997"/>
    <path id="Path_11979" data-name="Path 11979" d="M35.481,78.765V76.484a.574.574,0,0,1,.021-.124c.052-.129.191-.206.221-.041.206,1.145.514,2.3-.145,3.416-.216-.27-.037-.64-.1-.969" transform="translate(3.481 4.526)" fill="#365997"/>
    <path id="Path_11980" data-name="Path 11980" d="M30.427,62.644c.454-.032.633-.46.985-.638.2.854-.954.916-1.016,1.618h0c-.634.38-1.217.946-2.066.511.566-.672,1.633-.686,2.1-1.492" transform="translate(2.781 3.682)" fill="#365997"/>
    <path id="Path_11981" data-name="Path 11981" d="M57.694,43.891a1.036,1.036,0,0,1,.87-.46c.363.458,1.167,1.064.781,1.429s-.9-.456-1.291-.862c-.074-.076-.237-.073-.359-.107" transform="translate(5.663 2.579)" fill="#365997"/>
    <path id="Path_11982" data-name="Path 11982" d="M33.388,73.469c-.714-.288-.32-1.138-.832-1.527.521-.053,1.121-.1,1.424.34.4.583-.721.626-.592,1.186" transform="translate(3.196 4.27)" fill="#365997"/>
    <path id="Path_11983" data-name="Path 11983" d="M58,72.635q.521,1.777,1.04,3.555A4.873,4.873,0,0,1,58,72.635" transform="translate(5.693 4.313)" fill="#365997"/>
    <path id="Path_11984" data-name="Path 11984" d="M68.656,82.215a.717.717,0,0,1,.474.476,2.108,2.108,0,0,0-1.791.729c.3-.376-.307-1.063.523-1.2h.794" transform="translate(6.61 4.882)" fill="#365997"/>
    <path id="Path_11985" data-name="Path 11985" d="M33.559,71.275c.067.365-.137.429-.361.443a.793.793,0,0,1-.858-.608c-.141-.418.2-.342.435-.39.544-.109.525.427.784.555" transform="translate(3.171 4.198)" fill="#365997"/>
    <path id="Path_11986" data-name="Path 11986" d="M70.932,72.157h.262v3.751l-.262.005Z" transform="translate(6.962 4.284)" fill="#365997"/>
    <path id="Path_11987" data-name="Path 11987" d="M55.317,90.148a5.523,5.523,0,0,1-2.207-.25,5.522,5.522,0,0,1,2.208-.255.339.339,0,0,1,0,.505" transform="translate(5.213 5.323)" fill="#365997"/>
    <path id="Path_11988" data-name="Path 11988" d="M45.891,91.567c-1.278.559-2.6.1-3.915,0h1.813a3.811,3.811,0,0,1,2.1,0" transform="translate(4.12 5.428)" fill="#365997"/>
    <path id="Path_11989" data-name="Path 11989" d="M33.178,47.271a2.891,2.891,0,0,1-.5,1.254,1.951,1.951,0,0,1-.484-1.613.676.676,0,0,1,.715.1l.269.256" transform="translate(3.159 2.782)" fill="#365997"/>
    <path id="Path_11990" data-name="Path 11990" d="M65.753,49.66a1.288,1.288,0,0,1-.51,1.013c-.392-.317-.312-.81-.66-1.3.526.063.8.41,1.17.29" transform="translate(6.339 2.931)" fill="#365997"/>
    <path id="Path_11991" data-name="Path 11991" d="M32.949,47.05l-.793.007c-.484.014-.413-.236-.267-.522a1.387,1.387,0,0,1,1.049-.285.768.768,0,0,0,.011.8" transform="translate(3.119 2.746)" fill="#365997"/>
    <path id="Path_11992" data-name="Path 11992" d="M59.478,72.98c-.085,0-.169-.008-.254-.015q-.133-.884-.268-1.766c.819.417.436,1.163.522,1.781" transform="translate(5.787 4.228)" fill="#365997"/>
    <path id="Path_11993" data-name="Path 11993" d="M33.02,70.8c.347-.438.588-.674.966-.421a.333.333,0,0,1,.094.319c-.288.545-.661-.084-1.061.1" transform="translate(3.241 4.173)" fill="#365997"/>
    <path id="Path_11994" data-name="Path 11994" d="M55.12,90.148c0-.168,0-.337,0-.505l1.332.376c-.6.094-.9.558-1.333.129" transform="translate(5.41 5.323)" fill="#365997"/>
    <path id="Path_11995" data-name="Path 11995" d="M70.474,70.241a1.86,1.86,0,0,1,0,2.029h0l0-1.018a.752.752,0,0,1,.008-1.012" transform="translate(6.898 4.171)" fill="#365997"/>
    <path id="Path_11996" data-name="Path 11996" d="M45.729,91.576h-2.1a2.03,2.03,0,0,1,2.1,0" transform="translate(4.282 5.42)" fill="#365997"/>
    <path id="Path_11997" data-name="Path 11997" d="M70.5,70.241c0,.337,0,.675-.008,1.012-.525-.341-.873-.68.008-1.012" transform="translate(6.867 4.171)" fill="#365997"/>
    <path id="Path_11998" data-name="Path 11998" d="M59.919,78.378l1.031-.014c-.336.548-.675.886-1.031.014" transform="translate(5.881 4.653)" fill="#365997"/>
    <path id="Path_11999" data-name="Path 11999" d="M64.738,51.642c-.037.057-.091.228-.161.234-.214.017-.286-.165-.31-.335s0-.371.241-.344c.21.023.223.22.231.445" transform="translate(6.307 3.04)" fill="#365997"/>
    <path id="Path_12000" data-name="Path 12000" d="M68.016,53.872c.058.4.237.762-.236,1.012-.225-.4.013-.671.236-1.012" transform="translate(6.644 3.199)" fill="#365997"/>
    <path id="Path_12001" data-name="Path 12001" d="M68.613,81.476c-.074-.47-.176-.75.115-1.04.443.339.213.618-.115,1.04" transform="translate(6.727 4.776)" fill="#365997"/>
    <path id="Path_12002" data-name="Path 12002" d="M54.829,90.888c-.481-.124-1.023.138-1.737-.387.777.15,1.316-.069,1.747.385l-.01,0" transform="translate(5.211 5.374)" fill="#365997"/>
    <path id="Path_12003" data-name="Path 12003" d="M57.532,75.642c-.038.065-.078.234-.16.256-.214.056-.3-.114-.312-.288-.015-.154-.049-.368.18-.376.2-.007.261.181.292.408" transform="translate(5.6 4.467)" fill="#365997"/>
    <path id="Path_12004" data-name="Path 12004" d="M31.534,70.6c.074.181.152.278.136.358-.027.142-.076.353-.177.4-.235.1-.27-.1-.225-.263a2.864,2.864,0,0,1,.266-.49" transform="translate(3.067 4.192)" fill="#365997"/>
    <path id="Path_12005" data-name="Path 12005" d="M56.077,89.551c.37-.183.681-.182.893.2-.383.233-.59-.222-.893-.2" transform="translate(5.504 5.31)" fill="#365997"/>
    <path id="Path_12006" data-name="Path 12006" d="M59.864,86.686c.093.322.118.529-.059.691a.233.233,0,0,1-.217-.016c-.155-.273.013-.453.277-.675" transform="translate(5.843 5.147)" fill="#365997"/>
    <path id="Path_12007" data-name="Path 12007" d="M59.139,46.448c-.069-.132-.163-.227-.146-.3.022-.091.132-.161.2-.24.066.075.193.159.184.225-.014.094-.127.174-.243.314" transform="translate(5.79 2.726)" fill="#365997"/>
    <path id="Path_12008" data-name="Path 12008" d="M65.989,83.9l-.777.016c-.079-.02-.188-.015-.228-.063-.114-.129-.009-.19.113-.19.317,0,.664-.083.893.236" transform="translate(6.374 4.967)" fill="#365997"/>
    <path id="Path_12009" data-name="Path 12009" d="M34.387,52.423a31.062,31.062,0,0,1,.269,4.781,8.236,8.236,0,0,1-1.513,4.6c-.457.674-1.2,1.173-1.422,2.023-2.068.295-2.28.48-2.466,2.589a6.786,6.786,0,0,1-.511,2.255c-.126-.268-.251-.533-.376-.8-.307-.77-.061-1.657-.592-2.359a4.419,4.419,0,0,1-3.76-.124c-.134-.117-.439-.51-.371-.678.2-.505.687-.328,1.107-.3a12.523,12.523,0,0,1-4.077-.532l0,.008a12.523,12.523,0,0,1-4.249-4.977,16.846,16.846,0,0,1-1.836-6.222,12.838,12.838,0,0,1,1.063-6.6,7.962,7.962,0,0,1,10.7-4.137A11.168,11.168,0,0,1,31.22,45.8a3.931,3.931,0,0,0,.533.533c.742.145.664.765.79,1.268q.789,1.651,1.579,3.3c.243.482.563.95.266,1.519" transform="translate(1.424 2.448)" fill="#fff"/>
    <path id="Path_12010" data-name="Path 12010" d="M40.449,42.4c-.1.3-.137.643-.526.757a10.933,10.933,0,0,1-6.178-7.172,5.383,5.383,0,0,1-.171-1.212,1,1,0,0,1,.245.034,1.112,1.112,0,0,1,.869,1.244,12.678,12.678,0,0,0,5.737,5.089,1.673,1.673,0,0,1,.025,1.26" transform="translate(3.295 2.065)" fill="#373b5d"/>
    <path id="Path_12011" data-name="Path 12011" d="M30.954,13.2c.444.582.734-.18,1.116-.14.137,1.3-.265,1.806-1.916,2.439a4.714,4.714,0,0,1,.8-2.3" transform="translate(2.96 0.776)" fill="#373b5d"/>
    <path id="Path_12012" data-name="Path 12012" d="M17.555,66.408a1.289,1.289,0,0,1-.025,1.9c-.007,0-.157-.245-.24-.376a1.461,1.461,0,0,1,.266-1.522" transform="translate(1.685 3.943)" fill="#deeafa"/>
    <path id="Path_12013" data-name="Path 12013" d="M15.625,75.99h.527a3.4,3.4,0,0,1,0,2.031h-.523a1.917,1.917,0,0,1,0-2.03" transform="translate(1.505 4.512)" fill="#deeafa"/>
    <path id="Path_12014" data-name="Path 12014" d="M15.651,75.99q0,1.015,0,2.03h0a.362.362,0,0,1-.525,0c.226-.663-.529-1.563.524-2.028" transform="translate(1.48 4.512)" fill="#deeafa"/>
    <path id="Path_12015" data-name="Path 12015" d="M31.892,46.518c.024.206.049.409.267.522.538.379.284,1.034.562,1.5l-.049.3c-.312-.759-1.263-1.318-.78-2.324" transform="translate(3.117 2.762)" fill="#365997"/>
    <path id="Path_12016" data-name="Path 12016" d="M31,47.316l-.791-1.268c1-.036,1.137.178.791,1.268" transform="translate(2.965 2.734)" fill="#deeafa"/>
    <path id="Path_12017" data-name="Path 12017" d="M15.122,77.9l.524,0v1.71l-.171.035L15.122,77.9" transform="translate(1.484 4.626)" fill="#deeafa"/>
    <path id="Path_12018" data-name="Path 12018" d="M17.573,66.408q-.135.761-.266,1.522c-.287-.568-.66-1.152.266-1.522" transform="translate(1.667 3.943)" fill="#deeafa"/>
    <path id="Path_12019" data-name="Path 12019" d="M16.078,78.02q0-1.015,0-2.031a1.844,1.844,0,0,1,0,2.031" transform="translate(1.578 4.512)" fill="#deeafa"/>
    <path id="Path_12020" data-name="Path 12020" d="M32.634,51.88q-.133-.76-.266-1.519l.524.254c-.06.427.179.91-.258,1.265" transform="translate(3.177 2.99)" fill="#d6e9e6"/>
    <path id="Path_12021" data-name="Path 12021" d="M31.436,12.217c.044.464.031.9-.56,1.048a1.619,1.619,0,0,1,.56-1.048" transform="translate(3.031 0.725)" fill="#373b5d"/>
    <path id="Path_12022" data-name="Path 12022" d="M40.05,18.681c-.09.662.405,1.467-.6,1.9-.286.124-.181.564.071.765.679.54.559,1.26.547,1.964a.535.535,0,0,1-.321.144.94.94,0,0,1-.347-.1,6.2,6.2,0,0,0-1.651-.615c-.377-.1-.9-.088-.829-.7h0c.9-.324,1.279-1.142,1.833-1.794q.649-.787,1.3-1.571" transform="translate(3.623 1.109)" fill="#fae4e2"/>
    <path id="Path_12023" data-name="Path 12023" d="M56.156,22.155l-.841.444c.721-1.987-.142-3.963.777-5.771-.3,1.139.232,2.307-.184,3.44C55.663,20.935,56.752,21.442,56.156,22.155Z" transform="translate(5.429 0.999)" fill="#373b5d"/>
    <path id="Path_12024" data-name="Path 12024" d="M34.285,23.947a9.9,9.9,0,0,1,2.035-1.384,1.2,1.2,0,0,1,1.028-.112c.468,1.024-.353,1.083-1,1.125-.362.024-.461.064-.392.391-.4.573-.938.481-1.5.317a.287.287,0,0,1-.177-.337" transform="translate(3.365 1.328)" fill="#fae4e2"/>
    <path id="Path_12025" data-name="Path 12025" d="M36.316,25.509c-.662.869-1.443.289-2.033.01a5.106,5.106,0,0,0-1.953-.548q.662-.269,1.323-.538c.875.388,1.925.372,2.662,1.076" transform="translate(3.173 1.451)" fill="#fae4e2"/>
    <path id="Path_12026" data-name="Path 12026" d="M37.257,22.62l-1.12-.025A1.917,1.917,0,0,1,37,21.857c.551.636,1.44.39,2.113.742.24.125.47.177.521.467a2.874,2.874,0,0,1-1.539.2c-.373-.1-.572-.412-.833-.647" transform="translate(3.547 1.298)" fill="#fae4e2"/>
    <path id="Path_12027" data-name="Path 12027" d="M36.2,25.535c-.925-.273-2.011-.174-2.662-1.076q.273-.23.545-.463c.536.511,1.276.388,1.918.574a.711.711,0,0,1,.313.233.615.615,0,0,1-.114.732" transform="translate(3.292 1.425)" fill="#fae4e2"/>
    <path id="Path_12028" data-name="Path 12028" d="M32.418,24.929c-.7,1.93,1.212.577,1.582,1.251-.809-.036-1.676.425-2.343-.414.454-.11.03-.962.761-.837" transform="translate(3.107 1.479)" fill="#fae4e2"/>
    <path id="Path_12029" data-name="Path 12029" d="M38.751,20.164c-.388.81-.64,1.748-1.833,1.794q.918-.9,1.833-1.794" transform="translate(3.624 1.197)" fill="#fae4e2"/>
    <path id="Path_12030" data-name="Path 12030" d="M35.971,24.739c-.749.01-1.606.284-1.938-.732.045-.131.1-.237.276-.146l-.009.122c.439.392,1.066.176,1.546.439a.364.364,0,0,1,.125.318" transform="translate(3.34 1.415)" fill="#fae4e2"/>
    <path id="Path_12031" data-name="Path 12031" d="M51.429,22.337c0,.083,0,.166-.005.249-.335.357-.8.307-1.23.367-.205-.018-.362-.088-.358-.323.448-.521,1.061-.2,1.593-.292" transform="translate(4.892 1.325)" fill="#373b5d"/>
    <path id="Path_12032" data-name="Path 12032" d="M49.936,22.614a.211.211,0,0,0,.289.165c.182-.054.282.01.3.193-.605.564-1.179.643-1.705-.1.286-.093.64.018.857-.273a.4.4,0,0,1,.258.011" transform="translate(4.792 1.341)" fill="#373b5d"/>
    <path id="Path_12033" data-name="Path 12033" d="M20.122,62.611a8.842,8.842,0,0,1,4.5.718H23.292c.188.434.572.141.786.334,0,.326-.477.051-.513.353a6.212,6.212,0,0,0,2.412.337,2.32,2.32,0,0,0,.649-.044c.871-.352,1.03-.265,1.141.784.053.5.034,1.01.048,1.515l-.038.033c-.121.106-.192.075-.222-.074a3,3,0,0,0-.264-1.462c-.257-.375-.6-.38-1.023-.3a1.853,1.853,0,0,1-1.383-.146l-2.613-.579h0c-.636-.6-1.667-.664-2.153-1.47" transform="translate(1.975 3.715)" fill="#fbf7f5"/>
    <path id="Path_12034" data-name="Path 12034" d="M27.9,70.834q.161.628.322,1.255c-.1.759-.6,1.037-1.335,1.033a2.572,2.572,0,0,0-.153-2.528,1.562,1.562,0,0,1,.156-1.79c1.009.326.541,1.291.886,1.9-.406.332-.1.844-.214,1.052a4.223,4.223,0,0,1,.029-.821.254.254,0,0,1,.31-.1" transform="translate(2.604 4.085)" fill="#365997"/>
    <path id="Path_12035" data-name="Path 12035" d="M26.82,73.169a2.513,2.513,0,0,1-1.043,1.274c-.356-.483-.385-1.163-.939-1.518-.248-.159-.446-.329-.25-.576s.669-.284.769-.017c.267.717,1.01.515,1.464.837" transform="translate(2.406 4.284)" fill="#365997"/>
    <path id="Path_12036" data-name="Path 12036" d="M27.889,70.98l-.23.007v0c-.262-.679-.134-1.5-.78-2.039-.478-.875.012-1.738.034-2.608a1.509,1.509,0,0,1,.222.074l.754,4.564" transform="translate(2.618 3.939)" fill="#365997"/>
    <path id="Path_12037" data-name="Path 12037" d="M21.681,78.394a24.38,24.38,0,0,0-.293,5.066c-.3-.216-.55-.565-.471-.854a27.369,27.369,0,0,0,.28-3.5.928.928,0,0,1,.484-.715" transform="translate(2.052 4.655)" fill="#365997"/>
    <path id="Path_12038" data-name="Path 12038" d="M23.977,77.21c-.7.582-1.92.258-2.369,1.272-.253-2.231,1.384-1.188,2.369-1.272" transform="translate(2.118 4.574)" fill="#365997"/>
    <path id="Path_12039" data-name="Path 12039" d="M24.461,64.55c.787.218,1.777-.583,2.4.443-.411-.252-.815-.066-1.237-.024s-.993.261-1.168-.418" transform="translate(2.401 3.827)" fill="#365997"/>
    <path id="Path_12040" data-name="Path 12040" d="M18.028,76.1c-.7-.678-.242-1.353.005-2.028a3.458,3.458,0,0,1-.005,2.028" transform="translate(1.733 4.398)" fill="#365997"/>
    <path id="Path_12041" data-name="Path 12041" d="M26.378,65.584l-1.668-.193.01-.094h1.655l0,.287" transform="translate(2.425 3.877)" fill="#365997"/>
    <path id="Path_12042" data-name="Path 12042" d="M20.179,66.522a1.846,1.846,0,0,1,0-2.03,3.4,3.4,0,0,1,0,2.03" transform="translate(1.951 3.829)" fill="#365997"/>
    <path id="Path_12043" data-name="Path 12043" d="M20.152,66.522q0-1.015,0-2.03a1.84,1.84,0,0,1,0,2.03" transform="translate(1.978 3.829)" fill="#365997"/>
    <path id="Path_12044" data-name="Path 12044" d="M18,76.1q0-1.014.005-2.028A1.845,1.845,0,0,1,18,76.1" transform="translate(1.766 4.398)" fill="#365997"/>
    <path id="Path_12045" data-name="Path 12045" d="M22.162,64c-.066.488-.361.594-.9.433l.9-.433h0" transform="translate(2.087 3.8)" fill="#365997"/>
    <path id="Path_12046" data-name="Path 12046" d="M19.991,64.311a1.415,1.415,0,0,1-.179-.36.226.226,0,0,1,.279-.278.326.326,0,0,1,.21.244c0,.088-.13.176-.31.394" transform="translate(1.944 3.78)" fill="#365997"/>
    <path id="Path_12047" data-name="Path 12047" d="M23.487,85.871c.224.03.4.094.37.3-.008.058-.205.129-.315.128-.144,0-.405.051-.316-.232.029-.09.186-.143.261-.2" transform="translate(2.278 5.099)" fill="#365997"/>
    <path id="Path_12048" data-name="Path 12048" d="M46.023,42.91c-1.508-.021-3.04.167-4.473-.49-.421-.333-1.556-.393-.523-1.279,3.107,1.31,5.748,1.116,8.634-1.588.239-.225.406-.765.911-.46.268.162.627.415.188.786-.2.382-.223.893-.792,1h0a2.247,2.247,0,0,0-.8.762c-.085,0-.169,0-.254.007-.249.188-.586.246-.787.5-.584.56-1.4.519-2.108.759Z" transform="translate(3.986 2.316)" fill="#fae4e2"/>
    <path id="Path_12049" data-name="Path 12049" d="M50.512,26.26c.105,1.073-.62.495-1.055.494-.8.137-1.611.124-2.408.26-.451-.144-.788.819-1.194.2-.292-.443.064-.916.415-1.341,1.108-1.342,1.165-1.373,3.454-.636.24.355.558.657.788,1.019" transform="translate(4.49 1.47)" fill="#dc7474"/>
    <path id="Path_12050" data-name="Path 12050" d="M54.274,30.36v.492c-.092.084-.182.167-.272.252-1,.317-1.126-.878-1.825-.978A7.5,7.5,0,0,1,53.7,31.649a.787.787,0,0,1,.08.945c-.2.264-.529.22-.812.037-.721-.826-1.457-1.642-2.159-2.484-.4-.476-.687-1.025-.167-1.578.484-.514.973-.016,1.418.121.935.289,1.344,1.274,2.218,1.671" transform="translate(4.943 1.683)" fill="#ef8b90"/>
    <path id="Path_12051" data-name="Path 12051" d="M41.706,31.5a3.783,3.783,0,0,1,.472-2.157c.174-.343.318-.61.748-.489.461.131.369.522.329.84-.067.539-.508.968-.5,1.546.014.7-.569,1.648.846,1.735.113.006.291.328.29.5,0,.3-.3.353-.561.4-.993.172-1.589-.269-1.625-1.221-.013-.335,0-.671,0-1.155" transform="translate(4.091 1.711)" fill="#373b5d"/>
    <path id="Path_12052" data-name="Path 12052" d="M38.506,28.228c-.551.229-1.139.53-1.631-.037a2.011,2.011,0,0,1-.137-2.406,1.063,1.063,0,0,1,1.692.1,1.52,1.52,0,0,1,.076,2.348" transform="translate(3.573 1.509)" fill="#373b5d"/>
    <path id="Path_12053" data-name="Path 12053" d="M44.285,35.513c.291.061.8.156,1.3.279.444.108.7.379.515.832-.169.416-.5.368-.863.2a2.153,2.153,0,0,0-2.82.413.47.47,0,0,1-.684.129c-.32-.24-.208-.52-.024-.778a2.721,2.721,0,0,1,2.573-1.075" transform="translate(4.077 2.108)" fill="#373b5d"/>
    <path id="Path_12054" data-name="Path 12054" d="M49.118,22.882c.547.189,1.095.448,1.624-.037.435-.1.79-.068.82.479a5.779,5.779,0,0,1-5.033.276c-.343-.13-.859-.24-.711-.738.132-.444.63-.379,1.01-.37.781.018,1.48.5,2.289.39" transform="translate(4.495 1.335)" fill="#373b5d"/>
    <path id="Path_12055" data-name="Path 12055" d="M35.96,25.591c0-.264,0-.528,0-.791.276-.282.672-.291,1.015-.422a9.339,9.339,0,0,0,2.945-1.327l.243,0a9.586,9.586,0,0,1-1.307,2.789c-.7-.079-1.4-.217-2.105-.252H35.96" transform="translate(3.529 1.369)" fill="#fae4e2"/>
    <path id="Path_12056" data-name="Path 12056" d="M49.367,27.549c.1.5,1.157.053.913.746-.17.481-.8.584-1.345.583-.982,0-2.023.182-2.75-.777.155-.422.769-.108.911-.519a12.138,12.138,0,0,1,2.271-.033" transform="translate(4.533 1.634)" fill="#dc7474"/>
    <path id="Path_12057" data-name="Path 12057" d="M53.8,35.5a1.676,1.676,0,0,1-.947.924,3.439,3.439,0,0,0-2.222,2.687c-1.365-.726-.3-1.415.112-1.99.583-.811,1.7-1.142,2.2-2.074.284.155.78-.064.859.453" transform="translate(4.904 2.081)" fill="#e4878c"/>
    <path id="Path_12058" data-name="Path 12058" d="M53.535,35.63c-.121-.442-.893.262-.859-.453a6.471,6.471,0,0,0,.881-2.228c.107-.243.3-.192.494-.136.147.25.305.494.438.75.612,1.175.425,1.574-.954,2.067" transform="translate(5.17 1.946)" fill="#373b5d"/>
    <path id="Path_12059" data-name="Path 12059" d="M51.072,41.232l.574.789h0c.045.829.775,1.32,1.076,2.022-.359.335-.724.214-1.09.014a3.963,3.963,0,0,1-1.275-2.6c.209-.164.414-.335.715-.225" transform="translate(4.943 2.446)" fill="#deeafa"/>
    <path id="Path_12060" data-name="Path 12060" d="M36.679,25.46c.725-.1,1.48-.435,2.1.252.266.39.231.936.932,1.086.544.115.535.864.035.832-.673-.046-.72.71-1.269.606.519-1.8-.036-2.564-1.769-2.443l-.032-.333" transform="translate(3.6 1.502)" fill="#fae4e2"/>
    <path id="Path_12061" data-name="Path 12061" d="M54.188,33.012l-.494.136-.82-.581c.931,0,.951-.378.423-.971a12.978,12.978,0,0,1-2.012-2.172c1.238.189,1.739,1.189,2.627,1.616.31.629-.306,1.379.277,1.973" transform="translate(5.034 1.747)" fill="#fae4e2"/>
    <path id="Path_12062" data-name="Path 12062" d="M34.67,36.1l-.87-1.244q-.028-.421-.058-.844c.015.818,3.283.29.928,2.088" transform="translate(3.312 2.019)" fill="#fae4e2"/>
    <path id="Path_12063" data-name="Path 12063" d="M49.294,27.616a2.313,2.313,0,0,1-2.271.032c-.031-.244-.06-.487-.091-.731a2.057,2.057,0,0,1,2.408-.26l-.046.959" transform="translate(4.607 1.566)" fill="#373b5d"/>
    <path id="Path_12064" data-name="Path 12064" d="M51.518,43.9l1.09-.014,1.279.777,0,0q-.128.248-.255.5l0,0a1.044,1.044,0,0,1-1.04-.257c-.328-.364-.873-.515-1.074-1.005" transform="translate(5.057 2.606)" fill="#deeafa"/>
    <path id="Path_12065" data-name="Path 12065" d="M50.126,42.621c.517.127.224.7.469.992.114.139.11.5-.174.481a1.06,1.06,0,0,1-.954-.876c-.075-.341.3-.456.659-.6" transform="translate(4.854 2.531)" fill="#fae4e2"/>
    <path id="Path_12066" data-name="Path 12066" d="M51.076,41.355a.993.993,0,0,1-.715.225c.161-.814-.337-1.684.231-2.463l.283.232c.243.232.152.49.061.748q.069.629.139,1.259" transform="translate(4.938 2.323)" fill="#373b5d"/>
    <path id="Path_12067" data-name="Path 12067" d="M52.565,44.847a1.746,1.746,0,0,1,1.04.257l-.244.533a.45.45,0,0,0-.655-.163c-.2.11-.091.724-.58.339a.623.623,0,0,1-.309-.643c.1-.392.462-.289.747-.323" transform="translate(5.085 2.663)" fill="#fae4e2"/>
    <path id="Path_12068" data-name="Path 12068" d="M51.141,23.319l-.82-.478a.536.536,0,0,1-.222-.06c.385-.351.864-.153,1.3-.209.387-.014.854-.007,1.028.31.158.292-.477.182-.513.5l-.772-.059" transform="translate(4.917 1.34)" fill="#373b5d"/>
    <path id="Path_12069" data-name="Path 12069" d="M49.132,40.832l.792-1c.04.538.526,1.056.085,1.635-.457-.015-.482-.566-.876-.632" transform="translate(4.823 2.365)" fill="#fae4e2"/>
    <path id="Path_12070" data-name="Path 12070" d="M45.538,42.736a6.9,6.9,0,0,1,2.107-.759c-.214,1.515-1.376.579-2.107.759" transform="translate(4.47 2.492)" fill="#fae4e2"/>
    <path id="Path_12071" data-name="Path 12071" d="M41.061,41.03c-.551.7.209.906.523,1.28-.672.112-.943-.409-1.314-.773-.044-.618.163-.87.792-.506" transform="translate(3.952 2.426)" fill="#fae4e2"/>
    <path id="Path_12072" data-name="Path 12072" d="M53.223,46.051a2.074,2.074,0,0,1-.726,1.282c.012-.549.026-1.1.726-1.282" transform="translate(5.153 2.734)" fill="#fae4e2"/>
    <path id="Path_12073" data-name="Path 12073" d="M50.156,26.233a1.258,1.258,0,0,1-.788-1.02,1.157,1.157,0,0,1,.788,1.02" transform="translate(4.846 1.497)" fill="#dc7474"/>
    <path id="Path_12074" data-name="Path 12074" d="M39.836,42.043q-.013-.629-.025-1.26l.51.756-.484.5" transform="translate(3.908 2.422)" fill="#fae4e2"/>
    <path id="Path_12075" data-name="Path 12075" d="M48.406,41.538a.753.753,0,0,1,.8-.762,1.546,1.546,0,0,1-.8.762" transform="translate(4.751 2.421)" fill="#fae4e2"/>
    <path id="Path_12076" data-name="Path 12076" d="M47.458,42.005c.027-.51.406-.507.787-.5a.794.794,0,0,1-.787.5" transform="translate(4.658 2.464)" fill="#fae4e2"/>
    <path id="Path_12077" data-name="Path 12077" d="M51.531,42.084c.568-1.1,1.83-1.282,2.746-1.92.08-.056.326.042.449.128.148.1.15.264.042.435a7.442,7.442,0,0,1-3.237,1.357h0" transform="translate(5.058 2.384)" fill="#f08e91"/>
    <path id="Path_12078" data-name="Path 12078" d="M50.888,40.167c-.022-.249-.042-.5-.063-.748.8-.429,1.6-.86,2.406-1.285.27-.142.594-.332.791.039.17.321-.205.386-.4.535a14.58,14.58,0,0,1-2.739,1.459" transform="translate(4.989 2.254)" fill="#ec8c92"/>
    <path id="Path_12079" data-name="Path 12079" d="M54,43.722c-.161-.314-.715-.188-.761-.617-.031-.3-.015-.729.433-.485a.966.966,0,0,0,1.167-.011c.32-.209.455.091.449.372a1.372,1.372,0,0,1-.491,1,.861.861,0,0,1-.8-.257" transform="translate(5.225 2.526)" fill="#f08d93"/>
    <path id="Path_12080" data-name="Path 12080" d="M53.676,44.657a.554.554,0,0,1,.261-.515.575.575,0,0,1,.787,0c-.188.475-.6.529-1.047.517l0,0" transform="translate(5.269 2.612)" fill="#ef8790"/>
    <path id="Path_12081" data-name="Path 12081" d="M54.7,44.161h-.787l.02-.505c.294,0,.6-.037.8.257-.007.084-.016.165-.03.248" transform="translate(5.292 2.592)" fill="#ea8a85"/>
    <path id="Path_12082" data-name="Path 12082" d="M28.361,74.454c1.364-.441,2.726-.889,4.1-1.309a.509.509,0,0,1,.421.186c.115.165-.04.362-.187.409a18.339,18.339,0,0,1-4.174,1.175c-.053-.154-.1-.307-.157-.461" transform="translate(2.784 4.343)" fill="#ef8e92"/>
    <path id="Path_12083" data-name="Path 12083" d="M29.274,76.836c-.189-.136-.345-.434-.191-.516.939-.494,1.407-1.633,2.622-1.745.612-.056.748.247.727.735-.8,1-2.127.976-3.158,1.525" transform="translate(2.848 4.428)" fill="#fae4e2"/>
    <path id="Path_12084" data-name="Path 12084" d="M29.251,76.8c.81-.976,2.132-.966,3.158-1.526.316.181.853-.39.971.138.1.435-.467.553-.829.6-1.134.143-2.06,1.08-3.3.789" transform="translate(2.871 4.464)" fill="#ee8d8e"/>
    <path id="Path_12085" data-name="Path 12085" d="M25.366,77.884H23.81c.426-.07.786-.648,1.556,0" transform="translate(2.337 4.606)" fill="#fae4e2"/>
    <path id="Path_12086" data-name="Path 12086" d="M28.309,73.191c0,.171-.02.346-.249.349a.306.306,0,0,1-.336-.292c0-.089.125-.214.225-.262.193-.091.317.008.36.206" transform="translate(2.721 4.332)" fill="#fae4e2"/>
    <path id="Path_12087" data-name="Path 12087" d="M28.331,64.046c.757.085,1.3-.618,2.066-.511-1.066.763-.569,2.155-1.319,3.045a5.585,5.585,0,0,1-.747-2.534" transform="translate(2.78 3.772)" fill="#365997"/>
    <path id="Path_12088" data-name="Path 12088" d="M56.321,66.408c.347.289.314.634.156,1.05-.283-.353-.1-.718-.157-1.05Z" transform="translate(5.527 3.943)" fill="#365997"/>
    <path id="Path_12089" data-name="Path 12089" d="M38.324,40.4l.936,1.045c-.182.1-.5.311-.528.278a5.9,5.9,0,0,1-.8-1.041c-.086-.146.1-.284.393-.281" transform="translate(3.721 2.399)" fill="#373b5d"/>
    <path id="Path_12090" data-name="Path 12090" d="M40.083,23.065a3.41,3.41,0,0,1-2.853,1.547,2.349,2.349,0,0,1-1.439.011c-.567-.044-1.212.1-1.517-.579.516-.159,1.118.261,1.587-.217a8.829,8.829,0,0,1,2.359-.806c.529-.09,1.058-.4,1.59-.011l.272.056" transform="translate(3.364 1.355)" fill="#373b5d"/>
    <path id="Path_12091" data-name="Path 12091" d="M38.1,23.033a5.566,5.566,0,0,1-2.358.807c.029-.167-.689-.418.035-.493.637-.066,1.325.047,1.542-.771a.811.811,0,0,1,.781.457" transform="translate(3.48 1.34)" fill="#fae4e2"/>
    <path id="Path_12092" data-name="Path 12092" d="M35.656,24.522l1.437-.011-1.106.2-.085-.047-.092.032a.928.928,0,0,0-.155-.177" transform="translate(3.5 1.455)" fill="#fae4e2"/>
    <path id="Path_12093" data-name="Path 12093" d="M27.594,70.728v1.223c-.275-.418-.393-.832,0-1.221h0" transform="translate(2.684 4.2)" fill="#365997"/>
    <path id="Path_12094" data-name="Path 12094" d="M46.337,22.879c.535-.047.884-.193,1.137.226-.411.376-.686.082-1.137-.226" transform="translate(4.548 1.355)" fill="#373b5d"/>
    <path id="Path_12095" data-name="Path 12095" d="M54.188,33.923c.057.588.029,1.106-.423,1.039-.5-.075-.4-.385.074-.543.118-.039.176-.239.349-.5" transform="translate(5.245 2.014)" fill="#373b5d"/>
    <path id="Path_12096" data-name="Path 12096" d="M47.328,27.147c.482-.233.908-.721,1.486-.285a.335.335,0,0,1,.033.543c-.556.483-1.02.015-1.519-.258" transform="translate(4.645 1.585)" fill="#373b5d"/>
  </g>
</svg>
