<svg xmlns="http://www.w3.org/2000/svg" xmlns:xlink="http://www.w3.org/1999/xlink" width="217" height="208" viewBox="0 0 217 208">
  <defs>
    <clipPath id="clip-path">
      <rect id="Rectangle_110" data-name="Rectangle 110" width="217" height="208" fill="none"/>
    </clipPath>
    <clipPath id="clip-path-2">
      <rect id="Rectangle_1628" data-name="Rectangle 1628" width="37.076" height="56.547" fill="#deeafa"/>
    </clipPath>
    <clipPath id="clip-path-3">
      <rect id="Rectangle_1629" data-name="Rectangle 1629" width="34.435" height="26.126" fill="none"/>
    </clipPath>
  </defs>
  <g id="Group_1270" data-name="Group 1270" transform="translate(5577 -943.693)">
    <g id="Group_1" data-name="Group 1" transform="translate(-5577 943.693)" clip-path="url(#clip-path)">
      <path id="Path_3664" data-name="Path 3664" d="M129.714,123.866c-.345,7.358-.765,14.713-.989,22.074-.064,2.1-.684,3-2.829,2.651a7.492,7.492,0,0,0-1.645.095c-2.776,1.322-5.68.611-8.53.462-1.091-.059-2.182-.273-3.292-.276-3.574-.009-3.636-.079-3.742-3.741,0-3.462.468-6.9.554-10.357.727-2.839.289-5.753.525-8.632.466-5.686.653-11.4,1.02-17.1.49-7.591.658-15.208,1.761-22.749-2.08,15.355-5.15,30.547-7.707,45.824-.857,4.445-1.6,8.911-2.353,13.375-.582,3.436-1.06,3.815-4.606,3.807q-5.213.129-10.426.009-2.057.062-4.116.005c-2.568-.071-3.15-.79-2.63-3.344.423-2.076,1-4.119,1.513-6.174q4.47-19.874,9.084-39.717c1.375-5.909,2.684-11.831,4.113-17.727C97.478,73,99.642,63.665,101.836,54.34a3.215,3.215,0,0,1,.838-1.853,6,6,0,0,1,3.449.05c5.042.794,9.986,0,14.939-.763a7.134,7.134,0,0,1,2.435-.283c1,.3,1.248,1.2,1.595,2.014.919,2.148,1.7,4.349,2.447,6.561,1.318,4.059,2.225,8.268,4.39,12.024a12.9,12.9,0,0,1,.384,6.135c-.6,4.59-.431,9.208-.622,13.8-.338,8.1-1.018,16.2-.965,24.313.017,2.561-.751,5.01-1.013,7.529" transform="translate(56.12 37.332)" fill="#373b5d"/>
      <path id="Path_3665" data-name="Path 3665" d="M181.07,112a15.965,15.965,0,0,0,5.065.771,122.867,122.867,0,0,1,21.539,3.384,17.69,17.69,0,0,1,3.276,1.242,2.918,2.918,0,0,1,1.936,2.49,3.135,3.135,0,0,1-1.974,2.48,9.492,9.492,0,0,1-.956.393c-4.229,1.774-8.738,2.34-13.224,2.871-9.153,1.084-18.314,2.007-27.557,2.192-6.329.128-12.66.711-19,.723q-23.252.047-46.508-.005c-6.281-.019-12.561-.309-18.838-.487-7.3-.209-14.608-.459-21.907-.789-8.383-.378-16.755-1.015-25.124-1.641-6.1-.456-12.2-.94-18.267-1.672-4.485-.54-9.075-.639-13.358-2.373-.447-.179-.9-.337-1.352-.514a2.6,2.6,0,0,1-1.945-2.416,2.754,2.754,0,0,1,1.829-2.33,38.832,38.832,0,0,1,15.47-3.89,72.559,72.559,0,0,0,10.137-.954,2.042,2.042,0,0,1,1.65.744c1.678,1.743,3.768,2.055,6.078,2.052,25.822-.035,51.642-.072,77.463.036,3.564.014,6.383-.809,8.365-3.85a1.976,1.976,0,0,1,.791-.652c5.8-.314,11.59.468,17.392.352a3.374,3.374,0,0,1,2,.418c.814,1.819.229,3.513-.466,5.2-.994,1.229-2.635,1.745-3.486,3.142-.774,1.277-.594,1.948.729,1.979,3.7.086,7.408.133,11.112-.028a1.34,1.34,0,0,0,.731-.345,2.746,2.746,0,0,0,.383-2.174,45.4,45.4,0,0,1,.435-7.177c.08-.689-.054-1.6,1.046-1.712a3.64,3.64,0,0,0,3.2,1.077c3.733-.231,7.425.518,11.152.443a3.017,3.017,0,0,1,1.784.428c.971,1.377.587,2.873.381,4.354a10.009,10.009,0,0,0,.128,5.032,1.724,1.724,0,0,0,1.3.542c3.519.052,7.039.081,10.556-.012,1.415-.036,1.761-.873.9-2.06a19.355,19.355,0,0,0-2.159-2.217c-1.889-1.993-2.014-2.9-.707-5.046" transform="translate(-0.695 79.427)" fill="#deeafa"/>
      <path id="Path_3666" data-name="Path 3666" d="M114.163,186.17c-1.725,3.714-4.611,5.279-8.734,5.268q-38.972-.106-77.945,0a9.288,9.288,0,0,1-7.92-3.61,12.891,12.891,0,0,1-1.157-5.995c.045-9.7.023-19.408.014-29.113,0-.821-.081-1.643-.123-2.464a3.108,3.108,0,0,1-.7-2.314c.012-18.606-.1-37.212.05-55.818.005-1.184-.087-2.371-.012-3.557.1-2.2-.1-4.392-.007-6.587.126-4.475-.045-8.953.147-13.425-.168-4.906-.166-9.812-.147-14.718-.08-4.494-.009-8.987.042-13.481a5.49,5.49,0,0,1,.147-1.577,40.3,40.3,0,0,0,.035-10.431,57.347,57.347,0,0,1-.194-7.593,2.66,2.66,0,0,1,.653-1.7c.038-1.769.106-3.539.107-5.31.01-4.754,1.648-7.158,6.076-8.844a71.677,71.677,0,0,1,7.654-.16c21.152-.678,42.308-.492,63.463-.45,4.126.009,8.244.573,12.383.559,3.363.844,5.605,2.8,6.313,6.292a14.938,14.938,0,0,1,.5,5.437c-.038,2.937-1.425,3.848-4.416,2.932a5.091,5.091,0,0,1-.641-2.571,6.335,6.335,0,0,0-6.08-5.507c-.62-.041-1.243-.033-1.867-.033q-35.408,0-70.816,0a9.366,9.366,0,0,0-4.076.571,6.367,6.367,0,0,0-3.718,5.134,20.862,20.862,0,0,0-.114,3.306q-.005,77.5,0,155c0,7.165,2.2,9.365,9.458,9.37q33.951.023,67.907.005c.554,0,1.108,0,1.661-.029,5.389-.316,7.716-2.746,7.718-8.147q.016-58.46.012-116.922a12.666,12.666,0,0,1,.26-3.907c.738-1.389,1.932-.977,3.037-.7a2.064,2.064,0,0,1,1.629,2.074c.029.473.045.946.074,1.418.064.644.341,1.246.365,1.9a26.39,26.39,0,0,1,.119,3.717c-.023,16.682.054,33.362-.035,50.042.05,18.119.1,36.24-.05,54.358a17.538,17.538,0,0,1-.14,2.728,7.021,7.021,0,0,0,0,3.6,44.311,44.311,0,0,1,.139,6.7c-.052,1.591.235,3.261-1.074,4.557" transform="translate(10.054 3.076)" fill="#365997"/>
      <path id="Path_3667" data-name="Path 3667" d="M29.77,68.309c.05.687.142,1.372.144,2.059q.013,27.422,0,54.848c0,.476-.078.954-.121,1.432a2.348,2.348,0,0,1-1.694-.59A83.1,83.1,0,0,1,15.427,114.33,54.894,54.894,0,0,1,5.2,97.09,56.156,56.156,0,0,1,1.862,78.855,71.3,71.3,0,0,1,3.841,60.42,126.449,126.449,0,0,1,9.446,43.579c.944-2.33,2.185-4.538,3.292-6.8,1.287-.057,1.957.934,2.7,1.686A92.632,92.632,0,0,0,26.98,48.477c1.61,1.167,2.632,2.418,2.417,4.614a18.22,18.22,0,0,0,.369,5.282q.013,3.3.029,6.6c-1.287-.2-1.307-1.384-1.73-2.236-3.269-6.568-7.243-12.63-12.75-17.579-.84-.756-1.863-1.936-3.036-1.167-1.368.9-.386,2.312.048,3.368a36.524,36.524,0,0,0,6.8,10.287A132.281,132.281,0,0,0,29.77,68.309" transform="translate(-1.444 26.683)" fill="#deeafa"/>
      <path id="Path_3668" data-name="Path 3668" d="M108.935,127.19q.584-14.04,1.167-28.08.408-9.707.84-19.413a14.2,14.2,0,0,0-.41-4.7.622.622,0,0,1-.173-.568c.847-2.573,1.363-5.117.255-7.795-.3-.74.421-1.534.961-2.186,3.688-4.461,7.036-9.2,10.881-13.527,1.082-1.218.992-2.815,1.83-4.057.327,3.327,2.559,5.781,4.178,8.437a63.091,63.091,0,0,1,7.643,19.243c1.5,6.716,1.771,13.638-.256,20.363a43.286,43.286,0,0,1-10.076,17.738,60.7,60.7,0,0,1-14.488,11.512,4.291,4.291,0,0,0-2.352,3.03" transform="translate(76.898 34.009)" fill="#deeafa"/>
      <path id="Path_3669" data-name="Path 3669" d="M117.254,66.674a47.114,47.114,0,0,1-21.036.87c-1.233-1.755-1.276-3.826-1.541-5.829-.343-2.575-.367-5.179-.691-7.753-1.158-3.917-2.9-7.632-4.073-11.545a4.157,4.157,0,0,1,.973-4.911,23.139,23.139,0,0,0,2.2-2.739c1.853-2.673,4.492-3.729,7.61-3.909a4.872,4.872,0,0,1,2.507,1.3c2.014,1.746,4.073,1.912,6.17.247a4.665,4.665,0,0,1,4.2-.878c5.577.885,8.663,5.123,12.081,8.915.469.519.232,1.006-.055,1.494a25.9,25.9,0,0,1-3.494,6.854,14.165,14.165,0,0,0-1.157,2.162c-.54.414-.468,1.966-1.778.963-.222-3.441.726-6.835.448-9.441-.7,5.658.021,12.235-1.247,18.69a3.279,3.279,0,0,0,.038,1.232c-.114,1.5-.055,3.044-1.152,4.28" transform="translate(62.675 22.391)" fill="#365997"/>
      <path id="Path_3670" data-name="Path 3670" d="M94.446,31.678c1.725-3.669,4.982-4.9,8.665-4.932,2-.021,2.48-.616,2.185-2.4-.258-1.56.558-2.949.939-4.393.3-1.149,1.427-1.624,2.519-1.931a17.465,17.465,0,0,1,6.592-.192c6.171.626,12.016-.271,17.155-4.01a9.6,9.6,0,0,0,2.492-2.457c.888-1.4,1.834-1.4,3.131-.74,5.041,2.568,10.035,11.707,9.4,17.255-.62,5.377-5.351,9.726-11.768,10.9-4.556.83-8.481-.623-12.023-3.294-2.147-1.619-4.078-3.522-6.2-5.177-2.694-2.1-5.631-3.619-9.669-3.089,3.709,2.9,4.866,6.435,4.062,10.576-.53,2.735-2.206,4.859-4.137,6.789-.961-.152-.788-.868-.767-1.512a12.528,12.528,0,0,0,1.586-5.679c-.007-1.4-.532-2.28-2.023-2.267-2.653.021-5.245-.04-7.214-2.252-.5-.557-.848.048-1.1.438-.481.751-.842,1.572-1.321,2.33-.384.469-.514,1.284-1.42,1.056-1.784-1.365-1.938-3.08-1.084-5.011" transform="translate(65.931 7.395)" fill="#373b5d"/>
      <path id="Path_3671" data-name="Path 3671" d="M31.122,85.057a11.882,11.882,0,0,1-.732-4.966,4.665,4.665,0,0,0-2.225-4.442A98.778,98.778,0,0,1,15.046,64.243c-.291-.288-.634-.523-.951-.783a41.762,41.762,0,0,1-3.583-5.7c-.14-.307-.461-.578-.485-.884-.083-1.06-.639-2.406.261-3.1s2.14-.029,3.037.592c1.281.892,2.461,1.929,3.685,2.9A4.975,4.975,0,0,1,19.559,58.9a78.485,78.485,0,0,1,9.616,12.4c-.429-2.858-.72-5.743-1.01-8.626a3.815,3.815,0,0,0-2.024-3.117c-1.356-.835-2.848-1.408-4.185-2.271a16.561,16.561,0,0,1-3.707-2.93c-3.332-2.6-7.055-4.739-9.718-8.145C7.508,44.9,5.976,43.148,6.935,41.951c1.046-1.306,3-.052,4.44.751A54.225,54.225,0,0,1,19.952,49c2.854,1.739,4.835,4.4,7.138,6.771-.317-4.264-1.671-8.33-1.782-12.57-.038-1.76-1.64-1.905-2.715-2.4A64.958,64.958,0,0,1,7.768,31.994a10.75,10.75,0,0,1-2.649-3.386,1.555,1.555,0,0,1,0-1.591c.381-.557.971-.318,1.515-.181,4.561,1.134,8.1,4.04,11.692,6.8a23.9,23.9,0,0,1,4.956,4.649c.215.292.532.576.861.435.5-.214.277-.7.166-1.065-.9-2.939-1.941-5.84-2.665-8.816a2.917,2.917,0,0,0-2.812-2.469A44.723,44.723,0,0,1,5.306,22.161a11.757,11.757,0,0,1-4.881-4.3C-.429,16.518.042,15.928,1.5,15.937c2.57.017,4.812,1.2,7.044,2.228A44.326,44.326,0,0,1,20.4,25.524a33.782,33.782,0,0,0-5.739-11.35c-1.432-1.855-3.8-1.339-5.72-1.928A54.584,54.584,0,0,1,3.5,10.3c-.641-.273-1.548-.816-1.243-1.667.334-.939,1.257-.526,1.993-.359A34.644,34.644,0,0,1,13.5,12.083a4.065,4.065,0,0,0-.6-2.616A24.486,24.486,0,0,1,11.289,3.93,3.747,3.747,0,0,1,11.848.963c.958-1.329,1.688-1.3,2.315.186a10.084,10.084,0,0,1,.746,3.418c.121,2.473.279,4.946.377,7.42a3.121,3.121,0,0,0,.693,1.877,33.642,33.642,0,0,1,4.3,8.1c.118-3.2-.691-6.017.033-8.851.509-1.991,1.115-3.833,2.945-4.992,1.3-.82,2.248-.359,2.433,1.182a19.61,19.61,0,0,1-.549,5.734,48.133,48.133,0,0,1-2.165,8.147A7.673,7.673,0,0,0,22.8,28.9c1,2.654,1.643,5.437,2.646,8.154a45.868,45.868,0,0,1,1.122-8.682c.717-2.649,1.82-5.072,4.6-6.236.088,6.6.416,13.2.026,19.807-.925-.816-.592-1.917-.618-2.911-.048-1.72-.047-3.446.024-5.475a12.652,12.652,0,0,1-1.479,2.975c-2.416,2.83-2.525,5.938-1.444,9.3a22.608,22.608,0,0,1,.932,5.122,27.546,27.546,0,0,1,1-5.846c.216-.8.32-1.822,1.519-1.9.242,4.537.168,9.075.045,13.614a6.853,6.853,0,0,0-.945,5.13,75.215,75.215,0,0,1,.694,8.425c.028.466-.3,1.032.267,1.406.154,4.426.175,8.853-.059,13.279" transform="translate(-2.8 -0.001)" fill="#365997"/>
      <path id="Path_3672" data-name="Path 3672" d="M109.385,28.213c-.125,1.8-.128,3.572,1.321,4.958a3.257,3.257,0,0,1,1.181,1.465c.625,2.081.959,4.255,2.211,6.126a1.544,1.544,0,0,1-.109,2.069,2.548,2.548,0,0,1-1.655-.109c-5.365.33-7.654,4.559-10.442,8.164-.8,1.039.147,1.964.137,2.949a3.879,3.879,0,0,1-.8,2.5c-2.132,3.379-4.379,6.683-6.668,9.957-1.349,1.931-1.744,1.917-3.129.088-3.081-4.067-5.758-8.412-8.748-12.545a4.853,4.853,0,0,0-3.43-1.953c-1.879-.349-3.87.028-5.65-.89C73.4,48,73.4,48,76.373,47.947c10.365-.2,18.443-7.945,18.719-18.219a17.418,17.418,0,0,0-3.524-10.8,21.963,21.963,0,0,1-1.617-2.392c-.222-.518-.487-1.035-.038-1.567,4.069,2.744,8.057,5.593,11.872,8.687,1.91,1.55,3.99,2.892,5.952,4.385.57.433,1.044.611,1.648.174" transform="translate(50.992 10.86)" fill="#deeafa"/>
      <path id="Path_3674" data-name="Path 3674" d="M107.466,45.953q2.506-4.338,5.015-8.677c.876,2.143,2.616,3.667,4.042,5.389,2.45,2.961,5.11,5.753,7.711,8.59a3.934,3.934,0,0,1,1.164,2.571c.554,3.232-2.026,4.908-3.614,7.016-2.376,3.154-5,6.124-7.4,9.261a18.926,18.926,0,0,1-1.4,1.695c-.578.6-1.281,1.479-.826,2.186,1.73,2.692.516,5.1-.44,7.572a2.206,2.206,0,0,0-.081.4c-2.326-2.761-2.4-6.4-3.718-9.548a13.533,13.533,0,0,1-.507-1.971,4.677,4.677,0,0,1,.726-2.116c2.1-3.467,3.7-7.22,5.941-10.609a3.8,3.8,0,0,0-.374-5.2,44.28,44.28,0,0,1-4.324-5.527c-.478-.754-1.248-.756-1.92-1.039" transform="translate(75.789 27.048)" fill="#f9ccc7"/>
      <path id="Path_3675" data-name="Path 3675" d="M105.071,7.669q-41.751.026-83.5.05c.552-.6,1.288-.392,1.953-.4a85.611,85.611,0,0,1,8.906.041c4.764.461,9-.833,13.209-2.859C50.837,2,56.477,1.264,62.185.629A53.268,53.268,0,0,1,74.308.8a74.287,74.287,0,0,1,17.2,3.865c3.718,1.37,7.34,3.434,11.6,2.668a2.11,2.11,0,0,1,1.969.335" transform="translate(12.98 0.259)" fill="#deeafa"/>
      <path id="Path_3676" data-name="Path 3676" d="M112.536,114.749c-.313,1.615-.838,3.27.826,4.526-1.657.728-3.38.053-5.067.219a17.758,17.758,0,0,1-3.089,0c-1.716-.131-2.592.447-2.462,2.307a2.6,2.6,0,0,1-.668,2.471,9.183,9.183,0,0,1-.248-5.039,42.344,42.344,0,0,0,.331-4.894,4.142,4.142,0,0,1-.149-.6c-.345-3.311-.341-3.322-3.519-3.836-.88-.141-1.664-.424-1.771-1.413-.109-1.016-.584-2.193.786-2.825.106,3.387.106,3.362,3.669,3.415,3.785.055,7.571.167,11.356.255l.005,5.408" transform="translate(67.839 76.678)" fill="#f9ccc7"/>
      <path id="Path_3677" data-name="Path 3677" d="M11.06,31.5q4.595,2.713,9.19,5.422a1.929,1.929,0,0,1,1.115,1.4c.431,3.805.836,7.612,1.318,12.031C18.7,44.312,14.9,38.842,9.824,34.417c.994-.727,1.771-1.546,1.236-2.916" transform="translate(4.388 22.858)" fill="#deeafa"/>
      <path id="Path_3678" data-name="Path 3678" d="M90.221,20.882c-4.32-3.96-9.328-6.052-15.275-5.543-.973.083-1.37-.228-1.323-1.248.081-1.788.057-3.579.078-5.37a10.087,10.087,0,0,1,5.721,4.226c.185.307.32.349.539.324,1.474-.171,2.383.82,3.47,1.539q3.319,2.2,6.412,4.687c.126.461.251.923.377,1.384" transform="translate(51.062 6.328)" fill="#deeafa"/>
      <path id="Path_3679" data-name="Path 3679" d="M16.878,25.037A83.983,83.983,0,0,1,19.193,38.9c-2.4-2.9-5.178-5.348-7.671-8.067,1.68,1.123,2.707.414,3.451-1.191.7-1.51,2.263-2.664,1.9-4.609" transform="translate(5.63 18.167)" fill="#deeafa"/>
      <path id="Path_3680" data-name="Path 3680" d="M95.938,32.452l1.628-.047c.3-.925.627-1.681,1.9-1.622a14.062,14.062,0,0,0,6.466-1.664c.054.592-.379,1.294.4,1.72-.362.708-.485,1.32.568,1.5.66.116,1.408-.159,1.957.442a5.047,5.047,0,0,0-3.591,1.18c-2.623,2.269-5.023,1.924-7.557-.621-.551-.552-1.332-.319-1.768-.892" transform="translate(67.39 21.13)" fill="#e8c0bc"/>
      <path id="Path_3681" data-name="Path 3681" d="M73.738,143.556a90.728,90.728,0,0,1-.1-10.452.453.453,0,0,1,.246.5c.116-.117.035-.262.047-.392.395-3.967,1.1-7.884,1.891-11.79a2.017,2.017,0,0,1,1.195-1.579c4.014-1.714,7.822-3.852,10.1-4.937-1.787.909-5.229,2.614-8.675,4.312-.54.266-1.126.747-1.732.362-.75-.475-.39-1.277-.261-1.905.951-4.644,1.934-9.282,2.9-13.922a2.787,2.787,0,0,1,1.669-2.162c2.961-1.408,5.759-3.134,8.729-4.533-2.558,1.208-5.029,2.576-7.515,3.914-.525.283-1.087.783-1.721.4-.726-.438-.287-1.113-.156-1.681.951-4.157,2.052-8.28,3.039-12.428a3.227,3.227,0,0,1,1.268-2.045c1.465-1.02,2.874-2.119,4.365-3.106q-1.7,1.18-3.406,2.359c-.336.233-.717.5-1.115.15-.294-.262-.2-.647-.114-.97a26.989,26.989,0,0,0,.916-3.375c.684-1.641.814-3.439,1.527-5.073-.646,1.66-.919,3.425-1.538,5.1-1.6,6.107-3.287,12.19-4.741,18.333-1.5,6.349-2.991,12.7-4.087,19.129-.7,4.117-1.823,8.164-2.133,12.347-.028.369-.119.68-.6.6-.038-3.432-.1-6.865-.107-10.3q-.018-21.552,0-43.1c0-.409.052-.82.08-1.229,1.508-3.31,3.995-5.917,6.424-8.511a77.126,77.126,0,0,1,10.6-9.836c1.8-1.315,2.168-1.256,3.124.842a158.333,158.333,0,0,1,7.233,19.947q-6.088,26.514-12.177,53.025c-.319,1.391-.674,2.773-1.011,4.159a42.507,42.507,0,0,1-11.254,7.408c-.861.419-1.825,1.041-2.9.44" transform="translate(50.978 41.254)" fill="#365997"/>
      <path id="Path_3682" data-name="Path 3682" d="M101.042,93.257c-.32.121-.611.286-.75-.259a136.171,136.171,0,0,0-7.049-19.793c-.582-1.367-.956-1.417-2.113-.5A104.808,104.808,0,0,0,73.664,90.815c-.035-.685-.1-1.37-.1-2.054q-.008-24.355,0-48.71c0-1.167.062-2.335.1-3.5,2.795.235,4.272,2.288,5.5,4.343C82.774,46.908,86.351,52.938,90.2,58.8c2.22,3.381,4.27,3.353,6.821.123q3.33-4.222,6.752-8.368c.559-.676,1.032-1.771,2.3-1.151.807,1.829.256,3.8.592,5.689.492,2.759.817,5.546,1.214,8.321q-3.416,14.92-6.833,29.843" transform="translate(51.018 26.522)" fill="#deeafa"/>
      <path id="Path_3683" data-name="Path 3683" d="M102.188,111.669c-.542.573-.268,1.3-.365,1.952-.194,1.308.3,1.795,1.685,1.819,4.016.066,4.284.447,3.654,4.4-.029.181-.211.338-.322.506-4.876.193-9.721-.742-14.6-.412-1.3.088-1.759-.457-1.624-1.667-.848-1.111-.431-2.048.407-2.928,3.262-.242,3.235-.247,3.846-3.608.783-4.311,1.616-8.614,2.428-12.92,1.288-1.073,2.925-1.032,4.442-1.363.726-.159,1.2.11,1.139.961a14.342,14.342,0,0,1-.145,3.046l-.545,10.219" transform="translate(63.157 70.677)" fill="#fdfdfd"/>
      <path id="Path_3684" data-name="Path 3684" d="M108.851,42.526c.627-.336,1.236-1.013,1.863.033a56.764,56.764,0,0,0,5.652,7.312c1.42,1.676.54,3.149-.208,4.276-2.746,4.133-4.532,8.8-7.356,12.868q-1.639-4.211-3.278-8.425.4-1.985.8-3.969c.4-3.482.35-7.023,1.385-10.423l1.143-1.672" transform="translate(74.404 30.475)" fill="#deeafa"/>
      <path id="Path_3685" data-name="Path 3685" d="M99.716,120.394c-.251-3.626-.249-3.62-4-2.78a11.261,11.261,0,0,1-1.434.136c.989-5.966,1.945-11.938,2.975-17.9,1.619-9.356,3.283-18.7,4.932-28.054.033-.185.14-.357.5-.506-.2,4.074-.384,8.15-.623,12.223q-1.047,17.84-2.133,35.678a9.94,9.94,0,0,1-.218,1.2" transform="translate(66.177 51.732)" fill="#deeafa"/>
      <path id="Path_3686" data-name="Path 3686" d="M73.851,110.461c4.926-1.415,9-4.319,12.994-7.372.331-.252.525-.928,1.162-.476-.554,2.476-1.068,4.963-1.674,7.427-.293,1.186.01,1.607,1.269,1.553,1.648-.069,3.3.033,4.956.06a3.584,3.584,0,0,1-.048,4.162c-5.036.3-10.045-.373-15.074-.406-1.373-.009-2.871.8-4.083-.514q.249-2.218.5-4.435" transform="translate(50.866 74.349)" fill="#fdfefe"/>
      <path id="Path_3687" data-name="Path 3687" d="M84.752,111.95q.023-2.081.048-4.161,5.379,0,10.76.009-.205,1.462-.407,2.928a38.325,38.325,0,0,0-.824,9.472c-.005.844.371,1.789-.4,2.53a3.421,3.421,0,0,1-.611-2.74c.064-1.506-.679-2.066-2.059-2.248a44.963,44.963,0,0,0-4.544-.192c-.949-.029-1.953.15-2.762-.571q.4-2.513.8-5.027" transform="translate(58.623 78.215)" fill="#f8ccc7"/>
      <path id="Path_3688" data-name="Path 3688" d="M103.46,80.075q.008,15.4.012,30.8c0,.54.1,1.118-.384,1.541-.58-2.171.133-4.418-.391-6.592q-.01-13.954-.017-27.912c0-.54-.1-1.116.383-1.543.571,1.187-.114,2.509.4,3.7" transform="translate(72.315 55.418)" fill="#bdcdd6"/>
      <path id="Path_3689" data-name="Path 3689" d="M89.019,108.454Q91.055,98.076,93.092,87.7a96.5,96.5,0,0,1,2.521-11.555l0,0c-.2,4.323-1.423,8.476-2.154,12.709-1.113,6.461-2.438,12.887-3.688,19.324a2.9,2.9,0,0,1-.362.716c-.263-.028-.253-.3-.388-.437" transform="translate(62.328 55.25)" fill="#bdcdd6"/>
      <path id="Path_3690" data-name="Path 3690" d="M103.3,94.662c-.783-1.165-.154-2.481-.4-3.7V56.27h.4Z" transform="translate(72.476 40.831)" fill="#bdcdd6"/>
      <path id="Path_3691" data-name="Path 3691" d="M93.787,80.476q2.291-12,4.58-24l.533.1c-1.564,7.969-2.869,15.985-4.713,23.9-.135.185-.267.185-.4,0" transform="translate(65.816 40.981)" fill="#bdcdd6"/>
      <path id="Path_3692" data-name="Path 3692" d="M94.285,54.846c6.282.485,12.53.607,18.708-.978a33.867,33.867,0,0,1-18.708.978" transform="translate(66.18 39.088)" fill="#bdcdd6"/>
      <path id="Path_3693" data-name="Path 3693" d="M102.685,93.442c.833,2.155.111,4.4.391,6.592v16.048l-.391,0Z" transform="translate(72.326 67.805)" fill="#bdcdd6"/>
      <path id="Path_3694" data-name="Path 3694" d="M89.746,94.866c.13.145.258.292.388.437a43.087,43.087,0,0,1-2.1,10.312l-.007-.007c-.05-2.918,1.03-5.653,1.378-8.507.092-.747.227-1.489.341-2.235" transform="translate(61.6 68.838)" fill="#bdcdd6"/>
      <path id="Path_3695" data-name="Path 3695" d="M94.489,70.384c.133,0,.267,0,.4,0a48.556,48.556,0,0,1-2.062,9.935h0c-.019-3.406,1.257-6.6,1.661-9.936" transform="translate(65.114 51.073)" fill="#bdcdd6"/>
      <path id="Path_3696" data-name="Path 3696" d="M88.485,101.1c.2,2.136-.753,4.092-1.055,6.15a14.936,14.936,0,0,1,1.048-6.155l.007.005" transform="translate(61.151 73.356)" fill="#bdcdd6"/>
      <path id="Path_3697" data-name="Path 3697" d="M85.847,113.113c2.824.157,5.652-.079,8.483.242,1.326.148,1.629.642,1.564,1.795-.073,1.236-.052,2.476-.071,3.715-4.27.005-8.542-.074-12.809.053-1.887.055-1.875-.618-1.323-2.026.776-1.971,2.417-2.908,4.156-3.779" transform="translate(56.73 82.079)" fill="#373b5d"/>
      <path id="Path_3698" data-name="Path 3698" d="M99.812,118.812c.222-1.695-.722-3.926.381-4.97,1.261-1.192,3.543-.35,5.377-.393a15.347,15.347,0,0,1,5.529.362c1.382,1.041,2.729,2.107,3.219,3.886.206.744.275,1.481-.764,1.46-4.53-.086-9.067.314-13.588-.212-.055-.007-.1-.086-.154-.133" transform="translate(70.102 82.142)" fill="#373b5d"/>
      <path id="Path_3699" data-name="Path 3699" d="M108.538,16.77c-.388.749-1.2.88-1.846,1.251-6.52,3.748-10.035,9.262-9.983,16.866.048,7.536,3.678,12.915,10.106,16.6.636.364,1.5.437,1.728,1.324q-.016,25.662-.033,51.322-.008,35.182-.005,70.363c0,5.289-2.89,8.162-8.232,8.164q-35.826.021-71.65,0c-5.449,0-8.255-2.873-8.256-8.347q-.008-79.052-.021-158.107c0-5.339,2.85-8.235,8.142-8.233,23.676,0,47.353.123,71.025-.076,6.125-.05,9.448,3.472,9.025,8.87" transform="translate(12.085 5.732)" fill="rgba(211,224,234,0.25)"/>
      <path id="Path_3700" data-name="Path 3700" d="M106.175,49.947c-.885.014-1.339.678-1.8,1.258-2.443,3.063-4.836,6.164-7.288,9.218-2.076,2.59-4.616,2.745-6.53.157C87.536,56.5,85.188,51.975,82.467,47.7c-2.189-3.441-3.808-7.341-7.207-9.914a7.641,7.641,0,0,0-1.493-.689,1.528,1.528,0,0,1-.32-1.232,1.321,1.321,0,0,0,.329-.04,38.937,38.937,0,0,1,6.175.478,3.856,3.856,0,0,1,3.1,1.886c3.029,4.566,6.3,8.972,9.37,13.512.687,1.016.916.485,1.276-.062,2.829-4.29,5.948-8.392,8.409-12.92q2.034,5.614,4.066,11.23" transform="translate(50.912 25.977)" fill="#f9ccc7"/>
      <path id="Path_3701" data-name="Path 3701" d="M25.872,65.684c-1.209.066-1.839-.892-2.521-1.581-4.817-4.865-9.877-9.522-13.508-15.424A20.46,20.46,0,0,1,7.316,43.1a2.053,2.053,0,0,1,.625-2.425c.843-.609,1.5-.095,2.251.326,3.087,1.736,5.153,4.537,7.223,7.211A78.191,78.191,0,0,1,23.8,57.974c.795,1.424.949,3.135,2.1,4.378a8.4,8.4,0,0,1-.026,3.332" transform="translate(2.454 29.309)" fill="#365997"/>
      <path id="Path_3702" data-name="Path 3702" d="M73.677,120.916c.67-3.548,1.371-7.091,2.005-10.644q3.065-17.216,7.725-34.068a27.327,27.327,0,0,1,1.818-5.855l.137.116c.2,1.469-.741,2.746-.812,4.454l5.96-4.135c.078,1.191-.679,1.374-1.2,1.755-1.39,1.016-2.727,2.117-4.182,3.035a3.521,3.521,0,0,0-1.605,2.475c-.914,4.014-1.932,8-2.925,12-.1.4-.405.832-.1,1.168.454.5.9-.026,1.276-.221q4.14-2.138,8.236-4.361c.431-.235.784-.642,1.292.148-3.269,1.733-6.5,3.51-9.791,5.153a3.5,3.5,0,0,0-2.061,2.8c-.809,4.247-1.789,8.461-2.7,12.689-.145.673-.464,1.525.016,1.981.6.568,1.245-.212,1.818-.492,3.356-1.634,6.689-3.315,10.038-4.965a1.367,1.367,0,0,1,1.619-.136c-1.974,1.037-3.78,2.026-5.621,2.942-2.348,1.172-4.7,2.34-7.1,3.4a2.916,2.916,0,0,0-1.673,2.433c-.746,4.116-1.487,8.233-1.9,12.909-.173-1.056-.267-1.624-.362-2.192q.047-1.2.092-2.4" transform="translate(51.036 51.048)" fill="#d3e0ea"/>
      <path id="Path_3703" data-name="Path 3703" d="M20.062,29.624c-1.737,2.483-1.571,5.437-2.057,8.23-.109.625.158,1.339-.642,2.223-.41-4.45-1.489-8.433-2.234-12.482a2.721,2.721,0,0,1,.5-1.529,72.714,72.714,0,0,0,3.877-7.35l.627.143v9.5c-.024.418-.047.839-.069,1.26" transform="translate(8.259 13.58)" fill="#deeafa"/>
      <path id="Path_3704" data-name="Path 3704" d="M18.744,47.886a2.591,2.591,0,0,1-.175.587c-.118.2-.286.285-.286-.076,0-4.11-.939-8.124-1.269-12.2a3.3,3.3,0,0,1,1.714-3.274c.208,4.987.142,9.974.016,14.961" transform="translate(9.638 23.891)" fill="#f0ebef"/>
      <path id="Path_3705" data-name="Path 3705" d="M107.553,48.167q-.694,5.211-1.385,10.421c-.951-1.12-.047-2.25.071-3.334.641-5.857.959-11.731,1.221-17.612a8.865,8.865,0,0,1,.255-1.113c.675,4.157-.381,7.888-.161,11.638" transform="translate(74.559 26.506)" fill="#bdcdd6"/>
      <path id="Path_3706" data-name="Path 3706" d="M105.156,35.64c-4.544,1.624-9.664-.368-9.908-4.174,2.306,4.161,5.584,4.873,9.484,3.784.436-.188.5.028.424.39" transform="translate(66.885 22.832)" fill="#bdcdd6"/>
      <path id="Path_3707" data-name="Path 3707" d="M101.149,35.346c-.142-.129-.282-.259-.424-.39,1.586-.846,2.852-2.145,4.391-3.085a9.271,9.271,0,0,1-3.967,3.475" transform="translate(70.892 23.126)" fill="#bdcdd6"/>
      <path id="Path_3708" data-name="Path 3708" d="M106.363,33.794c-1.661,2.179-4.218,2.067-6.513,2.242A2.365,2.365,0,0,0,98,37.08a2.5,2.5,0,0,0-.428-1.95C96.1,33.268,95.837,31,95.532,28.76c-.7-2.105.762-1.279,1.577-1.236-.255-.661-1.932.468-1.557-1.182.353-.742.681-1.5,1.067-2.224.7-1.308,1.226-2.293,2.622-.333,1.351,1.9,3.716,1.824,5.868,1.821,2.693-.005,3.193.568,2.933,3.268-.17,1.781-.255,3.572-1.68,4.92" transform="translate(66.959 16.456)" fill="#f7cdc7"/>
      <path id="Path_3709" data-name="Path 3709" d="M95.811,24.8c.6,1.391,1.8.552,2.888.745a1.549,1.549,0,0,1-1.9.659c-.987-.34-.942.406-1.006,1.013A1.191,1.191,0,0,1,95,26.033l.814-1.23" transform="translate(66.701 17.997)" fill="#9c7b80"/>
      <path id="Path_3711" data-name="Path 3711" d="M80.307,72.613a13.99,13.99,0,0,1,1.621-5.382c-.313,1.881-.4,3.819-1.487,5.5l-.133-.116" transform="translate(55.954 48.785)" fill="#d3e0ea"/>
      <path id="Path_3712" data-name="Path 3712" d="M82.234,115.309H93.95v.217H82.234v-.217" transform="translate(57.364 83.672)" fill="#bdcdd6"/>
      <path id="Path_3713" data-name="Path 3713" d="M112.338,115.941H100.489c.987-.8,9.219-1.044,11.849,0" transform="translate(70.719 83.627)" fill="#bdcdd6"/>
      <path id="Path_3715" data-name="Path 3715" d="M60.265,90.278q14.535,0,29.069,0c2.655,0,4.236,1.462,4.279,4.161.073,4.412.066,8.828.009,13.241-.033,2.476-1.926,4.095-4.738,4.121-4.152.038-8.3.01-12.459.01q-22.423,0-44.849,0c-3.512,0-4.443-.9-4.854-4.4a66.065,66.065,0,0,1,.031-14c.2-2.1,1.406-3.115,3.82-3.12,8.166-.021,16.334-.009,24.5-.009h5.191" transform="translate(16.488 65.506)" fill="#deeafa"/>
      <path id="Path_3716" data-name="Path 3716" d="M63.231,72.064q15.571,0,31.143.005a8.562,8.562,0,0,1,8.4,10.941c-.739,2.816-4.151,5.277-6.355,5.529a56.278,56.278,0,0,1-6.585.528C71.562,89,53.29,89.062,35.02,89a18.415,18.415,0,0,1-7.1-.992,8.168,8.168,0,0,1-5.351-8.777c.379-2.94,2.888-5.891,6.862-6.816a15.08,15.08,0,0,1,3.482-.349q15.159,0,30.314,0" transform="translate(13.662 52.29)" fill="#fdfdfd"/>
      <path id="Path_3717" data-name="Path 3717" d="M62.641,75.134c-10.244,0-20.49.083-30.734-.04-5.084-.059-9.7-3.767-9.37-9.117a7.48,7.48,0,0,1,4.488-6.463,13.361,13.361,0,0,1,6.18-1.389c19.936.069,39.872.035,59.808.048a11.407,11.407,0,0,1,6.45,1.81c3.191,2.085,4.088,5.02,3.638,8.545-.274,2.15-4.007,5.677-6.461,6.157a23,23,0,0,1-4.511.473c-9.83-.045-19.659-.022-29.489-.026" transform="translate(13.677 42.178)" fill="#fdfdfd"/>
      <path id="Path_3718" data-name="Path 3718" d="M101.232,28.465a2.42,2.42,0,0,1-1.6,1.412,1.551,1.551,0,0,1-1.668-.494c-.364-.326-.393-.8.208-.868a5.263,5.263,0,0,0,2.52-.692c.32-.212.575.19.537.642" transform="translate(68.684 20.147)" fill="#fcf7f7"/>
      <path id="Path_3719" data-name="Path 3719" d="M97.893,29.136c-1.167-1.239.154-2.128.261-3.186.377,1.127-.615,2.06-.261,3.186" transform="translate(68.47 18.83)" fill="#967177"/>
      <path id="Path_3720" data-name="Path 3720" d="M99.029,25.451a6.135,6.135,0,0,0,2.589-.425c-1.172,1.422-1.172,1.422-2.589.425" transform="translate(69.651 18.159)" fill="#af8588"/>
      <g id="Group_1105" data-name="Group 1105" transform="translate(40.581 105.75)">
        <path id="Path_4018" data-name="Path 4018" d="M57.587,78.254a3.117,3.117,0,0,1,2.95-3.082,3.153,3.153,0,0,1,3.186,2.87A3.353,3.353,0,0,1,60.658,81.3a3.474,3.474,0,0,1-3.071-3.05" transform="translate(-1.274 -75.162)" fill="#deeafa"/>
        <path id="Path_4019" data-name="Path 4019" d="M36.629,78.2a3.073,3.073,0,1,1-6.143-.14,3.074,3.074,0,0,1,6.143.14" transform="translate(-21.177 -75.166)" fill="#deeafa"/>
        <path id="Path_4020" data-name="Path 4020" d="M44.355,81.075a2.944,2.944,0,0,1-3.035-2.96,3.061,3.061,0,0,1,3.136-2.935A2.987,2.987,0,0,1,47.4,78.23a2.709,2.709,0,0,1-3.049,2.845" transform="translate(-13.221 -75.155)" fill="#deeafa"/>
        <path id="Path_4021" data-name="Path 4021" d="M41.954,78.254A3.083,3.083,0,0,1,38.86,81.24,3.015,3.015,0,0,1,35.951,78.1a2.9,2.9,0,0,1,3.068-2.934,2.974,2.974,0,0,1,2.934,3.086" transform="translate(-17.162 -75.164)" fill="#deeafa"/>
        <path id="Path_4022" data-name="Path 4022" d="M63.063,78.263a3.047,3.047,0,0,1,2.917-3.1,2.88,2.88,0,0,1,2.988,2.773A3.156,3.156,0,0,1,66.291,81.3a3.113,3.113,0,0,1-3.228-3.034" transform="translate(2.747 -75.165)" fill="#deeafa"/>
        <path id="Path_4023" data-name="Path 4023" d="M55.2,75.181a2.793,2.793,0,0,1,2.945,2.986,2.728,2.728,0,0,1-2.973,2.921,2.665,2.665,0,0,1-2.934-2.935A2.8,2.8,0,0,1,55.2,75.181" transform="translate(-5.2 -75.154)" fill="#deeafa"/>
        <path id="Path_4024" data-name="Path 4024" d="M28.143,75.168a2.934,2.934,0,0,1,2.962,3.043,2.994,2.994,0,1,1-5.989-.068,2.934,2.934,0,0,1,3.026-2.975" transform="translate(-25.117 -75.164)" fill="#deeafa"/>
        <path id="Path_4025" data-name="Path 4025" d="M52.672,78.29a2.636,2.636,0,0,1-2.865,2.8,2.9,2.9,0,0,1-3.037-2.941A3.133,3.133,0,0,1,50.1,75.182c1.592.076,2.6,1.3,2.574,3.108" transform="translate(-9.22 -75.157)" fill="#deeafa"/>
      </g>
      <g id="Group_1106" data-name="Group 1106" transform="translate(40.685 128.983)">
        <path id="Path_4018-2" data-name="Path 4018" d="M57.587,78.254a3.117,3.117,0,0,1,2.95-3.082,3.153,3.153,0,0,1,3.186,2.87A3.353,3.353,0,0,1,60.658,81.3a3.474,3.474,0,0,1-3.071-3.05" transform="translate(-1.274 -75.162)" fill="#deeafa"/>
        <path id="Path_4019-2" data-name="Path 4019" d="M36.629,78.2a3.073,3.073,0,1,1-6.143-.14,3.074,3.074,0,0,1,6.143.14" transform="translate(-21.177 -75.166)" fill="#deeafa"/>
        <path id="Path_4020-2" data-name="Path 4020" d="M44.355,81.075a2.944,2.944,0,0,1-3.035-2.96,3.061,3.061,0,0,1,3.136-2.935A2.987,2.987,0,0,1,47.4,78.23a2.709,2.709,0,0,1-3.049,2.845" transform="translate(-13.221 -75.155)" fill="#deeafa"/>
        <path id="Path_4021-2" data-name="Path 4021" d="M41.954,78.254A3.083,3.083,0,0,1,38.86,81.24,3.015,3.015,0,0,1,35.951,78.1a2.9,2.9,0,0,1,3.068-2.934,2.974,2.974,0,0,1,2.934,3.086" transform="translate(-17.162 -75.164)" fill="#deeafa"/>
        <path id="Path_4022-2" data-name="Path 4022" d="M63.063,78.263a3.047,3.047,0,0,1,2.917-3.1,2.88,2.88,0,0,1,2.988,2.773A3.156,3.156,0,0,1,66.291,81.3a3.113,3.113,0,0,1-3.228-3.034" transform="translate(2.747 -75.165)" fill="#deeafa"/>
        <path id="Path_4023-2" data-name="Path 4023" d="M55.2,75.181a2.793,2.793,0,0,1,2.945,2.986,2.728,2.728,0,0,1-2.973,2.921,2.665,2.665,0,0,1-2.934-2.935A2.8,2.8,0,0,1,55.2,75.181" transform="translate(-5.2 -75.154)" fill="#deeafa"/>
        <path id="Path_4024-2" data-name="Path 4024" d="M28.143,75.168a2.934,2.934,0,0,1,2.962,3.043,2.994,2.994,0,1,1-5.989-.068,2.934,2.934,0,0,1,3.026-2.975" transform="translate(-25.117 -75.164)" fill="#deeafa"/>
        <path id="Path_4025-2" data-name="Path 4025" d="M52.672,78.29a2.636,2.636,0,0,1-2.865,2.8,2.9,2.9,0,0,1-3.037-2.941A3.133,3.133,0,0,1,50.1,75.182c1.592.076,2.6,1.3,2.574,3.108" transform="translate(-9.22 -75.157)" fill="#deeafa"/>
      </g>
    </g>
    <text id="إعادة_تعيين" data-name="إعادة تعيين" transform="translate(-5521 1113.369)" fill="#365997" font-size="10" font-family="IBMPlexSansArabic-Light, IBM Plex Sans Arabic" font-weight="300" opacity="0.35"><tspan x="0" y="0">إعادة تعيين</tspan></text>
    <g id="Group_1102" data-name="Group 1102" transform="translate(-5520.038 973.622)">
      <g id="Group_23" data-name="Group 23" clip-path="url(#clip-path-2)">
        <path id="Path_4014" data-name="Path 4014" d="M18.456,42.871c-3.94,0-7.881.041-11.82-.01C2.582,42.808.065,40.341.023,36.341-.031,31.159.028,25.976,0,20.793c-.01-1.792.365-3.626,1.834-4.549,1.891-1.189,2.249-2.782,2.64-4.724A14.2,14.2,0,0,1,19.253.013a14.37,14.37,0,0,1,13.617,12.9,2.593,2.593,0,0,0,1.311,2.44,5.71,5.71,0,0,1,2.879,5.339c-.007,5.268.051,10.536-.021,15.8-.053,3.861-2.576,6.3-6.506,6.36-4.025.06-8.052.013-12.078.014M18.383,14.29c3,0,6-.067,9,.03,1.382.045,1.53-.5,1.351-1.645a10.36,10.36,0,0,0-20.409-.045c-.231,1.391.21,1.735,1.566,1.69,2.827-.1,5.659-.029,8.489-.029m4.271,12.149a4,4,0,0,0-2.879-3.8,3.847,3.847,0,0,0-4.537,1.472,3.523,3.523,0,0,0-.016,4.693,4.562,4.562,0,0,1,1.269,3.634,1.885,1.885,0,0,0,1.928,2.211,1.9,1.9,0,0,0,2.156-2.232,4.087,4.087,0,0,1,1.3-3.619,2.916,2.916,0,0,0,.775-2.361" transform="translate(0 0)" fill="#deeafa"/>
        <path id="Path_4015" data-name="Path 4015" d="M79.227,274.655c-.65-.253-1.037-.441-1.444-.555-.919-.257-2-.45-1.7-1.733.338-1.43,1.513-1.212,2.474-.815,1.347.556,1.915.386,1.656-1.189-.153-.93.145-1.825,1.21-1.87,1.252-.054,1.492.909,1.4,1.942-.078.929-.154,1.8,1.258,1.3,1.029-.364,2.283-1.07,2.751.525.558,1.9-1.313,1.5-2.244,1.969-.15.076-.29.17-.481.283-.186.763.5,1.149.832,1.674.52.831,1.076,1.619-.02,2.4-1.126.807-1.785.04-2.236-.806-.778-1.459-1.407-1.79-2.29-.069-.421.821-1.032,1.681-2.21.908s-.6-1.55-.032-2.348c.342-.477.648-.979,1.072-1.625" transform="translate(-62.975 -222.389)" fill="#deeafa"/>
        <path id="Path_4016" data-name="Path 4016" d="M152.335,276.662c-1.268.486-1.184,3.539-3.264,2.129s.833-2.444.824-3.839c-.757-1.053-3.685-.2-2.824-2.56.729-2,2.518-.008,3.8-.311.615-1.069-.686-3.237,1.4-3.277,2.373-.046.81,2.307,1.546,3.344,1.276.309,3.02-1.794,3.786.283.859,2.33-1.961,1.4-2.752,2.414-.015,1.391,2.934,2.567.757,3.99-2.054,1.342-1.941-1.783-3.273-2.172" transform="translate(-121.688 -222.648)" fill="#deeafa"/>
        <path id="Path_4017" data-name="Path 4017" d="M11.286,276.635c-1.3.522-1.309,3.557-3.345,2.073-1.941-1.414.884-2.461.911-3.814-.842-.977-3.512-.206-2.886-2.376s2.419-.33,3.774-.435c.882-.926-.723-3.315,1.474-3.337,2.329-.024.848,2.314,1.56,3.348,1.305.231,3.082-1.773,3.8.356.769,2.283-2.076,1.309-2.794,2.349.048,1.416,2.916,2.6.7,4.014-1.884,1.2-1.915-1.553-3.191-2.178" transform="translate(-4.863 -222.601)" fill="#deeafa"/>
      </g>
    </g>
    <g id="Group_1103" data-name="Group 1103" transform="translate(-5468.5 970.623)">
      <g id="Group_25" data-name="Group 25" clip-path="url(#clip-path-3)">
        <path id="Path_4026" data-name="Path 4026" d="M288.226,55.977c2.561.781,3.977,2.665,4.868,5.055v3.227c-.38.161-.418.548-.56.861a6.586,6.586,0,0,1-5.042,3.93,1.334,1.334,0,0,0-1.274,1.09,1.936,1.936,0,0,1-1.743,1.591c-.6-3.5.6-5.2,4.142-5.873a3.111,3.111,0,0,0,2.327-3.273,2.646,2.646,0,0,0-2.762-2.613,3.4,3.4,0,0,0-4.013.274q.043-1.62.085-3.239Z" transform="translate(-258.659 -50.952)" fill="rgba(54,89,151,0.56)"/>
        <path id="Path_4027" data-name="Path 4027" d="M0,74.284c.753-1.781,1.609-3.478,3.5-4.339a2.571,2.571,0,0,1-.3.715,7.14,7.14,0,0,0-1.559,5.746,2.431,2.431,0,0,0,2.022,2.461c-1.2,1.184-2.429,1-3.182-.456-.155-.3-.09-.726-.481-.9Z" transform="translate(0 -63.666)" fill="#6fa6d6"/>
        <path id="Path_4028" data-name="Path 4028" d="M150.546,6.055q-.042,1.619-.085,3.239a8.234,8.234,0,0,1-4.738,5.285c-.583.226-.634.66-.635,1.177a2.024,2.024,0,0,1-1.051,2.119c-.979-.189-1.246-.932-1.321-1.774-.212-2.354.947-4.206,3.36-5.423a3.354,3.354,0,0,0,1.537-5.033,2.734,2.734,0,0,0-3.282-1.24c-2.622-.683-4.284.382-4.719,3.1A2.418,2.418,0,0,1,138.032,9.6s.063-.085.063-.085c-.375-.913-.989-1.733-.775-2.839a8.155,8.155,0,0,1,2.7-4.88c.852-.733,1.994-.955,2.741-1.8,3.655.039,6.056,1.88,7.443,5.176.066.311-.012.68.343.878" transform="translate(-124.952 -0.001)" fill="#365997"/>
        <path id="Path_4029" data-name="Path 4029" d="M19.587,70.194a2.431,2.431,0,0,1-2.022-2.461,7.14,7.14,0,0,1,1.559-5.746,2.573,2.573,0,0,0,.3-.715,6.675,6.675,0,0,1,6.953.266c.106,2.569.669,3.191,2.686,2.973,0,0-.062.084-.063.085A7.208,7.208,0,0,1,27.372,71.9c-.385.4-.221.92-.044,1.39a1.881,1.881,0,0,1-.2,2.011c-.565.054-.9-.314-1.243-.673a4.434,4.434,0,0,1,.2-5.836A3.881,3.881,0,0,0,27.169,67a2.882,2.882,0,0,0-1.548-3.115c-1.013-.485-2.075-.925-2.955.275-2.442.306-3.394,1.71-2.808,4.168a1.9,1.9,0,0,1-.27,1.868" transform="translate(-15.925 -54.994)" fill="#6fa6d6"/>
        <path id="Path_4030" data-name="Path 4030" d="M179.984,47.586a2.734,2.734,0,0,1,3.282,1.24,3.354,3.354,0,0,1-1.537,5.034c-2.413,1.217-3.572,3.068-3.36,5.423.076.842.342,1.584,1.321,1.774a2.024,2.024,0,0,1-3.169-1.483,4.889,4.889,0,0,1,2.9-5.47,3.511,3.511,0,0,0,.56-6.517" transform="translate(-160.605 -43.181)" fill="#365997"/>
        <path id="Path_4031" data-name="Path 4031" d="M75.094,94.267c.88-1.2,1.942-.76,2.955-.275A2.881,2.881,0,0,1,79.6,97.107a3.88,3.88,0,0,1-1.084,1.8,4.434,4.434,0,0,0-.2,5.836c.342.359.678.727,1.243.673-1.224,1.178-2.435,1-3.185-.47a4.355,4.355,0,0,1,.652-5.405,3.042,3.042,0,0,0,.814-3.292,2.982,2.982,0,0,0-2.746-1.98" transform="translate(-68.353 -85.104)" fill="#6fa6d6"/>
        <path id="Path_4032" data-name="Path 4032" d="M271.863,100.481a2.646,2.646,0,0,1,2.762,2.613,3.111,3.111,0,0,1-2.327,3.273c-3.542.671-4.746,2.377-4.142,5.873-1.356-.126-1.951-.753-1.914-2.019a4.554,4.554,0,0,1,3.782-4.276c3.171-.72,3.927-2.966,1.838-5.463" transform="translate(-242.341 -91.461)" fill="rgba(54,89,151,0.56)"/>
        <path id="Path_4033" data-name="Path 4033" d="M180.061,229.39a1.824,1.824,0,0,1-2.565-.5,2.042,2.042,0,0,1,2.528-3.1c-1.6,1.223-1.588,2.416.036,3.6" transform="translate(-161.097 -205.264)" fill="#365997"/>
        <path id="Path_4034" data-name="Path 4034" d="M198.8,232.219c-1.625-1.189-1.637-2.381-.036-3.6,1.6,1.073,1.613,2.5.036,3.6" transform="translate(-179.835 -208.093)" fill="#365997"/>
        <path id="Path_4035" data-name="Path 4035" d="M251.723,252.285a1.806,1.806,0,0,1-1.495-3.116,1.633,1.633,0,0,1,2.284-.179c-1.306.849-1.391,1.99-.789,3.3" transform="translate(-227.206 -226.289)" fill="rgba(54,89,151,0.56)"/>
        <path id="Path_4036" data-name="Path 4036" d="M115.461,253.034a1.658,1.658,0,0,1-2.3.067,1.683,1.683,0,0,1-.707-1.864,1.641,1.641,0,0,1,1.687-1.405c-.637,1.51.216,2.407,1.318,3.2" transform="translate(-102.301 -227.405)" fill="#6fa6d6"/>
        <path id="Path_4037" data-name="Path 4037" d="M131.026,252.9c-1.1-.8-1.954-1.693-1.318-3.2a1.586,1.586,0,0,1,1.789,1.049,1.768,1.768,0,0,1-.472,2.153" transform="translate(-117.866 -227.268)" fill="#6fa6d6"/>
        <path id="Path_4038" data-name="Path 4038" d="M269.467,256.18c-.6-1.305-.516-2.446.789-3.3,1.373,1.362,1.043,2.737-.789,3.3" transform="translate(-244.951 -230.184)" fill="rgba(54,89,151,0.56)"/>
        <path id="Path_4039" data-name="Path 4039" d="M119.162,9.521c-2.017.218-2.58-.4-2.686-2.973C117.708,2.236,119.871.311,123.827,0c-.747.845-1.89,1.066-2.741,1.8a8.156,8.156,0,0,0-2.7,4.88c-.214,1.106.4,1.926.775,2.839" transform="translate(-106.02 -0.004)" fill="#365997"/>
        <path id="Path_4040" data-name="Path 4040" d="M281.63,53.779c-.355-.2-.277-.567-.343-.878a6.311,6.311,0,0,1,4.317-.151l-3.973,1.03" transform="translate(-256.036 -47.725)" fill="rgba(54,89,151,0.56)"/>
      </g>
    </g>
  </g>
</svg>
