<svg id="Group_1303" data-name="Group 1303" xmlns="http://www.w3.org/2000/svg" xmlns:xlink="http://www.w3.org/1999/xlink" width="32.829" height="35.014" viewBox="0 0 32.829 35.014">
  <defs>
    <clipPath id="clip-path">
      <rect id="Rectangle_1909" data-name="Rectangle 1909" width="32.829" height="35.014" fill="none"/>
    </clipPath>
  </defs>
  <g id="Group_1215" data-name="Group 1215" clip-path="url(#clip-path)">
    <path id="Path_17425" data-name="Path 17425" d="M24.35,35.014a5.574,5.574,0,0,0-.976-.229,7.317,7.317,0,0,1-3.657-2.267.654.654,0,0,0-.554-.239q-8.5.009-16.991,0A2.046,2.046,0,0,1,.04,30.642,2.627,2.627,0,0,1,0,30.1Q0,17.842,0,5.585A2.039,2.039,0,0,1,2.182,3.411c.615,0,1.231,0,1.846,0A.4.4,0,0,0,4.4,3.249a1.337,1.337,0,0,1,1.131-.524c1.265.006,2.53,0,3.795.007.226,0,.329-.046.4-.283a3.411,3.411,0,0,1,6.547.009.312.312,0,0,0,.371.274c1.253-.009,2.507,0,3.76-.007a1.377,1.377,0,0,1,1.216.56.331.331,0,0,0,.322.127c.638,0,1.276-.005,1.914,0a2.036,2.036,0,0,1,2.138,2.15q0,7.009,0,14.018c0,.31.042.433.4.477a7.5,7.5,0,0,1-.3,14.893c-.047.005-.089.011-.1.064Z" transform="translate(0 0)" fill="#365997"/>
    <path id="Path_17426" data-name="Path 17426" d="M44.729,31.443q0-4.992,0-9.984c0-.112-.081-.274.063-.334s.194.119.272.2a1.364,1.364,0,0,0,1.027.465q2.188.009,4.376,0a.687.687,0,0,0,.752-.705.677.677,0,0,0-.758-.658c-1.356,0-2.712-.007-4.069,0-.23,0-.313-.041-.306-.292.019-.706.018-1.413,0-2.12-.006-.255.046-.343.326-.34,1.436.016,2.872.009,4.308.007.572,0,.805-.22.848-.79a2.051,2.051,0,0,1,4.094-.028c.06.627.266.818.889.818,1.436,0,2.872,0,4.308,0,.21,0,.294.034.288.272-.017.729-.019,1.459,0,2.188.007.255-.085.29-.31.288-1.356-.01-2.712-.009-4.069,0a.68.68,0,0,0-.68.989.673.673,0,0,0,.643.374c1.481,0,2.963.007,4.445,0a1.308,1.308,0,0,0,1.035-.517c.062-.076.107-.2.233-.152s.062.178.062.268q.005,6.36.008,12.72a.415.415,0,0,1-.251.419,7.375,7.375,0,0,0-3.473,4.22c-.085.256-.206.292-.434.292q-5.128-.008-10.257,0c-.114,0-.229-.007-.342,0a.669.669,0,0,0-.636.709.662.662,0,0,0,.658.65c.148.01.3,0,.444,0q4.923,0,9.847-.006c.266,0,.4.029.346.341a2.283,2.283,0,0,0,0,.716c.048.3-.081.322-.326.322q-6.513-.009-13.026,0c-.287,0-.349-.07-.349-.352.011-3.328.007-6.656.007-9.984" transform="translate(-40.624 -13.594)" fill="#fefefe"/>
    <path id="Path_17427" data-name="Path 17427" d="M215.766,233.813a6.051,6.051,0,0,1,6.15,6.183,6.156,6.156,0,0,1-12.311-.006,6.062,6.062,0,0,1,6.161-6.177" transform="translate(-190.45 -212.445)" fill="#fefefe"/>
    <path id="Path_17428" data-name="Path 17428" d="M32.187,78.421H15.9c-.732,0-.93-.2-.93-.933q0-12.138,0-24.275c0-.733.194-.925.934-.925.524,0,1.049.006,1.573,0,.171,0,.244.034.234.223-.016.318-.011.638,0,.957,0,.151-.048.2-.2.193a4.679,4.679,0,0,0-.513,0,.663.663,0,0,0-.659.648c-.006.091,0,.182,0,.273q0,10.77,0,21.54c0,.734.2.931.93.931q7.026,0,14.051-.008a.4.4,0,0,1,.469.343c.1.345.255.674.4,1.035" transform="translate(-13.605 -47.505)" fill="#fefefe"/>
    <path id="Path_17429" data-name="Path 17429" d="M240.586,67.389V67q0-6.393,0-12.787c0-.707-.2-.908-.919-.909-.449,0-.451,0-.448-.446,0-.294-.1-.689.048-.857.173-.2.576-.052.879-.063s.615,0,.923,0c.667,0,.886.215.886.872q0,3.026,0,6.052c0,2.655,0,5.311.005,7.966,0,.25-.047.357-.323.375a9.28,9.28,0,0,0-1.05.185" transform="translate(-217.327 -47.157)" fill="#fefefe"/>
    <path id="Path_17430" data-name="Path 17430" d="M68.318,108.1a.971.971,0,0,0-.013.183c.019.2.092.3.3.159a4.2,4.2,0,0,1,1.243-.544c.1-.026.3.036.29-.153s.1-.412-.131-.589a1.268,1.268,0,0,1-.491-1.421,1.322,1.322,0,0,1,1.18-1.024,1.367,1.367,0,0,1,1.03,2.391c-.1.086-.215.134-.22.311-.009.289.019.476.377.522a3.016,3.016,0,0,1,1.066.435c.094.053.167.206.318.108s.084-.219.077-.34a1.343,1.343,0,0,1,1.136-1.466,1.362,1.362,0,1,1,.264,2.7c-.6.014-.6.013-.312.548a4.5,4.5,0,0,1,.384.981c.027.1-.03.3.153.291s.413.1.589-.129a1.276,1.276,0,0,1,1.454-.483,1.33,1.33,0,0,1,1,1.205,1.366,1.366,0,0,1-.84,1.359,1.289,1.289,0,0,1-1.544-.368c-.2-.263-.426-.2-.662-.2-.144,0-.1.128-.123.2a4.532,4.532,0,0,1-.549,1.315c-.042.067-.145.126-.054.233a.237.237,0,0,0,.239.089,1.362,1.362,0,1,1,.065,2.7,1.342,1.342,0,0,1-1.2-1.378c0-.08.024-.16.018-.238-.016-.2-.1-.3-.3-.163a4.158,4.158,0,0,1-1.243.543c-.1.026-.3-.023-.288.155.009.2-.1.41.127.591a1.311,1.311,0,0,1,.426,1.616,1.329,1.329,0,0,1-1.29.835,1.379,1.379,0,0,1-1.236-.875,1.313,1.313,0,0,1,.363-1.492.62.62,0,0,0,.238-.581c0-.138-.039-.191-.18-.221a3.965,3.965,0,0,1-1.376-.573c-.215-.142-.293-.019-.29.177a2.033,2.033,0,0,1-.038.643,1.366,1.366,0,0,1-1.637.938,1.38,1.38,0,0,1-1.036-1.455,1.36,1.36,0,0,1,1.425-1.232,1.535,1.535,0,0,0,.2.017c.2-.019.3-.09.161-.3a4.249,4.249,0,0,1-.536-1.209c-.031-.11.037-.322-.161-.323s-.428-.093-.614.152a1.3,1.3,0,0,1-1.592.4,1.321,1.321,0,0,1-.833-1.289,1.364,1.364,0,0,1,.869-1.238,1.325,1.325,0,0,1,1.494.359.589.589,0,0,0,.546.241c.158-.008.231-.035.266-.212a3.943,3.943,0,0,1,.541-1.317c.043-.069.143-.127.054-.234a.24.24,0,0,0-.24-.086,1.408,1.408,0,0,1-.641-.045,1.368,1.368,0,0,1,.546-2.664,1.363,1.363,0,0,1,1.231,1.445" transform="translate(-57.834 -95.143)" fill="#365997"/>
    <path id="Path_17431" data-name="Path 17431" d="M135.479,29.878a.668.668,0,0,1,.652.688.681.681,0,1,1-1.362-.024.667.667,0,0,1,.709-.664" transform="translate(-122.453 -27.147)" fill="#365997"/>
    <path id="Path_17432" data-name="Path 17432" d="M135.443,74.791a.681.681,0,0,1,.686.659.69.69,0,0,1-.682.7.683.683,0,0,1-.683-.7.676.676,0,0,1,.679-.663" transform="translate(-122.448 -67.956)" fill="#365997"/>
    <path id="Path_17433" data-name="Path 17433" d="M237.629,262.984a1.971,1.971,0,0,1-.581,1.449c-1.055,1.056-2.1,2.118-3.168,3.166a2.033,2.033,0,0,1-2.963,0c-.5-.485-.992-.975-1.474-1.476a2.053,2.053,0,0,1-.075-2.841,2.027,2.027,0,0,1,2.856-.158c.149.125.222.116.351-.016.525-.539,1.05-1.078,1.6-1.594a2.042,2.042,0,0,1,3.458,1.47" transform="translate(-207.921 -237.091)" fill="#365997"/>
    <path id="Path_17434" data-name="Path 17434" d="M115.035,153.392a2.741,2.741,0,0,1,2.749,2.687,2.735,2.735,0,1,1-2.749-2.687" transform="translate(-102.05 -139.374)" fill="#fefefe"/>
    <path id="Path_17435" data-name="Path 17435" d="M246.044,280.5a.685.685,0,0,1-.543-.234c-.473-.476-.952-.946-1.423-1.425a.7.7,0,0,1-.058-1,.681.681,0,0,1,1.026.043c.132.125.258.257.387.385a.72.72,0,0,0,1.2-.01c.694-.69,1.381-1.386,2.077-2.073a.677.677,0,0,1,.841-.134.665.665,0,0,1,.32.76.718.718,0,0,1-.227.371l-3.064,3.066a.709.709,0,0,1-.537.255" transform="translate(-221.549 -250.742)" fill="#fefefe"/>
  </g>
</svg>
