<svg id="Group_1063" data-name="Group 1063" xmlns="http://www.w3.org/2000/svg" xmlns:xlink="http://www.w3.org/1999/xlink" width="34.435" height="26.126" viewBox="0 0 34.435 26.126">
  <defs>
    <clipPath id="clip-path">
      <rect id="Rectangle_1629" data-name="Rectangle 1629" width="34.435" height="26.126" fill="none"/>
    </clipPath>
  </defs>
  <g id="Group_25" data-name="Group 25" clip-path="url(#clip-path)">
    <path id="Path_4026" data-name="Path 4026" d="M288.226,55.977c2.561.781,3.977,2.665,4.868,5.055v3.227c-.38.161-.418.548-.56.861a6.586,6.586,0,0,1-5.042,3.93,1.334,1.334,0,0,0-1.274,1.09,1.936,1.936,0,0,1-1.743,1.591c-.6-3.5.6-5.2,4.142-5.873a3.111,3.111,0,0,0,2.327-3.273,2.646,2.646,0,0,0-2.762-2.613,3.4,3.4,0,0,0-4.013.274q.043-1.62.085-3.239Z" transform="translate(-258.659 -50.952)" fill="#f8ce96"/>
    <path id="Path_4027" data-name="Path 4027" d="M0,74.284c.753-1.781,1.609-3.478,3.5-4.339a2.571,2.571,0,0,1-.3.715,7.14,7.14,0,0,0-1.559,5.746,2.431,2.431,0,0,0,2.022,2.461c-1.2,1.184-2.429,1-3.182-.456-.155-.3-.09-.726-.481-.9Z" transform="translate(0 -63.666)" fill="#d7d2b5"/>
    <path id="Path_4028" data-name="Path 4028" d="M150.546,6.055q-.042,1.619-.085,3.239a8.234,8.234,0,0,1-4.738,5.285c-.583.226-.634.66-.635,1.177a2.024,2.024,0,0,1-1.051,2.119c-.979-.189-1.246-.932-1.321-1.774-.212-2.354.947-4.206,3.36-5.423a3.354,3.354,0,0,0,1.537-5.033,2.734,2.734,0,0,0-3.282-1.24c-2.622-.683-4.284.382-4.719,3.1A2.418,2.418,0,0,1,138.032,9.6s.063-.085.063-.085c-.375-.913-.989-1.733-.775-2.839a8.155,8.155,0,0,1,2.7-4.88c.852-.733,1.994-.955,2.741-1.8,3.655.039,6.056,1.88,7.443,5.176.066.311-.012.68.343.878" transform="translate(-124.952 -0.001)" fill="#795e53"/>
    <path id="Path_4029" data-name="Path 4029" d="M19.587,70.194a2.431,2.431,0,0,1-2.022-2.461,7.14,7.14,0,0,1,1.559-5.746,2.573,2.573,0,0,0,.3-.715,6.675,6.675,0,0,1,6.953.266c.106,2.569.669,3.191,2.686,2.973,0,0-.062.084-.063.085A7.208,7.208,0,0,1,27.372,71.9c-.385.4-.221.92-.044,1.39a1.881,1.881,0,0,1-.2,2.011c-.565.054-.9-.314-1.243-.673a4.434,4.434,0,0,1,.2-5.836A3.881,3.881,0,0,0,27.169,67a2.882,2.882,0,0,0-1.548-3.115c-1.013-.485-2.075-.925-2.955.275-2.442.306-3.394,1.71-2.808,4.168a1.9,1.9,0,0,1-.27,1.868" transform="translate(-15.925 -54.994)" fill="#d7d2b5"/>
    <path id="Path_4030" data-name="Path 4030" d="M179.984,47.586a2.734,2.734,0,0,1,3.282,1.24,3.354,3.354,0,0,1-1.537,5.034c-2.413,1.217-3.572,3.068-3.36,5.423.076.842.342,1.584,1.321,1.774a2.024,2.024,0,0,1-3.169-1.483,4.889,4.889,0,0,1,2.9-5.47,3.511,3.511,0,0,0,.56-6.517" transform="translate(-160.605 -43.181)" fill="#795e53"/>
    <path id="Path_4031" data-name="Path 4031" d="M75.094,94.267c.88-1.2,1.942-.76,2.955-.275A2.881,2.881,0,0,1,79.6,97.107a3.88,3.88,0,0,1-1.084,1.8,4.434,4.434,0,0,0-.2,5.836c.342.359.678.727,1.243.673-1.224,1.178-2.435,1-3.185-.47a4.355,4.355,0,0,1,.652-5.405,3.042,3.042,0,0,0,.814-3.292,2.982,2.982,0,0,0-2.746-1.98" transform="translate(-68.353 -85.104)" fill="#d7d2b5"/>
    <path id="Path_4032" data-name="Path 4032" d="M271.863,100.481a2.646,2.646,0,0,1,2.762,2.613,3.111,3.111,0,0,1-2.327,3.273c-3.542.671-4.746,2.377-4.142,5.873-1.356-.126-1.951-.753-1.914-2.019a4.554,4.554,0,0,1,3.782-4.276c3.171-.72,3.927-2.966,1.838-5.463" transform="translate(-242.341 -91.461)" fill="#f8ce96"/>
    <path id="Path_4033" data-name="Path 4033" d="M180.061,229.39a1.824,1.824,0,0,1-2.565-.5,2.042,2.042,0,0,1,2.528-3.1c-1.6,1.223-1.588,2.416.036,3.6" transform="translate(-161.097 -205.264)" fill="#795e53"/>
    <path id="Path_4034" data-name="Path 4034" d="M198.8,232.219c-1.625-1.189-1.637-2.381-.036-3.6,1.6,1.073,1.613,2.5.036,3.6" transform="translate(-179.835 -208.093)" fill="#795e53"/>
    <path id="Path_4035" data-name="Path 4035" d="M251.723,252.285a1.806,1.806,0,0,1-1.495-3.116,1.633,1.633,0,0,1,2.284-.179c-1.306.849-1.391,1.99-.789,3.3" transform="translate(-227.206 -226.289)" fill="#f8ce96"/>
    <path id="Path_4036" data-name="Path 4036" d="M115.461,253.034a1.658,1.658,0,0,1-2.3.067,1.683,1.683,0,0,1-.707-1.864,1.641,1.641,0,0,1,1.687-1.405c-.637,1.51.216,2.407,1.318,3.2" transform="translate(-102.301 -227.405)" fill="#d7d2b5"/>
    <path id="Path_4037" data-name="Path 4037" d="M131.026,252.9c-1.1-.8-1.954-1.693-1.318-3.2a1.586,1.586,0,0,1,1.789,1.049,1.768,1.768,0,0,1-.472,2.153" transform="translate(-117.866 -227.268)" fill="#d7d2b5"/>
    <path id="Path_4038" data-name="Path 4038" d="M269.467,256.18c-.6-1.305-.516-2.446.789-3.3,1.373,1.362,1.043,2.737-.789,3.3" transform="translate(-244.951 -230.184)" fill="#f8ce96"/>
    <path id="Path_4039" data-name="Path 4039" d="M119.162,9.521c-2.017.218-2.58-.4-2.686-2.973C117.708,2.236,119.871.311,123.827,0c-.747.845-1.89,1.066-2.741,1.8a8.156,8.156,0,0,0-2.7,4.88c-.214,1.106.4,1.926.775,2.839" transform="translate(-106.02 -0.004)" fill="#795e53"/>
    <path id="Path_4040" data-name="Path 4040" d="M281.63,53.779c-.355-.2-.277-.567-.343-.878a6.311,6.311,0,0,1,4.317-.151l-3.973,1.03" transform="translate(-256.036 -47.725)" fill="#f8ce96"/>
  </g>
</svg>
