<svg id="Group_1079" data-name="Group 1079" xmlns="http://www.w3.org/2000/svg" xmlns:xlink="http://www.w3.org/1999/xlink" width="52.991" height="89.809" viewBox="0 0 52.991 89.809">
  <defs>
    <clipPath id="clip-path">
      <rect id="Rectangle_1704" data-name="Rectangle 1704" width="52.991" height="89.809" fill="none"/>
    </clipPath>
  </defs>
  <g id="Group_564" data-name="Group 564" clip-path="url(#clip-path)">
    <path id="Path_5029" data-name="Path 5029" d="M20.093,62.509a1.752,1.752,0,0,1,.994-.114c.194.145.377.31.582.435.661.406,1.2.112,1.194-.665a.72.72,0,0,1,.558-.776,8.017,8.017,0,0,1,1.019-.256,9.593,9.593,0,0,0,7.31-5.966,1.712,1.712,0,0,0,.131-.547,4.673,4.673,0,0,1,.317-1.1,1.892,1.892,0,0,0,.283-1.146,14.422,14.422,0,0,0,.192-3.614,2.736,2.736,0,0,1,.144-.79c.043-1.511.471-2.979.436-4.5-.022-.947-.106-1.882-.208-2.818-.765-3.244-3.228-4.544-6.128-5.341-.8-.218-1.6-.408-2.413-.561-.281-.053-.673-.018-.675-.487a.93.93,0,0,1,.844-.389c3.832,0,7.666-.052,11.5.018,1.755.032,3.5.027,5.257-.015,3.078-.073,6.155.128,9.234.078.863-.014,1.722-.133,2.588-.084,1.3.074,1.567.335,1.568,1.613q.008,28.328,0,56.655a2.163,2.163,0,0,1-.145,1.033,1.182,1.182,0,0,1-1.14.623c-.216,0-.431.009-.647.009q-12.37,0-24.741,0a2.9,2.9,0,0,1-1.2-.117,3.274,3.274,0,0,0-1.823-1.265c-.792-.276-.93-.857-.6-1.861.343-.368,1.134-.353.981-1.148a44.022,44.022,0,0,1,.5-4.729c.178-1.712.32-3.429.579-5.132.137-.9.262-1.806.435-2.7.136-.532.606-.737,1-1a1.249,1.249,0,0,0,.594-1.446c-.432-2.117-.888-4.229-1.355-6.338-.018-.079-.048-.155-.059-.235-.045-.328-.306-.758.106-.936.338-.146.531.272.733.514,1.258,1.784,2.329,3.689,3.492,5.534.321.51.272,1.2.684,1.709a1.4,1.4,0,0,0,.929.568c.313.047.67.084.717-.3.044-.354.548-.616.062-1.124-.507-.53-.8-1.2-1.558-1.559-.512-.244-.752-.958-1.118-1.459-.684-.938-1.2-1.982-1.809-2.967a1.571,1.571,0,0,1-.277-1A1.226,1.226,0,0,0,28.9,65.55a7.123,7.123,0,0,0-3.408-2.5.853.853,0,0,0-1.2.388,2.6,2.6,0,0,1-4.051.1c-.226-.307-.445-.635-.148-1.026" transform="translate(-6.465 -10.971)" fill="rgba(230,186,149,0.32)"/>
    <path id="Path_5030" data-name="Path 5030" d="M22.824,22.878c-.005-7.125,0-14.25-.032-21.375,0-.675.345-.647.8-.646q7.772.006,15.545,0l16.193,0c.481.259.4.727.4,1.146.014,3.076.006,6.153.007,9.23,0,3.428.005,6.856,0,10.283,0,1.487-.219,1.7-1.674,1.65-.838-.03-1.669.08-2.5.088-2.293.022-4.585-.1-6.877-.07-5.5.072-11-.07-16.506-.007-1.451.017-2.9.044-4.355.071-.377.007-.769.022-1-.374" transform="translate(-7.386 -0.278)" fill="rgba(230,186,149,0.32)"/>
    <path id="Path_5031" data-name="Path 5031" d="M26.629,57.309a9.268,9.268,0,0,1-4.318,5.5,11.441,11.441,0,0,1-4.022,1.362c-.427.07-1.02.1-.533.831.216.325-.086.57-.322.729a1.266,1.266,0,0,1-1.44.009.755.755,0,0,1-.4-.74c.212-.074.55-.044.455-.414-.09-.353-.422-.27-.677-.283a10.207,10.207,0,0,1-7.327-3.419,12.1,12.1,0,0,1-1.594-2.22c-.132-.235-.224-.506-.6-.567-2.24-.365-3.171-1.677-2.763-3.83a1.117,1.117,0,0,1,.468-.748,1.964,1.964,0,0,1,2.479.269c.372.451.61.41.8-.166a21.721,21.721,0,0,0,1.136-4.865c.082-.9.3-1.144,1.209-1.155,1.318-.017,2.627.2,3.951.157.755-.027,1.5-.093,2.253-.16.526-.047.683-.294.7-.778a2.789,2.789,0,0,1,.233-1.65.272.272,0,0,1,.239-.072c.546.4.438,1.069.637,1.611.142.387.134.9.781.821.629-.075.857-.423.875-1.037a27.765,27.765,0,0,0-.243-3.386c-.02-.214-.079-.425-.082-.641s-.024-.474.214-.564c.217-.083.416.068.577.218a4.85,4.85,0,0,1,.81,1.108,10.708,10.708,0,0,1,1.259,3.145.984.984,0,0,0,1.246.894c.858-.093,1.712-.216,2.571-.306,1.156-.122,1.307,0,1.633,1.156.241.852.452,1.713.727,2.556-.117,1.082.118,2.174-.106,3.255a6.89,6.89,0,0,1-.512,2.393,2.222,2.222,0,0,0-3.721.13.817.817,0,0,0,.494,1.326,2.59,2.59,0,0,0,2.042-.185c.276-.135.516-.424.885-.281" transform="translate(-0.968 -13.571)" fill="#fcc5a3"/>
    <path id="Path_5032" data-name="Path 5032" d="M21.466,121.848q5.629.012,11.258.024,7.776.007,15.553,0c.325,0,.73.146.867-.347a1.227,1.227,0,0,1,1.013.328.787.787,0,0,1,.08.006c.7.118,1.785-.33,2.045.208.434.9.127,2.042.122,3.082,0,.292-.26.3-.477.3-.535.008-1.07.011-1.605.018-.758.539-1.6.264-2.414.253a2.724,2.724,0,0,0-.316.011,5.965,5.965,0,0,1-1.13.052H10.049a8.731,8.731,0,0,1-1.211-.048c-.885-.039-1.811.314-2.641-.269-.675-.005-1.352-.03-2.026-.008-.464.014-.618-.178-.606-.623.021-.729.033-1.461-.009-2.189-.036-.61.2-.783.8-.779,2.783.023,5.567,0,8.35,0a1.019,1.019,0,0,1,.8-.314c.884,0,1.77-.054,2.652.032a1.729,1.729,0,0,0,.449.028,11.013,11.013,0,0,1,1.5-.055c.8-.033,1.6-.014,2.407-.011a1.127,1.127,0,0,1,.958.3" transform="translate(-1.151 -39.38)" fill="rgba(112,82,37,0.6)"/>
    <path id="Path_5033" data-name="Path 5033" d="M17.66,76.25a1.794,1.794,0,0,0,1.779,1.65c1.358.117,1.948-.174,2.351-1.282.153-.418.385-.371.683-.31a7.7,7.7,0,0,1,4.623,3.3c.292.393-.008.708-.163,1.04-.375.791-.588.905-1.458.781l-.6-.791c.217.979.4,1.786.575,2.594s.347,1.636.517,2.454.274,1.655.522,2.449a1.328,1.328,0,0,1-.729,1.736c-.326.189-.645.388-.967.583a.714.714,0,0,1-.253.276c-.459.356-1.061.306-1.559.548a16.381,16.381,0,0,1-2.681.282,3.374,3.374,0,0,1-.548,0,14.293,14.293,0,0,1-2.687-.28,9.551,9.551,0,0,1-1.466-.415c-.16-.07-.239-.23-.371-.332-2.617-1.339-2.02-1.179-1.4-3.427a32.684,32.684,0,0,0,1.266-6.366c-.444.142-.358.79-.865.775a1.142,1.142,0,0,1-1.249-.606c-.731-.88-.717-.868.037-1.707,1.182-1.315,2.4-2.567,4.243-2.914.13-.024.266-.024.4-.036" transform="translate(-4.032 -24.711)" fill="rgba(230,186,149,0.6)"/>
    <path id="Path_5034" data-name="Path 5034" d="M26.579,50.315c-.445.1-.377-.316-.439-.508-.266-.819-.5-1.651-.7-2.487-.1-.409-.232-.566-.712-.489-1.089.176-2.2.217-3.29.387-.827.129-1.165-.133-1.311-.979a9.065,9.065,0,0,0-2.27-4.562,29.989,29.989,0,0,1,.287,4.861c-.026.464-.053.85-.723.91-1.253.112-1.248.167-1.505-1.066-.11-.527-.224-1.054-.337-1.581a1.328,1.328,0,0,1-.228-.873c-.1.229.149.549.05.86.011.62,0,1.242.043,1.86.044.643-.2.882-.862.937a45.229,45.229,0,0,1-6.385-.037c-.681-.039-.852.163-.895.827a20.356,20.356,0,0,1-1.624,6.256L4.88,53.546a18.915,18.915,0,0,0,1.083-4.552c-.274.345-.462.654-.706.917a1.735,1.735,0,0,1-3.015-.263A10.656,10.656,0,0,1,.924,45.937a17.821,17.821,0,0,0,1.3,6.2,4.6,4.6,0,0,1,.36,1.238l-.473.531A15.016,15.016,0,0,1,.037,45.422c-.087-1.126.6-1.567,1.544-1.932a40.3,40.3,0,0,1,11.533-2.626,36.508,36.508,0,0,1,10.737.921,9.677,9.677,0,0,1,2.91.9,13.8,13.8,0,0,1,.093,5.887c-.076.583-.182,1.162-.274,1.743" transform="translate(0 -13.215)" fill="#503726"/>
    <path id="Path_5035" data-name="Path 5035" d="M49.965,82.471c-.382.027-.784.117-1.013-.328-.006-.324-.018-.648-.018-.971q0-28.408,0-56.816c0-1.292.148-1.129-1.117-1.131q-14.345-.015-28.691-.006a1.24,1.24,0,0,0-.848.2,1.26,1.26,0,0,1-.993.2,36.285,36.285,0,0,0-4.235.064.732.732,0,0,1-.719-.247c-.125-.219-.32-.24-.554-.238q-4.008.04-8.016.06a2.963,2.963,0,0,1-.484-.026c-.166-.026-.315-.1-.316-.3s.143-.277.317-.287c.243-.014.486-.013.729-.014L16.4,22.6q8.142.015,16.286.028c5.159,0,10.318,0,15.477.006.488,0,.791-.009.789-.66-.023-7.049-.016-14.1-.019-21.148,0-.08-.015-.161-.023-.241.1-.307.176-.679.63-.563.347.089.413.394.415.708,0,.648,0,1.3,0,1.945,0,6.3.015,12.592-.018,18.887,0,.825.18,1.224,1.054,1.079a1.672,1.672,0,0,1,.324,0c.173.007.335.052.345.257.011.235-.148.337-.359.349a5.464,5.464,0,0,1-.729.007c-.45-.034-.66.151-.618.609.009.107,0,.216,0,.324q0,28.9,0,57.8c0,.162.008.324.012.486" transform="translate(-0.958 0)" fill="rgba(112,82,37,0.85)"/>
    <path id="Path_5036" data-name="Path 5036" d="M26.776,41.026c-.147.067-.3.155-.462.075a15.27,15.27,0,0,0-3.267-.85,37.857,37.857,0,0,0-5.416-.759,25.668,25.668,0,0,0-4.8.064,33.427,33.427,0,0,0-7.754,1.434c-1.165.408-2.32.847-3.5,1.2-.835.249-1.456.623-1.526,1.574a6.993,6.993,0,0,1,4.236-6.831,9.8,9.8,0,0,1,2.392-.938,41.418,41.418,0,0,0,8.166.788,18.206,18.206,0,0,0,4.94-.693,1.369,1.369,0,0,0,.843-.43c2.781.74,5.16,1.974,6.1,4.973a2.159,2.159,0,0,1,.049.394" transform="translate(-0.017 -11.556)" fill="#664d3f"/>
    <path id="Path_5037" data-name="Path 5037" d="M46.721,127.4c.044-.007.088-.014.132-.018.464.324.323.821.336,1.259.045,1.491.453,1.741,1.75,1.041a.428.428,0,0,1,.381-.066,8.6,8.6,0,0,0,2.454.323,2.146,2.146,0,0,1,1.392.314,5.21,5.21,0,0,1-2.648.462c-2.829.1-5.662.158-8.492.233-9.019.24-18.038.116-27.056.09-2.938-.009-5.884-.018-8.818-.164a38.182,38.182,0,0,1-4.754-.285,2.109,2.109,0,0,1-.862-.31,1.683,1.683,0,0,1,1.036-.339c1.022-.047,2.043-.135,3.065-.152.492-.008.6-.254.6-.653.335-.04.357.266.487.447a.912.912,0,0,0,1.5.229c.274-.212.491-.508.88-.531,2.269,0,4.54.089,6.8-.016,6.635-.31,13.272-.139,19.906-.108,3.5.016,7.009.118,10.514.126,1.025,0,1.029,0,1.085-1a1.077,1.077,0,0,1,.318-.879" transform="translate(-0.173 -41.281)" fill="#dfd3c3"/>
    <path id="Path_5038" data-name="Path 5038" d="M18.354,97.865l2.851.287a1.622,1.622,0,0,1,.153.94c.041,3.578-.052,7.156-.074,10.734a1.388,1.388,0,0,1-.3,1.131,4.806,4.806,0,0,0-2.2-.354.834.834,0,0,1-.775-.48q-.723-6.372-1.445-12.743l.362.1c.265.908.839.674,1.429.388" transform="translate(-5.368 -31.559)" fill="#b4a680"/>
    <path id="Path_5039" data-name="Path 5039" d="M23.809,35.246l.4.381a19.254,19.254,0,0,1-4.473.935,35.284,35.284,0,0,1-9.054-.52c-.277-.038-.808.143-.821-.46a17.163,17.163,0,0,1,4.7-1,27.1,27.1,0,0,1,4.988-.13c.322.03.642.072.961.109a11.717,11.717,0,0,1,3.3.683" transform="translate(-3.195 -11.143)" fill="#503727"/>
    <path id="Path_5040" data-name="Path 5040" d="M10.648,83.14l1.249.6c-.973,1.736-2.029,3.418-3.123,5.082-.43.654-.414,1.586-.974,2.229-.188.216-.224.908-.755.295-.014-.016-.13.032-.178.074-.153.137-.287.406-.52.249-.262-.176.12-.431.019-.654-.253.047-.385.542-.677.241-.351-.362.273-.5.272-.836-.214-.186-.581.351-.7-.08-.087-.306.3-.4.458-.61.245-.329,1-.477.289-1.122-.264-.241.149-.44.366-.376.952.279,1.259-.431,1.682-1.01.954-1.306,1.728-2.725,2.6-4.085" transform="translate(-1.7 -26.944)" fill="#f8c5a3"/>
    <path id="Path_5041" data-name="Path 5041" d="M10.06,129.448a1.319,1.319,0,0,1-1.4.979c-.8-.059-1.006-.673-1.186-1.3l-.01-1.767h2.607a1.7,1.7,0,0,1-.012,2.092" transform="translate(-2.419 -41.274)" fill="rgba(112,82,37,0.85)"/>
    <path id="Path_5042" data-name="Path 5042" d="M71.528,129.606a1.734,1.734,0,0,1-.956.8,1.169,1.169,0,0,1-1.48-1.117c-.025-.64-.02-1.282-.029-1.922l2.49-.013q-.012,1.124-.024,2.248" transform="translate(-22.382 -41.274)" fill="rgba(112,82,37,0.85)"/>
    <path id="Path_5043" data-name="Path 5043" d="M20.617,120.477a25.973,25.973,0,0,1-3.538.008c-.091-.576.091-.949.729-.992a1.149,1.149,0,0,0,.231-.071c1.53-.462,1.3-.143,1.325-1.775.435-.549.933-.447,1.452-.145.264,1.013.535,2.027-.2,2.974" transform="translate(-5.528 -38.001)" fill="#f6c4a3"/>
    <path id="Path_5044" data-name="Path 5044" d="M21.215,117.265l-1.386.051c-.209-.023-.418-.047-.628-.069-.668-.07-.881-.4-.568-1.015a3.6,3.6,0,0,0,1.9.178c.583-.064.848.118.885.682a.155.155,0,0,1-.007.2.167.167,0,0,1-.2-.022" transform="translate(-5.993 -37.669)" fill="rgba(180,166,128,0.72)"/>
    <path id="Path_5045" data-name="Path 5045" d="M23.837,98.114l2.817-.3c.075.028.178,0,.227.032.7.517,1.014.11,1.248-.5l.294-.084q-.6,5.225-1.193,10.45c-.091.8-.168,1.609-.253,2.413a2.478,2.478,0,0,1-3.1-.12,1.742,1.742,0,0,1-.151-.866c-.057-3.391-.1-6.784-.074-10.175a1.265,1.265,0,0,1,.182-.849" transform="translate(-7.664 -31.52)" fill="#b4a680"/>
    <path id="Path_5046" data-name="Path 5046" d="M31.723,83.533a2.971,2.971,0,0,0,1.458-.782,21.267,21.267,0,0,0,2.331,4.022,7.6,7.6,0,0,1,.51.725,1.168,1.168,0,0,0,1.284.733c.395-.045.766.047.307.543-.24.259-.075.429.126.6s.4.347.6.528a2.5,2.5,0,0,1,.207.246c-.476.219-.336.805-.583,1.072a1.411,1.411,0,0,1-1.64.078,2.293,2.293,0,0,1-1-1.572,3.142,3.142,0,0,0-.633-1.517,48.133,48.133,0,0,1-2.574-4.276c-.078-.158-.259-.266-.392-.4" transform="translate(-10.281 -26.818)" fill="#fac5a3"/>
    <path id="Path_5047" data-name="Path 5047" d="M36.053,63.61a3.134,3.134,0,0,1-2.731.833,1.4,1.4,0,0,1-1.224-1.01c-.152-.574.274-.959.777-1.263a3.584,3.584,0,0,1,2.2-.844c.848.072,1.243.428,1.282,1.292-.268.279-.035.71-.3.99" transform="translate(-10.392 -19.873)" fill="#f8b29b"/>
    <path id="Path_5048" data-name="Path 5048" d="M28.158,120.467a19.531,19.531,0,0,1-3.449,0,2.85,2.85,0,0,1-.19-2.967,1.085,1.085,0,0,1,1.5.112c-.054,1.451-.057,1.462,1.487,1.879.534.144.929.321.648.977" transform="translate(-7.842 -37.999)" fill="#fac5a4"/>
    <path id="Path_5049" data-name="Path 5049" d="M52.036,107.627c.272-.27.556-.173.81-.174q4.251-.012,8.5,0c.162,0,.324,0,.486.009.139.007.284.032.268.215-.011.121-.12.167-.235.174s-.216.009-.323.009q-4.454,0-8.907,0c-.205,0-.438.051-.6-.226" transform="translate(-16.864 -34.818)" fill="rgba(112,82,37,0.85)"/>
    <path id="Path_5050" data-name="Path 5050" d="M57.044,115.549c-1.458,0-2.917,0-4.375,0-.2,0-.523.089-.548-.183-.029-.324.307-.22.493-.22q4.5-.008,8.992.008c.187,0,.523-.11.51.2-.011.283-.339.19-.536.191-1.512.007-3.025,0-4.537,0" transform="translate(-16.891 -37.31)" fill="rgba(112,82,37,0.85)"/>
    <path id="Path_5051" data-name="Path 5051" d="M57.141,92.049c1.513,0,3.026,0,4.539,0,.172,0,.439-.07.448.2s-.258.228-.433.228q-4.58.007-9.159,0c-.181,0-.46.03-.451-.212.011-.311.323-.214.516-.215,1.513-.009,3.026-.005,4.539-.005" transform="translate(-16.88 -29.829)" fill="rgba(112,82,37,0.85)"/>
    <path id="Path_5052" data-name="Path 5052" d="M62.146,99.955c-.155.306-.428.208-.652.209q-4.371.01-8.742,0a2.805,2.805,0,0,1-.483-.03.246.246,0,0,1-.164-.147c-.03-.126.066-.191.18-.206a2.457,2.457,0,0,1,.323-.015q4.574,0,9.147,0c.125,0,.272-.031.389.182" transform="translate(-16.885 -32.333)" fill="rgba(112,82,37,0.85)"/>
    <path id="Path_5053" data-name="Path 5053" d="M52.117,84.483h10c0,.066,0,.131,0,.2h-10c0-.066,0-.131,0-.2" transform="translate(-16.889 -27.379)" fill="#b4a680"/>
    <path id="Path_5054" data-name="Path 5054" d="M52.11,61.46H62.123c0,.062,0,.122,0,.184H52.107c0-.062,0-.122,0-.184" transform="translate(-16.887 -19.918)" fill="rgba(112,82,37,0.85)"/>
    <path id="Path_5055" data-name="Path 5055" d="M62.123,53.988H52.1c0-.062,0-.123,0-.185H62.122c0,.062,0,.123,0,.185" transform="translate(-16.884 -17.437)" fill="rgba(112,82,37,0.85)"/>
    <path id="Path_5056" data-name="Path 5056" d="M62.119,69.368H52.106c0-.063,0-.125,0-.188H62.117c0,.063,0,.125,0,.188" transform="translate(-16.886 -22.42)" fill="rgba(112,82,37,0.85)"/>
    <path id="Path_5057" data-name="Path 5057" d="M62.12,77.058H52.109c0-.064,0-.127,0-.191h10.01c0,.064,0,.127,0,.191" transform="translate(-16.887 -24.911)" fill="#b4a680"/>
    <path id="Path_5058" data-name="Path 5058" d="M62.121,46.3H52.108c0-.062,0-.125,0-.187H62.121V46.3" transform="translate(-16.887 -14.945)" fill="rgba(112,82,37,0.85)"/>
    <path id="Path_5059" data-name="Path 5059" d="M52.1,38.344h10.09c-.463.374-9.232.46-10.09,0" transform="translate(-16.886 -12.427)" fill="#b4a680"/>
    <path id="Path_5060" data-name="Path 5060" d="M59.294,89.183c.1-.261.318-.2.492-.2,1.372-.006,2.744-.009,4.116,0,.193,0,.52-.1.539.178.022.319-.309.212-.5.214q-2.058.016-4.116.008c-.195,0-.437.057-.533-.2" transform="translate(-19.216 -28.833)" fill="rgba(112,82,37,0.85)"/>
    <path id="Path_5061" data-name="Path 5061" d="M61.893,41.7c-.754,0-1.508,0-2.262,0-.13,0-.3,0-.321-.167-.034-.233.165-.245.317-.247q2.261-.019,4.523-.02c.158,0,.351.048.318.262s-.24.178-.393.179c-.727,0-1.454,0-2.181,0V41.7" transform="translate(-19.22 -13.372)" fill="#b4a680"/>
    <path id="Path_5062" data-name="Path 5062" d="M61.886,73.586c.756,0,1.512,0,2.268,0,.13,0,.3,0,.317.17.026.223-.156.259-.317.26q-2.268.009-4.536,0c-.162,0-.343-.039-.316-.261.02-.172.186-.173.317-.174.756,0,1.512,0,2.268,0" transform="translate(-19.218 -23.848)" fill="#b4a680"/>
    <path id="Path_5063" data-name="Path 5063" d="M59.316,70.743c.052-.27.277-.21.447-.212q2.094-.016,4.189-.011c.193,0,.506-.078.5.23-.005.242-.289.174-.464.174q-2.134,0-4.269-.01c-.149,0-.334.043-.4-.172" transform="translate(-19.223 -22.852)" fill="rgba(112,82,37,0.85)"/>
    <path id="Path_5064" data-name="Path 5064" d="M61.909,67.861c-.728,0-1.455,0-2.183,0-.18,0-.431.034-.42-.237.007-.2.229-.192.385-.193,1.456-.006,2.911-.01,4.366,0,.17,0,.439-.029.414.244s-.286.189-.46.191c-.7.007-1.4,0-2.1,0" transform="translate(-19.22 -21.85)" fill="#b4a680"/>
    <path id="Path_5065" data-name="Path 5065" d="M61.967,55.11c.7,0,1.4-.006,2.093,0,.174,0,.429-.037.424.235,0,.195-.214.216-.375.216q-2.213,0-4.428-.008c-.16,0-.37-.014-.381-.208-.016-.284.241-.231.413-.233.751-.007,1.5,0,2.254,0" transform="translate(-19.218 -17.859)" fill="#b4a680"/>
    <path id="Path_5066" data-name="Path 5066" d="M61.864,63.248c-.725,0-1.449,0-2.174,0-.155,0-.36.019-.385-.19s.17-.245.33-.246q2.254-.008,4.508,0c.159,0,.363.018.349.231s-.212.211-.374.212c-.752,0-1.5,0-2.254,0v0" transform="translate(-19.219 -20.354)" fill="#b4a680"/>
    <path id="Path_5067" data-name="Path 5067" d="M61.882,60.17c-.729,0-1.457,0-2.185,0-.16,0-.362.007-.392-.193-.034-.224.17-.243.325-.244q2.267-.006,4.533,0c.134,0,.3.03.314.189.021.22-.164.245-.328.246-.756,0-1.511,0-2.266,0" transform="translate(-19.218 -19.357)" fill="#b4a680"/>
    <path id="Path_5068" data-name="Path 5068" d="M61.845,104.784c-.729,0-1.457,0-2.185,0-.161,0-.368-.014-.37-.217s.206-.217.367-.218q2.225-.006,4.452-.005c.166,0,.363.026.366.227s-.2.216-.362.217c-.756,0-1.511,0-2.266,0v0" transform="translate(-19.214 -33.815)" fill="#b4a680"/>
    <path id="Path_5069" data-name="Path 5069" d="M59.319,52.2h5.154c0,.067,0,.134,0,.2H59.318c0-.067,0-.134,0-.2" transform="translate(-19.224 -16.917)" fill="#b4a680"/>
    <path id="Path_5070" data-name="Path 5070" d="M61.9,112.481c-.754,0-1.509,0-2.264,0-.128,0-.294,0-.319-.17-.032-.226.15-.262.31-.262q2.264-.005,4.527.006c.155,0,.356.028.322.25s-.239.178-.393.178c-.728,0-1.455,0-2.183,0" transform="translate(-19.221 -36.311)" fill="#b4a680"/>
    <path id="Path_5071" data-name="Path 5071" d="M59.312,96.859c.071-.208.251-.173.4-.174q2.137-.007,4.275,0c.176,0,.445-.061.464.185.022.285-.26.207-.426.208q-2.136.014-4.274,0c-.168,0-.4.052-.442-.221" transform="translate(-19.222 -31.331)" fill="rgba(112,82,37,0.85)"/>
    <path id="Path_5072" data-name="Path 5072" d="M64.461,78.573H59.312c0-.066,0-.132,0-.2h5.15l0,.2" transform="translate(-19.222 -25.4)" fill="#b4a680"/>
    <path id="Path_5073" data-name="Path 5073" d="M61.913,94.017c-.727,0-1.453.005-2.179,0-.172,0-.43.056-.431-.22,0-.2.216-.209.374-.209q2.219,0,4.438.015c.153,0,.366.007.354.223s-.223.19-.377.191c-.727,0-1.453,0-2.179,0" transform="translate(-19.219 -30.329)" fill="#b4a680"/>
    <path id="Path_5074" data-name="Path 5074" d="M64.454,44.664H59.307l0-.25c1.719-.093,3.437-.07,5.156-.015,0,.089-.007.176-.011.265" transform="translate(-19.22 -14.373)" fill="#b4a680"/>
    <path id="Path_5075" data-name="Path 5075" d="M61.923,36.678c.752,0,1.505,0,2.258,0,.131,0,.293,0,.295.181s-.147.209-.285.21q-2.258.007-4.515,0c-.152,0-.365-.016-.329-.236s.252-.155.4-.156c.725-.007,1.451,0,2.177,0" transform="translate(-19.232 -11.886)" fill="#b4a680"/>
    <path id="Path_5076" data-name="Path 5076" d="M64.527,81.313c-.1.357-.227.389-.365.389q-2.219,0-4.439,0c-.156,0-.357.026-.4-.174-.039-.175.126-.212.262-.212,1.624,0,3.248,0,4.943,0" transform="translate(-19.223 -26.352)" fill="rgba(112,82,37,0.85)"/>
    <path id="Path_5077" data-name="Path 5077" d="M25.941,117.3l-1.407-.059c-.709-.087-.7-.456-.374-.952a7.731,7.731,0,0,0,2.915,0c.264,1.059-.558.894-1.134,1.008" transform="translate(-7.76 -37.687)" fill="rgba(180,166,128,0.72)"/>
    <path id="Path_5078" data-name="Path 5078" d="M61.938,47.427c.729,0,1.457,0,2.185,0,.154,0,.362-.02.36.209,0,.212-.2.229-.36.228-1.484,0-2.967-.005-4.451-.02-.145,0-.37,0-.369-.215s.216-.2.368-.2c.756-.005,1.511,0,2.266,0" transform="translate(-19.219 -15.37)" fill="#b4a680"/>
    <path id="Path_5079" data-name="Path 5079" d="M61.969,65.9c.727,0,1.453,0,2.18,0,.124,0,.3-.026.319.156.031.234-.165.25-.317.251q-2.26.011-4.521,0c-.148,0-.36-.018-.318-.249s.248-.162.4-.164c.754-.007,1.507,0,2.261,0Z" transform="translate(-19.22 -21.356)" fill="#b4a680"/>
    <path id="Path_5080" data-name="Path 5080" d="M61.891,49.392c-.725,0-1.451,0-2.176,0-.149,0-.372.042-.39-.172-.026-.3.245-.229.4-.231q2.175-.026,4.35-.025c.171,0,.424-.007.385.271-.03.21-.249.162-.4.164-.725.007-1.451,0-2.176,0Z" transform="translate(-19.226 -15.867)" fill="#b4a680"/>
    <path id="Path_5081" data-name="Path 5081" d="M46.938,58.977a.843.843,0,0,0,.022.857.585.585,0,0,1-.249.775.817.817,0,0,1-.917.02.608.608,0,0,1-.287-.765,1.519,1.519,0,0,0,.058-.9c-.1-.491.191-.756.7-.744.468.011.669.279.674.762" transform="translate(-14.734 -18.866)" fill="rgba(112,82,37,0.85)"/>
    <path id="Path_5082" data-name="Path 5082" d="M59.327,85.985c1.714-.126,3.429-.064,5.144-.044v.273H59.328c0-.076,0-.153,0-.229" transform="translate(-19.227 -27.841)" fill="#b4a680"/>
    <path id="Path_5083" data-name="Path 5083" d="M64.643,110.784a6.549,6.549,0,0,1-2.03.168c-.993,0-1.986-.012-2.979-.028-.15,0-.35,0-.318-.241.024-.184.2-.16.318-.16q2.335,0,4.67.024c.06,0,.12.08.339.237" transform="translate(-19.222 -35.818)" fill="#b4a680"/>
    <path id="Path_5084" data-name="Path 5084" d="M48.471,59.49c0-.241-.019-.485,0-.723a.584.584,0,0,1,.649-.568c.361-.007.669.1.719.487a9.057,9.057,0,0,1,.049,1.361.653.653,0,0,1-.717.7c-.5,0-.724-.286-.719-.771,0-.162,0-.322,0-.483h.015" transform="translate(-15.704 -18.861)" fill="rgba(112,82,37,0.69)"/>
    <path id="Path_5085" data-name="Path 5085" d="M48.468,105.651c0-.215-.009-.43,0-.644a.713.713,0,0,1,1.413-.034,9.563,9.563,0,0,1,.024,1.206.671.671,0,0,1-.752.745c-.519-.008-.7-.32-.7-.789,0-.161,0-.322,0-.483h.011" transform="translate(-15.704 -33.825)" fill="rgba(112,82,37,0.69)"/>
    <path id="Path_5086" data-name="Path 5086" d="M45.627,83.157c.448.108,1,.675.994-.25,0-.29-.1-.564-.493-.4-.274.114-.518.116-.483-.253.032-.334-.255-.821.271-.965a1.324,1.324,0,0,1,.959.052c.047.224-.066.242-.166.274-.209.068-.567-.1-.6.243-.027.321.334.152.5.251a.94.94,0,0,1,.406,1.054.666.666,0,0,1-.6.658c-.39.043-.678-.1-.791-.666" transform="translate(-14.777 -26.324)" fill="rgba(112,82,37,0.85)"/>
    <path id="Path_5087" data-name="Path 5087" d="M48.46,90.259c0-.215-.009-.431,0-.645a.706.706,0,0,1,1.4-.044,8.023,8.023,0,0,1,.024,1.287.661.661,0,0,1-.738.681c-.468-.006-.675-.274-.694-.714-.008-.188,0-.376,0-.564h.007" transform="translate(-15.702 -28.833)" fill="rgba(112,82,37,0.69)"/>
    <path id="Path_5088" data-name="Path 5088" d="M49.91,67.435a2.392,2.392,0,0,1-.043.513.639.639,0,0,1-.726.5.623.623,0,0,1-.665-.575,11.226,11.226,0,0,1-.022-1.207c.007-.465.2-.771.718-.772s.7.312.735.768c.013.187,0,.376,0,.771" transform="translate(-15.701 -21.356)" fill="rgba(112,82,37,0.69)"/>
    <path id="Path_5089" data-name="Path 5089" d="M48.431,36.262c.059-.339-.148-.8.291-1.061a.767.767,0,0,1,.965.1,2.791,2.791,0,0,1,.024,2.09.758.758,0,0,1-.952.159c-.289-.124-.343-.4-.328-1.284" transform="translate(-15.695 -11.367)" fill="rgba(112,82,37,0.69)"/>
    <path id="Path_5090" data-name="Path 5090" d="M48.454,74.772c.03-.413-.11-.873.337-1.11a.723.723,0,0,1,.951.16,3,3,0,0,1,.023,2.034.707.707,0,0,1-.939.2c-.556-.3-.315-.851-.372-1.284" transform="translate(-15.701 -23.837)" fill="rgba(112,82,37,0.69)"/>
    <path id="Path_5091" data-name="Path 5091" d="M48.439,82.544c.011-.241,0-.485.036-.723a.592.592,0,0,1,.6-.541.61.61,0,0,1,.722.379,2.944,2.944,0,0,1-.009,1.819.609.609,0,0,1-.735.355.6.6,0,0,1-.583-.564c-.022-.239,0-.483,0-.724h-.028" transform="translate(-15.698 -26.34)" fill="rgba(112,82,37,0.69)"/>
    <path id="Path_5092" data-name="Path 5092" d="M48.472,97.94c0-.215-.01-.431,0-.644a.709.709,0,0,1,1.407-.016,8.1,8.1,0,0,1,.011,1.287.652.652,0,0,1-.748.662c-.475-.017-.665-.287-.679-.725-.006-.188,0-.376,0-.564h.008" transform="translate(-15.706 -31.327)" fill="rgba(112,82,37,0.69)"/>
    <path id="Path_5093" data-name="Path 5093" d="M48.465,51.667c.037-.258-.087-.623.136-.933.184-.256.465-.237.733-.216a.55.55,0,0,1,.537.51,10.625,10.625,0,0,1,.039,1.2c0,.507-.223.821-.769.807-.521-.014-.681-.343-.675-.805,0-.161,0-.322,0-.564" transform="translate(-15.706 -16.368)" fill="rgba(112,82,37,0.69)"/>
    <path id="Path_5094" data-name="Path 5094" d="M47.053,44.3a2.2,2.2,0,0,1-.03.484.654.654,0,0,1-.762.55.61.61,0,0,1-.643-.587c-.033-.371-.009-.748-.017-1.121-.01-.509.186-.827.742-.817s.718.367.71.856c0,.133,0,.267,0,.636" transform="translate(-14.778 -13.874)" fill="rgba(112,82,37,0.85)"/>
    <path id="Path_5095" data-name="Path 5095" d="M49.916,113.354a3.924,3.924,0,0,1-.008.719.645.645,0,0,1-.76.547.6.6,0,0,1-.64-.584c-.034-.372-.011-.748-.02-1.121-.012-.513.214-.836.744-.83.548.007.72.374.706.869,0,.133,0,.267,0,.4h-.022" transform="translate(-15.714 -36.325)" fill="rgba(112,82,37,0.69)"/>
    <path id="Path_5096" data-name="Path 5096" d="M49.847,44.1a4.833,4.833,0,0,1-.12.875c-.108.338-.424.379-.737.348a.569.569,0,0,1-.573-.568c-.023-.4-.015-.808-.016-1.213,0-.443.182-.721.66-.739a.643.643,0,0,1,.752.729c0,.189,0,.378,0,.566l.034,0" transform="translate(-15.686 -13.872)" fill="rgba(112,82,37,0.69)"/>
    <path id="Path_5097" data-name="Path 5097" d="M46.633,73.62c-.071.5-.389.922.3,1.263.3.149.243.626.054.955a.633.633,0,0,1-.757.308.672.672,0,0,1-.535-.714,2.693,2.693,0,0,1,.94-1.811" transform="translate(-14.808 -23.859)" fill="rgba(112,82,37,0.85)"/>
    <path id="Path_5098" data-name="Path 5098" d="M46.315,106.433c.234.258.577-.006.795.306a1.462,1.462,0,0,1-1.248.128c-.28-.048-.116-.311-.02-.453.225-.336.487-.648.712-.984.113-.168.292-.368.072-.575a.323.323,0,0,0-.5.035c-.118.125-.251.253-.374.033-.076-.137.055-.253.148-.345a.719.719,0,0,1,.966-.071.642.642,0,0,1,.155.879,12.314,12.314,0,0,1-.708,1.048" transform="translate(-14.813 -33.819)" fill="rgba(112,82,37,0.85)"/>
    <path id="Path_5099" data-name="Path 5099" d="M45.636,97.262c.166-.519.494-.691.935-.554a.583.583,0,0,1,.352.908c-.2.337.076.485.114.72.068.426-.044.766-.495.872a.666.666,0,0,1-.922-.54c.207-.132.3-.026.4.063.186.164.4.209.564,0,.185-.239.082-.452-.156-.6-.118-.075-.395-.116-.2-.3.216-.207.561-.354.293-.683s-.489.218-.878.118" transform="translate(-14.785 -31.327)" fill="rgba(112,82,37,0.85)"/>
    <path id="Path_5100" data-name="Path 5100" d="M46.249,53.031c-.245-.269-.027-.412.037-.56.1-.237.222-.382-.155-.52-.51-.187-.514-.649-.349-1.082a.634.634,0,0,1,.882-.322c.481.163.52.61.393,1.005a2.964,2.964,0,0,1-.808,1.479" transform="translate(-14.806 -16.362)" fill="rgba(112,82,37,0.85)"/>
    <path id="Path_5101" data-name="Path 5101" d="M46.436,89.071c.095.479-.228.8-.338,1.2-.044.157-.339.389.007.506.319.107.416-.122.411-.409,0-.1,0-.216.2-.274.18.48.468.939,0,1.461-.228-.095-.3-.42-.632-.38-.869.1-.695-.332-.42-.842a3.435,3.435,0,0,1,.771-1.261" transform="translate(-14.727 -28.866)" fill="rgba(112,82,37,0.85)"/>
    <path id="Path_5102" data-name="Path 5102" d="M59.328,42.949h5.144c0,.062,0,.124,0,.185H59.328v-.185" transform="translate(-19.227 -13.919)" fill="#b4a680"/>
    <path id="Path_5103" data-name="Path 5103" d="M59.119,75.291h5.339c-.506.394-4.609.424-5.339,0" transform="translate(-19.159 -24.4)" fill="rgba(112,82,37,0.85)"/>
    <path id="Path_5104" data-name="Path 5104" d="M64.376,72.367H59.021c.977-.418,4.932-.355,5.355,0" transform="translate(-19.128 -23.359)" fill="#b4a680"/>
    <path id="Path_5105" data-name="Path 5105" d="M64.457,40.1H59.316l-.006-.176h5.144c0,.059,0,.117,0,.176" transform="translate(-19.221 -12.939)" fill="#b4a680"/>
    <path id="Path_5106" data-name="Path 5106" d="M59.33,35.31h5.144l0,.169H59.329c0-.056,0-.113,0-.169" transform="translate(-19.227 -11.443)" fill="#b4a680"/>
    <path id="Path_5107" data-name="Path 5107" d="M64.465,80.123H59.34v-.182h5.125v.182" transform="translate(-19.231 -25.907)" fill="#b4a680"/>
    <path id="Path_5108" data-name="Path 5108" d="M59.337,50.662h5.134c0,.062,0,.124,0,.187H59.335l0-.187" transform="translate(-19.229 -16.419)" fill="#b4a680"/>
    <path id="Path_5109" data-name="Path 5109" d="M64.468,113.952H59.344c0-.059,0-.118,0-.176h5.125c0,.059,0,.118,0,.176" transform="translate(-19.232 -36.873)" fill="#b4a680"/>
    <path id="Path_5110" data-name="Path 5110" d="M64.457,83.178H59.326v-.189h5.136c0,.063,0,.126-.007.189" transform="translate(-19.226 -26.895)" fill="#b4a680"/>
    <path id="Path_5111" data-name="Path 5111" d="M64.458,57.039H59.341c0-.064,0-.126,0-.19h5.118c0,.064,0,.126,0,.19" transform="translate(-19.231 -18.424)" fill="#b4a680"/>
    <path id="Path_5112" data-name="Path 5112" d="M59.053,109.162h5.33c-.41.359-4.43.422-5.33,0" transform="translate(-19.138 -35.377)" fill="#b4a680"/>
    <path id="Path_5113" data-name="Path 5113" d="M59.333,106.082h5.129c0,.059,0,.118,0,.176H59.332c0-.059,0-.118,0-.176" transform="translate(-19.228 -34.379)" fill="#b4a680"/>
    <path id="Path_5114" data-name="Path 5114" d="M64.468,87.794H59.348c0-.059,0-.117,0-.175h5.121c0,.058,0,.116,0,.175" transform="translate(-19.233 -28.396)" fill="#b4a680"/>
    <path id="Path_5115" data-name="Path 5115" d="M59.334,98.363h5.13c0,.062,0,.125,0,.187H59.339c0-.062,0-.125-.005-.187" transform="translate(-19.229 -31.878)" fill="#b4a680"/>
    <path id="Path_5116" data-name="Path 5116" d="M64.467,90.939c-1.709.1-3.419.061-5.129.026,0-.078,0-.157-.005-.236h5.136l0,.21" transform="translate(-19.229 -29.404)" fill="#b4a680"/>
    <path id="Path_5117" data-name="Path 5117" d="M64.459,58.509H59.306c.37-.324,3.92-.436,5.153,0" transform="translate(-19.22 -18.869)" fill="rgba(112,82,37,0.85)"/>
    <path id="Path_5118" data-name="Path 5118" d="M59.339,95.32a44.4,44.4,0,0,1,5.258-.153c-.509.414-4.127.52-5.258.153" transform="translate(-19.231 -30.841)" fill="#b4a680"/>
    <path id="Path_5119" data-name="Path 5119" d="M64.457,64.73H59.338l0-.183h5.117l0,.183" transform="translate(-19.23 -20.919)" fill="rgba(112,82,37,0.85)"/>
    <path id="Path_5120" data-name="Path 5120" d="M64.454,103.179H59.329c0-.062,0-.124,0-.186h5.125l0,.186" transform="translate(-19.227 -33.378)" fill="#b4a680"/>
    <path id="Path_5121" data-name="Path 5121" d="M59.338,101.446h5.127c0,.062,0,.122,0,.184H59.345c0-.062,0-.122-.007-.184" transform="translate(-19.23 -32.877)" fill="#b4a680"/>
    <path id="Path_5122" data-name="Path 5122" d="M46.186,68.64a5.772,5.772,0,0,1,.369-1.925c.03-.15.139-.337-.046-.433a.278.278,0,0,0-.409.127c-.062.128-.157.239-.306.125a.308.308,0,0,1-.053-.375c.226-.539.7-.205,1.048-.254.4-.055.319.279.246.5a6.934,6.934,0,0,1-.85,2.237" transform="translate(-14.811 -21.34)" fill="rgba(112,82,37,0.85)"/>
    <path id="Path_5123" data-name="Path 5123" d="M44.442,44.233c-.12.294.184,1.015-.166.988-.447-.034-.107-.714-.21-1.1-.07-.262.172-.607-.208-.784-.188-.087-.14-.213-.029-.3a.81.81,0,0,1,.356-.162c.156-.027.253.073.256.233,0,.351,0,.7,0,1.126" transform="translate(-14.173 -13.893)" fill="rgba(112,82,37,0.85)"/>
    <path id="Path_5124" data-name="Path 5124" d="M47.331,114.623c-.5-.366-.312-.8-.367-1.2-.035-.252.122-.555-.147-.743-.122-.085-.236-.134-.135-.291a.483.483,0,0,1,.414-.208c.18-.007.23.126.231.262.007.727,0,1.454,0,2.181" transform="translate(-15.116 -36.355)" fill="rgba(112,82,37,0.85)"/>
    <path id="Path_5125" data-name="Path 5125" d="M47.1,37.818a3.389,3.389,0,0,1-.21-1.413c-.04-.261.16-.568-.195-.782-.275-.165-.051-.318.107-.4s.425-.135.426.141a7.846,7.846,0,0,1-.128,2.453" transform="translate(-15.09 -11.394)" fill="rgba(112,82,37,0.85)"/>
    <path id="Path_5126" data-name="Path 5126" d="M45.528,37.588c-.46-.331-.267-.716-.342-1.063-.066-.3.174-.66-.241-.916-.221-.136.012-.324.177-.395.183-.079.4-.086.4.192.014.727,0,1.455,0,2.182" transform="translate(-14.536 -11.397)" fill="rgba(112,82,37,0.85)"/>
    <path id="Path_5127" data-name="Path 5127" d="M62.138,7.606c-.122.272-.364.2-.566.2q-4.454.007-8.909,0a1.844,1.844,0,0,1-.4-.028.251.251,0,0,1-.159-.153c-.028-.124.068-.2.179-.212.188-.018.377-.017.566-.017,2.862,0,5.724-.009,8.586,0,.24,0,.55-.132.7.2" transform="translate(-16.884 -2.391)" fill="rgba(112,82,37,0.85)"/>
    <path id="Path_5128" data-name="Path 5128" d="M62.131,15.354c-.165.285-.435.174-.656.175q-4.365.012-8.729.007c-.135,0-.27,0-.4-.009-.11-.005-.227-.033-.235-.163-.011-.175.126-.21.266-.221.107-.009.215-.01.323-.01,2.91,0,5.82,0,8.729.018.238,0,.544-.124.707.2" transform="translate(-16.886 -4.903)" fill="rgba(112,82,37,0.85)"/>
    <path id="Path_5129" data-name="Path 5129" d="M57.113,23.238c-1.513,0-3.027,0-4.539,0-.17,0-.45.087-.47-.167-.026-.321.287-.26.477-.26q4.54-.008,9.08.007c.187,0,.506-.076.468.261-.028.252-.306.157-.475.158-1.513.009-3.026,0-4.539,0" transform="translate(-16.885 -7.39)" fill="rgba(112,82,37,0.85)"/>
    <path id="Path_5130" data-name="Path 5130" d="M62.119,30.925H52.107l0-.2H62.121l0,.2" transform="translate(-16.886 -9.958)" fill="rgba(112,82,37,0.85)"/>
    <path id="Path_5131" data-name="Path 5131" d="M59.314,18.407c.039-.16.165-.2.3-.2q2.214-.007,4.428-.008c.157,0,.364-.022.4.174.041.221-.164.241-.319.241q-2.294-.008-4.588-.028a.216.216,0,0,1-.226-.181" transform="translate(-19.223 -5.899)" fill="#b4a680"/>
    <path id="Path_5132" data-name="Path 5132" d="M59.308,26.053h5.163v.207H59.308v-.207" transform="translate(-19.221 -8.443)" fill="#b4a680"/>
    <path id="Path_5133" data-name="Path 5133" d="M61.88,10.477c.755,0,1.509,0,2.264,0,.151,0,.358-.014.332.229-.018.158-.172.193-.31.193q-2.264,0-4.527-.005c-.152,0-.364,0-.333-.232.028-.208.236-.184.391-.185.728,0,1.455,0,2.183,0" transform="translate(-19.219 -3.395)" fill="#b4a680"/>
    <path id="Path_5134" data-name="Path 5134" d="M61.964,12.442c-.756,0-1.511,0-2.267,0-.151,0-.359.036-.385-.182s.179-.241.332-.241q2.266-.009,4.533,0c.138,0,.29.036.306.2.024.245-.18.226-.333.228-.729.005-1.457,0-2.186,0" transform="translate(-19.221 -3.893)" fill="#b4a680"/>
    <path id="Path_5135" data-name="Path 5135" d="M61.846,29.407c-.7,0-1.4,0-2.1,0-.18,0-.427.014-.428-.245,0-.212.22-.2.374-.2q2.225,0,4.45,0c.154,0,.364-.014.347.219-.016.205-.214.216-.375.216-.755,0-1.51,0-2.264,0v.009" transform="translate(-19.223 -9.385)" fill="#b4a680"/>
    <path id="Path_5136" data-name="Path 5136" d="M61.911,21.271c.727,0,1.455,0,2.183,0,.148,0,.358-.046.382.178s-.17.25-.329.251q-2.263.006-4.526,0c-.132,0-.3-.043-.312-.2-.019-.231.183-.228.34-.228.754,0,1.509,0,2.263,0Z" transform="translate(-19.22 -6.893)" fill="#b4a680"/>
    <path id="Path_5137" data-name="Path 5137" d="M49.778,13.247a6.177,6.177,0,0,1-.005.725.593.593,0,0,1-.656.566c-.368,0-.656-.128-.7-.512a9.909,9.909,0,0,1-.053-1.284.687.687,0,0,1,.737-.775c.491,0,.714.308.7.794,0,.161,0,.322,0,.484h-.016" transform="translate(-15.672 -3.879)" fill="rgba(112,82,37,0.69)"/>
    <path id="Path_5138" data-name="Path 5138" d="M49.791,5.548c0,.214.005.429,0,.643a.6.6,0,0,1-.66.648c-.4.011-.687-.147-.718-.583-.029-.4-.036-.8-.037-1.205a.677.677,0,0,1,.727-.774c.491,0,.714.306.7.788,0,.161,0,.322,0,.483h-.013" transform="translate(-15.677 -1.386)" fill="rgba(112,82,37,0.69)"/>
    <path id="Path_5139" data-name="Path 5139" d="M48.4,20.9a5.474,5.474,0,0,1,0-.641.633.633,0,0,1,.733-.583.6.6,0,0,1,.651.578c.022.4.018.8.014,1.2,0,.461-.169.773-.7.772s-.7-.306-.714-.769c-.005-.187,0-.374,0-.561H48.4" transform="translate(-15.681 -6.378)" fill="rgba(112,82,37,0.69)"/>
    <path id="Path_5140" data-name="Path 5140" d="M49.821,28.675a5.9,5.9,0,0,1-.059.775.7.7,0,0,1-1.323.032,4.626,4.626,0,0,1-.015-1.609c.043-.349.338-.479.654-.483.351,0,.644.128.7.528.035.266.035.537.048.757" transform="translate(-15.673 -8.877)" fill="rgba(112,82,37,0.69)"/>
    <path id="Path_5141" data-name="Path 5141" d="M46.889,4.47c-.229.361-.734.016-.944.494.769.1,1.156.495,1,1.282a.641.641,0,0,1-.65.6.609.609,0,0,1-.693-.624c.809.325,1.027.231.975-.345-.024-.261-.126-.458-.393-.36-.736.271-.558-.265-.6-.632-.062-.533.214-.664.675-.6.2.027.437-.068.627.189" transform="translate(-14.771 -1.383)" fill="rgba(112,82,37,0.69)"/>
    <path id="Path_5142" data-name="Path 5142" d="M45.641,28.074c.126-.664.523-.768,1.014-.6.543.184.441.6.264,1-.162.366-.538.606-.615,1.02.216.2.552-.034.768.28-.384.3-.816.147-1.211.137-.321-.007-.224-.24-.12-.4.175-.272.382-.523.561-.792s.512-.533.217-.847-.475.233-.877.209" transform="translate(-14.791 -8.881)" fill="rgba(112,82,37,0.69)"/>
    <path id="Path_5143" data-name="Path 5143" d="M46.458,11.779a3.674,3.674,0,0,1-.441,1.445c-.053.151-.292.351-.011.466a.305.305,0,0,0,.447-.3c.008-.142-.093-.36.164-.366.238-.005.208.208.2.358-.015.255.294.473.066.756-.139.172-.189.555-.467.105a.352.352,0,0,0-.274-.128c-1.183.09-.718-.54-.46-1.061a3.437,3.437,0,0,1,.777-1.275" transform="translate(-14.704 -3.817)" fill="rgba(112,82,37,0.69)"/>
    <path id="Path_5144" data-name="Path 5144" d="M45.575,21.591c.4.038.635.574.933.147.194-.277.1-.553-.287-.68-.172-.057-.131-.22.026-.287.267-.114.43-.311.249-.557-.193-.262-.426-.078-.631.07-.046.034-.144,0-.265-.013a.645.645,0,0,1,.9-.534.55.55,0,0,1,.379.829c-.185.347.057.545.089.811.049.414-.057.778-.531.851-.421.065-.795-.016-.86-.637" transform="translate(-14.77 -6.383)" fill="rgba(112,82,37,0.69)"/>
    <path id="Path_5145" data-name="Path 5145" d="M59.324,24.48h5.14l0,.187H59.323c0-.062,0-.124,0-.187" transform="translate(-19.225 -7.934)" fill="#b4a680"/>
    <path id="Path_5146" data-name="Path 5146" d="M59.326,32.166h5.222a11.217,11.217,0,0,1-5.222,0" transform="translate(-19.226 -10.424)" fill="rgba(112,82,37,0.85)"/>
    <path id="Path_5147" data-name="Path 5147" d="M59.333,27.618h5.14c0,.057,0,.115,0,.172h-5.14c0-.057,0-.115,0-.172" transform="translate(-19.228 -8.95)" fill="#b4a680"/>
    <path id="Path_5148" data-name="Path 5148" d="M64.46,17.029H59.314c0-.062,0-.124,0-.186h5.147l0,.186" transform="translate(-19.222 -5.459)" fill="#b4a680"/>
    <path id="Path_5149" data-name="Path 5149" d="M64.472,13.918H59.33l0-.187h5.139c0,.062,0,.124,0,.187" transform="translate(-19.228 -4.45)" fill="#b4a680"/>
    <path id="Path_5150" data-name="Path 5150" d="M64.469,20.119H59.332v-.187H64.47c0,.062,0,.124,0,.187" transform="translate(-19.228 -6.46)" fill="#b4a680"/>
    <path id="Path_5151" data-name="Path 5151" d="M59.313,9.122h5.15c0,.058,0,.117.005.175H59.317c0-.058,0-.117,0-.175" transform="translate(-19.222 -2.956)" fill="#b4a680"/>
    <path id="Path_5152" data-name="Path 5152" d="M44.464,21.067a3.342,3.342,0,0,1-.005.558c-.034.205.166.589-.2.57-.3-.016-.105-.4-.172-.608-.141-.441.278-.981-.288-1.369-.166-.114.065-.326.241-.4.2-.082.394-.037.413.21.026.344.007.692.007,1.038" transform="translate(-14.177 -6.411)" fill="rgba(112,82,37,0.85)"/>
    <path id="Path_5153" data-name="Path 5153" d="M44,14.5a4.058,4.058,0,0,1-.106-1.239c-.034-.241.151-.552-.189-.711-.162-.077-.182-.2-.066-.31a.676.676,0,0,1,.351-.155.22.22,0,0,1,.263.229c.005.727,0,1.455,0,2.182L44,14.5" transform="translate(-14.12 -3.917)" fill="rgba(112,82,37,0.85)"/>
    <path id="Path_5154" data-name="Path 5154" d="M44.363,29.9a2.975,2.975,0,0,1-.185-1.343c-.024-.213.137-.495-.215-.6-.17-.053-.176-.2-.057-.3a.785.785,0,0,1,.345-.17c.139-.03.286.034.281.2a6.648,6.648,0,0,1-.169,2.224" transform="translate(-14.203 -8.902)" fill="rgba(112,82,37,0.85)"/>
    <path id="Path_5155" data-name="Path 5155" d="M44.1,6.808A5.4,5.4,0,0,1,44,5.5c-.035-.221.2-.543-.222-.662-.137-.039-.126-.235-.005-.331a.858.858,0,0,1,.362-.158c.182-.034.223.112.224.251,0,.737,0,1.474,0,2.212Z" transform="translate(-14.157 -1.406)" fill="rgba(112,82,37,0.85)"/>
    <path id="Path_5156" data-name="Path 5156" d="M2.9,55.305c-.117-.058-.31-.091-.34-.178-.82-2.433-1.7-4.855-1.579-7.488a.954.954,0,0,1,.423-.907,12.192,12.192,0,0,0,.551,2.838,5.64,5.64,0,0,0,1.055,2.156,1.282,1.282,0,0,0,2.188.084c.465-.5.849-1.067,1.382-1.748A10.566,10.566,0,0,1,6.267,52.9a7.806,7.806,0,0,1-.494,1.863c-.1.291-.182.641-.579.711A2.127,2.127,0,0,0,2.9,55.305" transform="translate(-0.314 -15.145)" fill="#40291d"/>
    <path id="Path_5157" data-name="Path 5157" d="M15.017,65.5a2.454,2.454,0,0,1-2.571-1.4,1.384,1.384,0,0,1,1.424-1.947,13.885,13.885,0,0,1,2.7.761c.387.137.809.4.735.946a2,2,0,0,1-1.169,1.453,1.942,1.942,0,0,1-1.118.184" transform="translate(-4.002 -20.138)" fill="#f7b19b"/>
    <path id="Path_5158" data-name="Path 5158" d="M16.272,59.144a2.316,2.316,0,0,1,.919-2.876,1.867,1.867,0,0,1,2.37.567,2.344,2.344,0,0,1-.167,2.625,5.218,5.218,0,0,1-.535.483,1.578,1.578,0,0,1-2.587-.8" transform="translate(-5.224 -18.167)" fill="#f9faf9"/>
    <path id="Path_5159" data-name="Path 5159" d="M26.085,69.412a2.612,2.612,0,0,1-3.034.915,2.248,2.248,0,0,1-1.639-2.248c.436-.408,1.016-.243,1.519-.383a3.2,3.2,0,0,1,3.154,1.716" transform="translate(-6.939 -21.936)" fill="#f18a82"/>
    <path id="Path_5160" data-name="Path 5160" d="M26.853,68.5c-.341.058-.435-.254-.61-.427a3.077,3.077,0,0,0-2.463-1.057c.073-.423.5-.58.685-.924a2.242,2.242,0,0,1,1.006-.19,1.885,1.885,0,0,0,1.554-.812,2.748,2.748,0,0,0,.307-.1c.71-.318.756.055.658.613A6.39,6.39,0,0,1,26.853,68.5" transform="translate(-7.707 -21.026)" fill="#4f1f1d"/>
    <path id="Path_5161" data-name="Path 5161" d="M30.249,58a1.83,1.83,0,0,1,1.133-2.261,1.6,1.6,0,0,1,2.176.8,1.955,1.955,0,0,1-.51,2.456,5.688,5.688,0,0,1-.55.324.35.35,0,0,1-.311.129c-.36-.211-1.042-.278-.423-.933.461-.286.879-.6.446-1.2-.452-.63-.737-.594-1.358.14-.267.112-.2.585-.6.554" transform="translate(-9.778 -18.01)" fill="#fafbfa"/>
    <path id="Path_5162" data-name="Path 5162" d="M26.781,65.195c.1.609-.259.867-.776,1.007a8.764,8.764,0,0,1-1.822.15c-.773.227-.943.147-1.156-.55.005-.476.335-.435.666-.439a12.676,12.676,0,0,0,3.088-.168" transform="translate(-7.463 -21.128)" fill="#f9f8f6"/>
    <path id="Path_5163" data-name="Path 5163" d="M22.495,65.806c.243.482.729.456,1.156.55.351.734-.4.539-.648.769-.5.357-1.075.024-1.6.151-.005-.427-.033-.856-.007-1.281.017-.288-.109-.717.315-.78a.715.715,0,0,1,.784.591" transform="translate(-6.931 -21.132)" fill="#361917"/>
    <path id="Path_5164" data-name="Path 5164" d="M33.369,52.555a1.559,1.559,0,0,1,.766.352c.307.306.742.687.527,1.077-.2.361-.6-.118-.919-.171-.21-.034-.41-.13-.62-.176-.322-.07-.583-.2-.511-.583.083-.439.437-.488.756-.5" transform="translate(-10.565 -17.032)" fill="#483023"/>
    <path id="Path_5165" data-name="Path 5165" d="M16.95,53.82a.575.575,0,0,1,.578.477c.073.376-.2.495-.518.575-.335.084-.657.221-.988.328-.191.062-.409.276-.578.043-.142-.2.041-.417.141-.59a1.528,1.528,0,0,1,1.365-.833" transform="translate(-4.988 -17.442)" fill="#442d1f"/>
    <path id="Path_5166" data-name="Path 5166" d="M6.248,62.62c-.409-.372-.053-1.553-1.194-.874-.074-.551.929-1.053-.174-1.476,1.262-.083,1.9,1.134,1.368,2.349" transform="translate(-1.582 -19.531)" fill="#d89b74"/>
    <path id="Path_5167" data-name="Path 5167" d="M31.893,59.541c.007.1-.4.208-.033.278.248.049.241.232.353.349a1.208,1.208,0,0,1-1.8-.641q-.064-.338-.127-.677c.324-.09-.15-.721.431-.637a3.278,3.278,0,0,0,1.175,1.328" transform="translate(-9.815 -18.863)" fill="#e9e8e8"/>
    <path id="Path_5168" data-name="Path 5168" d="M16.228,60.624a1.973,1.973,0,0,0,2.587.8c-.349.63-1.146.665-2.242.237-.627-.245-.769-.509-.345-1.036" transform="translate(-5.181 -19.647)" fill="#f7b19b"/>
    <path id="Path_5169" data-name="Path 5169" d="M30.352,60.161c.542.375.992,1.009,1.8.641l.323,0c.249.089.358.257.018.3a3.347,3.347,0,0,1-2.106-.293c-.343-.191-.416-.409-.034-.644" transform="translate(-9.753 -19.497)" fill="#f8b29b"/>
    <path id="Path_5170" data-name="Path 5170" d="M22.7,46.08c-.238-.341-.143-.708-.082-1.311a5.164,5.164,0,0,1,.261,1.324L22.7,46.08" transform="translate(-7.308 -14.509)" fill="#a1836f"/>
    <path id="Path_5171" data-name="Path 5171" d="M11.3,129.444l.012-2.092q19.246-.005,38.494-.009a3.847,3.847,0,0,1,.4.041c-.019.724.235,1.709-.135,2.1-.351.367-1.357.119-2.076.12-2.24,0-4.483.074-6.719-.021-6.875-.293-13.754-.121-20.629-.094-2.772.011-5.549.084-8.325.116a1.812,1.812,0,0,1-1.024-.158" transform="translate(-3.663 -41.27)" fill="rgba(112,82,37,0.26)"/>
    <path id="Path_5172" data-name="Path 5172" d="M23.745,110.531c-.084.4-.086.766.374.952a8.66,8.66,0,0,0,.093,2.913l-1.424-.007a10.829,10.829,0,0,1-.04-2.916.284.284,0,0,0,.024-.12c.276-.268.139-.6.146-.914q.135-5.958.264-11.916h.335q.114,6,.226,12.008" transform="translate(-7.347 -31.929)" fill="#f7f9f4"/>
    <path id="Path_5173" data-name="Path 5173" d="M22.637,117.682l.041,2.916-.354.018c.4-.944.036-1.923.134-2.881l.18-.053" transform="translate(-7.234 -38.139)" fill="#c8bba0"/>
    <path id="Path_5174" data-name="Path 5174" d="M29.57,97.386a.291.291,0,0,1,.024.076,1.4,1.4,0,0,1-.372,1.232c-.355.226-.478-.447-.806-.6a1.987,1.987,0,0,1-.321-.235l1.475-.473" transform="translate(-9.105 -31.561)" fill="rgba(180,166,128,0.72)"/>
    <path id="Path_5175" data-name="Path 5175" d="M18.491,97.912c-.147.4-.669.4-.848.784-.059.127-.3.109-.318-.026-.053-.392-.518-.69-.262-1.146l1.429.388" transform="translate(-5.505 -31.606)" fill="rgba(180,166,128,0.72)"/>
    <path id="Path_5176" data-name="Path 5176" d="M46.389,58.7c.264.034.381.157.37.377a.329.329,0,0,1-.658-.011.333.333,0,0,1,.287-.366" transform="translate(-14.941 -19.025)" fill="#f6f1ed"/>
    <path id="Path_5177" data-name="Path 5177" d="M46.369,60.355c.27,0,.392.108.412.324a.309.309,0,0,1-.306.375c-.239.018-.415-.075-.406-.353a.329.329,0,0,1,.3-.347" transform="translate(-14.93 -19.56)" fill="#f6f1ed"/>
    <path id="Path_5178" data-name="Path 5178" d="M49.692,59.658c-.01.187-.014.375-.033.562s-.1.31-.3.312a.33.33,0,0,1-.375-.33c-.014-.321-.006-.643,0-.965,0-.247,0-.516.351-.51s.316.3.335.529c.011.133,0,.268,0,.4h.02" transform="translate(-15.873 -19.032)" fill="#f6f1ed"/>
    <path id="Path_5179" data-name="Path 5179" d="M48.984,105.8c0-.162,0-.324,0-.486a.341.341,0,0,1,.324-.389c.3-.026.36.191.37.419.014.323.018.648,0,.971-.012.218-.057.451-.36.433s-.324-.239-.337-.463c-.009-.162,0-.324,0-.486Z" transform="translate(-15.873 -34.002)" fill="#f6f1ed"/>
    <path id="Path_5180" data-name="Path 5180" d="M49.7,90.424c-.016.226-.027.412-.044.6-.02.214-.122.361-.352.343a.346.346,0,0,1-.333-.376,2.972,2.972,0,0,1,0-.559c.054-.327-.2-.9.366-.881.536.017.223.606.366.876" transform="translate(-15.867 -29.021)" fill="#f6f1ed"/>
    <path id="Path_5181" data-name="Path 5181" d="M48.985,67.248c0-.135-.007-.27,0-.4.012-.235.084-.438.368-.432.243,0,.311.195.325.39a8.7,8.7,0,0,1,.025.89c-.007.243-.018.54-.347.543-.378,0-.386-.3-.372-.582.006-.134,0-.27,0-.4" transform="translate(-15.874 -21.523)" fill="#f6f1ed"/>
    <path id="Path_5182" data-name="Path 5182" d="M49.636,36.443c0,.289.009.474,0,.66-.013.2-.09.361-.333.357s-.32-.153-.328-.362a2.6,2.6,0,0,1,0-.556c.057-.317-.226-.881.376-.849.5.026.21.559.289.751" transform="translate(-15.865 -11.567)" fill="#f6f1ed"/>
    <path id="Path_5183" data-name="Path 5183" d="M49.711,75.051c-.018.225-.026.412-.048.6a.327.327,0,0,1-.306.319.332.332,0,0,1-.372-.333,2.294,2.294,0,0,1-.007-.561c.056-.333-.212-.908.32-.926.626-.022.271.614.413.9" transform="translate(-15.867 -24.03)" fill="#f6f1ed"/>
    <path id="Path_5184" data-name="Path 5184" d="M48.979,82.729c0-.224,0-.384,0-.544a.345.345,0,0,1,.326-.383c.237-.02.33.135.355.343a1.72,1.72,0,0,1,.036.478c-.062.36.191.975-.351.994-.62.022-.262-.617-.366-.888" transform="translate(-15.87 -26.51)" fill="#f6f1ed"/>
    <path id="Path_5185" data-name="Path 5185" d="M48.99,98.2c0-.286-.007-.472,0-.659a.34.34,0,0,1,.679,0,1.945,1.945,0,0,1,.031.558c-.053.339.176.914-.323.94-.653.034-.262-.612-.389-.833" transform="translate(-15.876 -31.505)" fill="#f6f1ed"/>
    <path id="Path_5186" data-name="Path 5186" d="M48.966,51.886c.014-.215.015-.432.048-.643.025-.155.164-.2.306-.206s.3.022.314.182a3.913,3.913,0,0,1,.024,1.366.3.3,0,0,1-.351.254.306.306,0,0,1-.314-.3c-.01-.216,0-.432,0-.648h-.023" transform="translate(-15.869 -16.54)" fill="#f6f1ed"/>
    <path id="Path_5187" data-name="Path 5187" d="M46.128,44.24c0-.187-.009-.375,0-.562a.343.343,0,0,1,.356-.357.337.337,0,0,1,.366.346c.021.347.013.7,0,1.044-.005.233-.082.437-.361.436s-.368-.183-.379-.425c-.007-.16,0-.321,0-.482h.012" transform="translate(-14.945 -14.04)" fill="#f6f1ed"/>
    <path id="Path_5188" data-name="Path 5188" d="M49.736,113.472a5.8,5.8,0,0,1,0,.645.361.361,0,0,1-.37.345.331.331,0,0,1-.36-.341,2.261,2.261,0,0,1-.016-.556c.049-.333-.2-.885.335-.916.641-.036.337.576.416.823" transform="translate(-15.869 -36.507)" fill="#f6f1ed"/>
    <path id="Path_5189" data-name="Path 5189" d="M49.621,44.279c0,.161.005.322,0,.482-.007.207-.082.368-.319.381s-.343-.134-.349-.345c-.01-.374-.007-.75,0-1.124a.3.3,0,0,1,.352-.336c.245.014.306.177.313.381.005.187,0,.375,0,.562" transform="translate(-15.863 -14.044)" fill="#f6f1ed"/>
    <path id="Path_5190" data-name="Path 5190" d="M46.6,76.451c-.208,0-.3-.135-.308-.35s.055-.381.293-.392.333.14.349.349-.091.349-.335.393" transform="translate(-15.001 -24.536)" fill="#f6f1ed"/>
    <path id="Path_5191" data-name="Path 5191" d="M46.943,51.434c-.049.2-.095.4-.337.389-.281-.009-.341-.214-.326-.449.014-.216.115-.354.354-.329s.278.21.309.389" transform="translate(-14.998 -16.542)" fill="#f6f1ed"/>
    <path id="Path_5192" data-name="Path 5192" d="M48.946,13.427c0-.188,0-.375,0-.563a.3.3,0,0,1,.29-.322.3.3,0,0,1,.366.325c.011.321.018.643.012.965,0,.242,0,.523-.345.522s-.328-.285-.339-.525c-.006-.134,0-.268,0-.4h.015" transform="translate(-15.857 -4.064)" fill="#f6f1ed"/>
    <path id="Path_5193" data-name="Path 5193" d="M48.948,5.711c0-.188-.007-.376,0-.563a.331.331,0,0,1,.661.021c.011.295.016.59.01.885-.005.262.041.6-.351.593s-.318-.355-.329-.614c0-.107,0-.214,0-.322Z" transform="translate(-15.86 -1.566)" fill="#f6f1ed"/>
    <path id="Path_5194" data-name="Path 5194" d="M48.948,21.114c0-.161-.005-.322,0-.482.009-.206.082-.369.321-.378s.337.14.345.352c.011.321.011.643.009.965,0,.251-.01.509-.366.49-.3-.016-.308-.243-.312-.464,0-.161,0-.322,0-.483h0" transform="translate(-15.862 -6.564)" fill="#f6f1ed"/>
    <path id="Path_5195" data-name="Path 5195" d="M49.623,28.892c0,.161,0,.322,0,.483-.006.205-.07.372-.314.383-.3.014-.356-.185-.36-.42-.005-.295,0-.59,0-.885,0-.247,0-.518.356-.5s.308.3.319.537c.006.134,0,.268,0,.4" transform="translate(-15.862 -9.059)" fill="#f6f1ed"/>
    <path id="Path_5196" data-name="Path 5196" d="M17.838,59.876a1.022,1.022,0,0,1-1.006-1.119c.053-.6.349-1.019,1.02-1.016a1.077,1.077,0,0,1,1.068,1.088,1.014,1.014,0,0,1-1.082,1.047" transform="translate(-5.454 -18.713)" fill="#97c4d0"/>
    <path id="Path_5197" data-name="Path 5197" d="M32.1,59.188c-.881-.009-1.2-.516-1.175-1.327.226-.457.512-.845,1.1-.721a.985.985,0,0,1,.822.879,1,1,0,0,1-.749,1.169" transform="translate(-10.022 -18.51)" fill="#99c5d0"/>
    <path id="Path_5198" data-name="Path 5198" d="M18.71,59.134c-.051.379-.259.62-.529.593a.8.8,0,0,1-.676-.735.442.442,0,0,1,.483-.519c.389.049.406.55.723.661" transform="translate(-5.672 -18.949)" fill="#2b2a2f"/>
    <path id="Path_5199" data-name="Path 5199" d="M32.64,58.51c-.064.361-.23.582-.542.556a.612.612,0,0,1-.62-.608c-.016-.312.189-.629.433-.561.287.08.5.411.729.613" transform="translate(-10.201 -18.76)" fill="#2f3134"/>
  </g>
</svg>
