<svg id="Group_1275" data-name="Group 1275" xmlns="http://www.w3.org/2000/svg" xmlns:xlink="http://www.w3.org/1999/xlink" width="55" height="94" viewBox="0 0 55 94">
  <defs>
    <clipPath id="clip-path">
      <rect id="Rectangle_1901" data-name="Rectangle 1901" width="55" height="94" fill="none"/>
    </clipPath>
  </defs>
  <g id="Group_1135" data-name="Group 1135" clip-path="url(#clip-path)">
    <path id="Path_16730" data-name="Path 16730" d="M20.1,63.847a1.8,1.8,0,0,1,1.032-.12c.2.151.391.324.6.455.686.425,1.247.117,1.24-.7a.753.753,0,0,1,.579-.812,8.264,8.264,0,0,1,1.057-.267A9.976,9.976,0,0,0,32.2,56.162a1.8,1.8,0,0,0,.136-.572,4.923,4.923,0,0,1,.329-1.15,1.993,1.993,0,0,0,.294-1.2,15.22,15.22,0,0,0,.2-3.783,2.885,2.885,0,0,1,.149-.827c.044-1.581.489-3.118.452-4.714-.022-.991-.11-1.97-.215-2.949-.794-3.4-3.35-4.756-6.36-5.59-.828-.229-1.661-.427-2.5-.587-.292-.056-.7-.018-.7-.51a.962.962,0,0,1,.876-.407c3.978,0,7.957-.054,11.933.018,1.821.033,3.637.028,5.457-.016,3.195-.076,6.388.134,9.584.081.9-.015,1.788-.139,2.686-.088,1.346.078,1.627.351,1.628,1.689q.008,29.65,0,59.3a2.281,2.281,0,0,1-.15,1.082,1.225,1.225,0,0,1-1.183.652c-.224,0-.448.009-.671.009q-12.839,0-25.679,0a2.986,2.986,0,0,1-1.241-.122,3.4,3.4,0,0,0-1.892-1.324c-.822-.289-.965-.9-.624-1.948.356-.385,1.176-.369,1.018-1.2a46.452,46.452,0,0,1,.518-4.95c.185-1.792.333-3.589.6-5.371.142-.944.272-1.89.452-2.827.141-.557.629-.771,1.042-1.047a1.312,1.312,0,0,0,.617-1.513c-.448-2.216-.922-4.426-1.406-6.634-.018-.083-.05-.163-.061-.246-.046-.343-.318-.793.11-.98.351-.153.551.284.761.538,1.306,1.868,2.417,3.861,3.625,5.793.333.533.283,1.252.71,1.789a1.446,1.446,0,0,0,.964.594c.325.05.7.088.744-.309.046-.371.569-.645.065-1.177-.526-.555-.829-1.255-1.617-1.632-.532-.255-.781-1-1.16-1.527-.71-.982-1.245-2.075-1.878-3.105a1.655,1.655,0,0,1-.288-1.045,1.291,1.291,0,0,0-.274-1.323A7.4,7.4,0,0,0,25.7,64.411a.882.882,0,0,0-1.249.406,2.687,2.687,0,0,1-4.2.1c-.235-.321-.462-.664-.154-1.074" transform="translate(-5.954 -9.903)" fill="#deeafa" opacity="0.5"/>
    <path id="Path_16731" data-name="Path 16731" d="M22.825,23.905c-.006-7.457,0-14.915-.033-22.373,0-.707.358-.677.832-.676q8.067.006,16.135,0l16.807,0c.5.271.418.761.42,1.2.015,3.22.006,6.44.007,9.66,0,3.588.006,7.176,0,10.763,0,1.556-.227,1.782-1.737,1.727-.87-.032-1.732.084-2.6.092-2.38.023-4.759-.105-7.137-.074-5.711.075-11.421-.074-17.132-.008-1.506.018-3.013.046-4.52.074-.391.007-.8.023-1.04-.392" transform="translate(-6.803 -0.25)" fill="#deeafa" opacity="0.5"/>
    <path id="Path_16732" data-name="Path 16732" d="M27.525,58.029a9.687,9.687,0,0,1-4.481,5.752,11.808,11.808,0,0,1-4.174,1.426c-.443.074-1.059.1-.554.869.224.34-.089.6-.334.763a1.3,1.3,0,0,1-1.494.01.792.792,0,0,1-.42-.775c.22-.078.57-.046.472-.433-.093-.369-.438-.283-.7-.3a10.558,10.558,0,0,1-7.6-3.579,12.66,12.66,0,0,1-1.654-2.324c-.137-.246-.233-.529-.626-.594-2.325-.382-3.291-1.755-2.868-4.008a1.17,1.17,0,0,1,.485-.782,2.025,2.025,0,0,1,2.573.282c.386.472.633.429.832-.173a22.9,22.9,0,0,0,1.179-5.092c.086-.947.313-1.2,1.255-1.209,1.368-.018,2.727.214,4.1.165.784-.028,1.56-.1,2.338-.167.546-.049.709-.308.723-.814a2.942,2.942,0,0,1,.241-1.727.281.281,0,0,1,.248-.075c.567.424.455,1.119.661,1.686.147.405.139.94.81.86.653-.079.89-.443.908-1.085a29.3,29.3,0,0,0-.253-3.544c-.021-.224-.082-.445-.086-.671s-.025-.5.222-.591c.225-.087.432.071.6.228a5.075,5.075,0,0,1,.84,1.16,11.263,11.263,0,0,1,1.306,3.292,1.023,1.023,0,0,0,1.293.936c.891-.1,1.777-.226,2.668-.32,1.2-.127,1.357,0,1.695,1.21.25.892.469,1.793.754,2.676-.121,1.133.122,2.275-.11,3.406a7.263,7.263,0,0,1-.532,2.505,2.3,2.3,0,0,0-3.862.137.857.857,0,0,0,.513,1.388,2.668,2.668,0,0,0,2.119-.194c.286-.141.536-.444.918-.294" transform="translate(-0.892 -12.25)" fill="#f9cbc2"/>
    <path id="Path_16733" data-name="Path 16733" d="M22.146,121.864q5.842.013,11.685.025,8.071.007,16.142,0c.337,0,.758.153.9-.363a1.266,1.266,0,0,1,1.051.343.809.809,0,0,1,.083.006c.729.123,1.853-.345,2.122.217.45.942.132,2.137.126,3.226,0,.306-.269.309-.5.313-.555.008-1.111.012-1.666.018-.786.565-1.66.277-2.506.265a2.8,2.8,0,0,0-.328.011,6.14,6.14,0,0,1-1.173.054H10.3a8.988,8.988,0,0,1-1.257-.05c-.918-.041-1.88.329-2.741-.282-.7-.006-1.4-.031-2.1-.008-.481.015-.642-.186-.629-.652.022-.763.034-1.53-.009-2.291-.037-.639.206-.82.826-.815,2.888.024,5.778,0,8.667,0a1.053,1.053,0,0,1,.829-.328c.918,0,1.837-.057,2.753.034a1.781,1.781,0,0,0,.467.029,11.335,11.335,0,0,1,1.557-.057c.833-.035,1.665-.014,2.5-.012a1.163,1.163,0,0,1,.994.317" transform="translate(-1.06 -35.547)" fill="#626aa7"/>
    <path id="Path_16734" data-name="Path 16734" d="M17.858,76.25A1.869,1.869,0,0,0,19.7,77.977c1.409.122,2.022-.183,2.44-1.341.159-.438.4-.388.709-.324a7.991,7.991,0,0,1,4.8,3.45c.3.412-.008.741-.169,1.088-.389.828-.61.947-1.513.818l-.624-.828c.225,1.024.415,1.869.6,2.715s.36,1.712.537,2.569.285,1.733.542,2.563a1.394,1.394,0,0,1-.757,1.817c-.338.2-.669.406-1,.611A.745.745,0,0,1,25,91.4c-.476.373-1.1.32-1.618.574a16.865,16.865,0,0,1-2.782.3,3.472,3.472,0,0,1-.569,0,14.715,14.715,0,0,1-2.789-.293,9.85,9.85,0,0,1-1.522-.434c-.166-.073-.248-.241-.385-.347-2.716-1.4-2.1-1.234-1.452-3.587a34.464,34.464,0,0,0,1.314-6.664c-.461.149-.371.827-.9.811a1.182,1.182,0,0,1-1.3-.634c-.758-.921-.744-.908.039-1.786,1.227-1.377,2.491-2.687,4.4-3.05.135-.025.276-.025.414-.037" transform="translate(-3.714 -22.306)" fill="#365997"/>
    <path id="Path_16735" data-name="Path 16735" d="M27.587,50.76c-.462.1-.391-.331-.456-.532-.276-.857-.515-1.728-.729-2.6-.105-.428-.241-.593-.739-.512-1.13.184-2.283.227-3.414.405-.859.135-1.209-.139-1.361-1.024a9.519,9.519,0,0,0-2.356-4.775,31.65,31.65,0,0,1,.3,5.087c-.027.486-.055.889-.751.952-1.3.117-1.3.175-1.562-1.116-.114-.552-.233-1.1-.35-1.655a1.4,1.4,0,0,1-.237-.914c-.1.24.154.574.052.9.012.649,0,1.3.044,1.947.046.673-.208.923-.9.981A46.552,46.552,0,0,1,8.5,47.863c-.707-.04-.884.171-.929.865a21.45,21.45,0,0,1-1.685,6.548l-.823-1.133A19.937,19.937,0,0,0,6.19,49.377c-.284.361-.479.685-.733.96a1.794,1.794,0,0,1-3.129-.275A11.215,11.215,0,0,1,.958,46.177a18.788,18.788,0,0,0,1.351,6.49,4.851,4.851,0,0,1,.374,1.3l-.491.555A15.822,15.822,0,0,1,.038,45.638C-.052,44.46.657,44,1.64,43.616a41.535,41.535,0,0,1,11.97-2.749,37.585,37.585,0,0,1,11.144.964,9.982,9.982,0,0,1,3.02.943,14.565,14.565,0,0,1,.1,6.162c-.079.61-.189,1.216-.284,1.824" transform="translate(0 -11.929)" fill="#373b5d"/>
    <path id="Path_16736" data-name="Path 16736" d="M51.747,86.32c-.4.028-.814.122-1.052-.344-.006-.339-.019-.678-.019-1.017q0-29.734,0-59.468c0-1.353.154-1.182-1.16-1.184q-14.889-.016-29.778-.006a1.279,1.279,0,0,0-.88.21,1.3,1.3,0,0,1-1.031.214,37.345,37.345,0,0,0-4.4.067.756.756,0,0,1-.746-.259c-.13-.229-.333-.251-.575-.249q-4.16.041-8.32.063a3.05,3.05,0,0,1-.5-.027c-.173-.027-.327-.1-.328-.316s.149-.29.329-.3c.252-.015.5-.013.756-.014L16.9,23.654q8.451.016,16.9.03c5.354,0,10.709,0,16.063.006.507,0,.821-.01.819-.69-.024-7.378-.017-14.757-.02-22.135,0-.084-.015-.168-.024-.253.109-.321.182-.71.654-.589.36.093.429.412.431.741,0,.678,0,1.358,0,2.036,0,6.589.015,13.179-.019,19.769,0,.863.187,1.281,1.094,1.129a1.721,1.721,0,0,1,.336,0c.18.008.348.054.358.269.012.246-.154.352-.373.365a5.624,5.624,0,0,1-.756.008c-.467-.035-.685.158-.641.637.01.112,0,.226,0,.339q0,30.247,0,60.494c0,.17.008.339.013.509" transform="translate(-0.882 0)" fill="#344388"/>
    <path id="Path_16737" data-name="Path 16737" d="M27.789,41.276c-.153.07-.307.163-.48.079a15.742,15.742,0,0,0-3.391-.89A38.982,38.982,0,0,0,18.3,39.67a26.419,26.419,0,0,0-4.978.067,34.434,34.434,0,0,0-8.048,1.5c-1.209.427-2.408.886-3.635,1.256-.866.261-1.511.652-1.584,1.648a7.325,7.325,0,0,1,4.4-7.15,10.121,10.121,0,0,1,2.483-.982,42.64,42.64,0,0,0,8.476.825,18.748,18.748,0,0,0,5.128-.726,1.417,1.417,0,0,0,.875-.45c2.886.775,5.356,2.067,6.328,5.2a2.278,2.278,0,0,1,.051.412" transform="translate(-0.015 -10.432)" fill="#373b5d"/>
    <path id="Path_16739" data-name="Path 16739" d="M18.422,97.888l2.959.3a1.71,1.71,0,0,1,.159.983c.043,3.745-.054,7.49-.076,11.235a1.462,1.462,0,0,1-.31,1.184,4.951,4.951,0,0,0-2.286-.371.865.865,0,0,1-.8-.5q-.75-6.67-1.5-13.338l.376.1c.275.95.871.705,1.483.406" transform="translate(-4.943 -28.487)" fill="#373b5d"/>
    <path id="Path_16740" data-name="Path 16740" d="M24.337,35.286l.413.4a19.839,19.839,0,0,1-4.642.978,36.321,36.321,0,0,1-9.4-.545c-.288-.04-.838.149-.852-.482a17.685,17.685,0,0,1,4.882-1.044,27.891,27.891,0,0,1,5.177-.136c.334.032.666.076,1,.114a12.073,12.073,0,0,1,3.421.715" transform="translate(-2.943 -10.058)" fill="#373b5d"/>
    <path id="Path_16741" data-name="Path 16741" d="M10.853,83.14l1.3.633c-1.01,1.817-2.106,3.578-3.241,5.319-.446.685-.43,1.66-1.011,2.333-.2.226-.233.951-.784.308-.014-.017-.135.033-.185.077-.159.143-.3.425-.539.261-.271-.185.125-.451.02-.684-.262.049-.4.567-.7.252-.364-.379.283-.527.282-.875-.222-.195-.6.368-.732-.084-.09-.32.315-.422.475-.639.255-.345,1.036-.5.3-1.174-.274-.252.155-.461.38-.394.988.292,1.307-.451,1.746-1.057.991-1.367,1.793-2.852,2.695-4.276" transform="translate(-1.565 -24.321)" fill="#f9cbc2"/>
    <path id="Path_16742" data-name="Path 16742" d="M10.158,129.546a1.37,1.37,0,0,1-1.452,1.024c-.831-.062-1.044-.7-1.231-1.364l-.011-1.849h2.706a1.788,1.788,0,0,1-.013,2.19" transform="translate(-2.228 -37.256)" fill="#354487"/>
    <path id="Path_16743" data-name="Path 16743" d="M71.621,129.711a1.8,1.8,0,0,1-.993.842,1.215,1.215,0,0,1-1.536-1.169c-.026-.67-.021-1.341-.03-2.012l2.584-.013q-.013,1.177-.025,2.353" transform="translate(-20.612 -37.257)" fill="#354387"/>
    <path id="Path_16744" data-name="Path 16744" d="M20.752,120.628a26.733,26.733,0,0,1-3.673.008c-.095-.6.094-.993.757-1.038a1.186,1.186,0,0,0,.24-.074c1.588-.484,1.353-.149,1.376-1.858.451-.574.969-.468,1.507-.151.274,1.06.555,2.122-.207,3.113" transform="translate(-5.091 -34.302)" fill="#f9cbc2"/>
    <path id="Path_16745" data-name="Path 16745" d="M21.318,117.313l-1.439.053c-.217-.024-.434-.05-.652-.072-.694-.074-.914-.414-.589-1.062a3.7,3.7,0,0,0,1.973.186c.6-.067.88.124.918.714a.163.163,0,0,1-.007.2.173.173,0,0,1-.2-.023" transform="translate(-5.519 -34.002)" fill="#365997"/>
    <path id="Path_16746" data-name="Path 16746" d="M23.844,98.154l2.924-.309c.078.029.185,0,.236.033.725.541,1.052.115,1.3-.528l.305-.088q-.619,5.468-1.238,10.938c-.095.841-.175,1.684-.262,2.526a2.555,2.555,0,0,1-3.215-.126,1.837,1.837,0,0,1-.157-.906c-.06-3.549-.1-7.1-.077-10.65a1.334,1.334,0,0,1,.189-.889" transform="translate(-7.058 -28.452)" fill="#373b5d"/>
    <path id="Path_16747" data-name="Path 16747" d="M31.723,83.57a3.076,3.076,0,0,0,1.513-.819,22.306,22.306,0,0,0,2.42,4.21,7.95,7.95,0,0,1,.53.759,1.21,1.21,0,0,0,1.333.768c.41-.047.8.049.319.569-.249.271-.078.449.13.625s.42.363.622.553a2.616,2.616,0,0,1,.215.258c-.494.229-.349.843-.6,1.122a1.454,1.454,0,0,1-1.7.081,2.4,2.4,0,0,1-1.04-1.645,3.3,3.3,0,0,0-.657-1.588,50.466,50.466,0,0,1-2.671-4.475c-.081-.166-.269-.279-.407-.417" transform="translate(-9.468 -24.208)" fill="#f9cbc2"/>
    <path id="Path_16748" data-name="Path 16748" d="M36.2,63.717a3.235,3.235,0,0,1-2.834.872,1.46,1.46,0,0,1-1.27-1.057c-.158-.6.285-1,.806-1.322a3.7,3.7,0,0,1,2.279-.883c.88.075,1.29.448,1.331,1.353-.279.292-.036.744-.311,1.036" transform="translate(-9.571 -17.938)" fill="#f8b29b"/>
    <path id="Path_16749" data-name="Path 16749" d="M28.308,120.617a20.1,20.1,0,0,1-3.58,0,3,3,0,0,1-.2-3.105,1.119,1.119,0,0,1,1.561.117c-.056,1.518-.06,1.53,1.543,1.967.554.151.964.336.673,1.023" transform="translate(-7.222 -34.3)" fill="#f9cbc2"/>
    <path id="Path_16750" data-name="Path 16750" d="M52.036,107.636c.283-.282.577-.181.84-.182q4.412-.013,8.825,0c.168,0,.337,0,.5.009.144.007.295.033.278.225-.011.127-.124.175-.243.183s-.224.01-.335.01q-4.623,0-9.245,0c-.213,0-.455.053-.624-.237" transform="translate(-15.531 -31.429)" fill="#394089"/>
    <path id="Path_16751" data-name="Path 16751" d="M57.231,115.569c-1.513,0-3.027,0-4.54,0-.208,0-.543.093-.568-.192-.03-.339.319-.231.511-.231q4.666-.008,9.333.008c.194,0,.543-.115.53.213-.012.3-.351.2-.556.2-1.569.008-3.139,0-4.709,0" transform="translate(-15.556 -33.679)" fill="#3a4288"/>
    <path id="Path_16752" data-name="Path 16752" d="M57.333,92.049c1.571,0,3.141,0,4.712,0,.178,0,.456-.073.465.209s-.267.239-.449.239q-4.753.007-9.507,0c-.188,0-.477.031-.468-.221.011-.325.335-.224.536-.225,1.57-.009,3.141-.006,4.711-.006" transform="translate(-15.546 -26.925)" fill="#5c6499"/>
    <path id="Path_16753" data-name="Path 16753" d="M62.527,99.964c-.161.32-.444.218-.676.219q-4.537.011-9.073,0a2.887,2.887,0,0,1-.5-.031.256.256,0,0,1-.17-.154c-.031-.132.069-.2.187-.216a2.529,2.529,0,0,1,.335-.016q4.747,0,9.494,0c.13,0,.283-.033.4.191" transform="translate(-15.55 -29.186)" fill="#383f87"/>
    <path id="Path_16754" data-name="Path 16754" d="M52.117,84.483H62.5c0,.069,0,.137,0,.206H52.114c0-.069,0-.137,0-.206" transform="translate(-15.554 -24.714)" fill="#43498d"/>
    <path id="Path_16755" data-name="Path 16755" d="M52.111,61.46H62.5c0,.064,0,.128,0,.192h-10.4c0-.064,0-.128,0-.192" transform="translate(-15.552 -17.979)" fill="#3c4388"/>
    <path id="Path_16756" data-name="Path 16756" d="M62.5,54H52.1c0-.064,0-.129,0-.193H62.5c0,.064,0,.129,0,.193" transform="translate(-15.549 -15.739)" fill="#3c4388"/>
    <path id="Path_16757" data-name="Path 16757" d="M62.5,69.377H52.106c0-.066,0-.131,0-.2H62.5c0,.066,0,.131,0,.2" transform="translate(-15.551 -20.238)" fill="#3f4784"/>
    <path id="Path_16758" data-name="Path 16758" d="M62.5,77.066H52.109c0-.066,0-.133,0-.2H62.5c0,.067,0,.133,0,.2" transform="translate(-15.552 -22.486)" fill="#414a88"/>
    <path id="Path_16759" data-name="Path 16759" d="M62.5,46.311H52.108c0-.065,0-.131,0-.2H62.5v.2" transform="translate(-15.552 -13.49)" fill="#3e458c"/>
    <path id="Path_16760" data-name="Path 16760" d="M52.1,38.344H62.576c-.481.391-9.582.482-10.473,0" transform="translate(-15.551 -11.217)" fill="#424a8f"/>
    <path id="Path_16761" data-name="Path 16761" d="M59.294,89.193c.108-.273.33-.208.511-.209,1.424-.006,2.848-.009,4.272,0,.2,0,.539-.106.56.187.023.334-.321.222-.517.224q-2.136.017-4.272.008c-.2,0-.454.059-.553-.212" transform="translate(-17.697 -26.026)" fill="#384086"/>
    <path id="Path_16762" data-name="Path 16762" d="M61.991,41.718c-.782,0-1.565,0-2.347,0-.135,0-.308,0-.333-.175-.035-.244.171-.257.329-.258q2.347-.02,4.694-.021c.164,0,.365.05.33.274s-.249.186-.408.187c-.755,0-1.509,0-2.264,0v-.007" transform="translate(-17.701 -12.071)" fill="#5f6897"/>
    <path id="Path_16763" data-name="Path 16763" d="M61.985,73.587c.785,0,1.569,0,2.354,0,.135,0,.308,0,.329.178.027.233-.162.271-.329.272q-2.354.01-4.708,0c-.168,0-.356-.04-.328-.273.021-.18.193-.181.329-.182.784,0,1.569,0,2.354,0" transform="translate(-17.698 -21.526)" fill="#5d659b"/>
    <path id="Path_16764" data-name="Path 16764" d="M59.316,70.754c.054-.283.288-.22.464-.221q2.173-.017,4.347-.011c.2,0,.525-.082.518.241-.006.253-.3.183-.482.183q-2.215,0-4.431-.011c-.155,0-.347.045-.416-.18" transform="translate(-17.703 -20.627)" fill="#354085"/>
    <path id="Path_16765" data-name="Path 16765" d="M62.007,67.881c-.756,0-1.51,0-2.266,0-.187,0-.447.035-.436-.248.008-.212.238-.2.4-.2,1.511-.006,3.022-.011,4.532,0,.177,0,.456-.03.429.255-.025.27-.3.2-.478.2-.727.008-1.454,0-2.182,0" transform="translate(-17.7 -19.723)" fill="#5c659a"/>
    <path id="Path_16766" data-name="Path 16766" d="M62.068,55.11c.724,0,1.449-.006,2.173,0,.18,0,.445-.039.44.245,0,.2-.222.226-.389.226q-2.3,0-4.6-.008c-.166,0-.384-.015-.4-.217-.017-.3.25-.242.429-.244.779-.008,1.56,0,2.34,0" transform="translate(-17.698 -16.121)" fill="#62689c"/>
    <path id="Path_16767" data-name="Path 16767" d="M61.961,63.268c-.752,0-1.5,0-2.256,0-.161,0-.374.02-.4-.2s.177-.257.342-.258q2.339-.008,4.679,0c.165,0,.377.019.363.242s-.22.221-.389.221c-.78,0-1.56,0-2.34,0v0" transform="translate(-17.699 -18.373)" fill="#5f669b"/>
    <path id="Path_16768" data-name="Path 16768" d="M61.98,60.191c-.756,0-1.513,0-2.268,0-.166,0-.375.008-.407-.2-.036-.234.177-.255.337-.255q2.353-.006,4.7,0c.139,0,.309.031.326.2.022.231-.17.257-.34.258-.784,0-1.568,0-2.352,0" transform="translate(-17.699 -17.473)" fill="#5e689a"/>
    <path id="Path_16769" data-name="Path 16769" d="M61.942,104.8c-.756,0-1.512,0-2.268,0-.167,0-.382-.014-.384-.227s.214-.227.381-.228q2.31-.006,4.62-.006c.172,0,.377.027.38.238s-.208.226-.376.227c-.784,0-1.568,0-2.352,0v0" transform="translate(-17.695 -30.524)" fill="#5e6897"/>
    <path id="Path_16770" data-name="Path 16770" d="M59.319,52.2h5.349c0,.07,0,.14,0,.21H59.318c0-.07,0-.14,0-.21" transform="translate(-17.704 -15.27)" fill="#374085"/>
    <path id="Path_16771" data-name="Path 16771" d="M61.995,112.5c-.783,0-1.567,0-2.349,0-.133,0-.305,0-.331-.178-.033-.236.156-.275.321-.275q2.35-.005,4.7.006c.161,0,.37.029.334.262s-.248.186-.408.187c-.756,0-1.51,0-2.266,0" transform="translate(-17.702 -32.777)" fill="#5f679b"/>
    <path id="Path_16772" data-name="Path 16772" d="M59.312,96.868c.074-.218.261-.181.419-.182q2.218-.007,4.437,0c.182,0,.462-.064.481.194.022.3-.27.216-.442.217q-2.217.015-4.436,0c-.174,0-.411.054-.459-.231" transform="translate(-17.702 -28.281)" fill="#3a4089"/>
    <path id="Path_16773" data-name="Path 16773" d="M64.656,78.582H59.312c0-.069,0-.139,0-.207h5.345l0,.207" transform="translate(-17.702 -22.928)" fill="#353f86"/>
    <path id="Path_16774" data-name="Path 16774" d="M62.012,94.037c-.754,0-1.508.006-2.262,0-.179,0-.446.059-.448-.23,0-.212.224-.219.389-.219q2.3,0,4.606.016c.159,0,.38.007.368.233s-.232.2-.391.2c-.754,0-1.508,0-2.262,0" transform="translate(-17.7 -27.377)" fill="#5e689b"/>
    <path id="Path_16775" data-name="Path 16775" d="M64.649,44.679H59.307l0-.262c1.784-.1,3.567-.074,5.351-.016,0,.093-.008.185-.011.277" transform="translate(-17.701 -12.974)" fill="#384187"/>
    <path id="Path_16776" data-name="Path 16776" d="M62.021,36.678c.781,0,1.562,0,2.343,0,.136,0,.3,0,.306.19s-.152.219-.3.219q-2.343.007-4.686,0c-.158,0-.379-.016-.342-.247s.262-.162.415-.163c.753-.007,1.506,0,2.26,0" transform="translate(-17.711 -10.729)" fill="#33437d"/>
    <path id="Path_16777" data-name="Path 16777" d="M64.724,81.313c-.1.374-.236.407-.379.407q-2.3,0-4.607,0c-.162,0-.37.027-.416-.182-.04-.183.131-.221.271-.221,1.686,0,3.371,0,5.13,0" transform="translate(-17.704 -23.787)" fill="#393e87"/>
    <path id="Path_16778" data-name="Path 16778" d="M26.017,117.346l-1.461-.062c-.736-.091-.728-.478-.389-1a7.959,7.959,0,0,0,3.026,0c.274,1.108-.579.935-1.176,1.055" transform="translate(-7.147 -34.018)" fill="#365997"/>
    <path id="Path_16779" data-name="Path 16779" d="M62.038,47.427c.756,0,1.513,0,2.268,0,.16,0,.375-.021.373.219,0,.222-.206.24-.373.239-1.54,0-3.08-.006-4.62-.021-.15,0-.384,0-.383-.225s.224-.207.382-.209c.784-.006,1.568,0,2.352,0" transform="translate(-17.7 -13.874)" fill="#60679a"/>
    <path id="Path_16780" data-name="Path 16780" d="M62.069,65.9c.754,0,1.508,0,2.262,0,.129,0,.307-.027.331.163.032.245-.171.262-.329.262q-2.346.012-4.692,0c-.154,0-.373-.019-.33-.26s.257-.17.411-.171c.782-.007,1.564,0,2.347,0Z" transform="translate(-17.701 -19.277)" fill="#5d679c"/>
    <path id="Path_16781" data-name="Path 16781" d="M61.988,49.412c-.753,0-1.506,0-2.258,0-.154,0-.386.044-.4-.18-.027-.31.254-.24.42-.242Q62,48.96,64.26,48.961c.177,0,.44-.007.4.284-.032.22-.259.17-.413.171-.753.007-1.506,0-2.258,0Z" transform="translate(-17.706 -14.323)" fill="#5f699a"/>
    <path id="Path_16782" data-name="Path 16782" d="M46.994,59.013a.889.889,0,0,0,.022.9.615.615,0,0,1-.258.811.842.842,0,0,1-.951.021.639.639,0,0,1-.3-.8,1.6,1.6,0,0,0,.06-.947c-.1-.514.2-.792.725-.779.486.012.695.292.7.8" transform="translate(-13.569 -17.03)" fill="#4a508c"/>
    <path id="Path_16783" data-name="Path 16783" d="M59.327,85.989c1.779-.132,3.559-.067,5.339-.046v.286H59.328c0-.08,0-.16,0-.24" transform="translate(-17.707 -25.131)" fill="#36427b"/>
    <path id="Path_16784" data-name="Path 16784" d="M64.845,110.8a6.742,6.742,0,0,1-2.107.175c-1.031,0-2.061-.013-3.092-.029-.156,0-.363,0-.33-.253.025-.192.2-.168.33-.167q2.423,0,4.847.025c.062,0,.124.083.352.248" transform="translate(-17.703 -32.332)" fill="#5c679b"/>
    <path id="Path_16785" data-name="Path 16785" d="M48.471,59.55c0-.253-.02-.507,0-.757a.608.608,0,0,1,.673-.595c.375-.008.695.105.746.51a9.559,9.559,0,0,1,.051,1.425.68.68,0,0,1-.744.73c-.515,0-.751-.3-.746-.807,0-.169,0-.337,0-.506h.015" transform="translate(-14.462 -17.025)" fill="#4d548e"/>
    <path id="Path_16786" data-name="Path 16786" d="M48.468,105.711c0-.225-.009-.45,0-.674A.74.74,0,0,1,49.937,105a10.1,10.1,0,0,1,.025,1.262.7.7,0,0,1-.78.78c-.539-.008-.725-.335-.725-.826,0-.168,0-.337,0-.506h.011" transform="translate(-14.462 -30.533)" fill="#4d558e"/>
    <path id="Path_16787" data-name="Path 16787" d="M45.628,83.247c.465.113,1.04.707,1.031-.262,0-.3-.1-.59-.511-.417-.285.12-.537.122-.5-.265.034-.349-.264-.859.281-1.01a1.363,1.363,0,0,1,1,.054c.049.235-.068.253-.173.287-.217.071-.589-.1-.619.254-.028.336.347.159.521.262a.988.988,0,0,1,.421,1.1.7.7,0,0,1-.625.688c-.4.045-.7-.109-.821-.7" transform="translate(-13.609 -23.762)" fill="#585f92"/>
    <path id="Path_16788" data-name="Path 16788" d="M48.461,90.319c0-.225-.009-.451,0-.675a.656.656,0,0,1,.706-.674.65.65,0,0,1,.748.628,8.468,8.468,0,0,1,.025,1.347.689.689,0,0,1-.766.712c-.485-.006-.7-.287-.72-.748-.008-.2,0-.393,0-.591h.007" transform="translate(-14.461 -26.027)" fill="#4c558a"/>
    <path id="Path_16789" data-name="Path 16789" d="M49.966,67.507a2.523,2.523,0,0,1-.045.537.663.663,0,0,1-.753.525.648.648,0,0,1-.69-.6,11.851,11.851,0,0,1-.022-1.264c.007-.487.2-.806.746-.808s.73.327.763.8c.013.2,0,.393,0,.807" transform="translate(-14.46 -19.277)" fill="#4e568d"/>
    <path id="Path_16790" data-name="Path 16790" d="M48.431,36.317c.061-.355-.154-.84.3-1.11a.791.791,0,0,1,1,.1,2.944,2.944,0,0,1,.025,2.187.782.782,0,0,1-.988.166c-.3-.129-.356-.42-.34-1.344" transform="translate(-14.454 -10.261)" fill="#4f568f"/>
    <path id="Path_16791" data-name="Path 16791" d="M48.454,74.829c.032-.432-.114-.913.349-1.162a.746.746,0,0,1,.987.167,3.16,3.16,0,0,1,.024,2.129.73.73,0,0,1-.974.21c-.577-.316-.327-.891-.386-1.344" transform="translate(-14.46 -21.517)" fill="#4c5589"/>
    <path id="Path_16792" data-name="Path 16792" d="M48.439,82.6c.011-.253,0-.507.038-.757a.617.617,0,0,1,.624-.566.632.632,0,0,1,.749.4,3.106,3.106,0,0,1-.009,1.9.631.631,0,0,1-.763.371.622.622,0,0,1-.6-.59c-.022-.25,0-.505,0-.758h-.029" transform="translate(-14.457 -23.776)" fill="#4c5589"/>
    <path id="Path_16793" data-name="Path 16793" d="M48.472,98c0-.225-.011-.451,0-.674a.735.735,0,0,1,1.461-.017,8.55,8.55,0,0,1,.011,1.347.678.678,0,0,1-.777.693c-.493-.018-.69-.3-.705-.758-.006-.2,0-.394,0-.591h.008" transform="translate(-14.464 -28.278)" fill="#4c558a"/>
    <path id="Path_16794" data-name="Path 16794" d="M48.465,51.722c.039-.27-.09-.652.141-.977.191-.268.483-.248.76-.226a.574.574,0,0,1,.557.533,11.212,11.212,0,0,1,.04,1.258c0,.531-.232.86-.8.845-.541-.014-.706-.359-.7-.843,0-.168,0-.337,0-.59" transform="translate(-14.464 -14.775)" fill="#4b528b"/>
    <path id="Path_16795" data-name="Path 16795" d="M47.108,44.373a2.321,2.321,0,0,1-.031.507.679.679,0,0,1-.791.575.635.635,0,0,1-.667-.615c-.034-.388-.01-.782-.018-1.174-.011-.533.193-.866.77-.855s.746.384.737.9c0,.139,0,.279,0,.666" transform="translate(-13.61 -12.524)" fill="#484e8a"/>
    <path id="Path_16796" data-name="Path 16796" d="M49.97,113.414a4.142,4.142,0,0,1-.008.753.67.67,0,0,1-.789.572.626.626,0,0,1-.664-.611c-.035-.389-.011-.782-.02-1.174-.013-.537.222-.875.772-.869.569.007.747.392.733.909,0,.139,0,.279,0,.42H49.97" transform="translate(-14.472 -32.789)" fill="#454d84"/>
    <path id="Path_16797" data-name="Path 16797" d="M49.9,44.163a5.1,5.1,0,0,1-.124.915c-.112.354-.44.4-.765.364a.593.593,0,0,1-.594-.595c-.024-.422-.015-.846-.017-1.269,0-.463.189-.755.685-.774.527-.021.774.245.78.763,0,.2,0,.4,0,.593l.035,0" transform="translate(-14.446 -12.522)" fill="#474f8b"/>
    <path id="Path_16798" data-name="Path 16798" d="M46.669,73.62c-.074.526-.4.965.309,1.322.311.156.253.655.056,1a.655.655,0,0,1-.786.322.7.7,0,0,1-.556-.748,2.826,2.826,0,0,1,.976-1.9" transform="translate(-13.637 -21.537)" fill="#535891"/>
    <path id="Path_16799" data-name="Path 16799" d="M46.338,106.53c.243.27.6-.006.825.32a1.507,1.507,0,0,1-1.3.134c-.29-.05-.12-.325-.02-.474.234-.352.505-.678.739-1.03.117-.176.3-.386.075-.6a.334.334,0,0,0-.518.037c-.123.131-.261.265-.389.035-.079-.143.057-.265.154-.362a.742.742,0,0,1,1-.074.676.676,0,0,1,.161.92,12.9,12.9,0,0,1-.735,1.1" transform="translate(-13.642 -30.527)" fill="#4e558a"/>
    <path id="Path_16800" data-name="Path 16800" d="M45.636,97.29c.172-.543.513-.723.971-.58a.612.612,0,0,1,.366.95c-.213.353.079.508.118.753.071.446-.046.8-.514.913a.691.691,0,0,1-.957-.565c.215-.138.307-.028.411.066.193.171.417.219.586,0,.192-.25.085-.473-.162-.631-.123-.079-.41-.121-.211-.313.224-.216.582-.37.3-.715s-.507.229-.911.123" transform="translate(-13.616 -28.277)" fill="#575c90"/>
    <path id="Path_16801" data-name="Path 16801" d="M46.27,53.15c-.255-.282-.028-.431.039-.586.107-.248.231-.4-.161-.544-.529-.2-.533-.679-.362-1.133a.655.655,0,0,1,.916-.337c.5.171.54.638.408,1.052a3.11,3.11,0,0,1-.839,1.548" transform="translate(-13.635 -14.77)" fill="#4d538c"/>
    <path id="Path_16802" data-name="Path 16802" d="M46.474,89.071c.1.5-.237.842-.351,1.254-.046.164-.352.407.007.529.331.112.432-.128.427-.428a.245.245,0,0,1,.213-.287c.187.5.485.983,0,1.53-.236-.1-.31-.439-.656-.4-.9.108-.721-.347-.436-.881a3.6,3.6,0,0,1,.8-1.32" transform="translate(-13.562 -26.056)" fill="#525a8b"/>
    <path id="Path_16803" data-name="Path 16803" d="M59.328,42.949h5.339c0,.064,0,.129,0,.194H59.328v-.194" transform="translate(-17.707 -12.564)" fill="#3c4986"/>
    <path id="Path_16804" data-name="Path 16804" d="M59.119,75.291H64.66c-.525.412-4.784.444-5.541,0" transform="translate(-17.645 -22.025)" fill="#434990"/>
    <path id="Path_16805" data-name="Path 16805" d="M64.579,72.38H59.021c1.014-.437,5.119-.371,5.558,0" transform="translate(-17.615 -21.085)" fill="#3d458a"/>
    <path id="Path_16806" data-name="Path 16806" d="M64.652,40.108H59.316l-.006-.184h5.339c0,.062,0,.122,0,.184" transform="translate(-17.702 -11.679)" fill="#444a8b"/>
    <path id="Path_16807" data-name="Path 16807" d="M59.33,35.31H64.67l0,.177H59.329c0-.059,0-.118,0-.177" transform="translate(-17.707 -10.329)" fill="#37418a"/>
    <path id="Path_16808" data-name="Path 16808" d="M64.659,80.132H59.34v-.191h5.319v.191" transform="translate(-17.711 -23.386)" fill="#384487"/>
    <path id="Path_16809" data-name="Path 16809" d="M59.337,50.662h5.328c0,.065,0,.13,0,.2H59.335l0-.2" transform="translate(-17.709 -14.82)" fill="#3d4a86"/>
    <path id="Path_16810" data-name="Path 16810" d="M64.663,113.961H59.344c0-.062,0-.123,0-.185h5.319c0,.062,0,.123,0,.185" transform="translate(-17.712 -33.284)" fill="#38438b"/>
    <path id="Path_16811" data-name="Path 16811" d="M64.651,83.186H59.326v-.2h5.331c0,.066,0,.132-.007.2" transform="translate(-17.706 -24.277)" fill="#40478f"/>
    <path id="Path_16812" data-name="Path 16812" d="M64.652,57.048H59.341c0-.067,0-.132,0-.2h5.312c0,.067,0,.132,0,.2" transform="translate(-17.711 -16.63)" fill="#404c85"/>
    <path id="Path_16813" data-name="Path 16813" d="M59.053,109.162h5.532c-.425.376-4.6.442-5.532,0" transform="translate(-17.625 -31.934)" fill="#3e498f"/>
    <path id="Path_16814" data-name="Path 16814" d="M59.333,106.082h5.323c0,.062,0,.123,0,.185H59.332c0-.062,0-.123,0-.185" transform="translate(-17.708 -31.033)" fill="#374386"/>
    <path id="Path_16815" data-name="Path 16815" d="M64.663,87.8H59.348c0-.062,0-.122,0-.183h5.315c0,.061,0,.122,0,.183" transform="translate(-17.713 -25.632)" fill="#39448a"/>
    <path id="Path_16816" data-name="Path 16816" d="M59.334,98.363h5.324c0,.065,0,.131,0,.2H59.34c0-.065,0-.131-.006-.2" transform="translate(-17.709 -28.775)" fill="#3c468f"/>
    <path id="Path_16817" data-name="Path 16817" d="M64.662,90.949c-1.774.1-3.549.064-5.323.027,0-.082,0-.165-.006-.247h5.331l0,.22" transform="translate(-17.709 -26.542)" fill="#3e498f"/>
    <path id="Path_16818" data-name="Path 16818" d="M64.654,58.522H59.306c.384-.339,4.068-.456,5.348,0" transform="translate(-17.7 -17.032)" fill="#3d4b87"/>
    <path id="Path_16819" data-name="Path 16819" d="M59.339,95.327a45.693,45.693,0,0,1,5.457-.161c-.528.434-4.284.544-5.457.161" transform="translate(-17.71 -27.839)" fill="#3c488d"/>
    <path id="Path_16820" data-name="Path 16820" d="M64.651,64.739H59.338l0-.191h5.311l0,.191" transform="translate(-17.71 -18.883)" fill="#3c4b85"/>
    <path id="Path_16821" data-name="Path 16821" d="M64.648,103.188H59.329c0-.065,0-.129,0-.195h5.32l0,.195" transform="translate(-17.707 -30.129)" fill="#414c8b"/>
    <path id="Path_16822" data-name="Path 16822" d="M59.338,101.446h5.321c0,.064,0,.128,0,.192H59.345c0-.064,0-.128-.007-.192" transform="translate(-17.71 -29.677)" fill="#3c4986"/>
    <path id="Path_16823" data-name="Path 16823" d="M46.2,68.77a6.086,6.086,0,0,1,.383-2.015c.032-.157.144-.352-.048-.453a.287.287,0,0,0-.424.133c-.064.134-.163.25-.318.131a.324.324,0,0,1-.055-.393c.234-.564.723-.215,1.088-.266.419-.058.331.292.255.521A7.3,7.3,0,0,1,46.2,68.77" transform="translate(-13.64 -19.263)" fill="#4e568d"/>
    <path id="Path_16824" data-name="Path 16824" d="M44.469,44.3c-.124.308.191,1.062-.173,1.034-.464-.035-.112-.747-.217-1.149-.073-.274.179-.635-.216-.821-.2-.091-.145-.223-.03-.317a.837.837,0,0,1,.369-.17c.162-.028.263.076.266.244,0,.367,0,.734,0,1.179" transform="translate(-13.052 -12.541)" fill="#3e4883"/>
    <path id="Path_16825" data-name="Path 16825" d="M47.357,114.737c-.517-.383-.323-.841-.381-1.259-.036-.264.127-.581-.153-.778-.127-.089-.245-.14-.14-.3a.5.5,0,0,1,.43-.217c.187-.007.239.132.24.274.007.761,0,1.522,0,2.283" transform="translate(-13.921 -32.817)" fill="#3c4382"/>
    <path id="Path_16826" data-name="Path 16826" d="M47.117,37.942a3.575,3.575,0,0,1-.217-1.479c-.041-.273.166-.595-.2-.819-.286-.173-.053-.333.111-.417s.441-.141.442.147a8.28,8.28,0,0,1-.133,2.567" transform="translate(-13.897 -10.285)" fill="#454e89"/>
    <path id="Path_16827" data-name="Path 16827" d="M45.553,37.7c-.478-.347-.277-.749-.355-1.113-.068-.317.18-.69-.25-.959-.229-.142.013-.339.184-.413.19-.083.412-.09.417.2.014.761,0,1.522,0,2.284" transform="translate(-13.387 -10.288)" fill="#444a87"/>
    <path id="Path_16828" data-name="Path 16828" d="M62.518,7.616c-.126.285-.377.214-.588.214q-4.623.007-9.247,0a1.9,1.9,0,0,1-.417-.029.262.262,0,0,1-.165-.16c-.029-.129.07-.21.186-.221.2-.019.391-.018.588-.018,2.97,0,5.941-.01,8.911,0,.249,0,.571-.138.732.212" transform="translate(-15.549 -2.158)" fill="#36418c"/>
    <path id="Path_16829" data-name="Path 16829" d="M62.511,15.364c-.171.3-.452.183-.681.183q-4.53.013-9.06.007c-.14,0-.28,0-.42-.009-.114-.006-.236-.035-.244-.17-.012-.183.131-.22.276-.231.112-.009.223-.011.335-.011,3.02,0,6.04,0,9.06.018.247,0,.565-.129.734.213" transform="translate(-15.551 -4.425)" fill="#37428c"/>
    <path id="Path_16830" data-name="Path 16830" d="M57.3,23.258c-1.571,0-3.141,0-4.712,0-.176,0-.467.091-.488-.175-.027-.336.3-.272.5-.272q4.712-.008,9.424.008c.194,0,.525-.08.485.273-.029.264-.318.165-.493.166-1.57.009-3.141,0-4.712,0" transform="translate(-15.55 -6.67)" fill="#5a629c"/>
    <path id="Path_16831" data-name="Path 16831" d="M62.5,30.934H52.107l0-.206H62.5l0,.206" transform="translate(-15.551 -8.989)" fill="#41488d"/>
    <path id="Path_16832" data-name="Path 16832" d="M59.314,18.417c.04-.168.171-.207.316-.207q2.3-.007,4.6-.008c.163,0,.378-.023.417.183.043.231-.17.253-.331.252q-2.381-.008-4.762-.03a.225.225,0,0,1-.235-.19" transform="translate(-17.703 -5.324)" fill="#39448b"/>
    <path id="Path_16833" data-name="Path 16833" d="M59.308,26.053h5.359v.216H59.308v-.216" transform="translate(-17.701 -7.621)" fill="#37417d"/>
    <path id="Path_16834" data-name="Path 16834" d="M61.978,10.477c.784,0,1.567,0,2.35,0,.157,0,.372-.015.344.24-.018.166-.179.2-.322.2q-2.35,0-4.7-.006c-.158,0-.377,0-.345-.243.029-.218.245-.192.405-.193.756,0,1.51,0,2.266,0" transform="translate(-17.7 -3.065)" fill="#5f659e"/>
    <path id="Path_16835" data-name="Path 16835" d="M62.065,12.462c-.784,0-1.569,0-2.353,0-.157,0-.373.037-.4-.191s.186-.253.344-.253q2.352-.01,4.7,0c.143,0,.3.037.318.207.025.256-.187.237-.345.238-.756.006-1.513,0-2.269,0" transform="translate(-17.701 -3.514)" fill="#5c679a"/>
    <path id="Path_16836" data-name="Path 16836" d="M61.942,29.428c-.728,0-1.456,0-2.184,0-.187,0-.443.014-.444-.256,0-.221.228-.207.389-.207q2.31,0,4.619,0c.16,0,.378-.014.36.229-.016.215-.222.226-.389.226-.784,0-1.567,0-2.35,0v.009" transform="translate(-17.703 -8.472)" fill="#5d669c"/>
    <path id="Path_16837" data-name="Path 16837" d="M62.01,21.271c.755,0,1.51,0,2.265,0,.154,0,.371-.048.4.187s-.176.262-.342.262q-2.349.006-4.7,0c-.138,0-.311-.045-.324-.205-.02-.242.19-.238.353-.239.783,0,1.566,0,2.349,0Z" transform="translate(-17.701 -6.222)" fill="#5d689a"/>
    <path id="Path_16838" data-name="Path 16838" d="M49.832,13.307a6.519,6.519,0,0,1-.006.759.617.617,0,0,1-.681.593c-.382,0-.68-.134-.731-.536a10.459,10.459,0,0,1-.055-1.343.716.716,0,0,1,.765-.811c.51,0,.742.323.726.831,0,.168,0,.337,0,.507h-.017" transform="translate(-14.433 -3.501)" fill="#4e578d"/>
    <path id="Path_16839" data-name="Path 16839" d="M49.845,5.607c0,.224.006.449,0,.674a.629.629,0,0,1-.685.678c-.415.011-.713-.154-.746-.61-.03-.42-.037-.841-.039-1.261,0-.5.25-.813.754-.81s.741.32.731.825c0,.168,0,.337,0,.505h-.013" transform="translate(-14.438 -1.251)" fill="#4a528d"/>
    <path id="Path_16840" data-name="Path 16840" d="M48.4,20.962a5.778,5.778,0,0,1,0-.671.659.659,0,0,1,.761-.611.624.624,0,0,1,.676.6c.023.419.018.84.014,1.26,0,.482-.175.809-.729.808s-.727-.32-.742-.8c-.006-.2,0-.391,0-.587H48.4" transform="translate(-14.441 -5.757)" fill="#48518e"/>
    <path id="Path_16841" data-name="Path 16841" d="M49.877,28.735a6.224,6.224,0,0,1-.062.811.727.727,0,0,1-1.374.033,4.882,4.882,0,0,1-.015-1.684c.044-.365.351-.5.679-.505a.624.624,0,0,1,.722.553c.036.279.036.562.05.792" transform="translate(-14.434 -8.013)" fill="#464e8b"/>
    <path id="Path_16842" data-name="Path 16842" d="M46.938,4.479c-.238.378-.762.016-.98.517.8.1,1.2.518,1.042,1.341a.667.667,0,0,1-.675.627.634.634,0,0,1-.72-.653c.84.34,1.066.242,1.012-.361-.025-.273-.13-.48-.408-.377-.764.284-.579-.277-.623-.661-.065-.557.222-.695.7-.63.211.028.454-.071.65.2" transform="translate(-13.603 -1.248)" fill="#555c90"/>
    <path id="Path_16843" data-name="Path 16843" d="M45.641,28.105c.13-.695.543-.8,1.052-.63.564.192.457.623.274,1.044-.168.383-.558.635-.638,1.068.224.209.573-.036.8.293-.4.313-.847.154-1.257.144-.333-.008-.233-.251-.125-.42.182-.284.4-.548.582-.829s.531-.558.225-.886-.493.244-.91.219" transform="translate(-13.622 -8.016)" fill="#525891"/>
    <path id="Path_16844" data-name="Path 16844" d="M46.5,11.779a3.869,3.869,0,0,1-.457,1.513c-.055.158-.3.368-.012.487a.317.317,0,0,0,.464-.314c.008-.149-.1-.376.17-.383.247-.006.215.218.207.374-.015.267.305.5.068.792-.145.18-.2.581-.485.11a.365.365,0,0,0-.284-.134c-1.228.094-.746-.565-.478-1.11a3.6,3.6,0,0,1,.807-1.335" transform="translate(-13.541 -3.446)" fill="#576093"/>
    <path id="Path_16845" data-name="Path 16845" d="M45.575,21.679c.41.04.659.6.968.154.2-.29.1-.579-.3-.712-.178-.059-.136-.23.027-.3.277-.12.446-.325.259-.583-.2-.274-.442-.082-.655.073-.048.035-.149,0-.275-.013a.669.669,0,0,1,.932-.559.577.577,0,0,1,.393.867c-.192.363.059.57.092.849.051.433-.059.814-.551.891-.437.068-.825-.017-.892-.667" transform="translate(-13.602 -5.762)" fill="#51588c"/>
    <path id="Path_16846" data-name="Path 16846" d="M59.324,24.48h5.335l0,.2h-5.34c0-.065,0-.13,0-.2" transform="translate(-17.706 -7.161)" fill="#414788"/>
    <path id="Path_16847" data-name="Path 16847" d="M59.326,32.166h5.42c-.524.4-4.629.461-5.42,0" transform="translate(-17.706 -9.41)" fill="#42488a"/>
    <path id="Path_16848" data-name="Path 16848" d="M59.333,27.618h5.335c0,.06,0,.12,0,.18H59.332c0-.06,0-.12,0-.18" transform="translate(-17.708 -8.079)" fill="#394287"/>
    <path id="Path_16849" data-name="Path 16849" d="M64.655,17.038H59.314c0-.065,0-.13,0-.195h5.342l0,.195" transform="translate(-17.702 -4.927)" fill="#414789"/>
    <path id="Path_16850" data-name="Path 16850" d="M64.667,13.926H59.33l0-.2h5.334c0,.065,0,.13,0,.2" transform="translate(-17.708 -4.017)" fill="#3c468b"/>
    <path id="Path_16851" data-name="Path 16851" d="M64.664,20.127H59.332v-.2h5.333c0,.065,0,.13,0,.2" transform="translate(-17.708 -5.831)" fill="#3d488c"/>
    <path id="Path_16852" data-name="Path 16852" d="M59.313,9.122h5.346c0,.061,0,.122.006.183H59.317c0-.061,0-.122,0-.183" transform="translate(-17.703 -2.669)" fill="#414789"/>
    <path id="Path_16853" data-name="Path 16853" d="M44.492,21.127a3.527,3.527,0,0,1-.006.584c-.036.215.173.616-.2.6-.313-.017-.109-.418-.179-.636-.146-.462.288-1.027-.3-1.433-.173-.119.067-.342.25-.417.212-.086.409-.039.429.219.027.36.007.724.008,1.087" transform="translate(-13.056 -5.787)" fill="#3b4583"/>
    <path id="Path_16854" data-name="Path 16854" d="M44.02,14.616a4.282,4.282,0,0,1-.11-1.3c-.035-.253.157-.577-.2-.744-.168-.081-.189-.213-.069-.325a.7.7,0,0,1,.364-.162.229.229,0,0,1,.273.24c.006.761,0,1.522,0,2.284l-.265,0" transform="translate(-13.004 -3.535)" fill="#3d4578"/>
    <path id="Path_16855" data-name="Path 16855" d="M44.384,30.012a3.138,3.138,0,0,1-.192-1.406c-.025-.223.142-.518-.223-.633-.176-.056-.182-.207-.059-.318a.812.812,0,0,1,.358-.178c.145-.031.3.035.291.207a7.015,7.015,0,0,1-.175,2.328" transform="translate(-13.08 -8.036)" fill="#4a5186"/>
    <path id="Path_16856" data-name="Path 16856" d="M44.116,6.923a5.7,5.7,0,0,1-.1-1.374c-.036-.231.21-.568-.231-.693-.142-.04-.131-.246-.006-.346a.887.887,0,0,1,.375-.166c.189-.036.232.117.232.263,0,.771,0,1.543,0,2.315Z" transform="translate(-13.037 -1.269)" fill="#4a518a"/>
    <path id="Path_16857" data-name="Path 16857" d="M2.972,55.705c-.121-.061-.322-.095-.353-.187C1.769,52.972.85,50.437.981,47.68a1,1,0,0,1,.439-.949,12.857,12.857,0,0,0,.572,2.97,5.924,5.924,0,0,0,1.1,2.257,1.325,1.325,0,0,0,2.271.088c.483-.519.881-1.117,1.434-1.829a11.148,11.148,0,0,1-.324,2.973,8.225,8.225,0,0,1-.513,1.95c-.1.3-.189.671-.6.744a2.192,2.192,0,0,0-2.382-.179" transform="translate(-0.289 -13.671)" fill="#373b5d"/>
    <path id="Path_16858" data-name="Path 16858" d="M15.118,65.653c-1.4,0-2.341-.532-2.668-1.462a1.446,1.446,0,0,1,1.478-2.037,14.318,14.318,0,0,1,2.8.8c.4.144.84.419.763.99a2.092,2.092,0,0,1-1.213,1.52,2,2,0,0,1-1.16.192" transform="translate(-3.685 -18.178)" fill="#f7b19b"/>
    <path id="Path_16859" data-name="Path 16859" d="M16.278,59.288a2.435,2.435,0,0,1,.954-3.01,1.928,1.928,0,0,1,2.46.594,2.47,2.47,0,0,1-.173,2.747,5.432,5.432,0,0,1-.556.506,1.633,1.633,0,0,1-2.685-.836" transform="translate(-4.811 -16.399)" fill="#f9faf9"/>
    <path id="Path_16860" data-name="Path 16860" d="M26.262,69.492a2.7,2.7,0,0,1-3.149.958,2.351,2.351,0,0,1-1.7-2.353c.452-.427,1.054-.255,1.577-.4a3.315,3.315,0,0,1,3.273,1.8" transform="translate(-6.391 -19.801)" fill="#f18a82"/>
    <path id="Path_16861" data-name="Path 16861" d="M26.969,68.671c-.354.061-.451-.266-.633-.446a3.181,3.181,0,0,0-2.556-1.106c.076-.443.523-.607.711-.967a2.31,2.31,0,0,1,1.045-.2,1.952,1.952,0,0,0,1.613-.85,2.833,2.833,0,0,0,.319-.1c.737-.333.784.057.683.642a6.721,6.721,0,0,1-1.18,3.029" transform="translate(-7.097 -18.979)" fill="#4f1f1d"/>
    <path id="Path_16862" data-name="Path 16862" d="M30.252,58.11a1.92,1.92,0,0,1,1.176-2.366,1.656,1.656,0,0,1,2.258.833,2.058,2.058,0,0,1-.53,2.571,5.894,5.894,0,0,1-.57.339.362.362,0,0,1-.323.135c-.374-.221-1.081-.291-.439-.977.478-.3.913-.628.463-1.26-.469-.659-.765-.622-1.409.146-.277.117-.213.613-.626.579" transform="translate(-9.005 -16.257)" fill="#fafbfa"/>
    <path id="Path_16863" data-name="Path 16863" d="M26.923,65.195c.1.637-.269.907-.805,1.054a9.022,9.022,0,0,1-1.891.157c-.8.238-.979.154-1.2-.576.006-.5.347-.456.691-.459a13.048,13.048,0,0,0,3.205-.176" transform="translate(-6.873 -19.072)" fill="#f9f8f6"/>
    <path id="Path_16864" data-name="Path 16864" d="M22.537,65.834c.253.5.756.478,1.2.575.365.768-.415.565-.672.805-.524.374-1.115.025-1.661.158-.006-.447-.034-.9-.008-1.341.018-.3-.113-.751.327-.816a.743.743,0,0,1,.814.619" transform="translate(-6.383 -19.075)" fill="#361917"/>
    <path id="Path_16865" data-name="Path 16865" d="M33.4,52.555a1.612,1.612,0,0,1,.795.369c.319.32.77.719.547,1.128-.206.378-.619-.124-.953-.179-.218-.036-.426-.136-.643-.184-.334-.073-.605-.209-.53-.61.086-.459.453-.511.785-.524" transform="translate(-9.73 -15.374)" fill="#373b5d"/>
    <path id="Path_16866" data-name="Path 16866" d="M17.009,53.82a.6.6,0,0,1,.6.5c.076.394-.207.518-.538.6-.348.088-.682.231-1.025.343-.2.065-.424.289-.6.045-.147-.205.042-.437.147-.618a1.585,1.585,0,0,1,1.416-.872" transform="translate(-4.594 -15.744)" fill="#373b5d"/>
    <path id="Path_16867" data-name="Path 16867" d="M6.3,62.729c-.424-.389-.055-1.626-1.239-.915-.076-.577.965-1.1-.181-1.544,1.31-.087,1.971,1.187,1.42,2.459" transform="translate(-1.456 -17.63)" fill="#d89b74"/>
    <path id="Path_16868" data-name="Path 16868" d="M31.954,59.6c.008.106-.415.217-.034.291.257.051.25.243.366.365a1.25,1.25,0,0,1-1.867-.671q-.066-.353-.132-.708c.336-.094-.156-.755.448-.666A3.422,3.422,0,0,0,31.954,59.6" transform="translate(-9.039 -17.027)" fill="#e9e8e8"/>
    <path id="Path_16869" data-name="Path 16869" d="M16.238,60.624a2.039,2.039,0,0,0,2.685.836c-.363.659-1.189.7-2.327.248-.651-.257-.8-.533-.358-1.084" transform="translate(-4.771 -17.735)" fill="#f7b19b"/>
    <path id="Path_16870" data-name="Path 16870" d="M30.362,60.161c.563.393,1.029,1.056,1.867.671l.335,0c.259.093.371.269.019.313a3.448,3.448,0,0,1-2.186-.306c-.356-.2-.432-.428-.035-.674" transform="translate(-8.982 -17.599)" fill="#f8b29b"/>
    <path id="Path_16871" data-name="Path 16871" d="M22.709,46.141c-.247-.357-.149-.741-.085-1.372a5.446,5.446,0,0,1,.271,1.386l-.186-.014" transform="translate(-6.73 -13.097)" fill="#a1836f"/>
    <path id="Path_16873" data-name="Path 16873" d="M23.786,111.091c-.087.417-.089.8.389,1a9.14,9.14,0,0,0,.1,3.049l-1.478-.007a11.429,11.429,0,0,1-.041-3.052.3.3,0,0,0,.025-.126c.287-.28.144-.632.152-.956q.14-6.236.274-12.472h.348q.118,6.284.235,12.568" transform="translate(-6.766 -28.822)" fill="#f7f9f4"/>
    <path id="Path_16875" data-name="Path 16875" d="M29.626,97.386a.306.306,0,0,1,.025.079,1.47,1.47,0,0,1-.386,1.289c-.368.236-.5-.468-.837-.628a2.064,2.064,0,0,1-.333-.245l1.531-.5" transform="translate(-8.385 -28.489)" fill="#373b5d"/>
    <path id="Path_16876" data-name="Path 16876" d="M18.548,97.93c-.152.423-.695.416-.88.821-.061.133-.311.114-.33-.028-.055-.41-.537-.722-.272-1.2l1.483.406" transform="translate(-5.07 -28.529)" fill="#373b5d"/>
    <path id="Path_16877" data-name="Path 16877" d="M46.4,58.7c.274.035.395.165.384.395a.341.341,0,0,1-.683-.012.348.348,0,0,1,.3-.383" transform="translate(-13.759 -17.173)" fill="#e5eae8"/>
    <path id="Path_16878" data-name="Path 16878" d="M46.381,60.355c.28,0,.407.113.427.34a.322.322,0,0,1-.317.393c-.248.019-.431-.079-.421-.369a.343.343,0,0,1,.311-.363" transform="translate(-13.75 -17.656)" fill="#ecf4ee"/>
    <path id="Path_16879" data-name="Path 16879" d="M49.719,59.7c-.011.2-.014.393-.034.588s-.1.325-.307.327a.343.343,0,0,1-.389-.345c-.015-.336-.006-.674,0-1.01,0-.258,0-.54.364-.533s.328.31.348.553c.011.139,0,.28,0,.421h.02" transform="translate(-14.619 -17.18)" fill="#f1f5f2"/>
    <path id="Path_16880" data-name="Path 16880" d="M48.984,105.837c0-.17,0-.339,0-.509a.356.356,0,0,1,.336-.407c.308-.028.374.2.384.439.014.338.019.678,0,1.017-.013.228-.059.472-.373.453s-.337-.25-.349-.485c-.009-.169,0-.339,0-.509Z" transform="translate(-14.618 -30.693)" fill="#f2f5f1"/>
    <path id="Path_16881" data-name="Path 16881" d="M49.733,90.465c-.017.236-.028.432-.046.625-.02.224-.126.378-.366.359a.361.361,0,0,1-.345-.394,3.137,3.137,0,0,1,0-.585c.056-.342-.213-.941.38-.922.556.018.232.634.38.917" transform="translate(-14.613 -26.196)" fill="#f0f2f1"/>
    <path id="Path_16882" data-name="Path 16882" d="M48.985,67.287c0-.141-.007-.283,0-.424.013-.246.087-.458.382-.452.252,0,.323.2.337.408a9.182,9.182,0,0,1,.026.932c-.007.255-.018.565-.361.569-.392,0-.4-.309-.386-.609.006-.141,0-.282,0-.424" transform="translate(-14.619 -19.428)" fill="#f2f6f0"/>
    <path id="Path_16883" data-name="Path 16883" d="M49.662,36.478c0,.3.009.5,0,.69-.013.213-.093.378-.346.374s-.333-.161-.341-.379a2.739,2.739,0,0,1,0-.582c.06-.332-.235-.923.39-.889.518.028.217.585.3.786" transform="translate(-14.611 -10.441)" fill="#f3f7f1"/>
    <path id="Path_16884" data-name="Path 16884" d="M49.74,75.093c-.018.236-.027.432-.05.626a.341.341,0,0,1-.318.334.345.345,0,0,1-.387-.348,2.421,2.421,0,0,1-.007-.587c.058-.349-.22-.95.333-.969.65-.023.281.643.429.944" transform="translate(-14.612 -21.691)" fill="#eef1f1"/>
    <path id="Path_16885" data-name="Path 16885" d="M48.98,82.772c0-.234,0-.4,0-.57a.361.361,0,0,1,.339-.4c.246-.021.342.141.368.359a1.815,1.815,0,0,1,.037.5c-.064.377.2,1.021-.365,1.041-.643.023-.271-.646-.38-.93" transform="translate(-14.615 -23.93)" fill="#eff1f1"/>
    <path id="Path_16886" data-name="Path 16886" d="M48.99,98.242c0-.3-.008-.495,0-.69a.353.353,0,0,1,.705,0,2.053,2.053,0,0,1,.032.584c-.055.354.182.956-.335.983-.678.035-.271-.64-.4-.872" transform="translate(-14.621 -28.438)" fill="#eff1f1"/>
    <path id="Path_16887" data-name="Path 16887" d="M48.966,51.926c.015-.225.015-.452.05-.674.026-.163.17-.21.318-.216s.307.023.326.19a4.13,4.13,0,0,1,.025,1.43.312.312,0,0,1-.365.266.319.319,0,0,1-.326-.318c-.011-.226,0-.452,0-.678h-.024" transform="translate(-14.614 -14.93)" fill="#f1f5f2"/>
    <path id="Path_16888" data-name="Path 16888" d="M46.129,44.283c0-.2-.01-.393,0-.588a.358.358,0,0,1,.37-.374.351.351,0,0,1,.38.362c.022.363.013.728,0,1.092-.006.243-.086.457-.375.456s-.382-.192-.394-.445c-.007-.168,0-.336,0-.5h.013" transform="translate(-13.763 -12.673)" fill="#e5e8ea"/>
    <path id="Path_16889" data-name="Path 16889" d="M49.765,113.51a6.124,6.124,0,0,1,0,.675.376.376,0,0,1-.384.362c-.238.007-.35-.141-.373-.357a2.387,2.387,0,0,1-.017-.582c.051-.349-.211-.927.347-.959.666-.038.349.6.432.862" transform="translate(-14.615 -32.953)" fill="#e5e9ec"/>
    <path id="Path_16890" data-name="Path 16890" d="M49.647,44.324c0,.168.006.337,0,.5-.008.216-.085.385-.331.4s-.356-.14-.363-.362c-.011-.392-.007-.785,0-1.177,0-.23.116-.365.366-.352s.318.185.325.4c.006.2,0,.393,0,.589" transform="translate(-14.609 -12.677)" fill="#f4f8f4"/>
    <path id="Path_16891" data-name="Path 16891" d="M46.608,76.486c-.216,0-.316-.141-.32-.366s.058-.4.3-.41.345.146.363.366-.094.366-.347.411" transform="translate(-13.815 -22.147)" fill="#e4e9ea"/>
    <path id="Path_16892" data-name="Path 16892" d="M46.968,51.452c-.051.206-.1.416-.35.407-.291-.01-.354-.224-.338-.47.014-.226.119-.37.368-.345s.289.22.321.408" transform="translate(-13.812 -14.932)" fill="#dfe7e9"/>
    <path id="Path_16893" data-name="Path 16893" d="M48.946,13.468c0-.2,0-.393,0-.589a.34.34,0,1,1,.68,0c.011.336.018.674.013,1.01,0,.253,0,.548-.358.547s-.34-.3-.351-.55c-.006-.14,0-.281,0-.421h.015" transform="translate(-14.603 -3.668)" fill="#f4f6f3"/>
    <path id="Path_16894" data-name="Path 16894" d="M48.948,5.752c0-.2-.007-.393,0-.589a.343.343,0,0,1,.686.022c.012.308.016.618.011.926-.006.274.043.633-.364.621s-.33-.371-.342-.643c0-.112,0-.224,0-.337Z" transform="translate(-14.606 -1.414)" fill="#f2f5f0"/>
    <path id="Path_16895" data-name="Path 16895" d="M48.948,21.154c0-.168-.006-.337,0-.5.009-.216.086-.386.333-.4s.35.146.358.369c.012.336.011.674.01,1.01,0,.263-.011.533-.38.513-.31-.017-.32-.255-.324-.486,0-.168,0-.337,0-.505h0" transform="translate(-14.608 -5.925)" fill="#f3f5f3"/>
    <path id="Path_16896" data-name="Path 16896" d="M49.649,28.936c0,.168,0,.337,0,.505-.006.215-.073.389-.326.4-.307.015-.37-.194-.374-.439-.006-.308,0-.618,0-.926,0-.258,0-.542.369-.524s.32.316.331.562c.006.14,0,.281,0,.421" transform="translate(-14.608 -8.177)" fill="#f3f7f2"/>
    <path id="Path_16897" data-name="Path 16897" d="M17.876,59.976A1.067,1.067,0,0,1,16.832,58.8c.055-.631.363-1.067,1.059-1.063A1.123,1.123,0,0,1,19,58.88a1.057,1.057,0,0,1-1.123,1.1" transform="translate(-5.022 -16.891)" fill="#97c4d0"/>
    <path id="Path_16898" data-name="Path 16898" d="M32.144,59.284c-.915-.009-1.245-.54-1.219-1.389.234-.478.531-.884,1.144-.754a1.028,1.028,0,0,1,.853.92,1.05,1.05,0,0,1-.777,1.224" transform="translate(-9.229 -16.709)" fill="#99c5d0"/>
    <path id="Path_16899" data-name="Path 16899" d="M18.756,59.165c-.053.4-.269.649-.549.621a.829.829,0,0,1-.7-.77.461.461,0,0,1,.5-.543c.4.052.422.575.75.692" transform="translate(-5.223 -17.104)" fill="#2b2a2f"/>
    <path id="Path_16900" data-name="Path 16900" d="M32.685,58.539c-.066.378-.239.609-.563.582a.638.638,0,0,1-.643-.637c-.017-.327.2-.659.45-.587.3.084.523.43.756.642" transform="translate(-9.395 -16.934)" fill="#2f3134"/>
  </g>
</svg>
