<svg id="Group_1340" data-name="Group 1340" xmlns="http://www.w3.org/2000/svg" xmlns:xlink="http://www.w3.org/1999/xlink" width="65.131" height="64.603" viewBox="0 0 65.131 64.603">
  <defs>
    <clipPath id="clip-path">
      <rect id="Rectangle_1715" data-name="Rectangle 1715" width="65.131" height="64.603" fill="none"/>
    </clipPath>
  </defs>
  <g id="Group_579" data-name="Group 579" clip-path="url(#clip-path)">
    <path id="Path_5601" data-name="Path 5601" d="M32.511,64.6c-7.867,0-15.735.014-23.6,0-5.4-.012-8.9-3.522-8.9-8.94Q-.007,32.243.01,8.832C.014,3.468,3.549.011,9.021.008q23.6-.015,47.2,0c5.417,0,8.893,3.5,8.9,8.936q.017,23.411,0,46.821c0,5.405-3.5,8.818-9.009,8.828q-11.8.022-23.6,0" transform="translate(0 0)" fill="#cfd6e3"/>
    <path id="Path_5602" data-name="Path 5602" d="M23.937,53.746c0-8.945-.065-17.342.036-25.738.034-2.829,1.894-4.23,5.153-4.235q18.429-.027,36.857-.007c3.071,0,6.143-.024,9.214.007,3.547.035,5.15,1.58,5.163,5.068.031,8.243.01,16.487.01,25.046-2.165-1.413-3.588-3.316-5.272-4.916-3.014-2.861-5.438-2.815-8.38.139-1.878,1.885-3.449,5.357-5.656,5.245-1.892-.1-3.623-3.4-5.416-5.29-2.412-2.546-4.784-5.13-7.229-7.644-2.645-2.72-4.831-2.878-7.827-.575-5.412,4.16-10.794,8.358-16.654,12.9" transform="translate(-19.586 -19.455)" fill="#fff"/>
    <path id="Path_5603" data-name="Path 5603" d="M207.25,85.08a4.594,4.594,0,0,1,4.589-4.35,4.45,4.45,0,0,1,4.194,4.415,4.267,4.267,0,0,1-4.525,4.281,4.437,4.437,0,0,1-4.258-4.346" transform="translate(-169.722 -66.108)" fill="#cfd6e3"/>
  </g>
</svg>
