<svg id="Group_1210" data-name="Group 1210" xmlns="http://www.w3.org/2000/svg" xmlns:xlink="http://www.w3.org/1999/xlink" width="65" height="64" viewBox="0 0 65 64">
  <defs>
    <clipPath id="clip-path">
      <rect id="Rectangle_1715" data-name="Rectangle 1715" width="65" height="64" fill="none"/>
    </clipPath>
  </defs>
  <g id="Group_579" data-name="Group 579" clip-path="url(#clip-path)">
    <path id="Path_5601" data-name="Path 5601" d="M32.445,64c-7.852,0-15.7.013-23.554,0C3.5,63.978.012,60.5.009,55.134Q-.007,31.942.01,8.75C.014,3.435,3.542.011,9,.008q23.554-.015,47.108,0c5.406,0,8.875,3.469,8.879,8.853q.017,23.192,0,46.384c0,5.355-3.493,8.735-8.99,8.745q-11.777.022-23.554,0" transform="translate(0 0)" fill="#cfd6e3"/>
    <path id="Path_5602" data-name="Path 5602" d="M23.937,53.466c0-8.861-.065-17.18.036-25.5.034-2.8,1.89-4.19,5.142-4.2q18.391-.027,36.783-.007c3.065,0,6.131-.024,9.2.006,3.54.035,5.139,1.565,5.153,5.02.031,8.166.01,16.333.01,24.812-2.16-1.4-3.58-3.285-5.262-4.87-3.008-2.834-5.427-2.789-8.363.137-1.874,1.868-3.442,5.307-5.645,5.2-1.888-.1-3.616-3.365-5.4-5.24-2.407-2.522-4.774-5.082-7.214-7.572-2.639-2.694-4.821-2.852-7.811-.57-5.4,4.121-10.772,8.28-16.62,12.78" transform="translate(-19.595 -19.495)" fill="#fff"/>
    <path id="Path_5603" data-name="Path 5603" d="M207.25,85.039a4.571,4.571,0,0,1,4.58-4.31,4.423,4.423,0,0,1,4.186,4.374,4.245,4.245,0,0,1-4.516,4.241,4.411,4.411,0,0,1-4.25-4.305" transform="translate(-169.797 -66.245)" fill="#cfd6e3"/>
  </g>
</svg>
