<svg id="Group_659" data-name="Group 659" xmlns="http://www.w3.org/2000/svg" xmlns:xlink="http://www.w3.org/1999/xlink" width="28.564" height="28.563" viewBox="0 0 28.564 28.563">
  <defs>
    <clipPath id="clip-path">
      <rect id="Rectangle_1742" data-name="Rectangle 1742" width="28.564" height="28.563" fill="#6fa6d6"/>
    </clipPath>
  </defs>
  <g id="Group_658" data-name="Group 658" clip-path="url(#clip-path)">
    <path id="Path_5786" data-name="Path 5786" d="M142.75,336.26a3.639,3.639,0,0,1-1.184-1.384c-.585-1.6-.222-2.187,1.424-2.187,1.6,0,3.195.031,4.791-.015.641-.019.75.194.8.8a2.791,2.791,0,0,1-1.367,2.786Z" transform="translate(-130.696 -307.697)" fill="#6fa6d6"/>
    <path id="Path_5787" data-name="Path 5787" d="M0,178.019c1.139-.826,2.411-.4,3.631-.346.32.014.495.444.494.792s-.162.774-.492.791c-1.221.06-2.493.48-3.633-.343Z" transform="translate(0 -164.188)" fill="#6fa6d6"/>
    <path id="Path_5788" data-name="Path 5788" d="M87.038,96.532c-.557,0-1.116-.022-1.672,0-1.11.053-2.195.179-2.5-1.358-.1-.522-.71-.829-1.13-1.2a8.392,8.392,0,0,1-2.353-9.6A8.306,8.306,0,0,1,87.735,79.3a8.122,8.122,0,0,1,7.493,6.375A8.037,8.037,0,0,1,92.816,93.7a5.421,5.421,0,0,0-1.934,2.511c-.1.426-.445.319-.722.322-1.04.01-2.081,0-3.121,0" transform="translate(-72.838 -73.326)" fill="#6fa6d6"/>
    <path id="Path_5789" data-name="Path 5789" d="M180.15,2.124c0,.371.006.742,0,1.112a.822.822,0,0,1-.931.87.808.808,0,0,1-.847-.845c-.007-.779-.011-1.557,0-2.336a.833.833,0,0,1,.88-.925.825.825,0,0,1,.9.9c.017.407,0,.816,0,1.223" transform="translate(-164.972 0)" fill="#6fa6d6"/>
    <path id="Path_5790" data-name="Path 5790" d="M327.729,179.965c-.371,0-.742.009-1.112,0a.832.832,0,0,1-.885-.921.814.814,0,0,1,.842-.854c.815-.016,1.631-.023,2.446,0a.8.8,0,0,1,.822.862.824.824,0,0,1-.89.909c-.407.017-.815,0-1.223,0" transform="translate(-301.278 -164.796)" fill="#6fa6d6"/>
    <path id="Path_5791" data-name="Path 5791" d="M54.731,55.429a5.886,5.886,0,0,1-2.522-2.485.836.836,0,0,1,1.175-.871,6.265,6.265,0,0,1,2.192,2.144c.347.526-.2,1.225-.845,1.211" transform="translate(-48.287 -48.079)" fill="#6fa6d6"/>
    <path id="Path_5792" data-name="Path 5792" d="M283.19,55.417a.823.823,0,0,1-.8-.493.775.775,0,0,1,.089-.933c.585-.618,1.173-1.237,1.8-1.815a.877.877,0,0,1,1.041-.071.85.85,0,0,1,.425.741c.042.573-1.961,2.571-2.549,2.572" transform="translate(-261.082 -48.067)" fill="#6fa6d6"/>
    <path id="Path_5793" data-name="Path 5793" d="M53.1,285.619a.911.911,0,0,1-.814-.483.884.884,0,0,1,.134-1.033c.562-.589,1.145-1.16,1.736-1.72a.808.808,0,0,1,1.026-.089.84.84,0,0,1,.442.835,5.944,5.944,0,0,1-2.524,2.49" transform="translate(-48.265 -260.97)" fill="#6fa6d6"/>
    <path id="Path_5794" data-name="Path 5794" d="M285.584,284.92a.854.854,0,0,1-1.287.824,11.187,11.187,0,0,1-2.039-2.021c-.424-.541.119-1.319.811-1.3a5.857,5.857,0,0,1,2.515,2.493" transform="translate(-260.928 -261.223)" fill="#6fa6d6"/>
    <path id="Path_5795" data-name="Path 5795" d="M184.6,118.964a5.191,5.191,0,0,1,4.58,4.8c0,.552-.194.975-.759,1.052-.634.086-.921-.307-1.023-.9-.366-2.136-1.027-2.8-3.184-3.177-.594-.105-.982-.394-.9-1.029.076-.578.509-.769,1.284-.747" transform="translate(-169.539 -110.031)" fill="#6fa6d6"/>
  </g>
</svg>
