<svg id="Group_659" data-name="Group 659" xmlns="http://www.w3.org/2000/svg" xmlns:xlink="http://www.w3.org/1999/xlink" width="22.335" height="22.334" viewBox="0 0 22.335 22.334">
  <defs>
    <clipPath id="clip-path">
      <rect id="Rectangle_1742" data-name="Rectangle 1742" width="22.335" height="22.334" fill="#fff"/>
    </clipPath>
  </defs>
  <g id="Group_658" data-name="Group 658" clip-path="url(#clip-path)">
    <path id="Path_5786" data-name="Path 5786" d="M142.435,335.478a2.846,2.846,0,0,1-.926-1.082c-.458-1.254-.173-1.71,1.113-1.71,1.249,0,2.5.024,3.746-.012.5-.015.586.151.627.626a2.182,2.182,0,0,1-1.069,2.179Z" transform="translate(-133.009 -313.144)" fill="#fff"/>
    <path id="Path_5787" data-name="Path 5787" d="M0,177.909c.89-.646,1.885-.312,2.839-.271.25.011.387.347.386.619s-.127.606-.384.618c-.955.047-1.949.375-2.841-.268Z" transform="translate(0 -167.095)" fill="#fff"/>
    <path id="Path_5788" data-name="Path 5788" d="M85.23,92.769c-.436,0-.872-.017-1.307,0-.868.042-1.716.14-1.951-1.062-.08-.408-.555-.648-.884-.935a6.562,6.562,0,0,1-1.839-7.5A6.494,6.494,0,0,1,85.775,79.3a6.351,6.351,0,0,1,5.859,4.985,6.284,6.284,0,0,1-1.886,6.269,4.239,4.239,0,0,0-1.512,1.963c-.08.333-.348.25-.565.252-.813.008-1.627,0-2.441,0" transform="translate(-74.127 -74.624)" fill="#fff"/>
    <path id="Path_5789" data-name="Path 5789" d="M179.76,1.661c0,.29,0,.58,0,.87a.642.642,0,0,1-.728.68.632.632,0,0,1-.663-.661c-.006-.609-.008-1.218,0-1.826A.651.651,0,0,1,179.055,0a.645.645,0,0,1,.7.7c.014.318,0,.638,0,.957" transform="translate(-167.892 0)" fill="#fff"/>
    <path id="Path_5790" data-name="Path 5790" d="M327.293,179.574c-.29,0-.58.007-.869,0a.651.651,0,0,1-.692-.721.637.637,0,0,1,.658-.668c.637-.012,1.276-.018,1.912,0a.623.623,0,0,1,.642.674.644.644,0,0,1-.7.711c-.318.013-.637,0-.956,0" transform="translate(-306.611 -167.713)" fill="#fff"/>
    <path id="Path_5791" data-name="Path 5791" d="M54.18,54.677a4.6,4.6,0,0,1-1.972-1.943.654.654,0,0,1,.919-.681,4.9,4.9,0,0,1,1.714,1.676c.271.411-.158.958-.661.947" transform="translate(-49.142 -48.93)" fill="#fff"/>
    <path id="Path_5792" data-name="Path 5792" d="M282.99,54.665a.643.643,0,0,1-.628-.386.606.606,0,0,1,.07-.729c.458-.484.917-.967,1.405-1.419a.686.686,0,0,1,.814-.056.665.665,0,0,1,.332.579c.033.448-1.534,2.01-1.993,2.011" transform="translate(-265.704 -48.918)" fill="#fff"/>
    <path id="Path_5793" data-name="Path 5793" d="M52.9,284.863a.713.713,0,0,1-.636-.378.691.691,0,0,1,.1-.808c.44-.461.9-.907,1.358-1.345a.631.631,0,0,1,.8-.07.656.656,0,0,1,.345.653,4.647,4.647,0,0,1-1.974,1.947" transform="translate(-49.119 -265.589)" fill="#fff"/>
    <path id="Path_5794" data-name="Path 5794" d="M284.826,284.376a.668.668,0,0,1-1.006.644,8.746,8.746,0,0,1-1.595-1.58c-.331-.423.093-1.031.634-1.014a4.579,4.579,0,0,1,1.966,1.949" transform="translate(-265.548 -265.848)" fill="#fff"/>
    <path id="Path_5795" data-name="Path 5795" d="M184.314,118.964a4.059,4.059,0,0,1,3.581,3.757c0,.431-.152.762-.594.822-.5.067-.72-.24-.8-.706-.286-1.67-.8-2.186-2.489-2.484-.464-.082-.768-.308-.7-.8.059-.452.4-.6,1-.584" transform="translate(-172.541 -111.979)" fill="#fff"/>
  </g>
</svg>
