<svg xmlns="http://www.w3.org/2000/svg" xmlns:xlink="http://www.w3.org/1999/xlink" width="217.338" height="212.737" viewBox="0 0 217.338 212.737">
  <defs>
    <clipPath id="clip-path">
      <rect id="Rectangle_110" data-name="Rectangle 110" width="217.338" height="209.045" transform="translate(2.804 0.001)" fill="none"/>
    </clipPath>
    <clipPath id="clip-path-2">
      <rect id="Rectangle_113" data-name="Rectangle 113" width="67.52" height="24.954" fill="rgba(112,82,37,0.26)"/>
    </clipPath>
  </defs>
  <g id="Group_1016" data-name="Group 1016" transform="translate(-79 -145.686)">
    <g id="Group_2" data-name="Group 2" transform="translate(76.196 149.378)">
      <g id="Group_1" data-name="Group 1" clip-path="url(#clip-path)">
        <path id="Path_3664" data-name="Path 3664" d="M129.79,124.23c-.345,7.4-.767,14.787-.99,22.185-.064,2.107-.685,3.012-2.834,2.664a7.479,7.479,0,0,0-1.648.1c-2.78,1.328-5.689.614-8.543.465-1.093-.059-2.185-.274-3.3-.277-3.58-.009-3.642-.08-3.748-3.76,0-3.479.468-6.935.555-10.409.728-2.853.29-5.782.525-8.675.467-5.715.654-11.459,1.022-17.184.491-7.629.659-15.284,1.764-22.863-2.083,15.432-5.158,30.7-7.719,46.055-.858,4.468-1.6,8.956-2.357,13.443-.583,3.453-1.061,3.835-4.613,3.826q-5.221.13-10.442.009-2.06.062-4.122.005c-2.572-.071-3.155-.794-2.634-3.361.423-2.086,1-4.14,1.516-6.205q4.477-19.974,9.1-39.917c1.377-5.938,2.688-11.89,4.119-17.817,2.064-9.4,4.232-18.781,6.429-28.153a3.236,3.236,0,0,1,.839-1.863,5.992,5.992,0,0,1,3.455.05c5.05.8,10,0,14.962-.767a7.122,7.122,0,0,1,2.438-.284c1,.3,1.25,1.211,1.6,2.024.921,2.159,1.7,4.37,2.451,6.594,1.32,4.079,2.229,8.309,4.4,12.085a13.006,13.006,0,0,1,.385,6.165c-.6,4.613-.432,9.254-.623,13.869-.338,8.143-1.02,16.276-.966,24.435.017,2.574-.753,5.035-1.015,7.567" transform="translate(59.137 37.779)" fill="#795e53"/>
        <path id="Path_3665" data-name="Path 3665" d="M181.348,112.012a15.939,15.939,0,0,0,5.073.775,122.667,122.667,0,0,1,21.573,3.4,17.679,17.679,0,0,1,3.281,1.249,2.931,2.931,0,0,1,1.939,2.5,3.149,3.149,0,0,1-1.977,2.492,9.488,9.488,0,0,1-.957.4c-4.235,1.783-8.751,2.352-13.245,2.886-9.168,1.089-18.342,2.017-27.6,2.2-6.339.128-12.68.715-19.031.727q-23.288.047-46.58-.005c-6.29-.019-12.581-.31-18.868-.489-7.314-.21-14.631-.461-21.941-.793-8.4-.38-16.781-1.02-25.163-1.649-6.106-.458-12.216-.945-18.3-1.681-4.492-.543-9.09-.642-13.378-2.385-.447-.18-.905-.338-1.354-.517A2.616,2.616,0,0,1,2.877,118.7a2.766,2.766,0,0,1,1.831-2.341A38.785,38.785,0,0,1,20.2,112.445a72.428,72.428,0,0,0,10.153-.959,2.043,2.043,0,0,1,1.653.747c1.681,1.752,3.774,2.066,6.087,2.062,25.862-.035,51.722-.073,77.584.036,3.569.014,6.393-.813,8.378-3.869a1.98,1.98,0,0,1,.793-.656c5.813-.316,11.608.47,17.419.354a3.37,3.37,0,0,1,2,.42c.815,1.828.229,3.531-.467,5.224-1,1.235-2.64,1.753-3.491,3.158-.775,1.283-.595,1.958.73,1.989,3.708.087,7.419.134,11.129-.028a1.34,1.34,0,0,0,.732-.347,2.767,2.767,0,0,0,.383-2.185,45.779,45.779,0,0,1,.435-7.213c.08-.692-.054-1.606,1.048-1.72a3.638,3.638,0,0,0,3.208,1.082c3.739-.232,7.437.52,11.169.446a3.014,3.014,0,0,1,1.786.43c.973,1.384.588,2.888.382,4.376a10.093,10.093,0,0,0,.128,5.057,1.723,1.723,0,0,0,1.3.545c3.524.052,7.05.082,10.572-.012,1.417-.036,1.764-.878.9-2.071a19.421,19.421,0,0,0-2.163-2.229c-1.892-2-2.017-2.914-.708-5.071" transform="translate(2.113 80.377)" fill="#fff0cf"/>
        <path id="Path_3666" data-name="Path 3666" d="M114.314,187.083c-1.727,3.732-4.618,5.305-8.748,5.295q-39.032-.107-78.066,0a9.29,9.29,0,0,1-7.933-3.628,13,13,0,0,1-1.159-6.025c.045-9.754.023-19.506.014-29.259,0-.826-.082-1.651-.123-2.477a3.131,3.131,0,0,1-.7-2.326c.012-18.7-.1-37.4.05-56.1.005-1.19-.087-2.383-.012-3.574.1-2.206-.1-4.414-.007-6.62.127-4.5-.045-9,.147-13.493-.168-4.931-.166-9.861-.147-14.792-.08-4.516-.009-9.032.042-13.548a5.536,5.536,0,0,1,.147-1.585,40.641,40.641,0,0,0,.035-10.484,57.833,57.833,0,0,1-.194-7.631,2.679,2.679,0,0,1,.654-1.7c.038-1.778.106-3.557.108-5.336.01-4.778,1.651-7.194,6.086-8.888a71.542,71.542,0,0,1,7.666-.161c21.185-.682,42.374-.494,63.562-.453,4.133.009,8.257.576,12.4.562,3.368.848,5.614,2.818,6.323,6.323a15.063,15.063,0,0,1,.5,5.465c-.038,2.952-1.427,3.868-4.422,2.947a5.131,5.131,0,0,1-.642-2.584,6.353,6.353,0,0,0-6.089-5.534c-.621-.042-1.245-.033-1.87-.033q-35.463,0-70.926,0a9.351,9.351,0,0,0-4.083.574,6.4,6.4,0,0,0-3.724,5.16,21.039,21.039,0,0,0-.114,3.323q-.005,77.888,0,155.775c0,7.2,2.2,9.412,9.473,9.417q34,.023,68.013.005c.555,0,1.11,0,1.663-.029,5.4-.317,7.728-2.759,7.73-8.188q.016-58.754.012-117.51a12.772,12.772,0,0,1,.26-3.926c.739-1.4,1.935-.982,3.042-.708a2.073,2.073,0,0,1,1.632,2.085c.029.475.045.95.075,1.426.064.647.342,1.252.366,1.908a26.615,26.615,0,0,1,.12,3.736c-.023,16.766.054,33.529-.035,50.293.05,18.21.1,36.422-.05,54.631a17.686,17.686,0,0,1-.14,2.742,7.08,7.08,0,0,0,0,3.621,44.688,44.688,0,0,1,.139,6.729c-.052,1.6.236,3.278-1.075,4.58" transform="translate(12.901 3.113)" fill="#705225"/>
        <path id="Path_3667" data-name="Path 3667" d="M29.813,68.468c.05.69.142,1.379.144,2.069q.013,27.56,0,55.123c0,.479-.078.959-.121,1.439a2.347,2.347,0,0,1-1.7-.593A83.337,83.337,0,0,1,15.448,114.72,55.21,55.21,0,0,1,5.205,97.393,56.612,56.612,0,0,1,1.862,79.066,71.9,71.9,0,0,1,3.844,60.538,127.391,127.391,0,0,1,9.458,43.613c.945-2.341,2.189-4.561,3.3-6.838,1.289-.057,1.96.938,2.7,1.694A92.87,92.87,0,0,0,27.019,48.535c1.613,1.172,2.636,2.43,2.421,4.638a18.374,18.374,0,0,0,.369,5.309q.013,3.319.029,6.635c-1.289-.2-1.309-1.391-1.733-2.248-3.274-6.6-7.255-12.693-12.77-17.667-.841-.76-1.866-1.946-3.04-1.172-1.37.9-.387,2.324.049,3.385a36.718,36.718,0,0,0,6.812,10.338A132.719,132.719,0,0,0,29.813,68.468" transform="translate(1.361 27.002)" fill="#fff0cf"/>
        <path id="Path_3668" data-name="Path 3668" d="M108.935,127.593q.585-14.11,1.169-28.221.408-9.755.841-19.511a14.314,14.314,0,0,0-.411-4.719.627.627,0,0,1-.173-.571c.848-2.586,1.365-5.142.255-7.834-.305-.744.421-1.542.963-2.2,3.694-4.483,7.047-9.246,10.9-13.6,1.084-1.224.994-2.829,1.833-4.077.328,3.344,2.563,5.81,4.185,8.479a63.536,63.536,0,0,1,7.655,19.339c1.5,6.75,1.774,13.706-.257,20.465A43.542,43.542,0,0,1,125.8,112.978a60.83,60.83,0,0,1-14.511,11.57,4.31,4.31,0,0,0-2.355,3.045" transform="translate(79.992 34.416)" fill="#fff0cf"/>
        <path id="Path_3669" data-name="Path 3669" d="M117.3,66.854a47.03,47.03,0,0,1-21.068.874c-1.235-1.764-1.278-3.845-1.544-5.858-.343-2.588-.368-5.2-.692-7.792-1.16-3.937-2.9-7.671-4.079-11.6a4.188,4.188,0,0,1,.975-4.936,23.24,23.24,0,0,0,2.2-2.752c1.856-2.686,4.5-3.748,7.622-3.928a4.874,4.874,0,0,1,2.511,1.3c2.017,1.755,4.079,1.922,6.179.248a4.66,4.66,0,0,1,4.2-.883c5.586.89,8.677,5.149,12.1,8.959.47.522.232,1.011-.055,1.5a26.061,26.061,0,0,1-3.5,6.889,14.252,14.252,0,0,0-1.159,2.173c-.541.416-.468,1.975-1.781.968-.222-3.458.727-6.87.449-9.488-.7,5.687.021,12.3-1.249,18.784a3.306,3.306,0,0,0,.038,1.238c-.114,1.505-.055,3.059-1.153,4.3" transform="translate(65.716 22.659)" fill="rgba(112,82,37,0.26)"/>
        <path id="Path_3670" data-name="Path 3670" d="M94.447,31.786c1.727-3.687,4.99-4.92,8.678-4.957,2-.021,2.484-.619,2.189-2.414-.258-1.568.558-2.964.94-4.416.3-1.155,1.429-1.632,2.523-1.941a17.433,17.433,0,0,1,6.6-.193c6.181.63,12.034-.272,17.182-4.031a9.631,9.631,0,0,0,2.5-2.47c.89-1.4,1.837-1.408,3.136-.744,5.049,2.581,10.05,11.766,9.41,17.341-.621,5.4-5.359,9.775-11.786,10.95-4.563.834-8.495-.626-12.041-3.311-2.151-1.627-4.084-3.54-6.209-5.2-2.7-2.111-5.64-3.637-9.684-3.1a10.12,10.12,0,0,1,4.069,10.63c-.531,2.749-2.21,4.884-4.143,6.823-.963-.153-.789-.872-.768-1.519a12.624,12.624,0,0,0,1.589-5.708c-.007-1.4-.532-2.291-2.026-2.279-2.657.021-5.253-.04-7.225-2.263-.5-.56-.85.049-1.1.441-.482.754-.843,1.58-1.323,2.341-.385.472-.515,1.29-1.422,1.061-1.786-1.372-1.941-3.1-1.086-5.036" transform="translate(68.984 7.484)" fill="#795e53"/>
        <path id="Path_3671" data-name="Path 3671" d="M31.171,85.484a11.979,11.979,0,0,1-.734-4.991,4.694,4.694,0,0,0-2.229-4.464A99.033,99.033,0,0,1,15.07,64.565c-.291-.29-.635-.525-.952-.787a41.994,41.994,0,0,1-3.588-5.728c-.14-.309-.461-.581-.486-.888-.083-1.065-.64-2.418.262-3.113s2.144-.029,3.042.595c1.283.9,2.464,1.939,3.691,2.919A4.981,4.981,0,0,1,19.589,59.2,78.845,78.845,0,0,1,29.22,71.66c-.43-2.872-.721-5.772-1.011-8.67a3.835,3.835,0,0,0-2.027-3.132c-1.358-.839-2.853-1.415-4.192-2.282a16.6,16.6,0,0,1-3.713-2.945c-3.337-2.617-7.066-4.762-9.733-8.186-1.023-1.315-2.558-3.08-1.6-4.284,1.048-1.313,3.009-.052,4.447.754a54.319,54.319,0,0,1,8.59,6.334c2.858,1.748,4.842,4.421,7.149,6.805-.317-4.285-1.674-8.371-1.785-12.633-.038-1.769-1.642-1.915-2.719-2.409A65.012,65.012,0,0,1,7.78,32.154a10.8,10.8,0,0,1-2.653-3.4,1.568,1.568,0,0,1,0-1.6c.382-.56.973-.319,1.518-.182,4.568,1.139,8.11,4.06,11.71,6.835a23.969,23.969,0,0,1,4.964,4.672c.215.293.532.579.862.437.5-.215.277-.706.166-1.07-.9-2.954-1.944-5.869-2.669-8.861A2.925,2.925,0,0,0,18.862,26.5a44.681,44.681,0,0,1-13.548-4.23A11.788,11.788,0,0,1,.425,17.947C-.43,16.6.042,16.008,1.5,16.017c2.574.017,4.82,1.2,7.055,2.239a44.37,44.37,0,0,1,11.873,7.4,34,34,0,0,0-5.747-11.407c-1.434-1.864-3.809-1.346-5.728-1.937a54.545,54.545,0,0,1-5.447-1.956c-.642-.274-1.55-.82-1.245-1.675.335-.943,1.259-.529,2-.361a34.631,34.631,0,0,1,9.259,3.828,4.1,4.1,0,0,0-.6-2.629,24.674,24.674,0,0,1-1.615-5.565,3.777,3.777,0,0,1,.56-2.981c.959-1.335,1.691-1.306,2.319.187a10.164,10.164,0,0,1,.747,3.436c.121,2.485.279,4.971.378,7.458A3.143,3.143,0,0,0,16,13.936a33.85,33.85,0,0,1,4.3,8.137c.118-3.215-.692-6.048.033-8.9.51-2,1.117-3.852,2.95-5.017,1.3-.824,2.251-.361,2.437,1.188a19.774,19.774,0,0,1-.55,5.763A48.509,48.509,0,0,1,23.009,23.3a7.736,7.736,0,0,0-.177,5.746c1,2.667,1.646,5.465,2.65,8.195a46.249,46.249,0,0,1,1.124-8.725c.718-2.662,1.823-5.1,4.606-6.268.088,6.635.416,13.271.026,19.906-.926-.82-.593-1.927-.619-2.926-.049-1.729-.047-3.463.024-5.5a12.732,12.732,0,0,1-1.481,2.99c-2.419,2.844-2.529,5.968-1.446,9.348a22.792,22.792,0,0,1,.933,5.147,27.771,27.771,0,0,1,1-5.876c.217-.8.321-1.831,1.521-1.913.243,4.559.168,9.121.045,13.682a6.907,6.907,0,0,0-.947,5.156,75.848,75.848,0,0,1,.7,8.467c.028.468-.3,1.037.267,1.413.154,4.448.175,8.9-.059,13.345" transform="translate(0 0)" fill="#f8ce96"/>
        <path id="Path_3672" data-name="Path 3672" d="M109.441,28.28c-.125,1.811-.128,3.59,1.323,4.983a3.272,3.272,0,0,1,1.183,1.472c.626,2.092.961,4.277,2.215,6.157a1.555,1.555,0,0,1-.109,2.079,2.544,2.544,0,0,1-1.658-.109c-5.373.331-7.666,4.582-10.458,8.205-.8,1.044.147,1.974.137,2.964a3.907,3.907,0,0,1-.8,2.508c-2.135,3.4-4.386,6.717-6.679,10.007-1.351,1.941-1.746,1.927-3.134.088-3.085-4.088-5.767-8.455-8.762-12.608a4.857,4.857,0,0,0-3.436-1.963c-1.882-.35-3.876.028-5.659-.895-.2-3-.2-3,2.777-3.054,10.382-.2,18.472-7.985,18.748-18.311A17.546,17.546,0,0,0,91.6,18.946a22.078,22.078,0,0,1-1.62-2.4c-.222-.52-.487-1.041-.038-1.575,4.076,2.758,8.07,5.621,11.89,8.731,1.913,1.557,4,2.907,5.961,4.407.571.435,1.046.614,1.651.175" transform="translate(53.99 10.99)" fill="#fff0cf"/>
        <path id="Path_3674" data-name="Path 3674" d="M107.467,46q2.51-4.36,5.023-8.72c.878,2.154,2.621,3.685,4.048,5.416,2.454,2.976,5.118,5.782,7.723,8.633a3.96,3.96,0,0,1,1.165,2.584c.555,3.248-2.029,4.932-3.62,7.052-2.379,3.17-5.005,6.155-7.407,9.308a19.007,19.007,0,0,1-1.4,1.7c-.579.6-1.283,1.486-.827,2.2,1.733,2.706.517,5.125-.441,7.61a2.224,2.224,0,0,0-.082.4c-2.329-2.775-2.4-6.427-3.724-9.6a13.64,13.64,0,0,1-.508-1.981,4.712,4.712,0,0,1,.727-2.126c2.107-3.484,3.7-7.256,5.95-10.663a3.83,3.83,0,0,0-.375-5.224,44.481,44.481,0,0,1-4.331-5.555c-.479-.758-1.25-.76-1.923-1.044" transform="translate(78.878 27.372)" fill="#f9ccc7"/>
        <path id="Path_3675" data-name="Path 3675" d="M105.2,7.706q-41.816.026-83.633.05c.553-.607,1.29-.394,1.956-.4a85.45,85.45,0,0,1,8.92.042c4.771.463,9.013-.838,13.229-2.874,5.21-2.515,10.858-3.257,16.575-3.9A53.169,53.169,0,0,1,74.39.8,74.185,74.185,0,0,1,91.615,4.688C95.338,6.065,98.967,8.14,103.23,7.37a2.107,2.107,0,0,1,1.972.336" transform="translate(15.838 0.263)" fill="#fff0cf"/>
        <path id="Path_3676" data-name="Path 3676" d="M112.561,114.794c-.314,1.623-.839,3.286.827,4.549-1.66.732-3.385.054-5.075.22a17.724,17.724,0,0,1-3.094,0c-1.719-.132-2.6.449-2.466,2.319a2.62,2.62,0,0,1-.669,2.484,9.26,9.26,0,0,1-.248-5.064,42.7,42.7,0,0,0,.331-4.919,4.174,4.174,0,0,1-.149-.6c-.345-3.328-.342-3.339-3.524-3.855-.881-.142-1.667-.427-1.774-1.42-.109-1.021-.584-2.2.787-2.839.106,3.4.106,3.378,3.675,3.432,3.791.055,7.582.168,11.374.257l.005,5.435" transform="translate(70.899 77.594)" fill="#f9ccc7"/>
        <path id="Path_3677" data-name="Path 3677" d="M11.062,31.5q4.6,2.726,9.2,5.449a1.938,1.938,0,0,1,1.117,1.408c.432,3.824.838,7.65,1.32,12.092-3.991-6.074-7.8-11.571-12.879-16.018,1-.73,1.774-1.554,1.238-2.931" transform="translate(7.214 23.131)" fill="#fff0cf"/>
        <path id="Path_3678" data-name="Path 3678" d="M90.247,20.943c-4.327-3.98-9.343-6.082-15.3-5.571-.975.083-1.372-.229-1.325-1.254.082-1.8.057-3.6.078-5.4a10.106,10.106,0,0,1,5.73,4.247c.186.309.321.35.539.326,1.476-.172,2.386.824,3.476,1.547q3.325,2.209,6.422,4.71c.127.463.251.928.378,1.391" transform="translate(54.06 6.404)" fill="#fff0cf"/>
        <path id="Path_3679" data-name="Path 3679" d="M16.886,25.037A84.672,84.672,0,0,1,19.2,38.974c-2.405-2.912-5.186-5.375-7.683-8.108,1.682,1.129,2.711.416,3.456-1.2.7-1.518,2.267-2.678,1.908-4.632" transform="translate(8.461 18.385)" fill="#fff0cf"/>
        <path id="Path_3680" data-name="Path 3680" d="M95.938,32.469l1.63-.047c.3-.93.628-1.689,1.9-1.63a14.046,14.046,0,0,0,6.476-1.672c.054.595-.38,1.3.4,1.729-.362.711-.486,1.327.569,1.511.661.116,1.41-.16,1.96.444a5.043,5.043,0,0,0-3.6,1.186c-2.627,2.281-5.031,1.934-7.568-.624-.552-.555-1.334-.321-1.771-.9" transform="translate(70.448 21.383)" fill="#e8c0bc"/>
        <path id="Path_3681" data-name="Path 3681" d="M73.739,143.991a91.5,91.5,0,0,1-.1-10.5.455.455,0,0,1,.246.506c.116-.118.035-.264.047-.394.4-3.987,1.1-7.924,1.894-11.849a2.026,2.026,0,0,1,1.2-1.587c4.02-1.722,7.834-3.871,10.114-4.962-1.79.914-5.238,2.627-8.689,4.334-.541.267-1.127.751-1.734.364-.751-.477-.39-1.283-.262-1.915.952-4.667,1.937-9.329,2.9-13.992a2.8,2.8,0,0,1,1.672-2.173C84,100.4,86.8,98.67,89.772,97.264c-2.562,1.214-5.036,2.589-7.527,3.933-.525.284-1.089.787-1.724.4-.727-.441-.288-1.119-.156-1.689.952-4.178,2.055-8.321,3.044-12.49a3.244,3.244,0,0,1,1.27-2.055c1.467-1.025,2.879-2.13,4.372-3.122q-1.707,1.186-3.411,2.371c-.336.234-.718.506-1.117.151-.295-.264-.2-.65-.114-.975a27.2,27.2,0,0,0,.917-3.392c.685-1.649.815-3.456,1.53-5.1-.647,1.668-.921,3.443-1.54,5.123-1.6,6.138-3.292,12.251-4.749,18.425-1.5,6.381-3,12.768-4.093,19.225-.7,4.138-1.826,8.205-2.137,12.409-.028.371-.12.683-.6.6-.038-3.45-.1-6.9-.108-10.349q-.018-21.66,0-43.318c0-.411.052-.824.08-1.235,1.511-3.326,4-5.947,6.434-8.554a77.35,77.35,0,0,1,10.614-9.886c1.8-1.322,2.171-1.263,3.129.846a159.486,159.486,0,0,1,7.244,20.047q-6.1,26.647-12.2,53.292c-.319,1.4-.675,2.787-1.013,4.18a42.56,42.56,0,0,1-11.271,7.445c-.862.421-1.828,1.046-2.907.442" transform="translate(53.976 41.748)" fill="#f8ce96"/>
        <path id="Path_3682" data-name="Path 3682" d="M101.085,93.542c-.321.121-.612.288-.751-.26a137.167,137.167,0,0,0-7.06-19.893c-.583-1.374-.957-1.424-2.116-.506A105.173,105.173,0,0,0,73.664,91.088c-.035-.689-.1-1.377-.1-2.064q-.008-24.477,0-48.954c0-1.172.062-2.347.1-3.519,2.8.236,4.279,2.3,5.513,4.365,3.613,6.044,7.2,12.1,11.049,18,2.223,3.4,4.277,3.37,6.831.123q3.335-4.243,6.762-8.41c.56-.68,1.034-1.779,2.3-1.157.808,1.838.257,3.819.593,5.718.493,2.773.819,5.574,1.216,8.363q-3.421,14.995-6.844,29.993" transform="translate(54.016 26.84)" fill="#fff0cf"/>
        <path id="Path_3683" data-name="Path 3683" d="M102.207,111.741c-.543.576-.269,1.3-.366,1.962-.194,1.315.305,1.8,1.687,1.828,4.022.066,4.291.449,3.659,4.419-.029.182-.212.34-.323.508-4.884.194-9.736-.746-14.62-.414-1.3.088-1.762-.46-1.627-1.675-.85-1.117-.432-2.059.408-2.943,3.267-.243,3.24-.248,3.852-3.626.784-4.332,1.618-8.658,2.431-12.985,1.29-1.079,2.929-1.037,4.449-1.37.727-.16,1.2.111,1.141.966a14.463,14.463,0,0,1-.146,3.061l-.546,10.271" transform="translate(66.199 71.521)" fill="#fdfdfd"/>
        <path id="Path_3684" data-name="Path 3684" d="M108.857,42.528c.628-.338,1.238-1.018,1.866.033a57.027,57.027,0,0,0,5.661,7.348c1.422,1.684.541,3.165-.208,4.3-2.751,4.154-4.539,8.84-7.367,12.933q-1.641-4.233-3.283-8.467.4-2,.8-3.989c.4-3.5.35-7.059,1.387-10.475l1.145-1.681" transform="translate(77.488 30.84)" fill="#fff0cf"/>
        <path id="Path_3685" data-name="Path 3685" d="M99.724,120.641c-.251-3.644-.25-3.639-4.008-2.794a11.24,11.24,0,0,1-1.436.137c.99-6,1.948-12,2.98-17.988,1.622-9.4,3.288-18.8,4.939-28.195.033-.186.14-.359.5-.508-.2,4.095-.385,8.191-.624,12.284q-1.048,17.929-2.137,35.857a10.021,10.021,0,0,1-.219,1.207" transform="translate(69.23 52.351)" fill="#fff0cf"/>
        <path id="Path_3686" data-name="Path 3686" d="M73.851,110.5c4.934-1.422,9.015-4.341,13.014-7.409.331-.253.525-.933,1.164-.479-.555,2.489-1.07,4.988-1.677,7.464-.293,1.191.01,1.615,1.271,1.561,1.651-.069,3.309.033,4.964.061a3.612,3.612,0,0,1-.049,4.183c-5.043.305-10.061-.375-15.1-.408-1.375-.009-2.875.8-4.09-.517q.25-2.229.5-4.457" transform="translate(53.863 75.238)" fill="#fdfefe"/>
        <path id="Path_3687" data-name="Path 3687" d="M84.753,111.97q.023-2.092.049-4.181,5.388,0,10.777.009-.205,1.47-.408,2.943a38.647,38.647,0,0,0-.826,9.52c-.005.848.371,1.8-.4,2.542a3.447,3.447,0,0,1-.612-2.754c.064-1.514-.68-2.076-2.062-2.26a44.879,44.879,0,0,0-4.551-.193c-.95-.029-1.956.151-2.766-.574q.4-2.526.8-5.052" transform="translate(61.649 79.15)" fill="#f8ccc7"/>
        <path id="Path_3688" data-name="Path 3688" d="M103.461,80.094q.008,15.479.012,30.957c0,.543.1,1.124-.385,1.549-.581-2.182.134-4.44-.392-6.625q-.01-14.024-.017-28.052c0-.543-.1-1.122.383-1.55.572,1.193-.114,2.522.4,3.722" transform="translate(75.391 56.081)" fill="#523b57"/>
        <path id="Path_3689" data-name="Path 3689" d="M89.019,108.616q2.04-10.429,4.079-20.86a97.279,97.279,0,0,1,2.525-11.613l0,0c-.2,4.344-1.426,8.519-2.157,12.773-1.115,6.493-2.442,12.952-3.694,19.421a2.922,2.922,0,0,1-.362.72c-.264-.028-.253-.3-.388-.439" transform="translate(65.367 55.911)" fill="#5d4560"/>
        <path id="Path_3690" data-name="Path 3690" d="M103.3,94.855c-.784-1.171-.154-2.494-.4-3.722V56.27h.4Z" transform="translate(75.553 41.319)" fill="#68526e"/>
        <path id="Path_3691" data-name="Path 3691" d="M93.787,80.6q2.294-12.06,4.587-24.121l.534.1C97.342,64.584,96.035,72.64,94.188,80.6c-.135.186-.267.186-.4,0" transform="translate(68.868 41.471)" fill="#5d4661"/>
        <path id="Path_3692" data-name="Path 3692" d="M94.285,54.851c6.292.487,12.549.61,18.737-.983a33.808,33.808,0,0,1-18.737.983" transform="translate(69.234 39.556)" fill="#5c455f"/>
        <path id="Path_3693" data-name="Path 3693" d="M102.685,93.442c.834,2.166.111,4.426.392,6.625V116.2l-.392,0Z" transform="translate(75.402 68.615)" fill="#6b536d"/>
        <path id="Path_3694" data-name="Path 3694" d="M89.749,94.866c.13.146.258.293.388.439a43.434,43.434,0,0,1-2.1,10.364l-.007-.007c-.05-2.933,1.032-5.682,1.381-8.55.092-.751.227-1.5.342-2.246" transform="translate(64.637 69.661)" fill="#5f4864"/>
        <path id="Path_3695" data-name="Path 3695" d="M94.492,70.384c.134,0,.267,0,.4,0a48.947,48.947,0,0,1-2.066,9.984h0c-.019-3.424,1.259-6.632,1.663-9.986" transform="translate(68.164 51.683)" fill="#5f4864"/>
        <path id="Path_3696" data-name="Path 3696" d="M88.486,101.1c.2,2.147-.754,4.112-1.056,6.181a15.057,15.057,0,0,1,1.049-6.186l.007.005" transform="translate(64.187 74.233)" fill="#624c67"/>
        <path id="Path_3697" data-name="Path 3697" d="M85.854,113.113c2.829.158,5.661-.08,8.5.243,1.328.149,1.632.645,1.566,1.8-.073,1.242-.052,2.489-.071,3.734-4.277.005-8.555-.075-12.829.054-1.89.055-1.878-.621-1.325-2.036.777-1.981,2.421-2.922,4.162-3.8" transform="translate(59.749 83.06)" fill="rgba(112,82,37,0.26)"/>
        <path id="Path_3698" data-name="Path 3698" d="M99.812,118.84c.222-1.7-.723-3.946.382-4.995,1.263-1.2,3.548-.352,5.385-.4a15.32,15.32,0,0,1,5.538.364c1.384,1.046,2.733,2.118,3.224,3.906.206.747.276,1.488-.765,1.467-4.537-.087-9.081.316-13.609-.213-.055-.007-.1-.087-.154-.134" transform="translate(73.171 83.124)" fill="rgba(112,82,37,0.26)"/>
        <path id="Path_3699" data-name="Path 3699" d="M108.675,16.815c-.388.753-1.2.884-1.849,1.257-6.53,3.767-10.05,9.308-10,16.951.049,7.574,3.684,12.98,10.121,16.682.636.366,1.5.439,1.731,1.33q-.016,25.791-.033,51.58-.008,35.359-.005,70.716c0,5.316-2.895,8.2-8.245,8.205q-35.882.021-71.762,0c-5.458,0-8.267-2.888-8.269-8.389q-.008-79.449-.021-158.9c0-5.366,2.855-8.276,8.155-8.274,23.713,0,47.426.123,71.136-.076,6.134-.05,9.462,3.489,9.039,8.914" transform="translate(14.939 5.801)" fill="rgba(215,210,181,0.6)"/>
        <path id="Path_3700" data-name="Path 3700" d="M106.226,50.018c-.886.014-1.341.682-1.805,1.264-2.447,3.078-4.844,6.195-7.3,9.265-2.079,2.6-4.624,2.759-6.54.158-3.023-4.1-5.375-8.649-8.1-12.948-2.192-3.458-3.814-7.378-7.218-9.964a7.641,7.641,0,0,0-1.495-.692,1.54,1.54,0,0,1-.321-1.238,1.319,1.319,0,0,0,.33-.04,38.866,38.866,0,0,1,6.185.48,3.86,3.86,0,0,1,3.108,1.9c3.033,4.589,6.309,9.017,9.384,13.58.689,1.022.917.487,1.278-.062,2.834-4.311,5.957-8.434,8.422-12.985q2.037,5.643,4.072,11.287" transform="translate(53.91 26.288)" fill="#f9ccc7"/>
        <path id="Path_3701" data-name="Path 3701" d="M25.9,65.811c-1.211.066-1.842-.9-2.525-1.589-4.825-4.889-9.892-9.57-13.529-15.5a20.6,20.6,0,0,1-2.53-5.612,2.068,2.068,0,0,1,.626-2.437c.845-.612,1.5-.1,2.255.328,3.092,1.745,5.161,4.559,7.234,7.248a78.612,78.612,0,0,1,6.4,9.814c.8,1.431.95,3.151,2.1,4.4a8.472,8.472,0,0,1-.026,3.349" transform="translate(5.273 29.659)" fill="#f2c994"/>
        <path id="Path_3702" data-name="Path 3702" d="M73.677,121.17c.671-3.566,1.374-7.126,2.008-10.7q3.07-17.3,7.737-34.239a27.534,27.534,0,0,1,1.821-5.884l.137.116c.2,1.476-.742,2.759-.813,4.476l5.969-4.155c.078,1.2-.68,1.381-1.2,1.764-1.393,1.021-2.732,2.128-4.188,3.051a3.54,3.54,0,0,0-1.608,2.487c-.916,4.034-1.935,8.044-2.929,12.06-.1.4-.406.836-.1,1.174.454.5.9-.026,1.278-.222q4.147-2.149,8.248-4.383c.432-.236.786-.645,1.294.149-3.274,1.741-6.505,3.528-9.806,5.179a3.516,3.516,0,0,0-2.064,2.818c-.81,4.268-1.792,8.5-2.706,12.752-.146.676-.465,1.533.016,1.991.6.571,1.247-.213,1.821-.494,3.361-1.642,6.7-3.332,10.054-4.99a1.365,1.365,0,0,1,1.622-.137c-1.977,1.042-3.786,2.036-5.63,2.957-2.352,1.178-4.709,2.352-7.112,3.417a2.931,2.931,0,0,0-1.675,2.445c-.747,4.136-1.49,8.274-1.9,12.974-.173-1.061-.267-1.632-.362-2.2q.047-1.2.092-2.407" transform="translate(54.034 51.659)" fill="#705225"/>
        <path id="Path_3703" data-name="Path 3703" d="M20.07,29.679c-1.74,2.5-1.573,5.465-2.06,8.271-.109.628.158,1.346-.643,2.234-.411-4.473-1.492-8.476-2.237-12.544a2.741,2.741,0,0,1,.5-1.537,73.166,73.166,0,0,0,3.883-7.386l.628.144v9.553c-.024.42-.047.843-.069,1.266" transform="translate(11.099 13.743)" fill="#fff0cf"/>
        <path id="Path_3704" data-name="Path 3704" d="M18.747,47.961a2.61,2.61,0,0,1-.175.59c-.118.2-.286.286-.286-.076,0-4.131-.94-8.165-1.271-12.26a3.32,3.32,0,0,1,1.717-3.29c.208,5.012.142,10.024.016,15.036" transform="translate(12.483 24.177)" fill="#f0ebef"/>
        <path id="Path_3705" data-name="Path 3705" d="M107.556,48.225q-.695,5.237-1.387,10.473c-.952-1.126-.047-2.262.071-3.351.642-5.886.961-11.79,1.223-17.7a8.936,8.936,0,0,1,.255-1.119c.676,4.178-.382,7.928-.161,11.7" transform="translate(77.644 26.824)" fill="#895154"/>
        <path id="Path_3706" data-name="Path 3706" d="M105.172,35.661c-4.551,1.632-9.679-.369-9.924-4.2,2.31,4.181,5.593,4.9,9.5,3.8.437-.189.5.028.425.392" transform="translate(69.941 23.106)" fill="#964a46"/>
        <path id="Path_3707" data-name="Path 3707" d="M101.15,35.364c-.142-.13-.283-.26-.425-.392,1.589-.85,2.856-2.156,4.4-3.1a9.3,9.3,0,0,1-3.973,3.493" transform="translate(73.963 23.403)" fill="#a2524b"/>
        <path id="Path_3708" data-name="Path 3708" d="M106.381,33.85c-1.663,2.19-4.225,2.078-6.523,2.253A2.367,2.367,0,0,0,98,37.152a2.521,2.521,0,0,0-.428-1.96c-1.467-1.871-1.734-4.147-2.04-6.4-.7-2.116.763-1.285,1.58-1.242-.255-.664-1.935.47-1.559-1.188.354-.746.682-1.507,1.068-2.236.7-1.315,1.228-2.3,2.626-.335,1.353,1.906,3.722,1.833,5.878,1.83,2.7-.005,3.2.571,2.938,3.285-.17,1.79-.255,3.59-1.682,4.945" transform="translate(70.016 16.653)" fill="#f7cdc7"/>
        <path id="Path_3709" data-name="Path 3709" d="M95.812,24.8c.6,1.4,1.8.555,2.893.749a1.549,1.549,0,0,1-1.906.663c-.989-.342-.943.408-1.008,1.018A1.2,1.2,0,0,1,95,26.04l.815-1.237" transform="translate(69.757 18.213)" fill="#9c7b80"/>
        <path id="Path_3711" data-name="Path 3711" d="M80.307,72.64a14.1,14.1,0,0,1,1.623-5.409c-.314,1.89-.4,3.838-1.49,5.525l-.134-.116" transform="translate(58.97 49.368)" fill="#705225"/>
        <path id="Path_3712" data-name="Path 3712" d="M82.234,115.309H93.968v.219H82.234v-.219" transform="translate(60.385 84.672)" fill="#633a40"/>
        <path id="Path_3713" data-name="Path 3713" d="M112.357,115.944H100.489c.989-.8,9.233-1.049,11.868,0" transform="translate(73.79 84.627)" fill="#935458"/>
        <path id="Path_3715" data-name="Path 3715" d="M60.318,90.279q14.558,0,29.114,0c2.659,0,4.242,1.469,4.285,4.181.073,4.435.066,8.873.009,13.307-.033,2.489-1.929,4.116-4.745,4.142-4.159.038-8.318.01-12.478.01q-22.458,0-44.919,0c-3.517,0-4.45-.9-4.861-4.424a66.625,66.625,0,0,1,.031-14.074c.2-2.114,1.408-3.13,3.826-3.136,8.179-.021,16.36-.009,24.539-.009h5.2" transform="translate(19.358 66.29)" fill="rgba(180,166,128,0.6)"/>
        <path id="Path_3716" data-name="Path 3716" d="M63.295,72.064q15.6,0,31.192.005a8.6,8.6,0,0,1,8.411,11c-.741,2.83-4.157,5.3-6.365,5.557a56.177,56.177,0,0,1-6.6.531c-18.3-.062-36.6-.005-54.9-.071a18.385,18.385,0,0,1-7.107-1,8.211,8.211,0,0,1-5.359-8.821c.38-2.955,2.893-5.921,6.873-6.851a15.053,15.053,0,0,1,3.488-.35q15.182,0,30.361,0" transform="translate(16.522 52.915)" fill="#fdfdfd"/>
        <path id="Path_3717" data-name="Path 3717" d="M62.7,75.219c-10.26,0-20.522.083-30.782-.04-5.092-.059-9.717-3.786-9.384-9.162a7.517,7.517,0,0,1,4.5-6.495,13.344,13.344,0,0,1,6.19-1.4c19.967.069,39.934.035,59.9.049a11.4,11.4,0,0,1,6.46,1.819c3.2,2.1,4.095,5.045,3.644,8.588-.274,2.161-4.013,5.706-6.471,6.188a22.957,22.957,0,0,1-4.518.475c-9.846-.045-19.69-.023-29.535-.026" transform="translate(16.537 42.682)" fill="#fdfdfd"/>
        <path id="Path_3718" data-name="Path 3718" d="M101.238,28.469a2.427,2.427,0,0,1-1.6,1.419,1.55,1.55,0,0,1-1.67-.5c-.364-.328-.394-.808.208-.872a5.257,5.257,0,0,0,2.523-.7c.321-.213.576.191.538.645" transform="translate(71.747 20.388)" fill="#fcf7f7"/>
        <path id="Path_3719" data-name="Path 3719" d="M97.894,29.152c-1.169-1.245.154-2.138.262-3.2.378,1.132-.616,2.071-.262,3.2" transform="translate(71.532 19.055)" fill="#967177"/>
        <path id="Path_3720" data-name="Path 3720" d="M99.029,25.453a6.125,6.125,0,0,0,2.593-.427c-1.174,1.429-1.174,1.429-2.593.427" transform="translate(72.718 18.377)" fill="#af8588"/>
        <path id="Path_3724" data-name="Path 3724" d="M57.587,78.258a3.12,3.12,0,0,1,2.95-3.087,3.155,3.155,0,0,1,3.186,2.874,3.356,3.356,0,0,1-3.065,3.267,3.477,3.477,0,0,1-3.071-3.054" transform="translate(42.287 55.198)" fill="rgba(171,156,168,0.3)"/>
        <path id="Path_3725" data-name="Path 3725" d="M36.629,78.2a3.073,3.073,0,1,1-6.143-.14,3.074,3.074,0,0,1,6.143.14" transform="translate(22.384 55.195)" fill="#d7d2b5"/>
        <path id="Path_3726" data-name="Path 3726" d="M44.355,81.084A2.946,2.946,0,0,1,41.32,78.12a3.063,3.063,0,0,1,3.136-2.94A2.99,2.99,0,0,1,47.4,78.234a2.71,2.71,0,0,1-3.049,2.849" transform="translate(30.339 55.205)" fill="rgba(171,156,168,0.3)"/>
        <path id="Path_3727" data-name="Path 3727" d="M41.954,78.259a3.085,3.085,0,0,1-3.094,2.99,3.018,3.018,0,0,1-2.908-3.143,2.906,2.906,0,0,1,3.068-2.938,2.977,2.977,0,0,1,2.934,3.091" transform="translate(26.399 55.196)" fill="#d7d2b5"/>
        <path id="Path_3728" data-name="Path 3728" d="M63.063,78.268a3.05,3.05,0,0,1,2.917-3.1,2.881,2.881,0,0,1,2.988,2.777,3.16,3.16,0,0,1-2.678,3.363,3.114,3.114,0,0,1-3.228-3.039" transform="translate(46.307 55.196)" fill="rgba(171,156,168,0.3)"/>
        <path id="Path_3729" data-name="Path 3729" d="M55.2,75.181a2.8,2.8,0,0,1,2.945,2.99A2.73,2.73,0,0,1,55.176,81.1a2.667,2.667,0,0,1-2.934-2.94A2.8,2.8,0,0,1,55.2,75.181" transform="translate(38.36 55.206)" fill="rgba(171,156,168,0.3)"/>
        <path id="Path_3730" data-name="Path 3730" d="M28.143,75.168a2.936,2.936,0,0,1,2.962,3.047,2.994,2.994,0,1,1-5.989-.068,2.936,2.936,0,0,1,3.026-2.98" transform="translate(18.444 55.196)" fill="#d7d2b5"/>
        <path id="Path_3731" data-name="Path 3731" d="M52.672,78.295a2.638,2.638,0,0,1-2.865,2.8,2.9,2.9,0,0,1-3.037-2.945A3.135,3.135,0,0,1,50.1,75.182c1.592.076,2.6,1.3,2.574,3.113" transform="translate(34.34 55.204)" fill="rgba(171,156,168,0.3)"/>
        <line id="Line_3" data-name="Line 3" x2="63" transform="translate(47.5 108.545)" fill="none" stroke="#d7d2b5" stroke-linecap="round" stroke-width="4"/>
      </g>
    </g>
    <g id="Group_8" data-name="Group 8" transform="translate(120.48 185)">
      <g id="Group_7" data-name="Group 7" transform="translate(0 0)" clip-path="url(#clip-path-2)">
        <path id="Path_3862" data-name="Path 3862" d="M1.636,27.48c-.51-.044-.491-.549-.7-.839a3.769,3.769,0,0,1-.887-2.129c.245-.3.091-.668.146-1A7.524,7.524,0,0,1,1.1,21.127a2.84,2.84,0,0,0,.419-.944,9.444,9.444,0,0,0,1.5-3.508,4.53,4.53,0,0,1,1.356-2.41,4.451,4.451,0,0,1,.109,2.172,3.255,3.255,0,0,0,.116,1.51c.141.345.116.61-.36.608a1.413,1.413,0,0,0-.781.331.961.961,0,0,0,.084,1.73c.667.358,1.117.1,1.147-.663a2.715,2.715,0,0,0-.132-.969c-.046-.138-.066-.3.082-.387.118-.068.238.016.336.088a2.781,2.781,0,0,1,.731.651,2.07,2.07,0,0,1,.21.367c.2.5.52.581,1.015.4.332-.118.777-.44,1.01.18a3.062,3.062,0,0,1-.163.78c-.094.534.094.778.637.812a1.1,1.1,0,0,0,1.114-.5.973.973,0,0,0-.147-1.144c-.232-.341-.491-.679.106-.923a3.038,3.038,0,0,0,1.641-1.015c.116-.161.285-.358.51-.2.2.135.147.372.081.569a13.669,13.669,0,0,1-.744,1.465A4.085,4.085,0,0,0,11.82,17.8a1.521,1.521,0,0,1,.267-.334.832.832,0,0,0-.154-1.361.916.916,0,0,1-.434-.813,3.379,3.379,0,0,0-2.565-3.468c-.158-.047-.315-.1-.365-.29.65-.5,1.218-1.128,2.2-.881a1.513,1.513,0,0,1,1.027.891,5.592,5.592,0,0,1,.746,2.117,8.926,8.926,0,0,0,.545,1.782,12.451,12.451,0,0,1-.472,7.687,11.425,11.425,0,0,1-2.576,4.1,4.719,4.719,0,0,1-3.2,1.605c-.666-.12-1.323.107-2,.02A5.894,5.894,0,0,1,1.636,27.48" transform="translate(-0.022 -5.137)" fill="#705225"/>
        <path id="Path_3863" data-name="Path 3863" d="M39.224,32.912l-.493-.015a2.177,2.177,0,0,0-2.117.7,1.222,1.222,0,0,1-.446.19,13.577,13.577,0,0,1-3.419.688c-.388.013-1.147-.9-1.01-1.263.059-.155.211-.169.353-.206.516-.13,1.023-.3,1.543-.4.8-.161,1.006-.8,1.326-1.513a14.486,14.486,0,0,1-5.031-.051,1.286,1.286,0,0,1-1.3-1.052c-.1-.364.18-.523.325-.734.119-.174.362-.038.5.076.733.626,1.524.278,2.288.133a8.473,8.473,0,0,0,1.255-.447c-.41-.52-1.165-.766-1.184-1.55a.356.356,0,0,1,.2-.132,1.026,1.026,0,0,0,.973-1.2c.079-.188.333-.32.188-.589-.24-.021-.242.244-.393.323a.893.893,0,0,1-.83.071c-.022.242.13.554-.24.66a13.8,13.8,0,0,1,.115-2.8,2.59,2.59,0,0,1,.986-1.76.318.318,0,0,1,.076.16c-.009.223-.048.444-.049.669a1.139,1.139,0,0,0,1.005,1.3c.118.031.239.051.355.089a.91.91,0,0,1,.161.069,1.543,1.543,0,0,0,1.551.191.663.663,0,0,1,.414-.064c.215.059.4.2.623.237a1.413,1.413,0,0,0,1.8-1.028c.083-.22.034-.5.265-.658a2.133,2.133,0,0,1,.315,1.1,2.039,2.039,0,0,0,.609,1.6c.4.376.212.977-.2,1.4a3.3,3.3,0,0,1-1.15.267c-.229-.009-.37.214-.51.4a4.171,4.171,0,0,1-4.132,1.381,4.129,4.129,0,0,0,4.086-1.315A1.006,1.006,0,0,1,39,27.343c.287.036.456-.252.728-.245.166.413.527.344.859.349.376.109.267.4.226.644a14.34,14.34,0,0,0-.345,1.971c-.066.782-.3,1.531-.437,2.3-.112.636-.112.636-.808.549" transform="translate(-13.871 -10.684)" fill="#f8b8a1"/>
        <path id="Path_3864" data-name="Path 3864" d="M83.121,17.926c0,.209.146.33.276.462a3.662,3.662,0,0,1,.925,3.242,1.161,1.161,0,0,0,.188.847,4.514,4.514,0,0,1,.718,2.371,4.265,4.265,0,0,0-2.24,1.49,1.716,1.716,0,0,0-.427,1.744.316.316,0,0,1-.048.346c-.628-.1-1.235.3-1.875.066a1.159,1.159,0,0,0-.839-.054,1.823,1.823,0,0,0-.5-.347,5.091,5.091,0,0,1-2.35-2.011,11.994,11.994,0,0,1,0-3.582c.3-.107.726-.1.538-.637-.092-.261-.772-.741-1-.678-.154.042-.152.175-.165.295-.024.216.081.453-.106.642-.782-.119-1.562-.264-2.348-.349a2.726,2.726,0,0,1-1.623-.619,1.069,1.069,0,0,0,.256-1.4.279.279,0,0,1,0-.335c.319.2.566-.075.847-.123.8-.135,1.6-.251,2.392-.38a3.3,3.3,0,0,0,1.211-.241,6.935,6.935,0,0,1,1.948,1.343,1.692,1.692,0,0,0,2.156-.416A23.223,23.223,0,0,0,82.9,17.974a.19.19,0,0,1,.225-.047" transform="translate(-35.027 -8.683)" fill="#795e53"/>
        <path id="Path_3865" data-name="Path 3865" d="M12.1,20.323c-.414.084-.38.262-.148.546.368.451.689.916.247,1.525a1.452,1.452,0,0,1-1.7.446.621.621,0,0,1-.363-.757c.067-.3.165-.589.25-.884.158-.414-.171-.314-.353-.309a3.031,3.031,0,0,1-1.874-.567L7.13,19.4a3.059,3.059,0,0,1,.292,1.317c-.057.409.1.911-.463,1.08a1.372,1.372,0,0,1-1.45-.581,1.058,1.058,0,0,1,.42-1.593c.361-.223.675-.55,1.262-.263-.73-1.454-.1-2.85-.263-4.216a5.1,5.1,0,0,1,1.63-1.93,3.731,3.731,0,0,1,2.342-.7c.069.006.145-.069.217-.107a4.2,4.2,0,0,1,2.333,1.353,3.9,3.9,0,0,1,.771,2.4c.006.2-.078.412.181.591.948.656.951,1.212.056,1.966-.069.046.039.036-.038.045-1.033.132-1.535,1.051-2.318,1.554" transform="translate(-2.571 -6.018)" fill="#f8b8a1"/>
        <path id="Path_3866" data-name="Path 3866" d="M113.052,10.716q-.009-1.786-.019-3.571a.276.276,0,0,1,.258.008,1.1,1.1,0,0,0,.663.047,1.158,1.158,0,0,1,.746.175,5.39,5.39,0,0,0,2.318.641c.305,0,.5.264.836.226-.168-.038-.3-.1-.228-.248.144-.3.386-.235.625-.12a1.323,1.323,0,0,0,.434.211,1.763,1.763,0,0,1,1.553.952c.088.19.3.169.488.155.378.152.109.563.3.712-.1-.583-.038-.68.63-.789a2.011,2.011,0,0,0,.407-.128c.5.5.253,1.7-.5,1.788-1.354.149-1.81,1.413-2.826,1.934a2.226,2.226,0,0,1-3.466.753,5.537,5.537,0,0,1-.754-.629,2.688,2.688,0,0,1-1.437-1.86c.273-.046.387.4.7.225a.687.687,0,0,0,.413-.565.642.642,0,0,0-.359-.657c-.233-.115-.432-.093-.513.216-.05.191.064.478-.27.524" transform="translate(-54.806 -3.45)" fill="#f8b8a1"/>
        <path id="Path_3867" data-name="Path 3867" d="M82.649,14.914c-.457-.7-1.389-.79-1.863-1.466a1.714,1.714,0,0,1-.414-.945,15.97,15.97,0,0,1-.1-3.917,3.017,3.017,0,0,1,.753-1.449.3.3,0,0,1,.1.159c.009.457-.175.925.065,1.371a1.182,1.182,0,0,0,1.138.684,1.238,1.238,0,0,1,.522.163,1.639,1.639,0,0,0,1.424.022A1.242,1.242,0,0,1,85.344,9.5a1.445,1.445,0,0,0,1.754-.7c.168-.274.334-.517.712-.407a.981.981,0,0,1,.087.287,1.536,1.536,0,0,0,.671,1.442.48.48,0,0,1-.33.125c-.522.073-.6.2-.525.78.007-.661.105-.77.685-.735a.474.474,0,0,0,.3-.038c.569.639.105,1.631-.886,1.8a.9.9,0,0,0-.845.656,10.355,10.355,0,0,1-1.975,1.729,11.137,11.137,0,0,1-2.013.145c-.3-.047-.23.212-.325.336" transform="translate(-38.868 -3.461)" fill="#f8b8a1"/>
        <path id="Path_3868" data-name="Path 3868" d="M120.792,34.082a31.432,31.432,0,0,0,.137,3.531c.043.512-.119.818-.628.92a1.9,1.9,0,0,1-1.6.252c-.7-.064-.791-.591-.9-1.132-.09-.456-.231-.9-.341-1.356-.03-.122-.039-.274-.182-.28s-.164.143-.192.265a10.782,10.782,0,0,0-.284,1.244c-.061.583-.143,1.111-.838,1.252a1.827,1.827,0,0,1-1.593-.244c-.509-.061-.645-.356-.635-.847.03-1.366.013-2.732.014-4.1.557-.249,1.08.07,1.613.125a11.6,11.6,0,0,0,4.505-.2c.789-.23.8-.21.917.57" transform="translate(-55.149 -16.187)" fill="rgba(112,82,37,0.26)"/>
        <path id="Path_3869" data-name="Path 3869" d="M120.284,6.088c-.12.225-.341.334-.453.079-.359-.821-1.088-1-1.839-1.17-.072-.016-.13-.089-.2-.135,0-.192-.268-.28-.191-.521a1.384,1.384,0,0,1-1.366.612c-.5-.023-.613-.211-.513-.706a.282.282,0,0,0-.094-.33c-.2.55-.512.842-1.12.515-.488-.263-.408-.642-.234-1.175-.369.279-.2.775-.632.83a3.838,3.838,0,0,1-.9.023l-.139-.12a1.077,1.077,0,0,1-.256-1.507,3.56,3.56,0,0,1,1.875-1.315,8.869,8.869,0,0,1,1.961-.5l.853-.036c.038-.022.1-.035.108-.018.171.663.5.277.8.129a.112.112,0,0,1,.149.049c.161.183.427.043.6.2a6.583,6.583,0,0,0,1.591.764,3.059,3.059,0,0,1,1.5,2.777.814.814,0,0,1-.134.585c-.057-.049-.093-.025-.146.02-.465.395-.521.382-.85-.228a2.123,2.123,0,0,1-.134.933.462.462,0,0,1-.244.246" transform="translate(-54.382 -0.295)" fill="#d48e7e"/>
        <path id="Path_3870" data-name="Path 3870" d="M60.584,39.309a3.212,3.212,0,0,0,.286,1.053c.057.227.147.465-.1.6a.467.467,0,0,1-.686-.183c-.167-.29-.312-.346-.6-.084a4.651,4.651,0,0,1-6.085.218A1.131,1.131,0,0,1,52.586,40a2.619,2.619,0,0,1,.164-1.806,1.631,1.631,0,0,1,2.09-.812,3.047,3.047,0,0,1,.763.4c.291.206.508.5.8.7.234.332.6.32.948.359a2.744,2.744,0,0,0,1.928.035,1.1,1.1,0,0,1,1.3.433" transform="translate(-25.454 -18.074)" fill="#f8b8a1"/>
        <path id="Path_3871" data-name="Path 3871" d="M81.817,5.832c-.009-.05-.017-.1-.025-.15A3.562,3.562,0,0,1,85.513,4.2a4.393,4.393,0,0,1,2.922,1.646.948.948,0,0,1,.14,1.08,1.017,1.017,0,0,0-.628.6,1.5,1.5,0,0,1-1.832.645,1.929,1.929,0,0,1-.8-.847c-.038.3.135.641-.262.8a1.444,1.444,0,0,1-1.3-.01c-.234-.127-.117-.365-.153-.555-.015-.082-.035-.169-.115-.2s-.151.021-.209.084c-.563.623-.646.624-1.237.006a1.345,1.345,0,0,1-.168-.179,2.567,2.567,0,0,1-.057-1.439" transform="translate(-39.632 -2.005)" fill="#d48e7e"/>
        <path id="Path_3872" data-name="Path 3872" d="M91.976,34.957a1.8,1.8,0,0,1,.272-2.09,3.106,3.106,0,0,1,2.443-1.489,4.451,4.451,0,0,1,.489,2.852,5.062,5.062,0,0,0,.589,2.341c.184.453.428.882.633,1.326.234.508.1.846-.436.971a10.754,10.754,0,0,1-1.334.177c-.136.014-.3.031-.384-.124a.312.312,0,0,1,.11-.433c.213-.144.23-.293.019-.423a7.481,7.481,0,0,1-2.4-3.109" transform="translate(-44.491 -15.214)" fill="#f8b8a1"/>
        <path id="Path_3873" data-name="Path 3873" d="M113.931,18.1a.937.937,0,0,1,.642.314A2.14,2.14,0,0,0,118,18.069a.557.557,0,0,1,.154-.1c.06.328.365.288.574.355,1,.32,2.257,1.61,2.009,2.6-.787-.254-1.376.16-1.309.924.025.284.117.595-.233.748-.382.167-.62-.052-.816-.347a1.553,1.553,0,0,0-1.422-.682c-.451.018-.815-.126-.917-.62-.083-.4-.248-.71-.708-.692a.824.824,0,0,0-.864.782,1.518,1.518,0,0,1-.038.179c-.241.381.031.542.3.7a.382.382,0,0,1-.056.346.875.875,0,0,1-.688.534c-.742.084-.988-.141-.913-.879.1-.945-.322-1.288-1.238-1.017a2.77,2.77,0,0,1,1.725-2.515c.144-.077.305-.128.373-.3" transform="translate(-54.224 -8.715)" fill="rgba(215,210,181,0.6)"/>
        <path id="Path_3874" data-name="Path 3874" d="M42.9,21.814c-.1,1.518-.847,2-1.953,1.887a1.455,1.455,0,0,1-.8-.376c-.1-.177-.057-.394-.18-.7-.08.348.012.642-.3.788a1.2,1.2,0,0,1-.821.039,2.912,2.912,0,0,1-.674-.26l0,0a.228.228,0,0,1,.047-.224c.089-.143.308-.307.074-.451-.178-.11-.273.108-.348.247-.2.372-.46.258-.709.079a1.636,1.636,0,0,1-.521-1.864l-.015-.135a3.725,3.725,0,0,1,6.2.967" transform="translate(-17.763 -9.494)" fill="#d48e7e"/>
        <path id="Path_3875" data-name="Path 3875" d="M54.733,35.174a4.384,4.384,0,0,0-1.11-.5c-1.517-.229-2.035,1.242-1.807,2.419a1.61,1.61,0,0,0,.687,1.043,2.622,2.622,0,0,1-1.844-.5,5.848,5.848,0,0,1,.4-1.748,10.571,10.571,0,0,1,.409-1.388c-.171.142-.285.316-.456.171a7.369,7.369,0,0,1,.327-1.983c.038-.222.131-.437-.065-.63l.619-.351c.34.427-.2.749-.13,1.117.241-1.01.437-1.145,1.454-1.262a5.264,5.264,0,0,1,2.128.4c.455.21.56.763.984,1a3.985,3.985,0,0,1,.421,2.23.873.873,0,0,1-.415.826c-.458.573-.618,0-.867-.226-.412-.5-.554-1.171-1.142-1.565a2.569,2.569,0,0,0-1.769-.678A2.781,2.781,0,0,1,54.785,34.7c.2.208.182.225-.052.473" transform="translate(-24.558 -15.297)" fill="#c8bea1"/>
        <path id="Path_3876" data-name="Path 3876" d="M80.344,33.774c.435.056.53.483.764.741a4.741,4.741,0,0,0,1.819,1.206c.213.084.4.127.27.41A2.007,2.007,0,0,0,82.3,38.25a1.552,1.552,0,0,1-1.343,1.58,5.536,5.536,0,0,1-1.28.132c-.176-.008-.331-.041-.4-.219a.33.33,0,0,1,.164-.422c.554-.313.422-.718.252-1.2a4.428,4.428,0,0,1,.651-4.344" transform="translate(-38.426 -16.376)" fill="#f8b8a1"/>
        <path id="Path_3877" data-name="Path 3877" d="M120.673,32.243c-.1-.513-.308-.581-.846-.418a11.637,11.637,0,0,1-5.774,0c-.139-.028-.278-.053-.417-.079-.312-.471.01-1-.126-1.483a3.164,3.164,0,0,1,2.46-.382c.751.24,1.427-.145,2.137-.256a2.838,2.838,0,0,1,1.713.214c.352.2.771-.068,1.108.181a.674.674,0,0,0-.253.642c.012.526,0,1.052,0,1.579" transform="translate(-55.03 -14.347)" fill="rgba(215,210,181,0.6)"/>
        <path id="Path_3878" data-name="Path 3878" d="M61.521,37.356a3.064,3.064,0,0,0-.084-2.768c-.049-.094-.223-.269.078-.288a12.764,12.764,0,0,1,1.071,1,1.557,1.557,0,0,0,1.177.563c.818.029,1.632.037,2.449.124a.8.8,0,0,1,.816.569c.082.228.172.456.241.689s.154.508-.1.673-.4-.105-.559-.241a.634.634,0,0,0-.682-.121c-.346.122-.706.206-1.059.307a1.738,1.738,0,0,0-1.663-.172,4.234,4.234,0,0,1-1.4.04c-.264,0-.278-.186-.288-.378" transform="translate(-29.743 -16.631)" fill="#f7a68e"/>
        <path id="Path_3879" data-name="Path 3879" d="M114.822,26.766a2.078,2.078,0,0,0-1.745.164,1.832,1.832,0,0,1-.712.075,1.9,1.9,0,0,1-1.192-2.36c.07-.459.211-.907.32-1.36.2-.064.086-.566.423-.375.382.216.967.2,1.061.8a1.21,1.21,0,0,1-.025.366c-.052.322-.317.754.109.91a.813.813,0,0,0,1.159-.438.724.724,0,0,1,.759.863c-.019.457.117.929-.157,1.356" transform="translate(-53.884 -11.087)" fill="#f8b8a1"/>
        <path id="Path_3880" data-name="Path 3880" d="M125.1,26.818a2.248,2.248,0,0,1-1.579-.186,3.466,3.466,0,0,0-1.266-.086c-.313-.526-.053-1.075-.038-1.608.01-.334.336-.361.619-.353.218.006.431.174.654.021.14.233.294.439.617.331.339-.114.128-.358.145-.556.023-.265-.231-.582-.048-.753a3.907,3.907,0,0,1,1.034-.611c.3-.141.335.2.474.344a6.041,6.041,0,0,1,.248,1.938,1.652,1.652,0,0,1-.859,1.52" transform="translate(-59.203 -11.143)" fill="#f8b9a1"/>
        <path id="Path_3881" data-name="Path 3881" d="M115.593,44.453a3.064,3.064,0,0,1,.008.307c-.03.447.147.937-.433,1.229a2.092,2.092,0,0,1-1.89-.01.506.506,0,0,1-.052-.912,1.747,1.747,0,0,0,.756-1.226.86.86,0,0,0,1.079.574.878.878,0,0,1,.531.039" transform="translate(-54.773 -21.256)" fill="#d48e7e"/>
        <path id="Path_3882" data-name="Path 3882" d="M124.943,45.089c.527.14,1.046.4.973,1-.082.675-.728.6-1.231.605a4.012,4.012,0,0,1-.785-.125.612.612,0,0,1-.557-.741c.024-.244.009-.492.012-.739a1.639,1.639,0,0,1,1.587,0" transform="translate(-59.802 -21.762)" fill="#d48e7e"/>
        <path id="Path_3883" data-name="Path 3883" d="M71.285,20.637a1.439,1.439,0,0,1,.235,1.386c-.1.224-.228.371-.49.354-.648.071-.749-.7-1.275-.859a1.5,1.5,0,0,1,.329-.814c.118-.125.518-.382.568-.223.158.5.558-.347.634.156" transform="translate(-33.817 -9.906)" fill="#f8b8a2"/>
        <path id="Path_3884" data-name="Path 3884" d="M79.869,24.943c-.022-.16-.033-.323-.066-.481a.757.757,0,0,1,.162-.676c.182-.18.351.1.524.181.31.141.74.11.8.609.033.264.145.549-.012.765-.19.261-.446-.031-.675-.021a.815.815,0,0,1-.736-.377" transform="translate(-38.684 -11.504)" fill="#f7baa1"/>
        <path id="Path_3885" data-name="Path 3885" d="M35.949,29.608c.144.941-.161,1.271-1.242,1.342a1.47,1.47,0,0,1-.1-.87c.032-.05.1-.1.092-.15-.053-.461.066-.719.6-.6.118.026.265-.072.4-.112a.469.469,0,0,1,.251.388" transform="translate(-16.77 -14.168)" fill="#f7ac98"/>
        <path id="Path_3886" data-name="Path 3886" d="M113.07,13.164a2.9,2.9,0,0,0,.108-.275c.065-.233-.155-.58.21-.687a.655.655,0,0,1,.771.235.838.838,0,0,1,.145.964c-.331.576-.78.592-1.211.02-.007-.086-.015-.172-.023-.257" transform="translate(-54.824 -5.898)" fill="#f6ab97"/>
        <path id="Path_3887" data-name="Path 3887" d="M50.321,37.1c.133-.012.232-.061.256-.211s.043-.393.251-.33.129.309.084.474c-.171.619-.4,1.227-.521,1.854-.083.424-.345.764-.427,1.177-.249-.034-.523.092-.745-.115.387.026.606-.028.649-.539a19.463,19.463,0,0,1,.453-2.311" transform="translate(-23.865 -17.719)" fill="#c8bea1"/>
        <path id="Path_3888" data-name="Path 3888" d="M124.959,44.359l-1.587,0q0-.363,0-.726l1.6-.252-.011.981" transform="translate(-59.819 -21.032)" fill="#f5b8a2"/>
        <path id="Path_3889" data-name="Path 3889" d="M1.5,29.208c.275.253.026.468-.082.652a6.546,6.546,0,0,0-1.15,3.552c.006.211-.122.164-.245.126A6.487,6.487,0,0,1,1.5,29.208" transform="translate(0 -14.162)" fill="#705225"/>
        <path id="Path_3890" data-name="Path 3890" d="M116.551,44.23a2,2,0,0,1-1.37.1c-.407-.058-.145-.477-.24-.717l.017-.236c.507.237,1.09-.016,1.593.244,0,.2,0,.4,0,.605" transform="translate(-55.731 -21.034)" fill="#f5b9a2"/>
        <path id="Path_3891" data-name="Path 3891" d="M56.2,31.8c-.091.22-.206.186-.374.065a3.333,3.333,0,0,0-2.316-.284c-.533.029-.631.567-.752.987-.067.232-.066.478-.345.646-.066-.616.389-1.094.335-1.666a1.546,1.546,0,0,0,.59-.11A2.912,2.912,0,0,1,56.2,31.8" transform="translate(-25.409 -15.132)" fill="#c8bea1"/>
        <path id="Path_3892" data-name="Path 3892" d="M3.133,43.373a3.116,3.116,0,0,1,.947.515,5.3,5.3,0,0,0,3.317.734,1.128,1.128,0,0,1,.94.109,6.008,6.008,0,0,1-4.985-1.006.5.5,0,0,1-.219-.352" transform="translate(-1.519 -21.03)" fill="#705225"/>
        <path id="Path_3893" data-name="Path 3893" d="M127.931,10.55l.12-.257a1.03,1.03,0,0,1,1.106-.478.725.725,0,0,0,.13.479c.007.253-.04.351-.356.288-.363-.072-.741-.022-.54.555.092.264,0,.476-.367.511a1.273,1.273,0,0,0-.092-1.1" transform="translate(-62.029 -4.757)" fill="#f39f8f"/>
        <path id="Path_3894" data-name="Path 3894" d="M116.371.72c-.844.341-1.75.489-2.585.879-.5.233-.769.713-1.25.934.217-.708.82-.98,1.421-1.248A5.023,5.023,0,0,1,116.371.72" transform="translate(-54.565 -0.345)" fill="#b4756f"/>
        <path id="Path_3895" data-name="Path 3895" d="M95.586,13.049c-.027.232-.159.247-.349.182-.475-.161-.522.133-.5.486.009.166.2.415-.058.47-.325.069-.211-.292-.255-.44-.171-.571.177-.836,1.04-.832l.125.133" transform="translate(-45.761 -6.262)" fill="#f39a8a"/>
        <path id="Path_3896" data-name="Path 3896" d="M129.269,9.158a2.753,2.753,0,0,0-1.106.478c.031-.24.182-.464.106-.718-.052-.175-.163-.4.1-.455s.314.2.346.4c.011.074-.057.16.05.229a.692.692,0,0,0,.5-.277c.156-.171.111.055.157.1l-.149.237" transform="translate(-62.142 -4.099)" fill="#b97268"/>
        <path id="Path_3897" data-name="Path 3897" d="M122.514.5c-.02,0-.048,0-.059.008-.417.436-.757.418-1-.168-.027-.122-.218-.138-.19-.3.032-.014.082-.05.1-.04a1.24,1.24,0,0,0,1.253.353c.03-.011.21-.036.078.1-.035.037-.116.028-.176.041" transform="translate(-58.795 0)" fill="#b07771"/>
        <path id="Path_3898" data-name="Path 3898" d="M126.444,2.113a2.316,2.316,0,0,1-1.591-.764,4.271,4.271,0,0,1,1.591.764" transform="translate(-60.537 -0.654)" fill="#b17671"/>
        <path id="Path_3899" data-name="Path 3899" d="M9.664,39.584c-1.009.84-3.889,1.608-7.185,1.462.062-.078.107-.188.156-.19a18.54,18.54,0,0,0,7.029-1.273" transform="translate(-1.202 -19.193)" fill="#705225"/>
        <path id="Path_3900" data-name="Path 3900" d="M18.5,26.264c.33-.458.823-.773,1.112-1.269a.538.538,0,0,1,.538-.207,1.238,1.238,0,0,0,.705-.123,3.583,3.583,0,0,1-1.167,2.71l-.159-.075c.233-.4.448-.814.7-1.2a3.226,3.226,0,0,0,.353-.841.218.218,0,0,0-.067-.274c-.111-.061-.192.027-.247.115A2.845,2.845,0,0,1,18.5,26.264" transform="translate(-8.971 -11.959)" fill="#705225"/>
        <path id="Path_3901" data-name="Path 3901" d="M10.846,27.769a11.529,11.529,0,0,0,2.2.513c.368.01.244.219.03.363-.02-.169-.108-.265-.284-.241a2.005,2.005,0,0,0-.292.081c-1.328.392-.929.544-1.651-.717" transform="translate(-5.259 -13.464)" fill="#705225"/>
        <path id="Path_3902" data-name="Path 3902" d="M44.486,31.784c-.145.106-.251.294-.455.281-.72-.044-1.111.475-1.535.908a4.623,4.623,0,0,1-3.553,1.1c-.175,0-.352-.161-.525-.3a4.735,4.735,0,0,0,2.685-.234,3.246,3.246,0,0,0,1.369-.9c.4-.446.756-.87,1.425-.748.217.04.336-.377.589-.113v0" transform="translate(-18.628 -15.369)" fill="#f1988a"/>
        <path id="Path_3903" data-name="Path 3903" d="M39.327,31.387c.387-.038.642.055.629.522-.012.435-.149.7-.636.71-.679.009-.5-.563-.562-.9-.071-.4.32-.316.569-.337" transform="translate(-18.788 -15.215)" fill="#f38070"/>
        <path id="Path_3904" data-name="Path 3904" d="M36.626,22.3c.177.142.045.29.016.443a1.486,1.486,0,0,0,.713,1.444c.179.089.334.084.354-.148a.508.508,0,0,1,.474-.475.3.3,0,0,1,.326.228c.09.305-.11.486-.345.634a.465.465,0,0,0-.082.088A1.471,1.471,0,0,1,36.626,22.3" transform="translate(-17.677 -10.812)" fill="#bb7469"/>
        <path id="Path_3905" data-name="Path 3905" d="M39.617,25.9a3.055,3.055,0,0,1,.876.22c.483.1.7-.116.634-.6-.024-.171-.028-.341.205-.359.211-.016.376.075.371.3a3.193,3.193,0,0,1-.112.567,1.518,1.518,0,0,1-1.974-.133" transform="translate(-19.209 -12.2)" fill="#bb7468"/>
        <path id="Path_3906" data-name="Path 3906" d="M37,29.167a.528.528,0,0,1-.251-.388c.054-.213.055-.476.376-.468a.245.245,0,0,1,.234.244c.032.287-.022.535-.359.612" transform="translate(-17.816 -13.727)" fill="#89544c"/>
        <path id="Path_3907" data-name="Path 3907" d="M42.06,29.6c.006-.229.086-.406.347-.406.22,0,.251.168.252.342,0,.221-.06.438-.305.453-.225.013-.284-.19-.294-.389" transform="translate(-20.393 -14.155)" fill="#89594f"/>
        <path id="Path_3908" data-name="Path 3908" d="M46.518,39.693a3.221,3.221,0,0,1-.449,1.2c-.06.118-.147.232-.279.163-.163-.087-.058-.21.026-.293.3-.3.273-.808.7-1.07" transform="translate(-22.161 -19.245)" fill="#f29788"/>
        <path id="Path_3909" data-name="Path 3909" d="M84.768,21.594c-.07-.161-.14-.323-.236-.546a5.518,5.518,0,0,0,2.34-.121c.167-.047.215.049.234.185a1.708,1.708,0,0,1-2.338.482" transform="translate(-40.987 -10.141)" fill="#f5a08b"/>
        <path id="Path_3910" data-name="Path 3910" d="M13.711,16.38a.439.439,0,0,1,.173.533c-.095.258.055.336.28.324s.424-.052.352-.356c-.041-.173-.149-.364.094-.472a.211.211,0,0,1,.276.065.559.559,0,0,1,.007.586c-.362.524-.856.283-1.334.208-.5-.078-.339-.446-.333-.711.01-.383.228-.38.486-.176-.1.094-.208.184-.121.354.025-.129,0-.268.12-.355" transform="translate(-6.399 -7.876)" fill="#db9984"/>
        <path id="Path_3911" data-name="Path 3911" d="M13.394,24.636c0,.3-.138.452-.412.426a.422.422,0,0,1-.426-.428.4.4,0,0,1,.438-.4c.232.017.425.141.4.4" transform="translate(-6.088 -11.748)" fill="#f08073"/>
        <path id="Path_3912" data-name="Path 3912" d="M22.508,21.8c-.507-.04-.917-.041-.728.644.037.134-.065.277-.323.268.227-.36-.3-.862.278-1.122a.571.571,0,0,1,.773.211" transform="translate(-10.402 -10.432)" fill="#f1998a"/>
        <path id="Path_3913" data-name="Path 3913" d="M15.291,21.62a1.225,1.225,0,0,0,1.381.026c-.54.614-.992.589-1.381-.026" transform="translate(-7.414 -10.483)" fill="#aa6e5c"/>
        <path id="Path_3914" data-name="Path 3914" d="M10.033,20.985c.44.377.777.625,1.193.127-.056.427-.284.538-.554.526-.288-.013-.54-.13-.639-.654" transform="translate(-4.865 -10.175)" fill="#a87060"/>
        <path id="Path_3915" data-name="Path 3915" d="M113.3,6.436c.183-.006.334-.143.535-.105.363.069.6-.033.573-.47-.018-.3.179-.512.447-.441s.13.333.046.514-.193.372,0,.558a1.114,1.114,0,0,0,.785.288c.244,0,.1-.214.142-.327.09-.228.194-.54.482-.449s.261.432.124.633c-.308.454.033.481.316.525a.97.97,0,0,0,1.234-.75c.028-.075.031-.174.136-.173s.23.108.2.185c-.112.266.163.506.025.761-.159-.095-.356-.242-.483-.026s.237.149.257.351c-.445.2-.916-.08-1.269-.172a4.868,4.868,0,0,1-2.179-.713.506.506,0,0,0-.5-.111.973.973,0,0,1-.876-.079" transform="translate(-54.936 -2.621)" fill="#ba7267"/>
        <path id="Path_3916" data-name="Path 3916" d="M118.963,14.458c-.007.639-.26.914-.763.869s-.6-.4-.607-.836c0-.59.384-.606.829-.643.589-.048.569.3.541.61" transform="translate(-57.017 -6.712)" fill="#f4806f"/>
        <path id="Path_3917" data-name="Path 3917" d="M115.44,11.029c-.061-.287.109-.415.358-.434.284-.022.316.227.325.418.01.226-.056.472-.345.475s-.379-.188-.337-.459" transform="translate(-55.967 -5.136)" fill="#7d4d46"/>
        <path id="Path_3918" data-name="Path 3918" d="M122.118,11.666c-.024.245-.046.472-.333.45-.267-.021-.3-.233-.3-.453,0-.236.086-.414.342-.413.3,0,.251.26.287.416" transform="translate(-58.906 -5.454)" fill="#815145"/>
        <path id="Path_3919" data-name="Path 3919" d="M115.522,8.812c.22-.286.4-.219.684-.052a.858.858,0,0,1-.684.052" transform="translate(-56.013 -4.177)" fill="#c07a6c"/>
        <path id="Path_3920" data-name="Path 3920" d="M81.993,10.044c.249,0,.279.283.471.362.29.117.639.485.668-.227a.382.382,0,0,1,.432-.355c.268.03.276.255.283.469s-.164.471.24.563a1.4,1.4,0,0,0,1.114-.173c.2-.13.006-.278-.059-.419-.08-.174-.135-.378.123-.447.2-.055.41.043.411.257,0,.467.29.619.669.709.086.02.181.058.019.118a.739.739,0,0,1-.183.019,1.307,1.307,0,0,0-1.1.084,1.113,1.113,0,0,1-1.122.044c-.6-.358-1.464-.036-1.919-.749l-.163-.254c.039-.061.079-.059.118,0" transform="translate(-39.698 -4.752)" fill="#bd7669"/>
        <path id="Path_3921" data-name="Path 3921" d="M85.315,18.272c-.445-.1-.835-.129-.965-.567a.834.834,0,0,1-.066-.233c0-.31.179-.592.47-.492.453.155,1.269-.577,1.348.505a.876.876,0,0,1-.787.787" transform="translate(-40.866 -8.184)" fill="#f4836f"/>
        <path id="Path_3922" data-name="Path 3922" d="M88.556,14.531c-.593-.23-.593-.23-1.085.117a.393.393,0,0,1,.334-.531c.29-.064.613-.078.751.414" transform="translate(-42.4 -6.829)" fill="#a56e5f"/>
        <path id="Path_3923" data-name="Path 3923" d="M83.044,14.643c-.486-.3-.837-.316-1.115.085a.375.375,0,0,1,.274-.554c.308-.087.584.006.841.469" transform="translate(-39.704 -6.858)" fill="#9c6759"/>
        <path id="Path_3924" data-name="Path 3924" d="M81.847,8.894h-.118a1.777,1.777,0,0,1,.007-1.464c.114.482-.111.99.111,1.464" transform="translate(-39.552 -3.602)" fill="#b77162"/>
        <path id="Path_3925" data-name="Path 3925" d="M55.861,36.941c.216-.19.067-.283-.079-.431a2.884,2.884,0,0,0-2.554-1.063.932.932,0,0,1-.252-.042c1.068-.686,3.278.363,3.621,2.157-.347-.088-.5-.406-.737-.621" transform="translate(-25.686 -17.064)" fill="#c8bea1"/>
        <path id="Path_3926" data-name="Path 3926" d="M120.829,24.138c-.053.219-.1.423-.4.21a.522.522,0,0,0-.676-.018c-.143.148-.1.429-.09.669a8.478,8.478,0,0,1-.072,1.08,3.076,3.076,0,0,1-2.115.275c-.073-.5.05-1.006-.032-1.522-.054-.342-.095-.506-.452-.5-.039,0-.079-.125-.118-.192a.252.252,0,0,0,.106-.247c.322-.522.322-.522-.37-.637.041-.781.268-1.1.871-1.216a.8.8,0,0,1,1,.721c.039.523.323.663.779.635a1.522,1.522,0,0,1,1.565.747" transform="translate(-56.542 -10.675)" fill="#fdcd6c"/>
        <path id="Path_3927" data-name="Path 3927" d="M116.51,19.29c1.012.971,2.179.929,3.527.437-.967,1.021-3.115.7-3.527-.437" transform="translate(-56.492 -9.353)" fill="#f9dac3"/>
        <path id="Path_3928" data-name="Path 3928" d="M116.424,24.283c.019-.006.039-.011.058-.019.269-.105.595-.236.756.081.2.393-.238.422-.444.575-.674-.064-.691-.093-.37-.637" transform="translate(-56.352 -11.707)" fill="#f49f64"/>
        <path id="Path_3929" data-name="Path 3929" d="M119.284,33.331a8.959,8.959,0,0,1-4.847-.3,18.808,18.808,0,0,0,4.847.3" transform="translate(-55.487 -16.013)" fill="#fad7c3"/>
        <path id="Path_3930" data-name="Path 3930" d="M13.868,16.508c-.035.171.064.362-.069.523-.384-.368-.384-.368.07-.522h0" transform="translate(-6.555 -8.004)" fill="#f8b8a1"/>
      </g>
    </g>
    <g id="Group_10" data-name="Group 10" transform="translate(186.453 135.091)">
      <g id="Group_11" data-name="Group 11" transform="translate(0 10.595)">
        <path id="Path_3931" data-name="Path 3931" d="M5.5,68.45c-1.747-.15-1.682-1.88-2.411-2.875C1.506,63.413.11,61.106.045,58.282c.84-1.04.312-2.289.5-3.433a25.782,25.782,0,0,1,3.128-8.165A9.732,9.732,0,0,0,5.107,43.45c3.043-3.442,3.733-7.876,5.142-12.02,1.027-3.022,1.889-6.188,4.647-8.259,1.064,2.429.542,4.97.374,7.443a11.152,11.152,0,0,0,.4,5.173c.484,1.183.4,2.092-1.232,2.083a4.843,4.843,0,0,0-2.678,1.135,3.293,3.293,0,0,0,.289,5.927c2.284,1.227,3.827.332,3.931-2.273a9.3,9.3,0,0,0-.454-3.32c-.157-.471-.228-1.029.282-1.327.4-.233.815.055,1.151.3a9.529,9.529,0,0,1,2.5,2.229,7.091,7.091,0,0,1,.718,1.258c.687,1.7,1.781,1.989,3.479,1.384,1.138-.406,2.662-1.509,3.46.616a10.493,10.493,0,0,1-.56,2.672c-.323,1.829.321,2.665,2.183,2.782a3.755,3.755,0,0,0,3.816-1.73c.884-1.46.325-2.7-.5-3.92-.794-1.167-1.684-2.326.362-3.163,2.15-.713,4.217-1.534,5.623-3.477.4-.551.978-1.225,1.749-.7.674.462.5,1.274.277,1.949a46.836,46.836,0,0,1-2.55,5.018c1.447-2.478,3.071-4.894,2.874-7.964a5.211,5.211,0,0,1,.914-1.144c1.416-1.746,1.3-3.407-.528-4.663a3.14,3.14,0,0,1-1.488-2.785C39.113,20.695,36.4,16.563,30.5,14.8c-.542-.161-1.08-.351-1.251-.992,2.227-1.707,4.174-3.865,7.549-3.02a5.184,5.184,0,0,1,3.518,3.054c1.071,2.305,2.438,4.526,2.556,7.253.092,2.125,1.322,4.023,1.867,6.107a42.661,42.661,0,0,1-1.619,26.34A39.146,39.146,0,0,1,34.294,67.6c-2.866,2.888-6.451,5.39-10.966,5.5-2.282-.409-4.533.367-6.847.069A20.2,20.2,0,0,1,5.5,68.45" transform="translate(0.035 -10.595)" fill="#705225"/>
        <path id="Path_3934" data-name="Path 3934" d="M28.6,39.517c-1.419.288-1.3.9-.508,1.871,1.262,1.544,2.36,3.14.847,5.225a4.976,4.976,0,0,1-5.835,1.529,2.128,2.128,0,0,1-1.244-2.593c.229-1.022.567-2.019.856-3.029.54-1.417-.584-1.075-1.209-1.059a10.384,10.384,0,0,1-6.421-1.942l-3.523-3.158c.595,1.852,1.2,3.1,1,4.513-.2,1.4.342,3.121-1.585,3.7a4.7,4.7,0,0,1-4.967-1.991c-1.327-2.106-.761-4.1,1.44-5.459,1.237-.763,2.312-1.883,4.323-.9-2.5-4.981-.337-9.766-.9-14.445,1.461-2.542,3.011-5,5.585-6.612,2.457-1.536,5.027-2.655,8.024-2.39.237.021.5-.237.745-.365,3.091.812,5.954,2.088,7.992,4.635a13.365,13.365,0,0,1,2.642,8.227c.021.7-.267,1.412.621,2.026,3.248,2.247,3.258,4.153.191,6.737-.235.157.132.122-.129.155-3.539.454-5.26,3.6-7.941,5.323" transform="translate(4.057 -9.204)" fill="#f8b8a1"/>
        <path id="Path_3958" data-name="Path 3958" d="M5.142,29.208c.941.867.09,1.6-.282,2.233C2.627,35.209.787,39.085.92,43.611c.021.724-.418.563-.84.431-.574-5.715,2.033-10.347,5.062-14.833" transform="translate(0 3.646)" fill="#705225"/>
        <path id="Path_3961" data-name="Path 3961" d="M3.133,43.373c1.274.224,2.176,1.163,3.244,1.763a18.151,18.151,0,0,0,11.367,2.515c1.038-.124,2.235-.455,3.221.372-6.158,1.154-11.941.459-17.082-3.445a1.722,1.722,0,0,1-.75-1.206" transform="translate(2.397 14.482)" fill="#705225"/>
        <path id="Path_3968" data-name="Path 3968" d="M27.1,39.584c-3.458,2.877-13.324,5.51-24.617,5.011.212-.268.367-.644.533-.65,8.236-.254,16.385-.98,24.084-4.361" transform="translate(1.897 11.584)" fill="#705225"/>
        <path id="Path_3969" data-name="Path 3969" d="M18.5,30.144c1.13-1.571,2.819-2.648,3.811-4.349a1.842,1.842,0,0,1,1.843-.71,4.241,4.241,0,0,0,2.416-.42c.274,3.85-1.642,6.67-4,9.286l-.544-.256c.8-1.375,1.534-2.791,2.415-4.109a11.054,11.054,0,0,0,1.211-2.881.746.746,0,0,0-.231-.939c-.381-.208-.658.094-.847.4-1.41,2.266-3.64,3.281-6.075,3.982" transform="translate(14.156 0.17)" fill="#705225"/>
        <path id="Path_3970" data-name="Path 3970" d="M10.846,27.769c2.512.561,4.872,1.68,7.526,1.756,1.262.035.835.752.1,1.244-.067-.579-.369-.907-.973-.824a6.871,6.871,0,0,0-1,.279c-4.55,1.343-3.182,1.866-5.657-2.455" transform="translate(8.298 2.545)" fill="#705225"/>
        <path id="Path_3979" data-name="Path 3979" d="M14.961,16.711a1.5,1.5,0,0,1,.593,1.825c-.325.884.189,1.151.958,1.11.754-.039,1.454-.178,1.207-1.221-.141-.593-.51-1.248.321-1.617a.721.721,0,0,1,.944.224,1.915,1.915,0,0,1,.023,2.009c-1.239,1.8-2.934.971-4.57.713-1.71-.268-1.163-1.527-1.14-2.438.034-1.313.78-1.3,1.666-.6-.337.323-.711.632-.413,1.214.085-.441,0-.92.409-1.218" transform="translate(10.096 -6.273)" fill="#db9984"/>
        <path id="Path_3980" data-name="Path 3980" d="M15.426,25.621c-.016,1.018-.473,1.55-1.41,1.46a1.447,1.447,0,0,1-1.458-1.465,1.359,1.359,0,0,1,1.5-1.38c.8.058,1.456.482,1.366,1.386" transform="translate(9.607 -0.163)" fill="#f08073"/>
        <path id="Path_3981" data-name="Path 3981" d="M25.065,22.479c-1.737-.136-3.144-.141-2.5,2.206.125.459-.224.95-1.107.918.777-1.234-1.013-2.953.953-3.846a1.955,1.955,0,0,1,2.649.722" transform="translate(16.414 -2.24)" fill="#f1998a"/>
        <path id="Path_3982" data-name="Path 3982" d="M15.291,21.62a4.2,4.2,0,0,0,4.73.09c-1.85,2.1-3.4,2.017-4.73-.09" transform="translate(11.699 -2.16)" fill="#aa6e5c"/>
        <path id="Path_3983" data-name="Path 3983" d="M10.033,20.985c1.509,1.292,2.662,2.141,4.086.436-.191,1.461-.974,1.844-1.9,1.8-.988-.044-1.852-.447-2.189-2.24" transform="translate(7.676 -2.645)" fill="#a87060"/>
        <path id="Path_3999" data-name="Path 3999" d="M14.714,16.508c-.12.586.221,1.239-.235,1.793-1.317-1.262-1.317-1.262.238-1.79l0,0" transform="translate(10.343 -6.071)" fill="#f8b8a1"/>
      </g>
    </g>
    <text id="_" data-name=" " transform="translate(130 319)" fill="#d7d2b5" font-size="10" font-family="IBMPlexSansArabic-Light, IBM Plex Sans Arabic" font-weight="300"><tspan x="0" y="0"> </tspan></text>
  </g>
</svg>
