<svg xmlns="http://www.w3.org/2000/svg" xmlns:xlink="http://www.w3.org/1999/xlink" width="217" height="212" viewBox="0 0 217 212">
  <defs>
    <clipPath id="clip-path">
      <rect id="Rectangle_110" data-name="Rectangle 110" width="217" height="208.307" fill="none"/>
    </clipPath>
    <clipPath id="clip-path-2">
      <rect id="Rectangle_113" data-name="Rectangle 113" width="67.52" height="24.954" fill="rgba(112,82,37,0.26)"/>
    </clipPath>
  </defs>
  <g id="Group_1269" data-name="Group 1269" transform="translate(-79 -145.686)">
    <g id="Group_2" data-name="Group 2" transform="translate(79 149.378)">
      <g id="Group_1" data-name="Group 1" transform="translate(0 0)" clip-path="url(#clip-path)">
        <path id="Path_3664" data-name="Path 3664" d="M129.714,123.973c-.345,7.369-.765,14.735-.989,22.107-.064,2.1-.684,3-2.829,2.654a7.482,7.482,0,0,0-1.645.1c-2.776,1.324-5.68.612-8.53.463-1.091-.059-2.182-.273-3.292-.277-3.574-.009-3.636-.079-3.742-3.747,0-3.467.468-6.911.554-10.373.727-2.843.289-5.762.525-8.644.466-5.694.653-11.418,1.02-17.123.49-7.6.658-15.231,1.761-22.783-2.08,15.377-5.15,30.592-7.707,45.892-.857,4.452-1.6,8.924-2.353,13.4-.582,3.441-1.06,3.821-4.606,3.812q-5.213.13-10.426.009-2.057.062-4.116.005c-2.568-.071-3.15-.792-2.63-3.349.423-2.079,1-4.125,1.513-6.183q4.47-19.9,9.084-39.776C92.68,94.234,93.989,88.3,95.417,82.4c2.061-9.37,4.225-18.715,6.419-28.054a3.222,3.222,0,0,1,.838-1.856,5.994,5.994,0,0,1,3.449.05c5.042.795,9.986,0,14.939-.764a7.124,7.124,0,0,1,2.435-.283c1,.3,1.248,1.206,1.595,2.017.919,2.152,1.7,4.355,2.447,6.571,1.318,4.065,2.225,8.28,4.39,12.042a12.936,12.936,0,0,1,.384,6.144c-.6,4.6-.431,9.222-.622,13.82-.338,8.114-1.018,16.219-.965,24.348.017,2.565-.751,5.017-1.013,7.54" transform="translate(56.12 37.463)" fill="#373b5d"/>
        <path id="Path_3665" data-name="Path 3665" d="M181.07,112a15.944,15.944,0,0,0,5.065.772,122.7,122.7,0,0,1,21.539,3.389,17.674,17.674,0,0,1,3.276,1.244,2.922,2.922,0,0,1,1.936,2.494,3.139,3.139,0,0,1-1.974,2.483,9.483,9.483,0,0,1-.956.394c-4.229,1.777-8.738,2.343-13.224,2.876-9.153,1.085-18.314,2.01-27.557,2.195-6.329.128-12.66.712-19,.724q-23.252.047-46.508-.005c-6.281-.019-12.561-.309-18.838-.487-7.3-.209-14.608-.46-21.907-.79-8.383-.379-16.755-1.016-25.124-1.644-6.1-.456-12.2-.942-18.267-1.675-4.485-.541-9.075-.639-13.358-2.376-.447-.18-.9-.337-1.352-.515a2.608,2.608,0,0,1-1.945-2.419,2.757,2.757,0,0,1,1.829-2.333,38.786,38.786,0,0,1,15.47-3.9,72.455,72.455,0,0,0,10.137-.956,2.041,2.041,0,0,1,1.65.745c1.678,1.745,3.768,2.058,6.078,2.055,25.822-.035,51.642-.073,77.463.036,3.564.014,6.383-.811,8.365-3.856a1.976,1.976,0,0,1,.791-.653c5.8-.315,11.59.468,17.392.353a3.37,3.37,0,0,1,2,.418c.814,1.822.229,3.519-.466,5.205-.994,1.23-2.635,1.747-3.486,3.147-.774,1.279-.594,1.951.729,1.982,3.7.086,7.408.133,11.112-.028a1.339,1.339,0,0,0,.731-.346,2.753,2.753,0,0,0,.383-2.178,45.529,45.529,0,0,1,.435-7.188c.08-.69-.054-1.6,1.046-1.714a3.637,3.637,0,0,0,3.2,1.078c3.733-.232,7.425.518,11.152.444a3.014,3.014,0,0,1,1.784.429c.971,1.379.587,2.877.381,4.36a10.038,10.038,0,0,0,.128,5.039,1.722,1.722,0,0,0,1.3.543c3.519.052,7.039.081,10.556-.012,1.415-.036,1.761-.874.9-2.063a19.371,19.371,0,0,0-2.159-2.221c-1.889-2-2.014-2.9-.707-5.053" transform="translate(-0.695 79.706)" fill="#deeafa"/>
        <path id="Path_3666" data-name="Path 3666" d="M114.163,186.438c-1.725,3.719-4.611,5.287-8.734,5.276q-38.972-.106-77.945,0a9.283,9.283,0,0,1-7.92-3.615,12.927,12.927,0,0,1-1.157-6c.045-9.719.023-19.437.014-29.156,0-.823-.081-1.645-.123-2.468a3.116,3.116,0,0,1-.7-2.318c.012-18.633-.1-37.267.05-55.9.005-1.186-.087-2.375-.012-3.562.1-2.2-.1-4.4-.007-6.6.126-4.481-.045-8.966.147-13.445-.168-4.913-.166-9.826-.147-14.74-.08-4.5-.009-9,.042-13.5a5.506,5.506,0,0,1,.147-1.58,40.419,40.419,0,0,0,.035-10.447,57.516,57.516,0,0,1-.194-7.6,2.667,2.667,0,0,1,.653-1.7c.038-1.771.106-3.545.107-5.318C18.429,9,20.068,6.594,24.5,4.906a71.571,71.571,0,0,1,7.654-.161c21.152-.679,42.308-.493,63.463-.451,4.126.009,8.244.574,12.383.56,3.363.845,5.605,2.808,6.313,6.3a14.981,14.981,0,0,1,.5,5.446c-.038,2.941-1.425,3.854-4.416,2.936a5.1,5.1,0,0,1-.641-2.575,6.338,6.338,0,0,0-6.08-5.515c-.62-.041-1.243-.033-1.867-.033q-35.408,0-70.816,0a9.353,9.353,0,0,0-4.076.572,6.376,6.376,0,0,0-3.718,5.141,20.923,20.923,0,0,0-.114,3.311q-.005,77.613,0,155.226c0,7.175,2.2,9.379,9.458,9.384q33.951.023,67.907.005c.554,0,1.108,0,1.661-.029,5.389-.316,7.716-2.75,7.718-8.159q.016-58.547.012-117.1a12.7,12.7,0,0,1,.26-3.913c.738-1.391,1.932-.978,3.037-.705a2.067,2.067,0,0,1,1.629,2.077c.029.474.045.947.074,1.421.064.645.341,1.248.365,1.9a26.468,26.468,0,0,1,.119,3.723c-.023,16.706.054,33.411-.035,50.116.05,18.146.1,36.294-.05,54.438a17.589,17.589,0,0,1-.14,2.732,7.042,7.042,0,0,0,0,3.608,44.441,44.441,0,0,1,.139,6.705c-.052,1.593.235,3.266-1.074,4.564" transform="translate(10.054 3.086)" fill="#365997"/>
        <path id="Path_3667" data-name="Path 3667" d="M29.77,68.356c.05.688.142,1.374.144,2.062q.013,27.463,0,54.929c0,.477-.078.956-.121,1.434a2.346,2.346,0,0,1-1.694-.591,83.144,83.144,0,0,1-12.674-11.745A54.992,54.992,0,0,1,5.2,97.179,56.313,56.313,0,0,1,1.862,78.917,71.508,71.508,0,0,1,3.841,60.455,126.766,126.766,0,0,1,9.446,43.589c.944-2.333,2.185-4.545,3.292-6.814,1.287-.057,1.957.935,2.7,1.688A92.672,92.672,0,0,0,26.98,48.494c1.61,1.168,2.632,2.421,2.417,4.621a18.273,18.273,0,0,0,.369,5.29q.013,3.308.029,6.612c-1.287-.2-1.307-1.386-1.73-2.24C24.8,56.2,20.823,50.129,15.316,45.172c-.84-.757-1.863-1.939-3.036-1.168-1.368.9-.386,2.316.048,3.373a36.582,36.582,0,0,0,6.8,10.3A132.379,132.379,0,0,0,29.77,68.356" transform="translate(-1.444 26.777)" fill="#deeafa"/>
        <path id="Path_3668" data-name="Path 3668" d="M108.935,127.308q.584-14.061,1.167-28.121.408-9.721.84-19.442a14.237,14.237,0,0,0-.41-4.7.624.624,0,0,1-.173-.569c.847-2.577,1.363-5.124.255-7.806-.3-.741.421-1.536.961-2.19,3.688-4.467,7.036-9.213,10.881-13.547,1.082-1.22.992-2.819,1.83-4.063.327,3.332,2.559,5.789,4.178,8.449a63.239,63.239,0,0,1,7.643,19.271c1.5,6.726,1.771,13.658-.256,20.393a43.366,43.366,0,0,1-10.076,17.764,60.715,60.715,0,0,1-14.488,11.529,4.3,4.3,0,0,0-2.352,3.035" transform="translate(76.898 34.128)" fill="#deeafa"/>
        <path id="Path_3669" data-name="Path 3669" d="M117.254,66.727a47.047,47.047,0,0,1-21.036.871c-1.233-1.758-1.276-3.831-1.541-5.838-.343-2.578-.367-5.186-.691-7.765-1.158-3.923-2.9-7.644-4.073-11.562a4.167,4.167,0,0,1,.973-4.918,23.166,23.166,0,0,0,2.2-2.743c1.853-2.677,4.492-3.735,7.61-3.914a4.87,4.87,0,0,1,2.507,1.3c2.014,1.749,4.073,1.915,6.17.247a4.66,4.66,0,0,1,4.2-.88c5.577.887,8.663,5.131,12.081,8.928.469.52.232,1.008-.055,1.5a25.95,25.95,0,0,1-3.494,6.864,14.193,14.193,0,0,0-1.157,2.165c-.54.415-.468,1.968-1.778.964-.222-3.446.726-6.845.448-9.455-.7,5.667.021,12.253-1.247,18.718a3.288,3.288,0,0,0,.038,1.234c-.114,1.5-.055,3.049-1.152,4.286" transform="translate(62.675 22.47)" fill="#365997"/>
        <path id="Path_3670" data-name="Path 3670" d="M94.446,31.71c1.725-3.674,4.982-4.9,8.665-4.939,2-.021,2.48-.617,2.185-2.406-.258-1.562.558-2.953.939-4.4.3-1.151,1.427-1.626,2.519-1.934a17.44,17.44,0,0,1,6.592-.192c6.171.627,12.016-.271,17.155-4.016a9.607,9.607,0,0,0,2.492-2.461c.888-1.4,1.834-1.4,3.131-.741,5.041,2.572,10.035,11.724,9.4,17.28-.62,5.385-5.351,9.74-11.768,10.912-4.556.831-8.481-.624-12.023-3.3-2.147-1.621-4.078-3.527-6.2-5.185-2.694-2.1-5.631-3.624-9.669-3.093a10.075,10.075,0,0,1,4.062,10.592c-.53,2.739-2.206,4.867-4.137,6.8-.961-.152-.788-.869-.767-1.514a12.56,12.56,0,0,0,1.586-5.687c-.007-1.4-.532-2.283-2.023-2.271-2.653.021-5.245-.04-7.214-2.255-.5-.558-.848.048-1.1.439-.481.752-.842,1.574-1.321,2.333-.384.47-.514,1.286-1.42,1.058-1.784-1.367-1.938-3.085-1.084-5.019" transform="translate(65.931 7.421)" fill="#373b5d"/>
        <path id="Path_3671" data-name="Path 3671" d="M31.122,85.183a11.916,11.916,0,0,1-.732-4.974,4.674,4.674,0,0,0-2.225-4.448A98.821,98.821,0,0,1,15.046,64.337c-.291-.289-.634-.524-.951-.785a41.833,41.833,0,0,1-3.583-5.708c-.14-.308-.461-.579-.485-.885-.083-1.061-.639-2.409.261-3.1s2.14-.029,3.037.593c1.281.893,2.461,1.932,3.685,2.909a4.975,4.975,0,0,1,2.547,1.631,78.586,78.586,0,0,1,9.616,12.417c-.429-2.862-.72-5.751-1.01-8.639a3.821,3.821,0,0,0-2.024-3.121c-1.356-.836-2.848-1.41-4.185-2.274a16.565,16.565,0,0,1-3.707-2.934c-3.332-2.608-7.055-4.746-9.718-8.157-1.022-1.31-2.554-3.069-1.595-4.269,1.046-1.308,3-.052,4.44.752a54.229,54.229,0,0,1,8.577,6.311c2.854,1.742,4.835,4.405,7.138,6.781-.317-4.27-1.671-8.342-1.782-12.588-.038-1.763-1.64-1.908-2.715-2.4A64.938,64.938,0,0,1,7.768,32.041,10.764,10.764,0,0,1,5.119,28.65a1.559,1.559,0,0,1,0-1.593c.381-.558.971-.318,1.515-.181,4.561,1.135,8.1,4.046,11.692,6.811a23.912,23.912,0,0,1,4.956,4.656c.215.292.532.577.861.436.5-.214.277-.7.166-1.066-.9-2.943-1.941-5.848-2.665-8.829a2.918,2.918,0,0,0-2.812-2.473A44.676,44.676,0,0,1,5.306,22.194a11.762,11.762,0,0,1-4.881-4.31C-.429,16.543.042,15.952,1.5,15.96c2.57.017,4.812,1.2,7.044,2.231A44.315,44.315,0,0,1,20.4,25.562,33.85,33.85,0,0,0,14.662,14.2c-1.432-1.858-3.8-1.341-5.72-1.93A54.531,54.531,0,0,1,3.5,10.316C2.863,10.043,1.955,9.5,2.26,8.647c.334-.94,1.257-.527,1.993-.359A34.615,34.615,0,0,1,13.5,12.1a4.076,4.076,0,0,0-.6-2.62,24.55,24.55,0,0,1-1.612-5.546A3.757,3.757,0,0,1,11.848.965c.958-1.331,1.688-1.3,2.315.187a10.111,10.111,0,0,1,.746,3.424c.121,2.476.279,4.953.377,7.431a3.128,3.128,0,0,0,.693,1.88A33.708,33.708,0,0,1,20.276,22c.118-3.2-.691-6.026.033-8.864.509-1.994,1.115-3.838,2.945-5,1.3-.821,2.248-.359,2.433,1.184a19.667,19.667,0,0,1-.549,5.743,48.261,48.261,0,0,1-2.165,8.159,7.694,7.694,0,0,0-.177,5.725c1,2.658,1.643,5.446,2.646,8.166a46,46,0,0,1,1.122-8.695c.717-2.653,1.82-5.079,4.6-6.246.088,6.612.416,13.224.026,19.836-.925-.817-.592-1.92-.618-2.915-.048-1.723-.047-3.451.024-5.484a12.678,12.678,0,0,1-1.479,2.979c-2.416,2.834-2.525,5.947-1.444,9.315a22.672,22.672,0,0,1,.932,5.129,27.623,27.623,0,0,1,1-5.855c.216-.8.32-1.825,1.519-1.906.242,4.543.168,9.089.045,13.634a6.872,6.872,0,0,0-.945,5.138,75.435,75.435,0,0,1,.694,8.437c.028.467-.3,1.033.267,1.408.154,4.433.175,8.866-.059,13.3" transform="translate(-2.8 -0.001)" fill="#365997"/>
        <path id="Path_3672" data-name="Path 3672" d="M109.385,28.233c-.125,1.8-.128,3.577,1.321,4.965a3.261,3.261,0,0,1,1.181,1.467c.625,2.084.959,4.262,2.211,6.135a1.548,1.548,0,0,1-.109,2.072,2.545,2.545,0,0,1-1.655-.109c-5.365.33-7.654,4.566-10.442,8.176-.8,1.04.147,1.967.137,2.953a3.888,3.888,0,0,1-.8,2.5c-2.132,3.384-4.379,6.693-6.668,9.972-1.349,1.934-1.744,1.92-3.129.088-3.081-4.073-5.758-8.425-8.748-12.564a4.851,4.851,0,0,0-3.43-1.956c-1.879-.349-3.87.028-5.65-.892-.2-2.986-.2-2.986,2.772-3.043,10.365-.2,18.443-7.957,18.719-18.246a17.461,17.461,0,0,0-3.524-10.818,22,22,0,0,1-1.617-2.4c-.222-.518-.487-1.037-.038-1.569,4.069,2.748,8.057,5.6,11.872,8.7,1.91,1.552,3.99,2.9,5.952,4.391.57.434,1.044.612,1.648.175" transform="translate(50.992 10.898)" fill="#deeafa"/>
        <path id="Path_3674" data-name="Path 3674" d="M107.466,45.965q2.506-4.345,5.015-8.689c.876,2.146,2.616,3.672,4.042,5.4,2.45,2.966,5.11,5.762,7.711,8.6a3.943,3.943,0,0,1,1.164,2.575c.554,3.237-2.026,4.915-3.614,7.027-2.376,3.159-5,6.133-7.4,9.275a18.947,18.947,0,0,1-1.4,1.7c-.578.6-1.281,1.481-.826,2.19,1.73,2.7.516,5.107-.44,7.583a2.212,2.212,0,0,0-.081.4c-2.326-2.765-2.4-6.4-3.718-9.562a13.569,13.569,0,0,1-.507-1.974,4.689,4.689,0,0,1,.726-2.119c2.1-3.472,3.7-7.231,5.941-10.625a3.811,3.811,0,0,0-.374-5.205,44.336,44.336,0,0,1-4.324-5.535c-.478-.755-1.248-.757-1.92-1.04" transform="translate(75.789 27.143)" fill="#f9ccc7"/>
        <path id="Path_3675" data-name="Path 3675" d="M105.071,7.68q-41.751.026-83.5.05c.552-.6,1.288-.392,1.953-.4a85.485,85.485,0,0,1,8.906.041c4.764.461,9-.835,13.209-2.864C50.837,2,56.477,1.265,62.185.629A53.19,53.19,0,0,1,74.308.8a74.194,74.194,0,0,1,17.2,3.871c3.718,1.372,7.34,3.439,11.6,2.672a2.108,2.108,0,0,1,1.969.335" transform="translate(12.98 0.26)" fill="#deeafa"/>
        <path id="Path_3676" data-name="Path 3676" d="M112.536,114.762c-.313,1.618-.838,3.275.826,4.533-1.657.729-3.38.054-5.067.219a17.732,17.732,0,0,1-3.089,0c-1.716-.131-2.592.448-2.462,2.311a2.607,2.607,0,0,1-.668,2.475,9.21,9.21,0,0,1-.248-5.046,42.469,42.469,0,0,0,.331-4.9,4.153,4.153,0,0,1-.149-.6c-.345-3.316-.341-3.327-3.519-3.842-.88-.142-1.664-.425-1.771-1.415-.109-1.018-.584-2.2.786-2.829.106,3.392.106,3.367,3.669,3.42,3.785.055,7.571.168,11.356.256l.005,5.416" transform="translate(67.839 76.947)" fill="#f9ccc7"/>
        <path id="Path_3677" data-name="Path 3677" d="M11.06,31.5q4.595,2.717,9.19,5.43a1.931,1.931,0,0,1,1.115,1.4c.431,3.811.836,7.623,1.318,12.049C18.7,44.331,14.9,38.853,9.824,34.422c.994-.728,1.771-1.548,1.236-2.921" transform="translate(4.388 22.938)" fill="#deeafa"/>
        <path id="Path_3678" data-name="Path 3678" d="M90.221,20.9c-4.32-3.966-9.328-6.061-15.275-5.551-.973.083-1.37-.228-1.323-1.249.081-1.79.057-3.584.078-5.378a10.088,10.088,0,0,1,5.721,4.232c.185.308.32.349.539.325,1.474-.171,2.383.821,3.47,1.542q3.319,2.2,6.412,4.694c.126.461.251.925.377,1.386" transform="translate(51.062 6.35)" fill="#fff0cf"/>
        <path id="Path_3679" data-name="Path 3679" d="M16.878,25.037a84.221,84.221,0,0,1,2.315,13.888c-2.4-2.9-5.178-5.356-7.671-8.079,1.68,1.125,2.707.415,3.451-1.192.7-1.512,2.263-2.668,1.9-4.616" transform="translate(5.63 18.231)" fill="#deeafa"/>
        <path id="Path_3680" data-name="Path 3680" d="M95.938,32.457l1.628-.047c.3-.926.627-1.683,1.9-1.625a14.046,14.046,0,0,0,6.466-1.666c.054.593-.379,1.3.4,1.723-.362.709-.485,1.322.568,1.505.66.116,1.408-.159,1.957.442a5.042,5.042,0,0,0-3.591,1.182c-2.623,2.273-5.023,1.927-7.557-.622-.551-.553-1.332-.32-1.768-.893" transform="translate(67.39 21.204)" fill="#e8c0bc"/>
        <path id="Path_3681" data-name="Path 3681" d="M73.738,143.684a91,91,0,0,1-.1-10.468.454.454,0,0,1,.246.5c.116-.118.035-.263.047-.392.395-3.973,1.1-7.9,1.891-11.807a2.02,2.02,0,0,1,1.195-1.581c4.014-1.716,7.822-3.857,10.1-4.944-1.787.911-5.229,2.618-8.675,4.319-.54.266-1.126.748-1.732.363-.75-.475-.39-1.279-.261-1.908.951-4.651,1.934-9.3,2.9-13.943a2.791,2.791,0,0,1,1.669-2.165c2.961-1.41,5.759-3.138,8.729-4.54-2.558,1.21-5.029,2.58-7.515,3.92-.525.283-1.087.785-1.721.4-.726-.439-.287-1.115-.156-1.683.951-4.163,2.052-8.292,3.039-12.446a3.232,3.232,0,0,1,1.268-2.048c1.465-1.021,2.874-2.122,4.365-3.111q-1.7,1.182-3.406,2.362c-.336.233-.717.5-1.115.15-.294-.263-.2-.648-.114-.971a27.06,27.06,0,0,0,.916-3.38c.684-1.644.814-3.444,1.527-5.081-.646,1.663-.919,3.43-1.538,5.105-1.6,6.116-3.287,12.208-4.741,18.36-1.5,6.358-2.991,12.723-4.087,19.157-.7,4.123-1.823,8.176-2.133,12.365-.028.37-.119.681-.6.6-.038-3.437-.1-6.875-.107-10.312q-.018-21.583,0-43.165c0-.41.052-.821.08-1.23,1.508-3.315,3.995-5.926,6.424-8.523a77.17,77.17,0,0,1,10.6-9.851c1.8-1.317,2.168-1.258,3.124.843a158.719,158.719,0,0,1,7.233,19.976q-6.088,26.553-12.177,53.1c-.319,1.393-.674,2.777-1.011,4.165a42.5,42.5,0,0,1-11.254,7.419c-.861.42-1.825,1.042-2.9.441" transform="translate(50.978 41.399)" fill="#365997"/>
        <path id="Path_3682" data-name="Path 3682" d="M101.042,93.341c-.32.121-.611.287-.75-.259a136.505,136.505,0,0,0-7.049-19.822c-.582-1.369-.956-1.419-2.113-.5A104.893,104.893,0,0,0,73.664,90.9c-.035-.686-.1-1.372-.1-2.057q-.008-24.391,0-48.782c0-1.168.062-2.338.1-3.506,2.795.235,4.272,2.292,5.5,4.35,3.607,6.023,7.184,12.061,11.032,17.932,2.22,3.386,4.27,3.358,6.821.123q3.33-4.228,6.752-8.38c.559-.677,1.032-1.773,2.3-1.153.807,1.832.256,3.805.592,5.7.492,2.763.817,5.554,1.214,8.333q-3.416,14.942-6.833,29.887" transform="translate(51.018 26.615)" fill="#deeafa"/>
        <path id="Path_3683" data-name="Path 3683" d="M102.188,111.69c-.542.574-.268,1.3-.365,1.955-.194,1.31.3,1.8,1.685,1.821,4.016.066,4.284.448,3.654,4.4-.029.181-.211.339-.322.506-4.876.194-9.721-.743-14.6-.413-1.3.088-1.759-.458-1.624-1.669-.848-1.113-.431-2.051.407-2.933,3.262-.242,3.235-.247,3.846-3.614.783-4.317,1.616-8.627,2.428-12.939,1.288-1.075,2.925-1.033,4.442-1.365.726-.159,1.2.111,1.139.963a14.384,14.384,0,0,1-.145,3.05l-.545,10.234" transform="translate(63.157 70.925)" fill="#fdfdfd"/>
        <path id="Path_3684" data-name="Path 3684" d="M108.851,42.527c.627-.337,1.236-1.014,1.863.033a56.838,56.838,0,0,0,5.652,7.322c1.42,1.678.54,3.154-.208,4.282-2.746,4.139-4.532,8.809-7.356,12.887q-1.639-4.218-3.278-8.437.4-1.988.8-3.975c.4-3.487.35-7.034,1.385-10.438l1.143-1.675" transform="translate(74.404 30.582)" fill="#deeafa"/>
        <path id="Path_3685" data-name="Path 3685" d="M99.716,120.467c-.251-3.631-.249-3.626-4-2.784a11.244,11.244,0,0,1-1.434.137c.989-5.974,1.945-11.956,2.975-17.925,1.619-9.37,3.283-18.732,4.932-28.1.033-.185.14-.358.5-.506-.2,4.08-.384,8.162-.623,12.241q-1.047,17.866-2.133,35.73a9.967,9.967,0,0,1-.218,1.2" transform="translate(66.177 51.914)" fill="#deeafa"/>
        <path id="Path_3686" data-name="Path 3686" d="M73.851,110.473c4.926-1.417,9-4.326,12.994-7.383.331-.252.525-.93,1.162-.477-.554,2.48-1.068,4.97-1.674,7.438-.293,1.187.01,1.609,1.269,1.555,1.648-.069,3.3.033,4.956.06a3.593,3.593,0,0,1-.048,4.168c-5.036.3-10.045-.373-15.074-.406-1.373-.009-2.871.8-4.083-.515q.249-2.222.5-4.441" transform="translate(50.866 74.61)" fill="#fdfefe"/>
        <path id="Path_3687" data-name="Path 3687" d="M84.752,111.956q.023-2.084.048-4.167,5.379,0,10.76.009-.205,1.465-.407,2.933a38.437,38.437,0,0,0-.824,9.486c-.005.845.371,1.792-.4,2.534a3.43,3.43,0,0,1-.611-2.744c.064-1.509-.679-2.069-2.059-2.252a44.9,44.9,0,0,0-4.544-.192c-.949-.029-1.953.15-2.762-.572q.4-2.517.8-5.034" transform="translate(58.623 78.49)" fill="#f8ccc7"/>
        <path id="Path_3688" data-name="Path 3688" d="M103.46,80.081q.008,15.424.012,30.848c0,.541.1,1.12-.384,1.543-.58-2.174.133-4.424-.391-6.6q-.01-13.975-.017-27.953c0-.541-.1-1.118.383-1.545.571,1.189-.114,2.513.4,3.709" transform="translate(72.315 55.613)" fill="#bdcdd6"/>
        <path id="Path_3689" data-name="Path 3689" d="M89.019,108.5q2.036-10.392,4.073-20.787a96.768,96.768,0,0,1,2.521-11.572l0,0c-.2,4.329-1.423,8.489-2.154,12.728-1.113,6.47-2.438,12.906-3.688,19.352a2.91,2.91,0,0,1-.362.717c-.263-.028-.253-.3-.388-.437" transform="translate(62.328 55.444)" fill="#bdcdd6"/>
        <path id="Path_3690" data-name="Path 3690" d="M103.3,94.719c-.783-1.167-.154-2.485-.4-3.709V56.27h.4Z" transform="translate(72.476 40.975)" fill="#bdcdd6"/>
        <path id="Path_3691" data-name="Path 3691" d="M93.787,80.512q2.291-12.018,4.58-24.036l.533.1c-1.564,7.981-2.869,16.008-4.713,23.939-.135.185-.267.185-.4,0" transform="translate(65.816 41.125)" fill="#bdcdd6"/>
        <path id="Path_3692" data-name="Path 3692" d="M94.285,54.848c6.282.486,12.53.608,18.708-.98a33.819,33.819,0,0,1-18.708.98" transform="translate(66.18 39.225)" fill="#bdcdd6"/>
        <path id="Path_3693" data-name="Path 3693" d="M102.685,93.442c.833,2.159.111,4.41.391,6.6v16.072l-.391,0Z" transform="translate(72.326 68.043)" fill="#bdcdd6"/>
        <path id="Path_3694" data-name="Path 3694" d="M89.746,94.866c.13.145.258.292.388.437a43.206,43.206,0,0,1-2.1,10.328l-.007-.007c-.05-2.922,1.03-5.662,1.378-8.52.092-.748.227-1.491.341-2.238" transform="translate(61.6 69.08)" fill="#bdcdd6"/>
        <path id="Path_3695" data-name="Path 3695" d="M94.489,70.384c.133,0,.267,0,.4,0a48.691,48.691,0,0,1-2.062,9.949h0c-.019-3.411,1.257-6.609,1.661-9.951" transform="translate(65.114 51.252)" fill="#bdcdd6"/>
        <path id="Path_3696" data-name="Path 3696" d="M88.485,101.1c.2,2.14-.753,4.1-1.055,6.159a14.977,14.977,0,0,1,1.048-6.164l.007.005" transform="translate(61.151 73.614)" fill="#bdcdd6"/>
        <path id="Path_3697" data-name="Path 3697" d="M85.847,113.113c2.824.157,5.652-.079,8.483.242,1.326.149,1.629.643,1.564,1.8-.073,1.237-.052,2.48-.071,3.721-4.27.005-8.542-.074-12.809.054-1.887.055-1.875-.619-1.323-2.029.776-1.974,2.417-2.912,4.156-3.785" transform="translate(56.73 82.367)" fill="#373b5d"/>
        <path id="Path_3698" data-name="Path 3698" d="M99.812,118.82c.222-1.7-.722-3.932.381-4.977,1.261-1.194,3.543-.351,5.377-.394a15.325,15.325,0,0,1,5.529.363c1.382,1.042,2.729,2.11,3.219,3.892.206.745.275,1.483-.764,1.462-4.53-.086-9.067.315-13.588-.213-.055-.007-.1-.086-.154-.133" transform="translate(70.102 82.43)" fill="#373b5d"/>
        <path id="Path_3699" data-name="Path 3699" d="M108.538,16.783c-.388.75-1.2.881-1.846,1.253-6.52,3.754-10.035,9.275-9.983,16.891.048,7.547,3.678,12.934,10.106,16.623.636.365,1.5.437,1.728,1.326q-.016,25.7-.033,51.4-.008,35.234-.005,70.467c0,5.3-2.89,8.174-8.232,8.176q-35.826.021-71.65,0c-5.449,0-8.255-2.877-8.256-8.359q-.008-79.168-.021-158.34c0-5.347,2.85-8.247,8.142-8.245,23.676,0,47.353.123,71.025-.076,6.125-.05,9.448,3.477,9.025,8.883" transform="translate(12.085 5.752)" fill="rgba(211,224,234,0.25)"/>
        <path id="Path_3700" data-name="Path 3700" d="M106.175,49.968c-.885.014-1.339.679-1.8,1.26-2.443,3.068-4.836,6.173-7.288,9.232-2.076,2.594-4.616,2.75-6.53.157-3.018-4.089-5.366-8.618-8.087-12.9-2.189-3.446-3.808-7.352-7.207-9.928a7.636,7.636,0,0,0-1.493-.69,1.532,1.532,0,0,1-.32-1.234,1.319,1.319,0,0,0,.329-.04,38.881,38.881,0,0,1,6.175.479,3.855,3.855,0,0,1,3.1,1.889c3.029,4.573,6.3,8.985,9.37,13.532.687,1.018.916.486,1.276-.062,2.829-4.3,5.948-8.4,8.409-12.939q2.034,5.623,4.066,11.247" transform="translate(50.912 26.068)" fill="#f9ccc7"/>
        <path id="Path_3701" data-name="Path 3701" d="M25.872,65.721c-1.209.066-1.839-.893-2.521-1.583C18.533,59.266,13.474,54.6,9.842,48.692A20.505,20.505,0,0,1,7.316,43.1a2.058,2.058,0,0,1,.625-2.428c.843-.61,1.5-.1,2.251.327,3.087,1.739,5.153,4.543,7.223,7.222A78.319,78.319,0,0,1,23.8,58c.795,1.426.949,3.14,2.1,4.384a8.426,8.426,0,0,1-.026,3.337" transform="translate(2.454 29.412)" fill="#365997"/>
        <path id="Path_3702" data-name="Path 3702" d="M73.677,120.991c.67-3.553,1.371-7.1,2.005-10.66q3.065-17.241,7.725-34.118a27.4,27.4,0,0,1,1.818-5.864l.137.116c.2,1.471-.741,2.75-.812,4.46l5.96-4.141c.078,1.192-.679,1.376-1.2,1.758-1.39,1.018-2.727,2.12-4.182,3.04a3.527,3.527,0,0,0-1.605,2.478c-.914,4.02-1.932,8.015-2.925,12.018-.1.4-.405.833-.1,1.17.454.5.9-.026,1.276-.221q4.14-2.141,8.236-4.367c.431-.235.784-.643,1.292.149-3.269,1.735-6.5,3.515-9.791,5.16a3.5,3.5,0,0,0-2.061,2.808c-.809,4.253-1.789,8.473-2.7,12.707-.145.674-.464,1.528.016,1.984.6.569,1.245-.213,1.818-.493,3.356-1.637,6.689-3.32,10.038-4.972a1.365,1.365,0,0,1,1.619-.137c-1.974,1.039-3.78,2.029-5.621,2.947-2.348,1.173-4.7,2.343-7.1,3.4a2.92,2.92,0,0,0-1.673,2.437c-.746,4.122-1.487,8.245-1.9,12.929-.173-1.058-.267-1.626-.362-2.195q.047-1.2.092-2.4" transform="translate(51.036 51.227)" fill="#d3e0ea"/>
        <path id="Path_3703" data-name="Path 3703" d="M20.062,29.64c-1.737,2.487-1.571,5.446-2.057,8.242-.109.626.158,1.341-.642,2.226-.41-4.457-1.489-8.446-2.234-12.5a2.728,2.728,0,0,1,.5-1.531,72.858,72.858,0,0,0,3.877-7.36l.627.143v9.519c-.024.418-.047.84-.069,1.262" transform="translate(8.259 13.628)" fill="#deeafa"/>
        <path id="Path_3704" data-name="Path 3704" d="M18.744,47.908a2.6,2.6,0,0,1-.175.588c-.118.2-.286.285-.286-.076,0-4.117-.939-8.136-1.269-12.217a3.306,3.306,0,0,1,1.714-3.278c.208,4.994.142,9.989.016,14.983" transform="translate(9.638 23.975)" fill="#f0ebef"/>
        <path id="Path_3705" data-name="Path 3705" d="M107.553,48.184q-.694,5.218-1.385,10.437c-.951-1.122-.047-2.254.071-3.339.641-5.865.959-11.748,1.221-17.638a8.889,8.889,0,0,1,.255-1.115c.675,4.163-.381,7.9-.161,11.655" transform="translate(74.559 26.599)" fill="#bdcdd6"/>
        <path id="Path_3706" data-name="Path 3706" d="M105.156,35.646c-4.544,1.626-9.664-.368-9.908-4.18,2.306,4.167,5.584,4.88,9.484,3.79.436-.188.5.028.424.391" transform="translate(66.885 22.913)" fill="#bdcdd6"/>
        <path id="Path_3707" data-name="Path 3707" d="M101.149,35.352c-.142-.13-.282-.259-.424-.391,1.586-.847,2.852-2.148,4.391-3.09a9.275,9.275,0,0,1-3.967,3.481" transform="translate(70.892 23.207)" fill="#bdcdd6"/>
        <path id="Path_3708" data-name="Path 3708" d="M106.363,33.81c-1.661,2.183-4.218,2.07-6.513,2.245A2.364,2.364,0,0,0,98,37.1a2.508,2.508,0,0,0-.428-1.953c-1.465-1.865-1.732-4.132-2.036-6.379-.7-2.108.762-1.281,1.577-1.237-.255-.662-1.932.468-1.557-1.184.353-.743.681-1.5,1.067-2.228.7-1.31,1.226-2.3,2.622-.334,1.351,1.9,3.716,1.827,5.868,1.823,2.693-.005,3.193.569,2.933,3.273-.17,1.783-.255,3.577-1.68,4.927" transform="translate(66.959 16.514)" fill="#f7cdc7"/>
        <path id="Path_3709" data-name="Path 3709" d="M95.811,24.8c.6,1.393,1.8.553,2.888.747a1.548,1.548,0,0,1-1.9.66c-.987-.34-.942.406-1.006,1.014A1.193,1.193,0,0,1,95,26.035l.814-1.232" transform="translate(66.701 18.061)" fill="#9c7b80"/>
        <path id="Path_3711" data-name="Path 3711" d="M80.307,72.621a14.026,14.026,0,0,1,1.621-5.39c-.313,1.884-.4,3.824-1.487,5.506l-.133-.116" transform="translate(55.954 48.956)" fill="#d3e0ea"/>
        <path id="Path_3712" data-name="Path 3712" d="M82.234,115.309H93.95v.218H82.234v-.218" transform="translate(57.364 83.966)" fill="#bdcdd6"/>
        <path id="Path_3713" data-name="Path 3713" d="M112.338,115.942H100.489c.987-.8,9.219-1.046,11.849,0" transform="translate(70.719 83.921)" fill="#bdcdd6"/>
        <path id="Path_3715" data-name="Path 3715" d="M60.265,90.278q14.535,0,29.069,0c2.655,0,4.236,1.464,4.279,4.167.073,4.419.066,8.841.009,13.26-.033,2.48-1.926,4.1-4.738,4.127-4.152.038-8.3.01-12.459.01q-22.423,0-44.849,0c-3.512,0-4.443-.9-4.854-4.409a66.26,66.26,0,0,1,.031-14.024c.2-2.107,1.406-3.119,3.82-3.125,8.166-.021,16.334-.009,24.5-.009h5.191" transform="translate(16.488 65.737)" fill="#deeafa"/>
        <path id="Path_3716" data-name="Path 3716" d="M63.231,72.064q15.571,0,31.143.005a8.572,8.572,0,0,1,8.4,10.957c-.739,2.82-4.151,5.285-6.355,5.537a56.2,56.2,0,0,1-6.585.529c-18.27-.062-36.542-.005-54.812-.071a18.39,18.39,0,0,1-7.1-.994,8.181,8.181,0,0,1-5.351-8.79c.379-2.945,2.888-5.9,6.862-6.826a15.059,15.059,0,0,1,3.482-.349q15.159,0,30.314,0" transform="translate(13.662 52.474)" fill="#fdfdfd"/>
        <path id="Path_3717" data-name="Path 3717" d="M62.641,75.159c-10.244,0-20.49.083-30.734-.04-5.084-.059-9.7-3.773-9.37-9.13a7.491,7.491,0,0,1,4.488-6.472,13.345,13.345,0,0,1,6.18-1.391c19.936.069,39.872.035,59.808.048a11.394,11.394,0,0,1,6.45,1.813c3.191,2.088,4.088,5.027,3.638,8.558-.274,2.153-4.007,5.686-6.461,6.166a22.964,22.964,0,0,1-4.511.474c-9.83-.045-19.659-.022-29.489-.026" transform="translate(13.677 42.326)" fill="#fdfdfd"/>
        <path id="Path_3718" data-name="Path 3718" d="M101.232,28.466a2.421,2.421,0,0,1-1.6,1.414,1.549,1.549,0,0,1-1.668-.494c-.364-.327-.393-.805.208-.869a5.257,5.257,0,0,0,2.52-.693c.32-.213.575.19.537.643" transform="translate(68.684 20.218)" fill="#fcf7f7"/>
        <path id="Path_3719" data-name="Path 3719" d="M97.893,29.14c-1.167-1.241.154-2.131.261-3.19.377,1.129-.615,2.063-.261,3.19" transform="translate(68.47 18.896)" fill="#967177"/>
        <path id="Path_3720" data-name="Path 3720" d="M99.029,25.451a6.126,6.126,0,0,0,2.589-.425c-1.172,1.424-1.172,1.424-2.589.425" transform="translate(69.651 18.223)" fill="#af8588"/>
        <path id="Path_3724" data-name="Path 3724" d="M57.587,78.247a3.111,3.111,0,0,1,2.945-3.076,3.148,3.148,0,0,1,3.181,2.864,3.347,3.347,0,0,1-3.06,3.256,3.468,3.468,0,0,1-3.067-3.043" transform="translate(39.332 54.738)" fill="#deeafa"/>
        <path id="Path_3725" data-name="Path 3725" d="M36.62,78.192a3.068,3.068,0,1,1-6.133-.14,3.07,3.07,0,0,1,6.133.14" transform="translate(19.502 54.734)" fill="#deeafa"/>
        <path id="Path_3726" data-name="Path 3726" d="M44.351,81.063a2.939,2.939,0,0,1-3.03-2.953,3.055,3.055,0,0,1,3.131-2.929,2.982,2.982,0,0,1,2.944,3.043,2.7,2.7,0,0,1-3.044,2.839" transform="translate(27.429 54.745)" fill="#deeafa"/>
        <path id="Path_3727" data-name="Path 3727" d="M41.944,78.248a3.078,3.078,0,0,1-3.089,2.979,3.01,3.01,0,0,1-2.9-3.131,2.9,2.9,0,0,1,3.063-2.928,2.969,2.969,0,0,1,2.93,3.08" transform="translate(23.502 54.736)" fill="#deeafa"/>
        <path id="Path_3728" data-name="Path 3728" d="M63.063,78.257a3.041,3.041,0,0,1,2.913-3.09,2.874,2.874,0,0,1,2.984,2.767,3.15,3.15,0,0,1-2.674,3.351,3.107,3.107,0,0,1-3.223-3.028" transform="translate(43.338 54.735)" fill="#deeafa"/>
        <path id="Path_3729" data-name="Path 3729" d="M55.2,75.181a2.788,2.788,0,0,1,2.94,2.979,2.723,2.723,0,0,1-2.968,2.915,2.661,2.661,0,0,1-2.93-2.929A2.8,2.8,0,0,1,55.2,75.181" transform="translate(35.42 54.745)" fill="#deeafa"/>
        <path id="Path_3730" data-name="Path 3730" d="M28.139,75.168A2.929,2.929,0,0,1,31.1,78.2a2.99,2.99,0,1,1-5.979-.067,2.929,2.929,0,0,1,3.022-2.969" transform="translate(15.576 54.736)" fill="#deeafa"/>
        <path id="Path_3731" data-name="Path 3731" d="M52.662,78.284A2.631,2.631,0,0,1,49.8,81.075,2.893,2.893,0,0,1,46.77,78.14a3.128,3.128,0,0,1,3.323-2.959c1.59.076,2.6,1.3,2.57,3.1" transform="translate(31.415 54.743)" fill="#deeafa"/>
        <path id="Path_15826" data-name="Path 15826" d="M0,0H62.9" transform="translate(44.627 108.161)" fill="none" stroke="#deeafa" stroke-linecap="round" stroke-width="4"/>
      </g>
    </g>
    <g id="Group_8" data-name="Group 8" transform="translate(120.387 184.846)">
      <g id="Mask_Group_7" data-name="Mask Group 7" clip-path="url(#clip-path-2)">
        <path id="Path_3862" data-name="Path 3862" d="M1.636,27.48c-.51-.044-.491-.549-.7-.839a3.769,3.769,0,0,1-.887-2.129c.245-.3.091-.668.146-1A7.524,7.524,0,0,1,1.1,21.127a2.84,2.84,0,0,0,.419-.944,9.444,9.444,0,0,0,1.5-3.508,4.53,4.53,0,0,1,1.356-2.41,4.451,4.451,0,0,1,.109,2.172,3.255,3.255,0,0,0,.116,1.51c.141.345.116.61-.36.608a1.413,1.413,0,0,0-.781.331.961.961,0,0,0,.084,1.73c.667.358,1.117.1,1.147-.663a2.715,2.715,0,0,0-.132-.969c-.046-.138-.066-.3.082-.387.118-.068.238.016.336.088a2.781,2.781,0,0,1,.731.651,2.07,2.07,0,0,1,.21.367c.2.5.52.581,1.015.4.332-.118.777-.44,1.01.18a3.062,3.062,0,0,1-.163.78c-.094.534.094.778.637.812a1.1,1.1,0,0,0,1.114-.5.973.973,0,0,0-.147-1.144c-.232-.341-.491-.679.106-.923a3.038,3.038,0,0,0,1.641-1.015c.116-.161.285-.358.51-.2.2.135.147.372.081.569a13.669,13.669,0,0,1-.744,1.465A4.085,4.085,0,0,0,11.82,17.8a1.521,1.521,0,0,1,.267-.334.832.832,0,0,0-.154-1.361.916.916,0,0,1-.434-.813,3.379,3.379,0,0,0-2.565-3.468c-.158-.047-.315-.1-.365-.29.65-.5,1.218-1.128,2.2-.881a1.513,1.513,0,0,1,1.027.891,5.592,5.592,0,0,1,.746,2.117,8.926,8.926,0,0,0,.545,1.782,12.451,12.451,0,0,1-.472,7.687,11.425,11.425,0,0,1-2.576,4.1,4.719,4.719,0,0,1-3.2,1.605c-.666-.12-1.323.107-2,.02A5.894,5.894,0,0,1,1.636,27.48" transform="translate(-0.022 -5.137)" fill="#365997"/>
        <path id="Path_3863" data-name="Path 3863" d="M39.224,32.912l-.493-.015a2.177,2.177,0,0,0-2.117.7,1.222,1.222,0,0,1-.446.19,13.577,13.577,0,0,1-3.419.688c-.388.013-1.147-.9-1.01-1.263.059-.155.211-.169.353-.206.516-.13,1.023-.3,1.543-.4.8-.161,1.006-.8,1.326-1.513a14.486,14.486,0,0,1-5.031-.051,1.286,1.286,0,0,1-1.3-1.052c-.1-.364.18-.523.325-.734.119-.174.362-.038.5.076.733.626,1.524.278,2.288.133a8.473,8.473,0,0,0,1.255-.447c-.41-.52-1.165-.766-1.184-1.55a.356.356,0,0,1,.2-.132,1.026,1.026,0,0,0,.973-1.2c.079-.188.333-.32.188-.589-.24-.021-.242.244-.393.323a.893.893,0,0,1-.83.071c-.022.242.13.554-.24.66a13.8,13.8,0,0,1,.115-2.8,2.59,2.59,0,0,1,.986-1.76.318.318,0,0,1,.076.16c-.009.223-.048.444-.049.669a1.139,1.139,0,0,0,1.005,1.3c.118.031.239.051.355.089a.91.91,0,0,1,.161.069,1.543,1.543,0,0,0,1.551.191.663.663,0,0,1,.414-.064c.215.059.4.2.623.237a1.413,1.413,0,0,0,1.8-1.028c.083-.22.034-.5.265-.658a2.133,2.133,0,0,1,.315,1.1,2.039,2.039,0,0,0,.609,1.6c.4.376.212.977-.2,1.4a3.3,3.3,0,0,1-1.15.267c-.229-.009-.37.214-.51.4a4.171,4.171,0,0,1-4.132,1.381,4.129,4.129,0,0,0,4.086-1.315A1.006,1.006,0,0,1,39,27.343c.287.036.456-.252.728-.245.166.413.527.344.859.349.376.109.267.4.226.644a14.34,14.34,0,0,0-.345,1.971c-.066.782-.3,1.531-.437,2.3-.112.636-.112.636-.808.549" transform="translate(-13.871 -10.684)" fill="#f8b8a1"/>
        <path id="Path_3864" data-name="Path 3864" d="M83.121,17.926c0,.209.146.33.276.462a3.662,3.662,0,0,1,.925,3.242,1.161,1.161,0,0,0,.188.847,4.514,4.514,0,0,1,.718,2.371,4.265,4.265,0,0,0-2.24,1.49,1.716,1.716,0,0,0-.427,1.744.316.316,0,0,1-.048.346c-.628-.1-1.235.3-1.875.066a1.159,1.159,0,0,0-.839-.054,1.823,1.823,0,0,0-.5-.347,5.091,5.091,0,0,1-2.35-2.011,11.994,11.994,0,0,1,0-3.582c.3-.107.726-.1.538-.637-.092-.261-.772-.741-1-.678-.154.042-.152.175-.165.295-.024.216.081.453-.106.642-.782-.119-1.562-.264-2.348-.349a2.726,2.726,0,0,1-1.623-.619,1.069,1.069,0,0,0,.256-1.4.279.279,0,0,1,0-.335c.319.2.566-.075.847-.123.8-.135,1.6-.251,2.392-.38a3.3,3.3,0,0,0,1.211-.241,6.935,6.935,0,0,1,1.948,1.343,1.692,1.692,0,0,0,2.156-.416A23.223,23.223,0,0,0,82.9,17.974a.19.19,0,0,1,.225-.047" transform="translate(-35.027 -8.683)" fill="#373b5d"/>
        <path id="Path_3865" data-name="Path 3865" d="M12.1,20.323c-.414.084-.38.262-.148.546.368.451.689.916.247,1.525a1.452,1.452,0,0,1-1.7.446.621.621,0,0,1-.363-.757c.067-.3.165-.589.25-.884.158-.414-.171-.314-.353-.309a3.031,3.031,0,0,1-1.874-.567L7.13,19.4a3.059,3.059,0,0,1,.292,1.317c-.057.409.1.911-.463,1.08a1.372,1.372,0,0,1-1.45-.581,1.058,1.058,0,0,1,.42-1.593c.361-.223.675-.55,1.262-.263-.73-1.454-.1-2.85-.263-4.216a5.1,5.1,0,0,1,1.63-1.93,3.731,3.731,0,0,1,2.342-.7c.069.006.145-.069.217-.107a4.2,4.2,0,0,1,2.333,1.353,3.9,3.9,0,0,1,.771,2.4c.006.2-.078.412.181.591.948.656.951,1.212.056,1.966-.069.046.039.036-.038.045-1.033.132-1.535,1.051-2.318,1.554" transform="translate(-2.571 -6.018)" fill="#f8b8a1"/>
        <path id="Path_3866" data-name="Path 3866" d="M113.052,10.716q-.009-1.786-.019-3.571a.276.276,0,0,1,.258.008,1.1,1.1,0,0,0,.663.047,1.158,1.158,0,0,1,.746.175,5.39,5.39,0,0,0,2.318.641c.305,0,.5.264.836.226-.168-.038-.3-.1-.228-.248.144-.3.386-.235.625-.12a1.323,1.323,0,0,0,.434.211,1.763,1.763,0,0,1,1.553.952c.088.19.3.169.488.155.378.152.109.563.3.712-.1-.583-.038-.68.63-.789a2.011,2.011,0,0,0,.407-.128c.5.5.253,1.7-.5,1.788-1.354.149-1.81,1.413-2.826,1.934a2.226,2.226,0,0,1-3.466.753,5.537,5.537,0,0,1-.754-.629,2.688,2.688,0,0,1-1.437-1.86c.273-.046.387.4.7.225a.687.687,0,0,0,.413-.565.642.642,0,0,0-.359-.657c-.233-.115-.432-.093-.513.216-.05.191.064.478-.27.524" transform="translate(-54.806 -3.45)" fill="#f8b8a1"/>
        <path id="Path_3867" data-name="Path 3867" d="M82.649,14.914c-.457-.7-1.389-.79-1.863-1.466a1.714,1.714,0,0,1-.414-.945,15.97,15.97,0,0,1-.1-3.917,3.017,3.017,0,0,1,.753-1.449.3.3,0,0,1,.1.159c.009.457-.175.925.065,1.371a1.182,1.182,0,0,0,1.138.684,1.238,1.238,0,0,1,.522.163,1.639,1.639,0,0,0,1.424.022A1.242,1.242,0,0,1,85.344,9.5a1.445,1.445,0,0,0,1.754-.7c.168-.274.334-.517.712-.407a.981.981,0,0,1,.087.287,1.536,1.536,0,0,0,.671,1.442.48.48,0,0,1-.33.125c-.522.073-.6.2-.525.78.007-.661.105-.77.685-.735a.474.474,0,0,0,.3-.038c.569.639.105,1.631-.886,1.8a.9.9,0,0,0-.845.656,10.355,10.355,0,0,1-1.975,1.729,11.137,11.137,0,0,1-2.013.145c-.3-.047-.23.212-.325.336" transform="translate(-38.868 -3.461)" fill="#f8b8a1"/>
        <path id="Path_3868" data-name="Path 3868" d="M120.792,34.082a31.432,31.432,0,0,0,.137,3.531c.043.512-.119.818-.628.92a1.9,1.9,0,0,1-1.6.252c-.7-.064-.791-.591-.9-1.132-.09-.456-.231-.9-.341-1.356-.03-.122-.039-.274-.182-.28s-.164.143-.192.265a10.782,10.782,0,0,0-.284,1.244c-.061.583-.143,1.111-.838,1.252a1.827,1.827,0,0,1-1.593-.244c-.509-.061-.645-.356-.635-.847.03-1.366.013-2.732.014-4.1.557-.249,1.08.07,1.613.125a11.6,11.6,0,0,0,4.505-.2c.789-.23.8-.21.917.57" transform="translate(-55.149 -16.187)" fill="#373b5d"/>
        <path id="Path_3869" data-name="Path 3869" d="M120.284,6.088c-.12.225-.341.334-.453.079-.359-.821-1.088-1-1.839-1.17-.072-.016-.13-.089-.2-.135,0-.192-.268-.28-.191-.521a1.384,1.384,0,0,1-1.366.612c-.5-.023-.613-.211-.513-.706a.282.282,0,0,0-.094-.33c-.2.55-.512.842-1.12.515-.488-.263-.408-.642-.234-1.175-.369.279-.2.775-.632.83a3.838,3.838,0,0,1-.9.023l-.139-.12a1.077,1.077,0,0,1-.256-1.507,3.56,3.56,0,0,1,1.875-1.315,8.869,8.869,0,0,1,1.961-.5l.853-.036c.038-.022.1-.035.108-.018.171.663.5.277.8.129a.112.112,0,0,1,.149.049c.161.183.427.043.6.2a6.583,6.583,0,0,0,1.591.764,3.059,3.059,0,0,1,1.5,2.777.814.814,0,0,1-.134.585c-.057-.049-.093-.025-.146.02-.465.395-.521.382-.85-.228a2.123,2.123,0,0,1-.134.933.462.462,0,0,1-.244.246" transform="translate(-54.382 -0.295)" fill="#373b5d"/>
        <path id="Path_3870" data-name="Path 3870" d="M60.584,39.309a3.212,3.212,0,0,0,.286,1.053c.057.227.147.465-.1.6a.467.467,0,0,1-.686-.183c-.167-.29-.312-.346-.6-.084a4.651,4.651,0,0,1-6.085.218A1.131,1.131,0,0,1,52.586,40a2.619,2.619,0,0,1,.164-1.806,1.631,1.631,0,0,1,2.09-.812,3.047,3.047,0,0,1,.763.4c.291.206.508.5.8.7.234.332.6.32.948.359a2.744,2.744,0,0,0,1.928.035,1.1,1.1,0,0,1,1.3.433" transform="translate(-25.454 -18.074)" fill="#f8b8a1"/>
        <path id="Path_3871" data-name="Path 3871" d="M81.817,5.832c-.009-.05-.017-.1-.025-.15A3.562,3.562,0,0,1,85.513,4.2a4.393,4.393,0,0,1,2.922,1.646.948.948,0,0,1,.14,1.08,1.017,1.017,0,0,0-.628.6,1.5,1.5,0,0,1-1.832.645,1.929,1.929,0,0,1-.8-.847c-.038.3.135.641-.262.8a1.444,1.444,0,0,1-1.3-.01c-.234-.127-.117-.365-.153-.555-.015-.082-.035-.169-.115-.2s-.151.021-.209.084c-.563.623-.646.624-1.237.006a1.345,1.345,0,0,1-.168-.179,2.567,2.567,0,0,1-.057-1.439" transform="translate(-39.632 -2.005)" fill="#373b5d"/>
        <path id="Path_3872" data-name="Path 3872" d="M91.976,34.957a1.8,1.8,0,0,1,.272-2.09,3.106,3.106,0,0,1,2.443-1.489,4.451,4.451,0,0,1,.489,2.852,5.062,5.062,0,0,0,.589,2.341c.184.453.428.882.633,1.326.234.508.1.846-.436.971a10.754,10.754,0,0,1-1.334.177c-.136.014-.3.031-.384-.124a.312.312,0,0,1,.11-.433c.213-.144.23-.293.019-.423a7.481,7.481,0,0,1-2.4-3.109" transform="translate(-44.491 -15.214)" fill="#f8b8a1"/>
        <path id="Path_3873" data-name="Path 3873" d="M113.931,18.1a.937.937,0,0,1,.642.314A2.14,2.14,0,0,0,118,18.069a.557.557,0,0,1,.154-.1c.06.328.365.288.574.355,1,.32,2.257,1.61,2.009,2.6-.787-.254-1.376.16-1.309.924.025.284.117.595-.233.748-.382.167-.62-.052-.816-.347a1.553,1.553,0,0,0-1.422-.682c-.451.018-.815-.126-.917-.62-.083-.4-.248-.71-.708-.692a.824.824,0,0,0-.864.782,1.518,1.518,0,0,1-.038.179c-.241.381.031.542.3.7a.382.382,0,0,1-.056.346.875.875,0,0,1-.688.534c-.742.084-.988-.141-.913-.879.1-.945-.322-1.288-1.238-1.017a2.77,2.77,0,0,1,1.725-2.515c.144-.077.305-.128.373-.3" transform="translate(-54.224 -8.715)" fill="#365997"/>
        <path id="Path_3874" data-name="Path 3874" d="M42.9,21.814c-.1,1.518-.847,2-1.953,1.887a1.455,1.455,0,0,1-.8-.376c-.1-.177-.057-.394-.18-.7-.08.348.012.642-.3.788a1.2,1.2,0,0,1-.821.039,2.912,2.912,0,0,1-.674-.26l0,0a.228.228,0,0,1,.047-.224c.089-.143.308-.307.074-.451-.178-.11-.273.108-.348.247-.2.372-.46.258-.709.079a1.636,1.636,0,0,1-.521-1.864l-.015-.135a3.725,3.725,0,0,1,6.2.967" transform="translate(-17.763 -9.494)" fill="#373b5d"/>
        <path id="Path_3875" data-name="Path 3875" d="M54.733,35.174a4.384,4.384,0,0,0-1.11-.5c-1.517-.229-2.035,1.242-1.807,2.419a1.61,1.61,0,0,0,.687,1.043,2.622,2.622,0,0,1-1.844-.5,5.848,5.848,0,0,1,.4-1.748,10.571,10.571,0,0,1,.409-1.388c-.171.142-.285.316-.456.171a7.369,7.369,0,0,1,.327-1.983c.038-.222.131-.437-.065-.63l.619-.351c.34.427-.2.749-.13,1.117.241-1.01.437-1.145,1.454-1.262l.4.02.476.023,1.249.354c.455.21.56.763.984,1a3.985,3.985,0,0,1,.421,2.23.873.873,0,0,1-.415.826c-.458.573-.618,0-.867-.226-.412-.5-.554-1.171-1.142-1.565a2.569,2.569,0,0,0-1.769-.678A2.781,2.781,0,0,1,54.785,34.7c.2.208.182.225-.052.473" transform="translate(-24.558 -15.297)" fill="rgba(111,166,214,0.5)"/>
        <path id="Path_3876" data-name="Path 3876" d="M80.344,33.774c.435.056.53.483.764.741a4.741,4.741,0,0,0,1.819,1.206c.213.084.4.127.27.41A2.007,2.007,0,0,0,82.3,38.25a1.552,1.552,0,0,1-1.343,1.58,5.536,5.536,0,0,1-1.28.132c-.176-.008-.331-.041-.4-.219a.33.33,0,0,1,.164-.422c.554-.313.422-.718.252-1.2a4.428,4.428,0,0,1,.651-4.344" transform="translate(-38.426 -16.376)" fill="#f8b8a1"/>
        <path id="Path_3877" data-name="Path 3877" d="M120.673,32.243c-.1-.513-.308-.581-.846-.418a11.637,11.637,0,0,1-5.774,0c-.139-.028-.278-.053-.417-.079-.312-.471.01-1-.126-1.483a3.164,3.164,0,0,1,2.46-.382c.751.24,1.427-.145,2.137-.256a2.838,2.838,0,0,1,1.713.214c.352.2.771-.068,1.108.181a.674.674,0,0,0-.253.642c.012.526,0,1.052,0,1.579" transform="translate(-55.03 -14.347)" fill="#365997"/>
        <path id="Path_3878" data-name="Path 3878" d="M61.521,37.356a3.064,3.064,0,0,0-.084-2.768c-.049-.094-.223-.269.078-.288a12.764,12.764,0,0,1,1.071,1,1.557,1.557,0,0,0,1.177.563c.818.029,1.632.037,2.449.124a.8.8,0,0,1,.816.569c.082.228.172.456.241.689s.154.508-.1.673-.4-.105-.559-.241a.634.634,0,0,0-.682-.121c-.346.122-.706.206-1.059.307a1.738,1.738,0,0,0-1.663-.172,4.234,4.234,0,0,1-1.4.04c-.264,0-.278-.186-.288-.378" transform="translate(-29.743 -16.631)" fill="#f7a68e"/>
        <path id="Path_3879" data-name="Path 3879" d="M114.822,26.766a2.078,2.078,0,0,0-1.745.164,1.832,1.832,0,0,1-.712.075,1.9,1.9,0,0,1-1.192-2.36c.07-.459.211-.907.32-1.36.2-.064.086-.566.423-.375.382.216.967.2,1.061.8a1.21,1.21,0,0,1-.025.366c-.052.322-.317.754.109.91a.813.813,0,0,0,1.159-.438.724.724,0,0,1,.759.863c-.019.457.117.929-.157,1.356" transform="translate(-53.884 -11.087)" fill="#f8b8a1"/>
        <path id="Path_3880" data-name="Path 3880" d="M125.1,26.818a2.248,2.248,0,0,1-1.579-.186,3.466,3.466,0,0,0-1.266-.086c-.313-.526-.053-1.075-.038-1.608.01-.334.336-.361.619-.353.218.006.431.174.654.021.14.233.294.439.617.331.339-.114.128-.358.145-.556.023-.265-.231-.582-.048-.753a3.907,3.907,0,0,1,1.034-.611c.3-.141.335.2.474.344a6.041,6.041,0,0,1,.248,1.938,1.652,1.652,0,0,1-.859,1.52" transform="translate(-59.203 -11.143)" fill="#f8b9a1"/>
        <path id="Path_3881" data-name="Path 3881" d="M115.593,44.453a3.064,3.064,0,0,1,.008.307c-.03.447.147.937-.433,1.229a2.092,2.092,0,0,1-1.89-.01.506.506,0,0,1-.052-.912,1.747,1.747,0,0,0,.756-1.226.86.86,0,0,0,1.079.574.878.878,0,0,1,.531.039" transform="translate(-54.773 -21.256)" fill="#373b5d"/>
        <path id="Path_3882" data-name="Path 3882" d="M124.943,45.089c.527.14,1.046.4.973,1-.082.675-.728.6-1.231.605a4.012,4.012,0,0,1-.785-.125.612.612,0,0,1-.557-.741c.024-.244.009-.492.012-.739a1.639,1.639,0,0,1,1.587,0" transform="translate(-59.802 -21.762)" fill="#373b5d"/>
        <path id="Path_3883" data-name="Path 3883" d="M71.285,20.637a1.439,1.439,0,0,1,.235,1.386c-.1.224-.228.371-.49.354-.648.071-.749-.7-1.275-.859a1.5,1.5,0,0,1,.329-.814c.118-.125.518-.382.568-.223.158.5.558-.347.634.156" transform="translate(-33.817 -9.906)" fill="#f8b8a2"/>
        <path id="Path_3884" data-name="Path 3884" d="M79.869,24.943c-.022-.16-.033-.323-.066-.481a.757.757,0,0,1,.162-.676c.182-.18.351.1.524.181.31.141.74.11.8.609.033.264.145.549-.012.765-.19.261-.446-.031-.675-.021a.815.815,0,0,1-.736-.377" transform="translate(-38.684 -11.504)" fill="#f7baa1"/>
        <path id="Path_3885" data-name="Path 3885" d="M35.949,29.608c.144.941-.161,1.271-1.242,1.342a1.47,1.47,0,0,1-.1-.87c.032-.05.1-.1.092-.15-.053-.461.066-.719.6-.6.118.026.265-.072.4-.112a.469.469,0,0,1,.251.388" transform="translate(-16.77 -14.168)" fill="#f7ac98"/>
        <path id="Path_3886" data-name="Path 3886" d="M113.07,13.164a2.9,2.9,0,0,0,.108-.275c.065-.233-.155-.58.21-.687a.655.655,0,0,1,.771.235.838.838,0,0,1,.145.964c-.331.576-.78.592-1.211.02-.007-.086-.015-.172-.023-.257" transform="translate(-54.824 -5.898)" fill="#f6ab97"/>
        <path id="Path_3887" data-name="Path 3887" d="M50.321,37.1c.133-.012.232-.061.256-.211s.043-.393.251-.33.129.309.084.474c-.171.619-.4,1.227-.521,1.854-.083.424-.345.764-.427,1.177-.249-.034-.523.092-.745-.115.387.026.606-.028.649-.539a19.463,19.463,0,0,1,.453-2.311" transform="translate(-23.865 -17.719)" fill="rgba(111,166,214,0.5)"/>
        <path id="Path_3888" data-name="Path 3888" d="M124.959,44.359l-1.587,0q0-.363,0-.726l1.6-.252-.011.981" transform="translate(-59.819 -21.032)" fill="#f5b8a2"/>
        <path id="Path_3889" data-name="Path 3889" d="M1.5,29.208c.275.253.026.468-.082.652a6.546,6.546,0,0,0-1.15,3.552c.006.211-.122.164-.245.126A6.487,6.487,0,0,1,1.5,29.208" transform="translate(0 -14.162)" fill="#365997"/>
        <path id="Path_3890" data-name="Path 3890" d="M116.551,44.23a2,2,0,0,1-1.37.1c-.407-.058-.145-.477-.24-.717l.017-.236c.507.237,1.09-.016,1.593.244,0,.2,0,.4,0,.605" transform="translate(-55.731 -21.034)" fill="#f5b9a2"/>
        <path id="Path_3891" data-name="Path 3891" d="M56.2,31.8c-.091.22-.206.186-.374.065a3.333,3.333,0,0,0-2.316-.284c-.533.029-.631.567-.752.987-.067.232-.066.478-.345.646-.066-.616.389-1.094.335-1.666a1.546,1.546,0,0,0,.59-.11A2.912,2.912,0,0,1,56.2,31.8" transform="translate(-25.409 -15.132)" fill="rgba(111,166,214,0.5)"/>
        <path id="Path_3892" data-name="Path 3892" d="M3.133,43.373a3.116,3.116,0,0,1,.947.515,5.3,5.3,0,0,0,3.317.734,1.128,1.128,0,0,1,.94.109,6.008,6.008,0,0,1-4.985-1.006.5.5,0,0,1-.219-.352" transform="translate(-1.519 -21.03)" fill="#365997"/>
        <path id="Path_3893" data-name="Path 3893" d="M127.931,10.55l.12-.257a1.03,1.03,0,0,1,1.106-.478.725.725,0,0,0,.13.479c.007.253-.04.351-.356.288-.363-.072-.741-.022-.54.555.092.264,0,.476-.367.511a1.273,1.273,0,0,0-.092-1.1" transform="translate(-62.029 -4.757)" fill="#f39f8f"/>
        <path id="Path_3894" data-name="Path 3894" d="M116.371.72c-.844.341-1.75.489-2.585.879-.5.233-.769.713-1.25.934.217-.708.82-.98,1.421-1.248A5.023,5.023,0,0,1,116.371.72" transform="translate(-54.565 -0.345)" fill="rgba(55,59,93,0.6)"/>
        <path id="Path_3895" data-name="Path 3895" d="M95.586,13.049c-.027.232-.159.247-.349.182-.475-.161-.522.133-.5.486.009.166.2.415-.058.47-.325.069-.211-.292-.255-.44-.171-.571.177-.836,1.04-.832l.125.133" transform="translate(-45.761 -6.262)" fill="#f39a8a"/>
        <path id="Path_3896" data-name="Path 3896" d="M129.269,9.158a2.753,2.753,0,0,0-1.106.478c.031-.24.182-.464.106-.718-.052-.175-.163-.4.1-.455s.314.2.346.4c.011.074-.057.16.05.229a.692.692,0,0,0,.5-.277c.156-.171.111.055.157.1l-.149.237" transform="translate(-62.142 -4.099)" fill="#373b5d"/>
        <path id="Path_3897" data-name="Path 3897" d="M122.514.5c-.02,0-.048,0-.059.008-.417.436-.757.418-1-.168-.027-.122-.218-.138-.19-.3.032-.014.082-.05.1-.04a1.24,1.24,0,0,0,1.253.353c.03-.011.21-.036.078.1-.035.037-.116.028-.176.041" transform="translate(-58.795 0)" fill="#b07771"/>
        <path id="Path_3898" data-name="Path 3898" d="M126.444,2.113a2.316,2.316,0,0,1-1.591-.764,4.271,4.271,0,0,1,1.591.764" transform="translate(-60.537 -0.654)" fill="rgba(55,59,93,0.6)"/>
        <path id="Path_3899" data-name="Path 3899" d="M9.664,39.584c-1.009.84-3.889,1.608-7.185,1.462.062-.078.107-.188.156-.19a18.54,18.54,0,0,0,7.029-1.273" transform="translate(-1.202 -19.193)" fill="#365997"/>
        <path id="Path_3900" data-name="Path 3900" d="M18.5,26.264c.33-.458.823-.773,1.112-1.269a.538.538,0,0,1,.538-.207,1.238,1.238,0,0,0,.705-.123,3.583,3.583,0,0,1-1.167,2.71l-.159-.075c.233-.4.448-.814.7-1.2a3.226,3.226,0,0,0,.353-.841.218.218,0,0,0-.067-.274c-.111-.061-.192.027-.247.115A2.845,2.845,0,0,1,18.5,26.264" transform="translate(-8.971 -11.959)" fill="#365997"/>
        <path id="Path_3901" data-name="Path 3901" d="M10.846,27.769a11.529,11.529,0,0,0,2.2.513c.368.01.244.219.03.363-.02-.169-.108-.265-.284-.241a2.005,2.005,0,0,0-.292.081c-1.328.392-.929.544-1.651-.717" transform="translate(-5.259 -13.464)" fill="#365997"/>
        <path id="Path_3902" data-name="Path 3902" d="M44.486,31.784c-.145.106-.251.294-.455.281-.72-.044-1.111.475-1.535.908a4.623,4.623,0,0,1-3.553,1.1c-.175,0-.352-.161-.525-.3a4.735,4.735,0,0,0,2.685-.234,3.246,3.246,0,0,0,1.369-.9c.4-.446.756-.87,1.425-.748.217.04.336-.377.589-.113v0" transform="translate(-18.628 -15.369)" fill="#f1988a"/>
        <path id="Path_3903" data-name="Path 3903" d="M39.327,31.387c.387-.038.642.055.629.522-.012.435-.149.7-.636.71-.679.009-.5-.563-.562-.9-.071-.4.32-.316.569-.337" transform="translate(-18.788 -15.215)" fill="#f38070"/>
        <path id="Path_3904" data-name="Path 3904" d="M36.626,22.3c.177.142.045.29.016.443a1.486,1.486,0,0,0,.713,1.444c.179.089.334.084.354-.148a.508.508,0,0,1,.474-.475.3.3,0,0,1,.326.228c.09.305-.11.486-.345.634a.465.465,0,0,0-.082.088A1.471,1.471,0,0,1,36.626,22.3" transform="translate(-17.677 -10.812)" fill="rgba(55,59,93,0.6)"/>
        <path id="Path_3905" data-name="Path 3905" d="M39.617,25.9a3.055,3.055,0,0,1,.876.22c.483.1.7-.116.634-.6-.024-.171-.028-.341.205-.359.211-.016.376.075.371.3a3.193,3.193,0,0,1-.112.567,1.518,1.518,0,0,1-1.974-.133" transform="translate(-19.209 -12.2)" fill="rgba(55,59,93,0.6)"/>
        <path id="Path_3906" data-name="Path 3906" d="M37,29.167a.528.528,0,0,1-.251-.388c.054-.213.055-.476.376-.468a.245.245,0,0,1,.234.244c.032.287-.022.535-.359.612" transform="translate(-17.816 -13.727)" fill="#89544c"/>
        <path id="Path_3907" data-name="Path 3907" d="M42.06,29.6c.006-.229.086-.406.347-.406.22,0,.251.168.252.342,0,.221-.06.438-.305.453-.225.013-.284-.19-.294-.389" transform="translate(-20.393 -14.155)" fill="#89594f"/>
        <path id="Path_3908" data-name="Path 3908" d="M46.518,39.693a3.221,3.221,0,0,1-.449,1.2c-.06.118-.147.232-.279.163-.163-.087-.058-.21.026-.293.3-.3.273-.808.7-1.07" transform="translate(-22.161 -19.245)" fill="#f29788"/>
        <path id="Path_3909" data-name="Path 3909" d="M84.768,21.594c-.07-.161-.14-.323-.236-.546a5.518,5.518,0,0,0,2.34-.121c.167-.047.215.049.234.185a1.708,1.708,0,0,1-2.338.482" transform="translate(-40.987 -10.141)" fill="#f5a08b"/>
        <path id="Path_3910" data-name="Path 3910" d="M13.711,16.38a.439.439,0,0,1,.173.533c-.095.258.055.336.28.324s.424-.052.352-.356c-.041-.173-.149-.364.094-.472a.211.211,0,0,1,.276.065.559.559,0,0,1,.007.586c-.362.524-.856.283-1.334.208-.5-.078-.339-.446-.333-.711.01-.383.228-.38.486-.176-.1.094-.208.184-.121.354.025-.129,0-.268.12-.355" transform="translate(-6.399 -7.876)" fill="#db9984"/>
        <path id="Path_3911" data-name="Path 3911" d="M13.394,24.636c0,.3-.138.452-.412.426a.422.422,0,0,1-.426-.428.4.4,0,0,1,.438-.4c.232.017.425.141.4.4" transform="translate(-6.088 -11.748)" fill="#f08073"/>
        <path id="Path_3912" data-name="Path 3912" d="M22.508,21.8c-.507-.04-.917-.041-.728.644.037.134-.065.277-.323.268.227-.36-.3-.862.278-1.122a.571.571,0,0,1,.773.211" transform="translate(-10.402 -10.432)" fill="#f1998a"/>
        <path id="Path_3913" data-name="Path 3913" d="M15.291,21.62a1.225,1.225,0,0,0,1.381.026c-.54.614-.992.589-1.381-.026" transform="translate(-7.414 -10.483)" fill="#aa6e5c"/>
        <path id="Path_3914" data-name="Path 3914" d="M10.033,20.985c.44.377.777.625,1.193.127-.056.427-.284.538-.554.526-.288-.013-.54-.13-.639-.654" transform="translate(-4.865 -10.175)" fill="#a87060"/>
        <path id="Path_3915" data-name="Path 3915" d="M113.3,6.436c.183-.006.334-.143.535-.105.363.069.6-.033.573-.47-.018-.3.179-.512.447-.441s.13.333.046.514-.193.372,0,.558a1.114,1.114,0,0,0,.785.288c.244,0,.1-.214.142-.327.09-.228.194-.54.482-.449s.261.432.124.633c-.308.454.033.481.316.525a.97.97,0,0,0,1.234-.75c.028-.075.031-.174.136-.173s.23.108.2.185c-.112.266.163.506.025.761-.159-.095-.356-.242-.483-.026s.237.149.257.351c-.445.2-.916-.08-1.269-.172a4.868,4.868,0,0,1-2.179-.713.506.506,0,0,0-.5-.111.973.973,0,0,1-.876-.079" transform="translate(-54.936 -2.621)" fill="rgba(55,59,93,0.6)"/>
        <path id="Path_3916" data-name="Path 3916" d="M118.963,14.458c-.007.639-.26.914-.763.869s-.6-.4-.607-.836c0-.59.384-.606.829-.643.589-.048.569.3.541.61" transform="translate(-57.017 -6.712)" fill="#f4806f"/>
        <path id="Path_3917" data-name="Path 3917" d="M115.44,11.029c-.061-.287.109-.415.358-.434.284-.022.316.227.325.418.01.226-.056.472-.345.475s-.379-.188-.337-.459" transform="translate(-55.967 -5.136)" fill="#7d4d46"/>
        <path id="Path_3918" data-name="Path 3918" d="M122.118,11.666c-.024.245-.046.472-.333.45-.267-.021-.3-.233-.3-.453,0-.236.086-.414.342-.413.3,0,.251.26.287.416" transform="translate(-58.906 -5.454)" fill="#815145"/>
        <path id="Path_3919" data-name="Path 3919" d="M115.522,8.812c.22-.286.4-.219.684-.052a.858.858,0,0,1-.684.052" transform="translate(-56.013 -4.177)" fill="#c07a6c"/>
        <path id="Path_3920" data-name="Path 3920" d="M81.993,10.044c.249,0,.279.283.471.362.29.117.639.485.668-.227a.382.382,0,0,1,.432-.355c.268.03.276.255.283.469s-.164.471.24.563a1.4,1.4,0,0,0,1.114-.173c.2-.13.006-.278-.059-.419-.08-.174-.135-.378.123-.447.2-.055.41.043.411.257,0,.467.29.619.669.709.086.02.181.058.019.118a.739.739,0,0,1-.183.019,1.307,1.307,0,0,0-1.1.084,1.113,1.113,0,0,1-1.122.044c-.6-.358-1.464-.036-1.919-.749l-.163-.254c.039-.061.079-.059.118,0" transform="translate(-39.698 -4.752)" fill="rgba(55,59,93,0.6)"/>
        <path id="Path_3921" data-name="Path 3921" d="M85.315,18.272c-.445-.1-.835-.129-.965-.567a.834.834,0,0,1-.066-.233c0-.31.179-.592.47-.492.453.155,1.269-.577,1.348.505a.876.876,0,0,1-.787.787" transform="translate(-40.866 -8.184)" fill="#f4836f"/>
        <path id="Path_3922" data-name="Path 3922" d="M88.556,14.531c-.593-.23-.593-.23-1.085.117a.393.393,0,0,1,.334-.531c.29-.064.613-.078.751.414" transform="translate(-42.4 -6.829)" fill="#a56e5f"/>
        <path id="Path_3923" data-name="Path 3923" d="M83.044,14.643c-.486-.3-.837-.316-1.115.085a.375.375,0,0,1,.274-.554c.308-.087.584.006.841.469" transform="translate(-39.704 -6.858)" fill="#9c6759"/>
        <path id="Path_3924" data-name="Path 3924" d="M81.847,8.894h-.118a1.777,1.777,0,0,1,.007-1.464c.114.482-.111.99.111,1.464" transform="translate(-39.552 -3.602)" fill="#b77162"/>
        <path id="Path_3925" data-name="Path 3925" d="M55.861,36.941c.216-.19.067-.283-.079-.431a2.884,2.884,0,0,0-2.554-1.063.932.932,0,0,1-.252-.042c1.068-.686,3.278.363,3.621,2.157-.347-.088-.5-.406-.737-.621" transform="translate(-25.686 -17.064)" fill="rgba(111,166,214,0.5)"/>
        <path id="Path_3926" data-name="Path 3926" d="M120.829,24.138c-.053.219-.1.423-.4.21a.522.522,0,0,0-.676-.018c-.143.148-.1.429-.09.669a8.478,8.478,0,0,1-.072,1.08,3.076,3.076,0,0,1-2.115.275c-.073-.5.05-1.006-.032-1.522-.054-.342-.095-.506-.452-.5-.039,0-.079-.125-.118-.192a.252.252,0,0,0,.106-.247c.322-.522.322-.522-.37-.637.041-.781.268-1.1.871-1.216a.8.8,0,0,1,1,.721c.039.523.323.663.779.635a1.522,1.522,0,0,1,1.565.747" transform="translate(-56.542 -10.675)" fill="#fdcd6c"/>
        <path id="Path_3927" data-name="Path 3927" d="M116.51,19.29c1.012.971,2.179.929,3.527.437-.967,1.021-3.115.7-3.527-.437" transform="translate(-56.492 -9.353)" fill="#bdcdd6"/>
        <path id="Path_3928" data-name="Path 3928" d="M116.424,24.283c.019-.006.039-.011.058-.019.269-.105.595-.236.756.081.2.393-.238.422-.444.575-.674-.064-.691-.093-.37-.637" transform="translate(-56.352 -11.707)" fill="#f49f64"/>
        <path id="Path_3929" data-name="Path 3929" d="M119.284,33.331a8.959,8.959,0,0,1-4.847-.3,18.808,18.808,0,0,0,4.847.3" transform="translate(-55.487 -16.013)" fill="#bdcdd6"/>
        <path id="Path_3930" data-name="Path 3930" d="M13.868,16.508c-.035.171.064.362-.069.523-.384-.368-.384-.368.07-.522h0" transform="translate(-6.555 -8.004)" fill="#f8b8a1"/>
      </g>
    </g>
    <g id="Group_10" data-name="Group 10" transform="translate(186.241 145.686)">
      <g id="Group_11" data-name="Group 11">
        <path id="Path_3931" data-name="Path 3931" d="M5.5,68.45c-1.747-.15-1.682-1.88-2.411-2.875C1.506,63.413.11,61.106.045,58.282c.84-1.04.312-2.289.5-3.433a25.782,25.782,0,0,1,3.128-8.165A9.732,9.732,0,0,0,5.107,43.45c3.043-3.442,3.733-7.876,5.142-12.02,1.027-3.022,1.889-6.188,4.647-8.259,1.064,2.429.542,4.97.374,7.443a11.152,11.152,0,0,0,.4,5.173c.484,1.183.4,2.092-1.232,2.083a4.843,4.843,0,0,0-2.678,1.135,3.293,3.293,0,0,0,.289,5.927c2.284,1.227,3.827.332,3.931-2.273a9.3,9.3,0,0,0-.454-3.32c-.157-.471-.228-1.029.282-1.327.4-.233.815.055,1.151.3a9.529,9.529,0,0,1,2.5,2.229,7.091,7.091,0,0,1,.718,1.258c.687,1.7,1.781,1.989,3.479,1.384,1.138-.406,2.662-1.509,3.46.616a10.493,10.493,0,0,1-.56,2.672c-.323,1.829.321,2.665,2.183,2.782a3.755,3.755,0,0,0,3.816-1.73c.884-1.46.325-2.7-.5-3.92-.794-1.167-1.684-2.326.362-3.163,2.15-.713,4.217-1.534,5.623-3.477.4-.551.978-1.225,1.749-.7.674.462.5,1.274.277,1.949a46.836,46.836,0,0,1-2.55,5.018c1.447-2.478,3.071-4.894,2.874-7.964a5.211,5.211,0,0,1,.914-1.144c1.416-1.746,1.3-3.407-.528-4.663a3.14,3.14,0,0,1-1.488-2.785C39.113,20.695,36.4,16.563,30.5,14.8c-.542-.161-1.08-.351-1.251-.992,2.227-1.707,4.174-3.865,7.549-3.02a5.184,5.184,0,0,1,3.518,3.054c1.071,2.305,2.438,4.526,2.556,7.253.092,2.125,1.322,4.023,1.867,6.107a42.661,42.661,0,0,1-1.619,26.34A39.146,39.146,0,0,1,34.294,67.6c-2.866,2.888-6.451,5.39-10.966,5.5-2.282-.409-4.533.367-6.847.069A20.2,20.2,0,0,1,5.5,68.45" transform="translate(0.035 -10.595)" fill="#365997"/>
        <path id="Path_3934" data-name="Path 3934" d="M28.6,39.517c-1.419.288-1.3.9-.508,1.871,1.262,1.544,2.36,3.14.847,5.225a4.976,4.976,0,0,1-5.835,1.529,2.128,2.128,0,0,1-1.244-2.593c.229-1.022.567-2.019.856-3.029.54-1.417-.584-1.075-1.209-1.059a10.384,10.384,0,0,1-6.421-1.942l-3.523-3.158c.595,1.852,1.2,3.1,1,4.513-.2,1.4.342,3.121-1.585,3.7a4.7,4.7,0,0,1-4.967-1.991c-1.327-2.106-.761-4.1,1.44-5.459,1.237-.763,2.312-1.883,4.323-.9-2.5-4.981-.337-9.766-.9-14.445,1.461-2.542,3.011-5,5.585-6.612,2.457-1.536,5.027-2.655,8.024-2.39.237.021.5-.237.745-.365,3.091.812,5.954,2.088,7.992,4.635a13.365,13.365,0,0,1,2.642,8.227c.021.7-.267,1.412.621,2.026,3.248,2.247,3.258,4.153.191,6.737-.235.157.132.122-.129.155-3.539.454-5.26,3.6-7.941,5.323" transform="translate(4.057 -9.204)" fill="#f8b8a1"/>
        <path id="Path_3958" data-name="Path 3958" d="M5.142,29.208c.941.867.09,1.6-.282,2.233C2.627,35.209.787,39.085.92,43.611c.021.724-.418.563-.84.431-.574-5.715,2.033-10.347,5.062-14.833" transform="translate(0 3.646)" fill="#365997"/>
        <path id="Path_3961" data-name="Path 3961" d="M3.133,43.373c1.274.224,2.176,1.163,3.244,1.763a18.151,18.151,0,0,0,11.367,2.515c1.038-.124,2.235-.455,3.221.372-6.158,1.154-11.941.459-17.082-3.445a1.722,1.722,0,0,1-.75-1.206" transform="translate(2.397 14.482)" fill="#365997"/>
        <path id="Path_3968" data-name="Path 3968" d="M27.1,39.584c-3.458,2.877-13.324,5.51-24.617,5.011.212-.268.367-.644.533-.65,8.236-.254,16.385-.98,24.084-4.361" transform="translate(1.897 11.584)" fill="#365997"/>
        <path id="Path_3969" data-name="Path 3969" d="M18.5,30.144c1.13-1.571,2.819-2.648,3.811-4.349a1.842,1.842,0,0,1,1.843-.71,4.241,4.241,0,0,0,2.416-.42c.274,3.85-1.642,6.67-4,9.286l-.544-.256c.8-1.375,1.534-2.791,2.415-4.109a11.054,11.054,0,0,0,1.211-2.881.746.746,0,0,0-.231-.939c-.381-.208-.658.094-.847.4-1.41,2.266-3.64,3.281-6.075,3.982" transform="translate(14.156 0.17)" fill="#365997"/>
        <path id="Path_3970" data-name="Path 3970" d="M10.846,27.769c2.512.561,4.872,1.68,7.526,1.756,1.262.035.835.752.1,1.244-.067-.579-.369-.907-.973-.824a6.871,6.871,0,0,0-1,.279c-4.55,1.343-3.182,1.866-5.657-2.455" transform="translate(8.298 2.545)" fill="#365997"/>
        <path id="Path_3979" data-name="Path 3979" d="M14.961,16.711a1.5,1.5,0,0,1,.593,1.825c-.325.884.189,1.151.958,1.11.754-.039,1.454-.178,1.207-1.221-.141-.593-.51-1.248.321-1.617a.721.721,0,0,1,.944.224,1.915,1.915,0,0,1,.023,2.009c-1.239,1.8-2.934.971-4.57.713-1.71-.268-1.163-1.527-1.14-2.438.034-1.313.78-1.3,1.666-.6-.337.323-.711.632-.413,1.214.085-.441,0-.92.409-1.218" transform="translate(10.096 -6.273)" fill="#db9984"/>
        <path id="Path_3980" data-name="Path 3980" d="M15.426,25.621c-.016,1.018-.473,1.55-1.41,1.46a1.447,1.447,0,0,1-1.458-1.465,1.359,1.359,0,0,1,1.5-1.38c.8.058,1.456.482,1.366,1.386" transform="translate(9.607 -0.163)" fill="#f08073"/>
        <path id="Path_3981" data-name="Path 3981" d="M25.065,22.479c-1.737-.136-3.144-.141-2.5,2.206.125.459-.224.95-1.107.918.777-1.234-1.013-2.953.953-3.846a1.955,1.955,0,0,1,2.649.722" transform="translate(16.414 -2.24)" fill="#f1998a"/>
        <path id="Path_3982" data-name="Path 3982" d="M15.291,21.62a4.2,4.2,0,0,0,4.73.09c-1.85,2.1-3.4,2.017-4.73-.09" transform="translate(11.699 -2.16)" fill="#aa6e5c"/>
        <path id="Path_3983" data-name="Path 3983" d="M10.033,20.985c1.509,1.292,2.662,2.141,4.086.436-.191,1.461-.974,1.844-1.9,1.8-.988-.044-1.852-.447-2.189-2.24" transform="translate(7.676 -2.645)" fill="#a87060"/>
        <path id="Path_3999" data-name="Path 3999" d="M14.714,16.508c-.12.586.221,1.239-.235,1.793-1.317-1.262-1.317-1.262.238-1.79l0,0" transform="translate(10.343 -6.071)" fill="#f8b8a1"/>
      </g>
    </g>
    <text id="_" data-name=" " transform="translate(129.896 319.391)" fill="#0060b4" font-size="10" font-family="IBMPlexSansArabic-Light, IBM Plex Sans Arabic" font-weight="300" opacity="0.35"><tspan x="0" y="0"> </tspan></text>
  </g>
</svg>
