<svg id="Group_1076" data-name="Group 1076" xmlns="http://www.w3.org/2000/svg" xmlns:xlink="http://www.w3.org/1999/xlink" width="92.831" height="80.391" viewBox="0 0 92.831 80.391">
  <defs>
    <clipPath id="clip-path">
      <rect id="Rectangle_1696" data-name="Rectangle 1696" width="92.831" height="80.391" fill="none"/>
    </clipPath>
  </defs>
  <g id="Group_555" data-name="Group 555" clip-path="url(#clip-path)">
    <path id="Path_4597" data-name="Path 4597" d="M0,110.263c1.028-2.534,2.307-4.952,3.448-7.434.913-1.984,1.877-3.946,2.818-5.917L7.559,98.1a30.279,30.279,0,0,0,12.954,8.143,17,17,0,0,0-2.679-1.443,23.283,23.283,0,0,1-7.385-5.074c-.755-.75-1.479-1.531-2.218-2.3l-.06-.348.335-.836.044-.066q.225-.511.451-1.023c.566-.023.543.679.99.8a4.049,4.049,0,0,0,.331.464,29.251,29.251,0,0,0,6.689,5.1,45.094,45.094,0,0,0,6.527,2.835,3.273,3.273,0,0,1-.476,1.773c-.269.541-.244.927.467,1.05.277.048.6.1.7.463l-.852,2.624Z" transform="translate(0 -29.872)" fill="#d2c7b7"/>
    <path id="Path_4598" data-name="Path 4598" d="M118.021,98.322c1.424,2.615,2.866,5.22,4.266,7.848a50.226,50.226,0,0,1,2.323,4.51h-22.55c-.114-.877-.662-1.608-.834-2.466.514-.409,1.566.084,1.69-.736.09-.591-.36-1.266-.577-1.9-.024-.071-.1-.123-.155-.184,1.612-.746,3.31-1.288,4.875-2.143a23.693,23.693,0,0,0,6.347-4.588.867.867,0,0,0,.43-.471,5.8,5.8,0,0,0,1.547-1.71l.185.036.132.163a11.1,11.1,0,0,1,.746,1.764,3.707,3.707,0,0,0-.348.349,24.514,24.514,0,0,1-9.474,7.336,8.474,8.474,0,0,0-2.255,1.1,3.441,3.441,0,0,0,.68-.053,29.131,29.131,0,0,0,6.413-3.246,27.353,27.353,0,0,0,5.509-4.736c.286-.327.526-.792,1.048-.87" transform="translate(-31.779 -30.289)" fill="rgba(112,82,37,0.26)"/>
    <path id="Path_4599" data-name="Path 4599" d="M34.068,115.6q.425-1.312.851-2.624a1.9,1.9,0,0,1,.628-.075c.822.189,1.59.309,1.907-.753,1.584,1.049.561,2.274.235,3.453Z" transform="translate(-10.695 -35.206)" fill="rgba(172,125,136,0.15)"/>
    <path id="Path_4600" data-name="Path 4600" d="M100.043,113.287c.172.858.72,1.588.834,2.466H97.914a4.092,4.092,0,0,0-.182-.7c-.351-.772-.513-1.479.421-1.984.11-.06.132-.283.193-.431.258.809.793.972,1.535.659a.525.525,0,0,1,.163-.012" transform="translate(-30.595 -35.361)" fill="rgba(172,125,136,0.15)"/>
    <path id="Path_4601" data-name="Path 4601" d="M28.108,90.769a45.094,45.094,0,0,1-6.527-2.835,29.289,29.289,0,0,1-6.69-5.1,3.991,3.991,0,0,1-.329-.464l.215-.812.285-.429a1.7,1.7,0,0,0,.72.966,18.255,18.255,0,0,0,2.931,1.787,3.279,3.279,0,0,0,2.545.6,12.721,12.721,0,0,1-3.179-2.195c-.884-.775-1.593-1.73-2.541-2.436a41.856,41.856,0,0,0-.175-7.3,24.352,24.352,0,0,1,1.27-10.171c.448-1.32.86-2.658,1.179-4.013a3.048,3.048,0,0,1,2.256-2.341c1.09-.355,2.145-.821,3.216-1.238,1.76-.044,2.4-.74,2.538-2.756.651-.375,1.19.035,1.756.251a2.884,2.884,0,0,1,.6,2.047,7.9,7.9,0,0,1-.6,2.84A15.655,15.655,0,0,1,24.167,60.3l-3.321-1.745a5.129,5.129,0,0,0,3.245,2.41,14.9,14.9,0,0,1-.548,3.023c-.261,1,.017,1.342,1.09,1.371A19.434,19.434,0,0,1,25.61,67.7a23.128,23.128,0,0,1,.861,6.623c.016,1.641-.291,3.269-.167,4.912.18,2.363.849,3.8,3.857,3.785,3.777-.012,7.555.006,11.333.011a19.218,19.218,0,0,1-3.222,2.624,68.319,68.319,0,0,1-6.238,4.082,1.112,1.112,0,0,1-.687.231,23.68,23.68,0,0,1-5.433-1.564c1.545,1.033,3.006,2.2,4.888,2.569-.044.449-.314.4-.648.331a11.535,11.535,0,0,0-2.046-.539" transform="translate(-4.572 -16.288)" fill="#edb38e"/>
    <path id="Path_4602" data-name="Path 4602" d="M33.535,44.031a7.88,7.88,0,0,0,.6-2.839,2.885,2.885,0,0,0-.6-2.047c.01-.464.03-.93.03-1.394q0-13.02,0-26.039c0-1.38.3-1.69,1.683-1.688,3.257,0,6.516.021,9.774.034q.04.943.081,1.886l-.064.533c-2.715,0-5.43.036-8.144-.01-.788-.013-1,.194-1,1q.037,25.749.019,51.5a3.42,3.42,0,0,1,0,.411c-.049.42.106.591.548.569.657-.031,1.317-.005,1.974-.006l26.737-.017a17.6,17.6,0,0,1,2.438,2.453q-7.183.014-14.367.03c-1.4,0-2.791.018-4.186.027-1.778-.008-3.557-.022-5.335-.025-2.9,0-5.8,0-8.7-.005-1.118,0-1.447-.355-1.452-1.489,0-.383,0-.766,0-1.149q-.014-7.717-.03-15.433,0-3.147,0-6.293" transform="translate(-10.528 -3.147)" fill="#705225"/>
    <path id="Path_4603" data-name="Path 4603" d="M82.012,10.033c3.344,0,6.688-.014,10.032-.008,1.045,0,1.412.425,1.412,1.559q0,19.034,0,38.069c0,.437-.016.875-.024,1.312l-.561.013a3.862,3.862,0,0,1-1.812-1.526c.007-.082.019-.163.019-.246q0-18.015.018-36.031c0-.617-.227-.707-.765-.7-2.77.023-5.539.009-8.309.008l-.082-.551c0-.108.008-.217.011-.325a3.981,3.981,0,0,0,0-1.282c.023-.1.045-.193.067-.29" transform="translate(-25.722 -3.147)" fill="#705225"/>
    <path id="Path_4604" data-name="Path 4604" d="M72.074,6.885c-.022.1-.044.194-.067.291a1.812,1.812,0,0,0,0,1.282c0,.108-.008.217-.011.325-.729,0-1.459.01-2.187.011l-19.449,0q-.04-.943-.081-1.886.02-.944.038-1.888c.018-.927.313-1.24,1.231-1.244,1.672-.008,3.344-.008,5.015.011.5.005.764-.089.877-.676A3.788,3.788,0,0,1,64.894,3.1c.108.571.32.693.848.685,1.7-.023,3.4-.01,5.1.012.853.012,1.179.361,1.2,1.2.016.629.024,1.259.036,1.889m-10.9-5.052A1.9,1.9,0,0,0,59.22,3.8a1.9,1.9,0,0,0,1.973,1.957,2.022,2.022,0,0,0,1.957-1.94,1.974,1.974,0,0,0-1.98-1.986" transform="translate(-15.785 0)" fill="#b4a680"/>
    <path id="Path_4605" data-name="Path 4605" d="M97.869,69.712l.561-.013c1.626.469,3.286.81,4.872,1.438a5.609,5.609,0,0,1,3.327,3.378c1.441,3.639,2.764,7.32,4.11,10.993.375,1.026.888,2,1.339,3a3.982,3.982,0,0,0,.705,1.275.867.867,0,0,1-.43.471c-.342-.056-.4-.379-.488-.607-.811-2.019-1.927-3.89-2.755-5.909-1.207-2.946-2.634-5.806-4.053-8.66a6,6,0,0,0-3.865-3.146,5.9,5.9,0,0,1-3.322-2.22" transform="translate(-30.725 -21.881)" fill="#d89d7a"/>
    <path id="Path_4606" data-name="Path 4606" d="M119.46,99.038c-.521.078-.762.543-1.048.87a27.354,27.354,0,0,1-5.509,4.736,29.131,29.131,0,0,1-6.413,3.246,3.441,3.441,0,0,1-.68.053,8.474,8.474,0,0,1,2.255-1.1,24.514,24.514,0,0,0,9.474-7.336,3.706,3.706,0,0,1,.348-.349c.378.108.652-.158.966-.274.244-.089.5-.29.607.152" transform="translate(-33.218 -31.005)" fill="rgba(172,125,136,0.15)"/>
    <path id="Path_4607" data-name="Path 4607" d="M15.767,92.658c.949.706,1.658,1.662,2.541,2.436a12.715,12.715,0,0,0,3.179,2.195,3.274,3.274,0,0,1-2.545-.6A18.211,18.211,0,0,1,16.011,94.9a1.7,1.7,0,0,1-.72-.965q.238-.638.476-1.275" transform="translate(-4.8 -29.089)" fill="#d89d7a"/>
    <path id="Path_4608" data-name="Path 4608" d="M32.43,38.53V12.741h.082V38.528Z" transform="translate(-10.181 -4)" fill="#76dbf9"/>
    <path id="Path_4609" data-name="Path 4609" d="M29.815,52.1c-.138,2.016-.779,2.713-2.538,2.757.584-.615,1.172-1.226,1.75-1.847.273-.293.526-.605.788-.91" transform="translate(-8.563 -16.358)" fill="#e6e6e6"/>
    <path id="Path_4610" data-name="Path 4610" d="M119.286,98.145a3.976,3.976,0,0,1-.705-1.275,3.824,3.824,0,0,0,1.4-.4.837.837,0,0,1,.853-.038,5.812,5.812,0,0,1-1.547,1.71" transform="translate(-37.227 -30.243)" fill="rgba(172,125,136,0.15)"/>
    <path id="Path_4611" data-name="Path 4611" d="M10.427,98.843,9.134,97.659c.334-.293.614-.016.9.095.33.127.648.325,1,.069.019.116.04.233.06.349-.34.108-.267.628-.672.672" transform="translate(-2.867 -30.618)" fill="rgba(172,125,136,0.15)"/>
    <path id="Path_4612" data-name="Path 4612" d="M72.823,4.975h4.925c0,.024,0,.047,0,.071H72.822c0-.024,0-.047,0-.071" transform="translate(-22.861 -1.562)" fill="#76dbf9"/>
    <path id="Path_4613" data-name="Path 4613" d="M56.642,5.048H51.691V4.966h4.951v.082" transform="translate(-16.228 -1.559)" fill="#76dbf9"/>
    <path id="Path_4614" data-name="Path 4614" d="M14.323,95.049l-.215.811c-.447-.124-.425-.827-.991-.8.4-.39.8-.143,1.205-.008" transform="translate(-4.118 -29.776)" fill="rgba(172,125,136,0.15)"/>
    <path id="Path_4615" data-name="Path 4615" d="M12.44,96.644l-.044.067v-.048Z" transform="translate(-3.891 -30.34)" fill="#dadcdc"/>
    <path id="Path_4616" data-name="Path 4616" d="M122.264,96.7l-.132-.163.132.163" transform="translate(-38.342 -30.305)" fill="#dadcdc"/>
    <path id="Path_4617" data-name="Path 4617" d="M91.4,68.489a5.9,5.9,0,0,0,3.322,2.22,6,6,0,0,1,3.865,3.146c1.419,2.854,2.846,5.714,4.053,8.66.828,2.019,1.944,3.89,2.755,5.909.091.228.147.552.488.607a23.721,23.721,0,0,1-6.347,4.588c-1.565.853-3.264,1.4-4.874,2.142l-.6.055c.067-.512-.316-.86-.49-1.28-.222-.534-.284-.862.472-.918a7.626,7.626,0,0,0,2.75-1.142.871.871,0,0,0-.738-.08c-.917.146-1.832.346-2.756.4-1.7.108-3.041-.922-4.527-1.505-.8-.316-1.384-1.087-2.322-1.1a37.652,37.652,0,0,1-4.44-3.714c-.215-.207-.444-.4-.667-.6A17.609,17.609,0,0,0,78.9,83.428c-.05-.545-.471-.856-.809-1.193a2.71,2.71,0,0,1-.676-2.932c.34-1.151.565-2.334.882-3.491a1.552,1.552,0,0,0-.582-1.878c-.535-.374-.364-.728.041-1.045a4.124,4.124,0,0,1,.646-.345,2.938,2.938,0,0,1,1.619.549.57.57,0,0,0,.426.311l.26.186-.04,0a4.469,4.469,0,0,1,1.027,1.617l.134.174.021.027A7.02,7.02,0,0,0,83.524,80c1.068.854,1.671.739,2.376-.454l.462-.255.932.534,8.3,6.428-.4.417c-1.057-.812-2.092-1.654-3.176-2.428a21.046,21.046,0,0,0-3.035-2.169,1.077,1.077,0,0,0-.095-.221c-.176-.244-.366-.5-.721-.364-.223.082-.506.193-.539.431-.04.293.252.442.469.6.161.117.318.237.476.355.287.208.578.412.862.625q2.627,1.973,5.251,3.948c.539.734.74.751,1.275.11l.517-.616.517.3c.3.278.484.695.96.738.5.487,1.017.888,1.645.17l.2-.017.885.641c.325.309.664.368.937-.037s.064-.7-.308-.908l-.75-.586c.133-.749.281-1.505-.763-1.738-.09-.48-.521-.6-.862-.811-.866-.669-1.728-1.343-2.6-2.006q-3.557-2.711-7.118-5.415a2.059,2.059,0,0,0-1.022-.781l-.26-.293a3.58,3.58,0,0,0-.284-2.752c-1.389-2.259-3.272-2.7-5.166-1.131a1.973,1.973,0,0,0-.724.054A1.915,1.915,0,0,1,79.4,70.248l.187-.038.119-.1.016-.019c1.034-.221,1.348-.7,1.294-1.97.257-.3.707-.386.88-.781A14.494,14.494,0,0,0,84.511,66c.484-.059.968-.125,1.454-.176a5.046,5.046,0,0,1,3.62,1.135A3.856,3.856,0,0,0,91.4,68.489" transform="translate(-24.252 -20.658)" fill="#edb38e"/>
    <path id="Path_4618" data-name="Path 4618" d="M32.191,68.766q.015,7.716.03,15.433c0,.383,0,.766,0,1.149,0,1.134.334,1.485,1.452,1.489,2.9.008,5.8,0,8.7,0,1.778,0,3.557.016,5.335.025a5.814,5.814,0,0,1-1.61,1.467c-3.777,0-7.555-.023-11.332-.01-3.009.01-3.677-1.422-3.857-3.786-.125-1.642.183-3.27.166-4.912A23.151,23.151,0,0,0,30.219,73a19.492,19.492,0,0,0-.977-2.341,24.085,24.085,0,0,1,2.949-1.9" transform="translate(-9.18 -21.588)" fill="#d89d7a"/>
    <path id="Path_4619" data-name="Path 4619" d="M34.016,108.562a11.535,11.535,0,0,1,2.046.539c.334.071.6.118.647-.332l.22-.075c1.082.644.541,1.505.311,2.325-.318,1.063-1.087.943-1.908.754a1.9,1.9,0,0,0-.628.075c-.093-.362-.42-.414-.7-.462-.711-.123-.736-.509-.467-1.05a3.265,3.265,0,0,0,.477-1.773" transform="translate(-10.479 -34.082)" fill="rgba(172,125,136,0.15)"/>
    <path id="Path_4620" data-name="Path 4620" d="M100.669,109.525l.6-.055c.053.06.13.113.154.183.217.635.668,1.31.578,1.9-.125.82-1.177.327-1.69.736a.5.5,0,0,0-.163.012c-.742.312-1.277.15-1.535-.66q-.147-.485-.3-.971c.11-.515.5-.655.951-.683a1.285,1.285,0,0,0,.88-.308l.237-.023.034-.018.248-.116" transform="translate(-30.866 -34.367)" fill="rgba(172,125,136,0.15)"/>
    <path id="Path_4621" data-name="Path 4621" d="M97.981,107.111l-.237.023-.618-1.3a4.212,4.212,0,0,0-2.39-2.074,18.3,18.3,0,0,1-4.083-2.409c.938.016,1.517.788,2.322,1.1,1.486.582,2.83,1.612,4.527,1.505.923-.059,1.838-.259,2.755-.4a.867.867,0,0,1,.738.08,7.631,7.631,0,0,1-2.75,1.142c-.756.056-.694.384-.473.917.175.421.556.768.49,1.281l-.246.115-.025-.017Z" transform="translate(-28.459 -31.818)" fill="#d89d7a"/>
    <path id="Path_4622" data-name="Path 4622" d="M36.215,107.614l-.22.075c-1.882-.37-3.342-1.537-4.888-2.569a23.7,23.7,0,0,0,5.434,1.564,2.3,2.3,0,0,0-.327.929" transform="translate(-9.766 -33.001)" fill="#d89d7a"/>
    <path id="Path_4623" data-name="Path 4623" d="M99.478,107.886l.618,1.3a1.282,1.282,0,0,1-.88.309c-.449.028-.84.167-.95.683-.294-.434.02-.7.264-.993.344-.411.818-.729.947-1.3" transform="translate(-30.812 -33.869)" fill="rgba(172,125,136,0.15)"/>
    <path id="Path_4624" data-name="Path 4624" d="M11.018,99.138c.4-.043.332-.563.672-.672.738.766,1.462,1.547,2.217,2.3a23.3,23.3,0,0,0,7.385,5.075,16.964,16.964,0,0,1,2.679,1.443,30.283,30.283,0,0,1-12.954-8.143" transform="translate(-3.459 -30.912)" fill="rgba(172,125,136,0.15)"/>
    <path id="Path_4625" data-name="Path 4625" d="M27.043,63.356c-.025.222-.05.443-.075.665a5.132,5.132,0,0,1-3.246-2.41l3.321,1.745" transform="translate(-7.447 -19.342)" fill="#d89d7a"/>
    <path id="Path_4626" data-name="Path 4626" d="M69.251,50.951c-.174.4-.623.481-.88.781a1.839,1.839,0,0,0-.982.967c-.6.115-1.248-.111-1.826.216l-.282-.057-.2-.126a3.032,3.032,0,0,0-1.045-.781l-1.4-.723c.318-.24.687-.135,1.035-.139,1.09-.011,2.181-.023,3.27,0,.624.014.8-.281.8-.855,0-.605-.335-.644-.794-.643-4.517.006-9.034.012-13.552-.007-.593,0-.827.169-.822.793s.3.716.818.712c1.972-.017,3.945,0,5.917-.017.427,0,.871.185,1.289-.062l.766.552c-.179.482.344.624.465.96-.235.266-.554.2-.847.2-1.123.006-2.247.019-3.37,0-.511-.01-.77.141-.742.7.024.486-.018.964.687.955,2-.027,3.994-.042,5.991-.062.1.043.1.231.264.186l1.947,1.658a4.093,4.093,0,0,0-.646.345c-.405.318-.576.671-.041,1.046a1.551,1.551,0,0,1,.582,1.877c-.317,1.157-.543,2.341-.882,3.491a2.709,2.709,0,0,0,.676,2.932c.338.337.759.648.809,1.193l-26.737.017c-.658,0-1.317-.025-1.974.006-.442.021-.6-.15-.548-.569a3.582,3.582,0,0,0,0-.412q0-25.748-.019-51.5c0-.8.209-1.009,1-.995,2.714.045,5.43.012,8.145.009-.088.762.213.993,1.006.99q9.851-.048,19.7.008c.777,0,1.187-.15,1.075-.993,2.77,0,5.539.015,8.308-.008.538,0,.766.084.766.7q-.03,18.015-.019,36.031c0,.082-.012.164-.018.246a5.049,5.049,0,0,0-3.62-1.135c-.486.051-.969.117-1.454.176-.676,0-1.353,0-2.029-.017-.451-.014-.65.18-.621.627.016.243.021.486.032.729M40.476,32.126l8.05-.014c.137.01.273.023.41.027,1.176.041,1.177.04,1.177-1.133,0-3.067-.014-6.134.012-9.2.005-.633-.165-.864-.83-.858q-4.766.044-9.531,0c-.633,0-.859.169-.852.833.032,2.957.012,5.915.012,8.873,0,1.547,0,1.547,1.552,1.472M38.92,60.513a4.405,4.405,0,1,0,4.516-4.331,4.371,4.371,0,0,0-4.516,4.331M57.1,18.657c3.647,0,7.295-.013,10.943.012.639,0,.86-.181.861-.84,0-.847-.508-.818-1.09-.817q-10.778.006-21.557,0c-.137,0-.274,0-.411,0-.439-.008-.637.2-.665.644-.051.815.1.993.976.993q5.472.006,10.943,0m-2.609,29.3c2.438,0,4.875,0,7.313-.005.3,0,.674.121.813-.342.257-.861-.043-1.293-.935-1.293q-6.984,0-13.968,0c-.191,0-.384,0-.574.014-.6.045-.838.334-.822.964.016.661.384.667.862.665,2.437-.008,4.874,0,7.312,0m5.182-9.54h.411c2.3,0,4.6,0,6.9-.006.277,0,.636.106.716-.341a.9.9,0,0,0-.96-1.141c-4.82,0-9.639,0-14.458-.008-.548,0-.864.084-.866.751s.316.756.864.753c2.464-.017,4.929-.008,7.393-.007M53.9,40.053h-.493c-2.111,0-4.221.013-6.332,0-.816-.007-.738.536-.742,1.067-.005.681.4.582.834.462a1.174,1.174,0,0,1,.326-.032c4.494.037,8.988-.1,13.48.073.2.008.364.051.471-.186a.916.916,0,0,0-.882-1.376c-2.221-.007-4.441,0-6.662,0m14.569-19.1c-1.97,0-3.941.024-5.91-.013-.642-.012-.783.235-.777.818.006.563.106.843.764.839q5.91-.039,11.82,0c.637,0,.779-.235.781-.821s-.125-.844-.768-.833c-1.97.032-3.94.011-5.91.012m-.065,14.32c1.917,0,3.834-.01,5.75.005.568,0,.991.021.986-.788s-.413-.857-1.033-.854q-5.708.021-11.417,0c-.634,0-.927.122-.937.85-.012.8.408.8.984.8,1.889-.017,3.779-.007,5.668-.008M50.785,44.825c1.835,0,3.67-.012,5.5.006.658.007.756-.355.757-.894,0-.489-.1-.762-.679-.759q-5.546.025-11.092,0c-.658,0-.744.357-.76.893-.017.572.195.769.765.762,1.835-.025,3.67-.01,5.5-.01M49.5,54.369c1.7,0,3.4-.006,5.1,0,.483,0,.766-.13.8-.686.04-.7-.2-.978-.936-.971-3.29.027-6.581.02-9.872,0-.579,0-.919.075-.908.793s.331.877.963.866c1.617-.025,3.235-.008,4.854-.009M64.449,43.184c-1.561,0-3.122,0-4.683,0-.613,0-1.257-.1-1.245.843.012.888.618.8,1.2.8q4.725-.006,9.449,0c.567,0,1.065.073,1.063-.8,0-.823-.405-.858-1.024-.849-1.588.023-3.176.008-4.765.008m4.739-3.131c-1.641,0-3.283,0-4.924,0-.893,0-1.03.181-.974,1.074.052.829.572.5,1,.449a7.425,7.425,0,0,1,.9-.036q4.676.019,9.353.046c.137,0,.3.057.361-.094a2.054,2.054,0,0,0,.038-1.131c-.067-.362-.406-.306-.67-.307-1.7,0-3.393,0-5.089,0M44.86,51.085c1.67,0,3.34.011,5.009-.01.308,0,.837.249.771-.472-.047-.515.085-1.029-.76-1.02-3.394.036-6.788.023-10.182.005-.554,0-.783.161-.781.746s.2.767.77.759c1.724-.026,3.448-.01,5.173-.008M69.8,47.951c1.479,0,2.959-.019,4.438.01.577.012.774-.2.761-.765-.012-.544-.113-.893-.764-.889q-4.438.022-8.877,0c-.657,0-.746.356-.762.893-.016.571.193.773.766.762,1.478-.029,2.958-.01,4.438-.01M44.235,36.923c-1.481,0-2.962.012-4.443-.007-.534-.006-.88.052-.878.737,0,.651.281.772.849.768q4.443-.029,8.885,0c.58,0,.842-.141.836-.779-.006-.611-.274-.733-.806-.725-1.481.022-2.962.008-4.442.008M65.147,25.735c1.371,0,2.743-.014,4.114.008.534.009.81-.121.8-.731-.009-.558-.18-.777-.762-.773q-4.114.032-8.228,0c-.583,0-.752.215-.758.775-.007.608.267.738.8.729,1.344-.023,2.688-.008,4.032-.007M62.43,28.867c1.2,0,2.408-.016,3.612.008.53.01.723-.187.725-.719s-.148-.792-.742-.786c-2.408.023-4.816.015-7.224,0-.464,0-.792.047-.786.648,0,.578.185.862.8.851,1.2-.023,2.407-.007,3.611-.006m-2.776,1.642c-.847,0-1.694.027-2.538-.009-.586-.025-.762.22-.749.773s.118.9.767.882c1.146-.024,2.294,0,3.44-.007.573,0,1.148,0,1.718-.037.543-.04.7-.379.681-.906-.025-.543-.285-.708-.779-.7-.847.014-1.693,0-2.539,0m8.6,0c-.767,0-1.535.019-2.3-.006-.538-.017-.884.058-.875.738.01.632.244.911.864.909,1.588,0,3.177-.016,4.765.008.591.009.67-.308.657-.781-.014-.454.036-.9-.647-.873-.821.029-1.643.007-2.464.005M41.787,47.951c.685,0,1.369-.019,2.053.006.534.019.887-.049.875-.733-.01-.63-.242-.914-.862-.912-1.424,0-2.848.018-4.271-.008-.594-.011-.668.309-.655.779.012.453-.043.9.642.873.738-.029,1.478-.006,2.217-.005m30.242-20.57c-.847,0-1.695.015-2.541-.005-.552-.014-.613.307-.609.74s.034.759.6.755c1.667-.014,3.334-.01,5,0,.562,0,.657-.331.675-.8.022-.56-.239-.706-.744-.69-.792.025-1.585.007-2.377.009M55.5,24.194c0,.012,0,.025,0,.037-.767,0-1.535.023-2.3-.011-.331-.015-.648-.086-.589.385.051.4-.289,1.078.451,1.1,1.67.058,3.344.049,5.014,0,.713-.02.4-.648.436-1.029.032-.351-.126-.527-.548-.5-.818.047-1.641.014-2.462.014M44.687,40.915c.1-.683-.254-.884-.906-.87q-2.008.042-4.018,0c-.562-.011-.849.107-.849.761,0,.674.329.745.869.743,1.392,0,2.79-.036,4.175.08.659.055.78-.149.73-.714m27.427-2.507v0c.74,0,1.482-.021,2.221.007.6.023.655-.317.657-.786s-.117-.72-.643-.714q-2.263.027-4.526,0c-.554-.006-.615.307-.61.742s.029.769.6.754c.767-.021,1.535-.005,2.3-.005M54.574,59.151q-1.845,0-3.69,0c-.287,0-.576.02-.576.408s.289.407.576.407q3.649,0,7.3,0c.32,0,.641-.062.624-.471s-.366-.337-.624-.339c-1.2-.008-2.405,0-3.608,0M41.034,44.825c.464,0,.93-.02,1.393,0,.626.034.8-.283.793-.853,0-.545-.193-.81-.766-.8-.874.021-1.75.036-2.622-.006-.648-.031-.923.145-.923.858s.306.841.9.8c.408-.029.819-.005,1.229-.006M54.556,28.867v0c.438,0,.877,0,1.315,0,.587-.006.609-.466.651-.867.049-.468-.246-.618-.667-.616-.794,0-1.59.013-2.383-.006-.517-.012-.884.018-.9.716-.015.729.346.816.913.781.355-.022.712,0,1.068,0M73.274,44.825c.328,0,.657-.019.984,0,.513.036.76-.148.734-.7-.023-.491,0-.96-.694-.947-.574.011-1.15.03-1.721-.008-.685-.045-.9.248-.907.915s.327.779.867.738c.244-.019.491,0,.737,0m-32.73,9.542c.328,0,.657-.01.984,0,.616.024.707-.352.705-.851,0-.48-.126-.8-.683-.792-.683.011-1.366,0-2.049,0-.257,0-.469.04-.556.355-.244.876.04,1.277.944,1.283.218,0,.437,0,.655,0m32.8-28.633v-.005c.437,0,.875.024,1.309-.005.721-.049.446-.621.473-1,.031-.436-.2-.7-.657-.58a7.164,7.164,0,0,1-1.954.1c-.556-.011-.852.1-.854.759s.322.781.865.74c.271-.021.545,0,.818,0M58.136,57.989v0c.709,0,1.419.007,2.128,0,.314,0,.722.071.695-.442-.024-.45-.4-.368-.685-.37q-2.169-.01-4.338,0c-.282,0-.675-.084-.67.375.005.4.346.436.66.437.737,0,1.473,0,2.21,0m.274,5.27c-.738,0-1.476,0-2.214,0-.285,0-.585.054-.583.42,0,.314.265.388.527.389,1.448,0,2.9,0,4.346,0,.279,0,.488-.091.481-.417s-.237-.394-.506-.4c-.683,0-1.367,0-2.05,0m-4.975-1.313c.818,0,1.638.008,2.456,0,.224,0,.569.086.581-.27.013-.37-.325-.386-.6-.387q-2.5-.007-4.995,0c-.241,0-.545-.016-.537.34s.319.316.555.318c.846.008,1.692,0,2.538,0m.15-29.8c.185,0,.266-.005.347,0,.588.043.987-.066.987-.815s-.373-.875-.975-.829a3.029,3.029,0,0,1-.569,0c-.607-.069-.783.2-.8.793-.024.875.489.9,1.008.851M52.439,64.076q.863,0,1.726,0c.3,0,.563-.05.545-.438-.016-.342-.268-.374-.526-.375q-1.685-.005-3.37,0c-.271,0-.5.067-.507.4s.212.414.488.415c.547,0,1.1,0,1.644,0M74.262,30.513c-.57,0-1.118-.145-1.112.718.005.769.379.918,1.023.928.608.01.973-.095.99-.84.017-.768-.349-.889-.9-.807M52.124,57.987V57.98c.517,0,1.035.006,1.552,0a.343.343,0,0,0,.378-.343c.014-.211-.047-.414-.279-.425a19.887,19.887,0,0,0-3.177.024.4.4,0,0,0-.375.459c.043.279.294.288.512.292.463.008.925,0,1.389,0M59.3,61.939c.411,0,.821,0,1.231,0,.2,0,.394-.055.408-.305s-.163-.335-.37-.338q-1.231-.01-2.462,0c-.21,0-.383.093-.366.342s.211.3.411.3c.383.007.766,0,1.149,0m1.148-2.788c-.266.014-.589-.025-.577.377.01.344.275.43.571.433.255,0,.5-.023.524-.358.027-.376-.213-.451-.518-.451" transform="translate(-11.61 -4.265)" fill="#fcfcfc"/>
    <path id="Path_4627" data-name="Path 4627" d="M72.081,13.353c.112.843-.3,1-1.075.994q-9.849-.052-19.7-.008c-.794,0-1.094-.228-1.007-.99l.064-.533q9.724,0,19.448,0c.729,0,1.459-.007,2.187-.011.028.184.056.367.083.551" transform="translate(-15.786 -4.019)" fill="#d7d2b5"/>
    <path id="Path_4628" data-name="Path 4628" d="M81.9,11.742a1.812,1.812,0,0,1,0-1.282,3.976,3.976,0,0,1,0,1.282" transform="translate(-25.674 -3.284)" fill="#b4a680"/>
    <path id="Path_4629" data-name="Path 4629" d="M94.141,82.512q3.561,2.708,7.12,5.416c.87.663,1.732,1.336,2.6,2.005l-1.37,1.748a2.2,2.2,0,0,1-.507-.241c-1.719-1.441-3.63-2.624-5.336-4.092-1.236-1.063-2.759-1.789-3.747-3.155l.05.015c.182-.06.22-.207.224-.373l.968-1.323" transform="translate(-29.164 -25.904)" fill="#434344"/>
    <path id="Path_4630" data-name="Path 4630" d="M78.224,70.829l.282.057,1.192.94a1.915,1.915,0,0,0,2.377,2.116,1.973,1.973,0,0,1,.724-.054,4.143,4.143,0,0,0,.414.379q2.514,1.757,5.036,3.5l.26.293a18.5,18.5,0,0,1-1.381,1.7c-.666-.149-1.025-.71-1.524-1.09q-2.047-1.558-4-3.229c-.2-.17-.364-.324-.639-.269l.04,0-.26-.186a.571.571,0,0,1-.426-.311c.137-.152.07-.429,0-.438-.724-.092-.774-.882-1.2-1.164a2.161,2.161,0,0,1-.9-2.239" transform="translate(-24.553 -22.236)" fill="#434344"/>
    <path id="Path_4631" data-name="Path 4631" d="M90.349,78.744q-2.519-1.75-5.036-3.5a4.062,4.062,0,0,1-.414-.379c1.895-1.571,3.777-1.128,5.166,1.131a3.58,3.58,0,0,1,.284,2.752" transform="translate(-26.653 -23.209)" fill="#d89d7a"/>
    <path id="Path_4632" data-name="Path 4632" d="M92.582,84.963c.989,1.366,2.511,2.092,3.747,3.155,1.706,1.467,3.617,2.651,5.336,4.092a2.2,2.2,0,0,0,.507.241l-.577.8-.516-.3a2.888,2.888,0,0,0-.887-.689l-8.3-6.428a2.09,2.09,0,0,1,.694-.875" transform="translate(-28.847 -26.673)" fill="#3b3735"/>
    <path id="Path_4633" data-name="Path 4633" d="M85.628,84.4a7.019,7.019,0,0,1-1.675-4.587l4.415,3.652c.032.075.065.15.1.225L88,83.941c-.211-.13-.433-.276-.654-.042a2.09,2.09,0,0,1-1.723.5" transform="translate(-26.356 -25.055)" fill="#d89d7a"/>
    <path id="Path_4634" data-name="Path 4634" d="M99.874,94.89q-2.626-1.975-5.252-3.948c-.283-.213-.575-.417-.862-.625.016-.328.3-.518.409-.8A21.007,21.007,0,0,1,97.2,91.685c1.084.774,2.12,1.616,3.176,2.427l-.507.778" transform="translate(-29.435 -28.102)" fill="#434344"/>
    <path id="Path_4635" data-name="Path 4635" d="M87.826,82.624l-4.415-3.653-.021-.027-.134-.174a4.469,4.469,0,0,0-1.027-1.617c.275-.055.439.1.639.269q1.956,1.666,4,3.229c.5.379.858.941,1.524,1.089l-.564.882" transform="translate(-25.815 -24.218)" fill="#3b3735"/>
    <path id="Path_4636" data-name="Path 4636" d="M90.387,83.952l.564-.882a18.5,18.5,0,0,0,1.381-1.7,2.059,2.059,0,0,1,1.022.781l-.969,1.323a.409.409,0,0,0-.224.373l-.05-.015a2.09,2.09,0,0,0-.694.875l-.932-.534c-.032-.075-.064-.151-.1-.226" transform="translate(-28.376 -25.546)" fill="#d7d2b5"/>
    <path id="Path_4637" data-name="Path 4637" d="M77.558,70.772a2.161,2.161,0,0,0,.9,2.239c.427.283.476,1.072,1.2,1.164.069.009.136.287,0,.438a2.937,2.937,0,0,0-1.619-.549l-1.946-1.658a5.29,5.29,0,0,1,.964-1.242c.07.018.172.074.205.047.114-.095.03-.18-.051-.254l.151-.312.2.126" transform="translate(-23.888 -22.178)" fill="#3b3735"/>
    <path id="Path_4638" data-name="Path 4638" d="M106.036,95.877l.577-.8,1.37-1.748c.342.213.772.332.862.812l-.838,1.2L107,96.614c-.476-.042-.665-.459-.96-.737" transform="translate(-33.289 -29.299)" fill="#d7d2b5"/>
    <path id="Path_4639" data-name="Path 4639" d="M108.816,95.717l.838-1.2c1.045.233.9.989.763,1.738a.933.933,0,0,0-.764.89l-.2.017c-.6-.309-1.148-.641-.635-1.441" transform="translate(-34.097 -29.671)" fill="#434344"/>
    <path id="Path_4640" data-name="Path 4640" d="M84,67.428c-.01-.243-.015-.486-.032-.729-.03-.447.169-.641.621-.627.676.02,1.352.012,2.029.017A14.535,14.535,0,0,1,84,67.428" transform="translate(-26.36 -20.742)" fill="#e6e6e6"/>
    <path id="Path_4641" data-name="Path 4641" d="M102.671,96.8l.507-.778.4-.416a2.9,2.9,0,0,1,.887.689c-.173.2-.346.41-.519.615-.535.641-.736.624-1.274-.11" transform="translate(-32.232 -30.015)" fill="#d7d2b5"/>
    <path id="Path_4642" data-name="Path 4642" d="M110.129,97.936a.933.933,0,0,1,.764-.89l.749.585-.629.945-.884-.641" transform="translate(-34.574 -30.466)" fill="#3b3735"/>
    <path id="Path_4643" data-name="Path 4643" d="M86.394,86.211a2.09,2.09,0,0,0,1.723-.5c.221-.234.443-.089.654.042-.706,1.194-1.308,1.309-2.377.455" transform="translate(-27.122 -26.87)" fill="#e6e6e6"/>
    <path id="Path_4644" data-name="Path 4644" d="M93.736,89.233c-.106.283-.394.472-.409.8-.159-.119-.317-.239-.477-.355-.217-.157-.509-.306-.469-.6.033-.237.316-.348.539-.43.355-.132.545.12.721.364a1.062,1.062,0,0,1,.095.221" transform="translate(-29.001 -27.819)" fill="#d7d2b5"/>
    <path id="Path_4645" data-name="Path 4645" d="M81.151,70.154a1.837,1.837,0,0,1,.981-.966c.055,1.271-.259,1.749-1.293,1.97-.139-.41.453-.593.312-1" transform="translate(-25.372 -21.721)" fill="#e6e6e6"/>
    <path id="Path_4646" data-name="Path 4646" d="M108.447,96.268c-.513.8.034,1.131.635,1.44-.628.718-1.141.317-1.645-.17l1.011-1.27" transform="translate(-33.728 -30.222)" fill="#3b3735"/>
    <path id="Path_4647" data-name="Path 4647" d="M80.468,70.6c.141.411-.451.594-.312,1l-.016.019a.344.344,0,0,0-.119.1l-.187.037-1.192-.94c.578-.327,1.223-.1,1.826-.216" transform="translate(-24.689 -22.163)" fill="#dadcdc"/>
    <path id="Path_4648" data-name="Path 4648" d="M111.418,98.844l.63-.945c.371.213.58.5.307.908s-.611.346-.937.037" transform="translate(-34.978 -30.734)" fill="#434344"/>
    <path id="Path_4649" data-name="Path 4649" d="M83.727,79.516l.134.174-.134-.174" transform="translate(-26.285 -24.963)" fill="#d89d7a"/>
    <path id="Path_4650" data-name="Path 4650" d="M80.652,72.184a.332.332,0,0,1,.119-.1l-.119.1" transform="translate(-25.32 -22.631)" fill="#e6e6e6"/>
    <path id="Path_4651" data-name="Path 4651" d="M81.91,76.883l.259.186-.259-.186" transform="translate(-25.715 -24.136)" fill="#3b3735"/>
    <path id="Path_4652" data-name="Path 4652" d="M101.334,109.729l.01-.036.025.017-.035.019" transform="translate(-31.812 -34.437)" fill="#dadcdc"/>
    <path id="Path_4653" data-name="Path 4653" d="M41.36,35.495c-1.553.075-1.553.075-1.552-1.472,0-2.958.02-5.915-.012-8.873-.007-.663.219-.838.852-.833q4.765.039,9.53,0c.665-.006.836.225.831.858-.027,3.067-.012,6.134-.012,9.2,0,1.173,0,1.174-1.177,1.133-.137,0-.273-.018-.41-.027a14.587,14.587,0,0,0-.687-4.046.561.561,0,0,0-.436-.612c-.453-.139-.541-.393-.148-.68.644-.469.458-.9,0-1.351a.848.848,0,0,1-.325-.777,2.287,2.287,0,0,0-2.2-2.531,2.344,2.344,0,0,0-2.656,2.092c-.03.564-.027,1.074-.539,1.45-.168.123-.353.441-.18.572.9.687.408,1.211-.144,1.752-.015.014-.007.053-.009.08a13.757,13.757,0,0,0-.728,4.064" transform="translate(-12.494 -7.634)" fill="#d7d2b5"/>
    <path id="Path_4654" data-name="Path 4654" d="M39.808,80a4.4,4.4,0,1,1,8.806.237A4.4,4.4,0,0,1,39.808,80m6.33,1.1c.387-.085.874.166,1.044-.179a2.349,2.349,0,0,0,.043-1.605c-.1-.393-.563-.205-.865-.212-1.143-.025-1.133-.016-1.157-1.148-.007-.311.174-.809-.15-.9a3.331,3.331,0,0,0-1.616-.023c-.412.1-.2.615-.208.943-.028,1.107-.014,1.1-1.122,1.121-.313.008-.814-.168-.9.146a3.369,3.369,0,0,0-.026,1.614c.1.43.611.2.932.209,1.1.031,1.092.015,1.113,1.107.006.309-.165.756.177.9A2.185,2.185,0,0,0,45,83.1c.379-.152.224-.638.195-.972-.062-.746.041-1.277.939-1.022" transform="translate(-12.497 -23.757)" fill="#d7d2b5"/>
    <path id="Path_4655" data-name="Path 4655" d="M60.85,20.224q-5.472,0-10.943,0c-.878,0-1.026-.178-.976-.993.027-.445.226-.652.664-.644.137,0,.274,0,.412,0q10.778,0,21.557,0c.581,0,1.092-.03,1.09.818,0,.659-.223.844-.862.84-3.647-.025-7.295-.012-10.943-.012" transform="translate(-15.359 -5.833)" fill="#e6e6e6"/>
    <path id="Path_4656" data-name="Path 4656" d="M49.44,34.618a14.582,14.582,0,0,1,.687,4.046l-8.05.013a13.761,13.761,0,0,1,.728-4.064l.978-.112a2.6,2.6,0,0,1,.678.238,2.47,2.47,0,0,0,3.656-.283l.3.034a.361.361,0,0,0,.365.077l.661.051" transform="translate(-13.209 -10.817)" fill="#705225"/>
    <path id="Path_4657" data-name="Path 4657" d="M58.765,62.927c-2.438,0-4.875-.005-7.313,0-.478,0-.845,0-.862-.665-.015-.63.226-.919.822-.964.191-.014.383-.014.575-.014q6.983,0,13.968,0c.892,0,1.192.432.935,1.293-.139.463-.51.34-.812.342-2.438.01-4.875.005-7.313,0" transform="translate(-15.882 -19.24)" fill="#e6e6e6"/>
    <path id="Path_4658" data-name="Path 4658" d="M66.281,49.087c-2.464,0-4.929-.01-7.394.007-.547,0-.864-.084-.863-.752s.318-.753.865-.751c4.82.012,9.639.005,14.459.009a.9.9,0,0,1,.96,1.141c-.08.447-.439.34-.716.341-2.3.008-4.6.005-6.9.005h-.411" transform="translate(-18.216 -14.941)" fill="#e6e6e6"/>
    <path id="Path_4659" data-name="Path 4659" d="M58.184,52.163c2.22,0,4.441,0,6.661,0a.916.916,0,0,1,.882,1.377c-.108.237-.272.193-.471.186-4.493-.169-8.987-.036-13.48-.073a1.209,1.209,0,0,0-.327.033c-.433.121-.839.219-.834-.462,0-.531-.073-1.074.743-1.068,2.11.018,4.221.005,6.332,0h.493" transform="translate(-15.89 -16.374)" fill="#e6e6e6"/>
    <path id="Path_4660" data-name="Path 4660" d="M79.823,24.326c1.97,0,3.941.02,5.91-.012.644-.011.769.254.768.833s-.144.825-.781.821q-5.91-.036-11.82,0c-.658,0-.757-.276-.764-.839-.006-.583.134-.831.777-.818,1.969.037,3.939.014,5.91.013" transform="translate(-22.96 -7.633)" fill="#d7d2b5"/>
    <path id="Path_4661" data-name="Path 4661" d="M79.744,44.453c-1.889,0-3.779-.01-5.668.007-.576.005-1,0-.984-.8.011-.728.3-.854.938-.851q5.708.032,11.417,0c.62,0,1.028.038,1.033.855s-.419.792-.986.788c-1.916-.016-3.833-.006-5.75-.005" transform="translate(-22.946 -13.44)" fill="#d7d2b5"/>
    <path id="Path_4662" data-name="Path 4662" d="M67.732,67.487c-.417.246-.861.057-1.289.062-1.972.021-3.944,0-5.916.017-.519,0-.813-.092-.818-.713s.23-.794.823-.792q6.776.027,13.552.007c.46,0,.8.038.794.643,0,.574-.176.869-.8.855-1.089-.025-2.18-.013-3.27,0-.347,0-.716-.1-1.034.139-.536-.274-1.168-.242-1.689-.646-.324-.252-.44.1-.351.431" transform="translate(-18.745 -20.739)" fill="#e6e6e6"/>
    <path id="Path_4663" data-name="Path 4663" d="M54.231,58.366c-1.835,0-3.67-.016-5.5.01-.57.008-.782-.189-.765-.762.016-.536.1-.9.76-.893q5.546.021,11.092,0c.576,0,.68.27.679.759,0,.539-.1.9-.757.894-1.835-.019-3.67-.006-5.5-.006" transform="translate(-15.057 -17.806)" fill="#e6e6e6"/>
    <path id="Path_4664" data-name="Path 4664" d="M52.571,72.274c-1.618,0-3.236-.016-4.854.009-.633.01-.952-.145-.963-.867s.329-.8.908-.792c3.291.016,6.582.023,9.872,0,.732-.005.976.269.936.972-.032.556-.315.689-.8.686-1.7-.01-3.4,0-5.1,0" transform="translate(-14.678 -22.17)" fill="#e6e6e6"/>
    <path id="Path_4665" data-name="Path 4665" d="M74.306,56.724c1.588,0,3.177.016,4.765-.008.618-.01,1.02.026,1.023.849,0,.877-.495.8-1.062.8q-4.725-.009-9.449,0c-.587,0-1.193.086-1.2-.8-.012-.945.632-.846,1.244-.844,1.561.005,3.122,0,4.684,0" transform="translate(-21.466 -17.805)" fill="#e6e6e6"/>
    <path id="Path_4666" data-name="Path 4666" d="M81.222,52.165c1.7,0,3.392,0,5.089,0,.264,0,.6-.056.67.307a2.054,2.054,0,0,1-.038,1.131c-.059.152-.225.1-.361.095q-4.677-.029-9.353-.047a7.583,7.583,0,0,0-.9.036c-.432.051-.952.379-1-.449-.056-.892.081-1.07.974-1.074,1.641-.006,3.283,0,4.924,0" transform="translate(-23.644 -16.376)" fill="#e6e6e6"/>
    <path id="Path_4667" data-name="Path 4667" d="M45.746,67.557c-1.724,0-3.449-.017-5.173.009-.568.008-.768-.186-.77-.758s.226-.75.781-.747c3.394.017,6.788.03,10.182-.005.845-.009.713.506.76,1.021.066.72-.463.467-.771.471-1.669.022-3.339.01-5.009.01" transform="translate(-12.496 -20.737)" fill="#e6e6e6"/>
    <path id="Path_4668" data-name="Path 4668" d="M82.431,62.924c-1.48,0-2.96-.019-4.439.01-.573.011-.782-.191-.766-.763.016-.536.1-.9.762-.893q4.437.023,8.876,0c.652,0,.752.346.765.889.013.567-.185.777-.762.766-1.479-.03-2.959-.01-4.437-.01" transform="translate(-24.244 -19.238)" fill="#e6e6e6"/>
    <path id="Path_4669" data-name="Path 4669" d="M45.118,47.6c1.481,0,2.962.014,4.443-.008.531-.008.8.115.806.725.006.639-.256.783-.836.779q-4.443-.03-8.885,0c-.567,0-.847-.117-.849-.768,0-.685.344-.743.878-.737,1.481.019,2.962.007,4.443.007" transform="translate(-12.494 -14.94)" fill="#e6e6e6"/>
    <path id="Path_4670" data-name="Path 4670" d="M75.823,30.609c-1.344,0-2.688-.016-4.031.007-.535.01-.809-.12-.8-.729.007-.558.175-.779.758-.774q4.113.032,8.228,0c.582,0,.753.215.762.773.01.609-.266.739-.8.731-1.371-.023-2.742-.008-4.114-.008" transform="translate(-22.286 -9.14)" fill="#e6e6e6"/>
    <path id="Path_4671" data-name="Path 4671" d="M72.054,35.175c-1.2,0-2.408-.016-3.611.007-.619.012-.8-.273-.8-.851-.005-.6.322-.65.787-.648,2.407.01,4.815.019,7.224,0,.595-.006.744.241.742.786s-.195.73-.725.719c-1.2-.024-2.407-.008-3.611-.008" transform="translate(-21.234 -10.573)" fill="#e6e6e6"/>
    <path id="Path_4672" data-name="Path 4672" d="M68.523,38.248c.847,0,1.693.01,2.539,0,.493-.008.754.157.779.7.024.528-.138.866-.681.906-.57.042-1.145.035-1.718.037-1.146,0-2.294-.016-3.44.007-.649.014-.755-.34-.767-.882s.163-.8.749-.773c.845.035,1.692.009,2.538.009" transform="translate(-20.48 -12.004)" fill="#e6e6e6"/>
    <path id="Path_4673" data-name="Path 4673" d="M81.115,38.249c.822,0,1.644.023,2.465-.006.682-.024.633.419.646.873.014.473-.065.79-.657.781-1.588-.023-3.176-.012-4.765-.008-.62,0-.855-.278-.864-.909-.01-.681.337-.755.874-.738.766.025,1.533.006,2.3.007" transform="translate(-24.468 -12.005)" fill="#e6e6e6"/>
    <path id="Path_4674" data-name="Path 4674" d="M72.649,72.126c-2,.02-3.994.035-5.991.061-.705.01-.663-.469-.687-.954-.028-.555.231-.706.742-.7,1.123.024,2.247.011,3.37,0,.294,0,.612.068.847-.2l1.019,1.089.7.694" transform="translate(-20.71 -22.084)" fill="#e6e6e6"/>
    <path id="Path_4675" data-name="Path 4675" d="M42.677,62.922c-.739,0-1.479-.023-2.217.006-.685.027-.63-.419-.642-.873-.012-.471.061-.79.655-.78,1.423.026,2.847.012,4.271.008.62,0,.852.282.862.912.012.685-.342.752-.875.733-.684-.025-1.369-.006-2.053-.007" transform="translate(-12.5 -19.237)" fill="#e6e6e6"/>
    <path id="Path_4676" data-name="Path 4676" d="M86.626,33.688c.792,0,1.585.018,2.377-.008.506-.016.766.13.744.69-.019.472-.113.8-.675.8-1.667,0-3.334-.01-5,0-.561,0-.591-.334-.6-.755s.057-.753.609-.74c.847.021,1.694.005,2.541,0" transform="translate(-26.206 -10.573)" fill="#e6e6e6"/>
    <path id="Path_4677" data-name="Path 4677" d="M62.628,29.041c.821,0,1.644.033,2.462-.014.423-.024.58.152.548.5-.034.381.277,1.009-.435,1.029-1.671.047-3.345.056-5.015,0-.74-.026-.4-.7-.45-1.1-.059-.471.258-.4.589-.385.766.034,1.534.011,2.3.011v-.037" transform="translate(-18.743 -9.112)" fill="#e6e6e6"/>
    <path id="Path_4678" data-name="Path 4678" d="M45.571,53.023c.05.564-.071.768-.731.714-1.384-.116-2.782-.084-4.175-.08-.54,0-.869-.069-.869-.744,0-.653.288-.772.85-.76q2.008.039,4.018,0c.652-.014,1.009.186.906.87" transform="translate(-12.494 -16.372)" fill="#e6e6e6"/>
    <path id="Path_4679" data-name="Path 4679" d="M86.862,49.085c-.768,0-1.537-.016-2.3.005-.567.015-.592-.333-.6-.754s.056-.748.61-.742q2.263.027,4.526,0c.526-.006.646.252.644.714s-.062.807-.658.786c-.74-.028-1.481-.007-2.221-.007Z" transform="translate(-26.359 -14.942)" fill="#e6e6e6"/>
    <path id="Path_4680" data-name="Path 4680" d="M60.672,80c1.2,0,2.405,0,3.608,0,.259,0,.609-.067.624.338s-.3.471-.624.471q-3.649,0-7.3,0c-.287,0-.576-.019-.576-.407s.29-.408.576-.408h3.69" transform="translate(-17.708 -25.115)" fill="#e6e6e6"/>
    <path id="Path_4681" data-name="Path 4681" d="M41.916,58.364c-.41,0-.821-.023-1.229.006-.59.041-.9-.1-.9-.8s.275-.89.923-.858c.873.042,1.749.026,2.623.006.573-.014.762.252.766.8,0,.569-.167.886-.793.853-.463-.025-.929-.005-1.393,0" transform="translate(-12.492 -17.803)" fill="#e6e6e6"/>
    <path id="Path_4682" data-name="Path 4682" d="M61.691,35.176c-.356,0-.714-.018-1.068,0-.567.035-.929-.053-.914-.781.014-.7.381-.729.9-.716.794.019,1.588.01,2.383.006.421,0,.716.148.667.616-.042.4-.063.861-.65.867-.438,0-.877,0-1.315,0Z" transform="translate(-18.745 -10.573)" fill="#e6e6e6"/>
    <path id="Path_4683" data-name="Path 4683" d="M89.148,58.365c-.246,0-.493-.015-.738,0-.54.042-.873-.063-.867-.738s.223-.958.907-.915c.571.037,1.147.019,1.721.008.695-.014.672.456.695.947.026.55-.221.734-.735.7-.326-.023-.655,0-.983,0" transform="translate(-27.483 -17.804)" fill="#e6e6e6"/>
    <path id="Path_4684" data-name="Path 4684" d="M41.405,72.278c-.219,0-.437,0-.656,0-.9-.005-1.187-.407-.943-1.283.087-.315.3-.354.556-.355.683,0,1.367.005,2.049-.005.557-.009.681.312.683.792,0,.5-.089.875-.705.851-.327-.013-.655,0-.983,0" transform="translate(-12.47 -22.175)" fill="#e6e6e6"/>
    <path id="Path_4685" data-name="Path 4685" d="M89.218,30.552c-.273,0-.547-.016-.818,0-.542.04-.867-.071-.865-.74,0-.655.3-.77.855-.759a7.164,7.164,0,0,0,1.954-.1c.453-.116.688.144.657.58-.027.381.248.954-.473,1-.434.03-.873.005-1.309.005v0" transform="translate(-27.48 -9.082)" fill="#e6e6e6"/>
    <path id="Path_4686" data-name="Path 4686" d="M66.5,77.934c-.737,0-1.473,0-2.21,0-.314,0-.655-.036-.66-.436-.005-.458.388-.373.67-.375q2.168-.011,4.338,0c.284,0,.661-.08.685.37.027.513-.381.438-.695.442-.709.01-1.419,0-2.128,0Z" transform="translate(-19.977 -24.209)" fill="#e6e6e6"/>
    <path id="Path_4687" data-name="Path 4687" d="M66.936,85.99c.683,0,1.367,0,2.05,0,.269,0,.5.064.506.4s-.2.417-.481.417c-1.449,0-2.9,0-4.346,0-.263,0-.526-.075-.527-.389,0-.366.3-.417.583-.42.738-.007,1.476,0,2.214,0" transform="translate(-20.136 -26.995)" fill="#e6e6e6"/>
    <path id="Path_4688" data-name="Path 4688" d="M59.547,83.771c-.846,0-1.692,0-2.538,0-.237,0-.547.037-.556-.318s.3-.338.537-.339q2.5-.007,4.995,0c.276,0,.613.016.6.387-.012.355-.356.266-.581.27-.818.012-1.638,0-2.456,0" transform="translate(-17.723 -26.09)" fill="#e6e6e6"/>
    <path id="Path_4689" data-name="Path 4689" d="M60.72,39.887c-.519.047-1.032.024-1.008-.851.016-.6.192-.862.8-.793a3.029,3.029,0,0,0,.569,0c.6-.045.974.095.975.83s-.4.857-.987.814c-.081-.005-.163,0-.347,0" transform="translate(-18.746 -12.002)" fill="#e6e6e6"/>
    <path id="Path_4690" data-name="Path 4690" d="M58.536,86.8c-.548,0-1.1,0-1.644,0-.276,0-.494-.088-.488-.415s.236-.4.506-.4q1.685,0,3.37,0c.259,0,.51.034.526.375.019.389-.248.438-.545.439-.576,0-1.151,0-1.726,0" transform="translate(-17.707 -26.995)" fill="#e6e6e6"/>
    <path id="Path_4691" data-name="Path 4691" d="M90.812,38.249c.552-.083.918.038.9.807-.017.745-.382.85-.99.84-.644-.01-1.017-.159-1.023-.928-.006-.864.542-.716,1.112-.718" transform="translate(-28.16 -12.001)" fill="#e6e6e6"/>
    <path id="Path_4692" data-name="Path 4692" d="M58.181,77.925c-.463,0-.926.006-1.389,0-.218,0-.469-.014-.512-.292a.4.4,0,0,1,.375-.458,19.888,19.888,0,0,1,3.177-.025c.231.011.293.213.279.425a.344.344,0,0,1-.378.344c-.517.008-1.035,0-1.552,0v.007" transform="translate(-17.667 -24.203)" fill="#e6e6e6"/>
    <path id="Path_4693" data-name="Path 4693" d="M71.391,67.9c-.089-.326.027-.683.351-.431.521.4,1.153.372,1.689.646l1.4.722a4.641,4.641,0,0,1-.908,1.269c-.246-.294.019-.543.112-.891-.523.4-.914.158-.954-.283-.071-.762-.419-.7-.923-.482l-.766-.552" transform="translate(-22.403 -21.156)" fill="#434344"/>
    <path id="Path_4694" data-name="Path 4694" d="M74.967,70.776a4.652,4.652,0,0,0,.908-1.268,3.026,3.026,0,0,1,1.045.781c-.051.1-.1.208-.151.311l-.155.207a5.3,5.3,0,0,0-.963,1.242c-.164.045-.163-.143-.265-.186l-.7-.694.281-.4" transform="translate(-23.447 -21.821)" fill="#d7d2b5"/>
    <path id="Path_4695" data-name="Path 4695" d="M68.8,83.767c-.383,0-.766.005-1.149,0-.2,0-.4-.049-.412-.3s.156-.34.366-.342q1.232-.012,2.463,0c.208,0,.385.086.37.338s-.207.3-.408.305c-.41.008-.821,0-1.231,0" transform="translate(-21.109 -26.093)" fill="#e6e6e6"/>
    <path id="Path_4696" data-name="Path 4696" d="M74.27,70.533l-.281.4L72.97,69.839c-.121-.337-.644-.479-.465-.96.5-.22.852-.281.922.481.04.441.432.679.954.283-.093.347-.357.6-.111.89" transform="translate(-22.75 -21.578)" fill="#3b3735"/>
    <path id="Path_4697" data-name="Path 4697" d="M70.925,80c.3,0,.545.075.518.45-.024.335-.269.361-.524.359-.3,0-.561-.089-.571-.433-.012-.4.311-.363.578-.376" transform="translate(-22.084 -25.116)" fill="#e6e6e6"/>
    <path id="Path_4698" data-name="Path 4698" d="M92.972,84.814a.411.411,0,0,1,.224-.373c0,.167-.042.313-.224.373" transform="translate(-29.187 -26.509)" fill="#3b3735"/>
    <path id="Path_4699" data-name="Path 4699" d="M77.5,71.308l.154-.207c.082.073.165.159.051.254-.033.027-.134-.029-.205-.047" transform="translate(-24.329 -22.321)" fill="#434344"/>
    <path id="Path_4700" data-name="Path 4700" d="M48.746,31.837l-.3-.034c-.459-.138-1.064-.016-1.218-.691.005-.108.011-.216.017-.324.244-.414.469-.84.737-1.238a.988.988,0,0,0-.064-1.36c.045-1.175-.176-1.43-.915-1.707a1.573,1.573,0,0,0-2.148,1.747,1.052,1.052,0,0,0-.036,1.156c.265.473.559.929.841,1.393,0,.117.006.233.009.349-.247.827-1.05.454-1.557.719l-.978.112c0-.027-.006-.065.009-.08.552-.54,1.041-1.063.144-1.751-.172-.132.012-.449.18-.572.511-.375.508-.886.539-1.45a2.344,2.344,0,0,1,2.656-2.092,2.287,2.287,0,0,1,2.2,2.531.848.848,0,0,0,.325.777c.458.447.644.882,0,1.35-.394.287-.306.541.147.681a.561.561,0,0,1,.436.612l-.661-.051a.362.362,0,0,0-.365-.077" transform="translate(-13.542 -8.164)" fill="#fcfcfc"/>
    <path id="Path_4701" data-name="Path 4701" d="M46.726,81.695c-.9-.255-1,.276-.939,1.022.029.334.184.821-.195.972a2.185,2.185,0,0,1-1.6-.024c-.342-.14-.171-.587-.177-.9-.021-1.092-.012-1.076-1.113-1.107-.322-.009-.83.222-.932-.209a3.369,3.369,0,0,1,.026-1.614c.086-.314.588-.139.9-.146,1.109-.024,1.094-.014,1.122-1.121.008-.327-.2-.841.208-.943a3.33,3.33,0,0,1,1.616.023c.323.088.143.586.15.9.025,1.133.014,1.123,1.157,1.148.3.007.76-.181.865.212a2.349,2.349,0,0,1-.043,1.605c-.169.345-.657.094-1.044.179" transform="translate(-13.085 -24.343)" fill="#fcfcfc"/>
    <path id="Path_4702" data-name="Path 4702" d="M46.11,31.58c-.282-.464-.576-.92-.841-1.393a1.055,1.055,0,0,1,.036-1.156c1.017-.3,2.031-.883,3.063-.04a.988.988,0,0,1,.064,1.36c-.268.4-.493.824-.737,1.238-.1.033-.235.054-.2.2.011.054.121.086.186.128.154.674.759.553,1.218.691a2.47,2.47,0,0,1-3.656.283,2.629,2.629,0,0,0-.678-.238c.508-.265,1.31.108,1.557-.72a1.186,1.186,0,0,0,1.131-.009,1.88,1.88,0,0,1-1.14-.34" transform="translate(-13.99 -8.964)" fill="#fbad94"/>
    <path id="Path_4703" data-name="Path 4703" d="M51.313,34.5a.362.362,0,0,1,.365.077.361.361,0,0,1-.365-.077" transform="translate(-16.109 -10.823)" fill="#fbad94"/>
    <path id="Path_4704" data-name="Path 4704" d="M48.705,28.356c-1.032-.843-2.045-.263-3.063.04a1.574,1.574,0,0,1,2.149-1.747c.739.278.959.532.914,1.707" transform="translate(-14.327 -8.328)" fill="#e6e6e6"/>
    <path id="Path_4705" data-name="Path 4705" d="M46.818,32.965a1.88,1.88,0,0,0,1.14.34,1.186,1.186,0,0,1-1.131.009c0-.116-.006-.232-.01-.349" transform="translate(-14.698 -10.349)" fill="#d89d7a"/>
    <path id="Path_4706" data-name="Path 4706" d="M49.017,33.3c-.065-.042-.175-.074-.187-.128-.031-.143.1-.163.2-.2-.005.108-.012.215-.017.323" transform="translate(-15.328 -10.353)" fill="#d89d7a"/>
  </g>
</svg>
