<svg id="Group_1087" data-name="Group 1087" xmlns="http://www.w3.org/2000/svg" xmlns:xlink="http://www.w3.org/1999/xlink" width="40.34" height="44.863" viewBox="0 0 40.34 44.863">
  <defs>
    <clipPath id="clip-path">
      <rect id="Rectangle_1759" data-name="Rectangle 1759" width="40.34" height="44.863" fill="none"/>
    </clipPath>
  </defs>
  <g id="Mask_Group_750" data-name="Mask Group 750" clip-path="url(#clip-path)">
    <path id="Path_8072" data-name="Path 8072" d="M18.116,23.1c.032.011.064.022.1.035.893.357.909.364.521,1.219-.131.288-.047.393.205.481,1.247.436,1.368.989.771,2.268Q13.96,39.427,8.278,51.782c-.439.949-.849,1.1-1.8.665-.981-.448-.984-.449-1.428.5-.493,1.058-.967,2.125-1.475,3.175-.155.32-.122.491.224.591a3.753,3.753,0,0,1,.371.164c.253.106.5.16.3.563-.176.352-.327.32-.618.181-1.188-.569-2.38-1.132-3.585-1.664-.342-.151-.284-.3-.174-.571.127-.311.271-.289.529-.165.834.4.838.389,1.232-.454.522-1.119,1.035-2.242,1.571-3.354.125-.258.089-.383-.176-.481-.237-.088-.46-.213-.691-.317-.908-.4-1.077-.833-.669-1.72q1.252-2.72,2.507-5.439Q8.718,34.1,13.05,24.731c.177-.383.357-.767.543-1.146a1,1,0,0,1,1.5-.535c.785.342.8.35,1.157-.41.135-.29.256-.333.528-.189a2.645,2.645,0,0,0,.839.344.2.2,0,0,1-.083.193.937.937,0,0,1-.627-.156c-.3-.137-.424,0-.545.25-.132.273-.034.4.211.509.494.226.973.48,1.474.692.271.115.4.045.513-.206s.12-.456-.186-.571A.6.6,0,0,1,18,23.252c-.019-.094.034-.133.113-.152" transform="translate(0 -12.86)" fill="rgba(112,82,37,0.85)"/>
    <path id="Path_8073" data-name="Path 8073" d="M66.613,18.184c-.178.132-.509-.184-.6.205.024.147-.058.146-.162.117a1.848,1.848,0,0,0-.892-.156c-1.951,0-3.9.023-5.853-.01-.74-.012-1.419-.01-1.794.771-.1.037-.185.044-.17-.107.027-.061.051-.124.08-.184.266-.546.266-.546-.323-.626a1.706,1.706,0,0,1-1.5-1.44,14.046,14.046,0,0,1-.013-3.1,1.678,1.678,0,0,1,1.846-1.52c2.814-.014,5.629-.008,8.444-.006a7.462,7.462,0,0,1,1.014.039,1.67,1.67,0,0,1,1.449,1.542c.033,1.016-.007,2.036-.016,3.053-.17-.012-.176-.151-.21-.269-.048-.73-.009-1.46-.024-2.19-.025-1.3-.593-1.864-1.878-1.865q-4.248,0-8.5,0a3.9,3.9,0,0,0-.508.019,1.458,1.458,0,0,0-1.326,1.434q-.035,1.248,0,2.5A1.417,1.417,0,0,0,56.9,17.855a4.837,4.837,0,0,0,1.062.088c2.764.006,5.528-.015,8.293.009.145.036.329.016.357.233" transform="translate(-31.794 -6.97)" fill="rgba(112,82,37,0.85)"/>
    <path id="Path_8074" data-name="Path 8074" d="M67.313,95.105a2.334,2.334,0,0,1-2.407,1.919q-7.935.011-15.87,0a2.216,2.216,0,0,1-2.042-1.1.228.228,0,0,1,.179-.035c.059.033,0-.028.046.018a3.717,3.717,0,0,0,2.886.793c4.708-.022,9.417-.047,14.124.014A2.678,2.678,0,0,0,67.1,95.041c.1-.078.17-.047.215.064" transform="translate(-27.015 -54.612)" fill="rgba(112,82,37,0.85)"/>
    <path id="Path_8075" data-name="Path 8075" d="M41.8,10.24l-.1.073c-.252.12-.4.009-.5-.221l.1-.158L45.581.695c.071-.153.135-.311.219-.457.058-.1.074-.314.265-.209s.014.236-.023.346a4.864,4.864,0,0,1-.209.461q-2.043,4.414-4.081,8.83c-.082.178-.342.417.048.574" transform="translate(-23.684 0)" fill="rgba(112,82,37,0.85)"/>
    <path id="Path_8076" data-name="Path 8076" d="M46.01,43.9a12.727,12.727,0,0,1,3-8.19.188.188,0,0,1,.087.156,1.3,1.3,0,0,1-.312.574,12.9,12.9,0,0,0-2.446,7.629c.025,5.282.008,10.565.006,15.848a2.589,2.589,0,0,1-.065.859.3.3,0,0,1-.206.184.44.44,0,0,1-.066-.342.981.981,0,0,0,.034-.4q0-7.958,0-15.916a.945.945,0,0,0-.035-.4" transform="translate(-26.445 -20.526)" fill="rgba(112,82,37,0.85)"/>
    <path id="Path_8077" data-name="Path 8077" d="M94.462,70.988l-.093-.119a.951.951,0,0,1-.146-.68q-.005-8.229,0-16.458a1.345,1.345,0,0,1,.083-.6.147.147,0,0,1,.165-.082c.011.747.032,1.494.032,2.242q0,7.468,0,14.936c0,.254-.027.508-.041.762" transform="translate(-54.165 -30.495)" fill="#222"/>
    <path id="Path_8078" data-name="Path 8078" d="M46,54.97c.139.163.078.358.078.539q.005,7.821,0,15.642c0,.18.06.376-.077.539-.006-1.886-.017-3.772-.017-5.658q0-5.531.016-11.062" transform="translate(-26.435 -31.601)" fill="rgba(112,82,37,0.85)"/>
    <path id="Path_8079" data-name="Path 8079" d="M90.761,43.209l-.05,0-.049-.005c-.242-.041-.2-.244-.214-.4A12.912,12.912,0,0,0,89.1,38.194a13.487,13.487,0,0,0-1.106-1.706c-.1-.135-.232-.253-.227-.442a.138.138,0,0,1,.1-.116,10.865,10.865,0,0,1,2.609,5.23,9.877,9.877,0,0,1,.288,2.05" transform="translate(-50.455 -20.654)" fill="rgba(112,82,37,0.85)"/>
    <path id="Path_8080" data-name="Path 8080" d="M80.24,26.972l.075-.113a8.861,8.861,0,0,0,2.408,3.007,3.555,3.555,0,0,1,.781.849l-.079.068c-.532-.2-.808-.705-1.235-1.034a7.006,7.006,0,0,1-1.836-2.225c-.089-.162-.258-.331-.114-.551" transform="translate(-46.096 -15.44)" fill="rgba(112,82,37,0.85)"/>
    <path id="Path_8081" data-name="Path 8081" d="M82.864,22.513l.093.221a1.7,1.7,0,0,1-1.509,1.422l-.336-.109c.042-.167.186-.18.317-.2a1.452,1.452,0,0,0,1.219-1.079c.034-.111.067-.233.216-.249" transform="translate(-46.629 -12.942)" fill="rgba(112,82,37,0.85)"/>
    <path id="Path_8082" data-name="Path 8082" d="M53.09,33.49a6.838,6.838,0,0,1,1.632-1.639.115.115,0,0,1,.06.118,5.737,5.737,0,0,1-1.629,1.577.334.334,0,0,0-.064-.056" transform="translate(-30.52 -18.31)" fill="rgba(112,82,37,0.85)"/>
    <path id="Path_8083" data-name="Path 8083" d="M58.075,28.308l.085.108a2.181,2.181,0,0,1-1.166,1.461.235.235,0,0,1-.065-.063l1.146-1.506" transform="translate(-32.727 -16.273)" fill="rgba(112,82,37,0.85)"/>
    <path id="Path_8084" data-name="Path 8084" d="M46.181,94.924l.105-.132a1.555,1.555,0,0,1,.372,1l-.132.016a1.534,1.534,0,0,1-.346-.885" transform="translate(-26.548 -54.493)" fill="rgba(112,82,37,0.85)"/>
    <path id="Path_8085" data-name="Path 8085" d="M14.781,59.445a7.424,7.424,0,0,1-1.527-.667c-.2-.1.009-.307.07-.441q1.523-3.32,3.063-6.633,3.919-8.474,7.827-16.954c.2-.429.373-.47.739-.25a8.058,8.058,0,0,0,.827.386c.745.337.746.337.408,1.068L15.724,58.562c-.149.322-.263.672-.647.8-.094.032-.193.053-.3.081" transform="translate(-7.569 -19.757)" fill="#fefefe"/>
    <path id="Path_8086" data-name="Path 8086" d="M4.3,53.871a.855.855,0,0,1,.135-.449c.749-1.629,1.512-3.251,2.253-4.884.134-.3.266-.39.557-.208a2.217,2.217,0,0,0,.55.254c.151.043.342.315.465.05.1-.223-.193-.226-.321-.3a4.658,4.658,0,0,0-.685-.325c-.213-.081-.234-.177-.138-.381q1.011-2.159,2-4.33c.087-.19.183-.251.385-.144.268.142.551.257.83.378.1.042.213.178.3.008s-.065-.225-.2-.275c-.078-.03-.149-.079-.225-.114-.834-.394-.835-.394-.458-1.209.568-1.227,1.141-2.452,1.7-3.684.118-.262.219-.386.51-.195a4.247,4.247,0,0,0,.733.345c.1.04.229.15.312,0,.1-.193-.1-.219-.2-.281a2.958,2.958,0,0,0-.369-.169c-.7-.321-.7-.32-.388-1,.584-1.258,1.174-2.514,1.745-3.778.136-.3.263-.429.585-.217a4.828,4.828,0,0,0,.733.344c.093.04.214.079.273-.032.082-.156-.064-.2-.168-.251-.26-.122-.52-.245-.786-.355-.22-.091-.318-.184-.186-.45q.518-1.044.973-2.119c.108-.256.235-.219.419-.131.488.233.97.482,1.47.685.3.12.265.254.153.494q-2.037,4.369-4.057,8.746Q9.819,47.214,6.437,54.537c-.339.734-.335.737-1.086.389-.215-.1-.435-.191-.639-.309a.8.8,0,0,1-.409-.747" transform="translate(-2.472 -17.189)" fill="#fefefe"/>
    <path id="Path_8087" data-name="Path 8087" d="M10.478,57.529c-.5-.226-.969-.416-1.417-.651-.221-.116-.027-.293.034-.426q1.043-2.284,2.1-4.562,4.39-9.483,8.77-18.97c.219-.477.385-.564.857-.321,1.053.541,1.065.515.579,1.564Q16.069,45.672,10.74,57.18c-.064.138-.065.346-.262.349" transform="translate(-5.15 -18.665)" fill="#fefdfd"/>
    <path id="Path_8088" data-name="Path 8088" d="M32.854,23.98a1.23,1.23,0,0,1,.361.136c1.409.657,2.82,1.309,4.228,1.969.726.341.842.677.509,1.42a3.522,3.522,0,0,0-.193.413c-.067.222-.178.23-.367.142q-2.755-1.288-5.518-2.56c-.248-.114-.276-.217-.156-.455.233-.46.338-1.024,1.136-1.065" transform="translate(-18.194 -13.785)" fill="#fdfdfd"/>
    <path id="Path_8089" data-name="Path 8089" d="M7.578,91.068c-.029.068-.068.161-.11.252-.6,1.286-1.2,2.566-1.78,3.86-.129.29-.263.284-.488.159-.41-.228-1.068-.281-1.2-.653-.109-.313.294-.811.482-1.221.443-.966.909-1.922,1.332-2.9.139-.32.278-.358.562-.2.311.169.642.3.96.457.1.048.245.054.24.248" transform="translate(-2.29 -51.896)" fill="#fdfcfc"/>
    <path id="Path_8090" data-name="Path 8090" d="M30.882,27.566c.145.065.222.1.3.133,1.79.832,3.576,1.675,5.375,2.485.364.164.354.306.215.633-.161.38-.324.291-.6.16-1.769-.835-3.547-1.65-5.32-2.477-.118-.055-.344-.049-.264-.278s.2-.44.3-.658" transform="translate(-17.573 -15.847)" fill="#f8f8f8"/>
    <path id="Path_8091" data-name="Path 8091" d="M39.3,23.267l.5.221a2.223,2.223,0,0,0,.4.215c.419.129.48.332.284.734-.181.373-.317.514-.728.278a16.7,16.7,0,0,0-1.649-.781c-.226-.1-.252-.188-.155-.416.3-.71.288-.714.979-.4.121.055.247.1.372.147" transform="translate(-21.785 -13.175)" fill="#f8f8f7"/>
    <path id="Path_8092" data-name="Path 8092" d="M4.617,101.839c-.11.124-.1.375-.365.253q-1.83-.855-3.664-1.7c-.168-.077-.172-.166-.119-.314.072-.2.181-.183.346-.106,1.188.556,2.38,1.1,3.569,1.654.1.045.227.073.233.212" transform="translate(-0.252 -57.44)" fill="#f4f3f3"/>
    <path id="Path_8093" data-name="Path 8093" d="M46.793,56.462a3.01,3.01,0,0,1-.372-1c0-5.695-.018-11.389.009-17.083a12.6,12.6,0,0,1,2.609-7.561c.1-.135.185-.279.278-.42l1.633-1.632A4.436,4.436,0,0,0,52.116,27.3c.227-.838.8-.949,1.593-.928,2.187.058,4.377.023,6.566.017.251,0,.477,0,.551.3A6.257,6.257,0,0,0,62.438,29c.53.5,1.05,1,1.575,1.505a11.872,11.872,0,0,1,2.519,5.18c.135.673.239,1.353.358,2.03q.005,8.555.009,17.11c0,.238-.007.475-.011.712a2.424,2.424,0,0,1-1.632,1.789,2.1,2.1,0,0,1-.6.071q-7.992,0-15.983.006a2.345,2.345,0,0,1-1.878-.94" transform="translate(-26.682 -15.161)" fill="#fff"/>
    <path id="Path_8094" data-name="Path 8094" d="M68.311,16.754a1.781,1.781,0,0,1-1.752,1.533q-4.454-.008-8.907-.018a1.679,1.679,0,0,1-1.767-1.092,1.523,1.523,0,0,1-.083-.548c0-.85-.01-1.7,0-2.55A1.571,1.571,0,0,1,57.34,12.5q4.708-.018,9.417,0a1.615,1.615,0,0,1,1.536,1.7c.02.849.013,1.7.018,2.548" transform="translate(-32.075 -7.183)" fill="none"/>
    <path id="Path_8095" data-name="Path 8095" d="M50.74,51.109c.169-.008.338-.023.507-.023q7.892,0,15.783.006c.161,0,.37-.124.494.1a.365.365,0,0,1-.214.2,2.281,2.281,0,0,1-.706.058q-7.522,0-15.045,0A2.2,2.2,0,0,1,50.9,51.4c-.114-.063-.272-.1-.164-.292" transform="translate(-29.148 -29.352)" fill="rgba(112,82,37,0.85)"/>
    <path id="Path_8096" data-name="Path 8096" d="M67.47,51.486l.1-.113c.007,3.667.007,7.334.029,11,0,.443-.266.335-.5.335q-6.331,0-12.663,0c-1.22,0-2.439-.015-3.659-.023-.013-.131.083-.17.177-.21a3.153,3.153,0,0,1,.86-.051q7.3,0,14.593,0c.9,0,.9,0,.9-.89q0-4.609,0-9.219a1.153,1.153,0,0,1,.153-.829" transform="translate(-29.191 -29.533)" fill="rgba(112,82,37,0.85)"/>
    <path id="Path_8097" data-name="Path 8097" d="M50.734,62.464l-.114.111c-.182-.1-.1-.27-.1-.407q-.006-5.292,0-10.582c0-.137-.082-.311.1-.407.006.075.014.148.1.181a.935.935,0,0,1,.162.675q.005,4.9,0,9.8a.871.871,0,0,1-.147.627" transform="translate(-29.032 -29.421)" fill="rgba(112,82,37,0.85)"/>
    <path id="Path_8098" data-name="Path 8098" d="M51.03,62.66q-.007-5.552-.014-11.105c.151-.012.3-.034.451-.034q7.818,0,15.637,0a4.976,4.976,0,0,1,.5.049q0,5.328,0,10.656c0,.285,0,.456-.388.454q-8.093-.026-16.186-.02" transform="translate(-29.328 -29.616)" fill="#f9f9f9"/>
    <path id="Path_8099" data-name="Path 8099" d="M76.032,55.785c0,.406,0,.813,0,1.219,0,.094.021.222-.129.223s-.146-.113-.146-.218c0-.526,0-1.052,0-1.579,0-.1-.02-.218.116-.248a.252.252,0,0,1,.293.138c.264.432.539.857.886,1.4,0-.454-.013-.794.006-1.133.008-.141-.117-.408.15-.395.244.012.121.273.128.418.02.406.016.815,0,1.221,0,.132.094.326-.116.388-.227.066-.275-.142-.361-.278-.25-.4-.5-.795-.744-1.193l-.083.029" transform="translate(-43.549 -28.743)" fill="rgba(112,82,37,0.85)"/>
    <path id="Path_8102" data-name="Path 8102" d="M62.9,57.022c.023.094.034.175-.045.2-.145.038-.208-.052-.254-.18-.074-.207-.068-.457-.427-.447-.308.008-.52.042-.573.386-.021.137-.076.312-.246.245-.192-.077-.033-.232,0-.343.156-.483.322-.963.488-1.442.042-.119.043-.266.243-.268s.215.117.26.248c.174.513.352,1.024.529,1.536.011.032.02.064.022.07" transform="translate(-35.22 -28.738)" fill="rgba(112,82,37,0.85)"/>
    <path id="Path_8103" data-name="Path 8103" d="M81.805,57.082a3.659,3.659,0,0,1-1.13.091c-.206.01-.19-.144-.191-.28,0-.322,0-.645,0-.967.006-.883.062-.931.928-.811.078.011.182-.02.19.1s-.094.116-.176.119a3.808,3.808,0,0,1-.406,0c-.276-.021-.234.171-.238.338s-.018.293.216.315c.191.018.528-.178.542.131.009.2-.34.105-.522.1-.283-.006-.246.174-.23.335s-.112.4.219.4a1.365,1.365,0,0,1,.8.125" transform="translate(-46.268 -28.681)" fill="rgba(112,82,37,0.85)"/>
    <path id="Path_8105" data-name="Path 8105" d="M58.327,56.868c.189-.557.346-1.012.495-1.469.04-.125.1-.245.236-.206.189.052.067.2.034.289-.182.527-.38,1.05-.562,1.578-.038.109-.076.18-.2.183-.139,0-.2-.056-.241-.2-.168-.55-.353-1.095-.536-1.64-.034-.1-.084-.2.079-.221.13-.02.169.053.2.165.148.476.306.948.491,1.516" transform="translate(-33.066 -28.748)" fill="rgba(112,82,37,0.85)"/>
    <path id="Path_8108" data-name="Path 8108" d="M67.115,56.988a.932.932,0,0,1-1.243-.028,1.2,1.2,0,0,1-.17-1.326,1.044,1.044,0,0,1,1.165-.511c.091.017.241-.019.242.116,0,.206-.167.115-.264.1a.779.779,0,0,0-.962.917.71.71,0,0,0,.794.73c.146,0,.292,0,.437,0" transform="translate(-37.699 -28.699)" fill="rgba(112,82,37,0.85)"/>
    <path id="Path_8109" data-name="Path 8109" d="M71.192,55.344c-.661-.008-1.3.033-1.285.888.016.829.645.848,1.37.767a1.074,1.074,0,0,1-1.337.048,1.261,1.261,0,0,1-.161-1.453,1.02,1.02,0,0,1,1.413-.25" transform="translate(-40.023 -28.744)" fill="rgba(112,82,37,0.85)"/>
    <path id="Path_8111" data-name="Path 8111" d="M74.331,56.217c0,.272,0,.544,0,.815,0,.1.013.216-.143.208a.146.146,0,0,1-.153-.162q0-.867,0-1.733a.142.142,0,0,1,.154-.159c.115,0,.137.073.137.164,0,.289,0,.578,0,.866h0" transform="translate(-42.56 -28.749)" fill="rgba(112,82,37,0.85)"/>
    <path id="Path_8116" data-name="Path 8116" d="M62.8,56.1a.9.9,0,0,1,.244.517c.028.082.18.223,0,.289a.64.64,0,0,1-.391,0c-.184-.06-.04-.194-.017-.289.038-.16.1-.315.167-.516" transform="translate(-35.963 -29.277)" fill="#f9f9f9"/>
  </g>
</svg>
