<svg xmlns="http://www.w3.org/2000/svg" xmlns:xlink="http://www.w3.org/1999/xlink" width="101.586" height="87.957" viewBox="0 0 101.586 87.957">
  <defs>
    <clipPath id="clip-path">
      <rect id="Rectangle_1896" data-name="Rectangle 1896" width="101.586" height="87.957" fill="none"/>
    </clipPath>
  </defs>
  <g id="Group_1274" data-name="Group 1274" transform="translate(1 -19)">
    <g id="Group_1117" data-name="Group 1117" transform="translate(-1 19)" clip-path="url(#clip-path)">
      <path id="Path_15890" data-name="Path 15890" d="M8.988,97.055q.467-1,.935-1.993c.768-.181.879.606,1.328.9a33.383,33.383,0,0,0,10.639,7.349,20.528,20.528,0,0,1,4.018,1.738c.4.665.046,1.278-.186,1.868-.221.562-.247.951.424,1.171a.884.884,0,0,1,.609.9,4.635,4.635,0,0,1-1.179,2.658H0c.863-2.265,2.049-4.382,3.035-6.592,1.085-2.427,2.246-4.82,3.381-7.225.127-.269.3-.518.444-.777a2.593,2.593,0,0,1,1.548,1.011,40.4,40.4,0,0,0,4.659,4.074,37.225,37.225,0,0,0,7.566,4.345,33.266,33.266,0,0,1-7.652-4.453,37.118,37.118,0,0,1-3.7-3.66,1.1,1.1,0,0,1-.291-1.308" transform="translate(0 -23.684)" fill="#365997"/>
      <path id="Path_15891" data-name="Path 15891" d="M117.016,96.66q.387.9.777,1.792c.214.447-.095.74-.325,1.043a23.014,23.014,0,0,1-5.741,5.225,36.632,36.632,0,0,1-6.21,3.162,33.058,33.058,0,0,0,7.326-3.924,32.488,32.488,0,0,0,4.918-4.441,10.922,10.922,0,0,1,1.2-1.077c.21-.17.4-.288.582.024,1.008,1.831,2.027,3.656,3.021,5.5q1.963,3.631,3.892,7.28a7.737,7.737,0,0,1,.3.743H102.089a3.462,3.462,0,0,1-1.05-2.68,1.031,1.031,0,0,1,.861-.544c.742-.116.826-.5.56-1.134a1.726,1.726,0,0,1-.05-1.7,1.856,1.856,0,0,1,.979-.6,33.748,33.748,0,0,0,10.9-6.61,2.18,2.18,0,0,1,.371-.359c.554-.462.812-1.179,1.4-1.613.3-.223.586-.606.955-.087" transform="translate(-25.18 -24.024)" fill="#365997"/>
      <path id="Path_15892" data-name="Path 15892" d="M34.066,115.594q.453-1.35.906-2.7a.82.82,0,0,1,.975-.583c.757.161,1.255,0,1.4-.857.051-.3.222-.641.67-.538a1.25,1.25,0,0,0,.369,1.661c.522.384.472.881.224,1.429-.232.512-.393,1.057-.585,1.587Z" transform="translate(-8.49 -27.637)" fill="#365997"/>
      <path id="Path_15893" data-name="Path 15893" d="M100.336,113.317l.9,2.7H98c-.514-1.24-.628-2.42.5-3.419a5.01,5.01,0,0,0,1.839.718" transform="translate(-24.328 -28.061)" fill="#365997"/>
      <path id="Path_15894" data-name="Path 15894" d="M29.357,94.4a42.639,42.639,0,0,1-8.389-3.832,30.556,30.556,0,0,1-6.381-5.192c-.207-.393-.246-.757.175-1.044l.351-.576a19.738,19.738,0,0,0,5.249,3.357,25.468,25.468,0,0,1-4.4-3.874c-.27-.257-.11-.636-.3-.908.029-3.113-.077-6.226-.334-9.323a23.552,23.552,0,0,1,1.252-8.9c.582-1.913,1.107-3.843,1.7-5.751a2.582,2.582,0,0,1,1.631-1.671c1.449-.559,2.885-1.149,4.326-1.728,1.137-.522,2.273-1.044,2.469-2.5.174-.664.661-.669,1.18-.526a7.161,7.161,0,0,1,.888.37c.688.1.849.656.895,1.18a7,7,0,0,1-.527,4.121,15.456,15.456,0,0,1-2.9,3.056,2.009,2.009,0,0,1-1.183.591A10.347,10.347,0,0,1,22.4,60.077c.721.746,1.908.984,2.775,1.732a4.837,4.837,0,0,1-.26,2.629c-.3,1.444-.345,1.434.886,2.147a8.692,8.692,0,0,1,1.712,4.569,36.112,36.112,0,0,1,.3,9.136,11.119,11.119,0,0,0,.226,2.945A2.652,2.652,0,0,0,30.974,85.5c3.776.08,7.557.173,11.332-.054a3.224,3.224,0,0,1,1.989.31,50.58,50.58,0,0,1-7.277,5.427A34.415,34.415,0,0,1,32.8,93.7a8.267,8.267,0,0,1-3.727-.808,3.338,3.338,0,0,1-1.04-.488,23.535,23.535,0,0,0,3.986,1.863.646.646,0,0,1,.51.462c-.083.613-.532.687-1,.6a3.9,3.9,0,0,1-2.176-.927" transform="translate(-3.598 -12.924)" fill="#fbd7d4"/>
      <path id="Path_15895" data-name="Path 15895" d="M33.42,47.2a8.286,8.286,0,0,0,.656-3.185,3.054,3.054,0,0,0-.658-2.144c.011-.568.032-1.136.032-1.705q0-14.158,0-28.316c0-1.511.323-1.848,1.842-1.845,3.565.008,7.129.032,10.695.05.75.562.394,1.324.368,2.026a.968.968,0,0,1-.252.667,1.9,1.9,0,0,1-1.29.28c-2.279.011-4.56,0-6.84.006-1.544,0-1.609.067-1.61,1.637q0,26.321,0,52.642c0,.751-.011,1.5,0,2.249.02,1.068.151,1.2,1.187,1.225.54.011,1.08,0,1.62,0h27a8.577,8.577,0,0,1,1.7.113,1.093,1.093,0,0,1,.824.269c.667.673,1.319,1.363,1.922,2.094a.512.512,0,0,1,.092.582q-5.888.017-11.775.036-4.269.012-8.54.031a3.54,3.54,0,0,1-1.649.357c-4.439-.009-8.878,0-13.317-.01-1.838-.005-2.357-.517-2.355-2.362,0-5.936-.05-11.873.028-17.809-.072-1.839-.022-3.678-.028-5.517A4.913,4.913,0,0,1,33.42,47.2" transform="translate(-8.239 -2.494)" fill="#365997"/>
      <path id="Path_15896" data-name="Path 15896" d="M81.941,10.012c3.659,0,7.318-.013,10.977-.005,1.092,0,1.535.456,1.535,1.53q0,21.592-.008,43.185a.473.473,0,0,1-.017.089c-.219.286-.531.235-.831.23a2.9,2.9,0,0,1-2.023-2.136,6.786,6.786,0,0,1-.11-1.7q0-18.187,0-36.374c0-1.793,0-1.794-1.8-1.8-2.131,0-4.261.007-6.392-.005a2.142,2.142,0,0,1-1.309-.227,3.685,3.685,0,0,1-.15-2.672l.128-.117" transform="translate(-20.344 -2.493)" fill="#365997"/>
      <path id="Path_15897" data-name="Path 15897" d="M50.367,9.61l-.088-2.047c.015-.658.035-1.316.043-1.975.014-1.149.3-1.453,1.425-1.456,1.828-.005,3.656-.009,5.485.014.52.006.775-.095.878-.7A4.146,4.146,0,0,1,66.275,3.4c.111.631.342.746.918.736,1.857-.032,3.716-.014,5.574.009.941.011,1.3.381,1.321,1.3.018.688.026,1.377.038,2.066l-.059.051a5.753,5.753,0,0,0-.017,1.344c.086.784-.324,1.015-1,1.021-.628.005-1.246-.125-1.878-.125q-9.069.015-18.139.008a6.765,6.765,0,0,0-1.428.113,1.207,1.207,0,0,1-1.241-.321" transform="translate(-12.53 0)" fill="#365997"/>
      <path id="Path_15898" data-name="Path 15898" d="M97.625,69.664l.779.014c1.573.463,3.163.862,4.729,1.357a6.474,6.474,0,0,1,4.409,4.308c1.56,4.359,3.257,8.67,4.915,12.994a8.878,8.878,0,0,0,1.034,2.076c.562.391.9.852.493,1.551l-.315.216c-.6.255-.744-.261-.9-.6-1.4-2.98-2.817-5.951-4.146-8.964A68.109,68.109,0,0,0,105.2,75.5a6.488,6.488,0,0,0-3.926-3.074A8.332,8.332,0,0,1,98.155,70.7c-.306-.261-.687-.526-.53-1.041" transform="translate(-24.32 -17.361)" fill="#f8beb9"/>
      <path id="Path_15899" data-name="Path 15899" d="M11.265,97.681a1.714,1.714,0,0,0,.6,1.173,35.109,35.109,0,0,0,5.412,4.964,39.655,39.655,0,0,0,6.8,3.561c.128.054.25.121.51.247a1.679,1.679,0,0,1-1.382-.165,42.039,42.039,0,0,1-9.836-5.807c-1.347-1.107-2.529-2.372-3.753-3.6-.146-.146-.242-.346-.475-.381.517-.39.841.231,1.3.269.369.03.619.05.833-.261" transform="translate(-2.277 -24.309)" fill="#e3e3e3"/>
      <path id="Path_15900" data-name="Path 15900" d="M120.849,99.046a.41.41,0,0,0-.547.152,30.592,30.592,0,0,1-6.8,6.057,41.246,41.246,0,0,1-6.86,3.478c-.1.041-.223.005-.382-.122.734-.366,1.445-.786,2.2-1.088a24.44,24.44,0,0,0,7.292-4.647,16.078,16.078,0,0,0,3.337-3.841c.44.312.8,0,1.161-.17.272-.124.511-.263.593.181" transform="translate(-26.482 -24.608)" fill="#e4e4e5"/>
      <path id="Path_15901" data-name="Path 15901" d="M15.885,92.446a25.628,25.628,0,0,0,5.964,5.3,5.209,5.209,0,0,1-2.695-.833,22.486,22.486,0,0,1-3.032-1.894,1.924,1.924,0,0,1-.785-1.147l.547-1.425" transform="translate(-3.822 -23.038)" fill="#f8beb9"/>
      <path id="Path_15902" data-name="Path 15902" d="M29.961,52.66c.3,1.47-.634,2.414-2.468,2.5l2.468-2.5" transform="translate(-6.852 -13.123)" fill="#f7e9d5"/>
      <path id="Path_15903" data-name="Path 15903" d="M119.263,98.595c.111-.605-.456-.994-.493-1.552.571-.216,1.133-.463,1.716-.637.324-.1.752-.351.949.22-.324-.187-.511-.056-.724.224-.456.6-.963,1.165-1.448,1.745" transform="translate(-29.599 -23.99)" fill="#d8dbdb"/>
      <path id="Path_15904" data-name="Path 15904" d="M14.458,95.043c-.02.354-.276.67-.175,1.044-.393-.321-.543-.883-1.065-1.075.423-.38.828-.022,1.24.031" transform="translate(-3.294 -23.635)" fill="#d8dede"/>
      <path id="Path_15905" data-name="Path 15905" d="M92.438,68.579a7.157,7.157,0,0,0,3.753,2.433,6.649,6.649,0,0,1,4.253,3.42c1.83,3.508,3.435,7.127,4.978,10.772.789,1.863,1.758,3.65,2.637,5.474.1.2.186.375.423.417A30.352,30.352,0,0,1,98.4,97.53c-.607.25-1.219.491-1.827.736-.34.229-.581.623-1.045.643-.369.016-.734,0-.842-.462.309-.467.055-.9-.095-1.333-.319-.926-.2-1.171.778-1.342a8.909,8.909,0,0,0,1.82-.594,16.774,16.774,0,0,1-3.032.4,5.2,5.2,0,0,1-2.43-.833,12.75,12.75,0,0,1-2.45-1.256c-.122-.088-.29-.058-.438-.08a33.7,33.7,0,0,1-6.573-5.186c-.218-.2-.44-.393-.661-.589l-2.53-2.689c-1.752-1.023-2.765-2.76-2.091-4.64.273-.76.3-1.587.559-2.356a3.273,3.273,0,0,0,.5-2.267,1.372,1.372,0,0,0-.743-1.023c-.444-.929-.3-1.282.79-1.881a2.584,2.584,0,0,1,2.219.644,10.288,10.288,0,0,1,1.268,1.11,5.855,5.855,0,0,1,.664,1.289,5.611,5.611,0,0,1,.491,2.388c-.036.4.307.686.448,1.037a.648.648,0,0,1,.008.234.3.3,0,0,0,.1.362c.367.415.774.785,1.172,1.167.244.534.6.563,1.083.293a3.844,3.844,0,0,0,.844-.779,3.212,3.212,0,0,1,.566-.282c.608-.221.922.3,1.348.535q4.289,3.174,8.455,6.506c.3.237.638.468.631.925a.64.64,0,0,1-.6.477,3.507,3.507,0,0,1-1.511-.913c-1.743-1.351-3.528-2.649-5.263-4.011a3.088,3.088,0,0,0-.86-.6c-.2.006-.21.12-.159.271.231.285.408.619.785.745,2.261,1.523,4.346,3.281,6.539,4.9.368.413.736.479,1.124.019A1.334,1.334,0,0,1,98,88.641a1.085,1.085,0,0,1,.848.231c.393.227.738.523,1.115.773.574.661,1.313.4,2.012.357a2.153,2.153,0,0,1,.88.481c.193.134.415.361.6.056.222-.358-.09-.532-.344-.7a2.378,2.378,0,0,1-.7-.715c-.146-.586.08-1.327-.691-1.655-.307-.334-.7-.569-1.014-.9-2.984-2.182-5.872-4.491-8.817-6.726-.618-.469-1.239-.933-1.884-1.365-.381-.329-.772-.648-1.16-.97a1.052,1.052,0,0,1-.258-.454c-.12-.841.255-1.708-.263-2.542a6.741,6.741,0,0,0-2.424-2.451c-.743-.256-1.342.184-1.926.481a4.99,4.99,0,0,1-1.57.557c-2.075.406-3.418-.676-3.258-2.619a.549.549,0,0,1,.4-.335,2.062,2.062,0,0,0,1.537-1.986,3.348,3.348,0,0,1,1.023-1.032,26.827,26.827,0,0,1,3.021-1.55,7.209,7.209,0,0,1,3.279-.143,2.892,2.892,0,0,1,2.209,1.5,5.324,5.324,0,0,0,1.812,1.643" transform="translate(-19.133 -16.276)" fill="#fbd7d4"/>
      <path id="Path_15906" data-name="Path 15906" d="M32.464,68.754q.017,8.91.034,17.822c0,1.673.264,1.947,1.91,1.951q7.516.018,15.032.029a7.039,7.039,0,0,1-1.46,1.412c-.973.058-1.945.158-2.918.165-3.331.021-6.66,0-9.991.015a5.536,5.536,0,0,1-2.1-.429,2.375,2.375,0,0,1-1.553-1.845,17.7,17.7,0,0,1-.25-4.087,38.834,38.834,0,0,0-.027-5.653,23.252,23.252,0,0,0-1.125-5.692c-.191-.581-.58-1.046-.776-1.612-.005-.029-.024-.062-.016-.086a4.8,4.8,0,0,1,3.24-1.988" transform="translate(-7.282 -17.133)" fill="#f8beb9"/>
      <path id="Path_15907" data-name="Path 15907" d="M34.083,108.522c.762.2,1.525.4,2.285.616.406.114.7.071.758-.421a.09.09,0,0,1,.144-.029c.55.418.975.882.585,1.637-.46.272-.433.78-.495,1.194-.083.577-.261.746-.869.645-.545-.091-1.17-.424-1.684.138.037-.574-.443-.548-.784-.649-.637-.188-.768-.5-.468-1.12a3.232,3.232,0,0,0,.529-2.011" transform="translate(-8.324 -27.045)" fill="#365997"/>
      <path id="Path_15908" data-name="Path 15908" d="M100.13,108.973c.161.514.533.371.87.259a2.756,2.756,0,0,1,.925-.3,1.719,1.719,0,0,0,.179,1.526c.5,1.16.383,1.385-.838,1.56-.261.038-.516.119-.773.179a.694.694,0,0,0-.088.016c-.789.246-1.557.443-1.751-.734a1.749,1.749,0,0,1,.416-2.6,4.48,4.48,0,0,0,.605-.755c.485.1.607.4.454.845" transform="translate(-24.486 -26.947)" fill="#365997"/>
      <path id="Path_15909" data-name="Path 15909" d="M98.782,107.586l-.455-.847a3.781,3.781,0,0,0-2.294-2.315,13.566,13.566,0,0,1-3.189-1.734c.26-.235.51-.1.739.042a21.876,21.876,0,0,0,3.66,1.658c1.057.417,2.183-.055,3.276-.138.616-.047,1.225-.172,1.861-.184A5.978,5.978,0,0,1,99.39,105.4c-.648.038-.936.161-.508.828.156.243.121.583.355.809.15.145.322.338.187.548-.182.282-.425.067-.641,0" transform="translate(-23.138 -25.559)" fill="#f8beb9"/>
      <path id="Path_15910" data-name="Path 15910" d="M36.679,107.8a.447.447,0,0,0-.143.028,4.677,4.677,0,0,1-2.273-.681c-1.122-.563-2.161-1.292-3.233-1.95.149-.239.279-.256.379-.2a20.216,20.216,0,0,0,5.307,1.781c.08.02.146.1.218.152a1.682,1.682,0,0,0-.256.869" transform="translate(-7.733 -26.161)" fill="#f8beb9"/>
      <path id="Path_15911" data-name="Path 15911" d="M27.415,63.558c-.026.241-.053.483-.08.724a5.252,5.252,0,0,1-3.361-2.473l3.441,1.749" transform="translate(-5.975 -15.403)" fill="#f8beb9"/>
      <path id="Path_15912" data-name="Path 15912" d="M72.285,54.449c-.191.422-.635.569-.943.864a2.213,2.213,0,0,1-2.5,1.405c-.188-.027-.345.077-.52.094a1.069,1.069,0,0,1-.643-.171c-.509-.248-.924-.643-1.426-.905-.484-.306-1.266-.307-1.2-1.175.343-.4.812-.336,1.255-.327,1.049.02,2.1-.014,3.145-.032.294,0,.672-.018.661-.43s-.393-.4-.685-.4c-2.126-.014-4.253.016-6.379.016-2.4,0-4.792-.023-7.188-.028a5.859,5.859,0,0,0-.629.011c-.291.031-.671.009-.654.432.017.408.393.4.685.407,1.767.029,3.535.008,5.3.013a12.615,12.615,0,0,1,2.238.122c1.077.2,1.327,1.029,1.477,1.936-.161.46-.544.5-.95.5-.987,0-1.975-.025-2.961.01-.435.015-1.119-.2-1.144.5-.026.733.672.535,1.1.535,1.555,0,3.111.068,4.665-.038a2.064,2.064,0,0,1,1.055.142,1.112,1.112,0,0,1,.377.185c.779.513,1.685.9,1.947,1.933-.409.464-1.431.62-.806,1.6.861,1.056.67,2.231.382,3.417-.191.875-.341,1.761-.583,2.622a2.762,2.762,0,0,0,.625,2.9c.432.45.783.976,1.17,1.469-.629.009-1.259.026-1.888.026q-14.671,0-29.34.017c-.729,0-.949-.159-.948-.925q.035-28.3,0-56.606c0-.815.233-1,1.006-.987,3,.04,6,.011,9,.008a2.885,2.885,0,0,0,2.22.662q9.834-.028,19.667,0a2.278,2.278,0,0,0,1.946-.658c3.032,0,6.063.016,9.094-.008.583,0,.837.085.836.766q-.03,19.672-.017,39.345c0,.119-.016.239-.024.359-1.655-1.384-3.563-1.433-5.553-1.052a2.852,2.852,0,0,1-1.131.246,1.721,1.721,0,0,0-1.74,1.213" transform="translate(-9.216 -3.382)" fill="#fefefe"/>
      <path id="Path_15913" data-name="Path 15913" d="M74.135,12.712c.13.926-.321,1.093-1.171,1.089q-10.781-.056-21.561-.009c-.868,0-1.207-.237-1.1-1.083.022-.2.044-.39.066-.586,6.775-.378,13.556-.083,20.333-.168a21.231,21.231,0,0,1,2.238.1c.715.067,1.153-.055,1.021-.929a1.348,1.348,0,0,1,.108-1.044q.034,1.317.067,2.631" transform="translate(-12.531 -2.512)" fill="#365997"/>
      <path id="Path_15914" data-name="Path 15914" d="M63.308,4.829A2.052,2.052,0,0,1,65.4,2.662a2.145,2.145,0,0,1,2.21,2.192,2.209,2.209,0,0,1-2.144,2.1,2.09,2.09,0,0,1-2.157-2.122" transform="translate(-15.777 -0.663)" fill="#d3e0ea"/>
      <path id="Path_15915" data-name="Path 15915" d="M94.024,82.538A6.182,6.182,0,0,1,96.008,83.9c2.933,2.235,5.845,4.5,8.765,6.75a2.876,2.876,0,0,1-1.765,2.294c-1.081-.842-2.2-1.634-3.3-2.459-2.171-1.635-4.251-3.39-6.512-4.9a1.474,1.474,0,0,1-.785-1.036,2.727,2.727,0,0,1,1.609-2.008" transform="translate(-23.031 -20.569)" fill="#373b5d"/>
      <path id="Path_15916" data-name="Path 15916" d="M77.474,70.606l.532.211c.527.125,1.132.146,1.182.9.141.536.032,1.128.452,1.6a2.216,2.216,0,0,0,2.718.716c1.561.329,2.644,1.466,3.9,2.3a20.164,20.164,0,0,0,1.669,1.16,1.917,1.917,0,0,1,.713.873l.3.308A2.859,2.859,0,0,1,87.27,80.96c-1.151-.447-1.827-1.517-2.836-2.161a20.669,20.669,0,0,1-3.2-2.719,6.016,6.016,0,0,0-3.126-1.829l-2.041-1.7a2.052,2.052,0,0,1,1.405-1.944" transform="translate(-18.957 -17.596)" fill="#373b5d"/>
      <path id="Path_15917" data-name="Path 15917" d="M92.444,85.255a39.149,39.149,0,0,0,3.915,2.951,5.758,5.758,0,0,1,.52.348,43.14,43.14,0,0,0,5.167,3.958,2.343,2.343,0,0,1,.836,1.03c.089.334-.1.475-.383.547l-.688-.43c-.418.025-.71-.114-.752-.579l-9.183-7.115c-.063-.438-.009-.782.567-.709" transform="translate(-22.892 -21.244)" fill="#353434"/>
      <path id="Path_15918" data-name="Path 15918" d="M88.192,77.361l-3.747-2.546c.751.029,1.228-.618,1.907-.772.5-.114.972-.537,1.516-.129.171.408.578.579.866.869a3.944,3.944,0,0,1,.749.875c.255.479.78.987.354,1.526-.411.521-1.063.4-1.646.177" transform="translate(-21.045 -18.377)" fill="#f8beb9"/>
      <path id="Path_15919" data-name="Path 15919" d="M100.415,95.366q-2.937-2.213-5.875-4.424c-.262-.2-.536-.377-.8-.565-.283-.562-.033-.83.515-.934l6.724,5.1c.168.516-.048.77-.56.824" transform="translate(-23.331 -22.29)" fill="#373b5d"/>
      <path id="Path_15920" data-name="Path 15920" d="M89.182,84.53a.612.612,0,0,1-.6.278,9.049,9.049,0,0,0-.807.541c-.444.243-.919.479-1.363-.024a1.982,1.982,0,0,1-1.222-1.25.233.233,0,0,1-.053-.366.624.624,0,0,0,.034-.147c.155-.707.746-1.068,1.214-1.527.725-.034,1.074.579,1.562.937a6.348,6.348,0,0,1,1.22,1.18.464.464,0,0,1,.02.379" transform="translate(-21.199 -20.443)" fill="#f8beb9"/>
      <path id="Path_15921" data-name="Path 15921" d="M89.243,77.419c.2-.041.407-.08.61-.125,1.1-.238,1.1-.239.531-1.207A7.246,7.246,0,0,0,88.9,74.434c-.188-.17-.439-.323.017-.462A5.637,5.637,0,0,1,91.9,77.106c.3.7-.1,1.4-.114,2.1a24.018,24.018,0,0,1-2.539-1.791" transform="translate(-22.095 -18.435)" fill="#f8beb9"/>
      <path id="Path_15922" data-name="Path 15922" d="M88.537,83.269l-2.671-2.159c-.818-.011-1.233-.645-1.706-1.152a4.456,4.456,0,0,1-.631-.867l-.579-1.2c.656-.095.957.474,1.323.806.945.859,2.019,1.543,2.995,2.353a9.044,9.044,0,0,1,1.663,1.617c.155.388-.1.506-.394.6" transform="translate(-20.672 -19.41)" fill="#363534"/>
      <path id="Path_15923" data-name="Path 15923" d="M109.622,97.466a.53.53,0,0,0-.484.094c-.722.491-1.263.185-1.716-.433a3.671,3.671,0,0,1,2.032-2.653c.992.429,1.1.685.761,1.869a1.932,1.932,0,0,1-.592,1.124" transform="translate(-26.77 -23.544)" fill="#373b5d"/>
      <path id="Path_15924" data-name="Path 15924" d="M90.391,84.136l.394-.6,1.727-2.177a2.629,2.629,0,0,1,1.008.885l-1.441,2.041a1.825,1.825,0,0,0-.567.71c-.4-.1-.548-.615-1-.634-.038-.076-.078-.152-.117-.227" transform="translate(-22.526 -20.276)" fill="#d3e0ea"/>
      <path id="Path_15925" data-name="Path 15925" d="M109.107,94.191l-2.032,2.653c-.444-.11-.692-.5-1.044-.737l.383-.547,1.752-2.218c.327.269.782.394.941.849" transform="translate(-26.424 -23.262)" fill="#d3e0ea"/>
      <path id="Path_15926" data-name="Path 15926" d="M83.721,79.492l2.336,2.02c-.083.755-.787.971-1.227,1.416a1.1,1.1,0,0,1-.717-1.134,4.649,4.649,0,0,0-.392-2.3" transform="translate(-20.864 -19.81)" fill="#f8beb9"/>
      <path id="Path_15927" data-name="Path 15927" d="M79.832,71.357a5.664,5.664,0,0,1-1.182-.9c.053-.027.107-.08.158-.077a3.976,3.976,0,0,0,2.919-1.213c.046,1.457-.653,2.264-1.9,2.188" transform="translate(-19.6 -17.238)" fill="#f1e4d7"/>
      <path id="Path_15928" data-name="Path 15928" d="M83.994,67.528c-.008-.266-.008-.532-.026-.8-.035-.495.2-.693.682-.679.738.021,1.476.013,2.215.017a27.181,27.181,0,0,1-2.871,1.458" transform="translate(-20.925 -16.461)" fill="#e5e3e1"/>
      <path id="Path_15929" data-name="Path 15929" d="M102.671,96.92l.56-.824.524-.416a2.08,2.08,0,0,1,.752.579,5.576,5.576,0,0,1-.354.611c-.616.811-.752.812-1.482.05" transform="translate(-25.587 -23.844)" fill="#d3e0ea"/>
      <path id="Path_15930" data-name="Path 15930" d="M78.1,81.014c.177-1.173-.334-2.269-.382-3.417a1.1,1.1,0,0,1,.93,1.209,4.193,4.193,0,0,1-.548,2.208" transform="translate(-19.368 -19.338)" fill="#fbebd8"/>
      <path id="Path_15931" data-name="Path 15931" d="M110.334,98.086c-.2-.583.186-.859.592-1.124l.689.534c.421.767.261,1.082-.575,1.129l-.706-.539" transform="translate(-27.483 -24.164)" fill="#373b5d"/>
      <path id="Path_15932" data-name="Path 15932" d="M86.838,86.2a1.571,1.571,0,0,0,1.462-.456.48.48,0,0,1,.709-.06c-.517,1.121-1.458,1.493-2.124.839a.238.238,0,0,1-.047-.322" transform="translate(-21.63 -21.322)" fill="#f9f2ec"/>
      <path id="Path_15933" data-name="Path 15933" d="M94,89.235c-.192.3-.529.521-.516.935l-.863-.748c.047-.393.177-.721.62-.811.262.2.591.312.759.624" transform="translate(-23.083 -22.083)" fill="#d3e0ea"/>
      <path id="Path_15934" data-name="Path 15934" d="M111.292,98.8a.841.841,0,0,0,.575-1.129c.491.245.919.573.539,1.159-.321.494-.751.353-1.114-.03" transform="translate(-27.735 -24.341)" fill="#574f47"/>
      <path id="Path_15935" data-name="Path 15935" d="M93.214,88.606a2.393,2.393,0,0,1-.619.811c-.233-.628-.03-.894.619-.811" transform="translate(-23.052 -22.078)" fill="#5e512e"/>
      <path id="Path_15936" data-name="Path 15936" d="M85,84.228c.018.122.035.244.053.366-.343.245-.538.055-.52-.265.02-.372.29-.145.467-.1" transform="translate(-21.066 -20.963)" fill="#fae1d4"/>
      <path id="Path_15937" data-name="Path 15937" d="M41.508,36.528c-1.7.069-1.695.069-1.695-1.614,0-3.205.017-6.411-.013-9.617-.007-.7.136-1.012.929-1q5.213.059,10.427,0c.731-.007.911.252.9.941-.029,3.325-.012,6.65-.014,9.976,0,1.351,0,1.351-1.323,1.331-.15,0-.3-.006-.45-.01-.62-.9-.491-1.989-.713-2.987-.089-.4-.127-.82-.249-1.218-.049-.227-.051-.446-.332-.577-.653-.3-.646-.809-.273-1.326a.69.69,0,0,0-.025-.965,2.1,2.1,0,0,1-.467-1.405,2.18,2.18,0,0,0-2.14-2.113,2.332,2.332,0,0,0-2.436,1.812,3.751,3.751,0,0,1-.583,1.848.592.592,0,0,0,.065.744c.409.579.478,1.109-.3,1.436-.318.134-.288.42-.348.673a30.025,30.025,0,0,0-.481,2.965,1.819,1.819,0,0,1-.487,1.105" transform="translate(-9.919 -6.054)" fill="#d3e0ea"/>
      <path id="Path_15938" data-name="Path 15938" d="M49.425,80.509a4.806,4.806,0,1,1-4.816-4.856,4.779,4.779,0,0,1,4.816,4.856" transform="translate(-9.922 -18.853)" fill="#365997"/>
      <path id="Path_15939" data-name="Path 15939" d="M61.994,20.358q-6.033,0-12.066,0c-.574,0-.988-.068-1.006-.8s.229-1.021.984-1.012c2.521.031,5.042.011,7.563.011q8.149,0,16.3,0c.626,0,1.121.025,1.121.877,0,.689-.188.948-.919.943-3.992-.031-7.984-.015-11.976-.015" transform="translate(-12.192 -4.622)" fill="#e5e5e5"/>
      <path id="Path_15940" data-name="Path 15940" d="M50.114,34.564a13.3,13.3,0,0,1,.728,4.448L42.075,39a23.637,23.637,0,0,1,.678-4.366.958.958,0,0,1,.9-.379c.733-.149,1.3.3,1.9.563a2.035,2.035,0,0,0,2.038-.115,2.844,2.844,0,0,1,1.866-.446.689.689,0,0,1,.655.3" transform="translate(-10.486 -8.53)" fill="#373b5d"/>
      <path id="Path_15941" data-name="Path 15941" d="M59.539,63.057c-2.637,0-5.273-.007-7.909.005-.584,0-1.056.017-1.042-.813.012-.736.261-1,1-1q8,.029,16,0c.679,0,.867.243.875.892.009.7-.2.943-.925.933-2.666-.036-5.333-.014-8-.014" transform="translate(-12.607 -15.263)" fill="#e5e5e5"/>
      <path id="Path_15942" data-name="Path 15942" d="M58.891,53.938c-2.459,0-4.917-.014-7.376.011-.624.006-.938-.134-.923-.842.016-.673.215-.978.935-.975q7.375.027,14.751,0c.735,0,.9.328.92.987.022.725-.322.834-.932.829-2.459-.022-4.917-.009-7.376-.009" transform="translate(-12.608 -12.992)" fill="#e5e5e5"/>
      <path id="Path_15943" data-name="Path 15943" d="M66.8,49.2c-2.7,0-5.392-.007-8.087.007-.548,0-.918-.06-.907-.761.011-.676.3-.881.932-.879q8.132.017,16.265,0c.629,0,.83.222.837.839.008.653-.267.812-.863.808-2.726-.021-5.451-.009-8.178-.009" transform="translate(-14.405 -11.854)" fill="#e5e5e5"/>
      <path id="Path_15944" data-name="Path 15944" d="M68.572,67.67q-4.127,0-8.256.008c-.65,0-.564-.461-.589-.879-.033-.531.174-.755.725-.751q4.129.035,8.259.029,3.366,0,6.732-.027c.505,0,.872.046.866.7,0,.631-.2.947-.879.932-1.191-.027-2.383-.015-3.575,0-.381,0-.784-.105-1.132.153a1.567,1.567,0,0,1-1.514-.154c-.228-.123-.42-.223-.638-.013" transform="translate(-14.884 -16.46)" fill="#e4e4e4"/>
      <path id="Path_15945" data-name="Path 15945" d="M80.375,26.084c-2.128,0-4.258-.026-6.386.016-.707.014-.854-.273-.854-.9s.124-.91.841-.9c4.288.03,8.576.022,12.863.007.607,0,.947.1.919.831-.025.66-.158.981-.906.967-2.159-.04-4.318-.014-6.476-.014" transform="translate(-18.226 -6.054)" fill="rgba(54,89,151,0.56)"/>
      <path id="Path_15946" data-name="Path 15946" d="M80.358,44.588c-2.129,0-4.258-.022-6.386.013-.685.011-.873-.245-.869-.895s.217-.906.885-.9q6.432.028,12.863,0c.681,0,.872.258.874.9,0,.661-.224.9-.89.888-2.159-.029-4.317-.011-6.476-.011Z" transform="translate(-18.218 -10.667)" fill="rgba(54,89,151,0.56)"/>
      <path id="Path_15947" data-name="Path 15947" d="M54.812,56.7c2.006,0,4.011.016,6.017-.01.608-.008.874.178.849.819-.022.572-.08,1-.812.994q-6.107-.02-12.215,0c-.762,0-.658-.5-.682-.975-.026-.532.1-.845.735-.838,2.035.024,4.072.009,6.107.009" transform="translate(-11.954 -14.128)" fill="#e5e5e5"/>
      <path id="Path_15948" data-name="Path 15948" d="M81.71,53.94c-1.856,0-3.713-.02-5.569.011-.631.011-.845-.219-.829-.838.016-.587.112-.98.83-.977,3.772.014,7.544.007,11.317.005.429,0,.8.035.681.636-.1.5.2,1.194-.773,1.173-1.885-.039-3.772-.012-5.658-.011" transform="translate(-18.768 -12.993)" fill="#e5e5e5"/>
      <path id="Path_15949" data-name="Path 15949" d="M74.757,58.5c-1.8,0-3.592-.025-5.387.011-.763.015-1-.332-1-1.026-.008-.744.447-.791,1.009-.789,3.621.008,7.242.018,10.863-.008.691,0,.944.2.947.916s-.267.923-.953.909c-1.824-.036-3.65-.013-5.476-.013" transform="translate(-17.037 -14.127)" fill="#e5e5e5"/>
      <path id="Path_15950" data-name="Path 15950" d="M53.2,70.612c1.771,0,3.542.017,5.313-.008.673-.009,1.079.119,1.069.929-.009.759-.381.888-1.02.886-3.6-.015-7.2-.021-10.805,0-.746.005-.995-.265-1-1s.356-.824.951-.817c1.83.023,3.662.008,5.493.008" transform="translate(-11.652 -17.595)" fill="#e4e4e4"/>
      <path id="Path_15951" data-name="Path 15951" d="M46.272,67.677c-1.857,0-3.713-.02-5.569.011-.643.011-.911-.169-.9-.858s.314-.786.886-.784q5.57.023,11.139,0c.681,0,.972.214.972.929,0,.749-.455.707-.954.706-1.857,0-3.713,0-5.569,0" transform="translate(-9.918 -16.459)" fill="#e4e4e4"/>
      <path id="Path_15952" data-name="Path 15952" d="M82.78,63.057c-1.621,0-3.242,0-4.863,0-.5,0-.96-.075-.868-.716.071-.5.024-1.1.86-1.1,3.331.026,6.663.01,10,.014.408,0,.88.041.736.612-.118.465.153,1.223-.818,1.2-1.68-.047-3.361-.014-5.042-.013" transform="translate(-19.199 -15.264)" fill="#e5e5e5"/>
      <path id="Path_15953" data-name="Path 15953" d="M76.328,30.674c-1.5,0-3-.022-4.5.011-.624.013-.855-.206-.839-.833.015-.589.108-.983.828-.979,3,.017,6,.026,8.993-.005.862-.008.889.6.935,1.137.053.625-.434.675-.924.672-1.5-.008-3,0-4.5,0" transform="translate(-17.692 -7.194)" fill="#e4e4e4"/>
      <path id="Path_15954" data-name="Path 15954" d="M45.581,49.205c-1.621,0-3.242-.019-4.861.011-.626.011-.932-.136-.923-.845.009-.659.285-.8.875-.8q4.907.026,9.814,0c.586,0,.869.134.878.8.009.706-.291.858-.92.846-1.619-.03-3.24-.01-4.861-.009" transform="translate(-9.918 -11.855)" fill="#e5e5e5"/>
      <path id="Path_15955" data-name="Path 15955" d="M72.486,33.672c1.348,0,2.7-.008,4.045,0,.341,0,.816-.067.741.5-.058.431.287,1.126-.545,1.174a46.706,46.706,0,0,1-8.6-.084c-.592-.075-.455-.606-.475-1.01-.023-.5.282-.589.694-.587,1.378.008,2.757,0,4.135,0" transform="translate(-16.86 -8.391)" fill="#e5e5e5"/>
      <path id="Path_15956" data-name="Path 15956" d="M68.855,38.227c.93,0,1.86.018,2.79,0,.65-.015.814.322.815.9s-.158.911-.809.905c-1.86-.016-3.72-.02-5.58,0-.719.01-.822-.382-.838-.973-.017-.619.2-.866.833-.841.929.038,1.86.01,2.79.011" transform="translate(-16.256 -9.524)" fill="#e5e5e5"/>
      <path id="Path_15957" data-name="Path 15957" d="M81.417,40.023c-.9,0-1.8-.011-2.7,0-.758.012-.746-.487-.767-1.032-.022-.6.232-.782.8-.774,1.8.023,3.6.011,5.394.007.475,0,.889.105.81.682-.068.5.1,1.2-.846,1.131-.894-.065-1.8-.014-2.7-.014Z" transform="translate(-19.426 -9.525)" fill="#e5e5e5"/>
      <path id="Path_15958" data-name="Path 15958" d="M86.932,33.636c.9,0,1.794.01,2.691-.005.312-.005.717-.2.688.358-.025.464.251,1.086-.487,1.263a7.541,7.541,0,0,1-1.954.2c-1.076-.027-2.156.033-3.228-.035-.472-.03-1.138.062-1.173-.773-.029-.7-.059-1.213.957-1.027a14.083,14.083,0,0,0,2.506.03v-.011" transform="translate(-20.799 -8.368)" fill="#e5e5e5"/>
      <path id="Path_15959" data-name="Path 15959" d="M62.991,28.879c.838,0,1.677-.018,2.514.009.366.011.884-.017.758.591-.1.469.239,1.226-.755,1.2q-2.513-.053-5.027,0c-.7.014-.757-.368-.758-.91s.047-.941.755-.908c.836.04,1.676.009,2.514.009Z" transform="translate(-14.884 -7.194)" fill="#e5e5e5"/>
      <path id="Path_15960" data-name="Path 15960" d="M73.322,72.347a6.867,6.867,0,0,0-2.221.008c-1.345-.046-2.695-.026-4.042-.008-.636.009-1.1-.046-1.106-.887,0-.807.392-.946,1.066-.927,1.256.035,2.514.01,3.771.041.263.007.473.018.6-.247.711-.077.88.571,1.256.941.266.334.9.435.676,1.079" transform="translate(-16.436 -17.525)" fill="#e5e5e4"/>
      <path id="Path_15961" data-name="Path 15961" d="M42.89,63.058c-.806,0-1.614-.018-2.42,0-.7.02-.647-.447-.649-.907s-.031-.908.66-.9c1.643.021,3.286,0,4.929.013.449,0,.886.128.788.71-.079.469.1,1.149-.8,1.091-.833-.053-1.673-.011-2.509-.012" transform="translate(-9.923 -15.266)" fill="#e5e5e5"/>
      <path id="Path_15962" data-name="Path 15962" d="M42.96,53.937c-.776,0-1.555-.038-2.329.011-.728.045-.831-.33-.824-.93.006-.559.089-.9.774-.889,1.553.035,3.106.033,4.659,0,.744-.014.881.358.9,1,.023.732-.345.839-.941.814-.746-.031-1.493-.008-2.24-.008" transform="translate(-9.92 -12.991)" fill="#e5e5e5"/>
      <path id="Path_15963" data-name="Path 15963" d="M87.061,49.2c-.779,0-1.559-.026-2.336.008-.6.026-.784-.232-.774-.8.009-.524.095-.852.734-.841,1.647.027,3.294.017,4.942.005.559,0,.816.215.823.8.008.628-.274.856-.873.84-.838-.022-1.677-.005-2.516-.008" transform="translate(-20.921 -11.855)" fill="#e5e5e5"/>
      <path id="Path_15964" data-name="Path 15964" d="M61.079,79.976c1.317,0,2.633,0,3.949,0,.285,0,.665-.067.676.378s-.34.511-.69.511q-3.995,0-7.988,0c-.316,0-.628-.029-.622-.453s.324-.441.636-.441q2.019,0,4.039,0" transform="translate(-14.056 -19.93)" fill="#e5e5e5"/>
      <path id="Path_15965" data-name="Path 15965" d="M42.071,58.5c-.419,0-.838,0-1.257,0-.95-.006-1.29-.507-1-1.433a.485.485,0,0,1,.54-.361c1.137,0,2.273,0,3.41,0,.624,0,.722.384.72.893s-.075.908-.707.9c-.568,0-1.137,0-1.705,0Z" transform="translate(-9.897 -14.131)" fill="#e5e5e5"/>
      <path id="Path_15966" data-name="Path 15966" d="M62.037,35.466c-.51.023-1.011-.109-1.507-.122-.806-.023-.812-.476-.8-1.063.014-.714.512-.6.947-.607.836-.008,1.671,0,2.506,0,.454,0,.836.054.871.64.032.537-.079.925-.682,1.068a6.922,6.922,0,0,1-1.333.089" transform="translate(-14.884 -8.391)" fill="#e5e5e5"/>
      <path id="Path_15967" data-name="Path 15967" d="M89.432,30.674c-.3,0-.6-.018-.9,0-.619.046-1.017-.053-1-.846.013-.767.326-1,1.035-.963.685.037,1.375.013,2.062.008.7,0,.7.477.717.984.022.546-.128.864-.748.817-.386-.03-.776-.006-1.165-.005" transform="translate(-21.814 -7.194)" fill="#e5e5e5"/>
      <path id="Path_15968" data-name="Path 15968" d="M89.407,58.495c-.27,0-.541-.016-.809,0-.641.047-1.09-.018-1.065-.881.024-.8.4-.966,1.073-.929a9.231,9.231,0,0,0,1.617-.006c.918-.111,1.066.477,1.089,1.143.029.811-.61.644-1.1.667-.269.013-.54,0-.809,0" transform="translate(-21.814 -14.122)" fill="#e5e5e5"/>
      <path id="Path_15969" data-name="Path 15969" d="M41.674,70.61c.268,0,.538.017.8,0,.594-.046.953.08.944.81s-.236,1.056-.987,1c-.534-.038-1.072,0-1.609-.008-.97-.005-1.288-.462-1.014-1.413a.475.475,0,0,1,.521-.379c.447,0,.894,0,1.341,0V70.61" transform="translate(-9.898 -17.594)" fill="#e5e5e5"/>
      <path id="Path_15970" data-name="Path 15970" d="M66.617,77.1c.838,0,1.676,0,2.513,0,.309,0,.653.036.663.434s-.327.454-.64.455c-1.675.005-3.351,0-5.026.005-.333,0-.634-.1-.658-.459-.029-.429.336-.431.635-.434.837-.01,1.675,0,2.513,0" transform="translate(-15.817 -19.213)" fill="#e6e6e6"/>
      <path id="Path_15971" data-name="Path 15971" d="M73.853,70.78l-1.11-1.185c-.56-.42-.459-1.366-1.264-1.592-.167-.356-.143-.829.309-.523.589.4,1.267.374,1.842.69l1.537.789a1.686,1.686,0,0,1-1.313,1.821" transform="translate(-17.789 -16.792)" fill="#373b5d"/>
      <path id="Path_15972" data-name="Path 15972" d="M67.063,86.864c-.748,0-1.5,0-2.244,0-.306,0-.652-.021-.679-.417s.3-.473.617-.474c1.556-.006,3.111,0,4.667,0,.286,0,.554.045.57.415.018.424-.273.477-.6.478H67.063" transform="translate(-15.984 -21.424)" fill="#e6e6e6"/>
      <path id="Path_15973" data-name="Path 15973" d="M59.721,83.768c-.927,0-1.855.007-2.782,0-.252,0-.622.05-.6-.346.022-.36.322-.433.664-.426a39.391,39.391,0,0,0,5.64-.067.425.425,0,0,1,.53.454c.008.321-.237.383-.493.384-.987,0-1.975,0-2.962,0Z" transform="translate(-14.041 -20.664)" fill="#e6e6e6"/>
      <path id="Path_15974" data-name="Path 15974" d="M60.829,40.019c-.538.037-1.144.069-1.119-.919.017-.651.2-.964.875-.881a2.313,2.313,0,0,1,.447.009c.445.158,1.275-.441,1.279.586,0,1.119-.124,1.2-1.482,1.206" transform="translate(-14.88 -9.519)" fill="#e5e5e5"/>
      <path id="Path_15975" data-name="Path 15975" d="M58.887,85.971c.6,0,1.2,0,1.8,0,.3,0,.541.091.538.45s-.249.44-.549.44q-1.845,0-3.689,0c-.283,0-.56-.035-.58-.408-.023-.421.263-.486.592-.487.63,0,1.26,0,1.89,0Z" transform="translate(-14.057 -21.424)" fill="#e6e6e6"/>
      <path id="Path_15976" data-name="Path 15976" d="M90.794,40.009c-.679.081-1.1,0-1.108-.851-.009-.876.4-.969,1.093-.944.619.022,1.107.029,1.113.877s-.428,1.023-1.1.918" transform="translate(-22.351 -9.522)" fill="#e6e6e6"/>
      <path id="Path_15977" data-name="Path 15977" d="M58.38,77.98c-.537,0-1.074.005-1.61,0-.215,0-.444-.052-.491-.3a.436.436,0,0,1,.388-.517,21.1,21.1,0,0,1,3.478-.041c.246.009.339.213.327.45-.015.307-.218.4-.484.407-.536.006-1.073,0-1.61,0" transform="translate(-14.023 -19.206)" fill="#e6e6e6"/>
      <path id="Path_15978" data-name="Path 15978" d="M74.673,71.3a8.109,8.109,0,0,0,1.312-1.821,3.921,3.921,0,0,1,1.142.844L75.722,72.27l-.226-.131c-.162-.39-.605-.5-.823-.836" transform="translate(-18.609 -17.316)" fill="#d3e0ea"/>
      <path id="Path_15979" data-name="Path 15979" d="M69.063,83.094c.419,0,.839-.007,1.258,0,.225.005.424.083.419.357s-.209.345-.432.346q-1.347.007-2.695-.007a.333.333,0,0,1-.375-.307c-.022-.27.155-.38.388-.385.479-.013.958,0,1.437,0v0" transform="translate(-16.756 -20.707)" fill="#e5e5e5"/>
      <path id="Path_15980" data-name="Path 15980" d="M50.339,32.508l-.717-.057a2.676,2.676,0,0,0-1.062-.041,1.016,1.016,0,0,1-1.125-1.426,11.905,11.905,0,0,1,.627-1.287.973.973,0,0,0-.982-1.421,6.323,6.323,0,0,0-.714.065c-1.119.147-1.369.646-.842,1.659a4.178,4.178,0,0,1,.55,1.221c.133.815-.342,1.292-1.171,1.2a2.538,2.538,0,0,0-1.063.029l-.863.136c.6-.651,1.323-1.281.324-2.175a.269.269,0,0,1,.034-.253c.813-.7.567-1.755.89-2.615a2.8,2.8,0,0,1,3.068-1.5,2.425,2.425,0,0,1,2.055,2.7c-.129.493.237.7.487.978.386.439.536.882-.018,1.3s-.493.706.167.9c.286.084.49.238.357.587" transform="translate(-10.71 -6.475)" fill="#f7f7f6"/>
      <path id="Path_15981" data-name="Path 15981" d="M46.176,83.239c-.057.318.2.852-.215,1.018a2.724,2.724,0,0,1-1.762.006c-.383-.117-.2-.577-.208-.884-.035-1.535.134-1.3-1.359-1.342-.3-.009-.78.194-.873-.2A2.764,2.764,0,0,1,41.808,80c.161-.324.725-.166,1.091-.128.855.089,1.194-.215,1.1-1.092-.04-.384-.236-1.008.177-1.146a4.844,4.844,0,0,1,1.77-.043c.284.018.2.318.221.513.012.149,0,.3,0,.449.029,1.459-.2,1.264,1.283,1.317.326.012.824-.2.931.249a2.717,2.717,0,0,1-.054,1.761c-.162.342-.658.156-1.005.16-1.167.012-1.168,0-1.155,1.2" transform="translate(-10.373 -19.322)" fill="#fdfdfd"/>
      <path id="Path_15982" data-name="Path 15982" d="M44.126,33.079c.319-.237.69-.142,1.043-.165.874-.059,1.161-.546.764-1.331-.188-.372-.441-.712-.632-1.084-.434-.841-.271-1.309.574-1.733a2.578,2.578,0,0,1,2.755.343.866.866,0,0,1,.158,1.2c-.227.387-.471.765-.675,1.164-.423.83-.163,1.313.755,1.424.351.043.725-.042,1.041.191a2.1,2.1,0,0,0-1.478.456,2.4,2.4,0,0,1-2.924-.012,1.95,1.95,0,0,0-1.381-.448" transform="translate(-10.997 -7.107)" fill="#f8bd96"/>
    </g>
  </g>
</svg>
