<svg id="Group_1285" data-name="Group 1285" xmlns="http://www.w3.org/2000/svg" xmlns:xlink="http://www.w3.org/1999/xlink" width="96" height="96" viewBox="0 0 96 96">
  <defs>
    <clipPath id="clip-path">
      <rect id="Rectangle_1913" data-name="Rectangle 1913" width="96" height="96" fill="none"/>
    </clipPath>
  </defs>
  <g id="Group_1228" data-name="Group 1228" clip-path="url(#clip-path)">
    <path id="Path_17498" data-name="Path 17498" d="M10.473,18.3c-8.992,14.743-.048,33.856,16.859,36.3A23.983,23.983,0,1,0,33.652,7.059c-.85-.094-1.706-.154-2.56-.179a3.477,3.477,0,0,1-3.651-3.5A3.414,3.414,0,0,1,31.219.032c12.4.5,21.479,6.31,27.3,17.246.579,1.088.552,1.1,1.459.2q2.953-2.953,5.906-5.905a3.431,3.431,0,0,1,5.346-.014c1.243,1.23,2.486,2.461,3.706,3.714.333.342.535.441.928.043,2.833-2.866,5.691-5.706,8.529-8.543-.116-.368-.448-.391-.667-.55A3.366,3.366,0,0,1,82.4,2.54a3.32,3.32,0,0,1,3.11-2.5C87.9-.01,90.3-.015,92.688.035a3.369,3.369,0,0,1,3.283,3.411c.031,2.284.026,4.569,0,6.853a3.369,3.369,0,0,1-2.446,3.268,3.191,3.191,0,0,1-3.791-1.434c-.388-.623-.564-.481-.969-.072q-5.244,5.281-10.518,10.531c-1.919,1.915-3.743,1.913-5.652.008-1.162-1.16-2.34-2.3-3.475-3.491-.4-.417-.633-.5-1.084-.036q-3.138,3.22-6.354,6.365a1.143,1.143,0,0,0-.329,1.138A30.809,30.809,0,0,1,.526,36.345,30.023,30.023,0,0,1,4.877,14.334c.378-.6.6-.932-.18-1.465A3.132,3.132,0,0,1,3.637,9.225a3.3,3.3,0,0,1,3.02-2.333c2.426-.048,4.855-.061,7.281,0a3.368,3.368,0,0,1,3.215,3.477c.023,2.213.017,4.426,0,6.639a3.448,3.448,0,0,1-2.617,3.472,3.363,3.363,0,0,1-3.784-1.738c-.071-.115-.144-.228-.281-.445" transform="translate(0 0)" fill="#6fa6d6" opacity="0.5"/>
    <path id="Path_17499" data-name="Path 17499" d="M301.063,141.85c0,10.063-.012,20.127.021,30.19,0,.862-.159,1.127-1.078,1.113-3.925-.06-7.851-.041-11.776-.011-.667.005-.893-.126-.893-.856q.033-30.351.023-60.7a3.4,3.4,0,0,1,3.565-3.565c2.141-.017,4.282-.011,6.423,0a3.445,3.445,0,0,1,3.712,3.749q.008,15.042,0,30.083" transform="translate(-205.084 -77.153)" fill="#6fa6d6" opacity="0.5"/>
    <path id="Path_17500" data-name="Path 17500" d="M67.611,68.626c1.841,0,3.682-.038,5.521.007A10.315,10.315,0,0,1,82.614,76a1.5,1.5,0,0,1-.238,1.461A20.589,20.589,0,0,1,49.4,77.456a1.406,1.406,0,0,1-.26-1.357,10.319,10.319,0,0,1,9.514-7.466c1.835-.045,3.671-.007,5.819-.007-6.136-1.742-9.511-6.243-8.815-11.428a10.286,10.286,0,0,1,20.446.013c.493,3.938-1.485,9.66-8.5,11.415" transform="translate(-35.024 -34.327)" fill="#6fa6d6" opacity="0.5"/>
    <path id="Path_17501" data-name="Path 17501" d="M227.506,182.983q0-11.508,0-23.016c0-2.635,1.313-3.961,3.922-3.964,2.07,0,4.139-.014,6.209,0a3.41,3.41,0,0,1,3.571,3.564q.014,23.5.023,47c0,.73-.225.861-.892.856-4-.03-7.993-.035-11.989,0-.727.007-.861-.22-.858-.891q.034-11.776.015-23.551" transform="translate(-162.369 -111.433)" fill="#6fa6d6" opacity="0.5"/>
    <path id="Path_17502" data-name="Path 17502" d="M181.35,224.233c0,5.495-.019,10.99.021,16.484.006.8-.18,1-.984.988-3.96-.047-7.921-.039-11.881-.005-.688.006-.882-.161-.88-.869q.036-16.591.02-33.182a3.421,3.421,0,0,1,3.687-3.659q3.158-.015,6.315,0a3.446,3.446,0,0,1,3.7,3.76q.009,8.242,0,16.484" transform="translate(-119.641 -145.709)" fill="#6fa6d6" opacity="0.5"/>
    <path id="Path_17503" data-name="Path 17503" d="M107.8,265.26c0-3.175,0-6.35,0-9.525a3.447,3.447,0,0,1,3.8-3.764c2.1-.005,4.21-.013,6.314,0a3.414,3.414,0,0,1,3.588,3.544c.015,6.564,0,13.128.019,19.691,0,.607-.163.767-.766.763-4.067-.026-8.134-.036-12.2.007-.746.008-.769-.3-.766-.873.02-3.282.01-6.564.01-9.846" transform="translate(-76.935 -179.984)" fill="#6fa6d6" opacity="0.5"/>
    <path id="Path_17504" data-name="Path 17504" d="M54.688,301.647c-2,0-3.995-.021-5.991.013-.583.01-.787-.121-.781-.749.033-3.174,0-6.348.023-9.522a3.377,3.377,0,0,1,3.463-3.444q3.37-.039,6.74,0a3.4,3.4,0,0,1,3.491,3.531c.02,3.138-.01,6.277.019,9.415.005.6-.147.781-.759.77-2.068-.038-4.137-.015-6.205-.015" transform="translate(-34.199 -205.673)" fill="#6fa6d6" opacity="0.5"/>
  </g>
</svg>
