<svg id="Group_1280" data-name="Group 1280" xmlns="http://www.w3.org/2000/svg" xmlns:xlink="http://www.w3.org/1999/xlink" width="90" height="93" viewBox="0 0 90 93">
  <defs>
    <clipPath id="clip-path">
      <rect id="Rectangle_1910" data-name="Rectangle 1910" width="90" height="93" fill="none"/>
    </clipPath>
  </defs>
  <g id="Group_1222" data-name="Group 1222" clip-path="url(#clip-path)">
    <path id="Path_17437" data-name="Path 17437" d="M0,40.984Q0,24.823,0,8.661C0,3.359,3.342,0,8.618,0Q30.424,0,52.23,0c5.257,0,8.589,3.372,8.589,8.69q0,24.166,0,48.333a3.828,3.828,0,0,0,.037.9c.068.274.374.221.6.254.449.068.442-.339.54-.581q2.528-6.221,5.033-12.452c.564-1.394,1.1-2.8,1.727-4.166A11.156,11.156,0,0,1,89.416,49.31c-2.423,6.511-5.128,12.916-7.771,19.342a9.953,9.953,0,0,1-4.31,4.746.985.985,0,0,0-.582,1.091,17.556,17.556,0,0,1-33.529,8.554,1.268,1.268,0,0,0-1.395-.892q-16.6.039-33.209.018C3.348,82.169,0,78.806,0,73.508Q0,57.246,0,40.984" transform="translate(0 0)" fill="#6fa6d6" opacity="0.5"/>
    <path id="Path_17438" data-name="Path 17438" d="M11.993,49.81q0-16.161,0-32.323c0-3.568,1.891-5.49,5.4-5.491H61.008c3.472,0,5.4,1.925,5.4,5.39q0,24.216.025,48.434c0,.89-.26,1.085-1.085,1.185-7.367.893-13.833,7.453-14.742,14.864a17.737,17.737,0,0,0,0,5.114c.086.515.048.755-.6.754-11.1-.021-22.206,0-33.309-.028A4.788,4.788,0,0,1,12,82.637q-.008-16.413,0-32.826" transform="translate(-8.792 -8.774)" fill="#fefefe"/>
    <path id="Path_17439" data-name="Path 17439" d="M197.729,272.421a14.654,14.654,0,0,1-8.232-2.634c-.472-.329-.714-.517-.156-1.074q9.6-9.6,19.143-19.268c.544-.551.742-.34,1.085.139,6.2,8.659.844,21.237-9.65,22.667a11.856,11.856,0,0,1-2.19.171" transform="translate(-138.575 -182.198)" fill="#fefefe"/>
    <path id="Path_17440" data-name="Path 17440" d="M182.1,227.9a14.939,14.939,0,0,1,8.694,2.75c.472.337.524.523.092.956q-9.625,9.65-19.21,19.342c-.5.509-.682.328-1.017-.133-6.258-8.6-.833-21.4,9.649-22.727.692-.088,1.388-.146,1.791-.188" transform="translate(-123.164 -166.681)" fill="#fefefe"/>
    <path id="Path_17441" data-name="Path 17441" d="M275.286,148.848a7.906,7.906,0,0,1-.588,2.845c-.909,2.263-1.837,4.52-2.715,6.8-.234.607-.456.712-1.079.453q-6.63-2.76-13.3-5.421c-.638-.254-.772-.453-.488-1.115.961-2.241,1.807-4.532,2.767-6.774a7.988,7.988,0,0,1,15.236,1.621,15.9,15.9,0,0,1,.167,1.6" transform="translate(-188.395 -102.917)" fill="#fefefe"/>
    <path id="Path_17442" data-name="Path 17442" d="M254.835,215.632c-.3-.181-.28-.522-.383-.793A17.331,17.331,0,0,0,244.5,204.6c-.658-.27-.872-.467-.54-1.185.642-1.393,1.2-2.827,1.746-4.261.185-.485.365-.6.867-.394q6.817,2.812,13.656,5.57c.5.2.534.41.34.875-.975,2.342-1.9,4.7-2.872,7.047a7.052,7.052,0,0,1-2.856,3.376" transform="translate(-178.738 -145.3)" fill="#fefefe"/>
    <path id="Path_17443" data-name="Path 17443" d="M89.127,35.977c1,0,2-.012,3,0a1.646,1.646,0,0,1,1.83,1.871c.013,1.308.03,2.617-.01,3.923-.017.544.163.672.673.659,1.3-.034,2.6-.022,3.9-.008a1.64,1.64,0,0,1,1.841,1.858q.021,2.968,0,5.936a1.643,1.643,0,0,1-1.834,1.866c-1.266.015-2.533.035-3.8-.01-.591-.021-.816.1-.784.755.06,1.238.023,2.481.015,3.722-.009,1.381-.58,1.973-1.926,1.979q-2.9.014-5.8,0c-1.286-.008-1.866-.609-1.877-1.924-.01-1.274-.034-2.55.012-3.823.021-.589-.179-.723-.727-.707-1.265.039-2.532.021-3.8.01-1.293-.012-1.882-.6-1.889-1.913q-.016-2.918,0-5.835c.007-1.31.593-1.9,1.885-1.914,1.266-.012,2.533-.028,3.8.009.543.016.753-.108.73-.7-.047-1.239-.018-2.481-.013-3.722.006-1.457.554-2.021,1.973-2.031.933-.006,1.866,0,2.8,0" transform="translate(-57.146 -26.31)" fill="#6fa6d6" opacity="0.5"/>
    <path id="Path_17444" data-name="Path 17444" d="M79.086,153.143H62.3c-.267,0-.535.018-.8-.009a1.606,1.606,0,0,1-.035-3.2,7.131,7.131,0,0,1,.8-.01H96.139a4.274,4.274,0,0,1,.9.026,1.605,1.605,0,0,1,.034,3.163,3.975,3.975,0,0,1-.9.032H79.086" transform="translate(-43.982 -109.641)" fill="#6fa6d6" opacity="0.5"/>
    <path id="Path_17445" data-name="Path 17445" d="M79.317,185.9H96.1a4.825,4.825,0,0,1,.9.019,1.606,1.606,0,0,1,.019,3.179,4.509,4.509,0,0,1-.9.023H62.248a6.541,6.541,0,0,1-.8-.012,1.588,1.588,0,0,1-1.442-1.64,1.566,1.566,0,0,1,1.424-1.555,4.618,4.618,0,0,1,.8-.015H79.317" transform="translate(-43.991 -135.958)" fill="#6fa6d6" opacity="0.5"/>
    <path id="Path_17446" data-name="Path 17446" d="M74.287,225.129H62.3c-.233,0-.467.013-.7,0a1.607,1.607,0,0,1-.041-3.214c.265-.021.533-.005.8-.005H86.733c1.319.007,2.079.612,2.059,1.64-.02,1-.752,1.579-2.018,1.581q-3.546.006-7.093,0H74.287" transform="translate(-43.982 -162.293)" fill="#6fa6d6" opacity="0.5"/>
    <path id="Path_17447" data-name="Path 17447" d="M71.981,257.905q5.043,0,10.087,0c1.179,0,1.9.6,1.922,1.573a1.636,1.636,0,0,1-1.853,1.643q-10.137.01-20.274,0c-1.158,0-1.881-.648-1.871-1.624s.731-1.577,1.9-1.595c.167,0,.333,0,.5,0h9.588" transform="translate(-43.982 -188.625)" fill="#6fa6d6" opacity="0.5"/>
    <path id="Path_17448" data-name="Path 17448" d="M27.413,153.123c-.666,0-1.333.029-2-.008a1.556,1.556,0,0,1-1.561-1.609,1.538,1.538,0,0,1,1.575-1.592q2.045-.055,4.092,0a1.564,1.564,0,0,1,1.571,1.606,1.584,1.584,0,0,1-1.585,1.6c-.7.035-1.4.007-2.1.006" transform="translate(-17.49 -109.623)" fill="#6fa6d6" opacity="0.5"/>
    <path id="Path_17449" data-name="Path 17449" d="M27.452,189.114c-.666,0-1.332.024-2-.006a1.6,1.6,0,1,1,.032-3.207q2-.046,3.993,0a1.572,1.572,0,0,1,1.611,1.568,1.594,1.594,0,0,1-1.644,1.64c-.665.027-1.331.005-2,0" transform="translate(-17.488 -135.946)" fill="#6fa6d6" opacity="0.5"/>
    <path id="Path_17450" data-name="Path 17450" d="M27.589,221.9c.6,0,1.2-.016,1.8,0a1.6,1.6,0,0,1,1.708,1.576,1.581,1.581,0,0,1-1.647,1.635c-1.33.03-2.663.032-3.993,0a1.6,1.6,0,1,1,.039-3.207c.7-.028,1.4-.005,2.1-.005" transform="translate(-17.49 -162.286)" fill="#6fa6d6" opacity="0.5"/>
    <path id="Path_17451" data-name="Path 17451" d="M27.393,261.112c-.566,0-1.132.008-1.7,0-1.174-.02-1.856-.63-1.842-1.636.013-.969.675-1.567,1.793-1.581,1.2-.015,2.4-.012,3.594,0,1.161.011,1.867.644,1.851,1.634s-.722,1.571-1.9,1.585c-.6.007-1.2,0-1.8,0" transform="translate(-17.488 -188.609)" fill="#6fa6d6" opacity="0.5"/>
    <path id="Path_17452" data-name="Path 17452" d="M96.244,61.253c0-.671.019-1.343-.005-2.014a1.6,1.6,0,0,0-1.7-1.7c-1.366-.026-2.734-.027-4.1,0-.486.012-.594-.144-.612-.619-.1-2.615-.111-2.614,2.421-2.614.767,0,1.534.02,2.3-.005a1.6,1.6,0,0,0,1.687-1.71q.04-2.063,0-4.128c-.011-.492.147-.6.617-.614,2.6-.1,2.6-.11,2.6,2.439,0,.772-.02,1.545.006,2.316a1.6,1.6,0,0,0,1.7,1.7c1.367.026,2.735.028,4.1,0,.488-.012.593.149.61.621.1,2.613.11,2.613-2.422,2.613-.767,0-1.535-.02-2.3.005a1.593,1.593,0,0,0-1.686,1.708c-.026,1.376-.027,2.753,0,4.128.011.489-.143.6-.615.616-2.6.1-2.6.111-2.6-2.437q0-.151,0-.3" transform="translate(-65.834 -34.977)" fill="#fefefe"/>
  </g>
</svg>
