<svg id="Group_1291" data-name="Group 1291" xmlns="http://www.w3.org/2000/svg" xmlns:xlink="http://www.w3.org/1999/xlink" width="80" height="104" viewBox="0 0 80 104">
  <defs>
    <clipPath id="clip-path">
      <rect id="Rectangle_1905" data-name="Rectangle 1905" width="80" height="104" fill="none"/>
    </clipPath>
    <clipPath id="clip-path-2">
      <rect id="Rectangle_1906" data-name="Rectangle 1906" width="20.78" height="6.22" transform="translate(0 0)" fill="none"/>
    </clipPath>
  </defs>
  <g id="Group_1202" data-name="Group 1202" clip-path="url(#clip-path)">
    <path id="Path_17396" data-name="Path 17396" d="M2.915,0H59.839c3.047,1.431,2.876,4.254,2.882,6.943.039,16.549.017,33.1.017,49.646,0,7.534.071,15.069-.03,22.6-.079,5.882-1.809,7.717-7.731,7.77q-23.211.208-46.423,0C2.264,86.9.07,84.647.05,78.384Q-.066,42.462.035,6.539C.038,3.951.052,1.327,2.915,0" transform="translate(0)" fill="#6fa6d6" opacity="0.5"/>
    <path id="Path_17397" data-name="Path 17397" d="M73.937,153.052c-3.217-3.294-1.423-7.394-1.6-11.125-.089-1.829,1.906-.95,2.9-.956,11.353-.076,22.707-.036,34.061-.053,7.6-.011,10.994-3.4,11.005-11.075.028-19.4.087-38.8-.07-58.2-.025-3.06.767-4.2,3.727-3.652a4.45,4.45,0,0,0,.8.006c7.578-.005,7.579-.005,7.579,7.505q0,35.767.034,71.534c0,2.191-.185,4.214-1.5,6.011Z" transform="translate(-52.583 -49.551)" fill="#6fa6d6" opacity="0.5"/>
    <path id="Path_17398" data-name="Path 17398" d="M60.957,101.817c5.46,0,10.921.036,16.38-.017,2.273-.022,4.163.589,4.116,3.18-.043,2.383-1.973,2.954-4,2.956q-16.98.023-33.959,0c-2.04,0-3.9-.594-3.9-3.031,0-2.676,1.955-3.117,4.179-3.1,5.726.044,11.453.015,17.179.015" transform="translate(-28.921 -74.331)" fill="#fafafa"/>
    <path id="Path_17399" data-name="Path 17399" d="M60.252,152.885q-8.19,0-16.38,0c-2.146,0-4.254-.38-4.258-3.078,0-2.673,2-3.068,4.213-3.062q16.78.049,33.559-.006c2.108-.009,3.926.534,4.078,2.827.176,2.638-1.836,3.3-4.033,3.313-5.726.028-11.453.009-17.179.009" transform="translate(-28.933 -107.141)" fill="#fafafa"/>
    <path id="Path_17400" data-name="Path 17400" d="M60.511,197.836q-8.39,0-16.78-.005c-2.183,0-4.235-.515-4.148-3.191.087-2.658,2.147-2.957,4.334-2.95q16.58.055,33.16,0c2.208-.009,4.3.373,4.359,2.939.072,2.9-2.278,3.21-4.546,3.211q-8.19.006-16.38,0" transform="translate(-28.908 -139.962)" fill="#fafafa"/>
    <path id="Path_17401" data-name="Path 17401" d="M51.458,56.887q4.18,0,8.36,0c2.014,0,3.422.879,3.467,2.995.047,2.17-1.47,3.073-3.405,3.093q-8.557.085-17.115-.014c-1.972-.025-3.408-1.081-3.274-3.212.131-2.091,1.6-2.893,3.608-2.869,2.786.035,5.573.009,8.359.009" transform="translate(-28.836 -41.53)" fill="#f9f9f9"/>
    <g id="Group_1205" data-name="Group 1205" transform="translate(31.612 64.861)">
      <g id="Group_1204" data-name="Group 1204" transform="translate(0 0)" clip-path="url(#clip-path-2)">
        <path id="Path_17402" data-name="Path 17402" d="M10.646.018c2.159,0,4.319-.048,6.476.014s3.53,1.128,3.652,3.017a2.878,2.878,0,0,1-3.044,3.06c-4.92.155-9.854.145-14.774-.006A2.829,2.829,0,0,1,.006,2.985,3.047,3.047,0,0,1,3.246.064c2.46-.115,4.933-.028,7.4-.028V.018" transform="translate(0 0)" fill="#f9f9f9"/>
      </g>
    </g>
  </g>
</svg>
