<svg id="Group_1297" data-name="Group 1297" xmlns="http://www.w3.org/2000/svg" xmlns:xlink="http://www.w3.org/1999/xlink" width="98" height="104" viewBox="0 0 98 104">
  <defs>
    <clipPath id="clip-path">
      <rect id="Rectangle_1907" data-name="Rectangle 1907" width="98" height="104" fill="none"/>
    </clipPath>
  </defs>
  <g id="Group_1206" data-name="Group 1206" clip-path="url(#clip-path)">
    <path id="Path_17403" data-name="Path 17403" d="M72.574,104.384a16.606,16.606,0,0,0-2.908-.682,21.806,21.806,0,0,1-10.9-6.76,1.95,1.95,0,0,0-1.652-.712q-25.319.028-50.639.012A6.1,6.1,0,0,1,.12,91.352,7.835,7.835,0,0,1,0,89.732Q0,53.191,0,16.651c0-3.948,2.532-6.46,6.5-6.481,1.834-.01,3.668-.013,5.5.006a1.2,1.2,0,0,0,1.114-.488A3.984,3.984,0,0,1,16.49,8.124c3.77.017,7.54-.012,11.309.021.673.006.98-.137,1.183-.845A10.165,10.165,0,0,1,48.5,7.327a.931.931,0,0,0,1.1.816c3.736-.028,7.472,0,11.207-.022a4.1,4.1,0,0,1,3.624,1.67.986.986,0,0,0,.961.38c1.9-.006,3.8-.016,5.706,0a6.068,6.068,0,0,1,6.373,6.409q.012,20.895-.015,41.79c0,.924.126,1.291,1.2,1.422a22.372,22.372,0,0,1-.888,44.4c-.141.016-.264.031-.305.192Z" transform="translate(0 0)" fill="#6fa6d6" opacity="0.5"/>
    <path id="Path_17404" data-name="Path 17404" d="M44.766,64.1q0-14.883.012-29.766c0-.334-.243-.818.187-1,.469-.2.58.354.811.6a4.066,4.066,0,0,0,3.061,1.387q6.521.027,13.043,0a2.048,2.048,0,0,0,2.241-2.1,2.018,2.018,0,0,0-2.258-1.962c-4.042-.012-8.084-.021-12.126.011-.686.006-.933-.123-.913-.871.056-2.105.052-4.214,0-6.319-.018-.761.137-1.023.972-1.013,4.279.049,8.559.026,12.839.021,1.7,0,2.4-.657,2.528-2.354a6.113,6.113,0,0,1,12.2-.085c.18,1.87.793,2.439,2.65,2.439,4.28,0,8.56.013,12.839-.012.626,0,.876.1.86.811-.052,2.174-.056,4.35,0,6.523.02.761-.253.864-.923.86-4.042-.031-8.084-.026-12.126-.01a2.026,2.026,0,0,0-2.026,2.949,2,2,0,0,0,1.916,1.116c4.415.009,8.831.021,13.247-.01a3.9,3.9,0,0,0,3.084-1.542c.185-.228.318-.6.694-.452s.184.532.185.8q.016,18.96.024,37.921a1.238,1.238,0,0,1-.749,1.25,21.984,21.984,0,0,0-10.349,12.58c-.253.764-.614.872-1.293.87q-15.285-.024-30.57-.011c-.34,0-.682-.02-1.018.013a2,2,0,0,0-1.895,2.113A1.972,1.972,0,0,0,53.877,90.8c.44.029.883.012,1.324.012q14.674,0,29.347-.017c.793,0,1.18.086,1.03,1.015a6.809,6.809,0,0,0,0,2.133c.144.887-.241.961-.972.96q-19.412-.027-38.824.008c-.854,0-1.042-.208-1.039-1.048.033-9.922.021-19.844.021-29.766" transform="translate(-32.532 -10.885)" fill="#fefefe"/>
    <path id="Path_17405" data-name="Path 17405" d="M227.968,233.813a18.036,18.036,0,0,1,18.33,18.432,18.347,18.347,0,0,1-36.693-.018,18.069,18.069,0,0,1,18.363-18.414" transform="translate(-152.515 -170.111)" fill="#fefefe"/>
    <path id="Path_17406" data-name="Path 17406" d="M66.277,130.206H17.745c-2.181,0-2.771-.593-2.771-2.782q0-36.185,0-72.37c0-2.186.58-2.758,2.783-2.759,1.562,0,3.125.018,4.687-.01.51-.009.726.1.7.666-.047.949-.033,1.9,0,2.853.014.45-.143.6-.584.576a13.937,13.937,0,0,0-1.528,0,1.976,1.976,0,0,0-1.965,1.933c-.019.271-.008.544-.008.815q0,32.108,0,64.216c0,2.189.586,2.776,2.771,2.776q20.939,0,41.878-.024a1.2,1.2,0,0,1,1.4,1.024c.3,1.027.759,2.009,1.179,3.086" transform="translate(-10.895 -38.039)" fill="#fefefe"/>
    <path id="Path_17407" data-name="Path 17407" d="M243.359,98.077V96.922q0-19.06,0-38.121c0-2.107-.61-2.706-2.74-2.709-1.337,0-1.344,0-1.335-1.329.006-.878-.3-2.053.142-2.555.516-.584,1.717-.154,2.62-.186s1.834-.008,2.751-.007c1.989,0,2.64.64,2.64,2.6q0,9.021,0,18.041c0,7.917-.01,15.833.016,23.749,0,.745-.139,1.066-.963,1.119a27.654,27.654,0,0,0-3.13.553" transform="translate(-174.038 -37.76)" fill="#fefefe"/>
    <path id="Path_17408" data-name="Path 17408" d="M77.56,114.826a2.894,2.894,0,0,0-.04.547c.056.605.275.891.9.475a12.5,12.5,0,0,1,3.7-1.622c.3-.079.893.106.864-.455-.031-.588.308-1.229-.39-1.757a3.781,3.781,0,0,1-1.462-4.237,3.941,3.941,0,0,1,3.518-3.054,4.077,4.077,0,0,1,3.07,7.127c-.288.256-.641.4-.657.928-.026.861.058,1.421,1.124,1.556a8.988,8.988,0,0,1,3.177,1.3c.281.158.5.613.949.321.409-.266.249-.653.229-1.012a4,4,0,0,1,3.387-4.371,4.06,4.06,0,1,1,.787,8.063c-1.8.042-1.791.039-.93,1.635a13.433,13.433,0,0,1,1.145,2.923c.081.3-.088.89.455.868.588-.024,1.231.3,1.757-.385a3.8,3.8,0,0,1,4.333-1.44,3.966,3.966,0,0,1,2.971,3.594,4.072,4.072,0,0,1-2.5,4.051,3.841,3.841,0,0,1-4.6-1.1c-.59-.783-1.27-.586-1.974-.606-.431-.013-.31.383-.365.6a13.513,13.513,0,0,1-1.636,3.921c-.125.2-.434.376-.162.7a.707.707,0,0,0,.712.266,4.061,4.061,0,1,1,.194,8.037,4,4,0,0,1-3.586-4.109c0-.237.07-.476.052-.71-.047-.6-.286-.888-.9-.486a12.389,12.389,0,0,1-3.705,1.618c-.3.078-.884-.07-.859.461.028.587-.3,1.222.379,1.761a3.909,3.909,0,0,1,1.27,4.816,3.962,3.962,0,0,1-3.845,2.489,4.109,4.109,0,0,1-3.684-2.608,3.915,3.915,0,0,1,1.082-4.449,1.849,1.849,0,0,0,.708-1.733c-.014-.411-.117-.57-.537-.659a11.814,11.814,0,0,1-4.1-1.707c-.641-.424-.872-.055-.865.527a6.061,6.061,0,0,1-.114,1.917,4.072,4.072,0,0,1-4.879,2.8,4.115,4.115,0,0,1-3.087-4.338,4.052,4.052,0,0,1,4.248-3.673,4.58,4.58,0,0,0,.608.05c.593-.058.9-.269.48-.9a12.668,12.668,0,0,1-1.6-3.6c-.092-.327.11-.96-.479-.962-.619,0-1.274-.276-1.829.454a3.864,3.864,0,0,1-4.745,1.2,3.939,3.939,0,0,1-2.482-3.844,4.067,4.067,0,0,1,2.589-3.69,3.949,3.949,0,0,1,4.454,1.071,1.754,1.754,0,0,0,1.626.718c.471-.024.687-.106.793-.632a11.756,11.756,0,0,1,1.612-3.925c.128-.2.425-.379.162-.7a.716.716,0,0,0-.717-.257,4.2,4.2,0,0,1-1.91-.133,4.079,4.079,0,0,1,1.629-7.943,4.063,4.063,0,0,1,3.67,4.309" transform="translate(-46.314 -76.183)" fill="#6fa6d6" opacity="0.5"/>
    <path id="Path_17409" data-name="Path 17409" d="M136.884,29.879a1.991,1.991,0,0,1,1.944,2.052,2.03,2.03,0,1,1-4.058-.071,1.989,1.989,0,0,1,2.114-1.98" transform="translate(-98.062 -21.738)" fill="#6fa6d6" opacity="0.5"/>
    <path id="Path_17410" data-name="Path 17410" d="M136.788,74.791a2.03,2.03,0,0,1,2.044,1.964,2.057,2.057,0,0,1-2.031,2.094,2.037,2.037,0,0,1-2.037-2.08,2.015,2.015,0,0,1,2.024-1.977" transform="translate(-98.058 -54.414)" fill="#6fa6d6" opacity="0.5"/>
    <path id="Path_17411" data-name="Path 17411" d="M255.049,267.037a5.878,5.878,0,0,1-1.732,4.32c-3.145,3.149-6.273,6.315-9.442,9.439a6.057,6.057,0,0,1-8.832,0c-1.484-1.446-2.955-2.907-4.393-4.4a6.121,6.121,0,0,1-.224-8.469,6.041,6.041,0,0,1,8.511-.471c.445.374.662.347,1.047-.048,1.564-1.606,3.13-3.213,4.759-4.753a6.085,6.085,0,0,1,10.306,4.384" transform="translate(-166.506 -189.846)" fill="#6fa6d6" opacity="0.5"/>
    <path id="Path_17412" data-name="Path 17412" d="M120.421,153.392a8.171,8.171,0,0,1,8.194,8.01,8.151,8.151,0,1,1-8.194-8.01" transform="translate(-81.723 -111.601)" fill="#fefefe"/>
    <path id="Path_17413" data-name="Path 17413" d="M250.424,289.507a2.042,2.042,0,0,1-1.62-.7c-1.41-1.419-2.838-2.821-4.241-4.247a2.073,2.073,0,0,1-.172-2.991,2.029,2.029,0,0,1,3.057.128c.393.374.768.767,1.154,1.147,1.286,1.267,2.275,1.264,3.576-.03,2.067-2.057,4.117-4.132,6.192-6.181a2.018,2.018,0,0,1,2.507-.4,1.982,1.982,0,0,1,.952,2.265,2.141,2.141,0,0,1-.676,1.106l-9.131,9.141a2.112,2.112,0,0,1-1.6.759" transform="translate(-177.42 -200.777)" fill="#fefefe"/>
  </g>
</svg>
