<svg id="Group_1284" data-name="Group 1284" xmlns="http://www.w3.org/2000/svg" xmlns:xlink="http://www.w3.org/1999/xlink" width="88" height="88" viewBox="0 0 88 88">
  <defs>
    <clipPath id="clip-path">
      <rect id="Rectangle_1914" data-name="Rectangle 1914" width="88" height="88" fill="none"/>
    </clipPath>
  </defs>
  <g id="Group_1230" data-name="Group 1230" clip-path="url(#clip-path)">
    <path id="Path_17505" data-name="Path 17505" d="M.412,58.245A20.788,20.788,0,0,1,16.6,39.226a20.268,20.268,0,0,1,11.639.708,24.531,24.531,0,0,0,4.9,1.473c.433.059.513.239.447.616s-.082.738-.135,1.105c-.186,1.3-.188,1.3-1.52,1.059a26.325,26.325,0,0,1-4.477-1.422A17.914,17.914,0,0,0,3.6,56.192a30.64,30.64,0,0,0,.341,10.825,43.066,43.066,0,0,0,6.132,15.755,12.017,12.017,0,0,1,1.146,3.915c1.884,8.171,3.757,16.344,5.557,24.533.647,2.944,3.526,4.292,5.842,2.937a3.754,3.754,0,0,0,1.872-2.731q1.028-6.079,2.044-12.16c.795-4.729,1.551-9.465,2.4-14.184a6.6,6.6,0,0,1,12.586-1.421,18.1,18.1,0,0,1,.953,4.422c1.293,7.685,2.553,15.375,3.838,23.061a3.971,3.971,0,0,0,3.789,3.549,3.9,3.9,0,0,0,3.911-3.282Q57.1,97.9,60.172,84.382a4.75,4.75,0,0,1,.569-1.509,42.556,42.556,0,0,0,5.12-11.335c.172-.625.443-.762,1.008-.529.649.268,1.66.139,1.917.69.215.462-.3,1.266-.5,1.916a45.121,45.121,0,0,1-4.706,10.224c-.873,1.437-.961,3.088-1.324,4.656-1.822,7.863-3.567,15.743-5.387,23.607a6.628,6.628,0,0,1-5.439,5.378c-.068.014-.121.1-.181.145H49.019a6.435,6.435,0,0,1-5.662-5.411c-.8-3.746-1.306-7.549-1.948-11.325q-1.236-7.272-2.429-14.551a8.2,8.2,0,0,0-.227-1,3.233,3.233,0,0,0-3.213-2.471,3.27,3.27,0,0,0-3.381,2.373,20.542,20.542,0,0,0-.558,2.947c-1.279,7.671-2.577,15.339-3.827,23.014a7.537,7.537,0,0,1-3.764,5.817,8.7,8.7,0,0,1-2.457.611H19.321a6.488,6.488,0,0,1-4.5-2.967,7.525,7.525,0,0,1-1.05-2.515c-2.026-8.915-4.068-17.827-6.069-26.748a10.046,10.046,0,0,0-1.374-2.747A44.929,44.929,0,0,1,.505,65.215,29.878,29.878,0,0,1,.355,61.2c.035-.984-.072-1.97.058-2.952" transform="translate(-0.266 -29.815)" fill="#6fa6d6" opacity="0.5"/>
    <path id="Path_17506" data-name="Path 17506" d="M.144,127.078l-.074.009L0,127.066v-3.089a.284.284,0,0,1,.146-.012l0,3.113" transform="translate(0 -95.535)" fill="#a9a9a9"/>
    <path id="Path_17507" data-name="Path 17507" d="M194.09,20.637a19.937,19.937,0,0,1-1.957,8.606c-.614,1.289-.627,1.283.4,2.313l12.32,12.315c1.245,1.244,1.247,1.835.014,3.071-1.192,1.195-2.381,2.392-3.58,3.58-1,.992-1.7.992-2.7-.015q-6.318-6.3-12.618-12.624c-.413-.416-.682-.552-1.256-.181a20.49,20.49,0,1,1,9.093-20.735,19.988,19.988,0,0,1,.283,3.671" transform="translate(-117.983 0)" fill="#6fa6d6" opacity="0.5"/>
    <path id="Path_17508" data-name="Path 17508" d="M33.848,89.023c-1.651,0-1.619,0-1.415-1.732a11.222,11.222,0,0,1,5.518-8.766,9.924,9.924,0,0,1,2.341-1.012c.369-.11.563-.07.626.384a7.252,7.252,0,0,1,.371,2.079c-.141.738-1.134.627-1.715.97A8.545,8.545,0,0,0,35.3,87.764c-.143,1.261-.161,1.259-1.456,1.259" transform="translate(-24.93 -59.699)" fill="#6fa6d6" opacity="0.5"/>
    <path id="Path_17509" data-name="Path 17509" d="M86.217,78.4c0,1.451,0,1.451-1.465,1.451s-1.459,0-1.459-1.466,0-1.456,1.474-1.456c1.45,0,1.45,0,1.45,1.47" transform="translate(-64.219 -59.288)" fill="#6fa6d6" opacity="0.5"/>
    <path id="Path_17510" data-name="Path 17510" d="M201.478,30.824a17.529,17.529,0,1,1-17.431-17.552,17.5,17.5,0,0,1,17.431,17.552" transform="translate(-128.31 -10.228)" fill="#fefefe"/>
    <path id="Path_17511" data-name="Path 17511" d="M307,144.128c.184.171.375.337.553.515,3.763,3.758,7.513,7.529,11.3,11.265.494.487.479.756-.019,1.18-.607.517-1.155,1.531-1.733,1.534s-1.162-.972-1.727-1.535c-3.36-3.352-6.707-6.718-10.083-10.053-.429-.424-.438-.643,0-1.05.6-.561,1.125-1.212,1.709-1.856" transform="translate(-235.126 -111.078)" fill="#fefefe"/>
    <path id="Path_17512" data-name="Path 17512" d="M208.378,40.7a14.608,14.608,0,1,1-14.434-14.69A14.57,14.57,0,0,1,208.378,40.7" transform="translate(-138.136 -20.042)" fill="#6fa6d6" opacity="0.5"/>
    <path id="Path_17513" data-name="Path 17513" d="M215.286,50.427a11.687,11.687,0,1,1-11.626-11.7,11.661,11.661,0,0,1,11.626,11.7" transform="translate(-147.965 -29.85)" fill="#fefefe"/>
    <path id="Path_17514" data-name="Path 17514" d="M238.58,75.075c-.144.151-.258.276-.376.394q-4.7,4.7-9.387,9.4c-.359.363-.559.327-.869-.024-.49-.554-1.374-1.034-1.437-1.616s.877-1.07,1.389-1.585c2.719-2.735,5.461-5.448,8.17-8.193.39-.4.616-.433.976,0s.8.813,1.2,1.221c.115.118.212.254.333.4" transform="translate(-174.639 -56.37)" fill="#6fa6d6" opacity="0.5"/>
    <path id="Path_17515" data-name="Path 17515" d="M220.413,55.853c-.115.138-.212.273-.328.388q-3.634,3.634-7.266,7.269c-.3.3-.484.378-.8.016-.507-.579-1.478-1.1-1.493-1.66-.014-.542.924-1.122,1.464-1.665,1.973-1.984,3.963-3.951,5.925-5.946.35-.356.567-.46.929-.023.381.46.84.854,1.262,1.28.1.1.19.21.308.341" transform="translate(-162.316 -41.575)" fill="#6fa6d6" opacity="0.5"/>
  </g>
</svg>
