<svg id="Group_1095" data-name="Group 1095" xmlns="http://www.w3.org/2000/svg" xmlns:xlink="http://www.w3.org/1999/xlink" width="100.105" height="130.814" viewBox="0 0 100.105 130.814">
  <defs>
    <clipPath id="clip-path">
      <rect id="Rectangle_1854" data-name="Rectangle 1854" width="100.105" height="130.814" fill="none"/>
    </clipPath>
  </defs>
  <g id="Group_961" data-name="Group 961" clip-path="url(#clip-path)">
    <path id="Path_11328" data-name="Path 11328" d="M100.1,70.425q0,23.918-.008,47.837c-.015,8.576-4.006,12.529-12.662,12.536q-37.508.03-75.015,0C4.126,130.787.026,126.743.02,118.546q-.039-48.652,0-97.3C.026,13.014,4.157,8.382,12.361,9.126,21.587,9.964,30.22,6.259,39.29,6.79c1.457.086,2.169-.647,3.037-1.735,5.436-6.815,9.648-6.735,15.566.217.741.87,1.361,1.6,2.627,1.511,9.08-.637,17.7,3.2,26.933,2.351,8.578-.789,12.622,3.783,12.637,12.367q.041,24.462.008,48.924" transform="translate(0 0)" fill="rgba(112,82,37,0.5)"/>
    <path id="Path_11329" data-name="Path 11329" d="M53.083,154.97c-5.951-.026-13.537,2.148-17.382-.711-3.671-2.729-1.065-10.8-1.095-16.515-.125-24.452.044-48.907-.151-73.358-.032-3.979.806-5.539,4.992-5.044,4.787.567,10.029-1.325,13.88,3.44,1.179,1.459,3.38.976,5.182.977,7.064,0,14.13.109,21.191-.036,4.7-.1,9.033.426,13.492-3.535,3.129-2.779,9.409-.823,14.265-.6,1.646.076,1.05,2.036,1.048,3.181-.017,12.313-.092,24.626-.151,36.939a44.2,44.2,0,0,1-6.433,18.163c-1.223,1.975-2.345,4.153-5.117,4.349-10.419-.629-20.838-.206-31.27.115,9.6,1.6,19.363-.2,28.952,1.43,2.71,1.929.961,3.9-.293,5.385-2.971,3.509-5.924,7.107-10.007,9.465-6.328,1.358-12.815.027-20.408,1.046,5.29,1.856,9.881-.075,13.925,1.85,1.466,3.615-1.97,3.975-3.64,5.511-2.407,1.017-4.968.744-7.483.792-2.258.042-3.868.769-4.155,3.264-2.011,3.949-6.188,2.689-9.343,3.891" transform="translate(-21.49 -37.398)" fill="#f3f1eb"/>
    <path id="Path_11330" data-name="Path 11330" d="M103.384,93.639q0,23.1,0,46.2c-.007,7.7-2.019,9.8-9.467,9.8q-36.418.027-72.836,0c-6.875-.008-9.065-2.206-9.07-9.095q-.033-47.561,0-95.123c.005-6.606,2.226-8.831,8.7-8.909,3.8-.046,7.611-.054,11.414.017,1.506.028,3.57-.544,3.667,1.99.114,2.974-2.241,2.263-3.89,2.305-3.621.093-7.254.171-10.869-.006-3.567-.175-4.737,1.366-4.729,4.829q.117,47.561.012,95.123c-.006,3.2,1.128,4.576,4.44,4.562q28.264-.118,56.529-.01a5.711,5.711,0,0,0,4.813-1.969,4.23,4.23,0,0,1,.775-.76c13.165-9.389,17.906-21.629,16.529-38.1-1.6-19.072-.513-38.382-.273-57.585.061-4.833-1.513-6.54-6.246-6.122-3.595.318-7.241.052-10.865.036-1.423-.006-2.461-.431-2.468-2.135S80.564,36.535,82,36.535c5.072,0,10.176-.33,15.209.123,4.926.444,6.236,4.074,6.213,8.6-.084,16.125-.033,32.251-.033,48.377" transform="translate(-7.638 -23.198)" fill="rgba(112,82,37,0.85)"/>
    <path id="Path_11331" data-name="Path 11331" d="M107.644,218.2l4.345-3.981c.883-1.465,2.425-1.33,3.8-1.5,1.943-.24,2.862-1.258,2.756-3.208,3.245-4.564,8.5-7.409,10.875-12.717.032-1.565,1.051-2.512,2.14-3.414C137.3,187.2,139,179.03,142.3,171.646c.059,11.6.041,23.2.234,34.795.045,2.712-.95,3.2-3.437,3.3-13.348.531-13.42.6-13.959,13.973-.1,2.5-.62,3.469-3.315,3.425-11.6-.191-23.2-.175-34.794-.233,2.585-2.046,6.453-1.442,8.689-4.207,3.195-2.434,6.916-1.19,10.412-1.453,3.376-.254,6.795.312,10.871-.51-3.346-1.668-7.039.2-9.358-2.541" transform="translate(-55.437 -109.336)" fill="#f3f1eb"/>
    <path id="Path_11332" data-name="Path 11332" d="M106.783,29.616c-4.17,0-8.355-.233-12.5.057-5.422.379-4.3-3.3-4.6-6.469-.332-3.525.816-4.782,4.454-4.553,3.886.244,8.061,1.362,9.842-4.572.877-2.921,5.621-2.82,6.431.13,1.506,5.483,5.206,4.608,8.825,4.477,3.437-.125,5.88-.07,5.454,4.688-.338,3.772-.091,6.858-5.4,6.326-4.128-.414-8.331-.083-12.5-.083" transform="translate(-57.088 -7.607)" fill="rgba(112,82,37,0.85)"/>
    <path id="Path_11333" data-name="Path 11333" d="M212.513,288.987l-8.53,8.519c-2.816-8.96-1.985-9.858,8.53-8.519" transform="translate(-129.05 -183.763)" fill="#f3f1eb"/>
    <path id="Path_11334" data-name="Path 11334" d="M47.376,99.677c.649-2.833.008-6.98,4.545-3.1,1.243,1.064,2.439.773,2.98-.726.474-1.313-.476-2.119-1.674-2.11-1.83.013-3.741-.276-3.08-2.451a6.8,6.8,0,0,1,4.888-4.674c1.719-.366,2.238,1.267,2.174,2.935-.061,1.6.888,2.54,2.378,1.789,1.337-.673,1.509-1.976.189-3.064-1.337-1.1-1.985-2.542-.289-3.506a6.642,6.642,0,0,1,6.69.025c1.7,1.008.962,2.405-.344,3.508s-1.1,2.406.265,3.05c1.522.72,2.407-.25,2.334-1.847-.076-1.681.522-3.295,2.221-2.89a7.139,7.139,0,0,1,4.878,4.718c.6,1.764-.968,2.476-2.628,2.421-1.535-.051-2.737.543-2.113,2.136.713,1.821,2.078,1.694,3.322.239,1.223-1.43,2.75-1.5,3.494.153a7.255,7.255,0,0,1-.057,6.287c-.869,1.659-2.328,1.367-3.516-.016-1.28-1.491-2.664-1.432-3.266.4-.537,1.629.743,2.068,2.241,2.036,1.65-.035,3.194.752,2.5,2.519a7.424,7.424,0,0,1-4.934,4.664c-1.393.342-2.227-.991-2.158-2.443.085-1.763-.465-3.211-2.357-2.283-1.742.855-1.166,2.259.222,3.42,1.189.994,1.262,2.447-.134,3.143a7.118,7.118,0,0,1-6.714-.053c-1.4-.772-1.17-2.206-.007-3.16,1.444-1.185,1.863-2.592.1-3.376-1.947-.865-2.387.649-2.312,2.372.064,1.472-.857,2.767-2.22,2.364a7.468,7.468,0,0,1-4.88-4.745c-.6-1.759.97-2.48,2.63-2.423,1.534.052,2.666-.486,2.132-2.137-.484-1.5-1.728-1.708-2.99-.649-4.707,3.953-3.7-.644-4.5-2.523" transform="translate(-30.178 -53.43)" fill="rgba(112,82,37,0.85)"/>
    <path id="Path_11335" data-name="Path 11335" d="M126.9,184.858q-7.339,0-14.678,0c-1.628,0-3.631.2-3.807-2-.181-2.268,1.741-2.35,3.436-2.351q14.95,0,29.9,0c1.527,0,3.178.15,3.273,2,.117,2.28-1.753,2.353-3.446,2.354q-7.339.005-14.678,0" transform="translate(-69.049 -114.98)" fill="rgba(112,82,37,0.85)"/>
    <path id="Path_11336" data-name="Path 11336" d="M145.288,229.5a2.921,2.921,0,0,1-2.14,3.413c-9.928-.056-19.857-.081-29.785-.2-1.828-.021-4.62.826-4.775-2.012-.163-2.986,2.655-2.275,4.488-2.286,9.209-.056,18.419-.016,27.629-.035,1.633,0,3.256-.083,4.583,1.116" transform="translate(-69.165 -145.456)" fill="rgba(112,82,37,0.85)"/>
    <path id="Path_11337" data-name="Path 11337" d="M59.793,186.041c-1.624-6.295,2.571-5.627,6.839-6.034,6.1-.581,5.875,2.708,6.216,7.149.469,6.106-2.738,5.892-7.181,6.208-6.037.429-6.715-2.543-5.874-7.323" transform="translate(-37.859 -114.619)" fill="rgba(180,166,128,0.6)"/>
    <path id="Path_11338" data-name="Path 11338" d="M72.461,234.539c1.447,5.468-.954,6.828-6.194,6.83-5.046,0-6.942-1.155-6.839-6.585.095-5.024,1.147-7.054,6.6-6.807,4.777.216,8.068.649,6.434,6.562" transform="translate(-37.852 -145.206)" fill="rgba(180,166,128,0.6)"/>
    <path id="Path_11339" data-name="Path 11339" d="M66.124,276.247c5.631-1.54,6.673,1.178,6.751,6.262.08,5.176-1.357,6.8-6.659,6.768-5.161-.034-6.9-1.369-6.733-6.686.158-4.908.843-7.969,6.641-6.345" transform="translate(-37.883 -175.686)" fill="rgba(180,166,128,0.6)"/>
    <path id="Path_11340" data-name="Path 11340" d="M159.563,100.959c-3.986,0-7.973-.007-11.959.009-1.531.006-3.123-.151-3.281-2-.161-1.888,1.31-2.343,2.91-2.344q12.23,0,24.461,0c1.411,0,2.653.474,2.743,1.98.114,1.9-1.319,2.343-2.917,2.345q-5.979.009-11.959.006" transform="translate(-91.924 -61.549)" fill="rgba(112,82,37,0.85)"/>
    <path id="Path_11341" data-name="Path 11341" d="M159.132,124.921q-5.979,0-11.958,0c-1.626,0-3.015-.523-2.854-2.4.127-1.489,1.384-1.931,2.8-1.929q12.23.02,24.46.008c1.622,0,3.016.518,2.856,2.4-.127,1.493-1.39,1.933-2.8,1.928-4.167-.017-8.335-.006-12.5,0" transform="translate(-91.921 -76.814)" fill="rgba(112,82,37,0.85)"/>
    <path id="Path_11342" data-name="Path 11342" d="M121.195,208.846c-3.442,0-6.884.023-10.326-.013-1.407-.015-2.565-.609-2.524-2.181.04-1.549,1.2-2.1,2.61-2.107q10.325-.016,20.651.011c1.4.005,2.568.611,2.527,2.18-.04,1.545-1.2,2.1-2.613,2.106-3.442.017-6.884.005-10.326,0" transform="translate(-69.014 -130.286)" fill="rgba(112,82,37,0.85)"/>
    <path id="Path_11343" data-name="Path 11343" d="M121.29,252.459q4.891-.012,9.783-.006c1.553,0,3.053.308,3.054,2.22,0,1.536-1.2,2.1-2.614,2.1q-10.326.015-20.652-.011c-1.407-.006-2.563-.617-2.515-2.189.047-1.546,1.206-2.093,2.619-2.1,3.442-.015,6.883,0,10.326-.013" transform="translate(-69.013 -160.806)" fill="rgba(112,82,37,0.85)"/>
    <path id="Path_11344" data-name="Path 11344" d="M132.148,275.947c1.147.54,2.3,1.155,2,2.681-.28,1.462-1.433,1.814-2.774,1.837-1.929.033-3.857.124-5.786.19q-7.062-.1-14.124-.188c-1.548-.019-3.1-.283-3.083-2.188s1.568-2.148,3.112-2.16q10.325-.08,20.65-.171" transform="translate(-69.04 -175.774)" fill="rgba(112,82,37,0.85)"/>
    <path id="Path_11345" data-name="Path 11345" d="M121.12,299.881c3.076.062,6.153.13,9.229.184,1.646.029,3.623-.1,3.648,2.154.025,2.266-1.951,2.194-3.6,2.194q-10.6,0-21.2-.028c-1.974-2.911-.975-4.237,2.315-4.314,3.2-.074,6.407-.127,9.61-.189" transform="translate(-68.913 -191.02)" fill="rgba(112,82,37,0.85)"/>
    <path id="Path_11346" data-name="Path 11346" d="M155.271,148.9c-2.9,0-5.8.018-8.694-.008a2.115,2.115,0,0,1-2.284-1.873,2.059,2.059,0,0,1,2.294-2.385c5.615-.049,11.23-.03,16.845-.01a2.116,2.116,0,0,1,2.287,1.872c.169,1.528-.841,2.348-2.3,2.385-2.715.069-5.434.02-8.15.02" transform="translate(-91.901 -92.111)" fill="rgba(112,82,37,0.85)"/>
    <path id="Path_11347" data-name="Path 11347" d="M86.822,119.221c-.563,2.516-1.992,4.338-4.726,4.1a3.985,3.985,0,0,1-3.888-4.336,4.049,4.049,0,0,1,4.606-4.153c2.392.185,3.719,1.9,4.007,4.386" transform="translate(-49.813 -73.137)" fill="#d6041c"/>
    <path id="Path_11348" data-name="Path 11348" d="M76.271,194.481c.142,1.427-.217,2.373-1.94,2.368-1.42,0-2.377-.257-2.373-1.98,0-1.424.258-2.378,1.982-2.368,1.414.009,2.478.224,2.331,1.98" transform="translate(-45.836 -122.621)" fill="rgba(112,82,37,0.85)"/>
    <path id="Path_11349" data-name="Path 11349" d="M76.266,242.7c.157,1.638-.7,2.1-2.209,2.1-1.619,0-2.112-.731-2.108-2.251,0-1.622.74-2.108,2.255-2.105,1.619,0,2.224.726,2.062,2.255" transform="translate(-45.83 -153.16)" fill="rgba(112,82,37,0.85)"/>
    <path id="Path_11350" data-name="Path 11350" d="M74.2,292.716c-1.526.16-2.249-.447-2.254-2.065,0-1.518.489-2.249,2.108-2.254,1.52,0,2.25.487,2.248,2.108,0,1.509-.461,2.366-2.1,2.211" transform="translate(-45.83 -183.705)" fill="rgba(112,82,37,0.85)"/>
  </g>
</svg>
