<svg id="Group_951" data-name="Group 951" xmlns="http://www.w3.org/2000/svg" xmlns:xlink="http://www.w3.org/1999/xlink" width="74" height="82" viewBox="0 0 74 82">
  <defs>
    <clipPath id="clip-path">
      <rect id="Rectangle_1849" data-name="Rectangle 1849" width="74" height="82" fill="none"/>
    </clipPath>
  </defs>
  <g id="Group_950" data-name="Group 950" clip-path="url(#clip-path)">
    <path id="Path_11300" data-name="Path 11300" d="M33.994,73.029c7.673,0,15.347.025,23.02-.009,4.474-.02,5.669-1.6,3.917-5.6A27.406,27.406,0,0,1,58.615,54.9c.1-2.239.785-3.815,3.2-3.773,2.171.038,3.179,1.47,2.963,3.575-.414,4.045.925,7.678,2.348,11.366C69.881,73.193,65.666,79.046,57.9,79.1a16.466,16.466,0,0,1-2.3-.013c-3.95-.533-6.489.292-8.411,4.546-2.545,5.632-7.967,8.033-14.256,7.568-5.947-.44-10.518-3.407-12.69-8.916-1.131-2.869-2.674-3.5-5.378-3.218A42.009,42.009,0,0,1,9.5,79.1C3.217,78.946-1.786,73.464.611,67.885,4.26,59.39,3.222,50.77,3.379,42.137A30.544,30.544,0,0,1,23.667,14.05a54.659,54.659,0,0,1,5.92-1.513c2.069-.472,3.634.28,4.125,2.334.5,2.109-.654,3.325-2.747,3.729a27.473,27.473,0,0,0-9.322,3.231c-7.659,4.675-11.592,11.53-12.049,20.33-.2,3.786-.182,7.6-.009,11.385a31.06,31.06,0,0,1-2.461,14.4c-1.49,3.344-.259,5.025,3.468,5.059,7.8.072,15.6.022,23.4.022" transform="translate(0 -9.259)" fill="#6fa6d6" opacity="0.5"/>
    <path id="Path_11301" data-name="Path 11301" d="M145.168,18.123a18.41,18.41,0,0,1,36.817.171,18.41,18.41,0,0,1-36.817-.171" transform="translate(-107.985 0)" fill="#6fa6d6" opacity="0.5"/>
    <path id="Path_11302" data-name="Path 11302" d="M100.424,275.88h16.664c-1.148,3.812-3.994,5.391-7.5,5.939-3.643.57-6.884-1.564-9.164-5.939" transform="translate(-74.702 -205.991)" fill="#faf9fa"/>
    <path id="Path_11303" data-name="Path 11303" d="M186.88,25.618l-16.1,15.952a11.094,11.094,0,0,1,2.077-14.253c4.084-3.9,9.469-4.5,14.024-1.7" transform="translate(-125.771 -17.832)" fill="#fbfbfd"/>
    <path id="Path_11304" data-name="Path 11304" d="M212.612,51.476c2.539,4.634,1.871,9.7-2.131,13.688a11.393,11.393,0,0,1-13.923,2.191l16.054-15.88" transform="translate(-146.213 -38.436)" fill="#fbfbfd"/>
  </g>
</svg>
