<svg xmlns="http://www.w3.org/2000/svg" xmlns:xlink="http://www.w3.org/1999/xlink" width="325" height="297" viewBox="0 0 325 297">
  <defs>
    <filter id="Ellipse_231" x="94" y="35" width="58" height="58" filterUnits="userSpaceOnUse">
      <feOffset dy="3" input="SourceAlpha"/>
      <feGaussianBlur stdDeviation="3" result="blur"/>
      <feFlood flood-color="#deeafa"/>
      <feComposite operator="in" in2="blur"/>
      <feComposite in="SourceGraphic"/>
    </filter>
    <clipPath id="clip-path">
      <rect id="Rectangle_2026" data-name="Rectangle 2026" width="25.994" height="24.011" fill="none"/>
    </clipPath>
  </defs>
  <g id="Group_1621" data-name="Group 1621" transform="translate(-25 -129)">
    <g id="Group_1604" data-name="Group 1604" transform="translate(8 -60.78)">
      <g id="Group_1590" data-name="Group 1590" transform="translate(17 189.78)">
        <path id="Path_17788" data-name="Path 17788" d="M339.632,552.3l-3.512,27.668-5.168-31.429C306.112,539,277.07,537.151,277.07,537.151s-6.409,60.027,14.751,85.127,43.47,21.284,61.876,5.767,25.939-36.86,4.779-61.96C353.767,560.5,347.119,555.967,339.632,552.3Z" transform="translate(-275.636 -343.402)" fill="#deeafa"/>
        <path id="Path_17789" data-name="Path 17789" d="M332.594,582.127l1.043,1.237c12.05,14.443,19.084,27.708,20.986,39.621.031.173.05.345.081.519l-.806.125-.777.11c-1.913-12.983-10.212-26.617-20.719-39.217-.335-.409-.674-.825-1.027-1.23-4.5-5.295-9.348-10.392-14.268-15.172-.378-.373-.766-.747-1.155-1.122-6.526-6.275-13.113-11.975-19-16.791-.414-.342-.835-.679-1.25-1.01-9.991-8.111-17.774-13.526-19.509-14.714-.209-.149-.327-.227-.354-.246l.442-.656v-.011l.449-.661c.027.019.425.281,1.144.785,2.7,1.873,9.953,7.022,18.947,14.3.4.33.824.667,1.239,1.009,4.778,3.9,10,8.367,15.257,13.238q1.984,1.832,3.867,3.655c.395.369.784.743,1.161,1.117Q326.329,574.757,332.594,582.127Z" transform="translate(-275.486 -341.383)" fill="#fff"/>
        <path id="Path_17790" data-name="Path 17790" d="M296.5,552.125c-.364.4-.734.807-1.12,1.206a44.179,44.179,0,0,1-3.3,3.09,42.989,42.989,0,0,1-16.915,8.77c.016.542.033,1.083.048,1.636a44.581,44.581,0,0,0,17.9-9.181,45.728,45.728,0,0,0,3.522-3.3c.38-.394.75-.8,1.109-1.207a44.206,44.206,0,0,0,7.275-11.194q-.821-.172-1.608-.342A42.842,42.842,0,0,1,296.5,552.125Z" transform="translate(-275.162 -345.275)" fill="#fff"/>
        <path id="Path_17791" data-name="Path 17791" d="M317.787,576.636q-.6.571-1.237,1.106c-.123.115-.258.228-.387.337a43.217,43.217,0,0,1-39.063,8.7c.06.568.119,1.136.19,1.7A44.822,44.822,0,0,0,317.2,579.3c.172-.145.343-.289.509-.44.424-.368.836-.736,1.243-1.111a44.585,44.585,0,0,0,12.79-21.679c-.5-.2-1-.392-1.508-.583a42.921,42.921,0,0,1-12.443,21.146Z" transform="translate(-276.084 -351.93)" fill="#fff"/>
        <path id="Path_17792" data-name="Path 17792" d="M334.7,599.712c-.4.4-.806.784-1.219,1.164-.444.406-.893.805-1.352,1.192a43.334,43.334,0,0,1-51.859,2.94c.143.728.28,1.451.435,2.169a44.921,44.921,0,0,0,52.457-3.884c.459-.387.914-.781,1.346-1.187.425-.379.833-.765,1.236-1.157a44.79,44.79,0,0,0,13.3-30.084c-.511-.345-1.035-.668-1.564-1A43.194,43.194,0,0,1,334.7,599.712Z" transform="translate(-277.592 -358.968)" fill="#fff"/>
        <path id="Path_17793" data-name="Path 17793" d="M513.918,236.094V191.626A25.775,25.775,0,0,0,488.1,165.89h-94.49A25.775,25.775,0,0,0,367.8,191.627v29.532h-1.66v10.406h1.66v11.1h-1.66v15.955h1.66v6.937h-1.66v15.955h1.66V435.58a25.775,25.775,0,0,0,25.813,25.737H488.1a25.775,25.775,0,0,0,25.813-25.737V267.747h1.628V236.094Z" transform="translate(-318.448 -165.89)" fill="#010545"/>
        <path id="Path_17794" data-name="Path 17794" d="M497.118,178.7H484.784a9.133,9.133,0,0,1-8.479,12.578H422.172a9.133,9.133,0,0,1-8.479-12.578h-11.52A19.247,19.247,0,0,0,382.9,197.917V441.478A19.247,19.247,0,0,0,402.173,460.7h94.945a19.247,19.247,0,0,0,19.277-19.217h0V197.917A19.247,19.247,0,0,0,497.118,178.7Z" transform="translate(-326.671 -171.985)" fill="#fff"/>
        <path id="Path_17803" data-name="Path 17803" d="M724.946,288.532c-1.014-7.439-2.286-15.425-7.533-20.795a17.643,17.643,0,0,0-25.491.264c-3.819,4.074-5.506,9.8-5.66,15.377s1.089,11.1,2.468,16.514a50.9,50.9,0,0,0,21.242-4.181,34.224,34.224,0,0,1,5.093-2c1.77-.45,3.031.683,4.678,1.473l.9-1.73c.74,1.377,3.03.969,3.861-.355S725.157,290.081,724.946,288.532Z" transform="translate(-471.391 -211.989)" fill="#010545"/>
        <path id="Path_17804" data-name="Path 17804" d="M592.843,516.241l-5.361,3.545L571.257,500.8l7.912-5.232Z" transform="translate(-272.647 -236.652)" fill="#ffb8b8"/>
        <path id="Path_17805" data-name="Path 17805" d="M879.726,702.78,862.44,714.211l-.145-.219a8.066,8.066,0,0,1,2.278-11.177h0l10.557-6.982Z" transform="translate(-554.726 -418.899)" fill="#010545"/>
        <path id="Path_17806" data-name="Path 17806" d="M471.821,530.618h-6.427l-3.057-24.79h9.485Z" transform="translate(-220.625 -241.536)" fill="#ffb8b8"/>
        <path id="Path_17807" data-name="Path 17807" d="M739.91,723.331H719.187v-.262A8.066,8.066,0,0,1,727.253,715h12.658Z" transform="translate(-487.072 -428.019)" fill="#010545"/>
        <path id="Path_17808" data-name="Path 17808" d="M637.808,373.523l-24.266-17.334a4.717,4.717,0,1,0-5.666,4.062c3.033,2.547,25.188,24.58,28.36,23.418,3.22-1.18,17.3-3.315,17.3-3.315l.392-13.365Z" transform="translate(-432.217 -254.243)" fill="#ffb8b8"/>
        <path id="Path_17809" data-name="Path 17809" d="M704.733,451.146l.229,30.5s5.251,45.189,7.188,52.822,9.8,42.958,9.8,42.958l12.78-2.062L726.5,529.18l2.488-38.277,14.345,38.362,36.426,38.076,9.232-7.449L757.283,513.3,747.6,475.128s1.2-19.742-9.646-27.345Z" transform="translate(-480.398 -300.883)" fill="#010545"/>
        <circle id="Ellipse_227" data-name="Ellipse 227" cx="14.008" cy="14.008" r="14.008" transform="translate(217.896 55.876)" fill="#ffb8b8"/>
        <rect id="Rectangle_2021" data-name="Rectangle 2021" width="12.734" height="16.555" transform="translate(230.323 167.193) rotate(-65.867)" fill="#010545"/>
        <path id="Path_17810" data-name="Path 17810" d="M593.233,362.657" transform="translate(-426.931 -259.81)" fill="#6c63ff"/>
        <path id="Path_17811" data-name="Path 17811" d="M730.519,343.117c-1.651-3.285-2.453-7.344-5.972-8.409-2.376-.719-11.988.359-14.154,1.573-3.6,2.02-.338,5.8-2.463,9.345L701,357.175a35.882,35.882,0,0,0-4.052,8.3,12.083,12.083,0,0,0,.563,9.01c1.309,2.433,3.682,4.158,5,6.587,1.369,2.526-1.089,13.8-2.363,16.379l.612.283a137.92,137.92,0,0,0,25.4-.855,13.042,13.042,0,0,0,5.983-1.824c2.537-1.787,3.54-5.03,4.167-8.07A67.98,67.98,0,0,0,730.519,343.117Z" transform="translate(-476.216 -246.429)" fill="#365997"/>
        <path id="Path_17812" data-name="Path 17812" d="M697.173,380.043a95.909,95.909,0,0,0,10.733-11.789,32.114,32.114,0,0,0,6.232-14.515,10.751,10.751,0,0,0-.336-5.043,5.174,5.174,0,0,0-3.533-3.382c-2.659-.584-5.076,1.538-6.973,3.49L686.513,366.07,697.2,380.142Z" transform="translate(-471.493 -251.522)" fill="#365997"/>
        <path id="Path_17813" data-name="Path 17813" d="M755.489,401.078c-1.18-3.22-3.315-17.3-3.315-17.3l-13.365-.392,6.534,16.116-17.831,24.962.093.153a4.716,4.716,0,1,0,3.955,5.011.326.326,0,0,0,.409-.07C733.953,427.072,756.668,404.3,755.489,401.078Z" transform="translate(-488.511 -269.775)" fill="#ffb8b8"/>
        <path id="Path_17814" data-name="Path 17814" d="M766.374,372.43a95.9,95.9,0,0,0-4.531-15.286A32.116,32.116,0,0,0,752.65,344.3a10.752,10.752,0,0,0-4.489-2.323,5.174,5.174,0,0,0-4.722,1.272c-1.876,1.973-1.311,5.139-.623,7.773l6.086,23.3,17.574-1.863Z" transform="translate(-498.047 -249.917)" fill="#365997"/>
        <path id="Path_17815" data-name="Path 17815" d="M723.443,283.467a56.037,56.037,0,0,0-1.924-10c-1.029-3.191-2.687-6.179-5.066-7.987-3.767-2.862-8.643-2.31-12.867-.664a19.3,19.3,0,0,0-8.757,6.319,15.026,15.026,0,0,0-2.74,11.617l13.514-3.761-.493.41a12.728,12.728,0,0,1,5.807,8.914,15.055,15.055,0,0,1-2.378,11.029l9.217-3.851c1.9-.792,3.926-1.705,5.05-3.738C724.11,289.4,723.807,286.279,723.443,283.467Z" transform="translate(-474.036 -212.483)" fill="#010545"/>
        <path id="Path_17816" data-name="Path 17816" d="M613.88,340.186l-9.011,13.524a2.359,2.359,0,0,1-4.137-.4,2.163,2.163,0,0,1-.141-.449,2.365,2.365,0,0,1,.351-1.772l9.011-13.524a2.359,2.359,0,0,1,3.926,2.616Z" transform="translate(-430.44 -247.351)" fill="#6c73a1"/>
        <path id="Path_17817" data-name="Path 17817" d="M603.656,364.858l-1.824,2.721-3.227,2.845a1.285,1.285,0,0,1-2.067-1.377l1.413-4.135,1.779-2.67Z" transform="translate(-428.485 -259.62)" fill="#3f3d56"/>
        <path id="Path_17818" data-name="Path 17818" d="M621.22,329.694l-4.516,3.98a1.286,1.286,0,0,0,.137,2.034l.854.569-2.471,3.708a.524.524,0,0,0,.872.581l2.471-3.708.854.569a1.283,1.283,0,0,0,1.93-.657l1.934-5.7a1.286,1.286,0,0,0-2.068-1.378Z" transform="translate(-437.395 -243.933)" fill="#3f3d56"/>
        <path id="Path_17820" data-name="Path 17820" d="M503.177,185.515H489.023a1.048,1.048,0,0,1,0-2.1h14.154a1.048,1.048,0,1,1,0,2.1Z" transform="translate(-376.722 -174.229)" fill="#fff"/>
        <circle id="Ellipse_228" data-name="Ellipse 228" cx="1.048" cy="1.048" r="1.048" transform="translate(132.441 9.189)" fill="#fff"/>
      </g>
      <g id="Group_1602" data-name="Group 1602" transform="translate(85.9 320.818)">
        <path id="Path_3716" data-name="Path 3716" d="M72.2,72.064q19,0,38,.005c7.184.009,12.065,5.276,10.248,10.957-.9,2.82-5.065,5.285-7.755,5.537-2.652.249-5.321.536-8.036.529-22.295-.062-44.591-.005-66.886-.071a27.042,27.042,0,0,1-8.659-.994c-4.587-1.555-7.14-4.9-6.529-8.79.463-2.945,3.525-5.9,8.374-6.826a22.289,22.289,0,0,1,4.249-.349q18.5,0,36.991,0" transform="translate(-22.5 -72.061)" fill="#deeafa"/>
        <path id="Path_3724" data-name="Path 3724" d="M57.587,78.247a3.111,3.111,0,0,1,2.945-3.076,3.148,3.148,0,0,1,3.181,2.864,3.347,3.347,0,0,1-3.06,3.256,3.468,3.468,0,0,1-3.067-3.043" transform="translate(12.171 -69.797)" fill="#fafafa"/>
        <path id="Path_3725" data-name="Path 3725" d="M36.62,78.192a3.068,3.068,0,1,1-6.133-.14,3.07,3.07,0,0,1,6.133.14" transform="translate(-7.659 -69.801)" fill="#fafafa"/>
        <path id="Path_3726" data-name="Path 3726" d="M44.351,81.063a2.939,2.939,0,0,1-3.03-2.953,3.055,3.055,0,0,1,3.131-2.929,2.982,2.982,0,0,1,2.944,3.043,2.7,2.7,0,0,1-3.044,2.839" transform="translate(0.268 -69.79)" fill="#fafafa"/>
        <path id="Path_3727" data-name="Path 3727" d="M41.944,78.248a3.078,3.078,0,0,1-3.089,2.979,3.01,3.01,0,0,1-2.9-3.131,2.9,2.9,0,0,1,3.063-2.928,2.969,2.969,0,0,1,2.93,3.08" transform="translate(-3.659 -69.799)" fill="#fafafa"/>
        <path id="Path_3728" data-name="Path 3728" d="M63.063,78.257a3.041,3.041,0,0,1,2.913-3.09,2.874,2.874,0,0,1,2.984,2.767,3.15,3.15,0,0,1-2.674,3.351,3.107,3.107,0,0,1-3.223-3.028" transform="translate(16.177 -69.8)" fill="#fafafa"/>
        <path id="Path_3729" data-name="Path 3729" d="M55.2,75.181a2.788,2.788,0,0,1,2.94,2.979,2.723,2.723,0,0,1-2.968,2.915,2.661,2.661,0,0,1-2.93-2.929A2.8,2.8,0,0,1,55.2,75.181" transform="translate(8.259 -69.79)" fill="#fafafa"/>
        <path id="Path_3730" data-name="Path 3730" d="M28.139,75.168A2.929,2.929,0,0,1,31.1,78.2a2.99,2.99,0,1,1-5.979-.067,2.929,2.929,0,0,1,3.022-2.969" transform="translate(-11.585 -69.799)" fill="#fafafa"/>
        <path id="Path_3731" data-name="Path 3731" d="M52.662,78.284A2.631,2.631,0,0,1,49.8,81.075,2.893,2.893,0,0,1,46.77,78.14a3.128,3.128,0,0,1,3.323-2.959c1.59.076,2.6,1.3,2.57,3.1" transform="translate(4.254 -69.792)" fill="#fafafa"/>
      </g>
      <g id="Group_1601" data-name="Group 1601" transform="translate(85.936 296.81)">
        <path id="Path_3717" data-name="Path 3717" d="M71.4,75.159c-12.48,0-24.962.083-37.442-.04-6.194-.059-11.82-3.773-11.415-9.13.228-3.042,2.272-5.152,5.468-6.472a19.251,19.251,0,0,1,7.529-1.391c24.287.069,48.574.035,72.86.048a16.2,16.2,0,0,1,7.858,1.813c3.888,2.088,4.981,5.027,4.432,8.558-.333,2.153-4.881,5.686-7.871,6.166a33.872,33.872,0,0,1-5.5.474c-11.976-.045-23.949-.022-35.925-.026" transform="translate(-22.52 -58.126)" fill="#deeafa"/>
        <path id="Path_15826" data-name="Path 15826" d="M0,0H81.551" transform="translate(8.43 8.709)" fill="none" stroke="#fafafa" stroke-linecap="round" stroke-width="4"/>
      </g>
      <g transform="matrix(1, 0, 0, 1, 17, 189.78)" filter="url(#Ellipse_231)">
        <circle id="Ellipse_231-2" data-name="Ellipse 231" cx="20" cy="20" r="20" transform="translate(103 41)" fill="#fff"/>
      </g>
      <text id="_" data-name="+" transform="translate(127 271)" fill="#365997" font-size="14" font-family="Roboto-Bold, Roboto" font-weight="700" opacity="0.75"><tspan x="0" y="0">+</tspan></text>
    </g>
    <g id="Group_1605" data-name="Group 1605" transform="translate(3 -59)">
      <path id="Path_3715" data-name="Path 3715" d="M63.522,90.278q15.932,0,31.861,0c2.91,0,4.642,1.464,4.69,4.167.08,4.419.072,8.841.009,13.26-.036,2.48-2.111,4.1-5.193,4.127-4.551.038-9.1.01-13.656.01q-24.578,0-49.157,0c-3.849,0-4.87-.9-5.32-4.409a60.487,60.487,0,0,1,.034-14.024c.22-2.107,1.541-3.119,4.187-3.125,8.951-.021,17.9-.009,26.854-.009h5.69" transform="translate(78.487 265.429)" fill="#deeafa"/>
      <text id="إضافة_طفل_جديد" data-name="إضافة طفل جديد" transform="translate(110 369)" fill="#fafafa" font-size="10" font-family="IBMPlexSansArabic-Light, IBM Plex Sans Arabic" font-weight="300"><tspan x="0" y="0">إضافة طفل جديد</tspan></text>
    </g>
    <g id="Group_1619" data-name="Group 1619" transform="translate(135 178)">
      <g id="Group_1618" data-name="Group 1618" transform="translate(0 0)" clip-path="url(#clip-path)">
        <path id="Path_17874" data-name="Path 17874" d="M17.385,23.684a8.415,8.415,0,0,0-1.5-3.057c-.37-.415-.462-.659.157-.953a6.552,6.552,0,0,0,3.492-3.81c.169-.476.508-.516.871-.676a1.629,1.629,0,0,0,.981-1.6,1.3,1.3,0,0,0-.84-1.381c-.756-.165-.8-.678-.967-1.216-.964-3.058-2.858-5.141-6.119-5.759a3.18,3.18,0,0,0-2.308.353,2.017,2.017,0,0,0-.581,2.893c.629.848,1.532.885,2.536.1.164-.128.315-.272.511-.442.276,1.534-.312,2.374-1.72,2.575A3.212,3.212,0,0,1,8.315,7.24C8.328,3.7,11.41.523,15.266.066a8.717,8.717,0,0,1,9.8,9.629c-.452,5.674-3.426,10.084-7.682,13.989" transform="translate(0.894 0)" fill="#365997"/>
        <path id="Path_17875" data-name="Path 17875" d="M.519,13.986A5.228,5.228,0,0,1,3.9,16.255c2.109,2.424,4.84,3.257,8.131,3.325a6.029,6.029,0,0,0-2.062-.9A18.3,18.3,0,0,1,7.9,17.816a1.859,1.859,0,0,1-1.265-1.9c2.585,1.2,5.454,1.052,7.949,2.327a5.564,5.564,0,0,1,2.793,3.533c.159.515.033.793-.531.721-4.353-.563-8.864-.536-12.6-3.4A11.685,11.685,0,0,1,.519,13.986" transform="translate(0.056 1.505)" fill="#74afeb" opacity="0.7"/>
        <path id="Path_17876" data-name="Path 17876" d="M2.447,11.694v2.9c-2.529-.709-2.712-1-2.243-3.535.739-3.977,4.28-6.13,8.317-4.884a9.048,9.048,0,0,0-2.776,4.835c-.081.385-.394.4-.684.505a1.457,1.457,0,0,0-.94,1.466,1.433,1.433,0,0,0,.873,1.515c1.129.35,1.262,1.119,1.042,2.057A12.5,12.5,0,0,0,6.06,18.1,9.2,9.2,0,0,1,2.9,11.438c-.384-.464-.051-.94-.011-1.66a7.985,7.985,0,0,1-.441,1.916" transform="translate(0 0.626)" fill="#365997"/>
        <path id="Path_17877" data-name="Path 17877" d="M9.625,14.647a9.531,9.531,0,0,0,4.583.061c.15-.044.4-.049.413.171a1,1,0,0,1-.2.594,2.7,2.7,0,0,1-2.571,1,2.23,2.23,0,0,1-2.23-1.824" transform="translate(1.035 1.576)" fill="#365997"/>
        <path id="Path_17878" data-name="Path 17878" d="M7.516,12.574A1.25,1.25,0,0,1,8.974,11.38c.7.071,1.042.524,1.01,1.4-.831-.482-1.61-.921-2.468-.207" transform="translate(0.808 1.223)" fill="#365997"/>
        <path id="Path_17879" data-name="Path 17879" d="M14.1,12.9c-.049-.933.243-1.418.935-1.512.763-.1,1.324.246,1.675,1.252a1.936,1.936,0,0,0-2.609.26" transform="translate(1.516 1.223)" fill="#365997"/>
        <path id="Path_17880" data-name="Path 17880" d="M2.212,11.313a3.66,3.66,0,0,1,.377-1.96,4.057,4.057,0,0,1,.075,1.7l-.452.256" transform="translate(0.235 1.006)" fill="#c5e2e6"/>
      </g>
    </g>
  </g>
</svg>
