<svg xmlns="http://www.w3.org/2000/svg" width="325" height="297" viewBox="0 0 325 297">
  <g id="Group_1590" data-name="Group 1590" transform="translate(0 0)">
    <path id="Path_17788" data-name="Path 17788" d="M339.632,552.3l-3.512,27.668-5.168-31.429C306.112,539,277.07,537.151,277.07,537.151s-6.409,60.027,14.751,85.127,43.47,21.284,61.876,5.767,25.939-36.86,4.779-61.96C353.767,560.5,347.119,555.967,339.632,552.3Z" transform="translate(-275.636 -343.402)" fill="#deeafa"/>
    <path id="Path_17789" data-name="Path 17789" d="M332.594,582.127l1.043,1.237c12.05,14.443,19.084,27.708,20.986,39.621.031.173.05.345.081.519l-.806.125-.777.11c-1.913-12.983-10.212-26.617-20.719-39.217-.335-.409-.674-.825-1.027-1.23-4.5-5.295-9.348-10.392-14.268-15.172-.378-.373-.766-.747-1.155-1.122-6.526-6.275-13.113-11.975-19-16.791-.414-.342-.835-.679-1.25-1.01-9.991-8.111-17.774-13.526-19.509-14.714-.209-.149-.327-.227-.354-.246l.442-.656v-.011l.449-.661c.027.019.425.281,1.144.785,2.7,1.873,9.953,7.022,18.947,14.3.4.33.824.667,1.239,1.009,4.778,3.9,10,8.367,15.257,13.238q1.984,1.832,3.867,3.655c.395.369.784.743,1.161,1.117Q326.329,574.757,332.594,582.127Z" transform="translate(-275.486 -341.383)" fill="#fff"/>
    <path id="Path_17790" data-name="Path 17790" d="M296.5,552.125c-.364.4-.734.807-1.12,1.206a44.179,44.179,0,0,1-3.3,3.09,42.989,42.989,0,0,1-16.915,8.77c.016.542.033,1.083.048,1.636a44.581,44.581,0,0,0,17.9-9.181,45.728,45.728,0,0,0,3.522-3.3c.38-.394.75-.8,1.109-1.207a44.206,44.206,0,0,0,7.275-11.194q-.821-.172-1.608-.342A42.842,42.842,0,0,1,296.5,552.125Z" transform="translate(-275.162 -345.275)" fill="#fff"/>
    <path id="Path_17791" data-name="Path 17791" d="M317.787,576.636q-.6.571-1.237,1.106c-.123.115-.258.228-.387.337a43.217,43.217,0,0,1-39.063,8.7c.06.568.119,1.136.19,1.7A44.822,44.822,0,0,0,317.2,579.3c.172-.145.343-.289.509-.44.424-.368.836-.736,1.243-1.111a44.585,44.585,0,0,0,12.79-21.679c-.5-.2-1-.392-1.508-.583a42.921,42.921,0,0,1-12.443,21.146Z" transform="translate(-276.084 -351.931)" fill="#fff"/>
    <path id="Path_17792" data-name="Path 17792" d="M334.7,599.712c-.4.4-.806.784-1.219,1.164-.444.406-.893.805-1.352,1.192a43.334,43.334,0,0,1-51.859,2.94c.143.728.28,1.451.435,2.169a44.921,44.921,0,0,0,52.457-3.884c.459-.387.914-.781,1.346-1.187.425-.379.833-.765,1.236-1.157a44.79,44.79,0,0,0,13.3-30.084c-.511-.345-1.035-.668-1.564-1A43.194,43.194,0,0,1,334.7,599.712Z" transform="translate(-277.592 -358.968)" fill="#fff"/>
    <path id="Path_17793" data-name="Path 17793" d="M513.918,236.094V191.626A25.775,25.775,0,0,0,488.1,165.89h-94.49A25.775,25.775,0,0,0,367.8,191.627v29.532h-1.66v10.406h1.66v11.1h-1.66v15.955h1.66v6.937h-1.66v15.955h1.66V435.58a25.775,25.775,0,0,0,25.813,25.737H488.1a25.775,25.775,0,0,0,25.813-25.737V267.747h1.628V236.094Z" transform="translate(-318.448 -165.89)" fill="#010545"/>
    <path id="Path_17794" data-name="Path 17794" d="M497.118,178.7H484.784a9.133,9.133,0,0,1-8.479,12.578H422.172a9.133,9.133,0,0,1-8.479-12.578h-11.52A19.247,19.247,0,0,0,382.9,197.917V441.478A19.247,19.247,0,0,0,402.173,460.7h94.945a19.247,19.247,0,0,0,19.277-19.217h0V197.917A19.247,19.247,0,0,0,497.118,178.7Z" transform="translate(-326.671 -171.985)" fill="#fff"/>
    <path id="Path_17803" data-name="Path 17803" d="M724.946,288.532c-1.014-7.439-2.286-15.425-7.533-20.795a17.643,17.643,0,0,0-25.491.264c-3.819,4.074-5.506,9.8-5.66,15.377s1.089,11.1,2.468,16.514a50.9,50.9,0,0,0,21.242-4.181,34.224,34.224,0,0,1,5.093-2c1.77-.45,3.031.683,4.678,1.473l.9-1.73c.74,1.377,3.03.969,3.861-.355S725.157,290.081,724.946,288.532Z" transform="translate(-471.391 -211.989)" fill="#010545"/>
    <path id="Path_17804" data-name="Path 17804" d="M592.843,516.241l-5.361,3.545L571.257,500.8l7.912-5.232Z" transform="translate(-272.647 -236.652)" fill="#ffb8b8"/>
    <path id="Path_17805" data-name="Path 17805" d="M879.726,702.78,862.44,714.211l-.145-.219a8.066,8.066,0,0,1,2.278-11.177h0l10.557-6.982Z" transform="translate(-554.726 -418.899)" fill="#010545"/>
    <path id="Path_17806" data-name="Path 17806" d="M471.821,530.618h-6.427l-3.057-24.79h9.485Z" transform="translate(-220.625 -241.536)" fill="#ffb8b8"/>
    <path id="Path_17807" data-name="Path 17807" d="M739.91,723.331H719.187v-.262A8.066,8.066,0,0,1,727.253,715h12.658Z" transform="translate(-487.072 -428.019)" fill="#010545"/>
    <path id="Path_17808" data-name="Path 17808" d="M637.808,373.523l-24.266-17.334a4.717,4.717,0,1,0-5.666,4.062c3.033,2.547,25.188,24.58,28.36,23.418,3.22-1.18,17.3-3.315,17.3-3.315l.392-13.365Z" transform="translate(-432.217 -254.243)" fill="#ffb8b8"/>
    <path id="Path_17809" data-name="Path 17809" d="M704.733,451.146l.229,30.5s5.251,45.189,7.188,52.822,9.8,42.958,9.8,42.958l12.78-2.062L726.5,529.18l2.488-38.277,14.345,38.362,36.426,38.076,9.232-7.449L757.283,513.3,747.6,475.128s1.2-19.742-9.646-27.345Z" transform="translate(-480.398 -300.883)" fill="#010545"/>
    <circle id="Ellipse_227" data-name="Ellipse 227" cx="14.008" cy="14.008" r="14.008" transform="translate(217.896 55.876)" fill="#ffb8b8"/>
    <rect id="Rectangle_2021" data-name="Rectangle 2021" width="12.734" height="16.555" transform="translate(230.323 167.193) rotate(-65.867)" fill="#010545"/>
    <path id="Path_17810" data-name="Path 17810" d="M593.233,362.657" transform="translate(-426.931 -259.81)" fill="#6c63ff"/>
    <path id="Path_17811" data-name="Path 17811" d="M730.519,343.117c-1.651-3.285-2.453-7.344-5.972-8.409-2.376-.719-11.988.359-14.154,1.573-3.6,2.02-.338,5.8-2.463,9.345L701,357.175a35.882,35.882,0,0,0-4.052,8.3,12.083,12.083,0,0,0,.563,9.01c1.309,2.433,3.682,4.158,5,6.587,1.369,2.526-1.089,13.8-2.363,16.379l.612.283a137.92,137.92,0,0,0,25.4-.855,13.042,13.042,0,0,0,5.983-1.824c2.537-1.787,3.54-5.03,4.167-8.07A67.98,67.98,0,0,0,730.519,343.117Z" transform="translate(-476.216 -246.429)" fill="#365997"/>
    <path id="Path_17812" data-name="Path 17812" d="M697.173,380.043a95.909,95.909,0,0,0,10.733-11.789,32.114,32.114,0,0,0,6.232-14.515,10.751,10.751,0,0,0-.336-5.043,5.174,5.174,0,0,0-3.533-3.382c-2.659-.584-5.076,1.538-6.973,3.49L686.513,366.07,697.2,380.142Z" transform="translate(-471.493 -251.522)" fill="#365997"/>
    <path id="Path_17813" data-name="Path 17813" d="M755.489,401.078c-1.18-3.22-3.315-17.3-3.315-17.3l-13.365-.392,6.534,16.116-17.831,24.962.093.153a4.716,4.716,0,1,0,3.955,5.011.326.326,0,0,0,.409-.07C733.953,427.072,756.668,404.3,755.489,401.078Z" transform="translate(-488.511 -269.775)" fill="#ffb8b8"/>
    <path id="Path_17814" data-name="Path 17814" d="M766.374,372.43a95.9,95.9,0,0,0-4.531-15.286A32.116,32.116,0,0,0,752.65,344.3a10.752,10.752,0,0,0-4.489-2.323,5.174,5.174,0,0,0-4.722,1.272c-1.876,1.973-1.311,5.139-.623,7.773l6.086,23.3,17.574-1.863Z" transform="translate(-498.047 -249.917)" fill="#365997"/>
    <path id="Path_17815" data-name="Path 17815" d="M723.443,283.467a56.037,56.037,0,0,0-1.924-10c-1.029-3.191-2.687-6.179-5.066-7.987-3.767-2.862-8.643-2.31-12.867-.664a19.3,19.3,0,0,0-8.757,6.319,15.026,15.026,0,0,0-2.74,11.617l13.514-3.761-.493.41a12.728,12.728,0,0,1,5.807,8.914,15.055,15.055,0,0,1-2.378,11.029l9.217-3.851c1.9-.792,3.926-1.705,5.05-3.738C724.11,289.4,723.807,286.279,723.443,283.467Z" transform="translate(-474.036 -212.483)" fill="#010545"/>
    <path id="Path_17816" data-name="Path 17816" d="M613.88,340.186l-9.011,13.524a2.359,2.359,0,0,1-4.137-.4,2.163,2.163,0,0,1-.141-.449,2.365,2.365,0,0,1,.351-1.772l9.011-13.524a2.359,2.359,0,0,1,3.926,2.616Z" transform="translate(-430.44 -247.351)" fill="#6c73a1"/>
    <path id="Path_17817" data-name="Path 17817" d="M603.656,364.858l-1.824,2.721-3.227,2.845a1.285,1.285,0,0,1-2.067-1.377l1.413-4.135,1.779-2.67Z" transform="translate(-428.485 -259.621)" fill="#3f3d56"/>
    <path id="Path_17818" data-name="Path 17818" d="M621.22,329.694l-4.516,3.98a1.286,1.286,0,0,0,.137,2.034l.854.569-2.471,3.708a.524.524,0,0,0,.872.581l2.471-3.708.854.569a1.283,1.283,0,0,0,1.93-.657l1.934-5.7a1.286,1.286,0,0,0-2.068-1.378Z" transform="translate(-437.395 -243.933)" fill="#3f3d56"/>
    <path id="Path_17820" data-name="Path 17820" d="M503.177,185.515H489.023a1.048,1.048,0,0,1,0-2.1h14.154a1.048,1.048,0,1,1,0,2.1Z" transform="translate(-376.722 -174.229)" fill="#fff"/>
    <circle id="Ellipse_228" data-name="Ellipse 228" cx="1.048" cy="1.048" r="1.048" transform="translate(132.441 9.189)" fill="#fff"/>
    <path id="Path_17821" data-name="Path 17821" d="M100.111,75.311H9.61a6.26,6.26,0,0,1,0-12.521h90.5a6.26,6.26,0,0,1,0,12.521ZM9.61,63.564a5.487,5.487,0,0,0,0,10.973h90.5a5.487,5.487,0,0,0,0-10.973Z" transform="translate(58.831 49.454)" fill="#cfd6e3"/>
    <path id="Path_17822" data-name="Path 17822" d="M100.418,265.274H9.917a6.067,6.067,0,0,1,0-12.134h90.5a6.067,6.067,0,0,1,0,12.134Z" transform="translate(58.524 -67.47)" fill="#deeafa"/>
    <path id="Path_17823" data-name="Path 17823" d="M68.4,12.134H6.067A6.067,6.067,0,0,1,6.067,0H68.4a6.067,6.067,0,0,1,0,12.134Z" transform="translate(60.916 88.025)" fill="#deeafa"/>
    <path id="Path_17824" data-name="Path 17824" d="M100.111,138.591H9.61a6.26,6.26,0,0,1,0-12.521h90.5a6.26,6.26,0,0,1,0,12.521ZM9.61,126.844a5.487,5.487,0,0,0,0,10.973h90.5a5.487,5.487,0,0,0,0-10.973H9.61Z" transform="translate(58.831 10.584)" fill="#cfd6e3"/>
    <path id="Path_17825" data-name="Path 17825" d="M100.111,201.881H9.61a6.26,6.26,0,0,1,0-12.521h90.5a6.26,6.26,0,0,1,0,12.521ZM9.61,190.134a5.487,5.487,0,0,0,0,10.973h90.5a5.487,5.487,0,0,0,0-10.973H9.61Z" transform="translate(58.831 -28.293)" fill="#cfd6e3"/>
    <path id="Path_17826" data-name="Path 17826" d="M9.865,51.17H33.584A1.025,1.025,0,0,1,34.609,52.2h0a1.027,1.027,0,0,1-1.025,1.025H9.865A1.025,1.025,0,0,1,8.84,52.2h0A1.027,1.027,0,0,1,9.865,51.17Z" transform="translate(55.521 56.604)" fill="#cfd6e3"/>
    <path id="Path_17827" data-name="Path 17827" d="M9.865,115.95H33.584a1.024,1.024,0,0,1,1.025,1.021h0A1.027,1.027,0,0,1,33.584,118H9.865a1.024,1.024,0,0,1-1.025-1.021h0A1.027,1.027,0,0,1,9.865,115.95Z" transform="translate(55.521 16.815)" fill="#cfd6e3"/>
    <path id="Path_17828" data-name="Path 17828" d="M9.865,180.74H33.584a1.025,1.025,0,0,1,1.025,1.025h0a1.024,1.024,0,0,1-1.025,1.021H9.865a1.025,1.025,0,0,1-1.025-1.025h0A1.024,1.024,0,0,1,9.865,180.74Z" transform="translate(55.521 -22.981)" fill="#cfd6e3"/>
  </g>
</svg>
