<svg xmlns="http://www.w3.org/2000/svg" xmlns:xlink="http://www.w3.org/1999/xlink" width="205" height="303" viewBox="0 0 205 303">
  <defs>
    <filter id="Ellipse_236" x="82" y="40" width="95.091" height="95.091" filterUnits="userSpaceOnUse">
      <feOffset dy="3" input="SourceAlpha"/>
      <feGaussianBlur stdDeviation="3" result="blur"/>
      <feFlood flood-color="#deeafa"/>
      <feComposite operator="in" in2="blur"/>
      <feComposite in="SourceGraphic"/>
    </filter>
    <clipPath id="clip-path">
      <rect id="Rectangle_2026" data-name="Rectangle 2026" width="48.264" height="44.583" fill="none"/>
    </clipPath>
  </defs>
  <g id="Group_1620" data-name="Group 1620" transform="translate(-85 -129)">
    <g id="Group_1611" data-name="Group 1611" transform="translate(4 -60)">
      <g id="Group_193" data-name="Group 193" transform="translate(81 189)">
        <g id="Group_191" data-name="Group 191" transform="translate(0 110.573)">
          <path id="Path_5" data-name="Path 5" d="M368.259,514a4.629,4.629,0,0,1-8.377-3.79l-17.888-36.75,8.563-5.192L366,507.3q.088.034.174.072t.171.079l.171.086a1.714,1.714,0,0,1,.167.1A4.634,4.634,0,0,1,368.262,514Z" transform="translate(-320.547 -419.617)" fill="#feb8b8"/>
          <path id="Path_8" data-name="Path 8" d="M336.37,469.462l12.707-3.257s-.415-.938-1.089-2.492-1.616-3.722-2.676-6.181-2.236-5.209-3.384-7.926-2.268-5.4-3.206-7.728a10,10,0,0,0-3.083-4.5,4.24,4.24,0,0,0-3.116-.828,6.022,6.022,0,0,0-2.411.918,6.566,6.566,0,0,0-.968.735l-2.946,5.358Z" transform="translate(-311.509 -401.447)" fill="#5b9ad1"/>
          <path id="Path_1-2" data-name="Path 1-2" d="M320.459,744.829l7.777-.03-2.508,20.321-5.269.027Z" transform="translate(-308.226 -577.832)" fill="#feb8b8"/>
          <path id="Path_2" data-name="Path 2" d="M317.317,795.108l16.98-.09V794.8a6.653,6.653,0,0,0-.128-1.3,6.494,6.494,0,0,0-.979-2.359,6.669,6.669,0,0,0-1.836-1.827,6.5,6.5,0,0,0-2.364-.969,6.654,6.654,0,0,0-1.3-.12h0l-10.376.051Z" transform="translate(-306.427 -602.681)" fill="#010545"/>
          <path id="Path_3" data-name="Path 3" d="M378.657,744.605l7.754-.03-2.5,20.293-5.255.027Z" transform="translate(-341.524 -577.704)" fill="#feb8b8"/>
          <path id="Path_4" data-name="Path 4" d="M375.525,794.814l16.936-.089v-.214a6.659,6.659,0,0,0-.128-1.3,6.487,6.487,0,0,0-.976-2.356,6.647,6.647,0,0,0-1.832-1.826,6.474,6.474,0,0,0-2.357-.967,6.649,6.649,0,0,0-1.3-.119h0L375.524,788Z" transform="translate(-339.731 -602.519)" fill="#010545"/>
          <path id="Path_6" data-name="Path 6" d="M331.471,550.526l13.04,48.663-4.773,46.648-10.568.291,2.3-42.12-13.184-21.02-2.859,63.426-9.588-.677L300.508,591.2a61.925,61.925,0,0,1-3.96-13.26,59.041,59.041,0,0,1-.937-10.834,50.651,50.651,0,0,1,.562-7.3,26.717,26.717,0,0,1,.527-2.678l3.888-3.942Z" transform="translate(-294.009 -466.68)" fill="#010545"/>
          <path id="Path_2616" data-name="Path 2616" d="M315.036,488.957c2.193,0,4.251-.07,6.118-.209a45.915,45.915,0,0,0,5.677-.747,20.218,20.218,0,0,0,4.63-1.458,7.429,7.429,0,0,0,3-2.37l.089-.128-3.564-23.2-3.844-26.081a7.108,7.108,0,0,0-7.252-6.076l-12.037.369a6.746,6.746,0,0,0-6.537,6.95q0,.1.009.2l1.58,25.938-5.829,25.586.413.058c.166.022.806.107,1.808.219,1.31.147,2.647.28,3.975.395,1.878.162,3.717.289,5.463.379C310.952,488.9,313.075,488.955,315.036,488.957Z" transform="translate(-294.85 -396.972)" fill="#5b9ad1"/>
          <path id="Path_9" data-name="Path 9" d="M318.733,381.671h.009a1.925,1.925,0,0,0,1.922-1.925V369.014a14.345,14.345,0,0,0-1.131-5.6,14.573,14.573,0,0,0-7.659-7.7,14.35,14.35,0,0,0-20.007,13.166v10.748a1.926,1.926,0,0,0,.152.753,1.958,1.958,0,0,0,1.031,1.034,1.932,1.932,0,0,0,.753.155Z" transform="translate(-291.868 -354.558)" fill="#010545"/>
          <path id="Ellipse_1" data-name="Ellipse 1" d="M308.59,372.453a10.579,10.579,0,0,0,12.232,15.239,10.455,10.455,0,0,0,6.29-5.039,10.579,10.579,0,0,0-12.224-15.234,10.456,10.456,0,0,0-6.3,5.035Z" transform="translate(-300.691 -361.677)" fill="#feb8b8"/>
          <path id="Path_10" data-name="Path 10" d="M333.811,375.089a11.346,11.346,0,0,0-.9-4.427,11.521,11.521,0,0,0-6.055-6.086,11.351,11.351,0,0,0-4.427-.917l-2.148-.011h-.072a11.326,11.326,0,0,0-11.319,11.333v.214l4.544.018,1.549-4.329.31,4.337,2.347.01.781-2.182.157,2.187,15.226.068Z" transform="translate(-301.61 -359.759)" fill="#010545"/>
          <path id="Path_11" data-name="Path 11" d="M356.905,442.967a4.985,4.985,0,0,1,1.917.941,4.853,4.853,0,0,1,1.112,1.248,5.065,5.065,0,0,1,.732,3.16,4.852,4.852,0,0,1-.447,1.609A4.933,4.933,0,0,1,353.135,452l-.128-.086q-.063-.043-.126-.089l-.122-.092-.119-.1-25.072,8.924a3.779,3.779,0,0,1-4.334-1.354l-5.947-8.231,7.188-4.839,3.77,4.283,22.947-4.565q.038-.089.078-.178t.086-.176q.043-.086.092-.174t.1-.171a4.929,4.929,0,0,1,5.36-2.194Z" transform="translate(-306.411 -405.06)" fill="#feb8b8"/>
          <path id="Path_12" data-name="Path 12" d="M317.846,439.843c-.75-.936-1.8-2.151-2.864-3.357s-2.147-2.4-2.962-3.294-1.364-1.486-1.364-1.486a5.909,5.909,0,0,0-10.734,4.359,5.824,5.824,0,0,0,.881,2.16s.818,1.07,2.054,2.668,2.887,3.725,4.553,5.839,3.349,4.218,4.646,5.771,2.211,2.556,2.339,2.47l4.525-13.453C319.049,441.434,318.6,440.779,317.846,439.843Z" transform="translate(-296.416 -397.182)" fill="#5b9ad1"/>
          <path id="Path_13" data-name="Path 13" d="M317.751,392.82a1.892,1.892,0,0,1-.08,1.039,1.934,1.934,0,0,1-.254.477,1.955,1.955,0,0,1-.314.338,1.92,1.92,0,0,1-1.248.454l-.086,0-.086-.006-.086-.009-.086-.014L313.9,394.8l-2.221-4.746V394.4l-7.333-1.32V374.636l12.292.059-.3.353a8.454,8.454,0,0,0-1.914,4.16,13.781,13.781,0,0,0,.089,4.688,24.846,24.846,0,0,0,1.309,4.578,36.608,36.608,0,0,0,1.748,3.838A1.933,1.933,0,0,1,317.751,392.82Z" transform="translate(-299.008 -366.045)" fill="#010545"/>
        </g>
        <path id="Path_339" data-name="Path 339" d="M569.452,165.6h-1.659V119.987a26.365,26.365,0,0,0-26.333-26.4h-96.4a26.365,26.365,0,0,0-26.333,26.4V370.195a26.365,26.365,0,0,0,26.333,26.4H541.46a26.365,26.365,0,0,0,26.333-26.4V198.059h1.659Z" transform="translate(-364.452 -93.591)" fill="#010545"/>
        <path id="Path_340" data-name="Path 340" d="M570.516,124.422V378.136a20.054,20.054,0,0,1-20.082,20.015H451.469a20.058,20.058,0,0,1-20.1-20.018V124.422a20.057,20.057,0,0,1,20.1-20.015h12a9.522,9.522,0,0,0,8.838,13.1h56.421a9.522,9.522,0,0,0,8.838-13.1h12.859a20.054,20.054,0,0,1,20.089,20.007Z" transform="translate(-372.588 -99.78)" fill="#fff"/>
        <path id="Path_39" data-name="Path 39" d="M579.406,460.383H491.465a1.63,1.63,0,0,1-1.628-1.628V436.94a1.631,1.631,0,0,1,1.628-1.628h87.941a1.631,1.631,0,0,1,1.628,1.628v21.814a1.631,1.631,0,0,1-1.629,1.628Zm-87.941-24.419a.978.978,0,0,0-.977.977v21.814a.978.978,0,0,0,.977.977h87.941a.978.978,0,0,0,.977-.977V436.94a.978.978,0,0,0-.977-.977Z" transform="translate(-406.038 -289.672)" fill="#cfd6e3"/>
        <circle id="Ellipse_5" data-name="Ellipse 5" cx="6.84" cy="6.84" r="6.84" transform="translate(90.463 151.336)" fill="#cfd6e3"/>
        <path id="Path_40" data-name="Path 40" d="M555.682,453.952a1.14,1.14,0,1,0,0,2.28h53.741a1.14,1.14,0,0,0,.087-2.279H555.682Z" transform="translate(-442.833 -300.323)" fill="#cfd6e3"/>
        <path id="Path_41" data-name="Path 41" d="M555.682,469.937a1.14,1.14,0,1,0,0,2.28h53.741a1.14,1.14,0,0,0,.087-2.279H555.682Z" transform="translate(-442.833 -309.493)" fill="#cfd6e3"/>
        <path id="Path_42" data-name="Path 42" d="M579.406,545.642H491.465a1.63,1.63,0,0,1-1.628-1.628V522.2a1.631,1.631,0,0,1,1.628-1.629h87.941a1.631,1.631,0,0,1,1.628,1.629v21.814a1.631,1.631,0,0,1-1.629,1.628Zm-87.941-24.42a.978.978,0,0,0-.977.977v21.814a.978.978,0,0,0,.977.977h87.941a.978.978,0,0,0,.977-.977V522.2a.978.978,0,0,0-.977-.977Z" transform="translate(-406.038 -338.594)" fill="#cfd6e3"/>
        <circle id="Ellipse_6" data-name="Ellipse 6" cx="6.84" cy="6.84" r="6.84" transform="translate(90.463 187.679)" fill="#cfd6e3"/>
        <path id="Path_43" data-name="Path 43" d="M555.682,539.208a1.14,1.14,0,1,0,0,2.28h53.741a1.14,1.14,0,1,0,.037-2.28H555.682Z" transform="translate(-442.833 -349.232)" fill="#cfd6e3"/>
        <path id="Path_44" data-name="Path 44" d="M555.682,555.2a1.14,1.14,0,0,0,0,2.28h53.741a1.14,1.14,0,0,0,.037-2.28H555.682Z" transform="translate(-442.833 -358.405)" fill="#cfd6e3"/>
        <path id="Path_39-2" data-name="Path 39-2" d="M579.406,630.9H491.465a1.63,1.63,0,0,1-1.628-1.629V607.457a1.631,1.631,0,0,1,1.628-1.628h87.941a1.631,1.631,0,0,1,1.628,1.628v21.814a1.63,1.63,0,0,1-1.629,1.628ZM491.465,606.48a.978.978,0,0,0-.977.977v21.814a.978.978,0,0,0,.977.977h87.941a.978.978,0,0,0,.977-.977V607.457a.978.978,0,0,0-.977-.977Z" transform="translate(-406.038 -387.515)" fill="#cfd6e3"/>
        <circle id="Ellipse_5-2" data-name="Ellipse 5-2" cx="6.84" cy="6.84" r="6.84" transform="translate(90.463 224.022)" fill="#cfd6e3"/>
        <path id="Path_40-2" data-name="Path 40-2" d="M555.682,624.469a1.14,1.14,0,1,0,0,2.28h53.741a1.14,1.14,0,0,0,.087-2.279H555.682Z" transform="translate(-442.833 -398.145)" fill="#cfd6e3"/>
        <path id="Path_41-2" data-name="Path 41-2" d="M555.682,640.456a1.14,1.14,0,1,0,0,2.28h53.741a1.14,1.14,0,0,0,.087-2.279H555.682Z" transform="translate(-442.833 -407.316)" fill="#cfd6e3"/>
        <path id="Path_2596" data-name="Path 2596" d="M470.186,500.049H486.4c1.014-7.482-1.223-14.467,0-19.456H470.186A21.813,21.813,0,0,0,470.186,500.049Z" transform="translate(-392.945 -315.642)" fill="#deeafa"/>
        <path id="Path_2597" data-name="Path 2597" d="M697.577,587.8H681.364c.608-7.481,2.567-14.466,0-19.455h16.213A21.814,21.814,0,0,1,697.577,587.8Z" transform="translate(-515.619 -365.989)" fill="#5b9ad1"/>
        <path id="Path_2597-2" data-name="Path 2597-2" d="M627.485,675.9H611.272c.608-7.481,2.567-14.466,0-19.455h16.213A21.811,21.811,0,0,1,627.485,675.9Z" transform="translate(-475.272 -416.706)" fill="#5b9ad1"/>
        <g transform="matrix(1, 0, 0, 1, 0, 0)" filter="url(#Ellipse_236)">
          <circle id="Ellipse_236-2" data-name="Ellipse 236" cx="38.546" cy="38.546" r="38.546" transform="translate(91 46)" fill="#fff"/>
        </g>
        <g id="Group_1619" data-name="Group 1619" transform="translate(105 62)">
          <g id="Group_1618" data-name="Group 1618" transform="translate(0 0)" clip-path="url(#clip-path)">
            <path id="Path_17874" data-name="Path 17874" d="M25.156,43.976A15.624,15.624,0,0,0,22.367,38.3c-.687-.771-.858-1.224.292-1.769a12.165,12.165,0,0,0,6.484-7.074c.315-.884.944-.958,1.616-1.254a3.025,3.025,0,0,0,1.822-2.968,2.413,2.413,0,0,0-1.559-2.564c-1.4-.306-1.481-1.259-1.8-2.258-1.789-5.678-5.306-9.546-11.362-10.694a5.9,5.9,0,0,0-4.286.656,3.746,3.746,0,0,0-1.08,5.372c1.168,1.575,2.844,1.643,4.709.183.3-.239.584-.506.948-.821.512,2.848-.58,4.407-3.194,4.781-3.673.526-6.665-2.373-6.649-6.447C8.34,6.875,14.061.971,21.222.123,31.683-1.113,40.287,7.109,39.419,18c-.839,10.535-6.361,18.724-14.264,25.974" transform="translate(8.785 0.001)" fill="#365997"/>
            <path id="Path_17875" data-name="Path 17875" d="M.519,13.986c3.134.4,4.7,2.394,6.285,4.214,3.916,4.5,8.987,6.048,15.1,6.174a11.194,11.194,0,0,0-3.829-1.666,33.974,33.974,0,0,1-3.852-1.61c-1.257-.631-2.427-1.425-2.349-3.531C16.671,19.8,22,19.52,26.63,21.887a10.331,10.331,0,0,1,5.186,6.56c.3.956.062,1.472-.985,1.339-8.082-1.045-16.458-1-23.388-6.32a21.7,21.7,0,0,1-6.924-9.48" transform="translate(0.548 14.777)" fill="#74afeb" opacity="0.7"/>
            <path id="Path_17876" data-name="Path 17876" d="M4.543,16.727v5.38C-.152,20.791-.493,20.244.379,15.543,1.75,8.158,8.325,4.16,15.821,6.474a16.8,16.8,0,0,0-5.154,8.977c-.15.716-.732.738-1.271.938a2.7,2.7,0,0,0-1.746,2.723,2.661,2.661,0,0,0,1.621,2.813c2.1.65,2.342,2.077,1.935,3.819-.216.917.14,1.769.045,2.873C7.295,25.3,5.812,21.03,5.382,16.252c-.714-.862-.095-1.746-.021-3.083a14.826,14.826,0,0,1-.818,3.558" transform="translate(0 6.147)" fill="#365997"/>
            <path id="Path_17877" data-name="Path 17877" d="M9.625,14.647c2.906.555,5.717.944,8.51.113.278-.082.751-.09.767.317a1.854,1.854,0,0,1-.364,1.1,5.005,5.005,0,0,1-4.773,1.855c-2.314-.21-3.342-1.045-4.14-3.387" transform="translate(10.169 15.475)" fill="#365997"/>
            <path id="Path_17878" data-name="Path 17878" d="M7.516,13.605a2.321,2.321,0,0,1,2.706-2.217c1.308.132,1.935.973,1.876,2.6-1.542-.895-2.99-1.711-4.582-.385" transform="translate(7.941 12.013)" fill="#365997"/>
            <path id="Path_17879" data-name="Path 17879" d="M14.1,14.21c-.09-1.732.45-2.632,1.736-2.807,1.417-.193,2.458.457,3.109,2.324-1.81-.944-3.321-1.09-4.845.483" transform="translate(14.886 12.013)" fill="#365997"/>
            <path id="Path_17880" data-name="Path 17880" d="M2.239,12.993a6.8,6.8,0,0,1,.7-3.64,7.533,7.533,0,0,1,.14,3.165l-.839.475" transform="translate(2.303 9.882)" fill="#c5e2e6"/>
          </g>
        </g>
      </g>
    </g>
  </g>
</svg>
