<svg id="Group_1067" data-name="Group 1067" xmlns="http://www.w3.org/2000/svg" xmlns:xlink="http://www.w3.org/1999/xlink" width="61.302" height="79.225" viewBox="0 0 61.302 79.225">
  <defs>
    <clipPath id="clip-path">
      <rect id="Rectangle_1714" data-name="Rectangle 1714" width="61.302" height="79.225" fill="none"/>
    </clipPath>
  </defs>
  <g id="Group_577" data-name="Group 577" clip-path="url(#clip-path)">
    <path id="Path_5594" data-name="Path 5594" d="M8.442,0h29.6a4.466,4.466,0,0,1,.629.963c.809,5.3.253,10.637.368,15.957.1,4.861.04,4.776,5.025,4.9,5.211.132,10.449-.55,15.636.469,1.5.866,1.511,2.371,1.517,3.8.056,14.072.186,28.146-.046,42.215-.119,7.2-4.193,10.916-11.307,10.919q-19.107.01-38.213,0C4.065,79.22.139,75.413.069,67.607-.061,53.125.034,38.641.028,24.158c0-4.211-.059-8.424.022-12.634C.177,4.908,2.359,1.953,8.442,0" transform="translate(0)" fill="#b4a680"/>
    <path id="Path_5595" data-name="Path 5595" d="M183.273,2.428c7.42,7.188,14.45,14.752,21.456,22.339-6.351.007-12.7-.03-19.053.05-1.795.022-2.578-.473-2.542-2.418.123-6.655.1-13.313.139-19.97" transform="translate(-145.16 -1.925)" fill="rgba(215,210,181,0.6)"/>
    <path id="Path_5596" data-name="Path 5596" d="M120.644,220.451a9.584,9.584,0,0,1,.008-1.226c.256-1.975-.8-4.212.563-5.886.92-1.13,8.006.237,9.648,1.57a6.77,6.77,0,0,1,2.33,6.865c-.569,3.347-2.479,5.14-5.874,5.663-6.674,1.028-6.674,1.028-6.675-5.453v-1.533" transform="translate(-95.515 -168.772)" fill="#fff"/>
    <path id="Path_5597" data-name="Path 5597" d="M60.81,219.937V218.4c0-6,.659-6.535,6.821-5.5,2.669.446,4.359,2.372,4.233,4.822a4.287,4.287,0,0,1-4.655,4.271c-2.416-.131-3.088.692-2.758,2.9.221,1.484-.007,2.536-2.015,2.5-2.106-.035-1.584-1.407-1.615-2.53-.045-1.64-.012-3.283-.012-4.924" transform="translate(-48.182 -168.418)" fill="#fff"/>
    <path id="Path_5598" data-name="Path 5598" d="M190.764,219.984c.226-1.908-1.066-5.287.467-6.327,2.189-1.485,5.54-.341,8.39-.49.963-.05,1.184.428,1.234,1.3.07,1.23-.167,2.016-1.628,1.8a1.818,1.818,0,0,0-.917.011c-1.244.537-3.62-1.243-3.74,1.114-.135,2.655,2.312.981,3.524,1.194,1.241.218,1.44.617,1.478,1.718.045,1.319-.58,1.659-1.656,1.449-3.085-.6-3.989.78-3.505,3.631.236,1.392-.074,2.287-1.879,2.33-2.008.048-1.783-1.143-1.772-2.388.014-1.644,0-3.287,0-5.346" transform="translate(-150.975 -168.743)" fill="#fff"/>
    <path id="Path_5599" data-name="Path 5599" d="M137.883,233.26c1.005-1.2-1.322-3.5,1.412-3.912,2.291-.341,4.274,1.827,4.215,4.211-.059,2.4-1.8,4.23-4.138,3.844-2.752-.455-.454-2.867-1.489-4.144" transform="translate(-109.293 -181.765)" fill="#b4a680"/>
    <path id="Path_5600" data-name="Path 5600" d="M79.864,232.064c-.966.123-1.691-.041-1.606-1.388.064-1.009.115-1.779,1.453-1.7,1.105.069,2.171.319,2.271,1.51.105,1.264-.9,1.647-2.117,1.574" transform="translate(-62.026 -181.496)" fill="#b4a680"/>
  </g>
</svg>
