<svg xmlns="http://www.w3.org/2000/svg" width="251.539" height="296.899" viewBox="0 0 251.539 296.899">
  <g id="Group_1092" data-name="Group 1092" transform="translate(140.266 -10364.957)">
    <g id="Group_909" data-name="Group 909" transform="translate(-225 10250)">
      <g id="Group_910" data-name="Group 910" transform="translate(84.734 114.957)">
        <path id="Path_10888" data-name="Path 10888" d="M1078.836,114.957" transform="translate(-827.297 -114.957)"/>
        <path id="Path_10889" data-name="Path 10889" d="M564.1,569.588a3.646,3.646,0,0,1-.775-2.812c-.08-2.991-.015-5.985-.074-8.977-.021-1.045.459-1.282,1.313-1.042a5.4,5.4,0,0,0,1.488.2q21.474-.007,42.949-.01h.747c0-.074,0-.148,0-.221-2.569,0-5.138,0-7.706,0q-3.726-.008-7.453-.036c-.409,0-.85.12-1.208-.207.455-.522,1.076-.4,1.652-.406,4.884-.012,9.769,0,14.653-.006,1.63,0,1.792-.174,1.772-1.805-.1-8.256-.327-16.511-.293-24.77.062-15.047.164-30.1-.05-45.14-.239-16.816-.045-33.629-.154-50.443,0-.656-.177-1.363.347-1.933.211.018.616.222.48-.216s.274-1.111-.489-1.258a6.014,6.014,0,0,0-1.132-.05c-14.613,0-29.226.017-43.839-.041-.914,0-1.843.74-2.75,0a1.487,1.487,0,0,0,.554-1.216c.046-.59.034-1.179.034-1.769q0-40.024,0-80.049a20.286,20.286,0,0,1,.253-3.525,9.809,9.809,0,0,1,9.964-8.436q37.962-.014,75.925,0c4.211,0,8.423-.044,12.633.014a9.735,9.735,0,0,1,9.426,8.968c-.076,2.063,0,4.13-.039,6.2-.008.417.047.957-.388,1.123-.474.181-.746-.311-.962-.654a19.981,19.981,0,0,0-2.373-2.942,3.423,3.423,0,0,1-.271-.271,18.281,18.281,0,0,0-4.16-3.581,29.631,29.631,0,0,0-9.652-4.527,34.726,34.726,0,0,0-9.725-.888,27.58,27.58,0,0,0-13.24,4.012,30.432,30.432,0,0,0-11.685,12.578,29.211,29.211,0,0,0-2.255,6.546,35.758,35.758,0,0,0-.462,8.761,28.27,28.27,0,0,0,2.483,9.566,10.149,10.149,0,0,0,.828,1.551c.591,1.077,1.33,2.068,1.9,3.162a22.292,22.292,0,0,0,5.246,5.456c.981.639,1.839,1.446,2.815,2.092a16.377,16.377,0,0,0,4.54,2.473,2.028,2.028,0,0,1,.332.143,7.321,7.321,0,0,0,2.6.916,35.853,35.853,0,0,0,13.757.826,26.639,26.639,0,0,0,6.419-1.793,22.228,22.228,0,0,0,8.2-5.049,36.76,36.76,0,0,0,4.937-5.484c.31-.418.662-.856,1.163-.175a2.806,2.806,0,0,1,.169,1.494,71.794,71.794,0,0,0-.136,7.2q-.01,86.312.05,172.624c.007,4.666-3.8,8.782-7.212,9.586a16.913,16.913,0,0,1-3.876.486q-42.954,0-85.908-.01a10.961,10.961,0,0,1-7.905-2.753,10.728,10.728,0,0,1-3.38-8.03c-.046-2.272.01-4.546-.12-6.818.045,3.264-.351,6.532.159,9.791.084.535.283,1.077-.112,1.577" transform="translate(-442.173 -279.622)" fill="#f3f1eb"/>
        <path id="Path_10890" data-name="Path 10890" d="M830.894,393.106c-.708.854-1.431,1.7-2.119,2.564a20.805,20.805,0,0,1-3.511,3.5,45.2,45.2,0,0,1-8.1,5.082,26.626,26.626,0,0,1-12.849,2.309,25.025,25.025,0,0,1-7.9-1.326c-.813-.41-1.692-.65-2.536-.982h-.007c-1.671-.714-3.154-1.786-4.814-2.521l-2.763-2.044a41.81,41.81,0,0,1-5.286-5.586,13.924,13.924,0,0,1-1.8-2.985,35.878,35.878,0,0,1-2.823-7.58,33.9,33.9,0,0,1-.483-8.471,16.379,16.379,0,0,1,.294-4.243,25.647,25.647,0,0,1,5.142-11.341,29.912,29.912,0,0,1,7.618-7.231A29.015,29.015,0,0,1,802.6,347.5a30.79,30.79,0,0,1,16.625,3.058,21.368,21.368,0,0,1,4,2.551c1.4,1.124,2.589,2.491,4.037,3.563v0c1,1.436,2.254,2.679,3.231,4.138.18.269.513.437.469.833,0,.023.058.074.091.075s.069-.043.108-.066c.547.128.692.6.881,1.026.75,2.176,1.887,4.2,2.417,6.466,1.619,6.906,1.364,13.651-1.624,20.177a7.676,7.676,0,0,0-.781,2.239c-.456.465-.612,1.155-1.159,1.551" transform="translate(-600.982 -288.574)" fill="#9bb480"/>
        <path id="Path_10891" data-name="Path 10891" d="M112.418,337.219q-8.463.039-16.927.078a9.324,9.324,0,0,0-9.552,9.33c-.032.927-.028,1.855-.028,2.782q0,104.484,0,208.967a11.346,11.346,0,0,0,1.307,6.084,9.33,9.33,0,0,0,7.357,4.677,21.528,21.528,0,0,0,2.272.077q43.153.005,86.307,0c4.083,0,7.229-1.636,9.161-5.347a10.347,10.347,0,0,0,.921-4.79c.016-1.264.036-2.529.017-3.793-.007-.459.087-.74.6-.725.474.014.64.242.633.723-.043,3.245.144,6.508-.136,9.732-.413,4.768-4.906,8.834-9.683,9.111-.546.031-1.095.024-1.642.024q-42.964,0-85.927.013c-2.871,0-5.632-.245-8.013-2.08a10.405,10.405,0,0,1-4.34-8.564c-.023-10.878,0-21.757,0-32.635q0-90.822,0-181.645c0-2.192-.015-4.384,0-6.576a10.593,10.593,0,0,1,10.319-10.347q44.164-.028,88.328-.049a10.873,10.873,0,0,1,11.121,11.151q-.072,41.426-.021,82.853c0,.379-.038.761-.007,1.137.038.466-.114.724-.6.748s-.656-.216-.63-.7c.03-.546-.014-1.095-.015-1.642q0-39.276,0-78.552c0-4.764-2.2-8.008-6.429-9.519a9.11,9.11,0,0,0-3.107-.454q-8.277,0-16.554,0c-.249,0-.5-.039-.747-.06-.469-.339-.2-.664.05-.945.621-.694.147-.885-.443-.895-3.143-.053-6.286-.081-9.428.013a2.455,2.455,0,0,0-1.666,1.032,2.839,2.839,0,0,1-1.853,1.193c-3.072.126-6.144.071-9.214.048-5.174-.04-10.348.051-15.522.009a10.054,10.054,0,0,1-2.01-.105c-.777-.153-1.137-.819-1.589-1.351a3.056,3.056,0,0,0-2.614-1.168c-2.931.078-5.865.011-8.8.034-1.258.01-1.344.182-.692,1.211.249.394.484.739-.2.91" transform="translate(-84.734 -277.28)" fill="rgba(112,82,37,0.69)"/>
        <path id="Path_10892" data-name="Path 10892" d="M231.586,345.273c.771-.11,1.019-.825,1.439-1.309a2.653,2.653,0,0,1,2.179-1c2.988.028,5.976,0,8.964.014a3.011,3.011,0,0,1,.988.136c.686.245.7.658.146,1.077-.361.271-.868.414-.678,1.035-1.1.62-1.633,1.754-2.4,2.669-2.263,2.711-4.457,5.479-6.678,8.225-3.5,4.223-6.908,8.515-10.377,12.76-1.327,1.624-1.391,1.571-.1,3.236.129.166.242.343.372.509l.559.661c.336.742,1.031,1.192,1.492,1.831l0,0c2.019,2.539,4.02,5.092,6.055,7.618q3.729,4.662,7.457,9.325c1.89,2.376,3.762,4.767,5.8,7.358-.779.066-1.3.148-1.821.148-3.283,0-6.567-.033-9.85-.027a1.865,1.865,0,0,1-1.679-.854c-2.787-3.771-5.625-7.5-8.459-11.241-2.1-2.771-4.222-5.528-6.334-8.291-.522-.628-1.051-.492-1.583-.013l-7.319,9.7c-2.47,3.272-4.966,6.525-7.388,9.832a2.088,2.088,0,0,1-1.913.909c-3.449-.023-6.9-.028-10.348-.039-.247,0-.6.077-.643-.216a1.1,1.1,0,0,1,.266-.789c2.222-2.459,4.071-5.215,6.189-7.756,1.1-1.319,2.146-2.68,3.217-4.022,1.011-1.271,2.083-2.492,3.044-3.8h0c.863-1.081,1.792-2.11,2.553-3.271l0,0c.685-.841,1.328-1.715,2.017-2.553,1.491-1.913,2.965-3.838,4.481-5.731a1.18,1.18,0,0,0,.043-1.748q-8.306-10.23-16.562-20.5c-1.048-1.3-2.087-2.606-3.13-3.909a3.039,3.039,0,0,1-.462-.747c-.525-.935-.257-1.473.787-1.485q4.543-.05,9.087,0c1.168.014,1.692,1,2.325,1.75.319.377.516.86.958,1.137a1.615,1.615,0,0,1,.36.167c.712.6,1.1,1.472,1.784,2.1,3.525,4.338,6.985,8.729,10.5,13.076.883,1.092,1.038,1.126,1.938,0,4.206-5.245,8.438-10.47,12.525-15.81a.658.658,0,0,1,.2-.153" transform="translate(-162.962 -285.269)" fill="#fe0101"/>
        <path id="Path_10893" data-name="Path 10893" d="M428.534,714.835c.018,10.493.018,20.986.059,31.478q.177,45.577.38,91.155c.008,1.931.01,1.926-1.954,1.919q-8.207-.028-16.414-.05-16.232-.146-32.464-.292-28.045-.237-56.091-.463c-2.8-.023-2.8-.021-2.822-2.82-.135-15.639-.223-31.28-.456-46.918a73.339,73.339,0,0,1-.114-8.032c.6-6.318.22-12.643.351-18.962s.1-12.646.141-18.97q.075-11.825.151-23.649c0-.716.036-1.432.056-2.148,1.028-.543.79.489,1.081.868a11.881,11.881,0,0,1,.1,2.143c0,8.55.207,17.107-.052,25.649-.306,10.107-.054,20.211-.22,30.315a1.806,1.806,0,0,0,.2,1.215c.507.488.275,1.075.22,1.639a11.736,11.736,0,0,0-.482,9.308,2.277,2.277,0,0,1,.173.988c0,.6-.921.937-.488,1.673a2.319,2.319,0,0,1,.067.432c.047,7.66.009,15.316.022,22.973a6.1,6.1,0,0,0,.19,2,5.514,5.514,0,0,1,.1,1.129c.033,5.845.423,11.684.264,17.532-.011.42.01.841.013,1.262.006.781.351,1.107,1.16,1.115,8.359.08,16.718.007,25.076.08,2.724.024,5.452.212,8.177.337a6.111,6.111,0,0,0,2,.2q13.375,0,26.75,0a11.948,11.948,0,0,1,2.141.084,14.4,14.4,0,0,0,3.635.155c6.42.024,12.841.008,19.26.008,5.781,0,11.564.01,17.346,0a3.127,3.127,0,0,0,1.479-.158c.627-.586.18-1.271.17-1.914a2.522,2.522,0,0,0-.767-2.024c-1.352-1.495-2.809-2.881-4.226-4.308-.289-.291-.685-.512-.678-1.006.084-.429.353-.548.751-.452,1.714,1.406,3.276,2.973,4.881,4.44-.075-5.254.09-10.616-.089-15.971-.395-.223-.914-.363-.7-1.009a9.342,9.342,0,0,0,.588-3.548c.188-3.152.19-6.3.2-9.453a4.592,4.592,0,0,1-.7,1.985c-.9.531-1.069.381-1.241-1.124a2.36,2.36,0,0,1,.155-.739c1.415-3.418,1.56-6.993,1.521-10.641q-.115-10.721.006-21.445c0-.243,0-.487-.008-.73-.083-7.778-.037-15.556-.031-23.333.106-6.255.016-12.51.046-18.765a2.244,2.244,0,0,0-.328-1.195,1.114,1.114,0,0,1-.189-.662,3.365,3.365,0,0,0,.531-2.016c-.031-2.311-.008-4.623-.014-6.935,0-.494.1-1.035-.474-1.325a6.207,6.207,0,0,0-1.637-.11c-4.207,0-8.418.1-12.621-.019-16.067-.461-32.136-.125-48.2-.237a8.932,8.932,0,0,1-1.635-.108,6.543,6.543,0,0,0-2.126-.2q-18.254,0-36.508,0a5.47,5.47,0,0,1-2.242-.254c-.372-.161-.869-.241-.573-.854,9.139.006,18.278-.006,27.417.022q38.981.12,77.961.27c.613,0,1.288-.178,1.733.469" transform="translate(-259.398 -562.479)" fill="#705225"/>
        <path id="Path_10894" data-name="Path 10894" d="M672.9,523.5c.337-.554.191-1.47,1.159-1.551.012,1.178.035,2.357.035,3.535q0,89.607,0,179.214a10.666,10.666,0,0,1-11.115,11.13c-28.807,0-57.613-.049-86.42.038-5.418.016-9.335-1.973-11.643-6.933-.925-3.734-.416-7.539-.555-11.312-.006-.168,0-.337,0-.506,0-.393.007-.774.566-.786.592-.012.531.385.531.771,0,2.614-.013,5.229.023,7.843a9.484,9.484,0,0,0,6.659,9.275,8.808,8.808,0,0,0,2.981.444q43.915.005,87.83-.006a9.51,9.51,0,0,0,9.5-6.529,9.692,9.692,0,0,0,.455-3.364q.008-89,.005-177.991c0-1.091-.006-2.182-.01-3.273" transform="translate(-442.99 -418.967)" fill="#705225"/>
        <path id="Path_10895" data-name="Path 10895" d="M674,351.329l-1.007-1a14.441,14.441,0,0,1-.087-3.463c-.066-1.455.007-2.914-.028-4.371-.38-5.7-5.075-9.173-10.529-9.153-28.937.106-57.874.049-86.811.049-6.084,0-10.106,4.038-10.107,10.16q0,41.047,0,82.094a10.109,10.109,0,0,0,0,1.39c.127.907-.324,1.1-1.087.991-.022-.84-.062-1.68-.062-2.52q0-41.047,0-82.094c0-5.514,2.938-9.4,8.191-10.892a12.263,12.263,0,0,1,3.387-.268c28.937-.012,57.875.048,86.812-.051a10.983,10.983,0,0,1,11.4,11.548c-.149,2.52-.057,5.055-.075,7.583" transform="translate(-442.945 -277.23)" fill="#705225"/>
        <path id="Path_10915" data-name="Path 10915" d="M322.26,717.449c-.326-.1-.168-.891-.8-.559-.029-.366-.086-.733-.081-1.1.027-2.077.032-2.076,2.145-1.91.563.941,1.52.7,2.334.7,7.142.043,14.284.049,21.426.062q8.193.015,16.385.03c.4,0,.844-.148,1.207.175a1.636,1.636,0,0,1-1.394.436c-12.74.005-25.479.051-38.219-.019-.084,0-.168-.013-.247-.017a6.733,6.733,0,0,1-1.344-.15c-1.258-.282-1.438-.086-1.1,1.236.1.381.166.724-.151,1.029l-.16.083" transform="translate(-261.503 -562.286)" fill="#7b2c17"/>
        <path id="Path_10917" data-name="Path 10917" d="M205.186,345.5c-.685.124-.955-.366-1.223-.841-.751-1.33-1.649-2.259-3.41-2.161-2.462.136-4.937.029-7.407.027-1.426,0-1.419,0-.893,1.372a2.1,2.1,0,0,1,.039.621,1.266,1.266,0,0,1-.939-.027c.567-.655-.3-.73-.442-1.1-.116-.3-.635-.387-.47-.805a.9.9,0,0,1,.9-.565c3.652,0,7.306-.059,10.956.027.969.023,1.416,1.087,2.025,1.743.214.231.434.488.647.738a.915.915,0,0,1,.213.969" transform="translate(-163.67 -284.555)" fill="#96121f"/>
        <path id="Path_10919" data-name="Path 10919" d="M327.3,411.46c-1.825-1.474-1.907-2.023-.524-3.726q4.941-6.081,9.9-12.154c.2-.251.331-.608.738-.626-.5,1.476-1.769,2.382-2.681,3.547-2.6,3.325-5.266,6.6-7.954,9.857-.616.746-.727,1.316-.033,2.04.266.277.653.563.559,1.061" transform="translate(-264.818 -324.107)" fill="#e9736e"/>
        <path id="Path_10933" data-name="Path 10933" d="M345.8,477.64c-1.132-.567-1.613-1.742-2.362-2.646a31.394,31.394,0,0,1-3.693-4.973A5.44,5.44,0,0,1,341.55,472c1.383,1.907,3.2,3.488,4.249,5.643" transform="translate(-275.218 -380.179)" fill="#e16b6e"/>
        <path id="Path_10935" data-name="Path 10935" d="M230.755,500.98c-.067,1.16-1.163,1.63-1.709,2.473-.317.489-.54,1.252-1.335,1.329a11.723,11.723,0,0,1,3.044-3.8" transform="translate(-191.533 -403.304)" fill="#e26167"/>
        <path id="Path_10940" data-name="Path 10940" d="M242.3,488.052a7.383,7.383,0,0,1-2.553,3.27,8.711,8.711,0,0,1,2.553-3.27" transform="translate(-200.522 -393.647)" fill="#e26167"/>
        <path id="Path_10958" data-name="Path 10958" d="M251.841,477.977a5.549,5.549,0,0,1-2.017,2.553,5.276,5.276,0,0,1,2.017-2.553" transform="translate(-208.051 -386.122)" fill="#e26167"/>
        <path id="Path_10960" data-name="Path 10960" d="M298.61,483.206c.107-.464.347-.905.829-.919.526-.015.683.47.754.932l-1.583-.013" transform="translate(-244.493 -389.341)" fill="#f6a596"/>
        <path id="Path_10964" data-name="Path 10964" d="M335.353,464.629c-.716-.432-1.412-.879-1.492-1.831a3.46,3.46,0,0,1,1.492,1.831" transform="translate(-270.824 -374.783)" fill="#e16b6e"/>
        <path id="Path_11005" data-name="Path 11005" d="M607.312,408.843q0-11.886,0-23.773A7.789,7.789,0,0,1,615.17,377c8.674-.062,17.349-.1,26.022.018a7.986,7.986,0,0,1,7.6,8.375c-.042,11.17-.011,22.339-.009,33.509,0,4.384-.055,8.768.017,13.151a8.248,8.248,0,0,1-4.575,8.019,5.8,5.8,0,0,1-2.784.68c-8.8,0-17.6-.044-26.4.018a7.923,7.923,0,0,1-7.739-7.9c.086-8.008.025-16.017.025-24.025Z" transform="translate(-475.078 -310.651)" fill="rgba(112,82,37,0.9)"/>
        <path id="Path_11006" data-name="Path 11006" d="M775.029,440.026c0,2.908.067,5.817-.01,8.722a22.1,22.1,0,0,0,2.279,9.482,7.288,7.288,0,0,1,.743,2.09c-1.038-.873-1.336-2.18-1.8-3.339a30.735,30.735,0,0,1-1.451-16.54,1.416,1.416,0,0,1,.234-.415" transform="translate(-599.813 -357.773)" fill="#9bb480"/>
        <path id="Path_11007" data-name="Path 11007" d="M939.107,557.144c.691-1.024,1.9-1.365,2.873-1.916,1.612-.918,3.059-2.059,4.648-2.99a2.558,2.558,0,0,1,.578-.176,14.081,14.081,0,0,1-4.489,3.462c-1.133.663-2.2,1.54-3.61,1.619" transform="translate(-722.924 -441.461)" fill="#9bb480"/>
        <path id="Path_11008" data-name="Path 11008" d="M982.605,372.886q.058,3.917.115,7.834c0,.042.013.091,0,.123a1.349,1.349,0,0,1-.127.172,19.776,19.776,0,0,0-3.262-4.177,1.173,1.173,0,0,1-.381-1.122c1.451.983,2.306,2.486,3.463,4.076.34-2.447-.036-4.691.2-6.906" transform="translate(-752.669 -307.622)" fill="#9bb480"/>
        <path id="Path_11009" data-name="Path 11009" d="M796.237,532.028l5.286,5.586c-1.573-.7-2.443-2.2-3.651-3.306a4.285,4.285,0,0,1-1.635-2.28" transform="translate(-616.205 -426.496)" fill="#9bb480"/>
        <path id="Path_11010" data-name="Path 11010" d="M967.092,373.562c-.971.339-1.086-.7-1.6-1.066a7.349,7.349,0,0,1-2.438-2.5,11.932,11.932,0,0,1,4.037,3.563" transform="translate(-740.812 -305.465)" fill="#9bb480"/>
        <path id="Path_11011" data-name="Path 11011" d="M828.049,562.033a1.383,1.383,0,0,1,1.3.241,11.128,11.128,0,0,0,3.112,1.744c.26.131.422.24.405.536a11.574,11.574,0,0,1-4.814-2.521" transform="translate(-639.967 -448.871)" fill="#9bb480"/>
        <path id="Path_11012" data-name="Path 11012" d="M847.1,572.149a3.012,3.012,0,0,1,2.536.982,3.681,3.681,0,0,1-2.536-.982" transform="translate(-654.198 -456.465)" fill="#9bb480"/>
        <path id="Path_11013" data-name="Path 11013" d="M821.217,417.991l-.96-1.03a13.678,13.678,0,0,1-3.568-5.567h0a8.717,8.717,0,0,1-1.029-3.036,37.709,37.709,0,0,1-.516-6.15,20.509,20.509,0,0,1,5.4-13.581,18.187,18.187,0,0,1,15.395-6.534c.462.026.926,0,1.389,0a20.327,20.327,0,0,1,6.953,2.252,1.41,1.41,0,0,1,.652.556.431.431,0,0,0,.059.178c.57.634,1.384.956,1.984,1.552l.519.505a9.713,9.713,0,0,1,1.55,1.486c4.775,5.139,6.319,11.211,5.154,18.043-1.317,7.722-5.807,12.984-12.913,15.908a17.671,17.671,0,0,1-12.713.109,7.379,7.379,0,0,0-.732-.173,5.5,5.5,0,0,1-2.049-1h0a14.54,14.54,0,0,1-4.57-3.52" transform="translate(-630.325 -314.472)" fill="#f3f1eb"/>
        <path id="Path_11014" data-name="Path 11014" d="M910.417,384.885a35.768,35.768,0,0,0-7.6-2.807c2.786-.342,5.031,1.245,7.472,2.122.243.087.182.435.132.685" transform="translate(-695.813 -314.452)" fill="#9bb480"/>
        <path id="Path_11015" data-name="Path 11015" d="M821.2,498a61.343,61.343,0,0,0,3.568,5.567c-.864-.506-1.929-.762-2.109-2.032-.106-.749-.883-1.142-1.174-1.868A3.275,3.275,0,0,1,821.2,498" transform="translate(-634.839 -401.077)" fill="#9bb480"/>
        <path id="Path_11016" data-name="Path 11016" d="M839.156,524.07l4.57,3.52c-1.42-.117-4.2-2.261-4.57-3.52" transform="translate(-648.264 -420.552)" fill="#9bb480"/>
        <path id="Path_11017" data-name="Path 11017" d="M817.1,486a9.578,9.578,0,0,1,1.029,3.036c-1.088-.759-1.123-1.875-1.029-3.036" transform="translate(-631.763 -392.117)" fill="#9bb480"/>
        <path id="Path_11018" data-name="Path 11018" d="M935.082,395.569a2.711,2.711,0,0,1-1.984-1.552,3.137,3.137,0,0,1,1.984,1.552" transform="translate(-718.435 -323.406)" fill="#9bb480"/>
        <path id="Path_11019" data-name="Path 11019" d="M944.539,403.631a2.825,2.825,0,0,1-1.55-1.486,2.084,2.084,0,0,1,1.55,1.486" transform="translate(-725.824 -329.477)" fill="#9bb480"/>
        <path id="Path_11020" data-name="Path 11020" d="M857.216,537.978a5.1,5.1,0,0,1,2.049,1,1.855,1.855,0,0,1-2.049-1" transform="translate(-661.754 -430.94)" fill="#9bb480"/>
        <path id="Path_11021" data-name="Path 11021" d="M247.945,352.966c-.051-.328-.462-.575-.214-.969l23.167.031c1.385,0,2.77,0,4.155-.005-.368,1.646-1.717,2.635-2.67,3.866-3.332,4.3-6.79,8.505-10.148,12.788-.64.816-.987.912-1.66.054-3.592-4.581-7.229-9.128-10.85-13.686a21.176,21.176,0,0,0-1.54-2.005l-.24-.073" transform="translate(-206.429 -292.018)" fill="#fefefe"/>
        <path id="Path_11022" data-name="Path 11022" d="M249.758,356.114a3.288,3.288,0,0,1,1.54,2.005,3.733,3.733,0,0,1-1.54-2.005" transform="translate(-208.002 -295.094)" fill="#f0a19f"/>
        <path id="Path_11023" data-name="Path 11023" d="M543.16,793.571c.042,8.22.1,16.44.116,24.661a25.754,25.754,0,0,1-1.878,8.4,11.787,11.787,0,0,1-3.875,6.042c-2.561,2.265-5.073,4.633-8.245,6.091a6.19,6.19,0,0,1-2.481.822,3.367,3.367,0,0,1-2.085-1.534c-3.22-3.84-6.691-7.462-9.85-11.354a3.877,3.877,0,0,1-.5-.728,4.084,4.084,0,0,0-.633-.937c-.683-.944-.635-1.091.483-1.641,1.287-.343,2.648-.313,3.915-.775a20.818,20.818,0,0,1-5.387.582,2.085,2.085,0,0,1-1.74-.825q-5.666-6.491-11.29-13.018c-.757-.884-1.774-1.567-2.215-2.712a12.213,12.213,0,0,0-1.323-5.438c-.149-.251-.249-.593.014-.815s.561-.044.823.086a3.136,3.136,0,0,1,.727.485c-1.717-1.517-2.5-1.793-6.6-2.33a1.179,1.179,0,0,1-.717-.162,17.793,17.793,0,0,1-3.813-4.449,1.242,1.242,0,0,1,.085-.355c.36-.735.907-.571,1.485-.317.259.114.557.3.793-.008.208-.273.05-.562-.076-.826-.271-.568-.65-1.073-.961-1.617-.163-.285-.4-.643-.055-.9.273-.2.538.088.754.286s.415.413.634.608a5.928,5.928,0,0,0,2.417,1.035c2.861.556,5.692,1.336,8.668,1.108a10.14,10.14,0,0,0,3.577-.589,1.853,1.853,0,0,1,1.136-.1,19.987,19.987,0,0,1-3.488-2.638c-.55-.489-.353-1.417-1.074-1.8a15.546,15.546,0,0,1-2.815-6.546c-.2-1.6-.161-3.2-.445-4.819-.721-4.114.723-7.744,2.946-11.178a49.246,49.246,0,0,1,3.772-5.03,2.757,2.757,0,0,1,1.3-.971,3.711,3.711,0,0,0,1.644-1.126,4.87,4.87,0,0,1,1.638-.659c1.233-.24,2.511.3,3.729-.216a1.9,1.9,0,0,1,.361.035,8.918,8.918,0,0,1,2.472.649,3.1,3.1,0,0,0-1.305-.46c-2.278-.256-4.552-.5-6.743.461-2.373.968-3.786,3-5.273,4.9a48.077,48.077,0,0,0-3.773,6.372,7.909,7.909,0,0,0-.831,4.144c.024,3.015-.142,6.036.736,8.989a21.285,21.285,0,0,0,2.25,5.155,7.919,7.919,0,0,0,3,3.458c.342.251.754.475.672.969-.085.513-.583.592-.977.653a14.317,14.317,0,0,1-6.847-.114c-1.288-.428-2.664-.2-3.966-.571a9.423,9.423,0,0,1-2.777-1.127,3.255,3.255,0,0,1-1.53-3.308,11.983,11.983,0,0,0,.228-2.372c-.037-2.031-.855-2.906-2.9-2.939-2.89-.047-5.769-.382-8.663-.3-1.619-.545-2.388-1.949-3.263-3.248a15.415,15.415,0,0,1,.242-5.283c.9.577.3,1.5.643,2.032a13.953,13.953,0,0,1,1.787-9.408,17.372,17.372,0,0,0,3.565-5.116,6.76,6.76,0,0,1,1.945-2.131c.5-.394.6-.313.7.473a18.879,18.879,0,0,1,7-7.156,2.077,2.077,0,0,1,1.248-.533c1,.553,1.311-.521,1.943-.837a5.306,5.306,0,0,1,1.075-.784,41.616,41.616,0,0,1,11.216-4.1c2.748-.679,5.512-.228,8.246.324,1.24.25,2.424.682,3.633,1.033a9.067,9.067,0,0,1,1.021.493.884.884,0,0,0,1.2-.214,9.642,9.642,0,0,1,7.117-2.933c2.516.074,5.075-.165,7.515.5a34.566,34.566,0,0,1,7.872,3c.472.264,1.016.433,1.261.988l.287.193c.6.317.385.884.386,1.355.012,5.852.006,11.7.013,17.555a3.627,3.627,0,0,0,.089,1.375q.021,10.519.041,21.037c0,.8-.016,1.6-.025,2.393a8.2,8.2,0,0,1-4.351,1.491,41.2,41.2,0,0,1-7.633.565,14.724,14.724,0,0,1-5.855-2.159.493.493,0,0,1-.316-.5c.06-.313.341-.314.588-.35,4.583-.668,7.45-3.451,9.109-7.588,2.157-5.379,1.494-10.713-.471-16.213a9.463,9.463,0,0,0-.686,1.706c-.216.275-.185.887-.655.783-.43-.1-.335-.631-.315-.994.153-2.889-1.133-5.4-2.2-7.929-.922-2.184-4.732-4.025-7.085-3.7-1.312.18-2.7.1-3.769,1.141-.334.326-.673.162-.961-.188a3.488,3.488,0,0,0-1.595-1.166,1.3,1.3,0,0,1,.3.134c.753.344,1.11,1.25,1.754,1.532.6.261,1-.883,1.883-.934,1.294-.074,2.378-.586,3.879.042a30.047,30.047,0,0,1,4.254,2.019,4.2,4.2,0,0,1,1.805,2.322c.477,1.344,1.034,2.651,1.4,4.042a8.508,8.508,0,0,1-.732,6.682,11.984,11.984,0,0,0,1.875-3.391c.251-.3.151-.946.723-.9.54.041.487.6.626.978a19.034,19.034,0,0,1-.486,14.859A10.74,10.74,0,0,1,525.5,792c-.277.037-.643-.052-.7.355-.043.3.247.417.459.534,2.958,1.642,6,2.617,9.5,1.99,2.041-.366,4.152-.36,6.2-.853.727-.175,1.359-.883,2.21-.456" transform="translate(-374.782 -585.258)" fill="#fefefe"/>
        <path id="Path_11024" data-name="Path 11024" d="M321.5,799.4c-.328-1.838-1.422-3.513-1.071-5.5.3-1.718.279-3.512,1.315-5.035a27.588,27.588,0,0,0,1.132-5.9,24.758,24.758,0,0,1,.759-3.946c.135-.813.885-1.133,1.586-1.264a5.134,5.134,0,0,1,2.381-.064,35.056,35.056,0,0,0,8.471,1.159,2.067,2.067,0,0,1,2.233,1.481,2.787,2.787,0,0,1-.9,3.193,5.706,5.706,0,0,1-3.18,1.086c-.559.048-1.124.027-1.683.1a22.063,22.063,0,0,0,2.754-.174,2.189,2.189,0,0,1,2.137.831,7.407,7.407,0,0,1,1.659,7.846c-.512,1.549-1.3,2.984-1.846,4.52.442-1.275,1.083-2.463,1.6-3.707,1.349-3.244.984-6.171-1.472-8.732-.659-.687-.67-1.168.086-1.74,1.2-.907,1.188-2.144.806-3.427a1.73,1.73,0,0,0-1.7-1.281,37.557,37.557,0,0,1-9.228-1.227,4.488,4.488,0,0,0-2.367.185,2.107,2.107,0,0,0-1.533,1.74c-.645,2.363-.409,4.857-1.214,7.181a1.471,1.471,0,0,1-.479.851c-.847.566-.546-.223-.547-.5-.009-2.361.01-4.722.024-7.082q.15-25.99.3-51.979c0-.126-.017-.252-.027-.377a.159.159,0,0,0,.122-.182c1,.107,1.474.928,2.031,1.572q6.433,7.442,12.9,14.852c4.7,5.381,9.46,10.709,14.106,16.134,2.215,2.586,4.6,5.025,6.7,7.7.351.447,1.2.955.208,1.63a23.58,23.58,0,0,1-5.391.164c-2.3-.23-4.618-.057-6.924-.094-3.064-.049-6.116.351-9.187.085-1.88-.163-3.786-.021-5.68-.034a2.041,2.041,0,0,0-2.075,1.278,35,35,0,0,0-1.955,5.179,31.928,31.928,0,0,1,2.046-5.3,1.83,1.83,0,0,1,1.787-1.13c2.4.035,4.794-.116,7.19.093a47.238,47.238,0,0,0,4.915-.124,108.541,108.541,0,0,1,11.826.165c1.3.119,2.585-.34,3.886-.108,1.347.172,2.037,1.224,2.8,2.149,1.143,1.381,2.447,2.622,3.5,4.078a6.254,6.254,0,0,0,1.43,1.7,2.545,2.545,0,0,1,.233.262,50.21,50.21,0,0,0,3.476,3.966c.842,1.007,2.174,1.692,2.145,3.271-.207,2.121-.781,4.178-1.078,6.283a20.684,20.684,0,0,0-.457,4.255c.006,1.784-.685,2.555-2.413,2.512-4.884-.121-9.753.383-14.636.29a37.454,37.454,0,0,1-6.409-.43,8.929,8.929,0,0,0-3.642.052c-1.242.282-2.474-.156-3.8-.007a4.353,4.353,0,0,1,2.645,3.4,5.116,5.116,0,0,0,1.758,3.265,38.762,38.762,0,0,1,4.552,4.543c2.819,3.227,6.514,5.3,9.928,7.746,1.207.863,1.352,1.2.724,2.506a13.267,13.267,0,0,0-1.077,3.356,27.542,27.542,0,0,1-2.706,7.589c-.482.937-.7,1.988-1.234,2.9-.739,1.264-1.492,1.533-2.52.53-2.619-2.555-5.568-4.738-8.025-7.488-2.5-2.794-5.108-5.481-7.351-8.488-1.815-2.433-3.24-5.124-4.985-7.6a6.385,6.385,0,0,0-2.824-2.424,8.951,8.951,0,0,1-2.932-2.55,31.906,31.906,0,0,1-3.285-4.473,3.137,3.137,0,0,1-.33-1.309" transform="translate(-260.738 -572.471)" fill="#fefefe"/>
        <path id="Path_11025" data-name="Path 11025" d="M333.658,717.722a55.592,55.592,0,0,1,6.179-.067q16.8.044,33.594.095a4.923,4.923,0,0,0,.619-.073q10.409.051,20.819.1,21.518.083,43.035.157c.294,0,.587.03.881.045a8.961,8.961,0,0,1,.145,2.982c.043,2.106.017,4.213.012,6.319,0,1.3-.286,1.492-1.48.857a43.531,43.531,0,0,0-7.248-2.874c-2.827-.908-5.723-.75-8.607-.81a9.654,9.654,0,0,0-7.084,3c-.628.608-1.167.064-1.738-.1-4.336-1.694-8.772-2.629-13.4-1.427a40.411,40.411,0,0,0-10.1,3.8c-2.568.789-4.667,2.411-6.845,3.889a8.688,8.688,0,0,0-1.971,1.934A37.619,37.619,0,0,1,376.822,739c-.175.173-.431.366-.661.169-.322-.276-.016-.524.135-.756a10.547,10.547,0,0,1,1.889-1.835,8.446,8.446,0,0,0-2.969,3.868,49.388,49.388,0,0,1-3.36,5.317c-1.436,1.716-1.436,3.928-2.113,5.906a35.572,35.572,0,0,0-1,5.855c-.412.54-.689.2-.989-.141-6.211-7.095-12.439-14.177-18.605-21.31-4.682-5.415-9.527-10.686-14.1-16.19-.544-.654-1.33-1.187-1.39-2.166" transform="translate(-270.672 -565.112)" fill="#fefefe"/>
        <path id="Path_11026" data-name="Path 11026" d="M357.8,1062.475c-5.343-.067-10.685-.145-16.028-.2-5.893-.057-11.785-.112-17.678-.113-.939,0-1.185-.238-1.19-1.2-.033-6.74-.139-13.48-.221-20.22a2.373,2.373,0,0,1-.133-1.356q-.014-11.431-.011-22.861a3.719,3.719,0,0,0-.088-1.376l.005.019c-.209-.172-.2-.371.005-.51.34-.227.545.031.718.274.536.751,1.018,1.539,1.539,2.3a19.045,19.045,0,0,0,3.788,4.346,2.707,2.707,0,0,0,.832.555,6.542,6.542,0,0,1,3.652,3.448,76.923,76.923,0,0,0,16.807,20.085,2.443,2.443,0,0,1,.835.927,3.562,3.562,0,0,1-.35,2.056,2.572,2.572,0,0,0,.964,2.968,12.367,12.367,0,0,0,1.613,1.165c3.743,2.538,8.062,3.119,12.386,3.82,4.13.67,8.313,1.07,12.36,2.238a9.5,9.5,0,0,1,4.893,2.672c.217.252.529.491.374.867-.141.343-.5.24-.781.24q-11.917.005-23.833,0a.571.571,0,0,1-.456-.154" transform="translate(-262.191 -786.945)" fill="#fefefe"/>
        <path id="Path_11027" data-name="Path 11027" d="M326.121,716.809c4.545,5.542,9.411,10.8,14.1,16.222q9.048,10.451,18.14,20.863a21.337,21.337,0,0,0,2.7,2.859c.432.169.509.6.7.948a19.094,19.094,0,0,0,2.784,2.984c.318.289.8.308,1.079.661.127.162-.276.223-.052.447,2.614,2.619,4.855,5.569,7.353,8.292.569.62,1.188,1.188,1.775,1.786.192.243.249.564.451.8-.033.737.569,1.073,1,1.474,1.118,1.041,1.679,2.61,3.146,3.313.542.411.829,1.062,1.378,1.467,1.576,1.976,3.329,3.8,4.951,5.736.25.26.195.659.422.931q6.806,7.811,13.608,15.625a1.964,1.964,0,0,0,1.252.756,3.924,3.924,0,0,0,.319.581,16.251,16.251,0,0,0,1.726,2.307q5.678,6.494,11.353,12.99a1.428,1.428,0,0,0,.789.575,15.745,15.745,0,0,1,1.325,1.051c.786.03,1.35-.632,2.109-.674.329-.018.732-.1.855.3.106.348-.269.471-.5.622a8.2,8.2,0,0,1-1.282.493,1.179,1.179,0,0,1-.784.174,6.353,6.353,0,0,1,1,1.107c.84,1.333,2.141,2.254,3.1,3.477a26.716,26.716,0,0,0,4,4.556c1.551,2.308,3.585,4.208,5.346,6.34.507.613,1.046,1.2,1.495,1.859.009.674.63,1.329.061,2.021a2.2,2.2,0,0,1-2.962-.688c-1.421-1.516-2.7-3.163-4.225-4.582a2.935,2.935,0,0,1-1.147-1.173,5.689,5.689,0,0,0-1.467-1.871c-1.6-1.121-2.574-2.827-3.918-4.192s-2.464-2.939-3.783-4.335c.261-.614-.48-.475-.605-.8a18.485,18.485,0,0,0-2.2-2.475q-.368-.369-.706-.768c-2.281-2.686-4.571-5.365-6.914-8-2.313-2.6-4.611-5.211-6.851-7.872-.176-.3-.5-.438-.75-.65-1.216-1.786-2.892-3.2-4.083-5a37.091,37.091,0,0,0-4.008-4.438,2.851,2.851,0,0,1-.858-1.1,2.838,2.838,0,0,0-1.138-1.392,2.787,2.787,0,0,1-.779-.636c-.178-.218-.377-.418-.564-.629-2.084-2.516-4.267-4.944-6.474-7.351.3-.519-.115-.549-.442-.637-.341-.345-.58-.793-1.039-1.018-.3-.325-.5-.732-.826-1.034-.65-.687-1.042-1.617-1.952-2.056-.2-.173-.111-.511-.372-.649-.257-1.3-1.5-1.891-2.1-2.942-1.183-1.349-2.248-2.8-3.555-4.041-.4-.684-1.092-1.119-1.528-1.774-1.494-1.7-2.976-3.42-4.491-5.105a10.68,10.68,0,0,0-1.232-1.025c-.178-.233-.437-.407-.523-.709a20.39,20.39,0,0,0-3.134-3.911q-7.661-8.824-15.386-17.593-7.534-8.6-15.075-17.19a16.4,16.4,0,0,0-2.708-2.94,1.276,1.276,0,0,0-.265-1.021,1.14,1.14,0,0,1,.225-1.472c.423-.465.736-.341,1.183-.071a2.914,2.914,0,0,0,.965.191" transform="translate(-263.136 -564.199)" fill="#f33908"/>
        <path id="Path_11028" data-name="Path 11028" d="M412.486,1018.855c.224.2.715.219.469.722a28.91,28.91,0,0,0-2.812,2.681,13.814,13.814,0,0,1-10.605,3.39c-4.181-.3-7.72-2.15-11.254-4.119a8.7,8.7,0,0,1-3.145-3.551,3.841,3.841,0,0,0-3.2-1.85c-2.475-.382-5.044-.2-7.417-1.244-4.593-2.026-9.09-4.208-12.9-7.56-.58-.51-.859-.479-1.121.3a35.415,35.415,0,0,0-1.453,5.091,21.214,21.214,0,0,1-1.957,5.456,33.455,33.455,0,0,0-1.426,3.231,4.483,4.483,0,0,1-3.577,3.015.734.734,0,0,1-.65-.321c-.16-.521.336-.594.66-.921a9.1,9.1,0,0,1-1.567-1.555c-.331-.234-.281-.714-.611-.95a72.764,72.764,0,0,1-9.063-8.9,65.176,65.176,0,0,1-8.457-11.721,8.186,8.186,0,0,0-3.739-3.714c-2.033-.921-3.237-2.863-4.482-4.66-.574-.829-1.107-1.686-1.656-2.532-.25-.385-.423-.322-.545.086-.833-.813.215-.907.493-1.3a29.843,29.843,0,0,0,5.27,7.027,3.131,3.131,0,0,0,.987.772c2.49.86,3.628,2.993,4.864,5.049a76.415,76.415,0,0,0,9.158,12.005c2.93,3.215,6.187,6.06,9.355,9,1.3,1.209,1.532,1.444,2.409-.425,1.8-3.84,3.6-7.69,4.257-11.944a2.626,2.626,0,0,1,.1-.494c.312-.854,1.249-1.707.8-2.541-.388-.728-1.4-1.13-2.151-1.654-.827-.577-1.661-1.145-2.51-1.688-4.088-2.614-7.242-6.241-10.543-9.711-.087-.092-.159-.259-.254-.272-1.526-.214-1.423-1.491-1.6-2.523a4.761,4.761,0,0,0-3.207-4.156c-.094-.032-.147-.183-.364-.47,3.649.551,7.134-.254,10.648.4a37.713,37.713,0,0,0,9.33.124c3.157-.2,6.31-.227,9.466-.266,1.817-.022,2.236-.408,2.272-2.228a12.5,12.5,0,0,1,.434-4.1c.586.633.38,1.417.348,2.135a6.243,6.243,0,0,0,.355,3.529.875.875,0,0,1-.11.944c-3.3.961-6.722.614-10.088.871a81.806,81.806,0,0,1-8.179.247,41.243,41.243,0,0,1-7.117-.654c-1.353-.27-2.666.327-4.294.082a8.537,8.537,0,0,1,1.551,3.652c.22.923.669,1.082,1.468.567a4.625,4.625,0,0,0,1.772-2.387c.044-.118.064-.246.112-.361.178-.43.139-1.2.811-1.031.6.156.395.823.283,1.315-.037.164-.059.332-.1.493a5.539,5.539,0,0,1-2.174,3.009c-.553.368-.484.683-.141,1.121a9.29,9.29,0,0,0,1.394,1.456,17.2,17.2,0,0,1,2.225,2.052c2.379,2.8,5.414,4.775,8.43,6.773a8,8,0,0,0,2.046,1.2c-1.54-1.766-2.932-3.55-2.546-6.077-.556-3.076,1.3-5.37,2.538-7.866.052-.109.112-.215.173-.318.433-.644-.063-1.192-.182-1.778-.066-.321-.212-.705.179-.886.446-.206.7.137.867.485a3.935,3.935,0,0,0,1,1.7c.393.292.765.848,1.255.684s.171-.824.326-1.239a1.87,1.87,0,0,1,.1-.376c.22-.585.138-1.649.985-1.458.789.179.253,1.083.162,1.648a15.4,15.4,0,0,0,.473,5.344c.716,4.2,3.07,7.434,6.173,10.15a41.973,41.973,0,0,0,16.994,9.041,21.2,21.2,0,0,0,4.117.554c.293.019.59,0,.882.037.477.063,1.009.181,1.017.746.009.647-.6.6-1.04.633-.972.082-1.911-.294-2.886-.23-.467.031-.972,0-1.091.611s-.3,1.248.359,1.72a19.746,19.746,0,0,0,11.446,4.084,14.5,14.5,0,0,0,5.677-1.539c.567-.233.5-.5.138-.933-1.031-1.225-.434-2.561-.112-3.834a1.048,1.048,0,0,1,1.241-.654,3.435,3.435,0,0,1,1.562.444c.169.246.611.3.516.733a1.224,1.224,0,0,1-1.276.331c-.706-.1-1.155.013-1.126.871.027.806.208,1.47,1.183,1.42.8-.041,1.593-.145,2.386-.258a1.368,1.368,0,0,1,1.2.2" transform="translate(-261.713 -761.007)" fill="rgba(112,82,37,0.9)"/>
        <path id="Path_11029" data-name="Path 11029" d="M692.554,1120.9c-.294-.485-1.72-.762-.286-1.564.949-.262,1.958-.019,2.9-.349a1.2,1.2,0,0,1,.8.272c.5.171.947-.222,1.437-.162.441-.063.634.566,1.113.393.556-.235.712-1.012,1.414-1.042a.577.577,0,0,1,.427.471c.023.033.05.106.061.1,2.1-.433,4.412-.191,6.084-1.95.057.1.164.207.164.31.008,5.631.007,11.262.007,17.168l-5.327-5.1a35.439,35.439,0,0,1-5.346-4.761c-.906-1.485-2.416-2.419-3.447-3.789" transform="translate(-538.073 -863.509)" fill="#fdfdfd"/>
        <path id="Path_11030" data-name="Path 11030" d="M703.643,1063.019l.993-3.044c.18,3.521.206,7.017.091,10.519-.046,1.4.1,2.756-.8,3.946-.227.188-.283.558-.644.6-.964-.345-.58-1.18-.669-1.837.13-.1-.069.03.015-.116s.011-.165-.024-.026a3.4,3.4,0,0,1-2.179,2.486c-.582-.088-.481-.542-.513-.939-.03-.374-.06-.786-.63-.523-.643.768-1.127,1.784-2.41,1.544-.471-.467-.872-1.18-1.678-.482-.346.223-.664.518-1.127.438a1.547,1.547,0,0,0-1.4-.239,5.836,5.836,0,0,1-2.673.339c-.314.087-.62.065-.743-.273-.132-.364.152-.517.433-.647.837-.389,1.645-.846,2.485-1.219a54.607,54.607,0,0,0,5.608-3.384c1.1-.655,1.5-1.911,2.426-2.7.66-.02,1.146-.254,1.207-1a4.771,4.771,0,0,1,1.422-2.106,2.785,2.785,0,0,0,.817-1.34" transform="translate(-536.259 -820.856)" fill="#fbfbfb"/>
        <path id="Path_11031" data-name="Path 11031" d="M684.5,837.857c.106-.532.216-1.064.317-1.6.059-.312-.056-.734.416-.8s.513.328.623.646a30.187,30.187,0,0,1,1.675,7.488,18.317,18.317,0,0,1-2.333,10.933,10.716,10.716,0,0,1-8.934,5.749c2.744,1.614,5.435,2.7,8.607,2.358,3.212-.345,6.43-.583,9.477-1.778q0,.3,0,.6A38.117,38.117,0,0,1,683.7,863.2c-2.836.182-5.219-1.035-7.611-2.27-.372-.192-.773-.45-.628-.966.119-.424.555-.314.86-.348,4.3-.482,7.144-2.926,8.866-6.736a19.733,19.733,0,0,0,.958-13.08c-.192-.8-.939-1.388-.693-2.383-.551.235-.5.689-.722.959-.458,0-.353-.254-.231-.514" transform="translate(-525.968 -653.147)" fill="#705225"/>
        <path id="Path_11032" data-name="Path 11032" d="M325.661,934.6c.883-2.777.8-5.73,1.533-8.539a1.583,1.583,0,0,1,.982-1.308,6.452,6.452,0,0,1,4.2-.222,21.842,21.842,0,0,0,6.59.911c.084,0,.169,0,.253,0,1.355.061,2.827.032,3.359,1.624.615,1.842.039,3.143-1.732,4.367a16.614,16.614,0,0,1,2.072,2.478,6.9,6.9,0,0,1,.65,5.83,50.02,50.02,0,0,1-2.063,5.151,2.842,2.842,0,0,1-.451.6.384.384,0,0,1-.544.14c-.234-.158-.1-.364,0-.551a45.019,45.019,0,0,0,2.236-5.186,6.917,6.917,0,0,0-1.769-7.416,1.974,1.974,0,0,0-2.034-.58,13.7,13.7,0,0,1-3.011.216c-.231.01-.573.076-.613-.255-.055-.463.354-.364.621-.394a27.5,27.5,0,0,0,3.749-.431,3.1,3.1,0,0,0,1.876-1.181,2.178,2.178,0,0,0-1.57-3.628,35.707,35.707,0,0,1-8.461-1.217,4.829,4.829,0,0,0-2.257.02,1.808,1.808,0,0,0-1.607,1.6c-.621,2.53-.533,5.175-1.357,7.661-.182.551-.179,1.174-.658,1.6-.244-.431.4-.86,0-1.292" transform="translate(-264.654 -719.492)" fill="#705225"/>
        <path id="Path_11033" data-name="Path 11033" d="M607.345,1180.169c-6.452.01-12.9.033-19.354.019a14.2,14.2,0,0,1-3.743-.155.477.477,0,0,1,.263-.288c1.087-.073,1.327-.555,1.1-1.654-.569-2.8.229-4.7,2.209-5.768a6.421,6.421,0,0,1,8.087,1.339c.593.664.877.307,1.281-.122a5.836,5.836,0,0,1,4.688-2.039,4.407,4.407,0,0,1,4.576,3.859,9.759,9.759,0,0,1,.111,3.138,1.093,1.093,0,0,0,.669,1.316.315.315,0,0,1,.107.356" transform="translate(-457.855 -904.129)" fill="#705225"/>
        <path id="Path_11034" data-name="Path 11034" d="M446.9,1174.245c3.866-.192,7.731-.007,11.6.009,4.2.017,8.41.074,12.615.107.235,0,.508.083.74-.268a7.713,7.713,0,0,0-3.64-2.641,94.611,94.611,0,0,0-12.2-2.457c-2.727-.455-5.491-.707-8.184-1.435a21.077,21.077,0,0,1-6.237-2.893c-.031-.424.28-.426.565-.46a3.2,3.2,0,0,1,1.288.493c2.831,1.627,5.945,2.195,9.128,2.714,5.183.846,10.441,1.315,15.5,2.852a8.7,8.7,0,0,1,4.121,2.574,2.9,2.9,0,0,0,2.544,1.087,13.2,13.2,0,0,1,1.894.011c.434.035.968-.069,1.136.547-.026.045-.054.089-.082.132q-14.68-.048-29.359-.107c-.477,0-1.022.206-1.423-.266" transform="translate(-351.292 -898.715)" fill="rgba(112,82,37,0.9)"/>
        <path id="Path_11035" data-name="Path 11035" d="M644.682,728.169c.954.57,1.586.219,2.4-.49,2.374-2.068,5.281-2.458,8.349-2.462,5.448-.007,10.352,1.757,15.241,4.3V719.1c.536.245.3.73.3,1.1.024,2.8-.009,5.6.036,8.4a1.275,1.275,0,0,1-.86,1.43,36.032,36.032,0,0,0-9.213-3.606,22.876,22.876,0,0,0-9.849-.277,7.078,7.078,0,0,0-4.764,3c-.264.421-.485.329-.809.134-.464-.28-.945-.529-1.419-.791.115-.257.458-.1.59-.323" transform="translate(-502.557 -566.234)" fill="#705225"/>
        <path id="Path_11036" data-name="Path 11036" d="M700.711,1069.685a2.59,2.59,0,0,1-1.112,2.076c-.433.265-.588.985-.869,1.5-.23.6-.8.737-1.3.971-1.325,2.739-3.961,3.937-6.38,5.353-1.333.78-2.793,1.341-4.19,2.014-.2.094-.561.155-.407.482s.412.157.62-.007c.422-.163.735-.063.426.392-.232.342-.588.787-1.17.54-.254-.494-1.018-.565-1.039-1.253,6.332-2.633,11.488-6.608,14.658-12.853.382.139-.344,1.361.768.786" transform="translate(-533.327 -827.522)" fill="#705225"/>
        <path id="Path_11037" data-name="Path 11037" d="M675.511,1188.124a.192.192,0,0,1,.034-.167c.392-.507.967-.428,1.5-.442,1.127-.029,2.255,0,3.383-.012,1.69-.011,1.717-.041,1.726-1.785,0-.544-.015-1.087.013-1.63a1.561,1.561,0,0,1,.412-1.264c.673.088.519.652.545,1.048a18.228,18.228,0,0,1-.008,2.477c-.019.261-.049.488.287.552a1.352,1.352,0,0,0,1.153.653c2.3-.01,4.6.029,7.037-.026-1.232-1.445-2.431-2.725-3.511-4.1-.3-.382-.77-.7-.544-1.308a.539.539,0,0,1,.548.2c1.181,1.346,2.453,2.621,3.53,4.045a2.818,2.818,0,0,0,3.087,1.275c-.022.664-.522.544-.919.537-3.573-.059-7.144.045-10.719-.118-2.511-.114-5.033.036-7.55.068" transform="translate(-526.022 -912.084)" fill="rgba(180,166,128,0.6)"/>
        <path id="Path_11038" data-name="Path 11038" d="M730.117,1171.787a17.475,17.475,0,0,1-3.37-3.586c-1.261-1.522-2.841-2.79-3.745-4.6.819-.084,1,.612,1.34,1.106,1.828,1.817,3.646,3.644,5.49,5.444.517.5.311,1.072.285,1.638" transform="translate(-561.5 -898.255)" fill="rgba(112,82,37,0.69)"/>
        <path id="Path_11039" data-name="Path 11039" d="M730.19,1109.353l.587-.42c.275.911.5-.33.766-.017a4.052,4.052,0,0,1-4.144,1.838c-.578-.151-.99.465-1.521.639-.7.23-.72.227-.715-.529.274-.168.29-.493.442-.737.6-.973.658-.983,1.378-.142.034.039.151-.032.213-.1a4.316,4.316,0,0,0,2.269-3.736,1.691,1.691,0,0,1,.239,1.458,6.117,6.117,0,0,1-.55,1.989c.391-.065.756.066,1.037-.246" transform="translate(-563.114 -855.349)" fill="rgba(112,82,37,0.85)"/>
        <path id="Path_11040" data-name="Path 11040" d="M322.7,1016.862a20.9,20.9,0,0,1,.141,4.137c.061,7.152.066,14.3.091,21.456-.326-.239-.261-.593-.262-.922q-.022-12.087-.035-24.173a3.687,3.687,0,0,1,.065-.5" transform="translate(-262.437 -788.652)" fill="#242424"/>
        <path id="Path_11041" data-name="Path 11041" d="M712.483,1151.113l-1.338-1.1a15.455,15.455,0,0,1-4.019-4.612c.27-.02.4.209.58.336l5.209,4.874a.468.468,0,0,0-.432.506" transform="translate(-549.641 -884.662)" fill="rgba(112,82,37,0.9)"/>
        <path id="Path_11042" data-name="Path 11042" d="M748.688,783.362c-.242-2.844-.076-5.693-.121-8.54-.055-3.481-.044-6.963-.052-10.444a1.745,1.745,0,0,0-.315-1.3c.454-.006.562.29.561.661q-.034,9.812-.073,19.624" transform="translate(-580.322 -599.083)" fill="#414141"/>
        <path id="Path_11060" data-name="Path 11060" d="M631.873,421.551c-4.125,0-8.252-.084-12.373.024a7.049,7.049,0,0,1-7.11-7.073c-.046-8.215-.024-16.431-.009-24.647a6.918,6.918,0,0,1,4.7-6.746,6.438,6.438,0,0,1,2.637-.3c7.66.027,15.321.071,22.98-.032a9.076,9.076,0,0,1,4.364.546,6.94,6.94,0,0,1,3.787,4.344c.642,1.948.425,3.886.437,5.828.044,6.952.073,13.9-.006,20.855-.046,3.978-2.831,7.289-7.162,7.215-4.082-.07-8.165-.015-12.248-.015" transform="translate(-478.855 -314.994)" fill="rgba(237,235,222,0.6)"/>
        <path id="Path_11061" data-name="Path 11061" d="M637.461,560.218c0,1.56.01,3.12,0,4.679-.011,1.418-.671,2.1-2.051,2.107q-4.8.018-9.6,0c-1.5-.007-2.128-.449-2.286-1.928a74.785,74.785,0,0,1-.093-9.97A2,2,0,0,1,625.7,553.1c3.285-.023,6.57-.017,9.854,0a1.972,1.972,0,0,1,1.895,2.059c.029,1.686.007,3.372.008,5.059" transform="translate(-487.031 -442.226)" fill="rgba(237,235,222,0.6)"/>
        <path id="Path_11062" data-name="Path 11062" d="M293.833,353.956a2.526,2.526,0,0,1,2.634,2.593,2.637,2.637,0,1,1-5.273,0,2.571,2.571,0,0,1,2.639-2.6" transform="translate(-238.953 -293.482)" fill="rgba(112,82,37,0.69)"/>
        <path id="Path_11063" data-name="Path 11063" d="M608.239,832.142c-1.13,0-2.26-.014-3.389,0a5.177,5.177,0,0,1-2.931-.776c-.816-.489-1.942-.561-2.714-1.311-.179-.174-.527-.367-.511-.521.149-1.428-.765-2.7-.343-4.233.844-3.062,3.4-4.326,5.757-5.664a4.619,4.619,0,0,1,3.675.1,5.339,5.339,0,0,0,4.021.131,4.437,4.437,0,0,1,5.979,2.22,2.617,2.617,0,0,0,1.055,1.184,2.859,2.859,0,0,1,1.583,2.167,3.043,3.043,0,0,1-1.239,3.736c-.338.23-.577.6-.9.865-1.742,1.439-3.907,1.731-6.013,2.05a27.167,27.167,0,0,1-4.034.037v.005" transform="translate(-468.306 -641.082)" fill="rgba(112,82,37,0.26)"/>
        <path id="Path_11064" data-name="Path 11064" d="M673.8,957.806c5.614-2.067,10.6,0,13.114,5.431a3.031,3.031,0,0,0,2.277,1.745c.022.179-.019.406-.186.415-1.624.092-1.595,1.127-1.638,2.409a5.412,5.412,0,0,1-2.614,4.356,1.613,1.613,0,0,1-1.508.186,6.837,6.837,0,0,0,2.222-7.285,7.921,7.921,0,0,0-4.654-5.986c-.146-.275-.51-.124-.684-.343-.643-.487-.668.646-1.2.459a7.964,7.964,0,0,0-3.3-.563,4.162,4.162,0,0,0-1.456.3.734.734,0,0,1-.856-.377c-.19-.419.209-.561.477-.742" transform="translate(-524.357 -743.95)" fill="#705225"/>
        <path id="Path_11065" data-name="Path 11065" d="M664.323,960.132c.01.27-.573.366-.24.7a.535.535,0,0,0,.773.089,1.444,1.444,0,0,1,1.272-.291c.02.3-.207.434-.408.583a7.959,7.959,0,0,0-2.89,8.362,13.884,13.884,0,0,0,1.107,2.673,3.382,3.382,0,0,0,3.308,1.89,3.059,3.059,0,0,0,2.9-2.1c1.107-3.2,1.6-6.457-.315-9.592-.195-.319-.46-.618-.286-1.039.384-1.1.384-1.1,1.316-.478a.83.83,0,0,0,.033.944c1.943,3.331,1.4,6.814.446,10.237a4.032,4.032,0,0,1-3.729,3.1,4.452,4.452,0,0,1-4.736-2.572,10.64,10.64,0,0,1,.786-11.258,4.335,4.335,0,0,0-2.192,1.1c-.24.2-.491.654-.8.261-.248-.311.147-.622.383-.821a11.385,11.385,0,0,1,3.276-1.79" transform="translate(-514.877 -746.276)" fill="#705225"/>
        <path id="Path_11066" data-name="Path 11066" d="M660.937,808.66l.231.514a13.938,13.938,0,0,1-1.439,3.189c-.34.648-.863.542-1.678.516a5.885,5.885,0,0,0,1.844-4.909,13.571,13.571,0,0,0-2.373-7.337,6.706,6.706,0,0,0-5.476-2.919c-.294,0-.708.31-.457-.416.1-.291-.49-.207-.7-.158-1.522.35-3.221.31-4.312,2.015a4.569,4.569,0,0,0-2.685-2.679c1.224-.249,1.365-.175,2.81,1.429,2.306-2.053,6.315-2,9.2-.1,2.472,1.632,3.123,4.248,4.02,6.744a13.471,13.471,0,0,1,.625,4.688Z" transform="translate(-502.404 -623.95)" fill="#705225"/>
        <path id="Path_11067" data-name="Path 11067" d="M484.372,780.82c1.409-2.429,2.969-4.766,4.342-7.22a6.554,6.554,0,0,1,3.073-2.523,23.556,23.556,0,0,0-2.9,3.212c1.47-1.446,3.057-2.753,4.515-4.228a20.058,20.058,0,0,1,8.167-5.2.406.406,0,0,1,.041.588c-.123.408-.6.385-.82.674a20.522,20.522,0,0,0-1.987.763c-3.765,1.865-6.384,4.975-8.856,8.483-.173-.776.521-.944.41-1.521A10.52,10.52,0,0,0,487.139,778a13.313,13.313,0,0,1-2.414,3.193.484.484,0,0,1-.352-.368" transform="translate(-383.251 -600.413)" fill="rgba(112,82,37,0.69)"/>
        <path id="Path_11068" data-name="Path 11068" d="M552.391,752.1l-.041-.588a34.909,34.909,0,0,1,12.216-4.3A20.58,20.58,0,0,1,576.153,749c-.11.266-.371.256-.59.323a33,33,0,0,0-8.234-1.6c-3.895-.138-7.377,1.378-10.929,2.6-1.376.475-2.675,1.174-4.01,1.771" transform="translate(-434.029 -587.063)" fill="#705225"/>
        <path id="Path_11069" data-name="Path 11069" d="M496.1,903.313c-.8.264-.384-.43-.535-.677a7.757,7.757,0,0,1,.387-3.821,18.163,18.163,0,0,0,.543-3.979c0-1.559-.519-2.193-2.09-2.193-2.141,0-4.257-.387-6.4-.307a2.316,2.316,0,0,1-1.577-.273c-.4-.133-1-.017-.936-.739a74.063,74.063,0,0,1,9.4.216c2.62.251,2.963,1.381,2.7,4.621a7.915,7.915,0,0,1-.241,1.1c-.009,1.544-.64,3-.64,4.546,0,.582-.421.986-.577,1.5Z" transform="translate(-384.088 -694.838)" fill="#705225"/>
        <path id="Path_11070" data-name="Path 11070" d="M536.745,917.807a10.356,10.356,0,0,0,5.3,1.329c1.224-.041,2.305.627,3.531.7a19.966,19.966,0,0,0,5.635-.605c-1.476-1.459-3.3-2.409-3.972-4.364.26-.366.573.266.836-.045.473.231.9.439.685,1.141-.093.308.316.522.548.755a40.9,40.9,0,0,0,4.288,3.3c-1.593-.993-2.828.42-4.231.452a24.5,24.5,0,0,1-6.129-.139,40.282,40.282,0,0,1-5.9-1.556,4.5,4.5,0,0,1-.9-.658c-.043-.248.046-.364.307-.307" transform="translate(-422.135 -712.376)" fill="rgba(112,82,37,0.69)"/>
        <path id="Path_11071" data-name="Path 11071" d="M567.4,812.492a7.925,7.925,0,0,1,1.151-4.827,50.4,50.4,0,0,1,5.435-8.143,7.647,7.647,0,0,1,3.272-2.457.415.415,0,0,0,.3.545,2.082,2.082,0,0,1-1.468,1.2c-1.289.356-1.984,1.517-2.787,2.458a35.936,35.936,0,0,0-4.9,8.321c-.817,1.745-.451,3.724-.521,5.605-.019.5,0,1.008,0,1.519.379.187.24-.547.6-.323.223.138.17.381.115.562a14.745,14.745,0,0,0-.221,3.635c-.693-.25-.45-.907-.558-1.383a26.257,26.257,0,0,1-.3-5.486,2.169,2.169,0,0,0-.121-1.23" transform="translate(-445.248 -624.47)" fill="rgba(112,82,37,0.69)"/>
        <path id="Path_11072" data-name="Path 11072" d="M517.5,804.72c-1.856,1.7-4.13,3.03-5.139,5.51a17.048,17.048,0,0,0-1.446,8.345c.156,1.481-.279,3-.264,4.525.009.978.5,1.917.25,3.078a2.6,2.6,0,0,1-.648-1.836,46.317,46.317,0,0,1,.479-11.062,13.15,13.15,0,0,1,6.078-8.6.533.533,0,0,1,.692.035" transform="translate(-402.503 -630.08)" fill="rgba(112,82,37,0.69)"/>
        <path id="Path_11073" data-name="Path 11073" d="M550.548,965.682l-.534-.761a4.755,4.755,0,0,1-.576-1.792,6.736,6.736,0,0,0-.814-2.378,2.528,2.528,0,0,0-2.848-1.589,3.061,3.061,0,0,1-.878-.069c-.48-.434-1.167-.721-1.1-1.546,3.211-.462,6.95,1.151,7.711,3.4-.986-.211-1.331-1.353-2.385-1.338a10.94,10.94,0,0,1,1.424,6.068" transform="translate(-427.637 -744.287)" fill="#705225"/>
        <path id="Path_11074" data-name="Path 11074" d="M474.78,827.937l.352.368c-2.115,2.942-1.98,6.375-2.063,9.886-.631-.665-.341-1.457-.649-2.1-.374,1.664.084,3.314-.137,4.944-.307-.263-.7-.464-.7-.949-.325-3.127,1.043-5.991,1.425-9.013a6.93,6.93,0,0,1,1.775-3.134" transform="translate(-373.66 -647.531)" fill="rgba(112,82,37,0.69)"/>
        <path id="Path_11075" data-name="Path 11075" d="M530.129,917.945l-.307.307-1.116-.9-.121.1c.474.759.913,1.543,1.433,2.269a1.177,1.177,0,0,1-.01,1.4c-.34.5-.723-.1-1.086-.191-.468-.12-.921-.7-1.351.046a34.17,34.17,0,0,1,1.217-6.046,3.108,3.108,0,0,0,1.342,3.012" transform="translate(-415.519 -712.514)" fill="rgba(112,82,37,0.69)"/>
        <path id="Path_11076" data-name="Path 11076" d="M567.08,858.033c.494,1.2.177,2.447.2,3.668.029,1.528.7,2.923.778,4.431a17.127,17.127,0,0,0,2.808,6.325c-.225,1.028-.564-.1-.837.045-2.738-4.464-3.418-9.349-2.95-14.469" transform="translate(-444.93 -670.012)" fill="rgba(112,82,37,0.85)"/>
        <path id="Path_11077" data-name="Path 11077" d="M628.6,1052.49c.079-.27-.731-.427-.1-.767a27.584,27.584,0,0,0,5.828-.947c.273-.1.54-.07.637.195.146.4-.208.48-.483.581a24.667,24.667,0,0,1-4.448.839,4.785,4.785,0,0,1-1.437.1" transform="translate(-490.727 -813.945)" fill="#705225"/>
        <path id="Path_11078" data-name="Path 11078" d="M606.493,794.933c-.37-.032-.484-.207-.3-.545,2.362-1.264,4.827-.986,7.306-.484-.416.629-.975.326-1.5.23h0c-1.333.278-2.7-.047-4.037.252Z" transform="translate(-474.183 -621.793)" fill="#705225"/>
        <path id="Path_11079" data-name="Path 11079" d="M537.176,801.385l-.692-.035a4.793,4.793,0,0,1,3.963-1.167l-3.272,1.2" transform="translate(-422.177 -626.744)" fill="rgba(112,82,37,0.5)"/>
        <path id="Path_11080" data-name="Path 11080" d="M629.377,795.38c.484-.189,1.061.234,1.5-.23a2.462,2.462,0,0,1,1.955,1.173,27.778,27.778,0,0,0-3.458-.943" transform="translate(-491.565 -623.04)" fill="rgba(112,82,37,0.69)"/>
        <path id="Path_11081" data-name="Path 11081" d="M629.6,1057.288a2.975,2.975,0,0,1,1.438-.1c-.4.213-.782.393-.323.945.322.387.9.628.833,1.277a7.41,7.41,0,0,1-1.948-2.121" transform="translate(-491.734 -818.744)" fill="#e8b3a6"/>
        <path id="Path_11082" data-name="Path 11082" d="M541.42,770.269c.522-.62,1.095-1.109,1.987-.763-.422.365-.837.738-1.267,1.094-.45.372-.575-.01-.719-.33" transform="translate(-425.864 -603.798)" fill="rgba(112,82,37,0.5)"/>
        <path id="Path_11083" data-name="Path 11083" d="M613.433,796.007a10.556,10.556,0,0,1,4.037-.253c-1.318.53-2.686.25-4.037.253" transform="translate(-479.656 -623.414)" fill="#b4a680"/>
        <path id="Path_11084" data-name="Path 11084" d="M615.433,1014.721a.607.607,0,0,1,.218.768c-.1.232-.09.691-.513.528-.341-.132-.2-.5-.145-.779.049-.241.1-.5.44-.516" transform="translate(-480.764 -787.052)" fill="#705225"/>
        <path id="Path_11085" data-name="Path 11085" d="M699.479,964.2c-.241-.292-.72-.436-.61-.93.01-.045.377-.011.577-.013.125.191.475.155.475.472-.348-.031-.383.232-.442.472" transform="translate(-543.461 -748.602)" fill="rgba(112,82,37,0.69)"/>
        <path id="Path_11086" data-name="Path 11086" d="M344.25,947.927c-1.286.587-1.259,1.628-1.318,2.61-.033.542.029,1.089.042,1.634.017.7.011,1.315-.99,1.354-.455.018-.722.551-.879,1-.328.932.062,1.922-.292,2.907-.168.467.484,1.1,1.213.648.413-.259.769-.093,1.154-.121,1.075-.076,1.819.157,2.068,1.3,1.922.072,1.291,1.639,1.673,2.691.462,1.27.92,2.692,2.453,3.192.909.3.786,1.344,1.482,1.941.922.79,2.095,1.132,2.931,2,.213.221.551.27.607.686a1.541,1.541,0,0,0,1.4,1.407.637.637,0,0,1,.621.643,1.267,1.267,0,0,0,1.046,1.123c.359.085.687.27.726.618.178,1.6,1.332,1.458,2.44,1.43a9.475,9.475,0,0,1,1.01.009c.519.042.679.263.334.73-.248.337-.448.708-.692,1.047-.577.8-.818,1.481.552,1.6.466.039.315.392.381.653.446,1.762-.759,2.679-1.911,3.525-.677.5-.953.8-.384,1.584a1.589,1.589,0,0,1-.062,2.151,2.376,2.376,0,0,1-2.954-.218.818.818,0,0,1-.173-.827c.175-.418.559-1.063.04-1.218-.956-.286-1.083-1.735-2.309-1.505-.2.038-.562.085-.6.006-.862-1.757-3.761-1.461-3.926-3.911a.827.827,0,0,0-.642-.7c-1.14-.412-2.194-.915-2.35-2.33-.013-.117-.09-.3-.174-.324-1.27-.354-1.625-1.792-2.667-2.308a1.293,1.293,0,0,1-.832-1.567c.173-1.24-.132-2.191-1.5-2.458a.609.609,0,0,1-.484-.943c.772-1.335-.26-1.806-1.071-2.334-.5-.328-.935-.561-1.073-1.26-.187-.95-1.183-.781-1.858-1.013a5.468,5.468,0,0,1-1.7-1.113c-1.017-.835-1.713-2.145-2.671-2.639-1.314-.677-1.623-1.222-1.3-2.5.137-.544-.034-1.282-.618-1.37-1.315-.2-1.233-1.243-1.31-2.05a13.558,13.558,0,0,1,.172-4.64c.05-.2-.009-.417.268-.49,1.445-.383,1.442-1.609,1.493-2.725.069-1.507.031-3.02.011-4.53-.008-.566.059-.974.761-1.044.356-.035.874-.216.9-.6.088-1.467,1.365-1.316,2.057-1.22,1.678.232,3.341-.177,4.995.1.292.05.813-.163.764.358-.038.415.068,1.075-.719,1.08s-1.594.043-2.39.08c-1.3.06-1.785.613-1.809,2.047-.029,1.726.086,1.885,1.63,2,1.479.107,2.96.214,4.442.247.772.017.77.471.753,1.006-.034,1.032-.067,2.064,1.251,2.556" transform="translate(-267.611 -730.041)" fill="#fefefe"/>
        <path id="Path_11087" data-name="Path 11087" d="M517.5,966.659c.478-.961-.7-1.443-.641-2.378a21.38,21.38,0,0,0,.145-4.3c.159-2.248.815-4.411,1.126-6.633.764-.365.313.4.521.559.334,2.047-.421,3.885-.872,5.384a10.844,10.844,0,0,1,1.607-2.624c.32-.361.573-.865,1.2-.716.573.082.667.593.887.991-.107.882-.785,1.458-1.182,2.184-1.739,3.179-2.04,6.355-.1,9.563.2.327.433.674.2,1.05-.266.425-.663.205-1.019.111-1.017-.833-1.968-1.706-1.875-3.193" transform="translate(-407.519 -741.138)" fill="#705225"/>
        <path id="Path_11088" data-name="Path 11088" d="M375.478,891.785c.365.1.694.217.522.709-3.064.29-6.124-.042-9.186-.056-6.255-.029-12.511.23-18.766-.014a1.849,1.849,0,0,0-2.025,1.287,50,50,0,0,0-2.147,5.473c-.117-1.585.7-2.926,1.112-4.375.691-2.44,2.185-3.1,4.677-3.01,5.03.182,10.075,0,15.113-.082,3.568-.059,7.131.534,10.7.069" transform="translate(-278.296 -695.169)" fill="#705225"/>
        <path id="Path_11089" data-name="Path 11089" d="M486.932,973.181a1.653,1.653,0,0,1,1.689,2.016,2.552,2.552,0,0,1-2.852,2.381c-.848-.055-1.694-1.29-1.664-2.431.025-.93,1.613-2.034,2.827-1.966" transform="translate(-383.051 -756.021)" fill="rgba(112,82,37,0.85)"/>
        <path id="Path_11090" data-name="Path 11090" d="M499.528,926.04c.979.029,1.139,1.007,1.661,1.531a6.278,6.278,0,0,1,1.894,2.509,18.8,18.8,0,0,1-3.555-4.041" transform="translate(-394.572 -720.81)" fill="#dc7e5a"/>
        <path id="Path_11091" data-name="Path 11091" d="M493.492,919.028a3,3,0,0,1,1.527,1.774,3.742,3.742,0,0,1-1.527-1.774" transform="translate(-390.063 -715.573)" fill="#dc7e5a"/>
        <path id="Path_11092" data-name="Path 11092" d="M434.121,1147.2c-.2.034-.417.019-.509.258a6.346,6.346,0,0,1-1.893-1.387c-1.162-1-.825-2.234-.514-3.46.121-.477.442-.91.317-1.442.4.117.563.48.8.762-.113.356-.089.745-.218,1.091-.348.935-.026,1.357.95,1.324.117.272.381.3.618.373-.208.691-.772.733-1.242.852.368.594,1.457.664,1.685,1.627" transform="translate(-343.315 -881.509)" fill="#705225"/>
        <path id="Path_11093" data-name="Path 11093" d="M500.2,980.517c.323-.048.63.256,1,.04-2.975-4.535-2.2-8.738,1.12-12.711.551.088.714.543.914.964.349.666.045,1.322-.057,1.97a16.145,16.145,0,0,0,.691,7.575,3.061,3.061,0,0,0,2.7,2.323,3.277,3.277,0,0,0,3.341-1.99c.243-.467.3-1.082.9-1.3l.674.64c.469.473.831,1.034,1.255,1.545l.779.99c1.429,1.443,2.64,3.082,4.059,4.533,1.326,1.7,3.076,3.052,4.088,5.007-.338.471-.844.324-1.268.275a12.252,12.252,0,0,1-4.193-1.1,11.458,11.458,0,0,0,4.736,1.142c.479.024,1.017-.184,1.411.283,2,1.856,3.614,4.066,5.432,6.088,2.693,2.993,5.319,6.046,7.968,9.079a7.126,7.126,0,0,1,.494.721,2.96,2.96,0,0,0-.378.024c-.774.149-1.807-.759-2.305.452a3.253,3.253,0,0,0,.938,3.9c.056.043.076.135.141.256a13.753,13.753,0,0,1-12.04,1.47c-2.514-.771-4.574-2.244-6.78-3.511-1.242-.714,0-1.652-.088-2.494-.07-.67.683-.322,1.087-.3,1.091.063,2.18.164,3.272.226.271.015.7.121.744-.258.064-.507-.422-.412-.716-.426a26.922,26.922,0,0,1-6.353-.916,45.069,45.069,0,0,1-11.8-5.588,27.554,27.554,0,0,1-8.733-8.577,13.837,13.837,0,0,1-1.7-4.967,34.794,34.794,0,0,1-.248-7.311c.033-.519.38-.489.684-.534a11.385,11.385,0,0,1,5.323.475c.243.081.533.16.639.378.468.96,1.6.964,2.265,1.631" transform="translate(-388.354 -752.039)" fill="#fefefe"/>
        <path id="Path_11094" data-name="Path 11094" d="M437.8,1104.463c-.614-.587-1.473-.886-1.965-1.656l1.522-.823a4.894,4.894,0,0,0,3.561-3.556,28.876,28.876,0,0,1,1.6-3.556,30.877,30.877,0,0,0,2.072-7.108c.273-1.277,1.108-2.366,1.155-3.808,1.324.48,2.114,1.564,3.137,2.309a47.245,47.245,0,0,0,12.435,6.545,22.64,22.64,0,0,0,5.482.668c1.681.137,3.042.425,3.954,2.23,1.549,3.066,4.6,4.394,7.586,5.7,4.14,1.808,8.374,2.425,12.721.886a12.986,12.986,0,0,0,5.743-4.152,1.975,1.975,0,0,1,1.434-.8c1.54,1.062,2.482,2.683,3.739,4.01,1.369,1.446,2.677,2.949,4.011,4.427.372.781,1.135,1.26,1.543,2.013l.977,1.015c1.376,2.009,3.123,3.71,4.669,5.565-.161.435-.508.265-.762.266-2.358,0-4.717-.045-7.073,0-.738.014-1.076-.207-1.081-.933-.467-.937-.114-1.941-.247-2.9-.055-.4.283-.907-.288-1.181a11.319,11.319,0,0,0-.2,3.6c.019,1.02-.16,1.482-1.364,1.4-1.872-.122-3.76,0-5.641.023-1.213.2-1.5-.279-1.161-1.418a6.045,6.045,0,0,0,.063-1.76c-.034-2.065-.589-3.838-2.717-4.687a5.438,5.438,0,0,0-5.9,1.421c-.4.422-.771.877-1.154,1.317-.386.045-.321-.3-.437-.5a4.489,4.489,0,0,0-4.463-2.483,16.761,16.761,0,0,0-2.121.258c-3.023.653-4.32,2.741-3.675,5.785.131.619.8,1.33.339,1.8-.327.332-1.2.129-1.822.164a22.725,22.725,0,0,1-7.475-2.855,9.056,9.056,0,0,0-3.02-1.208c-3.1-.74-6.221-1.331-9.381-1.819-4-.618-8.1-.874-11.962-2.3a31.287,31.287,0,0,1-3.832-1.9" transform="translate(-346.999 -838.768)" fill="#fdfdfd"/>
        <path id="Path_11095" data-name="Path 11095" d="M488.636,894.405c2.728.062,5.457.112,8.185.192,1.584.047,2.234.723,2.347,2.327a12.96,12.96,0,0,1-.524,3.732c-.321,1.436-.552,2.887-.872,4.322a9.512,9.512,0,0,1-2.636-2.5c-2.125-2.365-4.191-4.783-6.256-7.2-.178-.208-.728-.43-.244-.871" transform="translate(-386.291 -697.18)" fill="#fcfcfc"/>
        <path id="Path_11096" data-name="Path 11096" d="M538.664,974.461c1.1.461,1.546,1.563,2.26,2.385a53.713,53.713,0,0,1,4.3,4.995,3.518,3.518,0,0,1-2.811,3.652,3.151,3.151,0,0,1-3.641-2.234,16.612,16.612,0,0,1-.636-7.849,1.08,1.08,0,0,1,.532-.948" transform="translate(-423.262 -756.98)" fill="#fcfcfc"/>
        <path id="Path_11097" data-name="Path 11097" d="M537.614,972.366a17.683,17.683,0,0,0,.129,7.851c.381,1.674,1.509,2.871,2.7,2.932,1.571.079,2.684-.74,3.354-2.468.121-.312.248-.622.372-.934a.657.657,0,0,1,.5.488c-.512,1.177-.789,2.515-2.038,3.213-2.232,1.247-4.656.189-5.365-2.481a17.347,17.347,0,0,1-.178-9.309c.369.092.671.235.526.709" transform="translate(-422.213 -754.885)" fill="#705225"/>
        <path id="Path_11098" data-name="Path 11098" d="M548.159,962.91c1.8-.7,2.971-.312,3.912,1.293a9.011,9.011,0,0,1,1.2,4.535,67.635,67.635,0,0,1-5.116-5.828" transform="translate(-430.898 -748.104)" fill="#f3eeec"/>
        <path id="Path_11099" data-name="Path 11099" d="M665.361,1125.909c-1.181.263-2.4.171-3.593.543a1.227,1.227,0,0,1-1.568-1.323c.01-.379.046-.76.018-1.137-.05-.689.253-.916.9-.784a4.775,4.775,0,0,0,1.874.135,6.792,6.792,0,0,1,2.366,2.568" transform="translate(-514.588 -868.062)" fill="#f5f4f4"/>
        <path id="Path_11100" data-name="Path 11100" d="M522.6,957.892a19.384,19.384,0,0,0-3.054,3.863q.557-2.954,1.114-5.908c1.109.242,1.47,1.2,1.939,2.045" transform="translate(-409.528 -743.075)" fill="#ece6e6"/>
        <path id="Path_11101" data-name="Path 11101" d="M689.392,1119.8a6.146,6.146,0,0,0,.949-.584c.333-.295-.088-.256-.205-.348a5.834,5.834,0,0,0,3.452-.667c.544-.229.356.517.626.712.109.461-.36.551-.526.83a.2.2,0,0,1,.021.22c-1,.722-2.07.28-3.12.185.554-.437,1.372-.315,2.019-1.044a4.757,4.757,0,0,0-2.114.656c-.363.158-.713.6-1.1.042" transform="translate(-536.395 -864.315)" fill="rgba(180,166,128,0.6)"/>
        <path id="Path_11102" data-name="Path 11102" d="M593.339,1052.929a10.5,10.5,0,0,1-7.1-1.772c2.138.4,4.186,1.328,6.415,1.176.379.026.746.064.687.6" transform="translate(-459.341 -814.269)" fill="#705225"/>
        <path id="Path_11103" data-name="Path 11103" d="M583.453,1022.635a18.5,18.5,0,0,1-4.059-4.533c.734.061.978.715,1.342,1.178.889,1.132,2.075,2.025,2.717,3.355" transform="translate(-454.23 -789.578)" fill="#f2b08e"/>
        <path id="Path_11104" data-name="Path 11104" d="M698.838,1135.875c-.3.074-.359-.27-.58-.336a13.021,13.021,0,0,1-3-3.341,16.264,16.264,0,0,1,3.585,3.677" transform="translate(-540.773 -874.805)" fill="#ccc3be"/>
        <path id="Path_11105" data-name="Path 11105" d="M714.625,1172.2c-.622-.588-1.4-1.054-1.543-2.012a3.225,3.225,0,0,1,1.543,2.012" transform="translate(-554.09 -903.183)" fill="#e99277"/>
        <path id="Path_11106" data-name="Path 11106" d="M572.611,1009.628c-.749-.246-1-.9-1.254-1.545a2.075,2.075,0,0,1,1.254,1.545" transform="translate(-448.226 -782.094)" fill="#e29375"/>
        <path id="Path_11107" data-name="Path 11107" d="M425.889,1020.866c-.375,2.714,1.292,4.454,3.029,6.135-.639.658-1.142.269-1.614-.057a70.434,70.434,0,0,1-6.263-4.425c-2.651-2.3-5.061-4.869-7.582-7.316-.42-.408-.377-.667.146-.936a6.51,6.51,0,0,0,2.459-2.761c.436-1.546,1.221-2.254,2.791-2.2,2.611.091,5.22.033,7.829.039.674,0,1.033.219,1.116.885.109.878.636,1.647.662,2.547l0,0a2.959,2.959,0,0,1-2.388,1.853,3.307,3.307,0,0,1-.382,3.063c-.255.48-.449.811-.042,1.338s-.009,1.239.237,1.836" transform="translate(-330.069 -783.006)" fill="#fefefe"/>
        <path id="Path_11108" data-name="Path 11108" d="M472.88,1036.777c2.386,5.193,6.5,8.733,11.2,11.711.077.552-.4.5-.628.438-1.645-.486-3.592-.5-4.259-2.611.053.178-.05-.049-.028,0,.463,1.015.844,1.748-.927,1.159a3.615,3.615,0,0,1-2.67-2.8,9.4,9.4,0,0,0,.381,1.236c.055.292.134.609-.176.8s-.57.014-.809-.165c-1.654-1.242-3.7-2.191-3.482-4.387.138.41.177,1.243.429,2.027a.559.559,0,0,1-.145.688.632.632,0,0,1-.711-.087,3.568,3.568,0,0,1-1.751-2.2c-1.128-.817-.958-2.1-1.144-3.274a7.605,7.605,0,0,0-.141,2.994c-1.2-1.076-1.987-2.144-1.87-3.721.1-1.411-.017-2.837.764-4.148.126-.212-.579-.79.059-1.189a3.811,3.811,0,0,1,2.868-1.59c1.291-.092,2.142.475,1.875,1.671-.336,1.507.35,2.451,1.17,3.452" transform="translate(-369.626 -799.694)" fill="#fcfcfc"/>
        <path id="Path_11109" data-name="Path 11109" d="M496.33,1086.16c3.034,1.516,6,3.222,9.376,3.881.9.175.97.633.8,1.328-.183.765-.735.766-1.258.467-2.489-1.419-5.264-1.647-8.01-1.859a16.57,16.57,0,0,1-5.787-1.532c-4.229-1.963-8.336-4.117-11.781-7.34.113-.677.234-.776.716-.457,3.314,2.2,7.124,3.143,10.857,4.24,1.668.49,3.384.869,5.084,1.273" transform="translate(-379.741 -836.168)" fill="#fbfbfb"/>
        <path id="Path_11110" data-name="Path 11110" d="M417.91,1008.172c-.79-.609-.8-1.571-.978-2.409-.127-.593-.231-.9-.9-.891-2.435.025-4.884-.137-7.3.072-1.237.107-2.777.28-3.22,1.956-.066-.66.395-1.3.056-2.038-.484.267-.311.747-.394,1.1a4.767,4.767,0,0,1-2.417,3.221c-.794.438-1.381.415-1.583-.723a6.962,6.962,0,0,0-2.125-4.479c2.015.3,3.691-.258,5.334.028,7.439,1.293,14.888.057,22.33.189a2.29,2.29,0,0,0,2.244-1.06c.474.09.283.591.546.784a7.057,7.057,0,0,0,1.86,2.956c-.294.02-.589.06-.8-.232a1.533,1.533,0,0,0-.343-.362c-.51-.358-.2,1.151-.838.39-.272-.326-.011-.934-.458-1.252-.068-.049-.123-.135-.2-.155-1.884-.494-3.753-1.13-5.747-.634-.16.04-.384.057-.32.28.25.859-.462,1.728-.157,2.472.669,1.63-.076,3.25.2,4.854a12.574,12.574,0,0,1-.219-7.235c-.82.611-.624,1.407-1.024,1.915a2.18,2.18,0,0,1-.588-.935c-.208-.555-.658-.567-1.135-.43a.488.488,0,0,0-.387.561c.079.538.5.6.934.612.4.014.833-.178,1.179.184,0,.658.3,1.644-.169,1.886-.605.31-1.183-.546-1.759-.918a2.942,2.942,0,0,1-1.052-1.523c-.138-.354-.131-.815-.6-1.045-.538,1.017,1.283,1.918.034,2.862" transform="translate(-319.516 -778.4)" fill="#f6f6f6"/>
        <path id="Path_11111" data-name="Path 11111" d="M574.087,1125.192c2.421.785,4.069,2.589,5.971,3.963,4.9,3.537,13.3,3.415,17.836-.475.488-.419.974-.372,1.832-.519a12.526,12.526,0,0,1-5.344,4.1c-5.387,1.976-10.374.6-15.219-1.978a12.077,12.077,0,0,1-4.836-4.277,1.019,1.019,0,0,1-.239-.811" transform="translate(-450.256 -869.571)" fill="#f4f4f4"/>
        <path id="Path_11112" data-name="Path 11112" d="M495.253,1076.239a5.1,5.1,0,0,1-3.025-.453,31.822,31.822,0,0,0-4.649-1.3,46.945,46.945,0,0,1-5.348-1.941,7.955,7.955,0,0,1-3.27-1.734c-.169-.169-.3.18-.365.367-.608-.617-.277-1.353-.26-2.05a8.437,8.437,0,0,0,2.385,2.262c-.259-1.495-.764-2.808-.285-4.205.213.827.464,1.647.631,2.484.407,2.031,2.517,2.228,3.76,3.8-.04-1.356-.812-2.23-.539-3.369.7,2.011,1.721,3.654,4.07,3.823-.143-.628-.74-1.182-.8-2.1.844.461,1.021,1.276,1.481,1.847a5.574,5.574,0,0,0,4.076,1.362,4.842,4.842,0,0,1,2.139,1.2" transform="translate(-378.664 -826.246)" fill="#705225"/>
        <path id="Path_11113" data-name="Path 11113" d="M475.345,1030.18c-1.389-.778-2.176-1.728-1.373-3.453.334-.718-.407-1.339-1.242-1.376a5.751,5.751,0,0,0-3.3,1.3,23.767,23.767,0,0,0,1.684-3.342c.407-1.173.789.1,1.192.251-.212.22-.072.458-.039.715.066-.251-.2-.494.039-.712a2.68,2.68,0,0,1,2.092,2.608,23.306,23.306,0,0,0,.946,4.012" transform="translate(-372.091 -793.097)" fill="#f6f6f6"/>
        <path id="Path_11114" data-name="Path 11114" d="M460.594,1031.112c-.448-.674.033-1.7-.886-2.233-.218-.126.119-.5.243-.764.444-.936,1.152-1.834.508-2.978-.24-.427.174-.446.439-.525a4.507,4.507,0,0,0,2.272-1.591,27.39,27.39,0,0,1-1.838,3.827,6.194,6.194,0,0,0-.738,4.263" transform="translate(-364.774 -793.253)" fill="#f6f6f6"/>
        <path id="Path_11115" data-name="Path 11115" d="M434.986,1146.6c-.471.01-.872.746-1.325.286-.362-.367-.061-.929.036-1.4s.039-1.006.556-1.3a7.318,7.318,0,0,0,1.951,1.7c-.252.553-.907.347-1.218.717" transform="translate(-345.242 -883.759)" fill="#eee"/>
        <path id="Path_11116" data-name="Path 11116" d="M710.957,1115.972c1.307.142,1.685-.945,2.289-1.733.676.005.44.5.3.74-.328.586-.586,1.275-1.353,1.47l-1.273,1.249c-.252.223-.6.119-.55-.124.242-1.12-.466-.3-.716-.382-.492,0-.9.524-1.441.228-.413-.875.446-.974.84-1.316.572-.5,1.2-1.034,1.9-.133" transform="translate(-550.375 -861.389)" fill="rgba(112,82,37,0.85)"/>
        <path id="Path_11117" data-name="Path 11117" d="M724.271,1116.3c.345-.739,1.458-1.113,1.048-2.211.89-.171,1.259.073,1.172.808-.036.3-.338.6.039.881a1.766,1.766,0,0,1-.246.276c-.167.125-.352.225-.546.346-.238-.416.456-.595.162-1.062-.645.292-.687,1.222-1.4,1.416a.465.465,0,0,0-.226-.454" transform="translate(-562.448 -861.235)" fill="rgba(180,166,128,0.6)"/>
        <path id="Path_11118" data-name="Path 11118" d="M709.563,1118.024c-.727.673-.6-.07-.723-.517-.531.854-1.7.947-2.016,1.965l-.528-.386-.054-.109c.246-.767,1.353-.658,1.523-1.5,1.415-.745,1.554-.7,1.8.547" transform="translate(-548.981 -863.441)" fill="rgba(180,166,128,0.6)"/>
        <path id="Path_11119" data-name="Path 11119" d="M714.236,1123.691a3.975,3.975,0,0,1,1.584-.752c.022.541-.435.616-.623.883-.3.433.122.315.305.375-.305.38-.619.408-.772-.087a.574.574,0,0,0-.494-.419" transform="translate(-554.952 -867.888)" fill="rgba(180,166,128,0.6)"/>
        <path id="Path_11120" data-name="Path 11120" d="M740.67,1113.658c-.28.576-.831.551-1.478.658l.991-2.4c.125.591-.176,1.3.487,1.743" transform="translate(-573.594 -859.653)" fill="rgba(180,166,128,0.6)"/>
        <path id="Path_11121" data-name="Path 11121" d="M705.226,1118.926c.133.069.562.028.231.306a19.345,19.345,0,0,1-1.755,1.195l-.86.095,1.419-1.036.964-.56" transform="translate(-546.442 -864.89)" fill="rgba(112,82,37,0.85)"/>
        <path id="Path_11122" data-name="Path 11122" d="M733.266,1087.106c.177-.671.982-.5,1.3-.971-.176.671-.191,1.561-1.3.971" transform="translate(-569.167 -840.397)" fill="#b4a680"/>
        <path id="Path_11123" data-name="Path 11123" d="M602.175,1183.233c-2.69,0-5.381-.02-8.07.015a.912.912,0,0,1-1.091-.833c-.4-1.589-1.088-3.189.1-4.684,1.425-1.793,3.5-1.874,5.529-1.717,1.626.126,2.563,1.289,3.156,2.735.064.155.13.31.184.469.093.271.1.621.477.663.477.053.453-.378.607-.659,1.093-2,2.539-3.416,5.063-3.224a3.408,3.408,0,0,1,3.31,2.73,12.21,12.21,0,0,1-.016,4.137c-.085.8-.688.472-1.055.477-2.731.032-5.463.017-8.194.017v-.127" transform="translate(-463.981 -907.493)" fill="#fdfdfd"/>
        <path id="Path_11124" data-name="Path 11124" d="M704.092,1182.8c.11-.276.021-.659.535-.872v4.954l-.408.643c-.355-1.653.084-3.2-.127-4.725" transform="translate(-547.362 -911.949)" fill="#0d0d0d"/>
        <path id="Path_11127" data-name="Path 11127" d="M714.7,412.062a3.208,3.208,0,1,1,3.137,3.206,3.059,3.059,0,0,1-3.137-3.206" transform="translate(-555.299 -334.498)" fill="#f3f1eb"/>
        <path id="Path_11128" data-name="Path 11128" d="M625.25,400.686a6.682,6.682,0,0,1,6.615-6.727,6.724,6.724,0,1,1-6.615,6.727" transform="translate(-488.482 -323.363)" fill="#f6f1ed"/>
        <path id="Path_11129" data-name="Path 11129" d="M625.068,478.241a6.651,6.651,0,1,1,6.574,6.605,6.689,6.689,0,0,1-6.574-6.605" transform="translate(-488.346 -381.179)" fill="#f6f1ed"/>
        <path id="Path_11130" data-name="Path 11130" d="M717.589,491.779a3.606,3.606,0,0,1-3.218-3.136,3.282,3.282,0,0,1,3.164-3.383,3.238,3.238,0,0,1,3.393,3.278,3.291,3.291,0,0,1-3.339,3.241" transform="translate(-555.053 -391.559)" fill="#836a43"/>
        <path id="Path_11131" data-name="Path 11131" d="M643.487,568.544c0,2.458-1.452,4.158-3.568,4.166-2.653.01-4.513-1.653-4.555-3.976a4.091,4.091,0,0,1,4.034-4.279,3.8,3.8,0,0,1,4.089,4.089" transform="translate(-496.037 -450.715)" fill="rgba(112,82,37,0.85)"/>
        <path id="Path_11132" data-name="Path 11132" d="M300.248,362.222c-.133.438-.358.745-.8.714a.663.663,0,0,1-.659-.755.633.633,0,0,1,.751-.644.7.7,0,0,1,.7.685" transform="translate(-244.629 -299.144)" fill="#fff"/>
        <path id="Path_11133" data-name="Path 11133" d="M625.174,831.2c.374,2.1-1.009,2.925-2.715,3.561a11.525,11.525,0,0,0-2.388,1.016c-1.147.742-2.443.057-3.67-.026-1.107-.075-2.17-.742-3.3.183-.479.394-1.148-.3-1.76-.429a11.163,11.163,0,0,1-3.691-1.524,1.774,1.774,0,0,1-.808-1.824c.118-1.655.3-3.233,1.622-4.473a1.992,1.992,0,0,1,2.021-.636,5.165,5.165,0,0,0,3.778-.416,1.866,1.866,0,0,1,.847-.187,13.941,13.941,0,0,0,3.694-.423c1.686-.515,3.029.723,4.194,1.752.521.46,1.223.5,1.618,1a3.072,3.072,0,0,1,.554,2.424" transform="translate(-474.728 -646.012)" fill="#f6f1ed"/>
        <path id="Path_11134" data-name="Path 11134" d="M674.579,962.823c2.628,3.495,2.128,7.262.823,11.02a3.05,3.05,0,0,1-2.822,2,3.694,3.694,0,0,1-3.709-1.633,9.764,9.764,0,0,1-.53-9.627,4.933,4.933,0,0,1,2.821-2.544,5.143,5.143,0,0,1,3.418.78" transform="translate(-519.91 -747.691)" fill="#fefefe"/>
        <path id="Path_11135" data-name="Path 11135" d="M488.419,975.754c.829-.035,1.243.347,1.22,1.194a1.876,1.876,0,0,1-1.829,1.84c-.992,0-1.25-.74-1.366-1.484-.107-.686,1.053-1.538,1.975-1.55" transform="translate(-384.794 -757.943)" fill="#f6f1ed"/>
        <path id="Path_11136" data-name="Path 11136" d="M714.876,1188.174c.718.6.542,1.244.56,1.829.009.3-.022.627-.434.594a.535.535,0,0,1-.514-.693c.091-.518.228-1.028.388-1.731" transform="translate(-555.13 -916.616)" fill="#fefefe"/>
        <path id="Path_11137" data-name="Path 11137" d="M480.1,1012.725c-.618-.1-1.167.393-1.847.12a.945.945,0,0,1-.688-1.141.76.76,0,0,1,.955-.745c.473.055,1.159-.329,1.306.55.069.412.179.817.27,1.225Z" transform="translate(-378.159 -784.215)" fill="#fefefe"/>
        <path id="Path_11138" data-name="Path 11138" d="M479.551,1025.756l.542.957c-.294.105-.659.432-.87.109-.234-.359.005-.773.328-1.069v0" transform="translate(-379.336 -795.293)" fill="#fcfcfc"/>
        <path id="Path_11140" data-name="Path 11140" d="M639.692,402.484a6.058,6.058,0,0,1-6.055,6.008,6.122,6.122,0,0,1-6.091-6.369,6.075,6.075,0,1,1,12.146.36" transform="translate(-490.196 -325.056)" fill="#836a43"/>
        <path id="Path_11141" data-name="Path 11141" d="M639.512,479.968a6.109,6.109,0,0,1-6.128,6.174,6.094,6.094,0,0,1,.124-12.188c3.344.007,6.2,3.007,6,6.014" transform="translate(-490.088 -383.116)" fill="#836a43"/>
        <path id="Path_11142" data-name="Path 11142" d="M719.209,492.762a2.874,2.874,0,0,1-2.839-2.8,2.808,2.808,0,0,1,2.794-2.682,2.771,2.771,0,0,1,2.761,2.707,2.848,2.848,0,0,1-2.716,2.776" transform="translate(-556.545 -393.069)" fill="#f6f1ed"/>
        <path id="Path_11143" data-name="Path 11143" d="M644.968,570.572a3.405,3.405,0,1,1-6.81.048,3.413,3.413,0,0,1,3.313-3.442,3.448,3.448,0,0,1,3.5,3.394" transform="translate(-498.124 -452.751)" fill="#f6f1ed"/>
        <path id="Path_11144" data-name="Path 11144" d="M640.04,412.885a3.733,3.733,0,0,1-3.768-3.732,3.818,3.818,0,1,1,7.631.1,3.74,3.74,0,0,1-3.863,3.632" transform="translate(-496.716 -331.809)" fill="#f6f1ed"/>
        <path id="Path_11145" data-name="Path 11145" d="M643.583,486.789a3.591,3.591,0,0,1-3.485,3.681,3.714,3.714,0,0,1-4.025-3.448,3.841,3.841,0,0,1,3.336-4.17c2.427-.209,3.964,1.241,4.174,3.938" transform="translate(-496.558 -389.748)" fill="#f6f1ed"/>
        <path id="Path_11146" data-name="Path 11146" d="M720.687,493.675a2.37,2.37,0,0,1-2.3-2.357,2.308,2.308,0,0,1,2.314-2.177,2.268,2.268,0,0,1-.015,4.534" transform="translate(-558.054 -394.46)" fill="rgba(180,166,128,0.6)"/>
        <path id="Path_11147" data-name="Path 11147" d="M645.707,572.1a2.925,2.925,0,0,1-2.83,2.941,3.179,3.179,0,0,1-3.075-2.916,3.133,3.133,0,0,1,3.107-3.016,2.986,2.986,0,0,1,2.8,2.99" transform="translate(-499.352 -454.194)" fill="rgba(112,82,37,0.85)"/>
        <path id="Path_11148" data-name="Path 11148" d="M639.122,411.265a3.089,3.089,0,0,1,3.121-3.222,3.168,3.168,0,0,1,0,6.334,3.116,3.116,0,0,1-3.119-3.113" transform="translate(-498.844 -333.884)" fill="#c0b49c"/>
        <path id="Path_11149" data-name="Path 11149" d="M644.8,488.925a3.117,3.117,0,0,1-3.147,3.089,3.23,3.23,0,0,1-3.119-3.167,3.128,3.128,0,0,1,3.138-3.113,3.009,3.009,0,0,1,3.127,3.191" transform="translate(-498.406 -391.916)" fill="#c0b49c"/>
      </g>
    </g>
    <path id="Path_11155" data-name="Path 11155" d="M65.756,12.066q-1.555,1.887-3.112,3.772a1.04,1.04,0,0,0-.16.592c-.1.05-.244.073-.311.154q-1.664,2.06-3.313,4.132c-.125.13-.261.252-.373.393-2.446,3.091-4.945,6.143-7.308,9.3-1.133,1.513-3.018,1.752-4.215-.27-1.795-3.03-3.693-6-5.548-8.993a2.287,2.287,0,0,1,.5-3.2,2.257,2.257,0,0,1,3.223.965q1.824,2.963,3.665,5.916c.538.863.556.869,1.2.053q4.012-5.06,8.006-10.135c.284-.362.774-.631.692-1.21a7.85,7.85,0,0,0,2.348-2.885,3.455,3.455,0,0,0,1.265-1.465,3.077,3.077,0,0,1,2.019-1.037,2.173,2.173,0,0,1,1.891,3.161c-.136.264-.314.507-.473.759" transform="translate(10.005 10434.19)" fill="#9bb480"/>
  </g>
</svg>
