<svg xmlns="http://www.w3.org/2000/svg" xmlns:xlink="http://www.w3.org/1999/xlink" width="114.941" height="91.461" viewBox="0 0 114.941 91.461">
  <defs>
    <clipPath id="clip-path">
      <rect id="Rectangle_1703" data-name="Rectangle 1703" width="114.941" height="91.461" transform="translate(0 0)" fill="none"/>
    </clipPath>
  </defs>
  <g id="Group_1078" data-name="Group 1078" transform="translate(-179 8)">
    <g id="Group_562" data-name="Group 562" transform="translate(179 -8)" clip-path="url(#clip-path)">
      <path id="Path_4855" data-name="Path 4855" d="M25.243,19.166c.485-1.627,1.655-2.867,2.508-4.275A34.152,34.152,0,0,1,33.59,7.554a26.579,26.579,0,0,1,7.949-4.947C45.448.961,49.462-.229,53.793.037a26.558,26.558,0,0,1,7.155,1.55A29.809,29.809,0,0,1,68.8,5.924c1.37,1.008,2.546,2.28,4.008,3.192a23,23,0,0,0,8.443,2.971c2.228.386,4.474.659,6.705,1a51.5,51.5,0,0,1,6.526,1.325,17.341,17.341,0,0,1,6.44,3.647,21.68,21.68,0,0,1,5.586,7.49,41.035,41.035,0,0,1,2.328,6.432,36.325,36.325,0,0,1,.791,6.476,20.677,20.677,0,0,1-.4,5.33,30.393,30.393,0,0,1-3.761,10.439A37.712,37.712,0,0,1,96.2,65.183c-.847.649-1.49,1.682-2.705,1.8q-.057-2.148-.115-4.3c.2-.469.853-.86.256-1.468.006-.166.011-.333.017-.5a3.764,3.764,0,0,0,2.621.492.638.638,0,0,0,.678-.542.8.8,0,0,0-.428-.888c-.539-.346-1.163-.147-1.752-.311.1-.468.2-.92.3-1.371,1.111-.094,2.172.4,3.292.266.422-.051.8-.059.789-.629-.008-.529-.254-.828-.784-.83a3.914,3.914,0,0,0-1.638.1c-.876.434-.681-.136-.7-.579.117-.022.321-.017.337-.069.642-2.131,2.364-1.9,4.009-1.855.552.016.972-.182.911-.818-.059-.609-.428-.849-1.06-.874a3.326,3.326,0,0,0-2.148.812,7.722,7.722,0,0,0,.6-1.753c.062-1.434.5-2.318,2.171-1.972a2.668,2.668,0,0,0,1.043-.2c.466-.112.85-.376.791-.887-.055-.483-.439-.717-.931-.767a3.167,3.167,0,0,0-1.889.639c-.216.12-.461.482-.67.052-.412-.852-1.421-1.048-1.911-1.819a.724.724,0,0,0-1.148-.138.9.9,0,0,0-.129,1.2,3.761,3.761,0,0,0,1.388,1.28c1.353.893,1.35,2.4-.022,3.45a9.127,9.127,0,0,0-.358-1c-.22-.45-.346-1.016-1.022-1.027-.332-.005-.665.012-.812.365a1.255,1.255,0,0,0,.328,1.537c1.641,1.079,1.533,2.319.54,3.732-.02.028-.009.078-.012.118-.576-.026-.323-.451-.423-.754-.225-.682-.331-1.568-1.125-1.819-.611-.193-.795.5-1.066.913l.438-3.857v-.248a1.906,1.906,0,0,0,.008-.227c-.158-.562.419-1.327-.467-1.688-.011-1.592-1.341-1.862-2.4-2.4,0-.324,0-.649,0-.974a1.062,1.062,0,0,0,.826-.579,2.03,2.03,0,0,0-1.393-3.143c-1.648-.39-2.073-.2-2.007,1.231-.038.894-.281,1.81.517,2.566.176.166.1.6.14.906-1.3.622-2.61,1.213-3.884,1.88-.5.264-1.168.348-1.408,1-.131-.076-.36-.134-.378-.231a13.648,13.648,0,0,0-1.67-3.674c-.878-1.733-2.241-3.288-1.981-5.457.047-.4-.425-.154-.665-.172l-.955-1.923c.425-.178,1.142.276,1.262-.53.054-.365.213-1.031-.193-1.073-1.4-.146-.883-1.148-.906-1.852-.053-1.554-.017-3.11-.019-4.666,0-2.28-.657-2.935-2.9-2.938Q69.688,26.7,64,26.677c.005-1.876.028-3.753.008-5.629-.014-1.257-.514-1.8-1.714-1.807-3.314-.015-6.627.013-9.94.024-.459-.519-1.5-.022-1.7-.8-.281-1.093-.986-1.212-1.894-1.175-.717.029-1.438-.026-2.153.015s-1.112-.052-1.265-.947a3.857,3.857,0,0,0-3.532-3.074c-1.642-.152-3.523.747-3.9,2.357-.4,1.745-1.423,1.757-2.734,1.661-.516-.038-1.037,0-1.555,0-.382,0-.89.1-.922.415-.127,1.235-1.211,1.132-1.938,1.527l-5.528-.075m62.376,4.64c-.4-.17-.173-1.048-.556-.845a3.258,3.258,0,0,0-1.231,1.232c-.2.382.675.157.846.553.029.289-.09.706.4.667.382-.03.28-.4.311-.651l.246-.244c.255-.032.621.07.651-.312.038-.489-.379-.371-.667-.4m13.566,16.606c.783-.9,1.522-1.9,3.028-1.337a4.03,4.03,0,0,0,1.547.058c.6-.031,1.167-.217,1.037-.985-.121-.709-.526-.924-1.3-.774a12.4,12.4,0,0,0-5.164,2.72c0-.733.025-1.278-.007-1.82-.038-.652-.387-1.1-1.069-1a.944.944,0,0,0-.785,1.256,2.485,2.485,0,0,0,.511,1.195c.767.79.532,1.571.174,2.409-.174.406-.328.9-.746,1.019-.58.17-.416-.553-.712-.785-.456-.357-.726-1.249-1.513-.573-.766.659-.176,1.221.274,1.72a3.891,3.891,0,0,0,.855.642,3.242,3.242,0,0,1,1.594,1.815c.225-.783.678-.843,1.228-.85a5.55,5.55,0,0,0,1.514-.291c.519-.158,1.022-.444.808-1.107-.205-.63-.64-.768-1.328-.577s-1.168.8-1.906.893c-.061-1.89.831-2.681,2.43-2.174a4.621,4.621,0,0,0,1.537.148.919.919,0,0,0,.907-.661c.15-.473-.231-.709-.555-.953-.789-.59-1.52.034-2.356.009m-12.7-11.993c1.207-.023,1.389.869,1.753,1.951.164-1.268.689-1.853,1.759-1.961a1.839,1.839,0,0,1-1.84-1.629,1.7,1.7,0,0,1-1.672,1.639" fill="rgba(180,166,128,0.3)"/>
      <path id="Path_4856" data-name="Path 4856" d="M98.666,80.408a44.436,44.436,0,0,1,6.243.823,48.107,48.107,0,0,1,7.718,1.841,5.085,5.085,0,0,1,1.7.824c.946.745.782,1.707-.343,2.243a25.434,25.434,0,0,1-6.625,2c-2.068.363-4.127.77-6.217.993-2.679.287-5.333.755-8.036.9-3.881.205-7.749.663-11.629.894-3.58.214-7.176.167-10.755.324-7.7.338-15.407.167-23.108.163-4.975,0-9.96-.155-14.922-.494-4.389-.3-8.777-.681-13.161-1.1-4.621-.448-9.2-1.142-13.755-1.974a18.1,18.1,0,0,1-4.892-1.7c-1.129-.57-1.139-1.272-.229-2.151A7.59,7.59,0,0,1,4.2,82.38c3.328-.9,6.759-1.3,10.142-1.935a9.246,9.246,0,0,1,1.555-.035q.006,1.45.013,2.9c-.646,1.11-.3,2.23-.125,3.543.6-1.3.618-1.318,1.526-.278a1.774,1.774,0,0,0,1.288.5c.28.03.685.215.849-.153s-.214-.564-.439-.756a4.142,4.142,0,0,1-1.684-2.629,11.692,11.692,0,0,1,1.659-5.273c.01.594.031,1.187.029,1.781-.012,3.436-.013,3.436,3.462,3.5a5.31,5.31,0,0,0,.124,3.575c.474-1.42.486-1.431,1.439-.393a1.392,1.392,0,0,0,1.065.436c.384.012.913.24,1.1-.151.222-.456-.357-.623-.633-.868-.8-.708-1.638-1.382-1.539-2.614l13.208-.018a2.614,2.614,0,0,0,2.3.971c3.576.017,7.151,0,10.727.011a2.258,2.258,0,0,0,1.147-.247c.954,2.231,2.083,2.753,4.411,2.043,1.02-.311,2.044-.611,3.063-.928.38-.117.749-.293,1.122.007a1.9,1.9,0,0,0,1.435,2.275,10.543,10.543,0,0,0,5.509.508c2.992-.5,3.34-.845,3.454-3.815,2.034-.018,4.068-.07,6.1-.036a1.94,1.94,0,0,0,1.958-1.065c.179.26.454.258.732.3a3.863,3.863,0,0,0,3.779-1.278,22.381,22.381,0,0,1,2.56-.069c.947.075,1.3-.222,1.046-1.156a2.424,2.424,0,0,1,.483-1.178.163.163,0,0,1,.076-.161c2.031-.572,4.045.115,6.065.164.447.011,1.3-.348,1.66.444-.326.536-1.051.915-.671,1.807a13.819,13.819,0,0,0,3.128-1.7h1.341" fill="#dfd7cc"/>
      <path id="Path_4857" data-name="Path 4857" d="M16.637,65.777c-1.554-.577-2.268-2.03-3.26-3.177a26.867,26.867,0,0,1-4.832-8.629A22.584,22.584,0,0,1,7,46.419c0-2.947-.129-5.908.769-8.755a17.375,17.375,0,0,1,3.462-6.011c1.623-1.912,3.868-2.974,5.731-4.545.658-.556,1.332-1.094,2-1.64.014,1.152.035,2.3.04,3.457q.033,7.75.059,15.5a2.388,2.388,0,0,0-.578,1.415,3.375,3.375,0,0,1-1.735,3.3,1.447,1.447,0,0,0-.56,1.889c.165.5.363.99-.074,1.454-.711.487-1.257.262-1.792-.338-.492-.55-1.067-1.027-1.605-1.536-.13-.373-.289-.739-.384-1.121-.1-.416-.06-.941-.677-.939s-.444.634-.668.944a9.87,9.87,0,0,0-1.116-.7.677.677,0,0,0-.783.093c-.246.268-.015.5.134.735.519.816,1.04,1.621,2.189,1.537a8.689,8.689,0,0,0,2.6,4.281,1.7,1.7,0,0,0,2.552-.069l.776.092a19.308,19.308,0,0,1-.631,5.393c-.149.684-.232,1.33.433,1.809a14.706,14.706,0,0,1-.509,3.1" fill="#dfd7cc"/>
      <path id="Path_4858" data-name="Path 4858" d="M87.143,79.693a.158.158,0,0,0-.075.161l-1.624.158c-1.034-.352-.452-1.347-.786-1.976q-.069-.416-.139-.829l.045-.07-.059-.07c-.011-.166-.021-.333-.031-.5l-.036-.465q-.072-.4-.145-.8l.042-.087-.065-.08A10.171,10.171,0,0,0,84,72.745a19.345,19.345,0,0,1,.271-7.593c.237-.8.363-1.63.54-2.447l.655-.093c.278-.02.643.262.785-.228.028-.151.057-.3.085-.454.014-.236.028-.471.041-.707q.148-1.314.3-2.627c.328-.026.644-.751.986-.017,0,.081,0,.162,0,.243l-.066.839c-.032.111-.064.222-.1.333l-.072,1.224c-.062,1.707.368,2.153,2.12,2.2a4.118,4.118,0,0,0,1.958-.173l1.872-.555q.057,2.148.115,4.3a6.82,6.82,0,0,0,1.148,4.476c.27.432.519.877.778,1.316q.593,2.249,1.184,4.5c.151.574.4,1.137-.464,1.434-.763.261-1.247.305-1.738-.554-1.555-2.722-3.229-5.376-4.857-8.057a5.225,5.225,0,0,0-.84-2.633c-.385,1.284-1.53,2.029-1.06,3.355a81.732,81.732,0,0,1-.5,8.876" fill="#d1c4b8"/>
      <path id="Path_4859" data-name="Path 4859" d="M16.637,65.777a14.706,14.706,0,0,0,.509-3.1,68.445,68.445,0,0,1,7.386.225q.377,1.557.754,3.115.114.483.229.966a.257.257,0,0,0,.021.229.43.43,0,0,0,.139.478l.564,2.887c.05,1.184.451,2.452-.8,3.319a.163.163,0,0,0-.185.062,23.455,23.455,0,0,0-3.373.124,1.4,1.4,0,0,0-.932.033l-3.814-.225c-.972-.245-1.1-.973-1.11-1.828-.025-2.118.514-4.178.616-6.281" fill="rgba(112,82,37,0.26)"/>
      <path id="Path_4860" data-name="Path 4860" d="M87.143,79.693a81.732,81.732,0,0,0,.5-8.876c.665-.157,1.185-.7,1.9-.722,1.628,2.681,3.3,5.335,4.857,8.057.491.859.975.815,1.738.554.867-.3.615-.86.464-1.434q-.591-2.249-1.184-4.5c1.277-.05,1.813.171,1.655,1.955-.1,1.084.222,2.152.053,3.249a1.072,1.072,0,0,0,.763,1.092,1.24,1.24,0,0,1,.777,1.337H97.325c-.6-1.318-1.173-1.343-2.457-.107-.358-.793-1.213-.434-1.661-.445-2.02-.049-4.034-.736-6.064-.163" fill="#fbfbfc"/>
      <path id="Path_4861" data-name="Path 4861" d="M19.063,44.428q-.028-7.752-.059-15.5c0-1.152-.026-2.3-.04-3.456q0-2.276,0-4.55c0-.159.007-.319.01-.478a.324.324,0,0,0,.046-.217.582.582,0,0,0,.262-.5l.934-.505.117.016.109-.046,3.6,0h.242l.949-.02,5.528.075,0,1.184q-4.427.008-8.854.019c-1.282,0-1.694.374-1.694,1.6q0,11.067.023,22.133a1.858,1.858,0,0,1-1.186.248" fill="rgba(112,82,37,0.69)"/>
      <path id="Path_4862" data-name="Path 4862" d="M17.131,73.886l3.814.226c-.171.742-.909,1.1-1.2,1.761,0,.878-.765,1.514-.766,2.394a11.7,11.7,0,0,0-1.659,5.272l-1.415-.23q-.006-1.449-.013-2.9a18.162,18.162,0,0,1,1.239-6.525" fill="#f5ccce"/>
      <path id="Path_4863" data-name="Path 4863" d="M18.98,20.44c0,.16-.007.319-.01.479-.2-.164-.206-.324.01-.479" fill="#daedfc"/>
      <path id="Path_4864" data-name="Path 4864" d="M19.288,19.725a.588.588,0,0,1-.262.5.429.429,0,0,1,.262-.5" fill="#daedfc"/>
      <path id="Path_4865" data-name="Path 4865" d="M24.294,19.186h-.241c.08-.113.16-.112.241,0" fill="#daedfc"/>
      <path id="Path_4866" data-name="Path 4866" d="M20.447,19.19l-.109.046-.117-.016c.06-.126.134-.147.226-.03" fill="#daedfc"/>
      <path id="Path_4867" data-name="Path 4867" d="M64,26.677q5.685.02,11.368.037c2.242,0,2.9.658,2.9,2.938,0,1.555-.034,3.112.019,4.666.023.7-.5,1.706.906,1.852.406.042.247.708.193,1.073-.12.806-.837.352-1.261.53-.631-.7-1.261.084-1.893,0L56.43,37.759c-.633-.18-1.355.235-1.935-.293.126-.472-.084-1,.249-1.438l.018-.008L55,35.995c.677.159,1.081.016.969-.8-.058-.431-.037-.873-.052-1.311,0-.244,0-.489.008-.733l-.009-2.388c0-.163,0-.327,0-.49.017-.279.045-.557.049-.836.028-2.038.7-2.695,2.765-2.712.839-.007,1.677-.036,2.515-.055l1.482.012H64m10.428,4.8c0,.837-.008,1.673,0,2.51.005.38-.08.924.455.924.4,0,.438-.563.447-.865.05-1.712.038-3.425.037-5.138,0-.328-.064-.7-.493-.667-.408.029-.442.4-.445.726-.007.836,0,1.673,0,2.51M59.554,31.6h-.005c0-.916.007-1.833,0-2.749,0-.29-.092-.575-.437-.615a.42.42,0,0,0-.467.438,35.535,35.535,0,0,0,.11,5.716c.037.227.044.649.461.539.308-.081.341-.409.341-.7q0-1.316,0-2.631m6.967.106c0,.835,0,1.67,0,2.505,0,.323.024.714.427.736.5.027.512-.408.513-.768q.011-2.563,0-5.128c0-.331-.033-.67-.487-.656s-.454.363-.456.687c-.005.874,0,1.749,0,2.624m4.8-.058c0-.753.022-1.507-.009-2.259-.015-.386.2-1-.5-.976-.608.016-.422.569-.43.924-.023.991-.016,1.982-.006,2.973.007.633.012,1.267.076,1.9.026.256.149.584.5.57.393-.017.36-.362.364-.629.01-.833,0-1.665.006-2.5m-7.915,0c0-.876.006-1.752,0-2.627,0-.274,0-.614-.4-.59-.312.019-.32.309-.321.546q-.006,2.628,0,5.255c0,.241.027.529.336.533.4.006.381-.337.384-.609.009-.836,0-1.672,0-2.508" fill="#b5a68e"/>
      <path id="Path_4868" data-name="Path 4868" d="M30.774,20.425l0-1.184c.727-.395,1.811-.292,1.938-1.527.032-.312.54-.418.921-.415.519,0,1.04-.034,1.556,0,1.311.1,2.329.084,2.734-1.661.374-1.61,2.255-2.509,3.9-2.357a3.858,3.858,0,0,1,3.532,3.074c.152.9.546.989,1.264.947s1.437.014,2.154-.015c.908-.037,1.613.082,1.894,1.175.2.777,1.238.28,1.7.8q0,.563,0,1.125l-.338.248-.395.035c-.648-.645-1.279.021-1.919.023l.008.005c-.058-.128-.1-.351-.178-.366-.268-.052-.249.2-.285.369l-15.6-.011c.021-.138.094-.428,0-.388-.542.237-1.2-.073-1.681.39l-.459,0a.529.529,0,0,0-.189-.032ZM42.457,15.53c-.091-.427-.284-.847-.88-.869a.83.83,0,0,0-.978.813A.876.876,0,0,0,41.5,16.5c.576.04.843-.362.953-.974" fill="rgba(112,82,37,0.69)"/>
      <path id="Path_4869" data-name="Path 4869" d="M83.775,49.231c.241-.65.907-.735,1.409-1,1.273-.668,2.586-1.259,3.884-1.88.208.1.239.3.26.5a21.24,21.24,0,0,0-1.285,4.513c1.553-1.318,1.7-2.935,1.934-4.517.426.013.666-.347,1.009-.5,1.065.536,2.394.806,2.4,2.4.238.945-.411,1.622-.722,2.4l0,0a.468.468,0,0,0-.238.476l0,0a8.2,8.2,0,0,0-2.875,2.634l-.006.007a1.975,1.975,0,0,0-1.456.51l-.674.025a.577.577,0,0,0-.986-.065l-.48.006c-.4-.429-.54-.014-.733.227l-.438.052c-.351-.186-.705-.469-1.04.024l-.674-.056c.165-.915-.322-1.9.3-2.765a2.758,2.758,0,0,1,.6.367c.333.344.709.435,1.04.111.3-.294-.034-.578-.194-.834-.249-.4-.513-.787-.771-1.179l-.264-1.46" fill="#fbfbfc"/>
      <path id="Path_4870" data-name="Path 4870" d="M87.6,59.661l.066-.839c1.482.442,2.072-.009,1.9-1.467a23.48,23.48,0,0,1-.019-2.614c0-.158,0-.316,0-.473l.007-.007a4.98,4.98,0,0,0,2.874-2.634l0,0a.468.468,0,0,0,.238-.476l0,0,.715-.241.466,0-.438,3.856c0,.145,0,.291,0,.436-.011.168-.022.336-.032.5a2.606,2.606,0,0,0,0,3.119c.016.251.031.5.047.752l.222,1.145-.018.5c-1.019.347-2.429.285-2.127,2.022a4.12,4.12,0,0,1-1.958.173c-.026-1.644-.545-2.182-2.12-2.195l.072-1.224c.032-.112.065-.223.1-.334" fill="#fefefe"/>
      <path id="Path_4871" data-name="Path 4871" d="M101.185,40.412c.836.024,1.567-.6,2.355-.009.326.244.705.479.556.953a.92.92,0,0,1-.907.661,4.647,4.647,0,0,1-1.537-.148c-1.6-.507-2.491.284-2.43,2.174.737-.09,1.217-.7,1.9-.893s1.124-.053,1.328.577c.214.663-.289.949-.807,1.107a5.55,5.55,0,0,1-1.515.291c-.55.007-1,.067-1.228.85a3.234,3.234,0,0,0-1.593-1.815,3.928,3.928,0,0,1-.856-.642c-.449-.5-1.04-1.061-.274-1.72.787-.676,1.059.216,1.513.573.3.232.132.954.714.785.417-.122.57-.613.744-1.019.358-.838.594-1.62-.174-2.409a2.5,2.5,0,0,1-.511-1.195.944.944,0,0,1,.787-1.256c.681-.1,1.03.345,1.067,1,.032.542.007,1.088.007,1.821a12.42,12.42,0,0,1,5.164-2.72c.778-.15,1.182.065,1.3.774.13.768-.435.953-1.037.985a4.024,4.024,0,0,1-1.546-.058c-1.507-.56-2.247.433-3.029,1.337" fill="rgba(240,219,219,0.32)"/>
      <path id="Path_4872" data-name="Path 4872" d="M96.027,56.423c0-.04-.008-.09.012-.118.993-1.413,1.1-2.653-.54-3.732a1.254,1.254,0,0,1-.328-1.537c.147-.353.48-.37.812-.365.675.012.8.578,1.022,1.027a9.2,9.2,0,0,1,.358,1c1.372-1.046,1.375-2.556.022-3.449A3.772,3.772,0,0,1,96,47.969a.9.9,0,0,1,.129-1.2.725.725,0,0,1,1.148.138c.49.772,1.5.967,1.911,1.819.209.43.454.069.67-.052a3.173,3.173,0,0,1,1.888-.639c.492.051.877.284.932.767.059.511-.325.775-.791.888a2.688,2.688,0,0,1-1.043.2c-1.671-.345-2.109.538-2.171,1.972a7.773,7.773,0,0,1-.6,1.753,3.326,3.326,0,0,1,2.148-.812c.632.025,1,.266,1.06.874.061.636-.359.834-.912.818-1.644-.047-3.366-.276-4.008,1.855-.016.052-.221.047-.337.069l0,0" fill="rgba(240,219,219,0.32)"/>
      <path id="Path_4873" data-name="Path 4873" d="M52.355,20.39c0-.375,0-.75,0-1.125,3.313-.011,6.626-.039,9.94-.024,1.2.005,1.7.55,1.714,1.807.02,1.876,0,3.753-.008,5.629H62.72c0-1.43.007-2.859,0-4.289-.01-1.749-.216-1.945-2.026-1.956q-4.168-.024-8.338-.043" fill="rgba(112,82,37,0.69)"/>
      <path id="Path_4874" data-name="Path 4874" d="M83.775,49.231l.264,1.46-.375.033c-.247-.221-.725-.122-.828-.51-.759-2.879-2.4-5.378-3.5-8.111-.153-.382-.437-1.018-1.038-.7a.989.989,0,0,0-.339,1.254c.371,1.165.766,2.328,1.043,3.517.454,1.952,1.412,3.756,1.669,5.762l-.667.479c-.79-2.546-1.625-5.078-2.347-7.642a14.118,14.118,0,0,1-.812-3.7c.305.014.6,0,.768-.315l.034.049.4-.048c-.039-.08-.079-.161-.118-.242a.643.643,0,0,1,.688-.173l.39-.253c.024-.129.047-.258.071-.388.241.019.712-.222.665.172-.259,2.17,1.1,3.724,1.982,5.457A13.716,13.716,0,0,1,83.4,49c.017.1.246.155.377.231" fill="#e6ba95"/>
      <path id="Path_4875" data-name="Path 4875" d="M93.414,55.2c0-.145,0-.291,0-.436.271-.414.454-1.1,1.066-.912.794.251.9,1.136,1.125,1.818.1.3-.153.728.423.754l0,0c.016.444-.179,1.013.7.579a3.916,3.916,0,0,1,1.638-.094c.53,0,.777.3.785.83.008.569-.368.577-.79.629-1.119.136-2.181-.361-3.292-.267l.006.006c0-1.283-1.108-1.934-1.655-2.9" fill="rgba(240,219,219,0.32)"/>
      <path id="Path_4876" data-name="Path 4876" d="M89.329,46.849c-.021-.2-.052-.4-.261-.5-.04-.309.036-.74-.14-.906-.8-.756-.555-1.672-.517-2.566.562-.5,1.4-.718,1.727-.115.272.5.641.549.923.823.422.409-.523.916-.285,1.5a1.3,1.3,0,0,0,.209.278c0,.325,0,.65,0,.974-.343.154-.584.514-1.009.5l-.649,0" fill="#f5ccce"/>
      <path id="Path_4877" data-name="Path 4877" d="M79.082,39.7c-.024.129-.047.259-.071.388l-.39.253a.639.639,0,0,0-.688.173c-.093.1-.187.193-.281.29l-.035-.049-.781.106a4.707,4.707,0,0,1-.789-2.659l.189-.423c.631.083,1.261-.7,1.892,0l.954,1.923" fill="rgba(112,82,37,0.69)"/>
      <path id="Path_4878" data-name="Path 4878" d="M90.985,45.371a1.359,1.359,0,0,1-.21-.277c-.238-.589.707-1.1.286-1.506-.282-.273-.651-.319-.923-.823-.325-.6-1.166-.387-1.728.115-.066-1.433.36-1.621,2.007-1.231a2.031,2.031,0,0,1,1.394,3.143,1.061,1.061,0,0,1-.826.579" fill="#b4a680"/>
      <path id="Path_4879" data-name="Path 4879" d="M93.65,60.718q-.111-.573-.223-1.145c.68-.342.715-1.405,1.643-1.469l-.007-.006c-.1.451-.194.9-.3,1.37.59.164,1.214-.034,1.753.311a.8.8,0,0,1,.428.889.638.638,0,0,1-.678.542,3.769,3.769,0,0,1-2.621-.492" fill="rgba(240,219,219,0.32)"/>
      <path id="Path_4880" data-name="Path 4880" d="M88.481,28.419a1.7,1.7,0,0,0,1.672-1.639,1.839,1.839,0,0,0,1.84,1.629c-1.07.108-1.595.693-1.759,1.961-.364-1.082-.546-1.974-1.753-1.951" fill="rgba(240,219,219,0.32)"/>
      <path id="Path_4881" data-name="Path 4881" d="M91.5,63.241c-.3-1.737,1.108-1.675,2.128-2.022.6.608-.054,1-.256,1.467l-1.872.555" fill="#fbfbfc"/>
      <path id="Path_4883" data-name="Path 4883" d="M93.385,50.9l-.715.241c.311-.779.96-1.457.722-2.4.886.361.309,1.126.467,1.688-.076,0-.153,0-.229,0a.486.486,0,0,0-.245.473" fill="#fff"/>
      <path id="Path_4886" data-name="Path 4886" d="M93.385,50.9a.486.486,0,0,1,.245-.473l.221.228v.248l-.466,0" fill="#fbfbfc"/>
      <path id="Path_4887" data-name="Path 4887" d="M93.851,50.659l-.222-.229c.077,0,.154,0,.23,0a1.913,1.913,0,0,1-.008.227" fill="#fefefe"/>
      <path id="Path_4888" data-name="Path 4888" d="M30.774,20.425l.542.235.19.031.459,0c.724.178.556.765.564,1.257.017,1.028.423,1.707,1.546,1.708q7.369.01,14.739,0c1.052,0,1.741-.506,1.609-1.6-.122-1.011.308-1.349,1.2-1.385l.395-.035c2.78.014,5.56.062,8.339.021.9-.013,1.119.277,1.153,1.153.063,1.634-.315,3.23-.271,4.854-.838.019-1.677.048-2.515.055-2.064.017-2.737.674-2.766,2.712,0,.279-.031.557-.048.836H43.167c0,.164,0,.327.005.491H55.913q0,1.193.008,2.387a5.288,5.288,0,0,1-1.762.251q-4.917-.024-9.835,0c-.394,0-.842-.13-1.152.484H55.914a13,13,0,0,0,.052,1.311c.111.82-.292.962-.969.8-.093-.126-.17-.109-.235.025l-.018.008a4.34,4.34,0,0,1-1.669.379c-2.492-.306-5-.073-7.507-.129-.323-.008-.749.022-.738.409.013.462.485.3.765.3,2.508.014,5.016.012,7.524.007.519,0,1.048-.062,1.376.475.579.528,1.3.114,1.934.293a2.249,2.249,0,0,1-.668,1.23c-1.42,1.621-2.485,3.243-2.268,5.677.3,3.353.093,6.751.1,10.13q-.01.564-.022,1.127c.007.187.014.374.02.561q0,7.627,0,15.255c0,.262,0,.523,0,.785a1.182,1.182,0,0,0-.024.2l-.036.293.111,7.788-1.773,1.046c-.122-.374.116-.7.15-1.048a2.186,2.186,0,0,0-1.917-2.322A2.1,2.1,0,0,0,47.563,80.5a2.063,2.063,0,0,0,1.964,2.356c.814.1,1.4-.444,2.125-.53q-.12.96-.239,1.92a2.255,2.255,0,0,1-1.147.247c-3.575-.007-7.151.006-10.726-.011a2.615,2.615,0,0,1-2.3-.972c-.011-.268-.023-.537-.034-.806.352-3.422-.2-6.832-.142-10.261.06-3.619.121-7.26-.023-10.894-.14-3.519-.044-7.048-.025-10.573.01-1.944.217-3.9.071-5.83-.154-2.024.408-2.876,2.377-2.876,3.757,0,7.514,0,11.272-.009.28,0,.757.165.765-.3.008-.383-.422-.4-.747-.407-.24,0-.48,0-.72,0-3.8,0-7.6.028-11.392-.011-2.108-.022-2.625.9-2.617,2.612.05,10.63.008,21.262.053,31.893a1.79,1.79,0,0,1-1.221,1.922A39.577,39.577,0,0,1,24.54,80.65c.057-2.251.9-4.419.71-6.7a.162.162,0,0,1,.185-.062c.551.53.246,1.206.281,1.813.046.8.373,1.312,1.188,1.335,1.393.038,2.788.007,4.182.011.587,0,.826-.279.9-.867a15.609,15.609,0,0,0,.009-4.486c-.11-.656-.4-.805-1-.907a31.5,31.5,0,0,0-4.754-.218l-.564-2.888c.508.054.818.554,1.414.511,1.109-.08,2.228-.03,3.342-.021a1.554,1.554,0,0,0,1.73-1.57,17.589,17.589,0,0,0-.1-3.679,1.251,1.251,0,0,0-1.414-1.213c-1.114-.04-2.233.044-3.343-.027-1.172-.075-1.583.5-1.576,1.557a5.2,5.2,0,0,1-.443,2.77q-.376-1.557-.754-3.115a1.471,1.471,0,0,0,.1-1.247,13.367,13.367,0,0,1-.509-2.313A7,7,0,0,1,24,56.015l1.489,1.379c.015.208.053.4.325.4l0-.018c-.195.758.247,1.487.819,1.443,1.316-.1,2.61.292,3.9.056a1.538,1.538,0,0,0,1.5-1.371c.234-1.237-.075-2.448.155-3.652a3.314,3.314,0,0,0,1.868-1.86c.065-.21.236-.649-.268-.568-.752.122-1.518.916-2.207-.151-.061-.094-.369.088-.46.279-.134.285-.244.582-.364.874-1.6.121-3.238-.286-4.819.259-1.05-1.038-1.74-2.479-3.3-2.945-.058-.3-.117-.6-.176-.9,1.441-.495,1.05-1.69,1.046-2.737.028-.115.054-.231.084-.346a1.988,1.988,0,0,0-.661-2.237,1.5,1.5,0,0,0-2.127.173c-.118.1-.37.058-.56.082q-.015-11.067-.024-22.133c0-1.229.412-1.6,1.695-1.6q4.427-.018,8.853-.019M45.152,52.572l-.24.223H37.995a41.717,41.717,0,0,0,6.215.26c.725-.012.984.22.967.959-.043,1.838-.061,3.679.005,5.515.034.934-.225,1.252-1.2,1.214-2-.079-4.011-.024-6.016-.024a33.71,33.71,0,0,0,5.968.247c1.037-.044,1.289.321,1.249,1.291-.071,1.716-.06,3.438,0,5.155.029.886-.154,1.288-1.168,1.249-2.085-.081-4.175-.024-6.263-.024a42.8,42.8,0,0,0,6.327.249c.815-.018,1.134.2,1.106,1.067q-.09,2.694,0,5.394c.032.917-.2,1.271-1.191,1.233-2.007-.077-4.019-.023-6.028-.023a37.809,37.809,0,0,0,6.086.24c.925-.03,1.161.291,1.133,1.166-.06,1.845-.018,3.693-.018,5.539-.026-1.74.672-3.437.293-5.2-.286-1.334-.075-1.478,1.334-1.48q3.034-.006,6.069,0a44.565,44.565,0,0,0-6.321-.249c-.827.014-1.148-.281-1.13-1.116.038-1.8.072-3.6-.011-5.394-.047-1.012.357-1.2,1.25-1.176,2.067.053,4.136.017,6.2.017a42.491,42.491,0,0,0-5.69-.257c-1.543,0-1.858-.21-1.706-1.776.154-1.6-.111-3.166-.065-4.751.026-.892.262-1.175,1.162-1.149,2.1.061,4.209.019,6.314.019a41.214,41.214,0,0,0-6.2-.245c-.924.023-1.373-.263-1.246-1.226a28.547,28.547,0,0,0,0-3.791c0-2.655,0-2.655,2.6-2.654h4.812a52.05,52.05,0,0,0-6.21-.266c-.408,0-.906.148-.99-.543a21.667,21.667,0,0,1-.148-5.005,1.453,1.453,0,0,0-.336-1.311ZM31.225,27.128a5.991,5.991,0,1,0,6.02,5.812,5.916,5.916,0,0,0-6.02-5.812m-2.42,23.056c.678,0,1.355-.006,2.032,0a.958.958,0,0,0,1.082-.749,13.769,13.769,0,0,0,.013-4.954.626.626,0,0,0-.584-.514,20.056,20.056,0,0,0-2.121-.247c-3.431-.064-3.494.013-3.5,3.354s-.25,3.128,3.077,3.109M41.17,62.461a2.227,2.227,0,0,0-2.428,2.1,2.155,2.155,0,0,0,2.106,2.387,2.247,2.247,0,0,0,.322-4.482m8.663-3.372a2.181,2.181,0,1,0-.124-4.359A2.022,2.022,0,0,0,47.562,56.9a2.069,2.069,0,0,0,2.271,2.186m-2.275,5.666a2.25,2.25,0,0,0,2.2,2.2,2.627,2.627,0,0,0,2.267-2.305,2.316,2.316,0,0,0-2.368-2.188,2.175,2.175,0,0,0-2.1,2.291m2.087,5.1a2.926,2.926,0,0,0-2.792,2.658,3.319,3.319,0,0,0,2.7,3.02A3.085,3.085,0,0,0,52.6,72.306a2.738,2.738,0,0,0-2.955-2.454m.1-23.747a2.764,2.764,0,1,0-.1,5.526,2.767,2.767,0,1,0,.1-5.526M43.726,80.657a2.673,2.673,0,0,0-2.7-2.876A2.91,2.91,0,0,0,38.2,80.723a2.684,2.684,0,0,0,2.768,2.8,2.819,2.819,0,0,0,2.754-2.863M38.2,48.872a2.763,2.763,0,1,0,5.524-.1,2.985,2.985,0,0,0-2.817-2.832A2.979,2.979,0,0,0,38.2,48.872m2.645,10.675c1.8,0,2.868-.969,2.879-2.614a2.7,2.7,0,0,0-2.78-2.906A2.849,2.849,0,0,0,38.206,56.9a2.363,2.363,0,0,0,2.642,2.651M38.206,72.692a2.49,2.49,0,0,0,2.759,2.681,2.559,2.559,0,0,0,2.76-2.615,2.814,2.814,0,0,0-2.884-3.069,3.032,3.032,0,0,0-2.635,3m7.127-28.031c1.115,0,2.23,0,3.346,0,.319,0,.542-.13.535-.49-.005-.292-.167-.455-.454-.4-2.213.4-4.445.075-6.666.185-.256.013-.653-.087-.637.319.013.313.355.391.65.392q1.613,0,3.226,0" fill="#fbfbfc"/>
      <path id="Path_4889" data-name="Path 4889" d="M78.467,83.234A1.941,1.941,0,0,1,76.509,84.3c-2.033-.033-4.067.019-6.1.037a4.766,4.766,0,0,0-3.152-1.622c.112-.608.578-1.112.517-1.771l-.007-.02a.638.638,0,0,0,.142-.749,7.983,7.983,0,0,1-.582-4.018c.069-.9.075-1.8.109-2.707,0-.146.007-.292.01-.439,0-.174,0-.349,0-.523-.028-.167-.056-.335-.085-.5l.021-.088q.057-.911.113-1.821a5.183,5.183,0,0,1,2-1.947l6.835.044a3.937,3.937,0,0,1,2.182,3.6c0,.081,0,.162,0,.243l.054.416c-.247.189-.282.38,0,.573-.024.3-.049.607-.073.91l.005-.01c-.157.1-.131.214-.013.328q0,4.5,0,9m-9.8-6.6a4.217,4.217,0,0,0,4.176,4.2,4.312,4.312,0,0,0,4.214-4.193,4.128,4.128,0,0,0-4.276-4.191,4,4,0,0,0-4.114,4.185" fill="rgba(230,186,149,0.91)"/>
      <path id="Path_4890" data-name="Path 4890" d="M78.467,83.234l0-9,.012-.328,0,.01c.187-.631.784-.616,1.257-.795a7.247,7.247,0,0,1,2.156,0l.094.057.1-.048.755-.111c.491.338.77-.217,1.166-.278a10.113,10.113,0,0,1,.265,2.39.351.351,0,0,0,.024.166q.072.4.145.8c-.195.171-.173.325.035.466.01.166.021.332.031.5a.41.41,0,0,0,.015.139l.138.829c-.249.326-.05.949-.632,1.043-1.784.287-1.216,1.572-1.148,2.649.033.176.066.353.1.529A3.866,3.866,0,0,1,79.2,83.536c-.278-.044-.553-.042-.732-.3" fill="#fbfbfc"/>
      <path id="Path_4891" data-name="Path 4891" d="M51.414,84.245q.118-.96.238-1.92l-.013.014c.25-.083.293-.269.249-.5l-.011.015,1.772-1.046a32.663,32.663,0,0,0,5.478-1.678c.643-.136,1,.074,1.177.759.27,1.062.643,2.1.972,3.146q.135.64.271,1.281c-.34.6-1.383.173-1.537,1.049-.372-.3-.742-.124-1.122-.007-1.019.317-2.043.617-3.063.928-2.328.71-3.456.188-4.411-2.043" fill="#cfc9b8"/>
      <path id="Path_4892" data-name="Path 4892" d="M60.01,85.366c.153-.876,1.2-.447,1.536-1.049a4.8,4.8,0,0,0,1.285-.209c1.464-.5,2.948-.936,4.425-1.4a4.775,4.775,0,0,1,3.152,1.622c-.115,2.97-.462,3.319-3.454,3.815a10.527,10.527,0,0,1-5.51-.508,1.9,1.9,0,0,1-1.434-2.275" fill="#b7a388"/>
      <path id="Path_4893" data-name="Path 4893" d="M37.2,82.7c.012.269.023.537.035.806l-13.208.018.017.019a1.94,1.94,0,0,1,.245-1.253q5.829,0,11.659.01c.455,0,.973-.165,1.252.4" fill="rgba(112,82,37,0.69)"/>
      <path id="Path_4894" data-name="Path 4894" d="M18.979,78.266c0-.879.763-1.515.765-2.394.712-.041.465.507.473.834.027,1.151.009,2.3.008,3.455,0,1.825.311,2.133,2.146,2.12a1.794,1.794,0,0,1,.146,1.28l-.047-.018c-3.475-.06-3.473-.06-3.461-3.5,0-.593-.02-1.187-.03-1.78" fill="rgba(112,82,37,0.69)"/>
      <path id="Path_4895" data-name="Path 4895" d="M22.47,83.543l.047.018a3.525,3.525,0,0,0,1.53-.014l-.016-.02c-.1,1.233.741,1.906,1.539,2.615.276.245.854.412.632.867-.19.391-.72.163-1.1.151a1.385,1.385,0,0,1-1.065-.435c-.953-1.038-.965-1.027-1.439.392a5.313,5.313,0,0,1-.125-3.574" fill="rgba(112,82,37,0.85)"/>
      <path id="Path_4896" data-name="Path 4896" d="M15.9,83.309l1.415.23A4.142,4.142,0,0,0,19,86.168c.225.192.6.391.44.756s-.569.183-.849.153a1.772,1.772,0,0,1-1.288-.5c-.909-1.04-.924-1.027-1.527.278-.177-1.313-.521-2.433.125-3.543" fill="rgba(112,82,37,0.85)"/>
      <path id="Path_4897" data-name="Path 4897" d="M94.868,80.3c1.284-1.236,1.859-1.211,2.457.107a13.88,13.88,0,0,1-3.128,1.7c-.381-.892.344-1.272.671-1.807" fill="rgba(112,82,37,0.85)"/>
      <path id="Path_4898" data-name="Path 4898" d="M82.977,82.257c-.033-.176-.066-.353-.1-.529a5.628,5.628,0,0,1,2.346-.929c.463.023.954-.12,1.36.234.256.933-.1,1.231-1.045,1.155a22.4,22.4,0,0,0-2.561.069" fill="rgba(112,82,37,0.85)"/>
      <path id="Path_4899" data-name="Path 4899" d="M86.584,81.032c-.406-.354-.9-.21-1.361-.233.074-.263.147-.525.221-.787l1.624-.158a2.412,2.412,0,0,0-.484,1.178" fill="#f5ccce"/>
      <path id="Path_4900" data-name="Path 4900" d="M22.644,50.14c1.56.466,2.249,1.907,3.3,2.945.886,1.554.873,1.52,2.483.943.626-.224,1.189-.893,1.974-.426a1.391,1.391,0,0,0,.571.719c0,.26.011.521.017.781a1.918,1.918,0,0,0-1,1.014l0,0a10.644,10.644,0,0,0-2.338,1.734,2.715,2.715,0,0,1-1.822-.07l0,.019a.4.4,0,0,0-.324-.4L24,56.015a7.009,7.009,0,0,0,.119,3.323,13.275,13.275,0,0,0,.509,2.313,1.474,1.474,0,0,1-.1,1.247,68.17,68.17,0,0,0-7.385-.225c-.666-.48-.582-1.125-.433-1.81a19.3,19.3,0,0,0,.631-5.392,4.577,4.577,0,0,1,2.448-.068c1.065.256,2-.393,1.854-1.389a5.72,5.72,0,0,1,1-3.874" fill="rgba(112,82,37,0.85)"/>
      <path id="Path_4901" data-name="Path 4901" d="M22.644,50.14a5.72,5.72,0,0,0-1,3.874c.144,1-.789,1.645-1.854,1.389a4.577,4.577,0,0,0-2.448.068l-.776-.092a1.307,1.307,0,0,1-.663-2.107,1.154,1.154,0,0,0,.211-.783c.437-.465.239-.952.074-1.454a1.447,1.447,0,0,1,.56-1.889,3.377,3.377,0,0,0,1.735-3.3,2.388,2.388,0,0,1,.578-1.415,1.853,1.853,0,0,0,1.186-.248c.19-.023.442.023.561-.082a1.494,1.494,0,0,1,2.126-.173,1.986,1.986,0,0,1,.661,2.237c-.029.115-.056.231-.083.346a2.358,2.358,0,0,0-1.046,2.737c.059.3.117.6.176.9" fill="#b4a680"/>
      <path id="Path_4902" data-name="Path 4902" d="M16.116,52.489a1.146,1.146,0,0,1-.211.784,1.307,1.307,0,0,0,.664,2.106,1.7,1.7,0,0,1-2.553.069,8.689,8.689,0,0,1-2.6-4.281c.435-.184.783-.575,1.305-.552.538.509,1.113.986,1.605,1.537.536.6,1.081.824,1.792.337" fill="rgba(112,82,37,0.85)"/>
      <path id="Path_4903" data-name="Path 4903" d="M84,72.745c-.4.061-.675.616-1.166.278-.008-.169-.015-.338-.022-.506l-.229-.276c0-.063,0-.126-.01-.189l.242-.3c.012-2.82.1-5.642,0-8.457-.042-1.173.454-2.367-.555-3.592a5.974,5.974,0,0,1-.8-3.04l.812-.175c.186.538.191,1.259.951,1.325a2.273,2.273,0,0,0,2.494-2.174,5.48,5.48,0,0,1,.233-.9l.48-.005c0,.162.007.325.01.488.218.307.155.759.514.994.075.6.1,1.228.887,1.359.014.346.119.709-.178,1-.342-.735-.658-.009-.986.017-.107-.146-.05-.665-.211-.445-.522.717-1.25.455-1.883.625-.295.079-.748-.094-.851.494,1.076-.074,1.069.269.663,1.169-.3.674-1.386,1.844.42,2.266-.177.817-.3,1.648-.54,2.447A19.345,19.345,0,0,0,84,72.745" fill="rgba(230,186,149,0.19)"/>
      <path id="Path_4904" data-name="Path 4904" d="M84.816,62.706c-1.806-.422-.723-1.593-.419-2.266.4-.9.412-1.244-.664-1.169.1-.589.556-.415.851-.494.633-.171,1.361.091,1.883-.625.161-.22.1.3.211.445q-.147,1.313-.295,2.627a.45.45,0,0,0-.042.706l-.084.455c-.267.059-.576-.028-.786.228l-.655.093" fill="#fbfbfc"/>
      <path id="Path_4905" data-name="Path 4905" d="M87.664,58.579c.3-.291.191-.653.178-1q.211-1.287.424-2.576l1.282-.262a23.026,23.026,0,0,0,.019,2.615c.167,1.457-.422,1.908-1.9,1.466,0-.081,0-.162,0-.243" fill="#fbfbfc"/>
      <path id="Path_4906" data-name="Path 4906" d="M85.444,80.012c-.074.262-.147.525-.221.787a5.6,5.6,0,0,0-2.345.929c-.068-1.077-.636-2.363,1.148-2.65.582-.093.383-.716.632-1.042.335.63-.248,1.624.786,1.976" fill="#f8ede3"/>
      <path id="Path_4907" data-name="Path 4907" d="M89.543,70.1c-.715.025-1.235.565-1.9.722-.471-1.326.675-2.071,1.059-3.355a5.218,5.218,0,0,1,.841,2.633" fill="#f8ede3"/>
      <path id="Path_4908" data-name="Path 4908" d="M87.427,61.218c1.575.013,2.094.552,2.12,2.2-1.752-.044-2.182-.489-2.12-2.2" fill="#fbfbfc"/>
      <path id="Path_4909" data-name="Path 4909" d="M85.471,62.612c.21-.255.519-.169.785-.228-.141.49-.507.208-.785.228" fill="#e6ba95"/>
      <path id="Path_4910" data-name="Path 4910" d="M86.341,61.93a.451.451,0,0,1,.042-.707l-.042.707" fill="#e6ba95"/>
      <path id="Path_4911" data-name="Path 4911" d="M84.474,76.568c-.208-.14-.23-.295-.035-.465.011.155.023.31.035.465" fill="#eaf0f7"/>
      <path id="Path_4912" data-name="Path 4912" d="M84.293,75.3a.354.354,0,0,1-.023-.167l.065.08Z" fill="#eaf0f7"/>
      <path id="Path_4913" data-name="Path 4913" d="M87.6,59.661c-.032.111-.065.222-.1.334.033-.112.065-.223.1-.334" fill="#fbfbfc"/>
      <path id="Path_4914" data-name="Path 4914" d="M84.52,77.207a.414.414,0,0,1-.016-.14l.059.07Z" fill="#eaf0f7"/>
      <path id="Path_4915" data-name="Path 4915" d="M25.286,66.013a5.221,5.221,0,0,0,.443-2.769c-.007-1.054.4-1.633,1.576-1.558,1.11.071,2.229-.012,3.343.027a1.25,1.25,0,0,1,1.413,1.213,17.522,17.522,0,0,1,.1,3.679,1.554,1.554,0,0,1-1.73,1.57c-1.114-.009-2.233-.059-3.342.021-.6.043-.906-.457-1.414-.51a.43.43,0,0,1-.139-.478c.026-.024.077-.059.072-.071a1.091,1.091,0,0,0-.093-.158q-.115-.483-.229-.966m5.957-2.49c0,.036-.118-.167-.351-.283a.587.587,0,0,0-.766.082,8.871,8.871,0,0,0-.675.984c-.483.782-.961,1.467-1.888.444a.518.518,0,0,0-.834.061.619.619,0,0,0,.053.94c1.207,1.27,1.85,1.295,2.981-.086.492-.6,1.323-.95,1.48-2.142" fill="#d3cabb"/>
      <path id="Path_4916" data-name="Path 4916" d="M26.24,70.573a31.51,31.51,0,0,1,4.754.218c.6.1.887.251,1,.907a15.644,15.644,0,0,1-.009,4.486c-.07.588-.31.868-.9.867-1.394,0-2.789.027-4.182-.011-.815-.023-1.141-.538-1.188-1.335-.035-.607.271-1.283-.28-1.813,1.255-.868.854-2.136.8-3.319m2.341,5.063a14.03,14.03,0,0,0,2.385-2.354.672.672,0,0,0-.189-1.107c-.553-.352-.567.188-.838.432-.725.651-1.038,2.613-2.646.964-.225-.231-.488.137-.664.341s-.242.454-.024.639a5.4,5.4,0,0,0,1.976,1.085" fill="#d3cabb"/>
      <path id="Path_4917" data-name="Path 4917" d="M24.048,83.547a3.5,3.5,0,0,1-1.53.014,1.791,1.791,0,0,0-.146-1.279c.226-2.758-.517-5.458-.495-8.2a23.469,23.469,0,0,1,3.374-.124c.192,2.278-.654,4.445-.711,6.7a4.22,4.22,0,0,0-.247,1.644,1.938,1.938,0,0,0-.245,1.253" fill="#f5ccce"/>
      <path id="Path_4918" data-name="Path 4918" d="M21.877,74.078c-.022,2.746.721,5.445.494,8.2-1.835.013-2.146-.295-2.145-2.12,0-1.152.018-2.3-.009-3.456-.008-.326.239-.874-.472-.833.291-.661,1.028-1.018,1.2-1.761a1.388,1.388,0,0,1,.932-.033" fill="#fbfbfc"/>
      <path id="Path_4919" data-name="Path 4919" d="M25.515,66.979a.976.976,0,0,1,.093.158c.005.012-.046.047-.071.072a.26.26,0,0,1-.022-.23" fill="#fbfbfc"/>
      <path id="Path_4920" data-name="Path 4920" d="M53.6,54.8c-.01-3.379.2-6.777-.1-10.131-.217-2.433.848-4.056,2.268-5.677a2.246,2.246,0,0,0,.668-1.229l19.806.015-.189.424c-1.739-.171-3.292.585-4.818,1.168a23.759,23.759,0,0,0-10.975,8.359,18.885,18.885,0,0,0-3.577,7.034l-.274.077a.131.131,0,0,0-.172-.009l-1.242,0L53.6,54.8" fill="rgba(230,186,149,0.5)"/>
      <path id="Path_4921" data-name="Path 4921" d="M61.238,26.666c-.044-1.624.334-3.22.271-4.854-.034-.876-.256-1.166-1.154-1.152-2.778.04-5.558-.008-8.338-.022l.338-.248q4.168.021,8.338.043c1.809.011,2.016.207,2.026,1.956.008,1.43,0,2.859,0,4.289l-1.482-.012" fill="#f8ede3"/>
      <path id="Path_4922" data-name="Path 4922" d="M54.495,37.466c-.328-.537-.856-.477-1.375-.475C50.612,37,48.1,37,45.6,36.984c-.281,0-.753.165-.766-.3-.011-.386.415-.416.739-.409a74.869,74.869,0,0,1,7.507.13,4.363,4.363,0,0,0,1.669-.379c-.334.436-.124.966-.25,1.438" fill="rgba(215,210,181,0.6)"/>
      <path id="Path_4923" data-name="Path 4923" d="M74.433,31.477c0-.837,0-1.674,0-2.51,0-.327.037-.7.445-.726.429-.03.492.339.493.667,0,1.713.014,3.426-.037,5.138-.009.3-.045.864-.447.865-.534,0-.45-.543-.455-.924-.011-.836,0-1.673,0-2.51" fill="#e5ddc7"/>
      <path id="Path_4924" data-name="Path 4924" d="M59.554,31.6q0,1.315,0,2.63c0,.289-.033.617-.342.7-.418.11-.425-.312-.462-.539a35.884,35.884,0,0,1-.11-5.716.421.421,0,0,1,.468-.439c.344.041.434.325.436.615.012.917.005,1.833.005,2.75h.005" fill="#e5ddc7"/>
      <path id="Path_4925" data-name="Path 4925" d="M66.521,31.7c0-.875,0-1.749,0-2.624,0-.324,0-.673.456-.687s.486.325.487.656q.006,2.563,0,5.128c0,.36-.015.8-.513.768-.4-.022-.424-.413-.426-.736-.007-.835,0-1.67,0-2.505" fill="#e5ddc7"/>
      <path id="Path_4926" data-name="Path 4926" d="M55.914,33.881H43.172c.311-.613.758-.482,1.152-.484q4.917-.016,9.835,0a5.3,5.3,0,0,0,1.763-.252c0,.245-.005.489-.008.734" fill="#b5a68e"/>
      <path id="Path_4927" data-name="Path 4927" d="M55.913,30.76H43.172c0-.164,0-.327-.005-.491H55.909c0,.164,0,.327,0,.491" fill="rgba(215,210,181,0.6)"/>
      <path id="Path_4928" data-name="Path 4928" d="M71.317,31.645c0,.832.006,1.665-.005,2.5,0,.267.029.613-.364.629-.351.015-.474-.313-.5-.569-.064-.628-.069-1.263-.075-1.9-.011-.991-.018-1.982,0-2.973.008-.356-.178-.908.43-.925.705-.019.486.59.5.977.031.752.009,1.506.008,2.259" fill="#e5ddc7"/>
      <path id="Path_4929" data-name="Path 4929" d="M63.4,31.644c0,.836.006,1.672,0,2.508,0,.272.011.615-.384.609-.309,0-.335-.292-.336-.533q-.006-2.628,0-5.255c0-.237.009-.527.321-.546.4-.024.4.316.4.59.01.875,0,1.751,0,2.627" fill="#e5ddc7"/>
      <path id="Path_4930" data-name="Path 4930" d="M54.762,36.02c.065-.135.142-.151.235-.025l-.235.025" fill="#eaf0f7"/>
      <path id="Path_4931" data-name="Path 4931" d="M33.644,20.693l15.6.011.462,0L49.7,20.7c.519,1.533.2,2.394-.969,2.4-4.816.024-9.632.008-14.448.012-.518,0-1.024-.1-1.1-.675-.081-.61-.458-1.367.458-1.74" fill="#fbfbfc"/>
      <path id="Path_4932" data-name="Path 4932" d="M33.644,20.693c-.916.373-.539,1.13-.458,1.74.076.576.582.676,1.1.675,4.816,0,9.632.012,14.448-.012,1.166-.006,1.488-.867.969-2.4.639,0,1.271-.668,1.918-.023-.891.036-1.32.374-1.2,1.385.133,1.1-.556,1.6-1.608,1.6q-7.369.01-14.74,0c-1.122,0-1.528-.68-1.545-1.708-.008-.492.159-1.079-.564-1.257.476-.464,1.139-.154,1.681-.39.092-.04.019.249,0,.387" fill="rgba(112,82,37,0.69)"/>
      <path id="Path_4933" data-name="Path 4933" d="M42.457,15.53c-.11.612-.377,1.014-.953.974a.876.876,0,0,1-.905-1.03.83.83,0,0,1,.978-.813c.6.022.789.442.88.869" fill="#f8ede3"/>
      <path id="Path_4934" data-name="Path 4934" d="M49.71,20.7l-.462,0c.036-.174.016-.421.285-.369.079.016.119.238.177.366" fill="rgba(112,82,37,0.69)"/>
      <path id="Path_4935" data-name="Path 4935" d="M31.506,20.691l-.19-.032a.531.531,0,0,1,.19.032" fill="#2376bd"/>
      <path id="Path_4936" data-name="Path 4936" d="M83.665,50.723l.375-.033c.257.393.522.781.771,1.18.16.255.493.539.193.833-.33.325-.706.234-1.039-.11a2.69,2.69,0,0,0-.6-.367c-1.013-.487-1.5.435-2.111.867-.578.407-.512.5-1.069-.022-.263-.165-.165-.426-.175-.659q.334-.239.667-.479a10.782,10.782,0,0,0,2.99-1.21" fill="#e6ba95"/>
      <path id="Path_4937" data-name="Path 4937" d="M80.183,53.072c.557.524.49.429,1.069.022.614-.432,1.1-1.354,2.111-.867-.619.865-.133,1.849-.3,2.764q-1.068-.052-2.134-.107l-.693-.16a1.7,1.7,0,0,1-.056-1.652" fill="#f5ccce"/>
      <path id="Path_4938" data-name="Path 4938" d="M85.951,54.743a5.48,5.48,0,0,0-.233.9,2.272,2.272,0,0,1-2.494,2.174c-.759-.066-.765-.787-.951-1.325a10.161,10.161,0,0,0,1.716-.688c.416-.256,1.139-.1,1.229-.832.193-.242.332-.657.733-.228" fill="#fff"/>
      <path id="Path_4939" data-name="Path 4939" d="M85.218,54.971c-.09.732-.814.576-1.229.832a10.164,10.164,0,0,1-1.716.689c-.271.057-.541.116-.812.174l-.272-.19c.016-.5-.374-.73-.683-1.013l-.012-.237a.36.36,0,0,0,.438-.341l2.134.105.674.057c.364.719.695.039,1.04-.024l.438-.052" fill="#e6ba95"/>
      <path id="Path_4940" data-name="Path 4940" d="M89.329,46.849l.649,0c-.234,1.582-.381,3.2-1.935,4.517a21.325,21.325,0,0,1,1.286-4.514" fill="#d1c4b8"/>
      <path id="Path_4941" data-name="Path 4941" d="M88.266,55q-.211,1.289-.424,2.577c-.79-.131-.812-.763-.888-1.36q.127-.609.254-1.218l.209-.2.674-.026.175.225" fill="#d1c4b8"/>
      <path id="Path_4942" data-name="Path 4942" d="M92.427,51.627a4.98,4.98,0,0,1-2.874,2.634,8.188,8.188,0,0,1,2.874-2.634" fill="#fff"/>
      <path id="Path_4943" data-name="Path 4943" d="M88.266,55l-.175-.225a1.977,1.977,0,0,1,1.456-.51c0,.158,0,.316,0,.474L88.266,55" fill="#fff"/>
      <path id="Path_4944" data-name="Path 4944" d="M84.779,55.023c-.345.063-.676.744-1.039.024.335-.493.688-.21,1.039-.024" fill="#f5ccce"/>
      <path id="Path_4945" data-name="Path 4945" d="M87.417,54.8l-.209.2-.767.225c0-.162-.007-.325-.011-.488a.578.578,0,0,1,.987.065" fill="#f8ede3"/>
      <path id="Path_4946" data-name="Path 4946" d="M92.667,51.147a.469.469,0,0,1-.237.476.469.469,0,0,1,.237-.476" fill="#eaf0f7"/>
      <path id="Path_4947" data-name="Path 4947" d="M95.07,58.1c-.928.065-.962,1.128-1.642,1.469-.015-.251-.031-.5-.047-.752q0-1.56,0-3.119l.033-.5c.547.971,1.657,1.621,1.655,2.9" fill="#f8ede3"/>
      <path id="Path_4948" data-name="Path 4948" d="M93.382,55.7q0,1.56,0,3.119a2.607,2.607,0,0,1,0-3.119" fill="#fbfbfc"/>
      <path id="Path_4949" data-name="Path 4949" d="M80.183,53.072a1.7,1.7,0,0,0,.055,1.651l-.459.128c-1.277-.015-2.553-.04-3.829-.044q-9.637-.029-19.274-.048a18.873,18.873,0,0,1,3.577-7.033,23.752,23.752,0,0,1,10.975-8.359c1.526-.584,3.079-1.34,4.818-1.168a4.715,4.715,0,0,0,.79,2.658,1.457,1.457,0,0,0,.013.209,14.2,14.2,0,0,0,.812,3.7c.722,2.564,1.558,5.1,2.347,7.642.01.233-.089.494.175.659" fill="#fefefe"/>
      <path id="Path_4950" data-name="Path 4950" d="M83.665,50.723a10.782,10.782,0,0,1-2.99,1.21c-.257-2.006-1.214-3.81-1.669-5.762-.277-1.189-.671-2.351-1.043-3.516A.99.99,0,0,1,78.3,41.4c.6-.316.885.32,1.038.7,1.1,2.734,2.736,5.233,3.5,8.111.1.388.581.289.828.51" fill="#eaf0f7"/>
      <path id="Path_4951" data-name="Path 4951" d="M76.849,41.066a1.457,1.457,0,0,1-.013-.209l.781-.106c-.171.31-.463.329-.768.315" fill="#f8ede3"/>
      <path id="Path_4952" data-name="Path 4952" d="M77.651,40.8l.282-.289.117.241-.4.048" fill="#f8ede3"/>
      <path id="Path_4953" data-name="Path 4953" d="M78.62,40.337l.391-.253-.391.253" fill="#daedfc"/>
      <path id="Path_4954" data-name="Path 4954" d="M81.19,56.477l.271.19a5.967,5.967,0,0,0,.8,3.04c1.008,1.224.512,2.419.554,3.591.1,2.816.014,5.638,0,8.457l-.5.13-3.066-.009-.755-.1a3.932,3.932,0,0,0-2.182-3.6c0-.417.617-.553.462-1.041-.384-1.211-.1-2.456-.183-3.683-.028-.39.046-.778-.314-1.1a8.661,8.661,0,0,1-2.454-4.286.8.8,0,0,0-.939-.685,1.031,1.031,0,0,0-1.064.783c-.135.489-.132,1.031-.568,1.4-.254-.189-.5-.387-.765-.565a5.851,5.851,0,0,0-6.332-.419,5.717,5.717,0,0,0-3.239,5.436c.018,3.574,2.55,5.908,6.566,6.066q-.055.911-.112,1.821L56.944,71.87,53.6,71.739q0-7.627,0-15.254l2.608-.078c.437.014.875.041,1.312.041q11.838.018,23.675.029M54.24,57.705l-.11-.044V70.489h.11Z" fill="#e5ddc7"/>
      <path id="Path_4955" data-name="Path 4955" d="M31.225,27.128a5.862,5.862,0,0,1,6.02,5.813,6,6,0,1,1-6.02-5.813m3.61,5.965c-.113-.744-.72-.859-1.26-.8-1.241.133-1.925-.188-1.659-1.584a.887.887,0,0,0-.054-.469c-.137-.349-.354-.648-.783-.61a.771.771,0,0,0-.726.684,2.779,2.779,0,0,0-.026.834c.121.893-.231,1.182-1.133,1.15-.667-.024-1.763-.315-1.727.846.034,1.1,1.083.714,1.712.694.882-.027,1.28.233,1.147,1.145a4.64,4.64,0,0,0,0,.717c.008.532.275.832.809.816a.731.731,0,0,0,.766-.753,5.454,5.454,0,0,0,.011-.956c-.081-.728.2-1.029.944-.949a7.451,7.451,0,0,0,1.195,0,.784.784,0,0,0,.782-.76" fill="#d3cabb"/>
      <path id="Path_4956" data-name="Path 4956" d="M24.293,82.294a4.222,4.222,0,0,1,.247-1.644,39.623,39.623,0,0,0,10.316-2.684,1.793,1.793,0,0,0,1.22-1.923c-.044-10.631,0-21.262-.052-31.893-.008-1.716.508-2.634,2.617-2.612,3.8.039,7.594.011,11.392.011.239,0,.479,0,.719,0,.326.006.755.024.748.407-.009.467-.485.3-.766.3-3.757.012-7.515.008-11.272.009-1.968,0-2.53.852-2.377,2.876.147,1.93-.061,3.886-.071,5.831C37,54.5,36.9,58.029,37.039,61.548c.145,3.634.083,7.275.024,10.894-.057,3.43.494,6.84.141,10.261-.279-.564-.8-.4-1.252-.4q-5.829-.009-11.659-.009" fill="rgba(112,82,37,0.69)"/>
      <path id="Path_4957" data-name="Path 4957" d="M28.805,50.184c-3.327.02-3.083.242-3.077-3.109s.068-3.418,3.5-3.354a20.646,20.646,0,0,1,2.122.247.626.626,0,0,1,.583.515,13.787,13.787,0,0,1-.012,4.953.959.959,0,0,1-1.082.75c-.678-.008-1.355,0-2.033,0m-1.6-3.533c-.41.1-.823.406-.677.8.249.668.994.853,1.587,1.16a.844.844,0,0,0,1.18-.216,13.629,13.629,0,0,1,1.663-1.876c.465-.473.288-.87-.167-1.195-.528-.377-.562.195-.846.4-.757.547-.956,2.808-2.606.981-.023-.026-.072-.029-.134-.052" fill="#d3cabb"/>
      <path id="Path_4958" data-name="Path 4958" d="M59.126,79.132a32.727,32.727,0,0,1-5.478,1.678q-.054-3.894-.11-7.788c.058-.008.117-.014.176-.018l.33.112a.334.334,0,0,0,.477-.006,8.452,8.452,0,0,1,2.419.032c.2,2.188,1.282,4.057,2.186,5.99" fill="rgba(230,186,149,0.5)"/>
      <path id="Path_4959" data-name="Path 4959" d="M45.152,52.572V45.944a1.456,1.456,0,0,1,.337,1.312,21.558,21.558,0,0,0,.148,5.005c.083.691.581.541.989.543a51.633,51.633,0,0,1,6.21.266H48.025c-2.6,0-2.607,0-2.605,2.653a28.561,28.561,0,0,1,0,3.792c-.127.962.322,1.249,1.245,1.226a41.228,41.228,0,0,1,6.2.245c-2.1,0-4.211.042-6.315-.019-.9-.027-1.136.257-1.162,1.148-.045,1.586.22,3.154.065,4.752-.151,1.566.163,1.775,1.706,1.776a42.325,42.325,0,0,1,5.69.257c-2.068,0-4.137.036-6.2-.017-.893-.023-1.3.164-1.251,1.176.083,1.794.05,3.6.011,5.394-.018.834.3,1.13,1.13,1.115a44.858,44.858,0,0,1,6.321.249q-3.035,0-6.068,0c-1.409,0-1.621.147-1.335,1.481.379,1.766-.318,3.463-.293,5.2,0-1.846-.041-3.694.018-5.539.028-.876-.208-1.2-1.132-1.166a37.816,37.816,0,0,1-6.087-.24c2.01,0,4.021-.055,6.028.023.989.038,1.223-.317,1.191-1.233q-.093-2.7,0-5.395c.029-.866-.29-1.085-1.106-1.066a42.806,42.806,0,0,1-6.327-.249c2.088,0,4.178-.057,6.263.024,1.015.039,1.2-.363,1.169-1.25-.056-1.716-.068-3.438,0-5.154.041-.97-.211-1.335-1.249-1.292a33.618,33.618,0,0,1-5.968-.246c2.006,0,4.014-.055,6.016.024.976.038,1.234-.28,1.2-1.214-.066-1.836-.047-3.677-.005-5.515.017-.739-.242-.972-.967-.959a41.59,41.59,0,0,1-6.215-.261h6.917l.24-.223" fill="rgba(112,82,37,0.69)"/>
      <path id="Path_4960" data-name="Path 4960" d="M41.17,62.462a2.247,2.247,0,0,1-.322,4.482,2.156,2.156,0,0,1-2.106-2.388,2.226,2.226,0,0,1,2.428-2.094" fill="rgba(215,210,181,0.6)"/>
      <path id="Path_4961" data-name="Path 4961" d="M51.652,82.325c-.727.086-1.311.629-2.125.531A2.065,2.065,0,0,1,47.563,80.5a2.1,2.1,0,0,1,2.546-2.013,2.186,2.186,0,0,1,1.917,2.322c-.034.352-.271.674-.149,1.048l.011-.015c-.275.07-.372.229-.249.5Z" fill="rgba(215,210,181,0.6)"/>
      <path id="Path_4962" data-name="Path 4962" d="M49.833,59.089A2.069,2.069,0,0,1,47.562,56.9a2.022,2.022,0,0,1,2.147-2.173,2.181,2.181,0,1,1,.124,4.359" fill="rgba(215,210,181,0.6)"/>
      <path id="Path_4963" data-name="Path 4963" d="M47.558,64.755a2.176,2.176,0,0,1,2.1-2.291,2.317,2.317,0,0,1,2.368,2.188,2.628,2.628,0,0,1-2.268,2.305,2.251,2.251,0,0,1-2.2-2.2" fill="rgba(215,210,181,0.6)"/>
      <path id="Path_4964" data-name="Path 4964" d="M25.82,57.776a2.716,2.716,0,0,0,1.822.07c1.344.2,1.9-.213,2.338-1.734l.005.005c.775.1.824-.523,1-1.014-.006-.261-.011-.522-.017-.783a1.788,1.788,0,0,1,1.223-.068c-.231,1.2.079,2.415-.155,3.652a1.537,1.537,0,0,1-1.5,1.371c-1.292.236-2.587-.158-3.9-.056-.572.044-1.014-.684-.819-1.443" fill="#d3cabb"/>
      <path id="Path_4965" data-name="Path 4965" d="M49.645,69.852A2.738,2.738,0,0,1,52.6,72.306a3.085,3.085,0,0,1-3.043,3.224,3.321,3.321,0,0,1-2.7-3.02,2.928,2.928,0,0,1,2.793-2.658m.155,4.864a2,2,0,0,0,2.116-2.077,2.065,2.065,0,0,0-2.327-2.117,2.043,2.043,0,0,0-2.013,2.068A2.128,2.128,0,0,0,49.8,74.716" fill="rgba(112,82,37,0.69)"/>
      <path id="Path_4966" data-name="Path 4966" d="M49.749,46.1a2.766,2.766,0,1,1-.1,5.525,2.763,2.763,0,1,1,.1-5.525M51.9,48.854a2.158,2.158,0,0,0-4.314.065,2.307,2.307,0,0,0,2.142,2.159A2.161,2.161,0,0,0,51.9,48.854" fill="rgba(112,82,37,0.69)"/>
      <path id="Path_4967" data-name="Path 4967" d="M43.726,80.657a2.819,2.819,0,0,1-2.754,2.863,2.684,2.684,0,0,1-2.768-2.8,2.911,2.911,0,0,1,2.819-2.942,2.673,2.673,0,0,1,2.7,2.876m-.555.031a2.264,2.264,0,0,0-2.1-2.191,2.014,2.014,0,0,0-2.215,2.1,2.058,2.058,0,0,0,2.015,2.208,2.256,2.256,0,0,0,2.3-2.12" fill="rgba(112,82,37,0.69)"/>
      <path id="Path_4968" data-name="Path 4968" d="M38.2,48.873a2.98,2.98,0,0,1,2.706-2.93,2.986,2.986,0,0,1,2.817,2.833,2.762,2.762,0,1,1-5.523.1m.66-.054a2.236,2.236,0,0,0,2.129,2.267,2.406,2.406,0,0,0,2.191-2.147,2.185,2.185,0,0,0-2.212-2.159,1.909,1.909,0,0,0-2.108,2.039" fill="rgba(112,82,37,0.69)"/>
      <path id="Path_4969" data-name="Path 4969" d="M40.848,59.548A2.364,2.364,0,0,1,38.206,56.9a2.848,2.848,0,0,1,2.742-2.869,2.694,2.694,0,0,1,2.779,2.9c-.011,1.646-1.082,2.619-2.879,2.615m-1.987-2.676a2.112,2.112,0,0,0,2.161,2.192,2.238,2.238,0,0,0,2.162-2,2.414,2.414,0,0,0-2.122-2.322,2.059,2.059,0,0,0-2.2,2.126" fill="rgba(112,82,37,0.69)"/>
      <path id="Path_4970" data-name="Path 4970" d="M38.206,72.692a3.033,3.033,0,0,1,2.635-3,2.815,2.815,0,0,1,2.884,3.07,2.559,2.559,0,0,1-2.76,2.614,2.49,2.49,0,0,1-2.759-2.681M40.978,70.4a2.18,2.18,0,0,0-2.118,2.28,2.028,2.028,0,0,0,2.195,2.134,2.324,2.324,0,0,0,2.144-2.17A2.423,2.423,0,0,0,40.978,70.4" fill="rgba(112,82,37,0.69)"/>
      <path id="Path_4971" data-name="Path 4971" d="M54.044,73.116,53.714,73l-.14-.275a1.261,1.261,0,0,1,.023-.2l2.9-.158,10,.048.946.071c0,.175,0,.349,0,.523l-.265.1-.391-.013-.3-.012c-3.182-.008-6.364-.121-9.544.06a8.415,8.415,0,0,0-2.419-.033l-.477.006" fill="rgba(112,82,37,0.48)"/>
      <path id="Path_4972" data-name="Path 4972" d="M32.194,54.252a1.782,1.782,0,0,0-1.223.068,1.388,1.388,0,0,1-.57-.718c.362-.147.372-.457.362-.776.12-.292.23-.589.365-.874.09-.191.4-.373.459-.279.689,1.067,1.455.273,2.207.152.5-.082.333.357.268.567a3.308,3.308,0,0,1-1.868,1.86" fill="#f5ccce"/>
      <path id="Path_4973" data-name="Path 4973" d="M45.333,44.663c-1.075,0-2.151,0-3.226,0-.295,0-.637-.078-.65-.391-.016-.407.381-.307.637-.319,2.221-.11,4.453.213,6.666-.186.287-.051.449.111.454.4.007.36-.216.489-.535.49-1.116,0-2.231,0-3.346,0" fill="rgba(112,82,37,0.69)"/>
      <path id="Path_4974" data-name="Path 4974" d="M30.763,52.826c.01.319,0,.629-.361.776-.786-.467-1.349.2-1.975.426-1.61.578-1.6.611-2.483-.943,1.582-.544,3.215-.137,4.819-.259" fill="#d3cabb"/>
      <path id="Path_4975" data-name="Path 4975" d="M22.469,49.245a2.356,2.356,0,0,1,1.045-2.737c0,1.048.4,2.242-1.045,2.737" fill="#f5ccce"/>
      <path id="Path_4976" data-name="Path 4976" d="M56.5,72.367l-2.9.158q0-.393,0-.786l3.344.131c-.131.182-.513.138-.446.5" fill="#b7a388"/>
      <path id="Path_4977" data-name="Path 4977" d="M53.6,54.8l1.392.033c.006.13.011.26.016.391l0,0c-.292-.018-.612-.177-.868.206.825.719,1.908-.017,2.747.489L56.221,56l-2.647-.074c.008-.376.015-.751.022-1.127" fill="#b7a388"/>
      <path id="Path_4978" data-name="Path 4978" d="M53.574,55.923,56.221,56c-.006.136-.013.273-.019.409l-2.608.078c-.007-.187-.013-.374-.02-.561" fill="#b7a388"/>
      <path id="Path_4979" data-name="Path 4979" d="M25.492,57.394a.4.4,0,0,1,.324.4c-.271,0-.309-.192-.324-.4" fill="#daedfc"/>
      <path id="Path_4981" data-name="Path 4981" d="M45.152,52.572l-.24.223.24-.223" fill="#eaf0f7"/>
      <path id="Path_4982" data-name="Path 4982" d="M66.788,73.1l.391.013.255.34c-.034.9-.04,1.808-.109,2.707a7.992,7.992,0,0,0,.582,4.018.729.729,0,0,0-.141.749l.006.02c-2.266.39-4.253,1.64-6.5,2.1-.329-1.047-.7-2.083-.972-3.146-.174-.684-.534-.894-1.177-.759-.9-1.932-1.983-3.8-2.186-5.99,3.18-.18,6.362-.067,9.544-.059a.176.176,0,0,0,.3.012" fill="#fbfbfc"/>
      <path id="Path_4983" data-name="Path 4983" d="M67.489,70.075c-4.016-.158-6.549-2.491-6.566-6.065a5.717,5.717,0,0,1,3.238-5.437,5.855,5.855,0,0,1,6.333.419c.262.178.51.376.765.565a4.1,4.1,0,0,1-1.6,2.589c-.267.272-.67.437-.534.93-1.074.387-1.572.087-1.434-1.122A16.071,16.071,0,0,0,67.7,60.04c0-.562.06-1.228-.762-1.212-.746.014-.677.636-.678,1.158,0,.758-.041,1.519.012,2.273.051.717-.169,1.011-.927.96-.874-.059-1.755-.027-2.632,0-.47.014-.905.194-.911.744-.007.576.447.7.918.7.8.008,1.6.018,2.393-.023.825-.044,1.263.179,1.166,1.131a25.041,25.041,0,0,0-.015,2.512c0,.454.164.8.659.825.542.023.779-.3.774-.828-.006-.8,0-1.6,0-2.394,0-1.386,0-1.386,1.425-1.018.17,1.08-.647,2.268.357,3.256a5.19,5.19,0,0,0-2,1.947" fill="#fbfbfc"/>
      <path id="Path_4984" data-name="Path 4984" d="M69.484,68.128c-1-.988-.187-2.176-.357-3.256a4.331,4.331,0,0,0,0-1.8c-.136-.493.267-.658.535-.93a4.1,4.1,0,0,0,1.6-2.589c.435-.365.432-.907.568-1.4a1.029,1.029,0,0,1,1.063-.783.8.8,0,0,1,.939.685,8.655,8.655,0,0,0,2.455,4.286c.36.322.286.71.313,1.1.086,1.227-.2,2.472.184,3.683.154.488-.466.624-.462,1.041l-6.835-.045" fill="#b4a680"/>
      <path id="Path_4985" data-name="Path 4985" d="M68.668,76.638a4,4,0,0,1,4.114-4.185,4.127,4.127,0,0,1,4.276,4.191,4.312,4.312,0,0,1-4.214,4.193,4.217,4.217,0,0,1-4.176-4.2M70.361,74.4c-.42-.07-.537.269-.686.532a3.575,3.575,0,1,0,6.48,2.991,3.536,3.536,0,0,0-2.291-4.753c-1.6-.447-2.953.033-3.518,1.245Z" fill="rgba(240,219,219,0.32)"/>
      <path id="Path_4986" data-name="Path 4986" d="M61.275,83.037c2.244-.455,4.232-1.705,6.5-2.1.061.658-.405,1.163-.517,1.77-1.476.461-2.96.9-4.425,1.4a4.794,4.794,0,0,1-1.284.21q-.135-.641-.271-1.281" fill="rgba(230,186,149,0.5)"/>
      <path id="Path_4987" data-name="Path 4987" d="M56.5,72.367c-.067-.359.315-.315.446-.5l10.433.026-.02.088c-.182.354-.614.209-.863.431l-10-.048" fill="#fbfbfc"/>
      <path id="Path_4988" data-name="Path 4988" d="M79.256,71.875l3.065.009.257.168c0,.063.008.126.01.189l-.739.175-3.3.018-.054-.416.757-.143" fill="#fbfbfc"/>
      <path id="Path_4989" data-name="Path 4989" d="M78.552,72.434l3.3-.017.967.1c.007.169.015.338.022.507l-.754.11a.119.119,0,0,0-.194-.008,7.214,7.214,0,0,0-2.156,0l-1.185-.114c-.279-.193-.244-.383,0-.573" fill="#b7a388"/>
      <path id="Path_4990" data-name="Path 4990" d="M78.549,73.007l1.185.115c-.473.179-1.069.164-1.257.795l.072-.91" fill="#f8ede3"/>
      <path id="Path_4992" data-name="Path 4992" d="M79.256,71.875l-.757.143c0-.081,0-.163,0-.244l.755.1" fill="rgba(248,237,227,0.8)"/>
      <path id="Path_4993" data-name="Path 4993" d="M67.766,80.922a.733.733,0,0,1,.141-.749.638.638,0,0,1-.141.749" fill="#f4e2d3"/>
      <path id="Path_4995" data-name="Path 4995" d="M78.481,73.907l-.012.328c-.119-.114-.144-.224.012-.328" fill="#d6e2f2"/>
      <path id="Path_4996" data-name="Path 4996" d="M81.89,73.126a.119.119,0,0,1,.194.008l-.1.049Z" fill="#d6e2f2"/>
      <path id="Path_4997" data-name="Path 4997" d="M51.638,82.339c-.122-.269-.025-.428.25-.5.043.23,0,.416-.25.5" fill="#fbfbfc"/>
      <path id="Path_4998" data-name="Path 4998" d="M29.98,56.112c-.439,1.521-.994,1.933-2.338,1.734a10.667,10.667,0,0,1,2.338-1.734" fill="#eaf0f7"/>
      <path id="Path_4999" data-name="Path 4999" d="M30.988,55.1c-.179.491-.228,1.111-1,1.014a1.913,1.913,0,0,1,1-1.014" fill="#eaf0f7"/>
      <path id="Path_5000" data-name="Path 5000" d="M86.441,55.226,87.208,55q-.127.609-.254,1.218c-.358-.234-.3-.686-.513-.993" fill="#fbfbfc"/>
      <path id="Path_5001" data-name="Path 5001" d="M82.817,72.517l-.967-.1.738-.175.229.275" fill="rgba(248,237,227,0.8)"/>
      <path id="Path_5002" data-name="Path 5002" d="M82.578,72.052l-.256-.167.5-.13-.242.3" fill="rgba(248,237,227,0.8)"/>
      <path id="Path_5003" data-name="Path 5003" d="M31.243,63.523c-.157,1.192-.988,1.54-1.48,2.142-1.131,1.381-1.774,1.356-2.981.086a.619.619,0,0,1-.053-.94.518.518,0,0,1,.834-.061c.927,1.023,1.405.338,1.888-.444a8.871,8.871,0,0,1,.675-.984.587.587,0,0,1,.766-.082c.233.116.348.319.351.283" fill="#fbfbfc"/>
      <path id="Path_5004" data-name="Path 5004" d="M28.581,75.636A5.4,5.4,0,0,1,26.6,74.551c-.218-.185-.145-.442.024-.639s.439-.572.664-.341c1.608,1.649,1.921-.313,2.646-.964.271-.244.285-.784.838-.432a.672.672,0,0,1,.189,1.107,14.03,14.03,0,0,1-2.385,2.354" fill="#fbfbfc"/>
      <path id="Path_5005" data-name="Path 5005" d="M56.879,55.919c-.84-.506-1.922.231-2.747-.489.256-.383.576-.224.868-.206a.821.821,0,0,0,.947.082L55,55.22l-.015-.391,1.241,0,.084.071.089-.062.274-.077q9.636.022,19.274.047c1.276,0,2.552.03,3.828.045l.715.375.012.237c-.061.6-.51.485-.894.485l-22.732-.029" fill="rgba(112,82,37,0.48)"/>
      <path id="Path_5006" data-name="Path 5006" d="M56.4,54.837l-.09.061-.084-.07a.134.134,0,0,1,.174.009" fill="#b7a388"/>
      <path id="Path_5007" data-name="Path 5007" d="M80.494,55.226l-.716-.375.461-.128.693.161a.36.36,0,0,1-.438.342" fill="#dfc0bb"/>
      <path id="Path_5008" data-name="Path 5008" d="M56.879,55.919l22.732.029c.384,0,.833.113.894-.485.31.283.7.511.684,1.013q-11.838-.012-23.675-.028c-.437,0-.874-.027-1.312-.042.006-.136.013-.272.019-.409l.658-.078" fill="#fbfbfc"/>
      <path id="Path_5009" data-name="Path 5009" d="M54.24,57.705V70.488h-.11V57.661l.11.044" fill="rgba(112,82,37,0.69)"/>
      <path id="Path_5010" data-name="Path 5010" d="M34.835,33.093a.784.784,0,0,1-.782.76,7.451,7.451,0,0,1-1.195,0c-.739-.08-1.025.221-.944.949a5.454,5.454,0,0,1-.011.956.731.731,0,0,1-.766.753c-.534.016-.8-.284-.809-.816a4.64,4.64,0,0,1,0-.717c.133-.912-.265-1.172-1.147-1.145-.629.02-1.678.4-1.712-.694-.036-1.161,1.06-.87,1.727-.846.9.032,1.254-.257,1.133-1.15a2.779,2.779,0,0,1,.026-.834.771.771,0,0,1,.726-.684c.429-.038.646.261.783.61a.887.887,0,0,1,.054.469c-.266,1.4.418,1.717,1.659,1.584.54-.058,1.147.057,1.26.8" fill="#fbfbfc"/>
      <path id="Path_5011" data-name="Path 5011" d="M27.2,46.651c.062.023.111.026.134.052,1.65,1.827,1.849-.434,2.606-.981.284-.205.318-.777.846-.4.455.325.632.722.167,1.195a13.629,13.629,0,0,0-1.663,1.876.844.844,0,0,1-1.18.216c-.593-.307-1.338-.492-1.587-1.16-.146-.392.267-.7.677-.8" fill="#fbfbfc"/>
      <path id="Path_5013" data-name="Path 5013" d="M49.8,74.716a2.128,2.128,0,0,1-2.224-2.126,2.043,2.043,0,0,1,2.013-2.068,2.065,2.065,0,0,1,2.327,2.117A2,2,0,0,1,49.8,74.716" fill="rgba(215,210,181,0.6)"/>
      <path id="Path_5014" data-name="Path 5014" d="M51.9,48.854a2.161,2.161,0,0,1-2.172,2.224,2.307,2.307,0,0,1-2.142-2.159,2.158,2.158,0,0,1,4.314-.065" fill="rgba(215,210,181,0.6)"/>
      <path id="Path_5015" data-name="Path 5015" d="M43.171,80.688a2.256,2.256,0,0,1-2.3,2.12A2.058,2.058,0,0,1,38.859,80.6a2.014,2.014,0,0,1,2.215-2.1,2.264,2.264,0,0,1,2.1,2.191" fill="rgba(215,210,181,0.6)"/>
      <path id="Path_5016" data-name="Path 5016" d="M38.864,48.819a1.909,1.909,0,0,1,2.108-2.039,2.185,2.185,0,0,1,2.212,2.159,2.406,2.406,0,0,1-2.191,2.147,2.236,2.236,0,0,1-2.129-2.267" fill="rgba(215,210,181,0.6)"/>
      <path id="Path_5017" data-name="Path 5017" d="M38.861,56.872a2.059,2.059,0,0,1,2.2-2.126,2.414,2.414,0,0,1,2.122,2.322,2.238,2.238,0,0,1-2.162,2,2.112,2.112,0,0,1-2.161-2.192" fill="rgba(215,210,181,0.6)"/>
      <path id="Path_5018" data-name="Path 5018" d="M40.978,70.4A2.423,2.423,0,0,1,43.2,72.642a2.324,2.324,0,0,1-2.144,2.17,2.028,2.028,0,0,1-2.195-2.134,2.18,2.18,0,0,1,2.118-2.28" fill="rgba(215,210,181,0.6)"/>
      <path id="Path_5020" data-name="Path 5020" d="M69.123,63.076a4.331,4.331,0,0,1,0,1.8C67.707,64.5,67.707,64.5,67.7,65.89c0,.8-.011,1.6,0,2.394,0,.531-.233.852-.775.828-.494-.021-.66-.371-.659-.825a25.041,25.041,0,0,1,.015-2.512c.1-.952-.341-1.174-1.166-1.131-.8.041-1.595.031-2.393.023-.471,0-.924-.128-.918-.7.006-.549.441-.73.911-.744.877-.027,1.759-.059,2.632,0,.758.051.978-.243.928-.96-.054-.754-.013-1.515-.012-2.273,0-.521-.069-1.144.677-1.158.822-.016.758.65.762,1.212a16.071,16.071,0,0,1-.011,1.914c-.138,1.209.359,1.509,1.433,1.122" fill="rgba(112,82,37,0.69)"/>
      <path id="Path_5021" data-name="Path 5021" d="M70.346,74.417c.565-1.212,1.919-1.692,3.518-1.245a3.536,3.536,0,0,1,2.291,4.753,3.575,3.575,0,1,1-6.48-2.991c.148-.263.266-.6.686-.532-.086.52-.627.876-.527,1.463l-.162.478c.042,2.161,1.322,3.482,3.293,3.4s3.141-1.528,2.95-3.682a.82.82,0,0,0-.231-.75,3.058,3.058,0,0,0-4.23-1.529c-.375.2-.739.423-1.108.636" fill="#d7d2b5"/>
      <path id="Path_5022" data-name="Path 5022" d="M55,55.22l.944.086A.823.823,0,0,1,55,55.224l0,0" fill="#b7a388"/>
      <path id="Path_5023" data-name="Path 5023" d="M75.915,76.06c.191,2.154-.967,3.6-2.95,3.682s-3.251-1.238-3.293-3.4a11.466,11.466,0,0,0,2.391-.047c1.285-.291,2.6.345,3.852-.236m-1.164,1.391-.006-.233h-4.23c0,.078.007.156.01.233Zm-.765,1.4c0-.107-.007-.214-.01-.321H71.184c1.013.667,1.918.272,2.8.321" fill="#fbfbfc"/>
      <path id="Path_5024" data-name="Path 5024" d="M69.834,75.866c-.1-.587.44-.944.527-1.463l-.015.014c.369-.212.732-.436,1.108-.636a3.058,3.058,0,0,1,4.23,1.53c-.106.607-.572.538-1,.539q-2.422.006-4.845.016m4.2-.977a2.977,2.977,0,0,0-2.293-.06,2.591,2.591,0,0,0,2.293.06" fill="#fbfbfc"/>
      <path id="Path_5025" data-name="Path 5025" d="M69.834,75.865q2.422-.007,4.844-.016c.434,0,.9.069,1.006-.539a.817.817,0,0,1,.23.75c-1.247.581-2.567-.055-3.852.236a11.455,11.455,0,0,1-2.39.047l.162-.478" fill="rgba(230,186,149,0.25)"/>
      <path id="Path_5026" data-name="Path 5026" d="M74.751,77.452H70.525c0-.078-.006-.156-.01-.233h4.23l.006.233" fill="rgba(230,186,149,0.25)"/>
      <path id="Path_5027" data-name="Path 5027" d="M73.986,78.851c-.884-.049-1.789.346-2.8-.321h2.792c0,.107.007.214.01.321" fill="rgba(230,186,149,0.25)"/>
      <path id="Path_5028" data-name="Path 5028" d="M74.036,74.889a2.591,2.591,0,0,1-2.293-.06,2.977,2.977,0,0,1,2.293.06" fill="rgba(230,186,149,0.25)"/>
    </g>
  </g>
</svg>
