<svg xmlns="http://www.w3.org/2000/svg" xmlns:xlink="http://www.w3.org/1999/xlink" width="114" height="91" viewBox="0 0 114 91">
  <defs>
    <clipPath id="clip-path">
      <rect id="Rectangle_1903" data-name="Rectangle 1903" width="114" height="91" fill="none"/>
    </clipPath>
  </defs>
  <g id="Group_1278" data-name="Group 1278" transform="translate(0 0)">
    <g id="Group_1139" data-name="Group 1139" transform="translate(0 0)" clip-path="url(#clip-path)">
      <path id="Path_17044" data-name="Path 17044" d="M25.243,19.069c.481-1.619,1.641-2.853,2.487-4.253a33.962,33.962,0,0,1,5.791-7.3,26.349,26.349,0,0,1,7.884-4.922C45.283.956,49.264-.228,53.559.037a26.269,26.269,0,0,1,7.1,1.542,29.537,29.537,0,0,1,7.786,4.315c1.359,1,2.525,2.269,3.975,3.176a22.761,22.761,0,0,0,8.374,2.956c2.21.384,4.437.656,6.65,1a50.936,50.936,0,0,1,6.473,1.318,17.185,17.185,0,0,1,6.387,3.629,21.566,21.566,0,0,1,5.54,7.452,40.912,40.912,0,0,1,2.309,6.4,36.251,36.251,0,0,1,.785,6.443,20.637,20.637,0,0,1-.395,5.3,30.3,30.3,0,0,1-3.73,10.386,37.492,37.492,0,0,1-9.193,10.9c-.84.646-1.478,1.674-2.683,1.791q-.057-2.137-.114-4.275c.2-.467.846-.856.254-1.461.006-.165.011-.331.017-.5a3.723,3.723,0,0,0,2.6.49.634.634,0,0,0,.672-.539.792.792,0,0,0-.424-.884c-.535-.344-1.153-.146-1.738-.309.1-.466.2-.915.293-1.364,1.1-.094,2.154.4,3.265.265.419-.051.791-.059.783-.626-.008-.526-.252-.824-.778-.826a3.87,3.87,0,0,0-1.625.095c-.869.432-.675-.135-.692-.576.116-.022.318-.017.334-.069.637-2.12,2.345-1.892,3.976-1.846.547.016.964-.181.9-.814-.059-.606-.424-.845-1.051-.87a3.293,3.293,0,0,0-2.13.808,7.7,7.7,0,0,0,.591-1.744c.061-1.427.5-2.306,2.153-1.962a2.639,2.639,0,0,0,1.034-.2c.462-.111.843-.374.785-.883-.055-.481-.435-.713-.923-.763a3.135,3.135,0,0,0-1.874.636c-.214.119-.457.48-.665.052-.409-.848-1.409-1.043-1.9-1.81a.716.716,0,0,0-1.139-.137.9.9,0,0,0-.128,1.194A3.735,3.735,0,0,0,96.794,49c1.342.888,1.339,2.392-.022,3.433a9.1,9.1,0,0,0-.355-1c-.218-.448-.343-1.011-1.014-1.022-.329,0-.66.012-.805.363a1.251,1.251,0,0,0,.325,1.529c1.628,1.074,1.52,2.307.536,3.713-.02.028-.009.078-.012.117-.571-.026-.32-.449-.42-.75-.223-.679-.328-1.56-1.116-1.81-.606-.192-.788.5-1.057.908l.434-3.838V50.4a1.9,1.9,0,0,0,.008-.226c-.157-.559.416-1.32-.463-1.679-.011-1.584-1.33-1.853-2.385-2.386,0-.322,0-.646,0-.969a1.053,1.053,0,0,0,.819-.576,2.021,2.021,0,0,0-1.382-3.127c-1.635-.388-2.056-.2-1.991,1.225-.038.889-.279,1.8.513,2.553.175.165.1.594.139.9-1.286.619-2.589,1.207-3.852,1.871-.5.263-1.158.346-1.4.993-.13-.076-.357-.133-.375-.23A13.6,13.6,0,0,0,81.266,45.1c-.871-1.724-2.223-3.271-1.965-5.429.047-.393-.422-.153-.66-.171l-.947-1.913c.422-.177,1.133.275,1.252-.527.054-.363.211-1.026-.191-1.068-1.394-.145-.876-1.142-.9-1.843-.053-1.546-.017-3.094-.019-4.642,0-2.269-.652-2.92-2.875-2.923q-5.637-.009-11.274-.037c0-1.867.028-3.734.008-5.6-.014-1.251-.51-1.793-1.7-1.8-3.287-.015-6.573.013-9.859.024-.455-.516-1.486-.022-1.684-.795-.279-1.087-.978-1.206-1.878-1.169-.711.029-1.426-.026-2.135.015s-1.1-.052-1.255-.942a3.829,3.829,0,0,0-3.5-3.059c-1.629-.151-3.494.743-3.865,2.345-.4,1.736-1.411,1.748-2.712,1.653-.512-.038-1.029,0-1.542,0-.379,0-.883.1-.914.413-.126,1.229-1.2,1.126-1.922,1.519l-5.483-.075m61.865,4.617c-.395-.169-.172-1.043-.551-.841a3.237,3.237,0,0,0-1.221,1.226c-.2.38.669.156.839.55.029.288-.089.7.4.664.379-.03.278-.394.308-.648l.244-.243c.253-.032.616.07.646-.31.038-.487-.376-.369-.662-.4m13.455,16.522c.777-.9,1.51-1.887,3-1.33a3.984,3.984,0,0,0,1.534.058c.6-.031,1.157-.216,1.029-.98-.12-.705-.522-.919-1.292-.77a12.288,12.288,0,0,0-5.122,2.706c0-.729.025-1.272-.007-1.811-.038-.649-.384-1.092-1.06-.992a.939.939,0,0,0-.779,1.25,2.477,2.477,0,0,0,.507,1.189c.761.786.528,1.563.173,2.4-.173.4-.325.892-.74,1.014-.575.169-.413-.55-.706-.781-.452-.355-.72-1.243-1.5-.57-.76.656-.175,1.215.272,1.711a3.86,3.86,0,0,0,.848.639A3.223,3.223,0,0,1,98.3,45.743c.223-.779.672-.839,1.218-.846a5.489,5.489,0,0,0,1.5-.29c.515-.157,1.014-.442.8-1.1-.2-.627-.635-.764-1.317-.574s-1.158.8-1.89.888c-.061-1.88.824-2.667,2.41-2.163a4.569,4.569,0,0,0,1.524.147.912.912,0,0,0,.9-.658c.149-.471-.229-.705-.55-.948-.783-.587-1.508.034-2.337.009m-12.6-11.933c1.2-.023,1.378.865,1.739,1.941.163-1.262.683-1.844,1.745-1.951a1.826,1.826,0,0,1-1.825-1.621,1.692,1.692,0,0,1-1.658,1.631" transform="translate(-0.207 0)" fill="#daedfc" opacity="0.55"/>
      <path id="Path_17045" data-name="Path 17045" d="M97.858,80.4a43.94,43.94,0,0,1,6.192.819,47.587,47.587,0,0,1,7.655,1.832,5.036,5.036,0,0,1,1.684.82c.938.741.776,1.7-.34,2.232a25.167,25.167,0,0,1-6.571,1.994c-2.051.361-4.093.766-6.166.988-2.657.286-5.289.751-7.97.892-3.849.2-7.686.66-11.534.89-3.551.213-7.117.166-10.667.322-7.641.336-15.281.166-22.919.162-4.934,0-9.878-.154-14.8-.492-4.353-.3-8.705-.678-13.053-1.1-4.583-.446-9.121-1.136-13.642-1.964A17.917,17.917,0,0,1,.875,86.1c-1.12-.567-1.13-1.266-.227-2.14a7.517,7.517,0,0,1,3.514-1.6c3.3-.893,6.7-1.289,10.059-1.925a9.14,9.14,0,0,1,1.542-.035q.006,1.443.013,2.884c-.641,1.1-.3,2.219-.124,3.525.6-1.3.613-1.311,1.514-.277a1.756,1.756,0,0,0,1.277.5c.278.03.679.214.842-.152s-.212-.561-.435-.752a4.122,4.122,0,0,1-1.67-2.616,11.659,11.659,0,0,1,1.645-5.246c.01.591.031,1.181.029,1.772-.012,3.419-.013,3.419,3.434,3.478a5.3,5.3,0,0,0,.123,3.557c.47-1.413.482-1.424,1.427-.391a1.379,1.379,0,0,0,1.056.434c.381.012.906.239,1.095-.15.22-.454-.354-.62-.628-.864-.79-.7-1.625-1.375-1.526-2.6l13.1-.018a2.589,2.589,0,0,0,2.282.966c3.547.017,7.092,0,10.639.011a2.233,2.233,0,0,0,1.138-.246c.946,2.22,2.066,2.739,4.375,2.033,1.012-.309,2.027-.608,3.038-.923.377-.116.743-.292,1.113.007a1.89,1.89,0,0,0,1.423,2.264,10.426,10.426,0,0,0,5.464.505c2.968-.493,3.313-.841,3.426-3.8,2.017-.018,4.035-.07,6.051-.036a1.923,1.923,0,0,0,1.942-1.06c.178.259.45.257.726.3A3.825,3.825,0,0,0,82.3,82.237a22.129,22.129,0,0,1,2.539-.069c.939.075,1.291-.221,1.037-1.15a2.416,2.416,0,0,1,.479-1.172.162.162,0,0,1,.075-.16c2.014-.569,4.012.114,6.015.163.443.011,1.291-.346,1.646.442-.323.533-1.042.91-.666,1.8a13.693,13.693,0,0,0,3.1-1.691h1.33" transform="translate(0 -0.394)" fill="#eaf0f7"/>
      <path id="Path_17046" data-name="Path 17046" d="M16.558,65.574c-1.541-.574-2.249-2.02-3.233-3.161a26.755,26.755,0,0,1-4.792-8.586A22.532,22.532,0,0,1,7,46.313c0-2.932-.128-5.878.763-8.711A17.3,17.3,0,0,1,11.2,31.622c1.61-1.9,3.836-2.959,5.684-4.522.653-.553,1.321-1.088,1.983-1.632.014,1.146.035,2.292.04,3.44q.033,7.711.059,15.425a2.38,2.38,0,0,0-.573,1.408,3.361,3.361,0,0,1-1.721,3.286,1.442,1.442,0,0,0-.555,1.879c.164.5.36.985-.073,1.447-.705.485-1.247.261-1.777-.336-.488-.547-1.058-1.022-1.592-1.528-.129-.371-.287-.735-.381-1.115-.1-.414-.06-.936-.671-.934s-.44.631-.663.939a9.785,9.785,0,0,0-1.107-.693.669.669,0,0,0-.777.093c-.244.267-.015.5.133.731.515.812,1.031,1.613,2.171,1.529A8.65,8.65,0,0,0,13.959,55.3a1.678,1.678,0,0,0,2.531-.069l.77.092a19.268,19.268,0,0,1-.626,5.366c-.148.681-.23,1.323.429,1.8a14.675,14.675,0,0,1-.5,3.088" transform="translate(-0.057 -0.128)" fill="#daedfc" opacity="0.55"/>
      <path id="Path_17047" data-name="Path 17047" d="M87.115,79.585a.157.157,0,0,0-.074.16L85.43,79.9c-1.026-.35-.448-1.34-.78-1.966q-.068-.413-.138-.825l.045-.07-.059-.07c-.011-.165-.021-.331-.031-.5l-.036-.463q-.071-.4-.144-.8l.042-.087-.064-.08A10.15,10.15,0,0,0,84,72.672a19.307,19.307,0,0,1,.269-7.555c.235-.795.36-1.622.536-2.435l.65-.093c.276-.02.638.261.779-.227.028-.15.057-.3.084-.452.014-.235.028-.469.041-.7q.147-1.307.294-2.614c.325-.026.639-.747.978-.017,0,.081,0,.161,0,.242l-.065.835c-.032.11-.063.221-.1.331L87.4,61.2c-.061,1.7.365,2.142,2.1,2.185a4.072,4.072,0,0,0,1.942-.172l1.857-.552q.057,2.137.114,4.275a6.8,6.8,0,0,0,1.139,4.453c.268.43.515.873.772,1.309q.588,2.237,1.174,4.474c.15.571.4,1.131-.46,1.427-.757.26-1.237.3-1.724-.551-1.542-2.708-3.2-5.349-4.817-8.016a5.211,5.211,0,0,0-.833-2.62c-.382,1.278-1.517,2.019-1.051,3.338a81.576,81.576,0,0,1-.5,8.831" transform="translate(-0.686 -0.293)" fill="#365997"/>
      <path id="Path_17048" data-name="Path 17048" d="M16.632,65.761a14.675,14.675,0,0,0,.5-3.088,67.671,67.671,0,0,1,7.326.224q.373,1.549.748,3.1.113.481.227.961a.257.257,0,0,0,.021.228.429.429,0,0,0,.138.476l.559,2.872c.05,1.178.447,2.44-.8,3.3a.162.162,0,0,0-.183.062,23.189,23.189,0,0,0-3.345.123,1.384,1.384,0,0,0-.924.033l-3.783-.224c-.964-.244-1.091-.968-1.1-1.819-.025-2.107.51-4.157.611-6.249" transform="translate(-0.131 -0.315)" fill="#262945"/>
      <path id="Path_17049" data-name="Path 17049" d="M87.143,79.645a81.576,81.576,0,0,0,.5-8.831c.66-.156,1.175-.693,1.884-.718,1.615,2.667,3.275,5.308,4.817,8.016.487.855.967.811,1.724.551.86-.3.61-.856.46-1.427Q95.938,75,95.35,72.761c1.267-.05,1.8.17,1.641,1.945-.1,1.079.22,2.141.053,3.233a1.067,1.067,0,0,0,.757,1.086,1.234,1.234,0,0,1,.771,1.33h-1.33c-.593-1.311-1.163-1.336-2.437-.106-.355-.789-1.2-.432-1.647-.443-2-.049-4-.732-6.014-.162" transform="translate(-0.713 -0.353)" fill="#fbfbfc"/>
      <path id="Path_17050" data-name="Path 17050" d="M19.062,44.3Q19.034,36.588,19,28.875c0-1.146-.026-2.292-.04-3.439q0-2.264,0-4.527c0-.158.007-.317.01-.476a.323.323,0,0,0,.046-.216.58.58,0,0,0,.26-.5l.926-.5.116.016.108-.046,3.575,0h.24l.941-.02,5.483.075,0,1.178q-4.39.007-8.782.019c-1.272,0-1.68.372-1.68,1.595q0,11.011.023,22.021a1.838,1.838,0,0,1-1.176.247" transform="translate(-0.155 -0.096)" fill="#2376bd"/>
      <path id="Path_17051" data-name="Path 17051" d="M17.121,73.886l3.783.225c-.17.738-.9,1.094-1.19,1.752,0,.874-.759,1.506-.76,2.382a11.664,11.664,0,0,0-1.645,5.245l-1.4-.229q-.006-1.442-.013-2.883a18.121,18.121,0,0,1,1.229-6.492" transform="translate(-0.13 -0.372)" fill="#f5ccce"/>
      <path id="Path_17052" data-name="Path 17052" d="M18.979,20.44c0,.159-.007.317-.01.477-.2-.163-.2-.322.01-.477" transform="translate(-0.154 -0.103)" fill="#daedfc"/>
      <path id="Path_17053" data-name="Path 17053" d="M19.286,19.725a.585.585,0,0,1-.26.5.427.427,0,0,1,.26-.5" transform="translate(-0.156 -0.099)" fill="#daedfc"/>
      <path id="Path_17054" data-name="Path 17054" d="M24.292,19.186h-.239c.079-.112.159-.111.239,0" transform="translate(-0.197 -0.096)" fill="#daedfc"/>
      <path id="Path_17055" data-name="Path 17055" d="M20.445,19.19l-.108.046-.116-.016c.06-.125.133-.146.224-.03" transform="translate(-0.166 -0.096)" fill="#daedfc"/>
      <path id="Path_17056" data-name="Path 17056" d="M63.926,26.677q5.638.019,11.275.037c2.224,0,2.874.655,2.875,2.923,0,1.547-.034,3.1.019,4.642.023.7-.495,1.7.9,1.843.4.042.245.7.191,1.068-.119.8-.83.35-1.251.527-.626-.693-1.251.084-1.878,0L56.414,37.7c-.628-.179-1.344.234-1.919-.292.125-.47-.083-1,.247-1.431l.018-.008.233-.025c.671.158,1.072.016.961-.8-.058-.429-.037-.869-.052-1.3,0-.243,0-.487.008-.729L55.9,30.738c0-.162,0-.325,0-.488.017-.278.045-.554.049-.832.028-2.028.7-2.681,2.742-2.7.832-.007,1.663-.036,2.494-.055l1.47.012h1.273m10.343,4.776c0,.833-.008,1.665,0,2.5,0,.378-.079.919.451.919.4,0,.434-.56.443-.861.05-1.7.038-3.408.037-5.112,0-.326-.063-.694-.489-.664-.4.029-.438.4-.441.722-.007.832,0,1.665,0,2.5m-14.756.118h0c0-.911.007-1.824,0-2.735,0-.289-.091-.572-.433-.612a.417.417,0,0,0-.463.436,35.468,35.468,0,0,0,.109,5.687c.037.226.044.646.457.536.305-.081.338-.407.338-.694q0-1.309,0-2.618m6.91.105c0,.831,0,1.662,0,2.492,0,.321.024.71.423.732.494.027.508-.406.509-.764q.01-2.551,0-5.1c0-.329-.033-.667-.483-.653s-.45.361-.452.684c0,.87,0,1.74,0,2.611m4.758-.058c0-.749.022-1.5-.009-2.248-.015-.384.2-.991-.5-.971-.6.016-.419.566-.426.919-.023.986-.016,1.972-.006,2.958.007.63.012,1.261.075,1.885.026.255.148.581.5.567.39-.017.357-.36.361-.626.01-.829,0-1.657.006-2.485m-7.85,0c0-.872.006-1.743,0-2.614,0-.273,0-.611-.4-.587-.309.019-.317.307-.318.543q-.006,2.615,0,5.229c0,.24.027.526.333.53.393.006.378-.335.381-.606.009-.832,0-1.664,0-2.5" transform="translate(-0.446 -0.134)" fill="#6fa6d6"/>
      <path id="Path_17057" data-name="Path 17057" d="M30.774,20.389l0-1.178c.721-.393,1.8-.291,1.922-1.519.032-.31.536-.416.913-.413.515,0,1.031-.034,1.543,0,1.3.1,2.31.084,2.712-1.653.371-1.6,2.237-2.5,3.865-2.345a3.83,3.83,0,0,1,3.5,3.059c.151.89.542.984,1.254.942s1.425.014,2.136-.015c.9-.037,1.6.082,1.878,1.169.2.773,1.228.279,1.684.795q0,.56,0,1.119l-.335.247-.392.035c-.643-.642-1.269.021-1.9.023l.008,0c-.058-.127-.1-.349-.177-.364-.266-.052-.247.194-.283.367L33.62,20.656c.021-.137.093-.426,0-.386-.538.236-1.2-.073-1.667.388l-.455,0a.523.523,0,0,0-.187-.032Zm11.587-4.87c-.09-.425-.282-.843-.873-.865a.824.824,0,0,0-.97.809.87.87,0,0,0,.9,1.025c.571.04.836-.36.945-.969" transform="translate(-0.252 -0.066)" fill="#126dad"/>
      <path id="Path_17058" data-name="Path 17058" d="M83.769,49.216c.239-.647.9-.731,1.4-.993,1.263-.665,2.565-1.253,3.852-1.871.206.1.237.295.258.494A21.185,21.185,0,0,0,88,51.338c1.54-1.311,1.687-2.92,1.918-4.494.423.013.661-.345,1-.5,1.056.533,2.374.8,2.385,2.385.236.94-.408,1.614-.716,2.39l0,0a.466.466,0,0,0-.236.474l0,0A8.142,8.142,0,0,0,89.5,54.221l-.006.007a1.955,1.955,0,0,0-1.444.507l-.668.025A.571.571,0,0,0,86.4,54.7l-.476.006c-.4-.427-.536-.014-.727.226l-.434.052c-.348-.185-.7-.467-1.031.024l-.668-.056c.164-.91-.319-1.889.3-2.751a2.734,2.734,0,0,1,.6.365c.33.342.7.433,1.031.11.3-.293-.034-.575-.192-.83-.247-.4-.509-.783-.765-1.173l-.262-1.453" transform="translate(-0.68 -0.233)" fill="#fbfbfc"/>
      <path id="Path_17059" data-name="Path 17059" d="M87.595,59.617l.065-.835c1.47.44,2.055-.009,1.888-1.46a23.435,23.435,0,0,1-.019-2.6c0-.157,0-.314,0-.471l.007-.007a4.945,4.945,0,0,0,2.85-2.621l0,0a.466.466,0,0,0,.236-.474l0,0,.709-.24.462,0-.434,3.837c0,.144,0,.29,0,.434-.011.167-.022.334-.032.5a2.6,2.6,0,0,0,0,3.1c.016.25.031.5.047.748l.22,1.139-.018.5c-1.011.345-2.409.284-2.11,2.012a4.074,4.074,0,0,1-1.942.172c-.026-1.636-.541-2.171-2.1-2.184l.071-1.218c.032-.111.064-.222.1-.332" transform="translate(-0.716 -0.256)" fill="#fefefe"/>
      <path id="Path_17060" data-name="Path 17060" d="M101.141,40.4c.829.024,1.554-.6,2.336-.009.323.243.7.477.551.948a.912.912,0,0,1-.9.658,4.6,4.6,0,0,1-1.524-.147c-1.587-.5-2.471.283-2.41,2.163.731-.09,1.207-.7,1.889-.888s1.115-.053,1.317.574c.212.66-.287.944-.8,1.1a5.489,5.489,0,0,1-1.5.29c-.546.007-.994.067-1.218.846a3.214,3.214,0,0,0-1.58-1.806,3.9,3.9,0,0,1-.849-.639c-.445-.5-1.031-1.056-.272-1.711.781-.673,1.05.215,1.5.57.3.231.131.949.708.781.414-.121.565-.61.738-1.014.355-.834.589-1.612-.173-2.4a2.491,2.491,0,0,1-.507-1.189.94.94,0,0,1,.781-1.25c.675-.1,1.022.343,1.058.991.032.539.007,1.083.007,1.812a12.306,12.306,0,0,1,5.122-2.706c.772-.149,1.172.065,1.293.77.129.764-.431.948-1.029.98a3.979,3.979,0,0,1-1.533-.058c-1.495-.557-2.229.431-3,1.33" transform="translate(-0.784 -0.187)" fill="#98d5f8"/>
      <path id="Path_17061" data-name="Path 17061" d="M96.019,56.373c0-.04-.008-.09.012-.117.985-1.406,1.092-2.64-.536-3.713a1.251,1.251,0,0,1-.325-1.529c.146-.351.476-.368.805-.363.669.012.8.575,1.014,1.022a9.175,9.175,0,0,1,.355,1c1.361-1.041,1.364-2.543.022-3.432a3.746,3.746,0,0,1-1.377-1.275.9.9,0,0,1,.128-1.194.717.717,0,0,1,1.139.137c.486.768,1.487.962,1.9,1.81.207.428.45.069.665-.052a3.141,3.141,0,0,1,1.873-.636c.488.051.87.283.924.763.059.508-.322.771-.785.884a2.659,2.659,0,0,1-1.034.2c-1.657-.343-2.092.535-2.153,1.962a7.751,7.751,0,0,1-.591,1.744,3.293,3.293,0,0,1,2.13-.808c.627.025.993.265,1.051.87.061.633-.356.83-.9.814-1.631-.047-3.338-.275-3.975,1.846-.016.052-.219.047-.334.069l0,0" transform="translate(-0.778 -0.234)" fill="#98d5f8"/>
      <path id="Path_17062" data-name="Path 17062" d="M52.355,20.384c0-.373,0-.746,0-1.119,3.286-.011,6.572-.039,9.859-.024,1.19,0,1.686.547,1.7,1.8.02,1.867,0,3.734-.008,5.6H62.635c0-1.423.007-2.845,0-4.267-.01-1.74-.214-1.935-2.009-1.946q-4.134-.024-8.27-.043" transform="translate(-0.429 -0.097)" fill="#2376bd"/>
      <path id="Path_17063" data-name="Path 17063" d="M83.718,49.183l.262,1.453-.372.033c-.245-.22-.719-.121-.821-.507-.753-2.864-2.379-5.351-3.467-8.07-.152-.38-.433-1.013-1.029-.7a.986.986,0,0,0-.336,1.248c.368,1.159.76,2.316,1.034,3.5.45,1.942,1.4,3.737,1.655,5.733l-.662.477c-.784-2.533-1.612-5.052-2.328-7.6a14.085,14.085,0,0,1-.805-3.686c.3.014.592,0,.762-.313l.034.049.4-.048c-.039-.08-.078-.16-.117-.241a.636.636,0,0,1,.682-.172l.387-.252c.024-.128.047-.257.07-.386.239.019.706-.221.66.171-.257,2.159,1.094,3.705,1.966,5.429a13.668,13.668,0,0,1,1.656,3.656c.017.1.244.154.374.23" transform="translate(-0.629 -0.199)" fill="#d6e2f2"/>
      <path id="Path_17064" data-name="Path 17064" d="M93.414,55.192c0-.144,0-.29,0-.434.269-.412.45-1.1,1.057-.907.788.25.892,1.13,1.116,1.809.1.3-.152.724.42.75l0,0c.016.442-.178,1.008.691.576a3.872,3.872,0,0,1,1.625-.094c.526,0,.771.3.779.826.008.566-.365.574-.784.626-1.11.135-2.163-.359-3.265-.266l.006.006c0-1.277-1.1-1.924-1.641-2.89" transform="translate(-0.765 -0.271)" fill="#98d5f8"/>
      <path id="Path_17065" data-name="Path 17065" d="M89.321,46.827c-.021-.2-.052-.393-.259-.494-.04-.307.036-.736-.139-.9-.791-.752-.55-1.664-.513-2.553.557-.5,1.391-.714,1.713-.114.27.5.636.546.915.819.419.407-.519.911-.283,1.5a1.292,1.292,0,0,0,.207.277c0,.323,0,.647,0,.969-.34.153-.579.511-1,.5l-.644,0" transform="translate(-0.723 -0.213)" fill="#f5ccce"/>
      <path id="Path_17066" data-name="Path 17066" d="M79.057,39.685c-.024.128-.047.258-.07.386l-.387.252a.632.632,0,0,0-.682.172c-.092.1-.185.192-.279.289l-.035-.049-.775.105a4.694,4.694,0,0,1-.783-2.646l.187-.421c.626.083,1.251-.7,1.877,0l.946,1.913" transform="translate(-0.623 -0.189)" fill="rgba(111,166,214,0.5)"/>
      <path id="Path_17067" data-name="Path 17067" d="M90.964,45.351a1.352,1.352,0,0,1-.208-.276c-.236-.586.7-1.091.284-1.5-.28-.272-.646-.317-.915-.819-.322-.6-1.156-.385-1.714.114-.065-1.426.357-1.613,1.991-1.225a2.022,2.022,0,0,1,1.383,3.127,1.053,1.053,0,0,1-.819.576" transform="translate(-0.724 -0.209)" fill="#31364e"/>
      <path id="Path_17068" data-name="Path 17068" d="M93.648,60.7q-.11-.57-.221-1.139c.674-.34.709-1.4,1.63-1.462L95.05,58.1c-.1.449-.192.9-.293,1.363.585.163,1.2-.034,1.739.309a.794.794,0,0,1,.424.885.634.634,0,0,1-.672.539,3.728,3.728,0,0,1-2.6-.49" transform="translate(-0.765 -0.292)" fill="#98d5f8"/>
      <path id="Path_17070" data-name="Path 17070" d="M91.5,63.231c-.3-1.728,1.1-1.667,2.111-2.012.592.6-.054.993-.254,1.46l-1.857.552" transform="translate(-0.749 -0.308)" fill="#fbfbfc"/>
      <path id="Path_17072" data-name="Path 17072" d="M93.379,50.892l-.709.24c.308-.775.952-1.45.716-2.389.879.359.306,1.12.463,1.679-.075,0-.152,0-.227,0a.484.484,0,0,0-.243.471" transform="translate(-0.759 -0.245)" fill="#eaf0f7"/>
      <path id="Path_17075" data-name="Path 17075" d="M93.385,50.9a.484.484,0,0,1,.243-.471l.219.227V50.9l-.462,0" transform="translate(-0.765 -0.254)" fill="#fbfbfc"/>
      <path id="Path_17076" data-name="Path 17076" d="M93.849,50.658l-.22-.228c.076,0,.153,0,.228,0a1.91,1.91,0,0,1-.008.226" transform="translate(-0.767 -0.254)" fill="#fefefe"/>
      <path id="Path_17077" data-name="Path 17077" d="M30.688,20.425l.538.234.188.031.455,0c.718.177.551.761.559,1.251.017,1.023.42,1.7,1.533,1.7q7.309.01,14.618,0c1.043,0,1.727-.5,1.6-1.595-.121-1.006.305-1.342,1.189-1.378l.392-.035c2.757.014,5.514.062,8.271.021.891-.013,1.11.276,1.144,1.147.062,1.626-.312,3.214-.269,4.83-.831.019-1.663.048-2.494.055-2.047.017-2.715.671-2.743,2.7,0,.278-.031.554-.048.832H42.979c0,.163,0,.325,0,.489H55.621q0,1.186.008,2.375a5.23,5.23,0,0,1-1.748.25q-4.877-.024-9.754,0c-.391,0-.835-.129-1.143.482H55.622a12.976,12.976,0,0,0,.052,1.3c.11.816-.29.957-.961.8-.092-.125-.169-.108-.233.025l-.018.008a4.293,4.293,0,0,1-1.655.377,74.312,74.312,0,0,0-7.446-.128c-.32-.008-.743.022-.732.407.013.46.481.295.759.3,2.487.014,4.975.012,7.462.007.515,0,1.039-.062,1.365.473.574.525,1.291.113,1.918.292A2.24,2.24,0,0,1,55.47,38.9c-1.408,1.613-2.465,3.227-2.249,5.648.3,3.336.092,6.717.1,10.079q-.01.561-.022,1.121c.007.186.014.372.02.558q0,7.589,0,15.178c0,.261,0,.52,0,.781a1.18,1.18,0,0,0-.024.2l-.036.292.11,7.749-1.758,1.041c-.121-.372.115-.693.149-1.043a2.173,2.173,0,0,0-1.9-2.31,2.083,2.083,0,0,0-2.525,2,2.05,2.05,0,0,0,1.948,2.344c.807.1,1.386-.442,2.108-.527q-.119.955-.237,1.91a2.231,2.231,0,0,1-1.138.246c-3.546-.007-7.092.006-10.638-.011a2.589,2.589,0,0,1-2.283-.967c-.011-.267-.023-.534-.034-.8.349-3.4-.2-6.8-.141-10.209.06-3.6.12-7.223-.023-10.839-.139-3.5-.044-7.012-.025-10.52.01-1.934.215-3.88.07-5.8-.153-2.014.4-2.862,2.358-2.862,3.726,0,7.452,0,11.18-.009.278,0,.751.164.759-.3.008-.381-.419-.4-.741-.4-.238,0-.476,0-.714,0-3.766,0-7.533.028-11.3-.011-2.091-.022-2.6.891-2.6,2.6.05,10.576.008,21.155.053,31.732a1.782,1.782,0,0,1-1.211,1.912A39.154,39.154,0,0,1,24.5,80.346c.057-2.24.895-4.4.7-6.662a.16.16,0,0,1,.183-.062c.546.527.244,1.2.279,1.8.046.793.37,1.305,1.178,1.328,1.382.038,2.765.007,4.148.011.582,0,.819-.278.889-.863a15.579,15.579,0,0,0,.009-4.463c-.109-.653-.394-.8-.99-.9a31.148,31.148,0,0,0-4.715-.217l-.559-2.873c.5.054.811.551,1.4.508,1.1-.08,2.21-.03,3.315-.021a1.544,1.544,0,0,0,1.716-1.562,17.555,17.555,0,0,0-.1-3.66,1.242,1.242,0,0,0-1.4-1.207c-1.1-.04-2.215.044-3.316-.027-1.162-.075-1.57.5-1.563,1.549a5.192,5.192,0,0,1-.439,2.756q-.373-1.549-.748-3.1a1.468,1.468,0,0,0,.1-1.241,13.336,13.336,0,0,1-.5-2.3,6.983,6.983,0,0,1-.117-3.306l1.477,1.372c.015.207.053.4.322.4l0-.018c-.193.754.245,1.48.812,1.436,1.305-.1,2.589.291,3.87.056a1.527,1.527,0,0,0,1.486-1.364c.232-1.231-.074-2.436.154-3.634a3.292,3.292,0,0,0,1.853-1.851c.064-.209.234-.646-.266-.565-.746.121-1.506.911-2.189-.15-.061-.094-.366.088-.456.278-.133.284-.242.579-.361.87-1.592.12-3.211-.285-4.78.258-1.041-1.033-1.726-2.467-3.273-2.93-.058-.3-.116-.594-.175-.89,1.429-.493,1.041-1.681,1.037-2.723.028-.114.054-.23.083-.344a1.982,1.982,0,0,0-.656-2.226,1.479,1.479,0,0,0-2.11.172c-.117.1-.367.058-.555.082q-.015-11.011-.024-22.021c0-1.223.409-1.59,1.681-1.595q4.39-.018,8.781-.019M44.948,52.41l-.238.222H37.85a41.246,41.246,0,0,0,6.164.259c.719-.012.976.219.959.954-.043,1.829-.061,3.66,0,5.487.034.929-.223,1.246-1.19,1.208-1.987-.079-3.978-.024-5.967-.024a33.329,33.329,0,0,0,5.919.246c1.029-.044,1.278.319,1.239,1.284-.07,1.707-.06,3.421,0,5.129.029.882-.153,1.282-1.158,1.243-2.068-.081-4.141-.024-6.212-.024a42.318,42.318,0,0,0,6.275.248c.808-.018,1.125.2,1.1,1.062q-.089,2.68,0,5.367c.032.912-.2,1.265-1.181,1.227-1.991-.077-3.986-.023-5.979-.023a37.382,37.382,0,0,0,6.036.239c.917-.03,1.151.29,1.124,1.16-.06,1.836-.018,3.674-.018,5.511-.026-1.731.666-3.42.291-5.177-.284-1.327-.074-1.471,1.323-1.473q3.01-.006,6.019,0a44.061,44.061,0,0,0-6.269-.248c-.82.014-1.139-.28-1.121-1.11.038-1.789.071-3.581-.011-5.367-.047-1.007.354-1.193,1.24-1.17,2.05.053,4.1.017,6.153.017A42.01,42.01,0,0,0,46.94,68.4c-1.53,0-1.843-.209-1.692-1.767.153-1.59-.11-3.15-.064-4.727.026-.888.26-1.169,1.152-1.143,2.086.061,4.175.019,6.262.019a40.749,40.749,0,0,0-6.148-.244c-.916.023-1.362-.262-1.236-1.22a28.493,28.493,0,0,0,0-3.772c0-2.642,0-2.642,2.584-2.641h4.773a51.462,51.462,0,0,0-6.159-.265c-.4,0-.9.147-.982-.54a21.626,21.626,0,0,1-.147-4.98,1.449,1.449,0,0,0-.333-1.3ZM31.135,27.094a5.961,5.961,0,1,0,5.971,5.783,5.877,5.877,0,0,0-5.971-5.783m-2.4,22.94c.672,0,1.344-.006,2.015,0a.95.95,0,0,0,1.073-.745,13.743,13.743,0,0,0,.013-4.929.621.621,0,0,0-.579-.511,19.832,19.832,0,0,0-2.1-.246c-3.4-.064-3.465.013-3.47,3.337s-.248,3.112,3.052,3.093M41,62.249a2.211,2.211,0,0,0-2.408,2.084,2.142,2.142,0,0,0,2.089,2.375A2.236,2.236,0,0,0,41,62.249m8.592-3.355a2.17,2.17,0,1,0-.123-4.337,2.009,2.009,0,0,0-2.129,2.162,2.055,2.055,0,0,0,2.252,2.175m-2.256,5.637a2.235,2.235,0,0,0,2.18,2.191,2.61,2.61,0,0,0,2.248-2.293,2.3,2.3,0,0,0-2.349-2.177,2.161,2.161,0,0,0-2.08,2.279M49.4,69.6a2.906,2.906,0,0,0-2.769,2.645,3.3,3.3,0,0,0,2.683,3,3.065,3.065,0,0,0,3.017-3.208A2.719,2.719,0,0,0,49.4,69.6m.1-23.627a2.75,2.75,0,1,0-.1,5.5,2.752,2.752,0,1,0,.1-5.5M43.534,80.353a2.656,2.656,0,0,0-2.681-2.862,2.891,2.891,0,0,0-2.8,2.927A2.667,2.667,0,0,0,40.8,83.2a2.8,2.8,0,0,0,2.731-2.849M38.056,48.729a2.74,2.74,0,1,0,5.479-.1,2.965,2.965,0,0,0-2.794-2.818,2.96,2.96,0,0,0-2.685,2.914M40.679,59.35c1.782,0,2.845-.964,2.855-2.6a2.678,2.678,0,0,0-2.757-2.891,2.83,2.83,0,0,0-2.719,2.855,2.348,2.348,0,0,0,2.62,2.638m-2.62,13.079A2.474,2.474,0,0,0,40.8,75.1a2.542,2.542,0,0,0,2.737-2.6,2.8,2.8,0,0,0-2.86-3.054,3.013,3.013,0,0,0-2.613,2.988m7.069-27.89c1.106,0,2.212,0,3.319,0,.316,0,.538-.129.531-.488,0-.291-.166-.453-.45-.4-2.195.4-4.409.075-6.611.184-.254.013-.648-.087-.632.317.013.311.352.389.645.39q1.6,0,3.2,0" transform="translate(-0.166 -0.103)" fill="#fbfbfc"/>
      <path id="Path_17078" data-name="Path 17078" d="M78.375,83.158a1.924,1.924,0,0,1-1.942,1.059c-2.016-.033-4.034.019-6.051.037a4.722,4.722,0,0,0-3.126-1.614c.111-.6.573-1.106.513-1.762l-.007-.02a.637.637,0,0,0,.141-.745,7.966,7.966,0,0,1-.577-4c.068-.9.074-1.795.108-2.693,0-.145.007-.291.01-.437,0-.173,0-.347,0-.52-.028-.166-.056-.333-.084-.5l.021-.088q.057-.906.112-1.812a5.148,5.148,0,0,1,1.979-1.937l6.779.044a3.918,3.918,0,0,1,2.164,3.585c0,.081,0,.161,0,.242l.054.414c-.245.188-.28.378,0,.57-.024.3-.049.6-.072.905l0-.01c-.156.1-.13.213-.013.326q0,4.477,0,8.954M68.656,76.6A4.189,4.189,0,0,0,72.8,80.773,4.283,4.283,0,0,0,76.978,76.6a4.1,4.1,0,0,0-4.241-4.17,3.977,3.977,0,0,0-4.08,4.164" transform="translate(-0.551 -0.343)" fill="#f2d7d9"/>
      <path id="Path_17079" data-name="Path 17079" d="M78.467,83.181l0-8.954.012-.326,0,.01c.185-.628.778-.613,1.247-.791a7.165,7.165,0,0,1,2.138,0l.093.057.1-.048.749-.11c.487.336.764-.216,1.156-.277a10.092,10.092,0,0,1,.263,2.378.35.35,0,0,0,.024.165q.071.4.144.8c-.193.17-.172.323.035.464.01.165.021.33.031.5a.409.409,0,0,0,.015.138l.137.825c-.247.324-.05.944-.627,1.038-1.769.286-1.206,1.564-1.139,2.636.033.175.065.351.1.526a3.827,3.827,0,0,1-3.748,1.273c-.276-.044-.548-.042-.726-.3" transform="translate(-0.642 -0.366)" fill="#fbfbfc"/>
      <path id="Path_17080" data-name="Path 17080" d="M51.414,84.219q.118-.955.236-1.91l-.013.014c.248-.083.291-.268.247-.5l-.011.015L53.631,80.8a32.319,32.319,0,0,0,5.433-1.67c.638-.135.995.074,1.167.755.268,1.057.638,2.088.964,3.13q.134.637.269,1.275c-.337.6-1.372.172-1.524,1.044-.369-.3-.736-.123-1.113-.007-1.011.315-2.026.614-3.038.923-2.309.706-3.428.187-4.375-2.033" transform="translate(-0.421 -0.398)" fill="#f2d7d9"/>
      <path id="Path_17081" data-name="Path 17081" d="M60.01,85.353c.152-.872,1.186-.445,1.523-1.044a4.746,4.746,0,0,0,1.274-.208c1.452-.5,2.924-.931,4.389-1.389a4.731,4.731,0,0,1,3.126,1.614c-.114,2.955-.458,3.3-3.426,3.8a10.41,10.41,0,0,1-5.465-.505,1.89,1.89,0,0,1-1.422-2.264" transform="translate(-0.491 -0.417)" fill="#6fa6d6"/>
      <path id="Path_17082" data-name="Path 17082" d="M37.1,82.7c.012.268.023.534.035.8l-13.1.018.017.019a1.935,1.935,0,0,1,.243-1.247q5.781,0,11.564.01c.451,0,.965-.164,1.242.4" transform="translate(-0.197 -0.414)" fill="#2376bd"/>
      <path id="Path_17083" data-name="Path 17083" d="M18.979,78.254c0-.875.757-1.507.759-2.382.706-.041.461.5.469.83.027,1.145.009,2.291.008,3.438,0,1.816.308,2.122,2.128,2.109a1.79,1.79,0,0,1,.145,1.274l-.047-.018c-3.447-.06-3.445-.06-3.433-3.479,0-.59-.02-1.181-.03-1.771" transform="translate(-0.155 -0.382)" fill="#2376bd"/>
      <path id="Path_17084" data-name="Path 17084" d="M22.468,83.543l.047.018a3.486,3.486,0,0,0,1.517-.014l-.016-.02c-.1,1.227.735,1.9,1.526,2.6.274.244.847.41.627.863-.188.389-.714.162-1.094.15a1.371,1.371,0,0,1-1.056-.433c-.945-1.033-.957-1.022-1.427.39a5.3,5.3,0,0,1-.124-3.556" transform="translate(-0.182 -0.421)" fill="#31364e"/>
      <path id="Path_17085" data-name="Path 17085" d="M15.9,83.309l1.4.229a4.122,4.122,0,0,0,1.67,2.616c.223.191.6.389.436.752s-.564.182-.842.152a1.755,1.755,0,0,1-1.277-.5c-.9-1.035-.916-1.022-1.514.277-.176-1.306-.517-2.421.124-3.525" transform="translate(-0.127 -0.42)" fill="#31364e"/>
      <path id="Path_17086" data-name="Path 17086" d="M94.862,80.3c1.273-1.23,1.844-1.2,2.437.106a13.753,13.753,0,0,1-3.1,1.691c-.378-.888.341-1.266.666-1.8" transform="translate(-0.77 -0.4)" fill="#31364e"/>
      <path id="Path_17087" data-name="Path 17087" d="M82.976,82.25c-.033-.175-.065-.351-.1-.526A5.571,5.571,0,0,1,85.2,80.8c.459.023.946-.119,1.349.233.254.928-.1,1.225-1.036,1.149a22.146,22.146,0,0,0-2.54.069" transform="translate(-0.678 -0.407)" fill="#31364e"/>
      <path id="Path_17088" data-name="Path 17088" d="M86.573,81.026c-.4-.352-.891-.209-1.35-.232.073-.262.146-.522.219-.783l1.611-.157a2.4,2.4,0,0,0-.48,1.172" transform="translate(-0.698 -0.402)" fill="#f5ccce"/>
      <path id="Path_17089" data-name="Path 17089" d="M22.595,50.14c1.547.464,2.231,1.9,3.272,2.93.879,1.546.866,1.512,2.463.938.621-.223,1.179-.889,1.958-.424a1.383,1.383,0,0,0,.566.715c0,.259.011.518.017.777a1.906,1.906,0,0,0-1,1.009l0,0a10.559,10.559,0,0,0-2.319,1.725,2.685,2.685,0,0,1-1.807-.07l0,.019a.4.4,0,0,0-.321-.4l-1.478-1.372a7,7,0,0,0,.118,3.306,13.244,13.244,0,0,0,.5,2.3,1.471,1.471,0,0,1-.1,1.241,67.4,67.4,0,0,0-7.325-.224c-.661-.478-.577-1.119-.429-1.8a19.257,19.257,0,0,0,.626-5.365,4.525,4.525,0,0,1,2.428-.068c1.056.255,1.982-.391,1.839-1.382a5.7,5.7,0,0,1,.99-3.854" transform="translate(-0.136 -0.252)" fill="#365997"/>
      <path id="Path_17090" data-name="Path 17090" d="M22.586,50.107a5.7,5.7,0,0,0-.99,3.854c.143.991-.783,1.637-1.839,1.382a4.525,4.525,0,0,0-2.428.068l-.77-.092a1.3,1.3,0,0,1-.658-2.1,1.15,1.15,0,0,0,.209-.779c.433-.463.237-.947.073-1.447a1.442,1.442,0,0,1,.555-1.879,3.362,3.362,0,0,0,1.721-3.286,2.38,2.38,0,0,1,.573-1.408,1.833,1.833,0,0,0,1.176-.247c.188-.023.438.023.556-.082a1.478,1.478,0,0,1,2.109-.172,1.98,1.98,0,0,1,.656,2.226c-.029.114-.056.23-.082.344a2.35,2.35,0,0,0-1.037,2.723c.059.3.116.594.175.89" transform="translate(-0.128 -0.219)" fill="#31364e"/>
      <path id="Path_17091" data-name="Path 17091" d="M16.078,52.48a1.143,1.143,0,0,1-.209.78,1.3,1.3,0,0,0,.659,2.1,1.679,1.679,0,0,1-2.532.069,8.65,8.65,0,0,1-2.581-4.259c.431-.183.777-.572,1.294-.549.534.506,1.1.981,1.592,1.529.532.6,1.072.82,1.777.335" transform="translate(-0.093 -0.255)" fill="#365997"/>
      <path id="Path_17092" data-name="Path 17092" d="M12.688,50.6c-.519-.023-.863.366-1.294.548-1.14.085-1.657-.716-2.172-1.528-.147-.233-.376-.466-.132-.731a.669.669,0,0,1,.777-.093,9.731,9.731,0,0,1,1.107.693c.221-.308.064-.936.663-.939s.568.52.671.933c.094.38.251.745.381,1.116" transform="translate(-0.074 -0.244)" fill="#f5ccce"/>
      <path id="Path_17093" data-name="Path 17093" d="M83.984,72.654c-.393.061-.669.613-1.156.277-.008-.168-.015-.336-.022-.5l-.227-.275c0-.063,0-.125-.01-.188l.24-.3c.012-2.806.1-5.614,0-8.414-.042-1.167.45-2.355-.55-3.574a5.959,5.959,0,0,1-.8-3.025l.805-.174c.184.535.189,1.253.943,1.318a2.256,2.256,0,0,0,2.474-2.163,5.467,5.467,0,0,1,.231-.894l.476,0c0,.161.007.323.01.486.216.305.154.755.51.989.074.593.1,1.222.88,1.352.014.344.118.705-.177.995-.339-.731-.653-.009-.978.017-.106-.145-.05-.662-.209-.443-.518.713-1.24.453-1.868.622-.293.079-.742-.094-.844.492,1.067-.074,1.06.268.658,1.163-.3.671-1.375,1.835.417,2.255-.176.813-.3,1.64-.536,2.435a19.307,19.307,0,0,0-.269,7.555" transform="translate(-0.667 -0.276)" fill="#d6e2f2"/>
      <path id="Path_17094" data-name="Path 17094" d="M84.807,62.683c-1.791-.42-.717-1.585-.416-2.255.4-.9.409-1.238-.659-1.163.1-.586.551-.413.844-.492.628-.17,1.35.091,1.868-.622.16-.219.1.3.209.443q-.146,1.306-.293,2.614a.449.449,0,0,0-.042.7l-.083.453c-.265.059-.571-.028-.78.227l-.65.093" transform="translate(-0.686 -0.292)" fill="#fbfbfc"/>
      <path id="Path_17095" data-name="Path 17095" d="M87.664,58.56c.295-.29.189-.65.177-.995q.21-1.281.421-2.563l1.271-.261a22.982,22.982,0,0,0,.019,2.6c.166,1.45-.419,1.9-1.889,1.459,0-.081,0-.161,0-.242" transform="translate(-0.718 -0.276)" fill="#fbfbfc"/>
      <path id="Path_17096" data-name="Path 17096" d="M85.422,80c-.073.261-.146.522-.219.783a5.541,5.541,0,0,0-2.326.924c-.067-1.072-.631-2.351,1.139-2.637.577-.093.38-.712.627-1.037.332.627-.246,1.616.78,1.966" transform="translate(-0.677 -0.393)" fill="#eaf0f7"/>
      <path id="Path_17097" data-name="Path 17097" d="M89.527,70.082c-.709.025-1.225.562-1.884.718-.467-1.319.669-2.061,1.05-3.338a5.2,5.2,0,0,1,.834,2.62" transform="translate(-0.717 -0.34)" fill="#d6e2f2"/>
      <path id="Path_17098" data-name="Path 17098" d="M87.427,61.218c1.562.013,2.077.549,2.1,2.185-1.738-.044-2.164-.487-2.1-2.185" transform="translate(-0.716 -0.308)" fill="#fbfbfc"/>
      <path id="Path_17099" data-name="Path 17099" d="M85.471,62.611c.208-.254.515-.168.779-.227-.14.488-.5.207-.779.227" transform="translate(-0.7 -0.314)" fill="#d6e2f2"/>
      <path id="Path_17100" data-name="Path 17100" d="M86.34,61.926a.45.45,0,0,1,.042-.7l-.042.7" transform="translate(-0.706 -0.308)" fill="#d6e2f2"/>
      <path id="Path_17101" data-name="Path 17101" d="M84.473,76.566c-.206-.139-.228-.294-.035-.463.011.154.023.308.035.463" transform="translate(-0.69 -0.383)" fill="#eaf0f7"/>
      <path id="Path_17102" data-name="Path 17102" d="M84.293,75.3a.353.353,0,0,1-.023-.166l.064.08Z" transform="translate(-0.69 -0.378)" fill="#eaf0f7"/>
      <path id="Path_17103" data-name="Path 17103" d="M87.6,59.661c-.032.11-.064.221-.1.332.033-.111.064-.222.1-.332" transform="translate(-0.716 -0.3)" fill="#fbfbfc"/>
      <path id="Path_17104" data-name="Path 17104" d="M84.52,77.206a.413.413,0,0,1-.016-.139l.059.07Z" transform="translate(-0.692 -0.388)" fill="#eaf0f7"/>
      <path id="Path_17105" data-name="Path 17105" d="M25.286,65.991a5.209,5.209,0,0,0,.439-2.755c-.007-1.049.4-1.625,1.563-1.55,1.1.071,2.211-.012,3.316.027a1.241,1.241,0,0,1,1.4,1.207,17.488,17.488,0,0,1,.1,3.66,1.544,1.544,0,0,1-1.716,1.562c-1.1-.009-2.215-.059-3.315.021-.591.043-.9-.455-1.4-.507a.429.429,0,0,1-.138-.476c.026-.024.076-.059.071-.071a1.086,1.086,0,0,0-.092-.157q-.115-.481-.227-.961m5.908-2.477c0,.036-.117-.166-.348-.282a.581.581,0,0,0-.76.082,8.828,8.828,0,0,0-.669.979c-.479.778-.953,1.46-1.873.442a.513.513,0,0,0-.827.061.617.617,0,0,0,.053.935c1.2,1.264,1.835,1.288,2.957-.086.488-.6,1.312-.945,1.468-2.131" transform="translate(-0.207 -0.31)" fill="#daedfc"/>
      <path id="Path_17106" data-name="Path 17106" d="M26.233,70.573a31.154,31.154,0,0,1,4.715.217c.6.1.88.25.99.9a15.615,15.615,0,0,1-.009,4.463c-.069.585-.307.864-.89.863-1.383,0-2.766.027-4.148-.011-.808-.023-1.132-.535-1.178-1.328-.035-.6.269-1.277-.278-1.8,1.245-.864.847-2.125.8-3.3m2.322,5.037a13.936,13.936,0,0,0,2.365-2.342.67.67,0,0,0-.187-1.1c-.548-.35-.562.187-.831.43-.719.648-1.03,2.6-2.624.959-.223-.23-.484.136-.659.339s-.24.452-.024.636a5.349,5.349,0,0,0,1.96,1.08" transform="translate(-0.208 -0.355)" fill="#daedfc"/>
      <path id="Path_17107" data-name="Path 17107" d="M24.03,83.5a3.456,3.456,0,0,1-1.517.014,1.787,1.787,0,0,0-.145-1.273c.224-2.744-.513-5.43-.491-8.163a23.2,23.2,0,0,1,3.346-.123c.19,2.267-.649,4.423-.705,6.662a4.211,4.211,0,0,0-.245,1.636A1.933,1.933,0,0,0,24.03,83.5" transform="translate(-0.179 -0.372)" fill="#f5ccce"/>
      <path id="Path_17108" data-name="Path 17108" d="M21.86,74.078c-.022,2.732.715,5.418.49,8.162-1.82.013-2.128-.294-2.127-2.109,0-1.146.018-2.292-.009-3.439-.008-.324.237-.87-.468-.829.289-.658,1.02-1.013,1.19-1.752a1.372,1.372,0,0,1,.924-.033" transform="translate(-0.162 -0.373)" fill="#fbfbfc"/>
      <path id="Path_17109" data-name="Path 17109" d="M25.515,66.979a.972.972,0,0,1,.092.157c0,.012-.046.047-.07.072a.259.259,0,0,1-.022-.229" transform="translate(-0.209 -0.337)" fill="#fbfbfc"/>
      <path id="Path_17110" data-name="Path 17110" d="M53.595,54.711c-.01-3.362.194-6.743-.1-10.08-.215-2.421.841-4.036,2.249-5.648A2.237,2.237,0,0,0,56.4,37.76l19.644.015-.187.422c-1.725-.17-3.265.582-4.779,1.162A23.573,23.573,0,0,0,60.2,47.676a18.812,18.812,0,0,0-3.548,7l-.272.077a.13.13,0,0,0-.171-.009l-1.232,0-1.381-.033" transform="translate(-0.438 -0.19)" fill="#d6e2f2"/>
      <path id="Path_17111" data-name="Path 17111" d="M61.163,26.634c-.044-1.616.331-3.2.269-4.83-.034-.872-.254-1.16-1.145-1.146-2.755.04-5.512-.008-8.27-.022l.335-.247q4.134.021,8.27.043c1.794.011,2,.206,2.009,1.946.008,1.423,0,2.845,0,4.267l-1.47-.012" transform="translate(-0.426 -0.102)" fill="#eaf0f7"/>
      <path id="Path_17112" data-name="Path 17112" d="M54.416,37.459c-.325-.534-.849-.475-1.364-.473-2.487,0-4.975.007-7.462-.007-.279,0-.747.164-.76-.3-.011-.384.412-.414.733-.407a74.022,74.022,0,0,1,7.446.129,4.316,4.316,0,0,0,1.655-.377c-.331.434-.123.961-.248,1.431" transform="translate(-0.367 -0.181)" fill="#eaf0f7"/>
      <path id="Path_17113" data-name="Path 17113" d="M74.433,31.461c0-.833,0-1.666,0-2.5,0-.325.037-.693.441-.722.425-.03.488.337.489.664,0,1.7.014,3.409-.037,5.112-.009.3-.045.86-.443.861-.53,0-.446-.54-.451-.919-.011-.832,0-1.665,0-2.5" transform="translate(-0.609 -0.142)" fill="#365997"/>
      <path id="Path_17114" data-name="Path 17114" d="M59.546,31.58q0,1.309,0,2.617c0,.288-.033.614-.339.7-.415.109-.422-.31-.458-.536a35.816,35.816,0,0,1-.109-5.687.418.418,0,0,1,.464-.437c.341.041.43.323.432.612.012.912,0,1.824,0,2.736h0" transform="translate(-0.48 -0.142)" fill="#365997"/>
      <path id="Path_17115" data-name="Path 17115" d="M66.521,31.685c0-.871,0-1.74,0-2.611,0-.322,0-.67.452-.684s.482.323.483.653q.006,2.551,0,5.1c0,.358-.015.792-.509.764-.4-.022-.421-.411-.423-.732-.007-.831,0-1.662,0-2.492" transform="translate(-0.545 -0.143)" fill="#365997"/>
      <path id="Path_17116" data-name="Path 17116" d="M55.81,33.877H43.172c.308-.61.752-.48,1.143-.482q4.877-.016,9.754,0a5.24,5.24,0,0,0,1.749-.251c0,.244,0,.487-.008.73" transform="translate(-0.353 -0.167)" fill="#daedfc"/>
      <path id="Path_17117" data-name="Path 17117" d="M55.809,30.758H43.172c0-.163,0-.325,0-.489H55.8c0,.163,0,.325,0,.489" transform="translate(-0.353 -0.152)" fill="#eaf0f7"/>
      <path id="Path_17118" data-name="Path 17118" d="M71.309,31.629c0,.828.006,1.657,0,2.484,0,.266.029.61-.361.626-.348.015-.47-.311-.5-.566-.063-.625-.068-1.257-.074-1.885-.011-.986-.018-1.972,0-2.958.008-.354-.177-.9.426-.92.7-.019.482.587.5.972.031.748.009,1.5.008,2.248" transform="translate(-0.576 -0.143)" fill="#365997"/>
      <path id="Path_17119" data-name="Path 17119" d="M63.4,31.628c0,.832.006,1.664,0,2.5,0,.271.011.612-.381.606-.306,0-.332-.291-.333-.53q-.006-2.615,0-5.229c0-.236.009-.524.318-.543.4-.024.393.314.4.587.01.871,0,1.742,0,2.614" transform="translate(-0.513 -0.143)" fill="#365997"/>
      <path id="Path_17120" data-name="Path 17120" d="M54.762,36.019c.064-.134.141-.15.233-.025l-.233.025" transform="translate(-0.448 -0.181)" fill="#eaf0f7"/>
      <path id="Path_17121" data-name="Path 17121" d="M33.639,20.693l15.476.011.458,0-.007,0c.515,1.525.2,2.382-.961,2.388-4.777.024-9.553.008-14.33.012-.514,0-1.016-.1-1.091-.672-.08-.607-.454-1.36.454-1.731" transform="translate(-0.271 -0.104)" fill="#fbfbfc"/>
      <path id="Path_17122" data-name="Path 17122" d="M33.63,20.691c-.909.371-.535,1.124-.454,1.731.075.573.577.673,1.091.672,4.777,0,9.553.012,14.33-.012,1.156-.006,1.476-.863.961-2.388.634,0,1.261-.665,1.9-.023-.884.036-1.309.372-1.189,1.378.132,1.091-.551,1.594-1.595,1.595q-7.309.01-14.619,0c-1.113,0-1.515-.677-1.532-1.7-.008-.49.158-1.074-.559-1.251.472-.462,1.13-.153,1.667-.388.091-.04.019.248,0,.385" transform="translate(-0.262 -0.102)" fill="#2376bd"/>
      <path id="Path_17123" data-name="Path 17123" d="M42.442,15.526c-.109.609-.374,1.009-.945.969a.87.87,0,0,1-.9-1.025.824.824,0,0,1,.97-.809c.591.022.783.44.873.865" transform="translate(-0.332 -0.073)" fill="#d6e2f2"/>
      <path id="Path_17124" data-name="Path 17124" d="M49.706,20.7l-.458,0c.036-.173.016-.419.283-.367.078.016.118.237.176.364" transform="translate(-0.403 -0.102)" fill="#2376bd"/>
      <path id="Path_17125" data-name="Path 17125" d="M31.5,20.691l-.188-.032a.525.525,0,0,1,.188.032" transform="translate(-0.256 -0.104)" fill="#2376bd"/>
      <path id="Path_17126" data-name="Path 17126" d="M83.635,50.723l.372-.033c.255.391.518.777.765,1.174.159.254.489.536.191.829-.327.323-.7.233-1.03-.109a2.666,2.666,0,0,0-.6-.365c-1-.485-1.485.433-2.094.863-.573.4-.508.5-1.06-.022-.261-.164-.164-.424-.174-.656q.332-.237.662-.477a10.674,10.674,0,0,0,2.966-1.2" transform="translate(-0.655 -0.255)" fill="rgba(111,166,214,0.5)"/>
      <path id="Path_17127" data-name="Path 17127" d="M80.181,53.067c.552.521.486.427,1.06.022.609-.43,1.089-1.347,2.094-.863-.614.861-.132,1.84-.295,2.75q-1.059-.052-2.117-.106l-.687-.159a1.7,1.7,0,0,1-.056-1.644" transform="translate(-0.655 -0.262)" fill="#f5ccce"/>
      <path id="Path_17128" data-name="Path 17128" d="M85.921,54.742a5.467,5.467,0,0,0-.231.894A2.256,2.256,0,0,1,83.216,57.8c-.753-.066-.759-.783-.943-1.318a10.059,10.059,0,0,0,1.7-.685c.413-.255,1.13-.1,1.219-.828.191-.241.329-.654.727-.227" transform="translate(-0.674 -0.275)" fill="#eaf0f7"/>
      <path id="Path_17129" data-name="Path 17129" d="M85.179,54.971c-.089.728-.807.573-1.219.828a10.062,10.062,0,0,1-1.7.686c-.269.057-.537.115-.805.173l-.27-.189c.016-.5-.371-.726-.677-1.008l-.012-.236a.357.357,0,0,0,.434-.339l2.117.1.668.057c.361.715.689.039,1.031-.024l.434-.052" transform="translate(-0.659 -0.276)" fill="rgba(111,166,214,0.5)"/>
      <path id="Path_17130" data-name="Path 17130" d="M89.318,46.849l.644,0c-.232,1.574-.378,3.183-1.919,4.494a21.27,21.27,0,0,1,1.275-4.491" transform="translate(-0.721 -0.236)" fill="#365997"/>
      <path id="Path_17131" data-name="Path 17131" d="M88.255,55q-.21,1.282-.421,2.564c-.784-.13-.805-.759-.881-1.353q.126-.606.252-1.212l.207-.2.668-.026.174.224" transform="translate(-0.712 -0.276)" fill="#365997"/>
      <path id="Path_17132" data-name="Path 17132" d="M92.4,51.627a4.945,4.945,0,0,1-2.85,2.621,8.13,8.13,0,0,1,2.85-2.621" transform="translate(-0.733 -0.26)" fill="#eaf0f7"/>
      <path id="Path_17133" data-name="Path 17133" d="M88.265,55l-.174-.224a1.957,1.957,0,0,1,1.444-.507c0,.157,0,.314,0,.472L88.265,55" transform="translate(-0.721 -0.273)" fill="#eaf0f7"/>
      <path id="Path_17134" data-name="Path 17134" d="M84.77,55.022c-.342.063-.67.74-1.03.024.332-.491.682-.209,1.03-.024" transform="translate(-0.686 -0.276)" fill="#f5ccce"/>
      <path id="Path_17135" data-name="Path 17135" d="M87.409,54.8,87.2,55l-.761.224c0-.161-.007-.323-.011-.486a.572.572,0,0,1,.979.065" transform="translate(-0.708 -0.274)" fill="#eaf0f7"/>
      <path id="Path_17136" data-name="Path 17136" d="M92.665,51.147a.467.467,0,0,1-.235.474.467.467,0,0,1,.235-.474" transform="translate(-0.757 -0.257)" fill="#eaf0f7"/>
      <path id="Path_17137" data-name="Path 17137" d="M95.056,58.089c-.92.065-.954,1.122-1.629,1.462-.015-.25-.031-.5-.047-.748q0-1.552,0-3.1l.033-.5c.543.966,1.643,1.613,1.641,2.89" transform="translate(-0.764 -0.278)" fill="#daedfc"/>
      <path id="Path_17138" data-name="Path 17138" d="M93.378,55.7q0,1.552,0,3.1a2.6,2.6,0,0,1,0-3.1" transform="translate(-0.76 -0.28)" fill="#fbfbfc"/>
      <path id="Path_17139" data-name="Path 17139" d="M79.991,53a1.7,1.7,0,0,0,.055,1.643l-.455.127c-1.267-.015-2.532-.04-3.8-.044q-9.559-.028-19.116-.048a18.8,18.8,0,0,1,3.548-7,23.566,23.566,0,0,1,10.885-8.317c1.514-.581,3.054-1.333,4.779-1.162a4.7,4.7,0,0,0,.784,2.645,1.455,1.455,0,0,0,.013.208,14.165,14.165,0,0,0,.805,3.686c.716,2.551,1.545,5.07,2.328,7.6.01.232-.088.492.174.656" transform="translate(-0.464 -0.192)" fill="#fefefe"/>
      <path id="Path_17140" data-name="Path 17140" d="M83.618,50.676a10.674,10.674,0,0,1-2.966,1.2c-.255-2-1.2-3.791-1.655-5.733-.275-1.183-.666-2.339-1.034-3.5A.987.987,0,0,1,78.3,41.4c.6-.314.878.318,1.03.7,1.087,2.72,2.714,5.207,3.467,8.07.1.386.576.288.821.507" transform="translate(-0.638 -0.208)" fill="#eaf0f7"/>
      <path id="Path_17141" data-name="Path 17141" d="M76.849,41.064a1.455,1.455,0,0,1-.013-.208l.775-.105c-.17.308-.459.327-.762.313" transform="translate(-0.629 -0.205)" fill="#daedfc"/>
      <path id="Path_17142" data-name="Path 17142" d="M77.651,40.8l.28-.288.116.24-.4.048" transform="translate(-0.636 -0.204)" fill="#daedfc"/>
      <path id="Path_17143" data-name="Path 17143" d="M78.62,40.336l.388-.252-.388.252" transform="translate(-0.644 -0.202)" fill="#daedfc"/>
      <path id="Path_17144" data-name="Path 17144" d="M80.964,56.477l.269.189a5.952,5.952,0,0,0,.8,3.025c1,1.218.508,2.407.549,3.573.1,2.8.014,5.61,0,8.414l-.494.129L79.046,71.8l-.749-.1a3.914,3.914,0,0,0-2.164-3.584c0-.415.612-.55.458-1.036a15.215,15.215,0,0,1-.181-3.664c-.028-.388.046-.774-.311-1.094a8.624,8.624,0,0,1-2.434-4.264.8.8,0,0,0-.931-.682,1.023,1.023,0,0,0-1.055.779c-.134.487-.131,1.026-.563,1.389-.252-.188-.5-.385-.759-.562a5.788,5.788,0,0,0-6.28-.417,5.691,5.691,0,0,0-3.212,5.409c.018,3.556,2.529,5.878,6.512,6.035q-.055.906-.111,1.812l-10.348-.026-3.318-.13q0-7.589,0-15.177l2.587-.078c.433.014.868.041,1.3.041q11.741.018,23.481.029M54.235,57.7l-.109-.044V70.418h.109Z" transform="translate(-0.439 -0.284)" fill="#6fa6d6"/>
      <path id="Path_17145" data-name="Path 17145" d="M31.176,27.128a5.823,5.823,0,0,1,5.971,5.784,5.947,5.947,0,1,1-5.971-5.784m3.58,5.935c-.112-.74-.714-.855-1.25-.8-1.231.132-1.909-.187-1.645-1.576a.886.886,0,0,0-.054-.467c-.136-.347-.351-.645-.777-.607a.766.766,0,0,0-.72.681,2.774,2.774,0,0,0-.026.83c.12.888-.229,1.176-1.124,1.144-.662-.024-1.749-.313-1.713.842.034,1.093,1.074.71,1.7.691.875-.027,1.27.232,1.138,1.139a4.631,4.631,0,0,0,0,.713c.008.529.273.828.8.812a.726.726,0,0,0,.76-.749,5.444,5.444,0,0,0,.011-.951c-.08-.724.2-1.024.936-.944a7.366,7.366,0,0,0,1.185,0,.779.779,0,0,0,.776-.756" transform="translate(-0.207 -0.136)" fill="#365997"/>
      <path id="Path_17146" data-name="Path 17146" d="M24.293,82.089a4.213,4.213,0,0,1,.245-1.636,39.2,39.2,0,0,0,10.232-2.67,1.784,1.784,0,0,0,1.21-1.913c-.044-10.577,0-21.155-.052-31.732-.008-1.707.5-2.621,2.6-2.6,3.766.039,7.532.011,11.3.011.237,0,.475,0,.713,0,.323.006.749.024.742.4-.009.465-.481.3-.76.3-3.726.012-7.453.008-11.18.009-1.952,0-2.509.848-2.358,2.862.146,1.92-.061,3.866-.07,5.8-.018,3.506-.114,7.017.025,10.519.144,3.616.082,7.238.024,10.839-.057,3.413.49,6.806.14,10.209-.277-.561-.79-.4-1.242-.4q-5.781-.009-11.564-.009" transform="translate(-0.199 -0.209)" fill="#2376bd"/>
      <path id="Path_17147" data-name="Path 17147" d="M28.78,50.151c-3.3.02-3.058.241-3.052-3.093s.067-3.4,3.47-3.337a20.414,20.414,0,0,1,2.1.246.622.622,0,0,1,.578.512,13.76,13.76,0,0,1-.012,4.928.951.951,0,0,1-1.073.746c-.672-.008-1.344,0-2.016,0m-1.592-3.515c-.407.1-.816.4-.671.794.247.665.986.849,1.574,1.154a.836.836,0,0,0,1.17-.215A13.546,13.546,0,0,1,30.91,46.5c.461-.471.286-.866-.166-1.189-.524-.375-.557.194-.839.4-.751.544-.948,2.794-2.585.976-.023-.026-.071-.029-.133-.052" transform="translate(-0.211 -0.22)" fill="#daedfc"/>
      <path id="Path_17148" data-name="Path 17148" d="M59.08,79.1a32.383,32.383,0,0,1-5.433,1.67q-.054-3.874-.109-7.749c.058-.008.116-.014.175-.018l.327.111a.331.331,0,0,0,.473-.006,8.356,8.356,0,0,1,2.4.032c.2,2.177,1.272,4.037,2.168,5.96" transform="translate(-0.438 -0.368)" fill="#d6e2f2"/>
      <path id="Path_17149" data-name="Path 17149" d="M45.091,52.539V45.944a1.452,1.452,0,0,1,.334,1.305,21.517,21.517,0,0,0,.147,4.98c.082.688.576.538.981.54a51.05,51.05,0,0,1,6.159.265H47.941c-2.583,0-2.586,0-2.584,2.64a28.508,28.508,0,0,1,0,3.773c-.126.957.319,1.243,1.235,1.22a40.762,40.762,0,0,1,6.149.244c-2.088,0-4.177.042-6.263-.019-.892-.027-1.127.256-1.152,1.142-.045,1.578.218,3.138.064,4.728-.15,1.558.162,1.766,1.692,1.767a41.847,41.847,0,0,1,5.643.256c-2.051,0-4.1.036-6.152-.017-.886-.023-1.287.163-1.241,1.17.082,1.785.05,3.578.011,5.367-.018.83.3,1.124,1.121,1.109a44.351,44.351,0,0,1,6.269.248q-3.01,0-6.018,0c-1.4,0-1.608.146-1.324,1.474.376,1.757-.315,3.446-.291,5.177,0-1.837-.041-3.675.018-5.511.028-.872-.206-1.19-1.123-1.16A37.389,37.389,0,0,1,37.96,76.4c1.994,0,3.988-.055,5.979.023.981.038,1.213-.315,1.181-1.227q-.092-2.682,0-5.368c.029-.862-.288-1.08-1.1-1.061a42.323,42.323,0,0,1-6.275-.248c2.071,0,4.144-.057,6.212.024,1.007.039,1.188-.361,1.159-1.244-.056-1.707-.067-3.421,0-5.128.041-.965-.209-1.328-1.239-1.285a33.238,33.238,0,0,1-5.919-.245c1.99,0,3.981-.055,5.967.024.968.038,1.224-.279,1.19-1.208-.065-1.827-.047-3.658,0-5.487.017-.735-.24-.967-.959-.954a41.12,41.12,0,0,1-6.164-.26h6.86l.238-.222" transform="translate(-0.309 -0.231)" fill="#2376bd"/>
      <path id="Path_17150" data-name="Path 17150" d="M41.15,62.462a2.236,2.236,0,0,1-.319,4.459,2.142,2.142,0,0,1-2.089-2.376,2.21,2.21,0,0,1,2.408-2.083" transform="translate(-0.317 -0.314)" fill="#f2d7d9"/>
      <path id="Path_17151" data-name="Path 17151" d="M51.618,82.306c-.721.086-1.3.626-2.108.528a2.052,2.052,0,0,1-1.948-2.345,2.083,2.083,0,0,1,2.525-2,2.173,2.173,0,0,1,1.9,2.31c-.034.35-.269.671-.148,1.043l.011-.015c-.273.07-.369.228-.247.5Z" transform="translate(-0.389 -0.395)" fill="#f2d7d9"/>
      <path id="Path_17152" data-name="Path 17152" d="M49.814,59.067a2.055,2.055,0,0,1-2.252-2.175,2.009,2.009,0,0,1,2.129-2.162,2.17,2.17,0,1,1,.123,4.337" transform="translate(-0.389 -0.275)" fill="#f2d7d9"/>
      <path id="Path_17153" data-name="Path 17153" d="M47.558,64.743a2.163,2.163,0,0,1,2.081-2.279,2.3,2.3,0,0,1,2.349,2.177,2.611,2.611,0,0,1-2.249,2.293,2.236,2.236,0,0,1-2.18-2.191" transform="translate(-0.389 -0.314)" fill="#f2d7d9"/>
      <path id="Path_17154" data-name="Path 17154" d="M25.82,57.758a2.685,2.685,0,0,0,1.807.07c1.333.2,1.883-.212,2.319-1.725l0,0c.769.1.817-.52.995-1.009-.006-.26-.011-.519-.017-.779a1.768,1.768,0,0,1,1.213-.068c-.229,1.2.078,2.4-.154,3.634A1.526,1.526,0,0,1,30.5,59.249c-1.281.235-2.566-.157-3.87-.056-.567.044-1.006-.681-.812-1.436" transform="translate(-0.211 -0.273)" fill="#daedfc"/>
      <path id="Path_17155" data-name="Path 17155" d="M49.622,69.852a2.719,2.719,0,0,1,2.931,2.442A3.065,3.065,0,0,1,49.535,75.5a3.3,3.3,0,0,1-2.683-3,2.908,2.908,0,0,1,2.77-2.645m.154,4.839a1.983,1.983,0,0,0,2.1-2.067,2.051,2.051,0,0,0-2.308-2.106,2.03,2.03,0,0,0-2,2.058,2.114,2.114,0,0,0,2.206,2.115" transform="translate(-0.384 -0.352)" fill="#eec2c6"/>
      <path id="Path_17156" data-name="Path 17156" d="M49.726,46.1a2.752,2.752,0,1,1-.1,5.5,2.749,2.749,0,1,1,.1-5.5m2.129,2.735a2.14,2.14,0,0,0-4.279.065A2.292,2.292,0,0,0,49.7,51.053a2.147,2.147,0,0,0,2.154-2.213" transform="translate(-0.384 -0.232)" fill="#eec2c6"/>
      <path id="Path_17157" data-name="Path 17157" d="M43.681,80.642a2.8,2.8,0,0,1-2.731,2.849A2.667,2.667,0,0,1,38.2,80.708,2.892,2.892,0,0,1,41,77.781a2.656,2.656,0,0,1,2.681,2.862m-.55.031a2.249,2.249,0,0,0-2.08-2.18,2,2,0,0,0-2.2,2.092,2.045,2.045,0,0,0,2,2.2,2.24,2.24,0,0,0,2.278-2.109" transform="translate(-0.313 -0.392)" fill="#eec2c6"/>
      <path id="Path_17158" data-name="Path 17158" d="M38.2,48.858a2.961,2.961,0,0,1,2.684-2.915,2.966,2.966,0,0,1,2.794,2.819,2.74,2.74,0,1,1-5.478.1m.655-.054A2.221,2.221,0,0,0,40.97,51.06a2.389,2.389,0,0,0,2.173-2.136,2.171,2.171,0,0,0-2.194-2.148A1.9,1.9,0,0,0,38.859,48.8" transform="translate(-0.313 -0.231)" fill="#eec2c6"/>
      <path id="Path_17159" data-name="Path 17159" d="M40.826,59.52a2.349,2.349,0,0,1-2.62-2.638,2.83,2.83,0,0,1,2.72-2.855,2.677,2.677,0,0,1,2.756,2.89c-.011,1.638-1.073,2.606-2.855,2.6m-1.971-2.663A2.1,2.1,0,0,0,41,59.039a2.222,2.222,0,0,0,2.144-1.986,2.4,2.4,0,0,0-2.1-2.31,2.045,2.045,0,0,0-2.183,2.115" transform="translate(-0.313 -0.272)" fill="#eec2c6"/>
      <path id="Path_17160" data-name="Path 17160" d="M38.206,72.677a3.014,3.014,0,0,1,2.613-2.988,2.8,2.8,0,0,1,2.86,3.055,2.541,2.541,0,0,1-2.737,2.6,2.474,2.474,0,0,1-2.736-2.667m2.749-2.282a2.166,2.166,0,0,0-2.1,2.269,2.015,2.015,0,0,0,2.177,2.123,2.309,2.309,0,0,0,2.126-2.159,2.407,2.407,0,0,0-2.2-2.233" transform="translate(-0.313 -0.351)" fill="#eec2c6"/>
      <path id="Path_17161" data-name="Path 17161" d="M54.04,73.112,53.713,73l-.139-.274a1.259,1.259,0,0,1,.023-.2l2.876-.157,9.914.048.938.071c0,.174,0,.347,0,.52l-.263.1-.388-.013-.3-.012c-3.156-.008-6.312-.12-9.466.06a8.32,8.32,0,0,0-2.4-.033l-.473.006" transform="translate(-0.439 -0.364)" fill="#6fa6d6"/>
      <path id="Path_17162" data-name="Path 17162" d="M32.179,54.239a1.762,1.762,0,0,0-1.213.068,1.38,1.38,0,0,1-.565-.714c.359-.146.369-.455.359-.772.119-.291.228-.586.362-.87.089-.19.4-.371.455-.278.683,1.062,1.443.272,2.189.151.5-.082.33.355.266.564a3.286,3.286,0,0,1-1.853,1.851" transform="translate(-0.249 -0.26)" fill="#f5ccce"/>
      <path id="Path_17163" data-name="Path 17163" d="M45.3,44.658c-1.066,0-2.133,0-3.2,0-.293,0-.632-.078-.645-.389-.016-.4.378-.305.632-.317,2.2-.109,4.417.212,6.611-.185.285-.051.445.11.45.4.007.358-.214.487-.531.488-1.107,0-2.213,0-3.319,0" transform="translate(-0.339 -0.22)" fill="#eaf0f7"/>
      <path id="Path_17164" data-name="Path 17164" d="M30.724,52.826c.01.317,0,.626-.358.772-.78-.465-1.338.2-1.959.424-1.6.575-1.585.608-2.463-.938,1.569-.541,3.189-.136,4.78-.258" transform="translate(-0.212 -0.266)" fill="#d6e2f2"/>
      <path id="Path_17165" data-name="Path 17165" d="M22.468,49.231A2.348,2.348,0,0,1,23.5,46.508c0,1.043.393,2.231-1.036,2.723" transform="translate(-0.183 -0.234)" fill="#f5ccce"/>
      <path id="Path_17166" data-name="Path 17166" d="M56.473,72.364l-2.875.157q0-.391,0-.782l3.317.13c-.13.181-.509.137-.442.494" transform="translate(-0.439 -0.361)" fill="#d6e2f2"/>
      <path id="Path_17167" data-name="Path 17167" d="M53.6,54.8l1.381.033c.006.129.011.259.016.389l0,0c-.29-.018-.607-.176-.861.2.818.715,1.892-.017,2.725.487l-.653.078-2.625-.074c.008-.374.015-.747.022-1.121" transform="translate(-0.439 -0.276)" fill="#6fa6d6"/>
      <path id="Path_17168" data-name="Path 17168" d="M53.574,55.923,56.2,56c-.006.135-.013.272-.019.407l-2.587.078c-.007-.186-.013-.372-.02-.558" transform="translate(-0.439 -0.281)" fill="#d6e2f2"/>
      <path id="Path_17169" data-name="Path 17169" d="M25.492,57.394a.4.4,0,0,1,.321.4c-.269,0-.306-.191-.321-.4" transform="translate(-0.209 -0.289)" fill="#daedfc"/>
      <path id="Path_17170" data-name="Path 17170" d="M53.574,72.729c.047.092.093.182.139.274-.059,0-.116.01-.175.018l.036-.292" transform="translate(-0.438 -0.366)" fill="#98d5f8"/>
      <path id="Path_17171" data-name="Path 17171" d="M45.15,52.572l-.238.222.238-.222" transform="translate(-0.368 -0.265)" fill="#eaf0f7"/>
      <path id="Path_17172" data-name="Path 17172" d="M66.707,73.095l.388.013.253.338c-.034.9-.04,1.8-.108,2.693a7.975,7.975,0,0,0,.577,4,.727.727,0,0,0-.14.745l.006.02c-2.247.388-4.218,1.632-6.444,2.084-.326-1.042-.7-2.073-.964-3.13-.173-.681-.53-.889-1.167-.755-.9-1.922-1.967-3.782-2.168-5.96,3.154-.179,6.31-.067,9.466-.059a.174.174,0,0,0,.3.012" transform="translate(-0.466 -0.368)" fill="#fbfbfc"/>
      <path id="Path_17173" data-name="Path 17173" d="M67.435,70.013c-3.983-.157-6.5-2.478-6.512-6.034a5.691,5.691,0,0,1,3.211-5.41,5.791,5.791,0,0,1,6.281.417c.26.177.506.374.759.562a4.085,4.085,0,0,1-1.589,2.576c-.265.271-.665.435-.53.925-1.065.385-1.559.087-1.422-1.116a16.041,16.041,0,0,0,.012-1.9c0-.559.06-1.222-.756-1.206-.74.014-.671.633-.672,1.152,0,.754-.041,1.511.012,2.262.051.713-.168,1.006-.919.955-.867-.059-1.741-.027-2.61,0-.466.014-.9.193-.9.74-.007.573.443.7.91.7.79.008,1.584.018,2.373-.023.818-.044,1.253.178,1.156,1.125a24.994,24.994,0,0,0-.015,2.5c0,.452.163.8.654.821.538.023.773-.3.768-.824-.006-.794,0-1.588,0-2.382,0-1.379,0-1.379,1.413-1.013.169,1.075-.642,2.257.354,3.24a5.155,5.155,0,0,0-1.979,1.937" transform="translate(-0.499 -0.291)" fill="#fbfbfc"/>
      <path id="Path_17174" data-name="Path 17174" d="M69.48,68.074c-1-.983-.185-2.165-.354-3.24a4.322,4.322,0,0,0,0-1.787c-.135-.491.265-.655.531-.925a4.085,4.085,0,0,0,1.589-2.576c.431-.363.428-.9.563-1.389a1.021,1.021,0,0,1,1.054-.779.8.8,0,0,1,.931.682,8.618,8.618,0,0,0,2.435,4.264c.357.32.284.706.31,1.094a15.165,15.165,0,0,0,.182,3.664c.153.486-.462.621-.458,1.036l-6.779-.045" transform="translate(-0.565 -0.289)" fill="#eec2c6"/>
      <path id="Path_17175" data-name="Path 17175" d="M68.668,76.617a3.977,3.977,0,0,1,4.08-4.164,4.1,4.1,0,0,1,4.241,4.17,4.283,4.283,0,0,1-4.179,4.172,4.189,4.189,0,0,1-4.142-4.178m1.679-2.225c-.417-.07-.533.268-.68.529A3.548,3.548,0,1,0,76.094,77.9a3.521,3.521,0,0,0-2.272-4.729c-1.586-.445-2.929.033-3.489,1.239Z" transform="translate(-0.562 -0.365)" fill="#eaf0f7"/>
      <path id="Path_17176" data-name="Path 17176" d="M61.275,83.026c2.226-.453,4.2-1.7,6.444-2.084.061.655-.4,1.157-.513,1.761-1.464.459-2.936.894-4.389,1.389a4.741,4.741,0,0,1-1.273.209q-.134-.637-.269-1.275" transform="translate(-0.502 -0.408)" fill="#d6e2f2"/>
      <path id="Path_17177" data-name="Path 17177" d="M56.5,72.364c-.066-.357.312-.313.442-.494l10.348.026-.02.088c-.181.352-.609.208-.856.429L56.5,72.364" transform="translate(-0.462 -0.362)" fill="#fbfbfc"/>
      <path id="Path_17178" data-name="Path 17178" d="M79.25,71.875l3.04.009.255.167c0,.063.008.125.01.188l-.733.174-3.269.018-.054-.414.751-.142" transform="translate(-0.643 -0.362)" fill="#fbfbfc"/>
      <path id="Path_17179" data-name="Path 17179" d="M78.55,72.434l3.27-.017.959.1c.007.168.015.336.022.5l-.748.109a.118.118,0,0,0-.192-.008,7.132,7.132,0,0,0-2.138,0L78.547,73c-.277-.192-.242-.381,0-.57" transform="translate(-0.641 -0.365)" fill="#6fa6d6"/>
      <path id="Path_17180" data-name="Path 17180" d="M78.548,73.007l1.175.114c-.469.178-1.06.163-1.247.791l.071-.905" transform="translate(-0.642 -0.368)" fill="#d6e2f2"/>
      <path id="Path_17181" data-name="Path 17181" d="M66.493,72.412c.247-.221.675-.077.856-.429.027.167.056.333.083.5l-.939-.072" transform="translate(-0.544 -0.362)" fill="#6fa6d6"/>
      <path id="Path_17182" data-name="Path 17182" d="M79.25,71.874l-.751.142c0-.081,0-.162,0-.243l.749.1" transform="translate(-0.643 -0.361)" fill="#6fa6d6"/>
      <path id="Path_17183" data-name="Path 17183" d="M67.766,80.918a.731.731,0,0,1,.14-.745.636.636,0,0,1-.14.745" transform="translate(-0.554 -0.404)" fill="#d6e2f2"/>
      <path id="Path_17184" data-name="Path 17184" d="M67.433,73.446l-.253-.338.263-.1c0,.145-.007.292-.01.437" transform="translate(-0.55 -0.368)" fill="#6fa6d6"/>
      <path id="Path_17185" data-name="Path 17185" d="M78.48,73.907l-.012.326c-.118-.113-.143-.223.012-.326" transform="translate(-0.642 -0.372)" fill="#d6e2f2"/>
      <path id="Path_17186" data-name="Path 17186" d="M81.89,73.126a.118.118,0,0,1,.192.008l-.1.049Z" transform="translate(-0.67 -0.368)" fill="#d6e2f2"/>
      <path id="Path_17187" data-name="Path 17187" d="M51.638,82.336c-.121-.268-.025-.426.248-.5.043.229,0,.414-.248.5" transform="translate(-0.422 -0.412)" fill="#fbfbfc"/>
      <path id="Path_17188" data-name="Path 17188" d="M29.961,56.112c-.435,1.513-.986,1.923-2.319,1.725a10.582,10.582,0,0,1,2.319-1.725" transform="translate(-0.226 -0.282)" fill="#eaf0f7"/>
      <path id="Path_17189" data-name="Path 17189" d="M30.98,55.1c-.178.489-.226,1.105-.995,1.009A1.9,1.9,0,0,1,30.98,55.1" transform="translate(-0.245 -0.277)" fill="#eaf0f7"/>
      <path id="Path_17190" data-name="Path 17190" d="M86.441,55.225,87.2,55q-.126.606-.252,1.212c-.355-.233-.293-.683-.509-.988" transform="translate(-0.708 -0.277)" fill="#fbfbfc"/>
      <path id="Path_17191" data-name="Path 17191" d="M82.809,72.516l-.959-.1.732-.174.227.274" transform="translate(-0.67 -0.364)" fill="#6fa6d6"/>
      <path id="Path_17192" data-name="Path 17192" d="M82.576,72.05l-.254-.166.494-.129-.24.3" transform="translate(-0.674 -0.361)" fill="#6fa6d6"/>
      <path id="Path_17193" data-name="Path 17193" d="M31.2,63.521c-.156,1.186-.98,1.532-1.468,2.131-1.122,1.374-1.759,1.349-2.957.086a.617.617,0,0,1-.053-.935.513.513,0,0,1,.827-.061c.919,1.018,1.393.336,1.873-.442a8.828,8.828,0,0,1,.669-.979.581.581,0,0,1,.76-.082c.231.115.345.317.348.282" transform="translate(-0.217 -0.318)" fill="#fbfbfc"/>
      <path id="Path_17194" data-name="Path 17194" d="M28.564,75.618a5.349,5.349,0,0,1-1.96-1.08c-.216-.184-.144-.44.024-.636s.435-.569.659-.339c1.595,1.641,1.905-.311,2.624-.959.269-.243.283-.78.831-.43a.67.67,0,0,1,.187,1.1,13.936,13.936,0,0,1-2.365,2.342" transform="translate(-0.217 -0.363)" fill="#fbfbfc"/>
      <path id="Path_17195" data-name="Path 17195" d="M56.857,55.913c-.833-.5-1.906.23-2.725-.487.254-.381.571-.223.861-.2a.812.812,0,0,0,.939.082L55,55.218l-.015-.389,1.231,0,.083.071.088-.062.272-.077q9.557.022,19.116.047c1.266,0,2.531.03,3.8.045l.709.373.012.236c-.06.595-.506.483-.887.483l-22.546-.029" transform="translate(-0.443 -0.276)" fill="#6fa6d6"/>
      <path id="Path_17196" data-name="Path 17196" d="M56.4,54.837l-.089.061-.083-.07a.132.132,0,0,1,.173.009" transform="translate(-0.46 -0.276)" fill="#6fa6d6"/>
      <path id="Path_17197" data-name="Path 17197" d="M80.488,55.223l-.71-.373.457-.127.687.16a.357.357,0,0,1-.434.34" transform="translate(-0.653 -0.275)" fill="#6fa6d6"/>
      <path id="Path_17198" data-name="Path 17198" d="M56.873,55.917l22.546.029c.381,0,.826.112.887-.483.307.282.693.508.678,1.008q-11.741-.012-23.481-.028c-.433,0-.867-.027-1.3-.042.006-.135.013-.271.019-.407l.653-.078" transform="translate(-0.46 -0.279)" fill="#fbfbfc"/>
      <path id="Path_17199" data-name="Path 17199" d="M54.239,57.7V70.423H54.13V57.661l.109.044" transform="translate(-0.443 -0.29)" fill="#2376bd"/>
      <path id="Path_17200" data-name="Path 17200" d="M34.775,33.076a.779.779,0,0,1-.776.756,7.366,7.366,0,0,1-1.185,0c-.733-.08-1.017.22-.936.944a5.444,5.444,0,0,1-.011.951.726.726,0,0,1-.76.749c-.53.016-.794-.283-.8-.812a4.631,4.631,0,0,1,0-.713c.132-.907-.263-1.166-1.138-1.139-.624.02-1.664.4-1.7-.691-.036-1.155,1.051-.866,1.713-.842.895.032,1.244-.256,1.124-1.144a2.774,2.774,0,0,1,.026-.83.766.766,0,0,1,.72-.681c.425-.038.641.26.777.607a.886.886,0,0,1,.054.467c-.264,1.389.415,1.708,1.645,1.576.536-.058,1.138.057,1.25.8" transform="translate(-0.225 -0.149)" fill="#fbfbfc"/>
      <path id="Path_17201" data-name="Path 17201" d="M27.194,46.644c.061.023.11.026.133.052,1.636,1.818,1.834-.432,2.585-.976.282-.2.315-.773.839-.4.451.323.627.718.166,1.189a13.546,13.546,0,0,0-1.649,1.867.836.836,0,0,1-1.17.215c-.588-.305-1.327-.49-1.574-1.154-.145-.39.265-.692.671-.794" transform="translate(-0.217 -0.227)" fill="#fbfbfc"/>
      <path id="Path_17202" data-name="Path 17202" d="M54.044,73.116l.473-.006a.33.33,0,0,1-.473.006" transform="translate(-0.442 -0.368)" fill="#98d5f8"/>
      <path id="Path_17203" data-name="Path 17203" d="M49.782,74.695a2.114,2.114,0,0,1-2.206-2.115,2.03,2.03,0,0,1,2-2.058,2.051,2.051,0,0,1,2.308,2.106,1.983,1.983,0,0,1-2.1,2.067" transform="translate(-0.389 -0.355)" fill="#f2d7d9"/>
      <path id="Path_17204" data-name="Path 17204" d="M51.861,48.844a2.147,2.147,0,0,1-2.154,2.213,2.292,2.292,0,0,1-2.124-2.148,2.14,2.14,0,0,1,4.279-.065" transform="translate(-0.39 -0.235)" fill="#f2d7d9"/>
      <path id="Path_17205" data-name="Path 17205" d="M43.136,80.677a2.24,2.24,0,0,1-2.278,2.109,2.045,2.045,0,0,1-2-2.2,2,2,0,0,1,2.2-2.092,2.249,2.249,0,0,1,2.08,2.18" transform="translate(-0.318 -0.395)" fill="#f2d7d9"/>
      <path id="Path_17206" data-name="Path 17206" d="M38.864,48.809a1.9,1.9,0,0,1,2.091-2.029,2.171,2.171,0,0,1,2.194,2.148,2.389,2.389,0,0,1-2.173,2.136,2.221,2.221,0,0,1-2.112-2.256" transform="translate(-0.318 -0.235)" fill="#f2d7d9"/>
      <path id="Path_17207" data-name="Path 17207" d="M38.861,56.861a2.045,2.045,0,0,1,2.183-2.115,2.4,2.4,0,0,1,2.1,2.31A2.222,2.222,0,0,1,41,59.042a2.1,2.1,0,0,1-2.143-2.181" transform="translate(-0.318 -0.276)" fill="#f2d7d9"/>
      <path id="Path_17208" data-name="Path 17208" d="M40.961,70.4a2.407,2.407,0,0,1,2.2,2.233,2.309,2.309,0,0,1-2.126,2.159,2.015,2.015,0,0,1-2.177-2.123,2.166,2.166,0,0,1,2.1-2.269" transform="translate(-0.318 -0.354)" fill="#f2d7d9"/>
      <path id="Path_17209" data-name="Path 17209" d="M66.786,73.095a.174.174,0,0,1-.3-.012l.3.012" transform="translate(-0.544 -0.368)" fill="#6fa6d6"/>
      <path id="Path_17210" data-name="Path 17210" d="M69.063,63.055a4.322,4.322,0,0,1,0,1.787c-1.409-.366-1.409-.366-1.413,1.013,0,.794-.011,1.588,0,2.382,0,.528-.231.848-.769.824-.49-.021-.655-.369-.654-.821a24.994,24.994,0,0,1,.015-2.5c.1-.947-.338-1.168-1.156-1.125-.789.041-1.582.031-2.373.023-.467,0-.916-.127-.91-.7.006-.546.437-.726.9-.74.87-.027,1.745-.059,2.61,0,.752.051.97-.242.92-.955-.054-.75-.013-1.507-.012-2.262,0-.518-.068-1.138.671-1.152.815-.016.752.647.756,1.206a16.041,16.041,0,0,1-.011,1.9c-.137,1.2.356,1.5,1.421,1.116" transform="translate(-0.506 -0.296)" fill="#365997"/>
      <path id="Path_17211" data-name="Path 17211" d="M70.337,74.41c.56-1.206,1.9-1.683,3.489-1.239a3.57,3.57,0,1,1-2.512,6.669,3.583,3.583,0,0,1-1.642-4.916c.147-.262.264-.6.68-.529-.085.517-.622.872-.523,1.456l-.161.476c.042,2.15,1.311,3.464,3.266,3.382s3.115-1.52,2.926-3.663a.817.817,0,0,0-.229-.746,3.029,3.029,0,0,0-4.2-1.521c-.372.2-.733.421-1.1.633" transform="translate(-0.567 -0.368)" fill="#eec2c6"/>
      <path id="Path_17212" data-name="Path 17212" d="M55,55.22l.936.086a.814.814,0,0,1-.94-.082l0,0" transform="translate(-0.45 -0.278)" fill="#6fa6d6"/>
      <path id="Path_17213" data-name="Path 17213" d="M75.864,76.06c.189,2.143-.959,3.581-2.926,3.663s-3.224-1.232-3.266-3.382a11.337,11.337,0,0,0,2.371-.047c1.274-.29,2.583.343,3.82-.235m-1.154,1.384-.006-.232h-4.2c0,.078.007.155.01.232Zm-.759,1.393c0-.106-.007-.213-.01-.319H71.172c1,.664,1.9.271,2.779.319" transform="translate(-0.57 -0.383)" fill="#fbfbfc"/>
      <path id="Path_17214" data-name="Path 17214" d="M69.834,75.854c-.1-.584.436-.939.523-1.456l-.015.014c.366-.211.726-.434,1.1-.633a3.029,3.029,0,0,1,4.2,1.522c-.105.6-.567.535-1,.536q-2.4.006-4.805.016M74,74.882a2.944,2.944,0,0,0-2.274-.06,2.562,2.562,0,0,0,2.274.06" transform="translate(-0.572 -0.37)" fill="#fbfbfc"/>
      <path id="Path_17215" data-name="Path 17215" d="M69.833,75.862q2.4-.007,4.8-.016c.43,0,.893.069,1-.536a.814.814,0,0,1,.228.746c-1.237.578-2.546-.055-3.82.235a11.326,11.326,0,0,1-2.37.047l.161-.476" transform="translate(-0.57 -0.379)" fill="#d6e2f2"/>
      <path id="Path_17216" data-name="Path 17216" d="M74.716,77.451H70.525c0-.078-.006-.155-.01-.232h4.2l.006.232" transform="translate(-0.577 -0.389)" fill="#daedfc"/>
      <path id="Path_17217" data-name="Path 17217" d="M73.963,78.849c-.877-.049-1.774.344-2.779-.319h2.769c0,.106.007.213.01.319" transform="translate(-0.583 -0.395)" fill="#daedfc"/>
      <path id="Path_17218" data-name="Path 17218" d="M74.017,74.888a2.562,2.562,0,0,1-2.274-.06,2.944,2.944,0,0,1,2.274.06" transform="translate(-0.587 -0.376)" fill="#daedfc"/>
    </g>
  </g>
</svg>
