<svg id="Group_1296" data-name="Group 1296" xmlns="http://www.w3.org/2000/svg" xmlns:xlink="http://www.w3.org/1999/xlink" width="107.819" height="93.915" viewBox="0 0 107.819 93.915">
  <defs>
    <clipPath id="clip-path">
      <rect id="Rectangle_1889" data-name="Rectangle 1889" width="107.82" height="93.915" fill="none"/>
    </clipPath>
  </defs>
  <g id="Group_1081" data-name="Group 1081" clip-path="url(#clip-path)">
    <path id="Path_15141" data-name="Path 15141" d="M109.26,83.343l-.028-.924a1.4,1.4,0,0,1-.262-.967c.169-1.289.165-2.594.369-3.88a4.417,4.417,0,0,1,.416-.924,34.223,34.223,0,0,1,7.611-16.3,3.336,3.336,0,0,0,.247-.387c.308-.765,1.024-1.2,1.483-1.843.509-.494,1.088-.913,1.553-1.454a7.506,7.506,0,0,1,1.919-1.4,41.254,41.254,0,0,1,5.852-3.549c12.122-5.5,23.658-4.43,34.613,3.1.153.105.3.212.456.318a7.23,7.23,0,0,1,1.973,1.356,19.331,19.331,0,0,1,1.823,1.721,12.289,12.289,0,0,1,1.611,2.067,34.114,34.114,0,0,1,7.47,28.925c-.039.213-.063.428-.094.642a12.4,12.4,0,0,1-1.091,4.51c-.361.674-.349,1.554-1.106,2.012a13.86,13.86,0,0,1-3.147.069c-2.288-.025-4.578.1-6.863-.071a.59.59,0,0,1-.256-.191c-.14-.425.156-.7.362-1a22.561,22.561,0,0,0-2.789-29.248,24.661,24.661,0,0,0-15-7.047,24.976,24.976,0,0,0-13.765,2.15C124.7,64.775,119.809,70.9,118.634,79.71a21,21,0,0,0,1.206,10.128c.171.466.625,1.01-.022,1.5a18.063,18.063,0,0,1-3.515.112c-1.577.017-3.154.04-4.731-.018-.763.067-1.4-.047-1.4-1.02l-.76-4.269a2.7,2.7,0,0,1-.191-2.01c.037-.265.165-.516.042-.787" transform="translate(-88.705 -39.283)" fill="#365997"/>
    <path id="Path_15142" data-name="Path 15142" d="M56.1,275.027c.129.764.692.793,1.291.764a.939.939,0,0,1,.463.854c.028.309.024.618.024.928q.011,19.595.007,39.19c0,.362.087.759-.3,1.008q-6.125.01-12.25.019a1.973,1.973,0,0,1-2.235-2.2c-.02-1.98-.012-3.96-.013-5.939q0-10.487-.006-20.974a1.57,1.57,0,0,0-.219-1.153,2.2,2.2,0,0,0-.315-1.337c.624-.205.544-.722.536-1.209-.006-.339-.008-.678-.011-1.017a4.517,4.517,0,0,1-.156-2.8,3.561,3.561,0,0,0-.194-2.775,5.014,5.014,0,0,1,.144-.811c.291-1.438.727-1.856,2.173-2.033a2.83,2.83,0,0,1,.99-.123c.083.447.435.358.731.358,2.875,0,5.751-.017,8.626.017.617.007.745-.259.716-.765" transform="translate(-34.635 -223.9)" fill="#365997" opacity="0.41"/>
    <path id="Path_15143" data-name="Path 15143" d="M404.44,304.737l10.354.042a3.493,3.493,0,0,1,2.112-.236c2.289.012,4.579.018,6.869-.024a.452.452,0,0,1,.342.086,7.394,7.394,0,0,0,2.842.18c1.939.042,2.556.631,2.556,2.571q0,16.068.007,32.136a1.955,1.955,0,0,1-1.3,2.1,1.659,1.659,0,0,1-.821.078q-7.15.006-14.3,0c-1.011,0-1.11-.093-1.166-1.083-.022-.4-.011-.8-.011-1.207q0-16.064,0-32.128c0-.217,0-.433,0-.65-.016-1.256-.072-1.319-1.3-1.326-1.7-.01-3.405.022-5.107-.02-.4-.01-.963.159-1.068-.521" transform="translate(-329.256 -247.892)" fill="#d3e0ea"/>
    <path id="Path_15144" data-name="Path 15144" d="M373.779,14.876q-3.719-3.146-7.441-6.288c-.325-.273-.625-.447-.242-.948C369.564,3.105,374.016.4,379.836.384a12.268,12.268,0,0,1,12.2,11.514,17.232,17.232,0,0,1-4.906,13.261c-.409.446-.672.437-1.123.051-2.256-1.93-4.543-3.824-6.819-5.731-.906-.239-1.373-1.072-2.1-1.552-.471-.473-1.038-.834-1.534-1.277a7.09,7.09,0,0,1-1.77-1.773" transform="translate(-297.894 -0.312)" fill="#365997"/>
    <path id="Path_15145" data-name="Path 15145" d="M90.863,19.144Q87.453,22,84.047,24.87c-.332.28-.566.488-.972.05C78.861,20.377,76.931,15.145,78.543,9A12.184,12.184,0,0,1,92.192.128a17.489,17.489,0,0,1,11.634,6.948c.44.56.332.839-.168,1.255-2.473,2.057-4.916,4.149-7.37,6.229a7.9,7.9,0,0,1-1.773,1.754c-.549.449-1.059.946-1.642,1.354-.695.457-1.124,1.277-2.008,1.475" transform="translate(-63.482 -0.001)" fill="#365997"/>
    <path id="Path_15146" data-name="Path 15146" d="M122.6,319.78c0-.518,0-1.036,0-1.554q0-19.58,0-39.161a2.174,2.174,0,0,0-.183-1.264l8.554-.023a1.482,1.482,0,0,1,1.053-.271c.929-.009,1.858-.02,2.786,0a2.347,2.347,0,0,1,2.552,2.46c.06,1.144.016,2.291.019,3.436,0,.929-.005,1.857.046,2.785-.049.438-.066.88-.095,1.321a14.273,14.273,0,0,0-.022,4.208,1.031,1.031,0,0,1-.431,1.064,1.648,1.648,0,0,1-.442.129c-1.582.266-2.247.9-2.351,2.474a34.928,34.928,0,0,0,.022,5.183c.057.678.115,1.352.114,2.032,0,4.54.021,9.08-.015,13.62a10.514,10.514,0,0,0,.5,3.53l-12.1.028" transform="translate(-99.653 -225.911)" fill="#365997" opacity="0.41"/>
    <path id="Path_15147" data-name="Path 15147" d="M360.7,304.678c.227.392.609.226.922.228,1.948.015,3.9.048,5.845-.013.828-.026,1.034.229,1.032,1.042q-.04,17.166-.018,34.332c0,1.255,0,1.255,1.243,1.256l14.753.01c-.287.265-.644.171-.974.171q-14.877,0-29.755-.01c-.3,0-.623.09-.888-.145.4-.416.918-.272,1.4-.29.677-.025,1.355.014,2.032-.015.96-.04,1.308-.343,1.508-1.288a1.419,1.419,0,0,1,.386-.911c.979-.117,1.268-.708,1.124-1.615a4.226,4.226,0,0,1-.005-.649c0-1.351,0-1.351-1.27-1.56a1.4,1.4,0,0,1-.212-.907c-.01-.266-.014-.532,0-.8a1.888,1.888,0,0,1,.179-1.066c1.31-.327,1.31-.327,1.31-1.81,0-.185-.014-.372,0-.556.075-.832.027-1.571-1.083-1.61-.12,0-.21-.121-.28-.229a3.866,3.866,0,0,1,.062-2.493c.474-.417,1.055-.273,1.6-.3a22.039,22.039,0,0,1,3.975-.17,1.78,1.78,0,0,0,1.925-1.695,1.862,1.862,0,0,0-1.757-1.826,27.217,27.217,0,0,0-3.986.015,6.652,6.652,0,0,1-1.705-.218c-.478-.806-1.1-1.576-.693-2.617a5.969,5.969,0,0,1,2.283-.168c1.109,0,2.219.005,3.329,0a4.381,4.381,0,0,0,1.012-.079,1.867,1.867,0,0,0,1.478-1.871,1.67,1.67,0,0,0-1.723-1.591c-1.355-.059-2.713-.007-4.071-.019a29.481,29.481,0,0,1-3.859-.083c-.328-.041-.693.005-.876-.376a3.909,3.909,0,0,1,.114-2.448,2.81,2.81,0,0,1,1.692-.245c.947-.01,1.894-.031,2.84.014,1.237.012,2.474.01,3.712.006a2.606,2.606,0,0,0,1.263-.242,1.858,1.858,0,0,0,.92-1.88,1.733,1.733,0,0,0-1.732-1.407c-1.328-.079-2.661-.008-3.992-.03-1.325.009-2.651-.016-3.975.009a1.827,1.827,0,0,0-1.957,2.42c.048.268.179.541-.1.766a4.176,4.176,0,0,1-2.743-.055,1.423,1.423,0,0,1-.252-.962c-.014-1.17-.04-2.342.006-3.511.073-1.852.938-2.712,2.762-2.741,2.186-.035,4.374.01,6.56-.022a1.126,1.126,0,0,1,.626.12.173.173,0,0,1,.012.133" transform="translate(-285.518 -247.832)" fill="#bdcdd6"/>
    <path id="Path_15148" data-name="Path 15148" d="M472.707,158.373a3.718,3.718,0,0,1-2.124.192c-1.649-.034-3.3-.013-4.95-.014a3.394,3.394,0,0,1-1.508-1.887l1.291-4.445a1.465,1.465,0,0,0,.307.858,4.562,4.562,0,0,1,1.015,4.645q1.255-1.424,2.508-2.848c.154-.176.087-.342-.051-.493a1.927,1.927,0,0,0-.259-.266c-1.981-1.452-1.822-3.379-1.243-5.426.19-.671.45-.539.812-.178,1.365,1.359,2.276,2.863,1.563,4.888-.046.13-.155.276.074.448.72-.989,1.425-1.987,2.165-2.959.3-.388.249-.666-.124-.932-.1-.072-.212-.129-.31-.2a4.332,4.332,0,0,1-1.52-5.253c.2-.542.424-.382.724-.118,1.5,1.314,2.74,2.732,2.1,5a22.631,22.631,0,0,0,2.03-3.285.553.553,0,0,0-.266-.836,10.529,10.529,0,0,1-.995-.68,2.743,2.743,0,0,1-1.265-2.437c.035-.861.007-1.723.007-2.616,2.052.665,3.128,2.346,3.209,5.024a24.508,24.508,0,0,0,1.741-3.741c.1-.2-.064-.351-.229-.45a2.119,2.119,0,0,0-.419-.2c-2.27-.748-2.639-2.633-2.782-4.65-.047-.669.311-.643.754-.4,1.557.852,2.992,1.8,3.03,3.852,0,.042.081.083.254.248.387-1.262.756-2.449,1.112-3.639.076-.252-.082-.4-.3-.5-.252-.118-.492-.269-.752-.364a3.5,3.5,0,0,1-2.452-3.632c0-.031-.006-.062,0-.093.037-.447-.444-1.031-.007-1.3s.887.256,1.306.5c1.291.743,2.305,1.673,2.3,3.317a.619.619,0,0,0,.1.257,1.06,1.06,0,0,0,.134.162,6.422,6.422,0,0,0,.127-4.093,4.678,4.678,0,0,1,1.641-4.8c.352-.272.453-.161.561.193.876,2.87.97,3.838-1,5.608a1.57,1.57,0,0,0-.526,1.13c-.057.7-.23,1.384-.352,2.064a.24.24,0,0,0,.339-.131c1.117-1.847,2.9-2.011,4.794-1.9.5.03.466.292.243.622-1.092,1.623-2.2,3.225-4.554,2.736-.861-.179-1.273.144-1.452,1.021-.2.983-.563,1.932-.781,2.949a4.7,4.7,0,0,1,2.328-1.772,9.673,9.673,0,0,1,2.67-.191c.5,0,.472.21.237.577a11.54,11.54,0,0,1-1.8,2.222c-.958.9-2.177.584-3.286.5-.656-.048-.826.144-1.034.687-.449,1.174-1,2.311-1.488,3.562,1.617-2.085,3.668-2.07,5.978-1.337a9.885,9.885,0,0,1-2.772,2.524,3.279,3.279,0,0,1-2.618-.058c-.828-.273-1.27-.127-1.624.714s-.907,1.6-1.3,2.5c.259-.175.517-.352.778-.524,1.4-.917,2.833-.6,4.262-.1.381.132.468.37.1.675-.45.377-.872.789-1.315,1.175a3.444,3.444,0,0,1-3.909.33.966.966,0,0,0-1.417.464c-.485.8-1.086,1.53-1.6,2.388,1.567-1.266,3.183-.93,4.806-.275.242.1.6.154.622.482.026.343-.336.4-.563.541-.981.6-1.8,1.557-3.133,1.393a7.712,7.712,0,0,1-2.281-.729c-.244-.112-.473-.3-.739.008-.863.994-1.743,1.972-2.589,3.051,1.986-1.44,3.845-.979,5.664.246" transform="translate(-377.847 -101.659)" fill="#97bae4"/>
    <path id="Path_15149" data-name="Path 15149" d="M227.956,381.141a4.5,4.5,0,0,1-2.361.26c-3.733.06-7.466.07-11.2.1.794-.448.839-1.294,1.082-2.037a2.092,2.092,0,0,1,1.427-.277c2.57-.01,5.139,0,7.709-.007,1.556,0,1.742-.179,1.744-1.691q.012-8.777,0-17.555c0-1.265-.081-1.338-1.395-1.342-2.694-.008-5.387,0-8.081-.006a2.477,2.477,0,0,1-1.358-.207.875.875,0,0,1-.273-.664,38.547,38.547,0,0,1,.018-4.049.706.706,0,0,1,.291-.207,19.618,19.618,0,0,1,3.607-.1c1.76,0,3.524-.1,5.281.07a14.038,14.038,0,0,0,3.481.581,2.443,2.443,0,0,0,1.1.118,2.706,2.706,0,0,1,2.54,1.023,1.911,1.911,0,0,1-.861,2c-.224.165-.453.325-.689.471a2.847,2.847,0,0,0-1.434,2.7c.041,3.464,0,6.928,0,10.393A3.971,3.971,0,0,0,228.7,372a5.652,5.652,0,0,1,.076,1.3c.01.272.009.543,0,.815.025.442.009.884,0,1.326.035,1.437.016,2.874.01,4.31a1.3,1.3,0,0,1-.837,1.383" transform="translate(-174.541 -287.643)" fill="#3e61a0"/>
    <path id="Path_15150" data-name="Path 15150" d="M41.454,108.495a49.962,49.962,0,0,0-.522,5.771c-.375-.381-.7-.258-1.127-.008a3.384,3.384,0,0,1-4.335-.407c-.42-.368-.039-.437.185-.562a3.814,3.814,0,0,1,3.941-.333c-.652-.69-1.294-1.391-1.963-2.064-.264-.265-.543,0-.756.123-1.6.956-2.888.237-4.151-.723-.372-.283-.342-.505.066-.652a4.1,4.1,0,0,1,3.962.185c-.623-.866-1.109-1.506-1.554-2.174-.3-.444-.639-.176-.9-.055-1.546.726-2.741.109-3.837-.938-.171-.164-.477-.3-.409-.569.078-.307.422-.31.687-.37a3.948,3.948,0,0,1,3.421.391c-.409-.7-.829-1.388-1.222-2.094-.231-.415-.536-.329-.872-.2-1.755.7-2.929-.229-4.024-1.421-.383-.416-.213-.578.227-.648,1.367-.218,2.729-.389,3.77.928a10.975,10.975,0,0,0-1.119-2.866c-.28-.323-.63-.209-.95-.167a3.239,3.239,0,0,1-3.606-2.1c-.176-.5.17-.5.485-.542a4.1,4.1,0,0,1,3.576,1.508c-.282-.989-.509-1.819-.757-2.642-.15-.5-.6-.419-.934-.357-1.745.32-2.688-.679-3.5-2-.333-.54-.164-.62.346-.628,1.354-.019,2.683.014,3.6,1.607a3.95,3.95,0,0,0-1.056-3.127c-1.212-1.122-.742-2.421-.354-3.7.116-.381.386-.383.626-.108.866,1,1.7,2.018,1.2,3.478a4.535,4.535,0,0,0,.118,3.049,3.554,3.554,0,0,1,1.968-2.748c.283-.171.65-.455.928-.307.32.17.114.615.11.937a2.98,2.98,0,0,1-2.073,3.052c-.687.24-.749.622-.483,1.2a10.03,10.03,0,0,0,.858,2.211,3.488,3.488,0,0,1,2.373-3.16c.417-.2.56-.194.54.391-.057,1.62-.384,3.01-2.154,3.579a.447.447,0,0,0-.278.671,11.641,11.641,0,0,0,1.193,2.536A3.739,3.739,0,0,1,35,98.744a3.374,3.374,0,0,1-1.264,4.28c-.393.307-.566.609-.258,1.1a10.058,10.058,0,0,0,1.513,2.231c-.535-1.854.407-2.871,1.512-3.835.363-.316.543-.25.6.179.174,1.37.535,2.8-.914,3.776-.8.537-.727,1.085-.116,1.734.435.463.793,1,1.245,1.487a3.647,3.647,0,0,1,1.1-3.789c.419-.423.658-.5.852.2.424,1.526.434,2.916-.959,4-.18.139-.469.339-.239.606a21.62,21.62,0,0,0,1.981,2.033c-.615-1.821.253-3.081,1.405-4.246" transform="translate(-20.404 -71.13)" fill="#98bae4"/>
    <path id="Path_15151" data-name="Path 15151" d="M11.391,222.041a1,1,0,0,1-.886.369c-1.343.045-1.855.528-2.052,1.871-.042.286.092.657-.37.727a4.233,4.233,0,0,0-1.109.031c-2.339.7-3.639-.686-4.836-2.334-.33-.455-.206-.65.3-.746,1.443-.275,3.8-.136,4.718,1.694.034.068.127.108.407.334-.548-1.455-1-2.681-1.473-3.9-.17-.439-.571-.3-.887-.265-2.471.3-3.968-.436-5.108-2.566-.337-.629.332-.534.518-.549,1.8-.143,3.564-.131,4.676,1.672.044.072.139.114.217.175a4.779,4.779,0,0,0-1.414-3.611,4.894,4.894,0,0,1-.829-5.307c.2-.308.363-.135.517.006,1.451,1.332,2.538,2.7,1.892,4.939-.387,1.337-.268,1.946.574,4.152a4.335,4.335,0,0,1,2.529-4.556c.886-.494.982-.427.971.539-.006.525-.012,1.052-.054,1.576-.127,1.582-1.266,2.339-2.524,2.924-.651.3-.815.627-.5,1.267a35.117,35.117,0,0,0,1.4,3.289c-.141-2.712,1.47-3.863,3.478-4.84a9.831,9.831,0,0,1-.147,3.11" transform="translate(0 -170.524)" fill="#98bae4"/>
    <path id="Path_15152" data-name="Path 15152" d="M184.367,385.9a2.694,2.694,0,0,1-.75-2.009c0-5.283.017-10.567-.077-15.849-.036-2.035-.073-4.072-.125-6.107-.049-1.921,1.048-3.422,3.146-3.156a6.653,6.653,0,0,1,.028,3.993c-.866.232-1.056.82-1.051,1.667q.047,8.614.007,17.227a2.26,2.26,0,0,0,.983,2.15,1.072,1.072,0,0,1,.187.288,2.141,2.141,0,0,1-.145,1.816,9.839,9.839,0,0,1-2.2-.021" transform="translate(-149.318 -292.056)" fill="#3d61a1"/>
    <path id="Path_15153" data-name="Path 15153" d="M287.34,476.48a1.87,1.87,0,0,0,.58-1.553c-.04-1.4-.008-2.806-.006-4.209a.706.706,0,0,1,.952-.006,11.071,11.071,0,0,1,.059,2.124c.084,1.382.519,1.866,1.871,1.874q5.944.036,11.887,0c1.417-.008,1.783-.426,1.851-1.845a7.039,7.039,0,0,1,.1-2.2,2.012,2.012,0,0,1,1.875.006,7.885,7.885,0,0,1,.157,3.628,1.464,1.464,0,0,0-.149.336c-.331,1.982-.391,2.033-2.387,2.041-.955,0-1.91.016-2.865.025-3.736-.032-7.472-.044-11.205.138a6.117,6.117,0,0,1-2.723-.357" transform="translate(-233.925 -382.981)" fill="#97bae4"/>
    <path id="Path_15154" data-name="Path 15154" d="M26.755,307.018a9.767,9.767,0,0,1,.156,2.8c-1.877.321-2.9-1.013-4.038-2.1-.408-.389-.018-.542.265-.618a6.38,6.38,0,0,1,3.617-.08" transform="translate(-18.477 -249.759)" fill="#98bbe5"/>
    <path id="Path_15155" data-name="Path 15155" d="M200.357,495.487q0-.918-.009-1.837a5.688,5.688,0,0,1,3.72-.009,1.434,1.434,0,0,0,0,.184c.129.888.01,1.608-1.112,1.654l-2.6.007" transform="translate(-163.104 -401.624)" fill="#2b4b87"/>
    <path id="Path_15156" data-name="Path 15156" d="M147.3,95.922l1.885-1.611c.372.527.863.95,1.273,1.445l-1.632,1.7a7.489,7.489,0,0,0-1.526-1.532" transform="translate(-119.915 -76.779)" fill="#9ebbef"/>
    <path id="Path_15157" data-name="Path 15157" d="M423.053,93.948l2,1.7c-.508.524-1.447.788-1.1,1.827a14.279,14.279,0,0,1-1.693-1.97c-.066-.687.683-.96.791-1.559" transform="translate(-343.762 -76.483)" fill="#9ebaef"/>
    <path id="Path_15158" data-name="Path 15158" d="M166.295,79.929l1.892-1.607c.006.732.612,1.016,1.059,1.419l-1.8,1.535a3.515,3.515,0,0,1-1.155-1.348" transform="translate(-135.381 -63.762)" fill="#9ebbef"/>
    <path id="Path_15159" data-name="Path 15159" d="M100.285,237.016a15.222,15.222,0,0,1,.149,2.8,5.118,5.118,0,0,1-1.933-.59c-.2-.113-.568-.042-.566-.375,0-.278.32-.352.515-.488a3.673,3.673,0,0,1,1.37-.75c.365-.069.407-.322.465-.6" transform="translate(-79.73 -192.956)" fill="#9abae4"/>
    <path id="Path_15160" data-name="Path 15160" d="M403.4,78.341l1.88,1.626a2.057,2.057,0,0,1-1.132,1.139l-1.848-1.48c.592-.235,1.071-.567,1.1-1.285" transform="translate(-327.513 -63.778)" fill="#9dbbed"/>
    <path id="Path_15161" data-name="Path 15161" d="M38.878,335.053c.794.283.627.793.315,1.337-.485-.152-.744-.6-1.152-.867a1.083,1.083,0,0,1,.837-.469" transform="translate(-30.969 -272.768)" fill="#a1bce0"/>
    <path id="Path_15162" data-name="Path 15162" d="M182.854,150.488c-.824-.083-1.649-.157-2.471-.255-.325-.039-.691,0-.919-.327.7-1.1.468-2.331.427-3.521-.025-.731-.6-.862-1.2-.87-1.547-.021-3.1,0-4.643-.009-1.269-.006-2.538.018-3.807-.014a9.946,9.946,0,0,1-1.922-.074c-.521-.294-1.108-.516-1.283-1.186a1.509,1.509,0,0,1-.221-1.06c0-1.732,0-3.464-.008-5.2a1.975,1.975,0,0,0-2.206-2.244c-1.3-.008-2.6,0-3.9,0A27.279,27.279,0,0,1,159,128.456a22.51,22.51,0,0,1,7.565-18.681,26.116,26.116,0,0,1,37.991,3.138,22.584,22.584,0,0,1,.019,27.667,1.924,1.924,0,0,1-1.077.192q-3.108,0-6.215,0a2.083,2.083,0,0,0-2.365,2.317c-.025,1.515-.015,3.03-.02,4.545-.377.37-.861.288-1.314.292-2.314.021-4.629.007-6.944.005-.734,0-.957.272-.953.985.008,1.6-.024,1.6-1.626,1.6a8.106,8.106,0,0,1-1.2-.028" transform="translate(-129.399 -83.869)" fill="#fefefe"/>
    <path id="Path_15163" data-name="Path 15163" d="M159.085,86.964a2.729,2.729,0,0,1,1.155,1.348l-1.529,1.463a1.762,1.762,0,0,1-1.272-1.445l1.646-1.366" transform="translate(-128.172 -70.798)" fill="#f8fafb"/>
    <path id="Path_15164" data-name="Path 15164" d="M412.238,88.226a4.356,4.356,0,0,1,1.132-1.139l1.525,1.275c.359.835-.653.975-.791,1.558a14.3,14.3,0,0,1-1.867-1.694" transform="translate(-335.604 -70.898)" fill="#f8f9f9"/>
    <path id="Path_15165" data-name="Path 15165" d="M460.877,295.886l1.508,1.887-2.25,0,.742-1.883" transform="translate(-374.598 -240.882)" fill="#f6f8f8"/>
    <path id="Path_15166" data-name="Path 15166" d="M61.226,351.017a3.577,3.577,0,1,1,4.872-5.239c-.019.039-.039.078-.057.117-1.427,1.43-2.7,3-4.057,4.493-.225.248-.392.555-.758.629" transform="translate(-48.907 -280.715)" fill="#ffdeb4"/>
    <path id="Path_15167" data-name="Path 15167" d="M61.187,405.185a3.538,3.538,0,0,1,3.5-5.964,3.244,3.244,0,0,1,1.348.75c-.02.038-.041.076-.061.114-1.168,1.109-2.047,2.47-3.164,3.624a5.366,5.366,0,0,1-1.627,1.476" transform="translate(-48.866 -324.852)" fill="#ffdeb4"/>
    <path id="Path_15168" data-name="Path 15168" d="M61.062,296.348a3.522,3.522,0,0,1,4.7-5.246c-.312,1.035-1.244,1.59-1.869,2.381a23.072,23.072,0,0,1-2.073,2.371c-.219.211-.408.476-.756.494" transform="translate(-48.779 -236.273)" fill="#ffdeb4"/>
    <path id="Path_15169" data-name="Path 15169" d="M61.318,459.482a3.464,3.464,0,0,1-.257-4.829,3.541,3.541,0,0,1,4.977-.439c0,.044-.006.087-.009.131a2.522,2.522,0,0,1-.777,1.134c-1.119,1.236-2.2,2.506-3.386,3.683a.889.889,0,0,1-.548.321" transform="translate(-49.011 -369.111)" fill="#ffdeb4"/>
    <path id="Path_15170" data-name="Path 15170" d="M71.335,296.1a3.413,3.413,0,0,1,.466,4.591,3.638,3.638,0,0,1-4.617,1.114,7.6,7.6,0,0,1-.67-.48c1.522-1.547,2.9-3.225,4.3-4.875a.8.8,0,0,1,.518-.35" transform="translate(-54.149 -241.055)" fill="#ffdeb4"/>
    <path id="Path_15171" data-name="Path 15171" d="M72.028,404.085a3.553,3.553,0,0,1,.913,3.984,3.354,3.354,0,0,1-2.83,2.228,3.218,3.218,0,0,1-2.729-.814,7.185,7.185,0,0,1,1.4-1.682c1.086-1.211,2.1-2.484,3.2-3.681Z" transform="translate(-54.856 -328.967)" fill="#ffdeb4"/>
    <path id="Path_15172" data-name="Path 15172" d="M71.239,457.793a3.578,3.578,0,1,1-4.648,5.437c1.446-1.48,2.831-3.015,4.184-4.581.2-.236.437-.44.417-.788Z" transform="translate(-54.212 -372.691)" fill="#ffdeb4"/>
    <path id="Path_15173" data-name="Path 15173" d="M71.992,350a3.564,3.564,0,0,1-4.656,5.392c-.1-.275.154-.383.283-.521,1.478-1.582,2.81-3.3,4.33-4.84Z" transform="translate(-54.801 -284.935)" fill="#ffdeb4"/>
    <path id="Path_15174" data-name="Path 15174" d="M70.976,295.164q-2.008,2.324-4.019,4.646a1.348,1.348,0,0,1-.8.578l-.082-.192,4.7-5.246.206.214" transform="translate(-53.79 -240.12)" fill="#bdcdd6"/>
    <path id="Path_15175" data-name="Path 15175" d="M70.878,458.164c.14.183.229.361.036.573-1.407,1.544-2.808,3.094-4.222,4.631-.091.1-.274.111-.414.164a.3.3,0,0,1-.072-.168l4.673-5.2" transform="translate(-53.898 -372.993)" fill="#bdcdd6"/>
    <path id="Path_15176" data-name="Path 15176" d="M71.087,404.258a7.1,7.1,0,0,1-1.839,2.378,23.436,23.436,0,0,1-2.767,2.985l-.205-.184c1.319-1.526,2.724-2.976,3.967-4.57.2-.26.381-.663.844-.608" transform="translate(-53.956 -329.104)" fill="#bdcdd6"/>
    <path id="Path_15177" data-name="Path 15177" d="M71.1,350.1a48.826,48.826,0,0,1-4.613,5.361l-.216-.153q2.109-2.439,4.221-4.876c.155-.179.3-.408.608-.332" transform="translate(-53.949 -285.006)" fill="#bdcdd6"/>
    <path id="Path_15178" data-name="Path 15178" d="M466.754,400.294a28.882,28.882,0,0,1-4.707-.162,2.093,2.093,0,0,1-1.619-1.973,2.316,2.316,0,0,1,1.465-1.947,9.057,9.057,0,0,1,2.575-.16c.759-.011,1.518.015,2.277.024a7.129,7.129,0,0,1,.008,4.219" transform="translate(-374.836 -322.416)" fill="#5f85b2"/>
    <path id="Path_15179" data-name="Path 15179" d="M466.646,437.061a12.672,12.672,0,0,1-5-.048,1.9,1.9,0,0,1-1.3-2.1,2.08,2.08,0,0,1,1.816-1.775,13.64,13.64,0,0,1,4.48.016,5.614,5.614,0,0,1,0,3.907" transform="translate(-374.754 -352.473)" fill="#5f85b1"/>
    <path id="Path_15180" data-name="Path 15180" d="M466.889,364.36c-1.362,0-2.724.02-4.085,0a2.124,2.124,0,0,1-2.089-1.509,1.885,1.885,0,0,1,.914-2.366,2.061,2.061,0,0,1,1.415-.27,17.016,17.016,0,0,0,3.317-.094.51.51,0,0,1,.5.169,6.431,6.431,0,0,1,.024,4.074" transform="translate(-374.974 -293.166)" fill="#5f85b1"/>
    <path id="Path_15181" data-name="Path 15181" d="M466.7,329.122c-1.358,0-2.716.013-4.074,0a2.105,2.105,0,0,1-2.175-1.521,2.178,2.178,0,0,1,.948-2.319,1.387,1.387,0,0,1,.949-.249c1.45,0,2.9.006,4.351.01a6.515,6.515,0,0,1,0,4.075" transform="translate(-374.79 -264.614)" fill="#5f85b1"/>
    <path id="Path_15182" data-name="Path 15182" d="M466.7,472.852c-1.42,0-2.847-.078-4.257.039a2.128,2.128,0,0,1-2.041-1.759,2.084,2.084,0,0,1,1.376-2.168,12.25,12.25,0,0,1,4.919-.012,5.728,5.728,0,0,1,0,3.9" transform="translate(-374.802 -381.577)" fill="#5f85b1"/>
    <path id="Path_15183" data-name="Path 15183" d="M494.3,437.089q0-1.953,0-3.907a12.906,12.906,0,0,1,4.682.055,1.971,1.971,0,0,1,1.416,1.95,2.074,2.074,0,0,1-1.684,1.966,13.537,13.537,0,0,1-4.41-.064" transform="translate(-402.408 -352.501)" fill="#ffdeb4"/>
    <path id="Path_15184" data-name="Path 15184" d="M494.424,400.393q0-2.11-.009-4.219c1.268-.005,2.536-.019,3.8-.013a2.269,2.269,0,0,1,2.28,2.09,2.175,2.175,0,0,1-2.381,2.082,20.551,20.551,0,0,0-3.693.061" transform="translate(-402.505 -322.515)" fill="#ffdeb4"/>
    <path id="Path_15185" data-name="Path 15185" d="M494.4,329.1v-4.075c1.323,0,2.647-.027,3.97-.008a2.043,2.043,0,1,1,0,4.083c-1.323.019-2.647,0-3.97,0" transform="translate(-402.49 -264.59)" fill="#ffdeb4"/>
    <path id="Path_15186" data-name="Path 15186" d="M494.334,472.894q0-1.95,0-3.9a12.078,12.078,0,0,1,4.57-.032,2,2,0,0,1-.5,3.948c-1.356.018-2.713-.009-4.069-.017" transform="translate(-402.437 -381.619)" fill="#ffdeb4"/>
    <path id="Path_15187" data-name="Path 15187" d="M494.338,365q-.012-2.037-.024-4.074c1.359-.011,2.719-.045,4.077-.026A2.024,2.024,0,0,1,500.4,363a2.22,2.22,0,0,1-1.988,1.981c-1.359.04-2.719.017-4.079.02" transform="translate(-402.423 -293.804)" fill="#ffdeb4"/>
    <path id="Path_15188" data-name="Path 15188" d="M144.967,405.246A3.566,3.566,0,0,1,147.741,399a3.167,3.167,0,0,1,2.038.942c-.021.038-.042.075-.062.114-1.288,1.211-2.336,2.635-3.5,3.956a6.46,6.46,0,0,1-1.25,1.233" transform="translate(-117.006 -324.817)" fill="#ffdeb4"/>
    <path id="Path_15189" data-name="Path 15189" d="M144.77,296.439a3.6,3.6,0,0,1,.627-5.9,3.514,3.514,0,0,1,4.019.47c-.26.8-1,1.213-1.475,1.839-.944,1.237-2.037,2.356-3.055,3.536l-.116.058" transform="translate(-116.823 -236.182)" fill="#ffdeb4"/>
    <path id="Path_15190" data-name="Path 15190" d="M144.823,350.888a3.533,3.533,0,0,1,4.5-5.443c.1.542-.3.846-.6,1.17-1.246,1.363-2.429,2.782-3.686,4.135a.759.759,0,0,1-.217.138" transform="translate(-116.891 -280.58)" fill="#ffdeb4"/>
    <path id="Path_15191" data-name="Path 15191" d="M145.188,459.463a3.569,3.569,0,0,1,1.843-6.169,3.234,3.234,0,0,1,2.826.8,8.166,8.166,0,0,1-1.791,2.3,21.034,21.034,0,0,1-2.878,3.072" transform="translate(-117.245 -368.98)" fill="#ffdeb4"/>
    <path id="Path_15192" data-name="Path 15192" d="M155.181,295.966a3.512,3.512,0,0,1,.209,4.893,3.646,3.646,0,0,1-5.051.329l.023-.029c1.451-1.583,2.833-3.225,4.254-4.834.152-.171.239-.456.564-.359" transform="translate(-122.392 -240.931)" fill="#ffdeb4"/>
    <path id="Path_15193" data-name="Path 15193" d="M155.875,404.13a3.594,3.594,0,0,1,.206,5.055c-1.254,1.348-3.884,1.483-4.834.316a.253.253,0,0,1,.07-.328c1.6-1.594,2.938-3.42,4.53-5.019Z" transform="translate(-123.102 -329.004)" fill="#ffdeb4"/>
    <path id="Path_15194" data-name="Path 15194" d="M155.108,350.182a3.446,3.446,0,0,1,.223,4.879,3.489,3.489,0,0,1-4.71.6c-.117-.1-.244-.181-.367-.27l.03-.036c1.562-1.533,2.947-3.225,4.372-4.88a.686.686,0,0,1,.451-.294" transform="translate(-122.323 -285.085)" fill="#ffdeb4"/>
    <path id="Path_15195" data-name="Path 15195" d="M156,458.987a3.394,3.394,0,0,1,.8,3.924,3.552,3.552,0,0,1-3.608,2.173,2.854,2.854,0,0,1-1.894-.836c.29-.785,1.01-1.231,1.513-1.842.88-1.068,1.846-2.07,2.719-3.149a.676.676,0,0,1,.471-.27" transform="translate(-123.17 -373.663)" fill="#ffdeb4"/>
    <path id="Path_15196" data-name="Path 15196" d="M199.7,358.253a16.488,16.488,0,0,0-.138-3.4c-.039-.153.089-.348.139-.523.241-.265.171-.6.2-.911,1.123-.063,2.264-.373,3.337.242a9.937,9.937,0,0,1,.175,3.017c.036.522.011,1.049.013,1.573a.64.64,0,0,1-.275.193,12.305,12.305,0,0,1-3.185,0,.606.606,0,0,1-.272-.2" transform="translate(-162.457 -287.614)" fill="#2b4e8a"/>
    <path id="Path_15197" data-name="Path 15197" d="M203.617,333.813c-1.1-.189-2.252.21-3.337-.242a8.81,8.81,0,0,1-.012-4.244c.349-.634.856-.413,1.352-.248l2,.064c.132.076.3.153.318.307a8.957,8.957,0,0,1-.128,4.292l-.19.071" transform="translate(-162.833 -267.762)" fill="#bdcdd6"/>
    <path id="Path_15198" data-name="Path 15198" d="M155.238,349.163c-1.321,1.724-2.8,3.309-4.272,4.9a.628.628,0,0,1-.551.272,10.35,10.35,0,0,1,1.822-2.25c.855-1.074,1.888-2,2.65-3.158a.379.379,0,0,1,.352.233" transform="translate(-122.453 -284.065)" fill="#bdcdd6"/>
    <path id="Path_15199" data-name="Path 15199" d="M155.2,458.068a58.32,58.32,0,0,1-4.7,5.261l-.182-.1c.226-.711.882-1.075,1.326-1.607,1.074-1.288,2.224-2.512,3.342-3.762l.217.21" transform="translate(-122.373 -372.744)" fill="#bdcdd6"/>
    <path id="Path_15200" data-name="Path 15200" d="M155.277,295.127q-2.078,2.38-4.156,4.761c-.181.208-.339.445-.663.432-.025-.551.461-.792.753-1.1a54.574,54.574,0,0,1,3.87-4.3l.2.211" transform="translate(-122.487 -240.092)" fill="rgba(111,166,214,0.5)"/>
    <path id="Path_15201" data-name="Path 15201" d="M155.2,404.212a7.944,7.944,0,0,1-1.627,2.065c-.951,1.128-1.979,2.191-2.974,3.282l-.183-.068a36.86,36.86,0,0,1,2.657-3.233,20.838,20.838,0,0,1,1.388-1.591c.2-.213.356-.527.739-.454" transform="translate(-122.453 -329.062)" fill="#bdcdd6"/>
    <path id="Path_15202" data-name="Path 15202" d="M202.557,325.668c-.449.088-.935-.022-1.352.248.04-.406-.213-.861.206-1.2l1.146.955" transform="translate(-163.769 -264.35)" fill="#476097"/>
    <path id="Path_15203" data-name="Path 15203" d="M289.924,423.053l-.058-1.272c-.1-2.364-.1-4.729,0-7.094a1.679,1.679,0,0,1,1.233-.277q7.969-.011,15.937.006c.554,0,1.228-.143,1.466.64q0,.092,0,.184l.011,2.658a6.6,6.6,0,0,1-.023,4.05q-.013.55-.026,1.1a1.591,1.591,0,0,1-1.219.318q-8.053.011-16.105,0a1.557,1.557,0,0,1-1.218-.313" transform="translate(-235.92 -337.368)" fill="#fefefe"/>
    <path id="Path_15204" data-name="Path 15204" d="M289.394,371.589q-.029,3.52-.057,7.04a1.725,1.725,0,0,1-.122-1c-.016-3.56.054-7.123-.07-10.678a2.984,2.984,0,0,1,1.642-3.043,2.671,2.671,0,0,0,1.567-2.192.911.911,0,0,1,.753-.291c3.549,0,7.1-.093,10.643.055a.691.691,0,0,1,.572.543c.1.806.651,1.172,1.284,1.557a3.441,3.441,0,0,1,1.607,1.844l.734,2.423a2.187,2.187,0,0,1-.1,1.463.629.629,0,0,1-.261.183,1.414,1.414,0,0,1-1.415-.23,2.71,2.71,0,0,1-.178-1.361c.008-.625-.274-.89-.893-.891l-4.258,0q-4.583,0-9.165,0c-1.191,0-1.226.049-1.274,1.253a2.741,2.741,0,0,1-.124.911,1.768,1.768,0,0,0-.655,1.675,1.187,1.187,0,0,1-.225.736" transform="translate(-235.39 -294.215)" fill="#96b9e4"/>
    <path id="Path_15205" data-name="Path 15205" d="M302.751,346.085l-11.693.006c-.061-.005-.151.013-.177-.02-.894-1.127-2.229-.549-3.331-.866.681-.011,1.361-.037,2.041-.026.4.006.576-.146.531-.546a2.365,2.365,0,0,1-.006-.279c.009-1.922-.311-1.988,1.952-1.977,2.507.012,5.015-.015,7.522-.025h2.79c.926-.34,1.306-.12,1.305.758l-.041,2.422c-.012.647-.278.881-.893.552" transform="translate(-234.096 -278.587)" fill="#737070"/>
    <path id="Path_15206" data-name="Path 15206" d="M308.991,464.97l-1.849.024a1.363,1.363,0,0,1-1.042.279q-6.842.019-13.683,0a1.508,1.508,0,0,1-1.054-.253l-.932-.052q0-.641.005-1.282a1.594,1.594,0,0,1,1.221-.31q8.056-.011,16.111,0a1.629,1.629,0,0,1,1.223.311q.017.467.034.934a.249.249,0,0,1-.034.348" transform="translate(-236.441 -377.233)" fill="#f9fbfc"/>
    <path id="Path_15207" data-name="Path 15207" d="M367.056,329.08c-.125-.787-.72-.765-1.305-.758a2.372,2.372,0,0,1-.172-2.106,1.958,1.958,0,0,1,1.874-1.249c1.417.022,2.835.013,4.253.017a6.281,6.281,0,0,1,0,4.087l-4.653.01" transform="translate(-297.467 -264.556)" fill="#5f85b2"/>
    <path id="Path_15208" data-name="Path 15208" d="M401.5,437.349c-2.162.037-2.162.037-2.162-2.143,0-2.061,0-2.074,2.075-2.053a20.632,20.632,0,0,1,2.207.156,2.013,2.013,0,0,1,.263,3.9,1.455,1.455,0,0,1-.441.132c-.647.015-1.295.006-1.942.006" transform="translate(-325.106 -352.628)" fill="#ffdeb4"/>
    <path id="Path_15209" data-name="Path 15209" d="M397.785,396.022a11.593,11.593,0,0,1,4.573-.016,2,2,0,0,1,1.473,2.165,2.043,2.043,0,0,1-2.012,1.773,20.062,20.062,0,0,0-4.057.16,5.992,5.992,0,0,1,.023-4.082" transform="translate(-323.537 -322.211)" fill="#ffdeb4"/>
    <path id="Path_15210" data-name="Path 15210" d="M399.364,329.119q0-2.043,0-4.087c1.3,0,2.6-.013,3.9,0a2.048,2.048,0,0,1,2.188,1.937,2.114,2.114,0,0,1-2.186,2.145c-1.3.014-2.6,0-3.9,0" transform="translate(-325.122 -264.605)" fill="#ffdeb4"/>
    <path id="Path_15211" data-name="Path 15211" d="M397.779,360.961c1.294-.005,2.588-.021,3.881-.013a2.008,2.008,0,0,1,2.168,2.011,2.177,2.177,0,0,1-2.089,2.069c-1.323.046-2.649.016-3.973.019a5.866,5.866,0,0,1,.013-4.087" transform="translate(-323.529 -293.847)" fill="#ffdeb4"/>
    <path id="Path_15212" data-name="Path 15212" d="M401.715,473.12c-2.372,0-2.372,0-2.372-2.328,0-1.765,0-1.766,1.73-1.765.709,0,1.419-.016,2.127.01a2.057,2.057,0,0,1,2.082,2.212,1.962,1.962,0,0,1-2.087,1.87c-.493.01-.987,0-1.48,0" transform="translate(-325.107 -381.832)" fill="#ffdeb4"/>
    <path id="Path_15213" data-name="Path 15213" d="M374.914,360.293q-.007,2.044-.013,4.087l-2.416.011a9.3,9.3,0,0,0-2.672-2.215c-.572-.258-.209-1.03-.495-1.5a.746.746,0,0,0,.894-.552c1.561.236,3.135.086,4.7.168" transform="translate(-300.664 -293.179)" fill="#5f85b1"/>
    <path id="Path_15214" data-name="Path 15214" d="M309.016,461.68H290.46q0-.384.009-.769l18.543,0,0,.774" transform="translate(-236.465 -375.225)" fill="#b6d1ea"/>
    <path id="Path_15215" data-name="Path 15215" d="M390.813,396.211q-.011,2.041-.023,4.082l-1.64-.02-.008,0a5.3,5.3,0,0,1-.188-2.822,2.97,2.97,0,0,1,.166-1.419c.562.082,1.159-.178,1.692.176" transform="translate(-316.565 -322.4)" fill="#6086b2"/>
    <path id="Path_15216" data-name="Path 15216" d="M390.392,437.243l.023-4.05.092,0c1.369.014,1.369.014,1.37,1.361v1.743c0,1.245-.2,1.375-1.485.949" transform="translate(-317.82 -352.662)" fill="#6186b2"/>
    <path id="Path_15217" data-name="Path 15217" d="M390.274,469.395q.017-.174.034-.348c1.281-.454,1.47-.331,1.471.963q0,.79,0,1.58c0,1.346,0,1.346-1.311,1.382-.376-1.175-.066-2.388-.195-3.577" transform="translate(-317.724 -381.658)" fill="#6086b3"/>
    <path id="Path_15218" data-name="Path 15218" d="M203.779,379.992l.2-.012c3.369,0,6.739.028,10.107-.006.82-.008,1.06.273,1.056,1.074-.027,6.244-.014,12.488-.019,18.731,0,1.048-.339,1.391-1.381,1.393-2.936.007-5.873,0-8.809.007-.325,0-.687-.122-.964.175l-3.72.008,0,0a.215.215,0,0,1,.087-.3,5.313,5.313,0,0,1,2.1-.178c1.118-.041,1.23-.119,1.238-1.219.018-2.314,0-4.628.011-6.942a1.765,1.765,0,0,1,.387-1.469c1.246-.382,1.59-.148,1.641,1.109.014.331-.072.69.237.946a1.6,1.6,0,0,0,.9.15c1.27-.007,1.562.139,1.507-1.37a.89.89,0,0,1,1.006-1.035c.277,0,.555-.012.832-.023a.673.673,0,0,0,.739-.749c0-.216.01-.431.007-.647-.011-1.079-.086-1.157-1.142-1.2-1.333-.057-1.417-.107-1.446-1.438-.015-.7-.245-1.046-.974-.979-.484.045-.99-.1-1.445.171-.268.242-.208.564-.221.868-.057,1.352-.576,1.664-1.829,1.1a1.565,1.565,0,0,1-.2-.888c-.024-2.247.008-4.494-.019-6.741a1.1,1.1,0,0,1,.113-.537" transform="translate(-163.005 -309.337)" fill="#2c4777"/>
    <path id="Path_15219" data-name="Path 15219" d="M219.58,334.657q0-1.808-.006-3.617a1.579,1.579,0,0,0-.184-.982c2.959-.009,5.919-.013,8.878-.03a1.026,1.026,0,0,1,1.179,1.187c-.009.8-.016,1.6-.005,2.405a.955.955,0,0,1-.77,1.093l-9.091-.056" transform="translate(-178.605 -268.676)" fill="#d3e0ea"/>
    <path id="Path_15220" data-name="Path 15220" d="M194.614,401.184l0,.191c-1.173-.406-1.321-1.309-1.314-2.412.036-5.9.017-11.8.017-17.693,0-1.247,0-1.247,1.291-1.277l.2.013a1.654,1.654,0,0,1,.115.817c-.019,6.153,0,12.307-.012,18.46a3.7,3.7,0,0,1-.293,1.9" transform="translate(-157.364 -309.353)" fill="#2c4477"/>
    <path id="Path_15221" data-name="Path 15221" d="M294.512,472.123l15.779-.028a6.956,6.956,0,0,1,.063,3.191c-.159.936-.945,1.033-1.719,1.035q-4.859.01-9.718.008c-.987,0-1.975,0-2.962-.011a1.408,1.408,0,0,1-1.562-1.365,6.635,6.635,0,0,1,.119-2.829" transform="translate(-239.59 -384.334)" fill="#365998"/>
    <path id="Path_15222" data-name="Path 15222" d="M285.389,161.245a27.413,27.413,0,0,0,.32-4.231c.3-3.873.445-7.757.86-11.651q.423,7.773.845,15.546a11.869,11.869,0,0,1-2.025.336" transform="translate(-232.336 -118.341)" fill="#a0bdf1"/>
    <path id="Path_15223" data-name="Path 15223" d="M300.487,233.064c3.106.239,6.211.487,9.317.71.662.048,1.331.007,2.025.007-.07.459-.3.368-.459.375-3.423.152-6.835.452-10.248.754a4.5,4.5,0,0,1-.556-.017,5.046,5.046,0,0,1-.08-1.829" transform="translate(-244.583 -189.738)" fill="#a0bdf1"/>
    <path id="Path_15224" data-name="Path 15224" d="M285.656,229.283a2.246,2.246,0,0,1,.08,1.829,2.186,2.186,0,0,1-1.818.887,1.812,1.812,0,0,1-1.113-3.137,2.228,2.228,0,0,1,2.025-.336l.826.758" transform="translate(-229.752 -185.958)" fill="#030303"/>
    <path id="Path_15225" data-name="Path 15225" d="M199.861,401.242c-.279-.542.021-1.083.018-1.625-.03-6.128-.019-12.256-.019-18.384a1.967,1.967,0,0,1,.191-1.17l3.334,0a1.8,1.8,0,0,1,.193,1.069q0,3.551,0,7.1a1.935,1.935,0,0,0,.184,3.165,1.9,1.9,0,0,0-.184,1.078c0,2.534-.03,5.068.018,7.6.016.867-.212,1.253-1.139,1.179-.86-.069-1.729-.015-2.594-.016" transform="translate(-162.611 -309.411)" fill="#213458"/>
    <path id="Path_15226" data-name="Path 15226" d="M308.817,403.738c.365.921.038,1.887.188,2.822a1.05,1.05,0,0,0-.951-.539c-5.874.031-11.748.03-17.622.037q-.008-.4-.016-.8a2.157,2.157,0,0,1,1.511-.277c4.969-.008,9.937-.026,14.906.014.956.008,1.677-.134,1.949-1.159.013-.034.025-.069.036-.1" transform="translate(-236.428 -328.685)" fill="#b8cfe7"/>
    <path id="Path_15227" data-name="Path 15227" d="M294.431,392.526c.007-.65.034-1.3.014-1.949-.014-.466.135-.664.633-.663q7.429.021,14.858,0c.5,0,.653.183.635.651-.024.649-.005,1.3,0,1.95a1.467,1.467,0,0,1-1.212.317q-6.853.016-13.707,0a1.511,1.511,0,0,1-1.217-.309" transform="translate(-239.697 -317.43)" fill="#365997"/>
    <path id="Path_15228" data-name="Path 15228" d="M290.875,403.929c2.163.015,4.327.046,6.49.043,3.215,0,6.431-.033,9.646-.051l1.484.07a6.417,6.417,0,0,0,.022.648c.078.6-.158.8-.773.8-5.871-.024-11.743-.022-17.614-.027.067-.586-.481-1.481.747-1.483" transform="translate(-236.141 -328.833)" fill="#fafcfc"/>
    <path id="Path_15229" data-name="Path 15229" d="M312.57,346.983a3.579,3.579,0,0,1-.053,2.262,4.107,4.107,0,0,1,.053-2.262" transform="translate(-254.312 -282.48)" fill="#9e9998"/>
    <path id="Path_15230" data-name="Path 15230" d="M345.547,347.633a3.429,3.429,0,0,1,.022,2.181,3.791,3.791,0,0,1-.022-2.181" transform="translate(-281.189 -283.009)" fill="#a19c9b"/>
    <path id="Path_15231" data-name="Path 15231" d="M349.6,349.8a3.482,3.482,0,0,1-.013-2.181,3.674,3.674,0,0,1,.013,2.181" transform="translate(-284.466 -282.994)" fill="#a19c9c"/>
    <path id="Path_15232" data-name="Path 15232" d="M316.369,348.828a9.4,9.4,0,0,1-.014-2.452,2.716,2.716,0,0,1,.014,2.452" transform="translate(-257.485 -281.986)" fill="#a3999a"/>
    <path id="Path_15233" data-name="Path 15233" d="M341.737,347.661a2.317,2.317,0,0,1,0,2.131Z" transform="translate(-278.209 -283.032)" fill="#a09b9b"/>
    <path id="Path_15234" data-name="Path 15234" d="M320.588,347.663a2.942,2.942,0,0,1,.025,2.011,3.175,3.175,0,0,1-.025-2.011" transform="translate(-260.869 -283.034)" fill="#a69c9d"/>
    <path id="Path_15235" data-name="Path 15235" d="M324.563,347.657a3.038,3.038,0,0,1,.017,2.012,2.858,2.858,0,0,1-.017-2.012" transform="translate(-264.086 -283.029)" fill="#a69c9d"/>
    <path id="Path_15236" data-name="Path 15236" d="M304.692,347.1v2.049h-.1V347.1h.1" transform="translate(-247.974 -282.579)" fill="#b8b2b0"/>
    <path id="Path_15237" data-name="Path 15237" d="M333.76,347.883v2.034l-.083,0v-2.035h.083" transform="translate(-271.648 -283.213)" fill="#b5b1b0"/>
    <path id="Path_15238" data-name="Path 15238" d="M337.642,349.987v-2.051h.09v2.052l-.09,0" transform="translate(-274.876 -283.256)" fill="#b7afaf"/>
    <path id="Path_15239" data-name="Path 15239" d="M362.459,350.131v-1.975l.1,0v2.012l-.1-.033" transform="translate(-295.079 -283.432)" fill="#b8b1b1"/>
    <path id="Path_15240" data-name="Path 15240" d="M366.6,349.921v-2.028h.1v2.044l-.1-.017" transform="translate(-298.45 -283.221)" fill="#b7b3b2"/>
    <path id="Path_15241" data-name="Path 15241" d="M370.755,348.068v1.993h-.1v-2l.1.009" transform="translate(-301.751 -283.356)" fill="#baaeae"/>
    <path id="Path_15242" data-name="Path 15242" d="M354.456,350.1v-2l.1,0v2l-.1,0" transform="translate(-288.564 -283.386)" fill="#b4afae"/>
    <path id="Path_15243" data-name="Path 15243" d="M358.563,350.151v-2.024l.078,0v2.026l-.078,0" transform="translate(-291.907 -283.408)" fill="#b5b0af"/>
    <path id="Path_15244" data-name="Path 15244" d="M308.586,349.906v-1.882a3.088,3.088,0,0,1,0,1.882" transform="translate(-251.221 -283.328)" fill="#b3aead"/>
    <path id="Path_15245" data-name="Path 15245" d="M329.733,347.97v1.811h-.1v-1.889l.1.079" transform="translate(-268.358 -283.219)" fill="#bcafb1"/>
    <path id="Path_15246" data-name="Path 15246" d="M220.786,410.877a15.189,15.189,0,0,1,2.482-.09c.444-.028.475.23.489.58.026.607-.274,1.371.13,1.781s1.175.138,1.78.132c.543-.005.726.207.661.712a2.091,2.091,0,0,0,0,.277c.008,1.978.009,2-1.965,2.065-.495.017-.607.177-.623.643-.065,1.876-.081,1.88-1.953,1.87a2.029,2.029,0,0,1-1-.086,5.117,5.117,0,0,1-.086-1.829c0-.486-.159-.63-.641-.639-1.194-.023-1.213-.068-1.239-1.257,0-.154,0-.309,0-.463-.014-1.2-.014-1.236,1.154-1.22.576.008.749-.171.732-.739a4.44,4.44,0,0,1,.083-1.736" transform="translate(-178.138 -334.417)" fill="#fdfdfd"/>
    <path id="Path_15247" data-name="Path 15247" d="M217.625,411.306c0,.341.011.681.011,1.022,0,1.37,0,1.369-1.339,1.542-.167.022-.4-.05-.393.245.014.711.018,1.423.055,2.134.025.472.421.406.7.372.781-.094,1.064.222.984.992-.055.521-.017,1.052-.021,1.578-.257-.329-.107-.709-.112-1.062-.017-1.4-.006-1.4-1.387-1.292-.977.12-1.307-.337-1.157-1.263a2.434,2.434,0,0,0,0-.83c-.156-.813.205-1.119.975-1.071,1.555.093,1.547.092,1.57-1.4.005-.322-.122-.67.113-.969" transform="translate(-174.977 -334.846)" fill="#e6e6e7"/>
  </g>
</svg>
