<svg id="Group_1072" data-name="Group 1072" xmlns="http://www.w3.org/2000/svg" xmlns:xlink="http://www.w3.org/1999/xlink" width="105.558" height="90.705" viewBox="0 0 105.558 90.705">
  <defs>
    <clipPath id="clip-path">
      <rect id="Rectangle_1816" data-name="Rectangle 1816" width="105.558" height="90.705" fill="none"/>
    </clipPath>
  </defs>
  <g id="Group_864" data-name="Group 864" clip-path="url(#clip-path)">
    <path id="Path_9913" data-name="Path 9913" d="M39.351,18.361a33.494,33.494,0,0,1,39.732-.4c.123.087.254.163.381.243a6.776,6.776,0,0,1,1.936,1.3q.821.827,1.662,1.633a6.256,6.256,0,0,1,1.55,1.853,32.794,32.794,0,0,1,7.72,16.374,32.157,32.157,0,0,1-.188,11.6c-.041.2-.06.414-.09.621a13.859,13.859,0,0,1-1.09,4.494c-.334.643-.371,1.437-1,1.931a3.885,3.885,0,0,1-1.769.043,15.483,15.483,0,0,0-3.243-.1,35.58,35.58,0,0,0-4.241.07,1.138,1.138,0,0,1-.8-.052.358.358,0,0,1-.161-.246,1.025,1.025,0,0,1,.286-.641,21.423,21.423,0,0,0-1.988-27.831,23.5,23.5,0,0,0-14.57-7.315C53.34,20.72,45.036,24.019,39.041,32.286A20.154,20.154,0,0,0,35.37,42.494a22.16,22.16,0,0,0,1.375,9.594c.133.369.409.8-.137,1.1a20.776,20.776,0,0,1-3.632.1c-1.486.016-2.974.039-4.46-.015-.756.068-1.363-.064-1.372-.995q-.37-2.061-.739-4.122a2.525,2.525,0,0,1-.193-1.945,1.33,1.33,0,0,0,.041-.765c-.008-.293-.014-.587-.022-.88-.457-1.2-.017-2.406-.009-3.607a3.474,3.474,0,0,1,.516-1.961A33.464,33.464,0,0,1,34.4,23c.288-.805,1.007-1.259,1.549-1.859.5-.478,1-.969,1.485-1.463a5.771,5.771,0,0,1,1.914-1.32" transform="translate(-6.206 -2.911)" fill="rgba(112,82,37,0.9)"/>
    <path id="Path_9914" data-name="Path 9914" d="M23.4,65.864c.125.732.673.769,1.26.742a2.031,2.031,0,0,1,.477,1.67c.011,2.33,0,4.661,0,6.991.005,10.307-.011,20.614.005,30.922,0,.348.091.733-.288.977q-5.963.011-11.926.02c-1.563,0-2.27-.666-2.3-2.226-.03-1.822-.014-3.644-.014-5.467q0-10.217,0-20.435a1.55,1.55,0,0,0-.206-1.117,3.25,3.25,0,0,1,.017-1.311c.374-.683.12-1.418.181-2.126a4.323,4.323,0,0,1-.154-2.7,3.969,3.969,0,0,0-.028-2.493,4.165,4.165,0,0,1,.184-1.676,1.384,1.384,0,0,1,1.045-1.023,6.7,6.7,0,0,1,1.857-.358c.064.372.35.346.628.346,2.854,0,5.708-.019,8.563.013.614.007.723-.265.7-.748" transform="translate(-2.459 -16.488)" fill="rgba(207,183,132,0.54)"/>
    <path id="Path_9915" data-name="Path 9915" d="M105.085,73.2l1.8-.012a3.79,3.79,0,0,1,2.1-.187c2.345.05,4.693-.076,7.037.063.717.368,1.486.086,2.226.165a10,10,0,0,1,1.535.1,1.778,1.778,0,0,1,1.553,1.9q.009,15.861.007,31.721a1.782,1.782,0,0,1-1.279,1.839,1.516,1.516,0,0,1-.8.082q-7.02.006-14.04,0c-.981,0-1.081-.094-1.132-1.059-.021-.388-.009-.777-.009-1.166q0-15.527,0-31.054c0-.269.005-.539,0-.808-.03-.979-.111-1.069-1.115-1.079-1.732-.017-3.465.02-5.2-.022-.385-.01-.948.16-1.027-.514l.732.024c2.54-.073,5.079-.1,7.617.014" transform="translate(-23.069 -18.26)" fill="#cfb784"/>
    <path id="Path_9916" data-name="Path 9916" d="M95.232,14.07q-3.647-3.042-7.3-6.078c-.328-.272-.588-.44-.219-.915,3.38-4.359,7.731-6.952,13.4-6.99a11.969,11.969,0,0,1,12.034,11.248,16.534,16.534,0,0,1-4.8,12.639c-.456.489-.724.39-1.168.016-2.195-1.841-4.415-3.652-6.626-5.473-.931-.176-1.3-1.1-2.066-1.5-.477-.451-1.046-.793-1.514-1.254a7.759,7.759,0,0,1-1.735-1.694" transform="translate(-20.875 -0.022)" fill="rgba(112,82,37,0.9)"/>
    <path id="Path_9917" data-name="Path 9917" d="M31.041,18.529c-2.155,1.792-4.33,3.561-6.452,5.391-.56.484-.851.383-1.291-.1-4-4.407-5.788-9.417-4.178-15.274A11.95,11.95,0,0,1,31.987.071,17.03,17.03,0,0,1,43.91,6.885c.358.452.331.7-.131,1.077-2.45,2-4.865,4.049-7.293,6.079a6.987,6.987,0,0,1-1.751,1.7c-.678.407-1.153,1.049-1.791,1.5a8.409,8.409,0,0,1-1.9,1.287" transform="translate(-4.419 0)" fill="rgba(112,82,37,0.9)"/>
    <path id="Path_9918" data-name="Path 9918" d="M29.348,107.318c0-.471-.01-.942-.01-1.413q0-18.375,0-36.75a8.335,8.335,0,0,0-.187-2.4l8.39-.038a1.608,1.608,0,0,1,1.042-.24c.85-.007,1.7-.01,2.55,0a2.4,2.4,0,0,1,2.7,2.655c.043,1.912-.035,3.825.053,5.736-.048.424-.064.85-.092,1.276a13.524,13.524,0,0,0-.022,4.065.986.986,0,0,1-.42,1.027,1.805,1.805,0,0,1-.525.137,2.3,2.3,0,0,0-2.215,2.305,19.024,19.024,0,0,0,.007,3.76c.072.716.121,1.428.121,2.146,0,4.3.012,8.608-.011,12.912-.005,1.14.137,2.265.194,3.4.027.537.465.906.49,1.424H29.348" transform="translate(-6.951 -16.641)" fill="#cfb784"/>
    <path id="Path_9919" data-name="Path 9919" d="M93.665,73.146c.212.393.592.229.9.232,1.912.015,3.826.044,5.737-.012.8-.023,1.022.2,1.02,1q-.04,16.586-.018,33.173c0,1.222,0,1.222,1.211,1.223l14.481,0c-.277.268-.629.171-.951.171q-14.6,0-29.193-.01c-.293,0-.612.091-.869-.144.456-.424,1.027-.244,1.552-.271.572-.028,1.146,0,1.719-.01,1.052-.022,1.334-.241,1.573-1.224a1.706,1.706,0,0,1,.375-.89c.982-.139,1.225-.757,1.1-1.628a4.4,4.4,0,0,1,0-.618c0-1.268,0-1.268-1.247-1.468a1.35,1.35,0,0,1-.208-.879q-.017-.389,0-.778a1.712,1.712,0,0,1,.191-1.045.919.919,0,0,1,.6-.111c.462.011.643-.232.652-.654,0-.206-.009-.414.011-.618.107-1.1.151-2.169-1.319-2.451a4.218,4.218,0,0,1,.035-2.626c.487-.394,1.065-.254,1.616-.265.967,0,1.936.005,2.9,0,.242,0,.485,0,.727-.006a2.09,2.09,0,0,0,2.2-1.718,2.047,2.047,0,0,0-2.215-1.891c-1.18-.033-2.36,0-3.541-.009a5.721,5.721,0,0,1-1.587-.089,3.033,3.033,0,0,1-.728-2.578,5.66,5.66,0,0,1,2.247-.175c1.029,0,2.058.005,3.086,0a8.005,8.005,0,0,0,.816-.022,1.916,1.916,0,0,0,1.9-1.709,1.851,1.851,0,0,0-1.77-1.821,14.173,14.173,0,0,0-4.071.087c-1.171.088-2.343.044-3.514.034a1.081,1.081,0,0,1-1.039-.4,3.716,3.716,0,0,1,.079-2.414,2.345,2.345,0,0,1,1.484-.245c.994-.005,1.988-.03,2.981.014,1.359,0,2.721.05,4.08-.022a1.769,1.769,0,0,0,1.69-1.146,1.687,1.687,0,0,0-.471-1.8,1.622,1.622,0,0,0-1.32-.462c-1.27-.005-2.54.009-3.81,0-1.335.007-2.669-.022-4,.01a1.689,1.689,0,0,0-1.79,2.254c.061.295.165.585-.128.824a4.245,4.245,0,0,1-2.7-.05,1.214,1.214,0,0,1-.246-.841c-.016-1.222-.057-2.446.015-3.667a2.233,2.233,0,0,1,2.125-2.385,60.7,60.7,0,0,1,7.613-.007.132.132,0,0,1,.027.137" transform="translate(-19.999 -18.247)" fill="rgba(207,183,132,0.54)"/>
    <path id="Path_9920" data-name="Path 9920" d="M119.433,62.321a3.6,3.6,0,0,1-2.374.169c-1.51-.1-3.022.186-4.532-.008a3.3,3.3,0,0,1-1.484-1.811l1.286-4.475a1.553,1.553,0,0,0,.229.938c1.086,1.333,1.648,2.772.827,4.5l.221.068q1.205-1.36,2.41-2.718a.348.348,0,0,0-.019-.548,1.922,1.922,0,0,0-.192-.192c-1.874-1.363-1.873-3.155-1.305-5.142.209-.73.469-.693.88-.26,1.266,1.333,2.281,2.754,1.415,4.715a.6.6,0,0,0,0,.26c0,.025.03.048.116.172.759-1.024,1.493-2.02,2.233-3.011.279-.373.08-.645-.223-.822-1.992-1.156-2.346-2.885-1.83-4.938.059-.235.066-.533.273-.639.259-.133.43.156.595.311.417.392.821.8,1.214,1.215a4.168,4.168,0,0,1,.822,3.658q.952-1.643,1.9-3.284c.232-.4.11-.661-.277-.878-.315-.177-.608-.4-.9-.6a2.631,2.631,0,0,1-1.271-2.427c.039-.656.022-1.316.015-1.975-.005-.523.112-.654.6-.3,1.565,1.128,2.92,2.352,2.528,4.575a17.446,17.446,0,0,0,1.692-3.481c.168-.373-.157-.567-.447-.645-2.394-.639-2.7-2.556-2.9-4.544-.046-.469.212-.657.6-.444a6.413,6.413,0,0,1,2.85,2.421c.289.544.083,1.162.481,1.739.379-1.2.763-2.406,1.132-3.613.088-.285-.1-.438-.346-.547-.276-.125-.538-.283-.821-.389a3.35,3.35,0,0,1-2.271-3.422c0-.09,0-.18-.011-.269-.028-.37-.392-.855-.014-1.074.348-.2.785.164,1.155.366a5.241,5.241,0,0,1,2.186,2.085c.279.51-.025,1.131.411,1.719a6.2,6.2,0,0,0,.159-4,4.264,4.264,0,0,1,1.639-4.6c.274-.189.366-.167.522.142a4.11,4.11,0,0,1-.841,5.209c-1.011.947-.611,2.2-.9,3.338.088-.068.207-.118.26-.207,1-1.708,2.644-1.921,4.419-1.846.608.025.572.319.337.7-.963,1.553-2.013,3-4.213,2.549-1.007-.207-1.387.268-1.6,1.145-.244,1.005-.589,1.987-.893,2.985a.3.3,0,0,0,.36-.217c.88-1.967,3.04-2.08,4.674-1.941.689.059.289.529.134.78-1.1,1.8-2.6,2.907-4.865,2.412-.58-.126-.769.068-.963.58a22.249,22.249,0,0,1-1.605,3.435c.386,0,.5-.238.644-.4,1.357-1.476,3.006-1.464,4.774-.957.46.132.45.305.164.6a11.148,11.148,0,0,1-2.178,1.894,2.7,2.7,0,0,1-2.462.052c-1.052-.425-1.593-.124-2,.853a24.03,24.03,0,0,1-1.215,2.23,7.165,7.165,0,0,1,2.135-1.015,5.9,5.9,0,0,1,2.846.364c.29.1.613.28.218.635q-.706.633-1.435,1.242a3.213,3.213,0,0,1-3.5.337c-.787-.318-1.292-.276-1.739.539-.4.732-1,1.358-1.459,2.156,1.553-1.286,3.141-.888,4.734-.267.219.085.54.142.566.4s-.271.354-.471.492c-.981.674-1.83,1.61-3.216,1.417a7.839,7.839,0,0,1-2.149-.693c-.237-.106-.491-.313-.722.01-.747,1.045-1.87,1.774-2.694,3.161,2.092-1.586,3.91-1.193,5.682.04" transform="translate(-26.481 -7.521)" fill="#d7d2b5"/>
    <path id="Path_9921" data-name="Path 9921" d="M64.731,111.519a1.761,1.761,0,0,1-.866.226l-11.693.111a6.532,6.532,0,0,1,.3-1.857.817.817,0,0,1,.4-.271,42.112,42.112,0,0,1,4.725-.093c1.365-.025,2.73.008,4.1-.01,1.219-.016,1.472-.239,1.475-1.41q.029-8.691,0-17.383c0-.937-.156-1.086-1.129-1.1-2.7-.027-5.4,0-8.1-.013a2.575,2.575,0,0,1-1.419-.208,1.28,1.28,0,0,1-.273-1,17.463,17.463,0,0,1,.121-3.442.558.558,0,0,1,.241-.251,1.616,1.616,0,0,1,.7-.139c2.507-.015,5.014-.028,7.521.007a1.989,1.989,0,0,1,.535.084,9.17,9.17,0,0,0,3,.451,16.93,16.93,0,0,1,2.6.1,14.519,14.519,0,0,1,1.341,1.171,1.976,1.976,0,0,1-1.133,1.971,3.247,3.247,0,0,0-1.831,3.21c.075,3.369.013,6.742.014,10.113a3.925,3.925,0,0,0,.1,1.243,3.855,3.855,0,0,1,.08.939c.013.261.006.523,0,.783.024.425.008.85.006,1.276.034,1.358.009,2.716.013,4.074a1.3,1.3,0,0,1-.831,1.42" transform="translate(-12.442 -21.195)" fill="rgba(180,166,128,0.6)"/>
    <path id="Path_9922" data-name="Path 9922" d="M21.935,41.353a51.884,51.884,0,0,0-.508,5.569.729.729,0,0,0-1.027-.058,3.26,3.26,0,0,1-4.045-.187c-.47-.33-.452-.56.07-.8a3.863,3.863,0,0,1,3.7-.221c-.65-.668-1.288-1.349-1.957-2-.257-.249-.527.012-.743.13-1.481.808-2.725.347-3.909-.634-.47-.389-.275-.584.149-.752a4.072,4.072,0,0,1,3.516.037c-.466-.638-.944-1.268-1.394-1.918-.292-.424-.637-.154-.885-.037-1.525.72-2.682.068-3.759-.919-.168-.154-.467-.282-.387-.553.075-.253.4-.251.615-.307a3.618,3.618,0,0,1,3.418.381c-.4-.7-.8-1.412-1.218-2.108-.19-.319-.483-.293-.8-.167a3.114,3.114,0,0,1-3.757-1.128c-.162-.185-.539-.317-.374-.627a.837.837,0,0,1,.723-.313c1.214-.051,2.467-.224,3.366.952a11.873,11.873,0,0,0-1.055-2.679c-.15-.384-.583-.291-.894-.238-1.876.321-2.424-.371-3.54-1.861-.364-.486-.087-.666.369-.663,1.2.01,2.378.087,3.157,1.192.058.082.184.116.414.253-.3-.951-.537-1.768-.818-2.57-.18-.514-.675-.368-1.023-.317-1.63.238-2.527-.671-3.287-1.891-.294-.472-.212-.629.325-.642C7.7,26.243,9,26.3,9.894,27.829A3.751,3.751,0,0,0,8.9,24.862c-1.183-1.07-.825-2.309-.432-3.559.119-.379.277-.369.58-.139a3.162,3.162,0,0,1,1.2,3.475,4.373,4.373,0,0,0,.146,2.793c.187-1.738,1.456-2.418,2.837-3.023.308,1.871-.225,3.285-1.609,3.731-.876.283-1.141.756-.693,1.607.288.547.259,1.225.738,1.84a3.56,3.56,0,0,1,2.289-2.95c.431-.218.544-.106.538.313-.028,1.924-.213,2.67-2,3.393-.516.208-.538.372-.3.843A10.8,10.8,0,0,0,13.4,35.555a3.323,3.323,0,0,1,1.756-3.385c.453-.324.582-.223.622.321.11,1.49.08,2.882-1.543,3.667a.579.579,0,0,0-.215.86,10.122,10.122,0,0,0,1.5,2.255c-.522-1.529.286-2.543,1.275-3.484.169-.161.383-.376.626-.291.286.1.31.415.332.681.107,1.305.157,2.586-1.2,3.4a.688.688,0,0,0-.195,1.136c.477.6.966,1.2,1.508,1.786a3.5,3.5,0,0,1,1.023-3.6c.442-.476.692-.49.883.193.393,1.415.367,2.72-.889,3.737-.455.368-.347.631.012,1.014a7.916,7.916,0,0,0,1.688,1.6c-.713-1.776.318-2.935,1.349-4.092" transform="translate(-1.402 -5.258)" fill="#d7d2b5"/>
    <path id="Path_9923" data-name="Path 9923" d="M11.05,62.329c-.254.465-.73.312-1.121.386-.915.173-1.627.484-1.66,1.6a1.34,1.34,0,0,1-.3,1.069,1.5,1.5,0,0,0-1.4-.155c-1.907.55-3.152-.361-4.173-1.754-.226-.309-.811-.594-.525-1.032.212-.325.757-.3,1.188-.3,1.643.005,3.135.319,4.118,1.847-.425-1.217-.786-2.463-1.308-3.638-.195-.439-.835-.22-1.254-.125A3.2,3.2,0,0,1,1.249,59.2c-.356-.407-.7-.828-1.039-1.245-.423-.513-.161-.786.373-.813,1.737-.091,3.436-.033,4.491,1.675.041.067.14.1.414.281-.461-1.311-.232-2.655-1.373-3.507a3.425,3.425,0,0,1-1.273-4.058,6.588,6.588,0,0,0,.192-.964c.047-.361.143-.49.513-.25a4.476,4.476,0,0,1,1.892,4.673c-.452,1.762-.146,1.741.475,3.921a4.137,4.137,0,0,1,2.065-3.867c.077-.048.136-.13.217-.162.359-.141.8-.463,1.069-.357.382.154.13.687.162,1.056A3.707,3.707,0,0,1,6.9,59.592c-.729.306-.736.688-.472,1.3.412.955.764,1.935,1.226,2.912A4.814,4.814,0,0,1,8.536,61.2a7.4,7.4,0,0,1,1.983-1.546c.447-.259.821-.24.742.452-.085.74-.142,1.484-.212,2.226" transform="translate(0 -12.565)" fill="#d7d2b5"/>
    <path id="Path_9924" data-name="Path 9924" d="M44.906,112.192a1.769,1.769,0,0,1-.83-1.655c-.221-5.675-.063-11.354-.169-17.029-.029-1.552-.076-3.1-.119-4.656a2.617,2.617,0,0,1,3.071-2.867,6.152,6.152,0,0,1,.018,3.85c-.809.211-1.018.746-1.014,1.535.026,5.559.038,11.119-.009,16.678a2.954,2.954,0,0,0,1.127,2.311,1.919,1.919,0,0,1-.113,1.825l-1.962.009" transform="translate(-10.442 -21.513)" fill="rgba(180,166,128,0.6)"/>
    <path id="Path_9925" data-name="Path 9925" d="M68.664,118.526a1.761,1.761,0,0,0,.576-1.5c-.039-1.355-.008-2.712-.005-4.068a3.844,3.844,0,0,1,2.853-.063c.094.618-.442.49-.71.485-1.249-.022-1.158.341-1.151,1.312.011,1.685.444,2.122,2.173,2.13q5.605.025,11.21,0c1.456-.005,1.882-.459,1.945-1.881a5.942,5.942,0,0,1,.1-2.039,2.019,2.019,0,0,1,1.837.007,7.527,7.527,0,0,1,.155,3.5c-.059.289-.136.576-.172.868a1.4,1.4,0,0,1-1.578,1.43c-1.18.01-2.359.014-3.539.021-3.191,0-6.383-.054-9.572.028a10.659,10.659,0,0,1-4.119-.237" transform="translate(-16.375 -28.201)" fill="rgba(112,82,37,0.5)"/>
    <path id="Path_9926" data-name="Path 9926" d="M9.253,73.713a9.191,9.191,0,0,1,.154,2.7c-1.839.308-2.837-.978-3.958-2.026-.316-.3-.129-.49.176-.569a6.508,6.508,0,0,1,3.629-.106" transform="translate(-1.26 -18.399)" fill="#d7d2b5"/>
    <path id="Path_9927" data-name="Path 9927" d="M47.831,120.255q0-.882-.005-1.763a5.644,5.644,0,0,1,3.662-.005c-.111.588.272,1.272-.353,1.76l-3.3.008" transform="translate(-11.405 -29.585)" fill="rgba(180,166,128,0.6)"/>
    <path id="Path_9928" data-name="Path 9928" d="M34.958,24.236l1.8-1.439A4.934,4.934,0,0,1,38.2,24.031L36.534,25.8a2.764,2.764,0,0,0-1.576-1.564" transform="translate(-8.337 -5.707)" fill="#bbac78"/>
    <path id="Path_9929" data-name="Path 9929" d="M101.731,22.467l1.98,1.654c-.568.416-1.163.811-1.267,1.586L100.8,23.94c.22-.547.775-.888.932-1.473" transform="translate(-24.038 -5.624)" fill="#bbac78"/>
    <path id="Path_9930" data-name="Path 9930" d="M39.651,20.285l1.871-1.556c0,.734.615,1.017,1.079,1.41L40.8,21.61a3.714,3.714,0,0,1-1.151-1.325" transform="translate(-9.456 -4.688)" fill="#bbac78"/>
    <path id="Path_9931" data-name="Path 9931" d="M25.625,56.751a16.8,16.8,0,0,1,.152,2.71,7.7,7.7,0,0,1-1.806-.508c-.755-.406-.776-.475-.037-.967a2.687,2.687,0,0,1,1.119-.543.668.668,0,0,0,.572-.692" transform="translate(-5.578 -14.207)" fill="#d7d2b5"/>
    <path id="Path_9932" data-name="Path 9932" d="M97.3,18.739l1.847,1.577a2.091,2.091,0,0,1-1.128,1.117L96.2,19.989c.594-.223,1.078-.539,1.1-1.25" transform="translate(-22.942 -4.691)" fill="#bbac78"/>
    <path id="Path_9933" data-name="Path 9933" d="M10.16,80.224c.192.439.372.879-.017,1.311-.11-.047-.25-.067-.322-.148-.227-.247-.726-.383-.6-.78.119-.374.573-.37.939-.383" transform="translate(-2.194 -20.083)" fill="#d7d2b5"/>
    <path id="Path_9934" data-name="Path 9934" d="M63.764,70.54a39.878,39.878,0,0,1-4.86-.269c-.314-.055-.682.026-.884-.325.736-1.089.48-2.3.423-3.481-.029-.6-.536-.741-1.059-.757-1.033-.031-2.065-.009-3.1-.013-1.822-.008-3.645.014-5.467-.013a8.877,8.877,0,0,1-1.722-.073c-.524-.265-1.11-.466-1.257-1.137a1.436,1.436,0,0,1-.213-1.025c0-1.674,0-3.347-.008-5.021a1.975,1.975,0,0,0-2.179-2.167q-1.912-.013-3.824-.023a22.051,22.051,0,0,1-1.751-8.281c.177-9.755,4.982-16.683,13.75-20.89a25.7,25.7,0,0,1,31.832,8.173,21.606,21.606,0,0,1-.1,24.845c-.209.29-.451.557-.677.834a1.583,1.583,0,0,1-1.044.2q-2.907,0-5.814,0c-1.852,0-2.605.73-2.614,2.523q-.009,2.057-.012,4.113a1.713,1.713,0,0,1-1.3.272c-2.156.015-4.312-.017-6.468.015-1.218.018-1.238.069-1.271,1.284-.012.433.1.918-.385,1.211" transform="translate(-9.029 -6.155)" fill="#fff"/>
    <path id="Path_9935" data-name="Path 9935" d="M39.1,20.8a2.578,2.578,0,0,1,1.151,1.325l-1.486,1.4c-.7-.163-1-.776-1.439-1.233L39.1,20.8" transform="translate(-8.9 -5.208)" fill="#f3f4f7"/>
    <path id="Path_9936" data-name="Path 9936" d="M98.589,21.96a3.863,3.863,0,0,1,1.127-1.117L101.2,22.06c.279.853-.528,1.038-.932,1.472L98.589,21.96" transform="translate(-23.511 -5.218)" fill="#f3f4f5"/>
    <path id="Path_9937" data-name="Path 9937" d="M110.81,70.9l1.484,1.811-2.227-.036q.371-.888.743-1.775" transform="translate(-26.249 -17.748)" fill="#f1f2f3"/>
    <path id="Path_9938" data-name="Path 9938" d="M105.314,73.221,97.7,73.207c.319-.263.7-.133,1.046-.135q2.811-.021,5.622,0c.318,0,.67-.119.95.15" transform="translate(-23.299 -18.285)" fill="#28476f"/>
    <path id="Path_9939" data-name="Path 9939" d="M15.36,88.614a3.492,3.492,0,0,1-.253-4.892,3.612,3.612,0,0,1,5.022-.187l-.057.112c-1.4,1.38-2.626,2.917-3.978,4.341-.225.236-.389.53-.734.626" transform="translate(-3.392 -20.679)" fill="#f6f1ed"/>
    <path id="Path_9940" data-name="Path 9940" d="M15.352,114.5a3.322,3.322,0,0,1-.1-4.835,3.415,3.415,0,0,1,4.687-.187c-.058.547-.484.882-.8,1.256-1.047,1.221-2.179,2.368-3.239,3.58-.136.154-.3.3-.547.186" transform="translate(-3.4 -27.194)" fill="#f6f1ed"/>
    <path id="Path_9941" data-name="Path 9941" d="M15.36,101.554a3.284,3.284,0,0,1-.238-4.766c1.285-1.49,3.235-1.6,4.987-.288-.021.037-.041.073-.061.109-1.14,1.036-1.96,2.346-3.045,3.431a6.755,6.755,0,0,1-1.643,1.514" transform="translate(-3.389 -23.928)" fill="#f6f1ed"/>
    <path id="Path_9942" data-name="Path 9942" d="M15.311,75.431a3.291,3.291,0,0,1-.6-4.269A3.546,3.546,0,0,1,19.1,69.84c.282.139.659.19.794.551-.334,1.083-1.342,1.653-1.989,2.5-.612.8-1.308,1.55-2,2.292-.153.165-.286.413-.589.248" transform="translate(-3.383 -17.406)" fill="#f6f1ed"/>
    <path id="Path_9943" data-name="Path 9943" d="M20.462,70.957a2.733,2.733,0,0,1,1.076,3.069,3.276,3.276,0,0,1-2.406,2.643,3.3,3.3,0,0,1-3.355-.694c1.426-1.367,2.619-2.938,3.958-4.381.22-.238.362-.559.726-.637" transform="translate(-3.762 -17.763)" fill="#f6f1ed"/>
    <path id="Path_9944" data-name="Path 9944" d="M20.485,109.956c1.33.808,1.453,3.082.64,4.329a3.63,3.63,0,0,1-4.452,1.286,2.115,2.115,0,0,1-.887-.582c1.589-1.46,2.9-3.166,4.371-4.733a1.44,1.44,0,0,1,.327-.3" transform="translate(-3.765 -27.526)" fill="#f6f1ed"/>
    <path id="Path_9945" data-name="Path 9945" d="M20.525,96.805a3.452,3.452,0,0,1-3.06,5.953,2.876,2.876,0,0,1-1.511-.749c.909-1.293,2.132-2.322,3.1-3.566a11.03,11.03,0,0,1,1.424-1.6Z" transform="translate(-3.805 -24.233)" fill="#f6f1ed"/>
    <path id="Path_9946" data-name="Path 9946" d="M20.546,83.845a3.4,3.4,0,0,1,.182,4.88,3.568,3.568,0,0,1-4.753.326c-.042-.361.276-.516.468-.711,1.415-1.434,2.621-3.051,4.058-4.464Z" transform="translate(-3.809 -20.989)" fill="#f6f1ed"/>
    <path id="Path_9947" data-name="Path 9947" d="M20.424,96.849a7.954,7.954,0,0,1-1.752,2.22,21.7,21.7,0,0,1-2.773,2.946l-.178-.151q2.063-2.345,4.13-4.685c.144-.163.258-.431.573-.33" transform="translate(-3.749 -24.239)" fill="rgba(112,82,37,0.5)"/>
    <path id="Path_9948" data-name="Path 9948" d="M20.435,70.887c-1.276,1.464-2.547,2.931-3.83,4.389a1.56,1.56,0,0,1-.854.629l-.086-.187L19.7,71.269c.18-.2.362-.394.543-.591l.193.209" transform="translate(-3.736 -17.693)" fill="rgba(112,82,37,0.5)"/>
    <path id="Path_9949" data-name="Path 9949" d="M20.441,83.882a47.224,47.224,0,0,1-4.526,5.175l-.2-.127c1.317-1.743,2.9-3.265,4.318-4.92a.4.4,0,0,1,.407-.128" transform="translate(-3.748 -20.996)" fill="rgba(112,82,37,0.5)"/>
    <path id="Path_9950" data-name="Path 9950" d="M20.463,109.906a43.638,43.638,0,0,1-4.36,4.945c-.072.07-.224.061-.339.088a.237.237,0,0,1-.07-.16c1.622-1.593,3.075-3.335,4.59-5.022l.179.149" transform="translate(-3.743 -27.476)" fill="rgba(112,82,37,0.5)"/>
    <path id="Path_9951" data-name="Path 9951" d="M116.347,98.975a28.363,28.363,0,0,1-4.624-.158,2.011,2.011,0,0,1-1.55-1.84,2.092,2.092,0,0,1,1.465-1.938,27.115,27.115,0,0,1,4.713-.148,6.584,6.584,0,0,1,0,4.084" transform="translate(-26.274 -23.746)" fill="#dedaca"/>
    <path id="Path_9952" data-name="Path 9952" d="M116.338,107.839a28.932,28.932,0,0,1-4.615-.147,1.916,1.916,0,0,1,.19-3.8,14.146,14.146,0,0,1,4.406.019,5.863,5.863,0,0,1,.019,3.926" transform="translate(-26.266 -25.966)" fill="#dedaca"/>
    <path id="Path_9953" data-name="Path 9953" d="M116.334,81.8c-1.337,0-2.674.021-4.011.01a1.986,1.986,0,1,1,0-3.954c1.336,0,2.674.011,4.011.018a5.934,5.934,0,0,1,0,3.926" transform="translate(-26.268 -19.489)" fill="#dedaca"/>
    <path id="Path_9954" data-name="Path 9954" d="M116.343,90.425c-1.359,0-2.72.024-4.079-.007a2.086,2.086,0,0,1-1.962-1.435,1.742,1.742,0,0,1,.887-2.269c.1-.066.193-.189.292-.19,1.616-.019,3.233-.023,4.849-.03a5.866,5.866,0,0,1,.013,3.93" transform="translate(-26.275 -21.652)" fill="#dedaca"/>
    <path id="Path_9955" data-name="Path 9955" d="M118.27,90.356q-.007-1.966-.013-3.931a11.411,11.411,0,0,1,4.644.059,1.958,1.958,0,0,1,1.359,2,2.193,2.193,0,0,1-2,1.869c-1.33.029-2.662.007-3.992.007" transform="translate(-28.202 -21.583)" fill="#fdfcfc"/>
    <path id="Path_9956" data-name="Path 9956" d="M116.326,116.294c-1.4.006-2.8-.069-4.186.044a2.077,2.077,0,0,1-1.985-1.724,2.113,2.113,0,0,1,1.64-2.168,19.476,19.476,0,0,1,3.268-.088c.424-.013.85.006,1.275.011a5.917,5.917,0,0,1-.011,3.925" transform="translate(-26.267 -28.12)" fill="#dedaca"/>
    <path id="Path_9957" data-name="Path 9957" d="M118.273,107.831q-.009-1.963-.019-3.926a11.981,11.981,0,0,1,4.316-.031,1.928,1.928,0,0,1,1.684,2.024,2.17,2.17,0,0,1-2.151,1.93c-1.276.029-2.553,0-3.829,0" transform="translate(-28.201 -25.958)" fill="#fefefe"/>
    <path id="Path_9958" data-name="Path 9958" d="M118.281,98.982l0-4.085c1.27,0,2.541-.013,3.812,0a2.182,2.182,0,0,1,2.145,1.808,1.947,1.947,0,0,1-1.623,2.149,28.911,28.911,0,0,1-4.339.133" transform="translate(-28.207 -23.754)" fill="#fdfdfc"/>
    <path id="Path_9959" data-name="Path 9959" d="M118.271,81.8q0-1.963,0-3.926c1.337-.005,2.674-.025,4.011-.012a1.974,1.974,0,1,1,0,3.947c-1.336.012-2.674,0-4.011-.009" transform="translate(-28.205 -19.49)" fill="#fdfdfc"/>
    <path id="Path_9960" data-name="Path 9960" d="M118.262,116.3q.006-1.963.011-3.926c1.271,0,2.543-.023,3.814-.007a2.148,2.148,0,0,1,2.173,2.062,2.006,2.006,0,0,1-2.185,1.9c-1.271.007-2.542-.016-3.813-.027" transform="translate(-28.203 -28.128)" fill="#fefefe"/>
    <path id="Path_9961" data-name="Path 9961" d="M35.478,101.62a3.384,3.384,0,0,1-.825-4.2,3.6,3.6,0,0,1,3.9-1.8,2.527,2.527,0,0,1,1.714,1l-.072.1c-.963.474-1.45,1.418-2.138,2.155a35.2,35.2,0,0,1-2.575,2.747" transform="translate(-8.166 -23.924)" fill="#f6f1ed"/>
    <path id="Path_9962" data-name="Path 9962" d="M35.449,75.6a3.333,3.333,0,0,1-.465-4.792,3.477,3.477,0,0,1,5.06-.453l-.028.122c-1.463,1.706-2.966,3.377-4.455,5.062l-.112.061" transform="translate(-8.151 -17.391)" fill="#f6f1ed"/>
    <path id="Path_9963" data-name="Path 9963" d="M35.441,88.586a3.324,3.324,0,0,1-.3-4.86A3.5,3.5,0,0,1,40,83.348a9.235,9.235,0,0,1-2.057,2.571c-.731.866-1.478,1.731-2.287,2.535a.721.721,0,0,1-.214.132" transform="translate(-8.162 -20.663)" fill="#f6f1ed"/>
    <path id="Path_9964" data-name="Path 9964" d="M35.478,114.581a3.46,3.46,0,0,1,4.6-5.167,8.735,8.735,0,0,1-1.773,2.211,19.6,19.6,0,0,1-2.829,2.957" transform="translate(-8.189 -27.176)" fill="#f6f1ed"/>
    <path id="Path_9965" data-name="Path 9965" d="M40.442,70.651a3.424,3.424,0,0,1,.361,4.931,3.6,3.6,0,0,1-4.956.314l.034-.04c1.53-1.706,3.11-3.371,4.529-5.171Z" transform="translate(-8.549 -17.686)" fill="#f6f1ed"/>
    <path id="Path_9966" data-name="Path 9966" d="M40.586,83.877a3.416,3.416,0,0,1,.254,4.748,3.561,3.561,0,0,1-5.017.295l.034-.037c1.5-1.433,2.783-3.053,4.184-4.572.163-.177.278-.392.545-.433" transform="translate(-8.543 -20.997)" fill="#f6f1ed"/>
    <path id="Path_9967" data-name="Path 9967" d="M40.693,96.966a3.342,3.342,0,0,1,.177,4.726c-1.02,1.119-3.362,1.733-4.794.345a.3.3,0,0,1,.057-.331c1.407-1.332,2.575-2.875,3.909-4.27a1.345,1.345,0,0,1,.577-.411.551.551,0,0,0,.074-.059" transform="translate(-8.597 -24.274)" fill="#f6f1ed"/>
    <path id="Path_9968" data-name="Path 9968" d="M40.686,109.952a3.354,3.354,0,0,1,.848,3.716,3.56,3.56,0,0,1-3.6,2.178,2.775,2.775,0,0,1-1.866-.805c.259-.741.955-1.142,1.429-1.709.9-1.078,1.889-2.092,2.79-3.176a.6.6,0,0,1,.394-.2" transform="translate(-8.602 -27.525)" fill="#f6f1ed"/>
    <path id="Path_9969" data-name="Path 9969" d="M47.776,89.415a14.979,14.979,0,0,0-.129-3.255c-.038-.147.084-.334.131-.5.251-.258.184-.589.212-.9,1.157-.055,2.329-.347,3.442.232l.018,4.428a.6.6,0,0,1-.267.193,11.9,11.9,0,0,1-3.144,0,.567.567,0,0,1-.263-.2" transform="translate(-11.361 -21.187)" fill="rgba(180,166,128,0.6)"/>
    <path id="Path_9970" data-name="Path 9970" d="M51.457,83.529c-.866-.014-1.732-.026-2.6-.043-.293-.006-.6.055-.845-.188A8.23,8.23,0,0,1,48,79.211c.331-.618.825-.4,1.308-.25l1.8.058c.225.082.514.142.532.418a8.868,8.868,0,0,1-.169,4.025Z" transform="translate(-11.387 -19.725)" fill="#e1d3b6"/>
    <path id="Path_9971" data-name="Path 9971" d="M40.63,109.888a57.4,57.4,0,0,1-4.614,5.089l-.18-.112c.948-1.367,2.2-2.478,3.271-3.742a5.471,5.471,0,0,1,1.33-1.426l.193.19" transform="translate(-8.546 -27.461)" fill="rgba(112,82,37,0.5)"/>
    <path id="Path_9972" data-name="Path 9972" d="M40.6,83.812c-1.3,1.662-2.762,3.188-4.191,4.742a.593.593,0,0,1-.538.262c.158-.695.808-1.014,1.223-1.508,1.062-1.262,2.2-2.465,3.3-3.691l.2.195" transform="translate(-8.554 -20.932)" fill="rgba(112,82,37,0.5)"/>
    <path id="Path_9973" data-name="Path 9973" d="M40.575,97.009l-4.543,5.012a.3.3,0,0,1-.167-.067c-.018-.706.7-.837,1.045-1.265.914-1.15,1.9-2.245,2.882-3.341.187-.21.337-.65.784-.338" transform="translate(-8.553 -24.257)" fill="rgba(112,82,37,0.5)"/>
    <path id="Path_9974" data-name="Path 9974" d="M49.369,78.71c-.434.091-.907-.009-1.308.25.043-.394-.212-.838.2-1.169l1.106.92" transform="translate(-11.452 -19.473)" fill="rgba(112,82,37,0.69)"/>
    <path id="Path_9975" data-name="Path 9975" d="M69.383,107.633q-.023-.432-.046-.864c-.1-2.406-.1-4.814,0-7.221a1.669,1.669,0,0,1,1.212-.267q7.829-.011,15.66,0c.5,0,1.054-.074,1.4.441a.486.486,0,0,1,.03.348l-.025,2.728a5.536,5.536,0,0,1,.012,3.755l-.027,1.08a1.621,1.621,0,0,1-1.2.3q-7.907.01-15.813,0a1.59,1.59,0,0,1-1.2-.3" transform="translate(-16.518 -24.852)" fill="#fff"/>
    <path id="Path_9976" data-name="Path 9976" d="M69.349,96.41q-.025,3.589-.049,7.18a2.018,2.018,0,0,1-.114-1.056c-.02-3.559.049-7.12-.076-10.675a2.9,2.9,0,0,1,1.655-2.924,2.566,2.566,0,0,0,1.48-2.035.842.842,0,0,1,.731-.3c3.489.005,6.979-.1,10.467.049a.67.67,0,0,1,.563.525c.1.783.653,1.124,1.263,1.51a3.05,3.05,0,0,1,1.576,1.774l.729,2.345a2.186,2.186,0,0,1-.111,1.412.617.617,0,0,1-.257.175,1.407,1.407,0,0,1-1.387-.223,2.265,2.265,0,0,1-.169-1.226c.03-.69-.279-.965-.971-.957-1.333.016-2.666,0-4,0-3.03,0-6.06-.005-9.09,0-1.171,0-1.205.046-1.252,1.21a2.611,2.611,0,0,1-.12.881,1.684,1.684,0,0,0-.644,1.615,1.1,1.1,0,0,1-.225.708" transform="translate(-16.48 -21.672)" fill="rgba(112,82,37,0.5)"/>
    <path id="Path_9977" data-name="Path 9977" d="M84.407,85.727l-11.5.02c-.641.071-.843-.376-1.029-.843a3.363,3.363,0,0,0,.114-1.581c.036-1.048.123-1.163,1.22-1.166,2.484-.007,4.968,0,7.453-.006.211,0,.423-.019.634-.029l2.748-.007c.879-.307,1.119-.167,1.266.734q-.023,1.173-.046,2.346c0,.622-.26.841-.858.532" transform="translate(-17.141 -20.519)" fill="#605d5d"/>
    <path id="Path_9978" data-name="Path 9978" d="M72.333,112.588l-2.919-.039q0-.62,0-1.241a1.615,1.615,0,0,1,1.2-.295q7.909-.01,15.818,0a1.653,1.653,0,0,1,1.2.293l.032.916a.239.239,0,0,1-.033.333l-1.823.026a1.673,1.673,0,0,1-1.208.261q-5.531.012-11.061,0a1.725,1.725,0,0,1-1.211-.255" transform="translate(-16.554 -27.789)" fill="#f8f9fa"/>
    <path id="Path_9979" data-name="Path 9979" d="M95.4,94.886c1.211,0,2.422-.02,3.633-.009a2.209,2.209,0,0,1,2.375,2.159,2.27,2.27,0,0,1-2.393,1.95c-1.211.01-2.422.006-3.633.008a6.516,6.516,0,0,1,.018-4.107" transform="translate(-22.669 -23.75)" fill="#fdfdfc"/>
    <path id="Path_9980" data-name="Path 9980" d="M95.4,86.414a11.859,11.859,0,0,1,4.668.04,2.023,2.023,0,0,1,1.324,2.032,2.149,2.149,0,0,1-2.1,1.864c-1.3.04-2.605.007-3.907.006a5.925,5.925,0,0,1,.015-3.943" transform="translate(-22.669 -21.579)" fill="#fefefe"/>
    <path id="Path_9981" data-name="Path 9981" d="M89,81.818a1.05,1.05,0,0,0-1.266-.734c-.008-.532-.48-.939-.356-1.529a2.071,2.071,0,0,1,2.014-1.7c1.388-.016,2.776,0,4.163.006a5.8,5.8,0,0,1,.007,3.94L89,81.818" transform="translate(-20.834 -19.489)" fill="#dedaca"/>
    <path id="Path_9982" data-name="Path 9982" d="M97.741,107.86c-2.232,0-2.232,0-2.232-2.116,0-2,0-2,2.053-1.993a5.911,5.911,0,0,1,2.68.317,1.813,1.813,0,0,1,1.1,2.044,1.793,1.793,0,0,1-1.451,1.616,11.009,11.009,0,0,1-2.149.131" transform="translate(-22.777 -25.97)" fill="#fefefe"/>
    <path id="Path_9983" data-name="Path 9983" d="M95.507,81.806q0-1.97-.007-3.94c1.3,0,2.6-.007,3.9,0a1.977,1.977,0,1,1,.007,3.946c-1.3.018-2.6,0-3.9,0" transform="translate(-22.775 -19.491)" fill="#fefefe"/>
    <path id="Path_9984" data-name="Path 9984" d="M97.912,116.316c-2.4,0-2.4,0-2.4-2.377,0-1.583,0-1.584,1.568-1.583.73,0,1.46-.015,2.189.007a1.984,1.984,0,0,1,2.079,2.1c-.011,1.15-.771,1.835-2.064,1.852-.455.006-.912,0-1.368,0" transform="translate(-22.777 -28.125)" fill="#fdfdfd"/>
    <path id="Path_9985" data-name="Path 9985" d="M93.8,86.431q-.008,1.971-.015,3.943l-2.354.013a8.355,8.355,0,0,0-2.62-2.135c-.56-.268-.207-.995-.479-1.448a.728.728,0,0,0,.858-.533,18.9,18.9,0,0,0,3.518.13c.363.02.727.02,1.091.03" transform="translate(-21.065 -21.596)" fill="#dedaca"/>
    <path id="Path_9986" data-name="Path 9986" d="M87.636,111.159l-18.223,0q0-.369.006-.738H87.632c0,.244,0,.49,0,.734" transform="translate(-16.554 -27.643)" fill="rgba(112,82,37,0.5)"/>
    <path id="Path_9987" data-name="Path 9987" d="M94.906,94.89Q94.9,96.944,94.888,99L93.3,98.974a1.39,1.39,0,0,0-.054-.145,4.907,4.907,0,0,1-.142-2.571c.037-.458-.1-.938.17-1.368h1.635" transform="translate(-22.178 -23.754)" fill="#dedaca"/>
    <path id="Path_9988" data-name="Path 9988" d="M93.37,107.714q-.006-1.878-.012-3.755c.181-.011.365-.011.544-.036.694-.1,1,.143.931.879-.061.651-.013,1.314-.012,1.972,0,1.24-.187,1.364-1.451.941" transform="translate(-22.264 -26.01)" fill="#dedaca"/>
    <path id="Path_9989" data-name="Path 9989" d="M93.343,112.881l.032-.333c1.249-.448,1.44-.326,1.442.924q0,.762,0,1.526c0,1.3,0,1.3-1.288,1.33-.361-1.133-.064-2.3-.187-3.448" transform="translate(-22.26 -28.115)" fill="#dedaca"/>
    <path id="Path_9990" data-name="Path 9990" d="M52.346,91.04l.2-.025q4.832.013,9.664.027c1.25.005,1.279.039,1.279,1.259q0,8.842-.008,17.684c0,1.258-.273,1.527-1.556,1.528-3.07,0-6.139-.007-9.21-.011-.164.1-.316.129-.423-.077-.07-2.82-.029-5.641-.024-8.462a1.218,1.218,0,0,1,.387-1.05c1.215-.344,1.522-.131,1.608,1.109.069,1,.129,1.046,1.434,1.03,1.043-.013,1.078-.044,1.128-1.038.057-1.129.184-1.238,1.356-1.3.4-.021.962.171,1.108-.352a2.823,2.823,0,0,0-.056-1.929c-.151-.331-.593-.217-.918-.23-1.356-.054-1.437-.1-1.481-1.437-.021-.649-.267-.936-.923-.9-.3.017-.605.005-.908.009a.646.646,0,0,0-.727.718c0,.119-.007.239-.015.358-.08,1.169-.384,1.375-1.577,1.071a.771.771,0,0,1-.327-.609,59.97,59.97,0,0,1-.013-7.371" transform="translate(-12.458 -22.784)" fill="rgba(199,190,162,0.5)"/>
    <path id="Path_9991" data-name="Path 9991" d="M52.522,83.53c0-1.175-.011-2.351,0-3.526,0-.363.006-.705-.363-.917q4.443-.009,8.886-.021c.733,0,1.148.307,1.151,1.056q0,1.25,0,2.5a.9.9,0,0,1-.765.96l-8.908-.053" transform="translate(-12.439 -19.793)" fill="#e1d3b6"/>
    <path id="Path_9992" data-name="Path 9992" d="M50.9,111.5h.364l-.177.184-3.663.005c-1.113-.435-1.294-1.292-1.285-2.376.041-5.651.019-11.3.021-16.954,0-1.28,0-1.28,1.26-1.349l.2.023a1.582,1.582,0,0,1,.108.792c-.023,6.1.006,12.21-.015,18.315,0,1.013.041,1.034,1.068,1.086.71.036,1.464-.2,2.118.275" transform="translate(-11.003 -22.783)" fill="rgba(199,190,162,0.5)"/>
    <path id="Path_9993" data-name="Path 9993" d="M72.541,113.113l13.48-.007a6.523,6.523,0,0,1,.075,3.008c-.128.8-.794,1.056-1.573,1.056-2.767,0-5.532.008-8.3.01-1.368,0-2.736.016-4.1-.016-1.234-.029-1.708-.486-1.731-1.7-.014-.708-.3-1.571.153-2.089.436-.5,1.339.017,2-.258" transform="translate(-16.762 -28.314)" fill="rgba(112,82,37,0.85)"/>
    <path id="Path_9994" data-name="Path 9994" d="M68.2,50.222a23.483,23.483,0,0,0,.323-4.088c.3-3.682.432-7.377.828-11.08q.425,7.418.851,14.836a13.473,13.473,0,0,1-2,.332" transform="translate(-16.264 -8.775)" fill="#bbac78"/>
    <path id="Path_9995" data-name="Path 9995" d="M71.907,55.852q3.2.232,6.4.461c1.438.1,2.877.19,4.316.284l.009.224-10.689.794a4.435,4.435,0,0,1-.036-1.763" transform="translate(-17.131 -13.982)" fill="#bbac78"/>
    <path id="Path_9996" data-name="Path 9996" d="M70.876,55.562a1.728,1.728,0,0,1-1.838,2.6c-1.513-.222-2-1.706-1-3.023a2.114,2.114,0,0,1,2-.332l.838.756" transform="translate(-16.1 -13.692)" fill="rgba(112,82,37,0.85)"/>
    <path id="Path_9997" data-name="Path 9997" d="M40.417,70.7A1.148,1.148,0,0,1,40,71.55q-1.791,2.015-3.582,4.029a.624.624,0,0,1-.532.286c-.069-.59.476-.807.782-1.118A44.916,44.916,0,0,1,40.417,70.7" transform="translate(-8.557 -17.697)" fill="rgba(112,82,37,0.5)"/>
    <path id="Path_9998" data-name="Path 9998" d="M51.271,111.509c-.972,0-1.944,0-2.917,0-.455,0-.787-.079-.608-.679a3.511,3.511,0,0,0,.053-.979q0-8.839,0-17.676a1.886,1.886,0,0,1,.193-1.13l3.271.005a1.726,1.726,0,0,1,.194,1.037c0,2.113.008,4.227.025,6.34a1.971,1.971,0,0,0,.143.507A1.737,1.737,0,0,0,51.636,102a1.665,1.665,0,0,0-.184.947c.019,2.643.022,5.287.065,7.931,0,.285-.168.424-.247.636" transform="translate(-11.375 -22.791)" fill="rgba(199,190,162,0.5)"/>
    <path id="Path_9999" data-name="Path 9999" d="M87.476,96.715a8.185,8.185,0,0,1,.142,2.57.939.939,0,0,0-.861-.361q-8.668.022-17.336.024c0-.252-.006-.5-.01-.756a2.145,2.145,0,0,1,1.484-.268c4.881-.007,9.76-.027,14.64.016.947.008,1.639-.151,1.908-1.131.012-.031.024-.062.033-.094" transform="translate(-16.553 -24.211)" fill="rgba(112,82,37,0.5)"/>
    <path id="Path_10000" data-name="Path 10000" d="M70.394,95.92c.006-.627.033-1.255.012-1.881-.015-.454.141-.634.624-.633q7.281.019,14.562,0c.487,0,.642.169.623.625-.027.626-.01,1.254-.011,1.881a1.418,1.418,0,0,1-1.185.311q-6.718.016-13.436,0a1.454,1.454,0,0,1-1.189-.3" transform="translate(-16.787 -23.383)" fill="rgba(112,82,37,0.85)"/>
    <path id="Path_10001" data-name="Path 10001" d="M70.142,96.757c2.422.015,4.846.043,7.268.041,2.847,0,5.695-.031,8.542-.048l1.474.067a4.507,4.507,0,0,0,.017.538c.094.651-.144.878-.846.874-5.734-.031-11.469-.023-17.2-.028.075-.569-.468-1.449.749-1.445" transform="translate(-16.535 -24.22)" fill="#f9faf9"/>
    <path id="Path_10002" data-name="Path 10002" d="M74.877,83.109a3.713,3.713,0,0,1-.075,2.2,3.689,3.689,0,0,1,.075-2.2" transform="translate(-17.807 -20.805)" fill="#8d8787"/>
    <path id="Path_10003" data-name="Path 10003" d="M82.721,83.27a3.637,3.637,0,0,1,.072,2.114,3.3,3.3,0,0,1-.072-2.114" transform="translate(-19.694 -20.845)" fill="#8f8a8a"/>
    <path id="Path_10004" data-name="Path 10004" d="M83.709,85.385a3.211,3.211,0,0,1,.008-2.118,3.211,3.211,0,0,1-.008,2.118" transform="translate(-19.921 -20.844)" fill="#908b8b"/>
    <path id="Path_10005" data-name="Path 10005" d="M77.733,85.365a3.417,3.417,0,0,1-.005-2.114,3.394,3.394,0,0,1,.005,2.114" transform="translate(-18.497 -20.84)" fill="#958b8c"/>
    <path id="Path_10006" data-name="Path 10006" d="M76.753,83.268a3.556,3.556,0,0,1,.037,2.1,3.63,3.63,0,0,1-.037-2.1" transform="translate(-18.271 -20.845)" fill="#958b8c"/>
    <path id="Path_10007" data-name="Path 10007" d="M81.716,85.328a6.053,6.053,0,0,1-.05-2.113,2.125,2.125,0,0,1,.05,2.113" transform="translate(-19.459 -20.831)" fill="#8f8a89"/>
    <path id="Path_10008" data-name="Path 10008" d="M75.781,83.257a2.832,2.832,0,0,1-.008,2.079,4.042,4.042,0,0,1,.008-2.079" transform="translate(-18.038 -20.842)" fill="#918889"/>
    <path id="Path_10009" data-name="Path 10009" d="M86.69,85.332V83.324a3.68,3.68,0,0,1,0,2.008" transform="translate(-20.674 -20.859)" fill="#aba3a4"/>
    <path id="Path_10010" data-name="Path 10010" d="M87.754,83.307v2a3.7,3.7,0,0,1,0-2" transform="translate(-20.895 -20.854)" fill="#aaa5a5"/>
    <path id="Path_10011" data-name="Path 10011" d="M85.822,83.321v2.007a3.464,3.464,0,0,1,0-2.007" transform="translate(-20.431 -20.858)" fill="#a7a1a1"/>
    <path id="Path_10012" data-name="Path 10012" d="M80.706,85.271V83.343a3.161,3.161,0,0,1,0,1.928" transform="translate(-19.247 -20.863)" fill="#a79e9f"/>
    <path id="Path_10013" data-name="Path 10013" d="M79.865,83.339v2h-.1V83.361l.1-.022" transform="translate(-19.022 -20.862)" fill="#a9a5a4"/>
    <path id="Path_10014" data-name="Path 10014" d="M84.863,83.329v2a3.7,3.7,0,0,1,0-2" transform="translate(-20.204 -20.86)" fill="#a6a09f"/>
    <path id="Path_10015" data-name="Path 10015" d="M72.9,83.149v1.984a3.648,3.648,0,0,1,0-1.984" transform="translate(-17.352 -20.815)" fill="#a8a1a0"/>
    <path id="Path_10016" data-name="Path 10016" d="M88.628,85.34V83.368l.085,0v1.974h-.085" transform="translate(-21.136 -20.869)" fill="#ada09f"/>
    <path id="Path_10017" data-name="Path 10017" d="M73.81,83.317A4.187,4.187,0,0,1,73.8,85.2a4.443,4.443,0,0,1,.006-1.879" transform="translate(-17.577 -20.857)" fill="#a59f9e"/>
    <path id="Path_10018" data-name="Path 10018" d="M78.891,83.366v1.828a3.1,3.1,0,0,1,0-1.828" transform="translate(-18.781 -20.869)" fill="#b0a1a3"/>
    <path id="Path_10019" data-name="Path 10019" d="M52.508,103.824c-.5-.122-1.2.187-1.155-.854.08-2.081.009-2.084,1.145-2.212,1.356.107,1.419.1,1.342-1.26-.051-.9.206-1.288,1.138-1.115a.457.457,0,0,0,.091,0c1.761,0,1.79,0,1.808,1.746.006.583.225.68.748.684,1.8.015,1.806.033,1.8,1.765-.005,1.392.153,1.176-1.2,1.2a4.009,4.009,0,0,1-.637,0c-.579-.085-.705.166-.708.7-.008,1.719-.031,1.727-1.828,1.715-1.356-.009-1.181.193-1.186-1.205,0-1.274,0-1.274-1.356-1.166" transform="translate(-12.246 -24.618)" fill="#fcfdfd"/>
  </g>
</svg>
