<svg id="Group_1098" data-name="Group 1098" xmlns="http://www.w3.org/2000/svg" xmlns:xlink="http://www.w3.org/1999/xlink" width="97.761" height="102.137" viewBox="0 0 97.761 102.137">
  <defs>
    <clipPath id="clip-path">
      <rect id="Rectangle_1864" data-name="Rectangle 1864" width="97.761" height="102.137" fill="none"/>
    </clipPath>
  </defs>
  <g id="Group_1000" data-name="Group 1000" transform="translate(0 0)" clip-path="url(#clip-path)">
    <path id="Path_11924" data-name="Path 11924" d="M51.119,4.13c.833.855,2.027.71,3.055.908a46.135,46.135,0,0,1,8.769,2.78,50.274,50.274,0,0,1,11.2,6.464,46.253,46.253,0,0,1,7,6.8,49.435,49.435,0,0,1,4.218,5.559,48.2,48.2,0,0,1,4.476,9.342c.738,1.969,1.064,4.023,1.721,6a17.815,17.815,0,0,1,.621,4.484,44.789,44.789,0,0,1-.6,12.928,48.7,48.7,0,0,1-4.44,12.369,47.784,47.784,0,0,1-9.574,12.5A43.517,43.517,0,0,1,67.181,91.69c-1.72.838-3.506,1.6-5.145,2.6a.606.606,0,0,1-.594.037.645.645,0,0,1-.249-.556,23.761,23.761,0,0,1,.934-5.273,1.087,1.087,0,0,1,.844-.276,11.628,11.628,0,0,0,3.6.432,6.58,6.58,0,0,0,4.18-1.3c.2-.173.384-.359.567-.547a3.54,3.54,0,0,1,.292-.292,8.989,8.989,0,0,0,2.136-5.488,31.8,31.8,0,0,0-.628-10.079c-.394-2.762-1.067-5.478-1.547-8.225-.105-.381-.142-.777-.276-1.152a23.692,23.692,0,0,0-3.288-8.155,4.471,4.471,0,0,0-.86-1.1c-.287-.29-.583-.57-.887-.843-.884-1.086-2.263-1.542-3.331-2.4-.113-.5.209-.78.585-1.027.476-.054.732.37,1.14.441-.523-.093-.945-.919-1.58-.153a1.226,1.226,0,0,1-.4.387,1.207,1.207,0,0,1-1.1-.351,2.7,2.7,0,0,1-.56-2.4c.148-.187.4-.31.4-.59.072-.155-.176-.108-.014-.045.044.018.008.15-.034.225a.912.912,0,0,1-.249.272c-.314-.029-.405-.263-.5-.5-.491-.8-.291-1.715-.447-2.571a18.092,18.092,0,0,0-4.449-8.839,3.316,3.316,0,0,1-.854-1.1,1.091,1.091,0,0,1,.092-.78,4.992,4.992,0,0,0,1.472-6.068,1.99,1.99,0,0,1-.089-.75,21.665,21.665,0,0,1,.5-2.352c1.093-5.317-.909-9.533-5.121-12.879-1.034-.82-1.5-1.6-.951-2.793.456-.994-.106-2.088.353-3.077" transform="translate(5.396 0.251)" fill="rgba(215,210,181,0.35)"/>
    <path id="Path_11925" data-name="Path 11925" d="M64.841,86.148l-.82,5.837a31.216,31.216,0,0,1-6.315,1.807c-.292-.262-.666-.1-.994-.175.321.093.7-.083.983.177a5.373,5.373,0,0,1-2.334.51c-2.129.388-4.313.354-6.438.774-1.832.4-3.691.054-5.533.194a38.685,38.685,0,0,1-5.07-.533l-1.867-.475a8.232,8.232,0,0,0-2.17-.47,33.363,33.363,0,0,1-7.9-2.561,12.441,12.441,0,0,0,.937-5.884,4.605,4.605,0,0,1,3.8-1.368c.675.745.716,1.789,1.313,2.57.246.321.421.857.95.681.424-.142.3-.643.348-1.007.167-1.233-.574-2.363-.437-3.593a2.144,2.144,0,0,1,.739-.981,1.937,1.937,0,0,0,.611-2.128,3.576,3.576,0,0,1-.1-.725c-.107-1.189-.579-2.316-.674-3.507.258-.729.486-1.44-.792-1.327-.776-.217-1.671-.063-2.314-.686a5.816,5.816,0,0,1-.9-3.051,2.011,2.011,0,0,1,.326-.677c.188-.3.179-.306-.169-.479a.505.505,0,0,1-.112-.066,1.278,1.278,0,0,1-.182-1.632c.372-.668-.252-2.023,1.276-1.908,1.056.078,1.489-.244,1.26-1.269-.524.234-.791,1.095-1.616.639-.405-.88.82-1.078.813-1.792a11.691,11.691,0,0,0,2.489-6.135,16.719,16.719,0,0,0-.442-5.878,2.55,2.55,0,0,1-.148-.992c.286-.7,1.026-1.222.8-2.127-.1-.4.344-.474.672-.575a5.912,5.912,0,0,0-.9.28.789.789,0,0,1-.509-.252.761.761,0,0,1-.007-1.058,1.148,1.148,0,0,1,.885-.329,9.416,9.416,0,0,1,2.653.761c.242.124.292-.129.217.023-.01.018-.044-.008-.118-.024-1.03-.228-.517-.836-.366-1.358A1.065,1.065,0,0,1,37.365,45c.93-.03,1.213.526,1.273,1.285a1.815,1.815,0,0,1-.184,1.087c-.514.757-.04,1.032.607,1.25a1.993,1.993,0,0,1,.55.458c.5.437.9.96,1.362,1.428,3.688,3.327,9.18,2.872,12.695-1.054.367-.411.646-.913,1.241-1.092a1.119,1.119,0,0,1,.412-.007,1.683,1.683,0,0,1,.926.783,1.3,1.3,0,0,1,.541,1.568,15.973,15.973,0,0,0-.346,4.671c0,1.814.007,1.814,1.839,1.83a4.7,4.7,0,0,1,.6,2.165c.234,2.123.851,4.187,1.013,6.318a11.672,11.672,0,0,1-.122,1.854.915.915,0,0,1-.194.33,1.635,1.635,0,0,1-1.088.065c-.269,1.552.929,1.576,2.021,1.721a4.885,4.885,0,0,1,.683,2.831c.2.875-.787,1.458-.625,2.314.118-.434-.077-1.357.889-.531a1.377,1.377,0,0,1,.156.333,7.494,7.494,0,0,0,.963,3.269,13.815,13.815,0,0,1,1.191,2.42c.266.417.341.169.4-.114A18.691,18.691,0,0,0,63.076,76.7a7.21,7.21,0,0,1-.457-1.951,2.243,2.243,0,0,0-.48-1.814,4.106,4.106,0,0,1-.406-2.907,2.2,2.2,0,0,0,.31-1.446c.007-1.51,0-3.018,0-4.527,0-1.726,0-1.726-1.769-2.1a.906.906,0,0,1-.522-.691A127.9,127.9,0,0,1,57.816,48a2.038,2.038,0,0,0,.006-.492c-.112-.52.421-1.114-.294-1.6-.219-.149.142-.589.377-.836a6.616,6.616,0,0,1,3.055-1.347c.611-.036.844.5,1.285.751-.032-.411-.6-.688-.356-1.18.437-.516.916-.836,1.573-.3.034.193.028.405.258.507l-.007,0a7.5,7.5,0,0,0,.612,2.493c.7.593-.272.795-.308,1.217-.905,1.082-.69,1.738.742,2.243.778.979.844,2.205,1.216,3.317a63.37,63.37,0,0,1,2.094,6.8,3.53,3.53,0,0,1-.355,2.636,1.929,1.929,0,0,1-.27.42c-.429.369-.428.369.17.736.468-.485-.405-1.521.754-1.717,1.007.812,1.1,1.975,1.31,3.1a4.151,4.151,0,0,1-.365,1.449,3.385,3.385,0,0,0,1.7,3.518c.84.772.791,1.842,1.029,2.814.112.732-.394,1.264-.64,1.887-.188.477-.382,1.046.664.756,1.219-.339,2.079.746,3.175.761a6.285,6.285,0,0,1-.257-.754c-.049-.376-.18-.749.061-1.106.415-.4.227-.872.186-1.316-.1.153.093.252.055.388-.028.293.08.6-.168.851a5.681,5.681,0,0,1-1.04.947c-.563.308-1.1.429-1.231-.434a2.544,2.544,0,0,0-.081-2.037,3.9,3.9,0,0,1-.436-2.528,2.385,2.385,0,0,0,.367-1.679c-.018-.308.259-.962-.577-.449-.269.164-.435-.32-.545-.576-.2-.454-.19-1-.675-1.321a24.814,24.814,0,0,1-1.648-5.091,1.873,1.873,0,0,1,.843-1.613c.2-.13.63,0,.486-.482-.1-.354-.26-.681-.661-.668-1.016.033-1.408-.688-1.886-1.328-.794-2.332-2.02-4.549-2.054-7.083.11-.191.339-.273.471-.43a1.666,1.666,0,0,1,2.668-.2q.377.379.753.76a.245.245,0,0,1,.083.2c-.008.073-.02.11-.035.11-.757.176-.757.176-.479.824.466.382.8-.5,1.266-.119a19.719,19.719,0,0,1,3.438,8.385c-.2,1.323-.857,2.608-.363,3.96.03.2.17-.055.017.029-.059.032-.1.005-.094-.082a14.4,14.4,0,0,0-.105-1.759.968.968,0,0,1,.769-1.114,52.831,52.831,0,0,1,1.607,8.334,11.506,11.506,0,0,1-.116,5.326c-.132,1.2.044,2.408-.032,3.074.02-.593-.023-1.722,0-2.849.18-.463.032-1.018.571-1.4.348,4.165.447,8.286-2.29,11.938l0,0c-.386.106-.815-.116-1.181.143a.782.782,0,0,1-.681-.092c-.086-.705-.446-.18-.643-.1-.388.162-.332.559-.383.88-.085.541-.271.98-.931,1.04a8.615,8.615,0,0,1-.9-.216c-.006,0-.03.039-.045.06.174-.032-.039.222.08.1a.163.163,0,0,1-.112.2,6,6,0,0,1-3.7-.547c-.268-.133-.538-.309-.785.033" transform="translate(2.817 2.597)" fill="rgba(112,82,37,0.5)"/>
    <path id="Path_11926" data-name="Path 11926" d="M40.064,47.623l-.524.261a5.712,5.712,0,0,1-2.463.73.867.867,0,0,0-.736.24c-.212.243-.578.283-.774.545-.082.793.527,1.365.713,2.071a1.04,1.04,0,0,1,.02.543c-.314.508.311.944.121,1.443-.267.181-.506.067-.745-.059a21.192,21.192,0,0,1-1.671-3.313c.168-.726.113-1.323-.873-1.386a17.429,17.429,0,0,0-3.626-3.284c-2.756-1.657-5.607-2.217-8.61-.6a7.35,7.35,0,0,0-3.189,3.29c-2.133,4.347-1.608,8.623.489,12.8a11.019,11.019,0,0,0,3.873,4.707.479.479,0,0,1,.206.662,5.015,5.015,0,0,0-.838,2.237c-.868,4.68-2.174,9.28-2.82,14a2.069,2.069,0,0,1-.208.6c-.418.673-.144,1.462-.4,2.16-.151.417-.073.918-.489,1.237A.478.478,0,0,1,17,85.993c-.086-.207-.176-.086-.266,0a33.883,33.883,0,0,1-6-5.929,44.818,44.818,0,0,1-6.023-9.235c-.908-2.037-1.758-4.091-2.48-6.178A30.517,30.517,0,0,1,.3,55.664a48.885,48.885,0,0,1-.277-5.045,55.72,55.72,0,0,1,.323-5.672A70.956,70.956,0,0,1,2.436,36.3a39.8,39.8,0,0,1,4.686-9.9,37.862,37.862,0,0,1,5.961-7.469A65.444,65.444,0,0,1,20.3,12.856,45.894,45.894,0,0,1,32.047,6.895a41.081,41.081,0,0,1,7.567-1.984,1.835,1.835,0,0,0,1.748-1.5c.61,1.075.433,2.267.508,3.412.034.528-.564.687-.992.9a13.216,13.216,0,0,0-5.8,4.957,9.444,9.444,0,0,0-.6,1.1c-.046.109-.1.214-.158.319a7.54,7.54,0,0,0-.688,2.222c-.4,2.313-1.181,4.579-.67,6.986a3.879,3.879,0,0,0,1.408,2.612A.941.941,0,0,1,34.863,27c-1.514.914-1.8,2.846-.662,4.585a3.5,3.5,0,0,0,.944,1.053,4.869,4.869,0,0,1,2.216,3.98,10.506,10.506,0,0,0,5.714,7.809,1.526,1.526,0,0,1,.675.592,2.381,2.381,0,0,1-2.687,2.58c-.341-.043-.672-.209-1,.029" transform="translate(0 0.207)" fill="#ebe8dc"/>
    <path id="Path_11927" data-name="Path 11927" d="M31.736,27.221c-.083-.191-.111-.485-.258-.559-2.074-1.047-2.132-2.971-2.156-4.8a19.14,19.14,0,0,1,.92-5.559c.445-.275.661-.773,1.138-1.032.675-.368,1.022-.739-.138-.884-.189-.023-.266-.193-.193-.386l-.008.011c.414-.239.421-.678.566-1.049a11.8,11.8,0,0,1,6.081-5.324c.751-.33,1.036-.648.735-1.391a8.834,8.834,0,0,1-.191-2.627C38.87,1.609,40.423.651,42.457.257a12.284,12.284,0,0,1,7.731.889,6.179,6.179,0,0,1,3.2,3.235,5.872,5.872,0,0,1-.213,3.856c-.3.658-.04.941.488,1.322a13.645,13.645,0,0,1,5.94,8.97,10.279,10.279,0,0,1-.179,4.655.371.371,0,0,1-.516,0,13.293,13.293,0,0,1-.253-4.731c-.1,1.458-.068,2.915-.093,4.372-.008.453.266.261.4.376.363.67.043,1.107-.54,1.451-.541.319-.971.306-1.247-.337a.455.455,0,0,0-.568-.21c-1.008.4-1.978-.067-2.965-.084a4.918,4.918,0,0,0-1.48.108,2.406,2.406,0,0,1-.367.068,2.823,2.823,0,0,1-1.725-.51,61.421,61.421,0,0,1-6.412-4.155c-1.813-1.429-1.457-1.15-2.542.371a11.513,11.513,0,0,1-1.346,1.618q-.887.813-1.735,1.661c-.079.085-.163.163-.248.24-.26.229-.5.476-.767.7-.632.419-1.312.771-1.913,1.235-.141.092-.286.18-.423.278a8.233,8.233,0,0,1-.656.5,9.348,9.348,0,0,1-1.051.441c-.091.051-.183.1-.27.155-.263.167-.361.508-.688.608a.326.326,0,0,1-.279-.12" transform="translate(3.131 0)" fill="#705225"/>
    <path id="Path_11928" data-name="Path 11928" d="M16.4,79.358q1.64-7.945,3.279-15.89c.1-.486.039-1.094.887-.848l.18,0c.616.544,1.72.5,1.966,1.49a.8.8,0,0,1-.64.386c-.218.093.074.212-.05.091a2.135,2.135,0,0,0,.877-.62,6.747,6.747,0,0,1,2.475.485,1.642,1.642,0,0,0,1.319.277A1.51,1.51,0,0,1,28,65a2.1,2.1,0,0,1,.371,1.556,10.987,10.987,0,0,0-.151,2.555c-.48.987.105,1.9.219,2.848.066.557.2,1.087-.2,1.575a1.161,1.161,0,0,1-.476.322,1.717,1.717,0,0,1-1.576-.54c.23.636.743,1.129.765,1.807-.35,1.309-.345,2.838-2.183,3.215a2.18,2.18,0,0,1-1.034-.007c-.968-.342-1.205.189-1.3.931a3,3,0,0,1-.136.337,10.12,10.12,0,0,0-.229,4.7,1.809,1.809,0,0,1,.08.554c.007.805,0,1.6-1.044,1.87a48.29,48.29,0,0,1-4.714-3.074c-.222-.258-.511-.542-.411-.878.338-1.121.068-2.3.414-3.417" transform="translate(1.704 3.804)" fill="rgba(112,82,37,0.5)"/>
    <path id="Path_11929" data-name="Path 11929" d="M27.944,82.923c.709,1.61.131,4.919-1.027,5.867a26.642,26.642,0,0,1-5.567-2.811c.041-.788.748-1.095,1.229-1.567,1.735-.671,3.383-1.636,5.366-1.489" transform="translate(2.28 5.041)" fill="rgba(112,82,37,0.5)"/>
    <path id="Path_11930" data-name="Path 11930" d="M46.747,92.121c.494-.568,1.25-.366,1.847-.458,1.509-.235,3.058-.227,4.591-.317a23.891,23.891,0,0,1-6.438.775" transform="translate(4.991 5.554)" fill="#b3a48b"/>
    <path id="Path_11931" data-name="Path 11931" d="M22.747,84.661l-1.319,1.272a1.365,1.365,0,0,1-.817-.489,2.624,2.624,0,0,0,.823-1.792c.635.1.789.775,1.313,1.009" transform="translate(2.201 5.086)" fill="#b3a48b"/>
    <path id="Path_11932" data-name="Path 11932" d="M16.412,78.4c.143,1.432-.481,2.863,0,4.3a.715.715,0,0,1-.573-.743,12.753,12.753,0,0,1,.577-3.553" transform="translate(1.691 4.766)" fill="#ebebea"/>
    <path id="Path_11933" data-name="Path 11933" d="M37.167,91.757l5.07.533a12.539,12.539,0,0,1-5.07-.533" transform="translate(3.968 5.579)" fill="#f3ece9"/>
    <path id="Path_11934" data-name="Path 11934" d="M33.52,90.869c.767-.031,1.564-.182,2.17.47a5.156,5.156,0,0,1-2.17-.47" transform="translate(3.579 5.522)" fill="#b3a48b"/>
    <path id="Path_11935" data-name="Path 11935" d="M15.121,81.294c.043-.227-.1-.523.247-.633a.241.241,0,0,1,.2.1.4.4,0,0,1-.184.536l-.266,0" transform="translate(1.615 4.904)" fill="#ebebea"/>
    <path id="Path_11936" data-name="Path 11936" d="M31.669,26.2a.109.109,0,0,1,.17.059,3.011,3.011,0,0,0,1.9.374c.174.014-.007-.261.02-.093,0,.016-.018.023-.06.027-.468.027-1.013.222-1.36-.157-.317-.346-.022-.705.271-.989l-.02.015a2.476,2.476,0,0,1,2.022.226,2.014,2.014,0,0,0,1.76.227,1.942,1.942,0,0,1,.359-.111.909.909,0,0,1,.728.158.8.8,0,0,1,.125.336c.01.336-.1.662-.1,1,0,1.153.356,1.413,1.626,1.174.436-.118.625-.593,1.264-.62-.569-.536-1.123-.932-.932-1.653.209-.987.813-1.838,1.051-2.814,0-.211.087-.473-.024-.623-1.048-1.419-.091-2.656.355-3.94l1.194-1.966a44.75,44.75,0,0,0,7.806,5.367,4.653,4.653,0,0,0,1.882.758c0,.475-.4.447-.715.53-.912.139-1.785-.37-2.722-.163,1.155.924,2.408.956,4.975.134a1.855,1.855,0,0,1,.753.021,9.325,9.325,0,0,0,4.817.945c.251,1.17.81,2.286.6,3.537-.237,1.4-.6,2.7-2.1,3.358-.415.369-.65-.345-1.036-.156-.794-.153-1.086-.95-1.761-1.253-.449-.2-.937-.709-1.4-.217-.4.425.086.842.344,1.216a18.743,18.743,0,0,0,1.961,2.182c.25.26.643.4.752.782a3.3,3.3,0,0,1-.75,2.259,6.939,6.939,0,0,1-1.857,1.892c-.67.578-1.416,1.216-.661,2.221a1.169,1.169,0,0,1,.028.367,12.732,12.732,0,0,0-.055,2.212,4.155,4.155,0,0,0,1.137,2.526c.258.447.941.6.935,1.226-.072.1-.217.185-.234.29-.05.338.178.126.277.1a.636.636,0,0,1,.869.3.778.778,0,0,1-.021.516,5.338,5.338,0,0,0-.806,1.346.948.948,0,0,1-.287.237c-.083.035-.228.076-.247.039-.592-1.161-1.734-1.051-2.806-1.173a1.345,1.345,0,0,1-1.107-.826,1.809,1.809,0,0,0-2.315-1.158c-1.283.242-2.031-.67-2.989-1.1-.478-.215-.071-.471.221-.581.452-.17.973-.025,1.41-.275a1.886,1.886,0,0,1,.329-.173c.294-.1.664-.208.89-.055.717.486.693-.156.888-.477a1.742,1.742,0,0,1,.266-.222c.237-.146.479-.287.709-.446.091-.063.186-.118.281-.172.294-.156.526-.4.822-.551a.668.668,0,0,1,.335-.02c.843-.075.167-.626.305-.915-.58-.708-.8.067-1.057.285a7.632,7.632,0,0,1-8.442,1.334.549.549,0,0,0-.713.1.433.433,0,0,1-.3.1c-.326-.132-.423-.5-.732-.648a14.7,14.7,0,0,1-4.88-3.928,2.05,2.05,0,0,1-.688-1.316c.615-.716.663-1.283-.45-1.53-.247-.054-.068.234-.216.275a.215.215,0,0,1-.293-.052c-.379-.231-.2-.609-.274-.922a3.35,3.35,0,0,0-1.367-2.332A5.239,5.239,0,0,1,29.946,27.8c.024-1.172.439-1.766,1.723-1.6" transform="translate(3.197 1.023)" fill="#f6adae"/>
    <path id="Path_11937" data-name="Path 11937" d="M50.578,39.632l.007-.254c-.425-1.059.326-1.654,1-2.25.615-.545,1.433-.836,2.03-1.414,1.386-.87,1.395-.925.439-2.6a2.985,2.985,0,0,1-.209-2.1.493.493,0,0,1,.366-.367c.413.03.615.348.873.59a17.882,17.882,0,0,1,5.49,10.237c.125.735.166,1.506.313,2.253-.636-.2-1.08.176-1.545.483a2.16,2.16,0,0,1-.877.46,8.612,8.612,0,0,0-2.852,1.271,1.907,1.907,0,0,1-1.619.206c-.269-.165-.359-.356-.087-.594.282-.277.712-.4.9-.774.054-.1.113-.2.168-.293.518-1.3-.62-.361-.843-.653.077.228.26.359.334.564a.935.935,0,0,1-.007.54,1.55,1.55,0,0,1-.486.559c-.728.24-.971-.421-1.422-.7-.476-.626-1.213-1.137-1-2.069a11.8,11.8,0,0,0,2.7-1.438,13.739,13.739,0,0,0-2.654,1.4c-.5-.035-.521-.468-.713-.763a1.629,1.629,0,0,1-.2-1.243c.645-.939,1.973-.9,2.657-1.756-.877.207-1.556.914-2.487,1.069-.2-.051-.354-.128-.276-.368" transform="translate(5.388 1.863)" fill="#f6adae"/>
    <path id="Path_11938" data-name="Path 11938" d="M68.878,69.7a8.636,8.636,0,0,0,.881,3.144,1.007,1.007,0,0,1-.325,1.431c-.723.279-.929-.179-1.086-.7-.108-.362-.028-.761-.231-1.1a9.216,9.216,0,0,0-.8-2.774,13.342,13.342,0,0,1-1.589-5.088,7.187,7.187,0,0,0-1.036-3.063c-.257-.658-.26-1.379-.55-2.029-.889-3.433-2.069-6.782-3.186-10.149a4.354,4.354,0,0,1-.784-2.563c-.142-.5.913-.391.549-1l1.015.275a.269.269,0,0,1,.08.3c.121,1.02.779,1.925.7,2.989.379,2.464,1.478,4.728,2.153,7.111a10.478,10.478,0,0,1,1.317,4.067c.22,1.782,1.095,3.379,1.573,5.087.41,1.364,1.313,2.581,1.321,4.064" transform="translate(6.423 2.785)" fill="#c0b494"/>
    <path id="Path_11939" data-name="Path 11939" d="M56.535,24.115c-1.739.788-3.235.057-4.729-.693.366-.607-.335-.51-.536-.746a.241.241,0,0,1,.023-.311c1.04.063,2.043.433,3.137.042.579-.206,1.046.231.93,1.011.584-.458,1.46-.6,1.238-1.563h.484q-.274,1.13-.547,2.259" transform="translate(5.47 1.329)" fill="#705225"/>
    <path id="Path_11940" data-name="Path 11940" d="M69.508,83.157a29.418,29.418,0,0,0,1.6-3.549,19.915,19.915,0,0,0,.744-4.048c.122-1.337.027-2.691.027-4.161-.429.326-.1.883-.529,1.068-.089.123-.177.123-.265,0a31.182,31.182,0,0,0,.288-5.4c.965,5.011,1.7,10.011-.781,14.856a2.817,2.817,0,0,1-1.084,1.237" transform="translate(7.422 4.077)" fill="#b3a48b"/>
    <path id="Path_11941" data-name="Path 11941" d="M62.367,49.341a5.384,5.384,0,0,1-.816-3.039c.17-.055.189.144.311.169A8.077,8.077,0,0,1,65.369,48.8c-.166.033-.443.142-.483.088-.62-.822-1.1-.662-1.572.137-.2.344-.594.313-.949.318" transform="translate(6.57 2.814)" fill="#b3a48b"/>
    <path id="Path_11942" data-name="Path 11942" d="M65.179,84.29c0-.087.006-.173.008-.26a.67.67,0,0,1,.784-.016c.9-.058.8-.7.8-1.274,0-.958.716-.979,1.429-1,.162,0,.224.083.138.217a2.3,2.3,0,0,1-.245.283c-.043.2-.25.469-.162.561.128.134.2-.2.391-.23a1.494,1.494,0,0,1,.989.057c.041.043.082.089.123.134a6.189,6.189,0,0,1-4.259,1.525" transform="translate(6.959 4.97)" fill="#b3a48b"/>
    <path id="Path_11943" data-name="Path 11943" d="M69.831,59.267c-1.033.949-.238,2.241-.678,3.4-.31-1.589-.511-3.068.454-4.436a1.367,1.367,0,0,1,.225,1.034" transform="translate(7.356 3.54)" fill="#b3a48b"/>
    <path id="Path_11944" data-name="Path 11944" d="M61.591,45.588c1.025-.7,1.768.23,2.633.434a.253.253,0,0,1,.122.408.508.508,0,0,1-.456.088c-.517-.285-1.008-.614-1.51-.928a.589.589,0,0,1-.789,0" transform="translate(6.576 2.756)" fill="#f2e5ec"/>
    <path id="Path_11945" data-name="Path 11945" d="M66.575,50.387a7.305,7.305,0,0,1-1.041.695c-.518.235-.467-.083-.342-.406a1.28,1.28,0,0,1,.515-1.014c.011-.1.023-.194.034-.291a2.141,2.141,0,0,1,.835,1.016" transform="translate(6.952 3.002)" fill="#b3a48b"/>
    <path id="Path_11946" data-name="Path 11946" d="M71.9,62.441a2.021,2.021,0,0,1,0,2,2.253,2.253,0,0,1,0-2" transform="translate(7.652 3.796)" fill="#e6efe5"/>
    <path id="Path_11947" data-name="Path 11947" d="M63.5,84.983c-.371.378-.927.083-1.323.331-.228.144-.435.376-.541-.063-.052-.212.1-.513.3-.469.519.115,1.126-.4,1.563.2" transform="translate(6.58 5.149)" fill="#ebebea"/>
    <path id="Path_11948" data-name="Path 11948" d="M67.259,49.558c.966.373.93.974,1.181,1.392-.113.04-.273.149-.331.111-.452-.3-.536-.773-.85-1.5" transform="translate(7.182 3.013)" fill="#f3e2ea"/>
    <path id="Path_11949" data-name="Path 11949" d="M54.727,31.271a.8.8,0,0,1-.792-.521.31.31,0,0,1,0-.492c.533-.692.357.731.82.252q-.015.38-.028.761" transform="translate(5.746 1.828)" fill="#eca2a4"/>
    <path id="Path_11950" data-name="Path 11950" d="M68.538,82.239c.384-.992.716.058,1.077.025a.868.868,0,0,1-.535.5l-.064-.047c-.195-.125-.427-.216-.478-.475" transform="translate(7.318 4.974)" fill="#b3a48b"/>
    <path id="Path_11951" data-name="Path 11951" d="M60.116,43.522c.121-.371-.132-.861.454-1.161.145.534.3.992-.459,1.157l.006,0" transform="translate(6.418 2.575)" fill="#e3e8e5"/>
    <path id="Path_11952" data-name="Path 11952" d="M61.6,45.573l.789,0c.06.433-.527.535-.525.94-.1-.057-.207-.114-.311-.17l.033-.255.013-.518" transform="translate(6.572 2.771)" fill="#ddeae4"/>
    <path id="Path_11953" data-name="Path 11953" d="M61.143,83.685c-.268-.225-.058-.361.126-.424.363-.126.514.143.659.391l-.785.033" transform="translate(6.515 5.06)" fill="#b3a48b"/>
    <path id="Path_11954" data-name="Path 11954" d="M46.536,42.764c-.315,1.013-1.252.226-1.855.626.4.247.95.151,1.267.626a1.4,1.4,0,0,0,1.406.432c1.137-.122,2.387-.431,2.8,1.271.187.771,1.2,1,2.019.835.757-.154,1.284-.279,1.295.731,0,.468.394.482.777.328.292.446,0,.721-.315.99a29.368,29.368,0,0,1-2.88,2.733,9,9,0,0,1-10.3.338,3.137,3.137,0,0,1-1.1-1.053c.147-.8.1-.86-1.107-1.252-.167-.054.04.023-.129-.025l-.355-.476c-.761-.614-.562-1.53-.792-2.311.06-.746-.105-1.314-1.074-1.246,1.022-.448,2.408-.054,3.1-1.3.229-.409.6-.735.393-1.254a2.027,2.027,0,0,1,.323-.774,1.429,1.429,0,0,1,.694-.488l-.007,0c.62-.033.975.607,1.6.569a13.579,13.579,0,0,0,2.875.351,1.727,1.727,0,0,1,1.359.345" transform="translate(3.865 2.523)" fill="#f6adae"/>
    <path id="Path_11955" data-name="Path 11955" d="M22.688,85.406c-.962.291-1-.523-1.313-1.009,0-.169-.008-.336-.012-.5a9.572,9.572,0,0,1,.3-5.073l-.006.006c.255-1.355,1.541-.937,2.387-1.273,1.854-.293,1.619-1.9,2.1-3.063.317-.451.462-1.032,1.051-1.276l.271-.243c.556-.234.856-.755,1.327-1.084A4.405,4.405,0,0,0,31.48,71.4c.682.493,1.572.221,2.292.571.82.237.485,1.057.84,1.529a17.878,17.878,0,0,1,.8,3.524c-.392.673-1.144.721-1.8.934a5.952,5.952,0,0,0-1.712.74c1.35-.334,2.274-1.238,3.546-.928.55.817.142,1.482-.391,2.106-.294.344-.643.645-.967.966a21.663,21.663,0,0,1-2.45,1.577c-1.391-.063-2.479.729-3.68,1.2a37.059,37.059,0,0,0-5.276,1.784" transform="translate(2.259 4.341)" fill="#f6adae"/>
    <path id="Path_11956" data-name="Path 11956" d="M57.949,72.368a7.623,7.623,0,0,0-.566-3.014c-.724-.849-.455-1.9-.635-2.861-.06-.318.1-.667-.138-.962q-.578-3.631-1.157-7.261c-.072-.452-.139-.9-.209-1.357a2.291,2.291,0,0,1-.619-1.482c-.464-2.25-.618-4.542-.979-6.806-.185-1.153.436-1.542,1.626-1.1a92.2,92.2,0,0,0,1.746,11.895c.155.685-.16,1.445.371,2.059a18.47,18.47,0,0,1,1.1,4.648c.178,1.239.775,2.443.481,3.738a8.537,8.537,0,0,0,.551,2.787,3.4,3.4,0,0,1,.393,1.786,3.824,3.824,0,0,0,.362,1.825c.093.273.319.569-.074.757s-.662-.077-.875-.352a4.059,4.059,0,0,1-.483-1.676c-.1-.4-.039-.852-.391-1.172-.4-.408-.294-.979-.508-1.448" transform="translate(5.725 2.878)" fill="#c0b494"/>
    <path id="Path_11957" data-name="Path 11957" d="M30.861,71.949a2,2,0,0,1-2.668.533,1.91,1.91,0,0,1-.615-1.248c-.206-1.426-.75-2.809-.592-4.279a.542.542,0,0,1,.11-.347c.276-.028.4.105.4.357.05-.163.006-.336.064-.5a5.91,5.91,0,0,0,.123-1.743c.082-1.635.932-2.374,2.678-2.287a.461.461,0,0,1,.268.219c-.144,1.006-1.39.961-1.784,1.725-.04.83.484,1.516.623,2.3.071.792.623,1.48.537,2.305q.43,1.485.858,2.969" transform="translate(2.878 3.795)" fill="#fbf7f5"/>
    <path id="Path_11958" data-name="Path 11958" d="M55.421,47.661c-1.334-.006-1.486.234-1.257,1.587.438,2.6.823,5.2,1.23,7.805a1.306,1.306,0,0,1-1.63.4c-.57-.208-.465-.758-.445-1.206.087-2-.319-4.028.459-5.972.279-.694-.37-.814-.728-1.115.1-.37.474-.662.377-1.1-.427-.132-.593.283-.91.339l-.294-.011q.156-.495.314-.99h-.009a4.578,4.578,0,0,1,.73-1.284c.023-.161.048-.324.072-.485.1-.13.069-.295.127-.435l.121-.1,1.849-.027c.06.282-1.184.485-.031.919.206.076.027,1.095.024,1.678" transform="translate(5.576 2.74)" fill="#b3a48b"/>
    <path id="Path_11959" data-name="Path 11959" d="M58.61,69.053a46.289,46.289,0,0,1-1.585-8.387c2.509,0,2.105-.228,2.133,2.08.019,1.673,0,3.347,0,5.021,0,.5.071,1.03-.551,1.286" transform="translate(6.089 3.688)" fill="#b3a48b"/>
    <path id="Path_11960" data-name="Path 11960" d="M30.633,81.88A3.536,3.536,0,0,1,33.085,80.3c.135,1.364.685,2.677.542,4.078-.048.458-.006.993-.553,1.166-.574.181-.883-.314-1.131-.677a8.947,8.947,0,0,1-1.309-2.989" transform="translate(3.271 4.882)" fill="#f8e9e5"/>
    <path id="Path_11961" data-name="Path 11961" d="M33.133,50.689a4.308,4.308,0,0,1-.259-1.526c.225-.039.362,0,.249.259a16.778,16.778,0,0,1,.592,8.425,11.474,11.474,0,0,1-2.471,4.942c-.195.406-.351.869-.993.639l-.064-.051a1.659,1.659,0,0,1,.583-1.688A7.2,7.2,0,0,0,32.763,56.9c.169-1.629-.154-3.256-.143-4.887.17-.442.121-.964.514-1.327" transform="translate(3.217 2.988)" fill="#ebe9e7"/>
    <path id="Path_11962" data-name="Path 11962" d="M67.426,70.939c.613.485.163,1.683,1.317,1.807.211.775.631.5,1,.152.326-.312.528-.778,1.12-.666h0c-.086.842.508,1.633.155,2.609-.25-.64-.769-.561-1.267-.583-.28-.013-.691.184-.821-.186-.314-.887-.894-.578-1.317-.224-.918.767-.994.247-.991-.512,0-.5-.072-1.026.486-1.356.419-.246.273-.675.32-1.039" transform="translate(7.113 4.313)" fill="#b3a48b"/>
    <path id="Path_11963" data-name="Path 11963" d="M58.029,72.154c.8.4.646,1.18.761,1.834.1.58.172,1.135.941,1.442,0-.927-.587-1.676-.392-2.52.092-.109.177-.1.255.015a14.992,14.992,0,0,0,1.3,4.221,3.465,3.465,0,0,1,.279,1.6.764.764,0,0,1-1.039.015q-.54-1.267-1.077-2.532a12.049,12.049,0,0,1-1.048-3.559v0a.321.321,0,0,1,.019-.508" transform="translate(6.182 4.387)" fill="#c0b494"/>
    <path id="Path_11964" data-name="Path 11964" d="M29.784,68.972q-.387-1.165-.775-2.328c.279-1.034-.25-2.357,1.164-2.985l.167-.066c.971.173,1.006-1.175,2.023-1.034.158.09-.032.306,0,.479.315,1.483-.345,1.862-1.744,1.481-.272-.074-.706.119-.663.244.346,1.007-.84,1.9-.232,2.947.6-.054.112-.713.574-.81.039.745.232,1.513-.519,2.073" transform="translate(3.097 3.803)" fill="#b3a48b"/>
    <path id="Path_11965" data-name="Path 11965" d="M65.243,63.528a27.846,27.846,0,0,1,1.589,5.088c-.84.089-1.395-.031-1.372-1.08.015-.79-.975-1.326-.777-2.284.126-.6.786-1.033.56-1.724" transform="translate(6.904 3.862)" fill="#b3a48b"/>
    <path id="Path_11966" data-name="Path 11966" d="M65.548,59.937a18.586,18.586,0,0,1-1.317-4.067,2.345,2.345,0,0,0,2.186,1.078c.613-.049.467.625.429,1-.018.185.448.726-.438.639-.579-.056-.865.711-.86,1.347" transform="translate(6.858 3.397)" fill="#b3a48b"/>
    <path id="Path_11967" data-name="Path 11967" d="M56.447,64.489a17.188,17.188,0,0,1,.774,3.823c-1.785.563-2.121.242-2.079-2l1.3.217a.41.41,0,0,1,.111.216c.024.15.012.3.023.45,0-.111,0-.223,0-.334a.44.44,0,0,0-.134-.332q0-1.018,0-2.036" transform="translate(5.887 3.921)" fill="#b3a48b"/>
    <path id="Path_11968" data-name="Path 11968" d="M68.163,68.562A17.86,17.86,0,0,1,66.842,64.5c1,.259.3,1.312.944,1.759.328-.155-.018-.94.621-.795.4.091.38.578.293.878-.214.734.6,1.7-.537,2.221" transform="translate(7.137 3.921)" fill="#b3a48b"/>
    <path id="Path_11969" data-name="Path 11969" d="M34.474,77.45a15.877,15.877,0,0,0-2.911,1.122c-.373.216-.982.381-1.182-.035-.245-.5.439-.463.739-.646,1.018-.624,2.27-.639,3.315-1.187.013.248.025.5.039.746" transform="translate(3.238 4.663)" fill="#f08f93"/>
    <path id="Path_11970" data-name="Path 11970" d="M63.855,58.728a3.117,3.117,0,0,1,.55,2.029c-.554.628-.325,1.231.143,1.8-1.683.5-1.775.421-1.743-1.439.434-.087.108.49.485.475a3.2,3.2,0,0,0,.566-2.869" transform="translate(6.705 3.57)" fill="#b3a48b"/>
    <path id="Path_11971" data-name="Path 11971" d="M60.235,46.746a6.941,6.941,0,0,1,.785,2.563c-.479-.1-1.3.3-1.286-.565.01-.668-.759-1.6.5-2" transform="translate(6.354 2.842)" fill="#b3a48b"/>
    <path id="Path_11972" data-name="Path 11972" d="M32.868,49.559,32.62,49.3c-.008-.159-.015-.318-.022-.477a.351.351,0,0,1-.058-.327,1.516,1.516,0,0,1,.61-1.227c.609-.163,1.191-.737,2.065-.033-.988,0-1.779-.042-1.349,1.17.193.545-.439.938-1,1.153" transform="translate(3.473 2.851)" fill="#b3a48b"/>
    <path id="Path_11973" data-name="Path 11973" d="M33.5,46.065a4.72,4.72,0,0,1,2.463-.73c-.031.622.4,1.135.543,1.846-.9-.89-2.046-.756-3.006-1.116" transform="translate(3.577 2.756)" fill="#b3a48b"/>
    <path id="Path_11974" data-name="Path 11974" d="M38.206,48.91a4.44,4.44,0,0,1,.528-.311c.551.656,1.395.616,2.231.673-.392.76-1.417.031-1.523.914L38.206,48.91" transform="translate(4.079 2.955)" fill="#f4a9b0"/>
    <path id="Path_11975" data-name="Path 11975" d="M37.215,46.265a9.319,9.319,0,0,1,.792,2.31c-1.343-.128-1.557-.493-.925-1.47a2.185,2.185,0,0,0,.133-.84" transform="translate(3.923 2.813)" fill="#b3a48b"/>
    <path id="Path_11976" data-name="Path 11976" d="M58.123,72.228c-.007.17-.012.339-.019.508-.175.04-.392-.665-.538.037-.1.456.4.852.012,1.55-.463-.815-.8-1.5-.343-2.228a2.242,2.242,0,0,0,.351-1.161,3.4,3.4,0,0,1,.537,1.293" transform="translate(6.088 4.313)" fill="#b3a48b"/>
    <path id="Path_11977" data-name="Path 11977" d="M35.529,78.777c-.387.23-.182.68-.506,1.348V76.11c.268-.1.261.343.506.382.165.762.509,1.523,0,2.285" transform="translate(3.74 4.626)" fill="#b3a48b"/>
    <path id="Path_11978" data-name="Path 11978" d="M52.488,48.261c.08-.149.157-.3.238-.446.191-.354.5-.753.882-.435A.848.848,0,0,1,53.63,48.6a2.93,2.93,0,0,1-.611.419.772.772,0,0,0-.531-.762" transform="translate(5.604 2.874)" fill="#b3a48b"/>
    <path id="Path_11979" data-name="Path 11979" d="M35.481,78.769V76.484a.572.572,0,0,1,.021-.124c.052-.129.193-.206.222-.041.208,1.147.518,2.3-.146,3.421-.218-.271-.038-.641-.1-.971" transform="translate(3.787 4.634)" fill="#b3a48b"/>
    <path id="Path_11980" data-name="Path 11980" d="M30.444,62.645c.457-.032.638-.46.993-.639.2.855-.962.918-1.024,1.62h0c-.639.381-1.226.947-2.082.511.57-.673,1.646-.687,2.114-1.494" transform="translate(3.025 3.77)" fill="#b3a48b"/>
    <path id="Path_11981" data-name="Path 11981" d="M57.694,43.891a1.046,1.046,0,0,1,.877-.46c.366.458,1.176,1.065.787,1.431s-.911-.456-1.3-.863c-.074-.076-.239-.073-.362-.107" transform="translate(6.16 2.64)" fill="#b3a48b"/>
    <path id="Path_11982" data-name="Path 11982" d="M33.395,73.472c-.719-.289-.322-1.139-.839-1.529.525-.053,1.13-.105,1.435.341.4.583-.727.627-.6,1.188" transform="translate(3.476 4.372)" fill="#b3a48b"/>
    <path id="Path_11983" data-name="Path 11983" d="M58,72.635q.525,1.779,1.048,3.56A4.857,4.857,0,0,1,58,72.635" transform="translate(6.193 4.416)" fill="#b3a48b"/>
    <path id="Path_11984" data-name="Path 11984" d="M68.666,82.215a.72.72,0,0,1,.478.476,2.131,2.131,0,0,0-1.805.73c.305-.377-.31-1.064.527-1.206h.8" transform="translate(7.19 4.998)" fill="#b3a48b"/>
    <path id="Path_11985" data-name="Path 11985" d="M33.569,71.276c.068.366-.138.43-.364.443a.8.8,0,0,1-.864-.609c-.142-.419.2-.343.438-.39.548-.109.529.427.79.556" transform="translate(3.45 4.299)" fill="#b3a48b"/>
    <path id="Path_11986" data-name="Path 11986" d="M70.932,72.157H71.2v3.756l-.265.005Z" transform="translate(7.574 4.387)" fill="#b3a48b"/>
    <path id="Path_11987" data-name="Path 11987" d="M55.335,90.149a5.6,5.6,0,0,1-2.225-.25,5.6,5.6,0,0,1,2.226-.256.338.338,0,0,1,0,.506" transform="translate(5.671 5.45)" fill="#b3a48b"/>
    <path id="Path_11988" data-name="Path 11988" d="M45.922,91.568c-1.288.56-2.625.1-3.946,0H43.8a3.865,3.865,0,0,1,2.118,0" transform="translate(4.482 5.558)" fill="#b3a48b"/>
    <path id="Path_11989" data-name="Path 11989" d="M33.186,47.271a2.884,2.884,0,0,1-.5,1.256,1.945,1.945,0,0,1-.488-1.616.685.685,0,0,1,.721.1l.271.257" transform="translate(3.437 2.848)" fill="#b3a48b"/>
    <path id="Path_11990" data-name="Path 11990" d="M65.762,49.661a1.287,1.287,0,0,1-.514,1.014c-.4-.317-.314-.812-.665-1.3.53.063.8.411,1.179.291" transform="translate(6.896 3.002)" fill="#b3a48b"/>
    <path id="Path_11991" data-name="Path 11991" d="M32.959,47.051l-.8.007c-.488.014-.416-.237-.269-.523a1.4,1.4,0,0,1,1.057-.285.764.764,0,0,0,.011.8" transform="translate(3.393 2.812)" fill="#b3a48b"/>
    <path id="Path_11992" data-name="Path 11992" d="M59.482,72.982c-.085,0-.17-.008-.256-.015q-.134-.885-.27-1.768c.826.418.439,1.165.526,1.783" transform="translate(6.295 4.329)" fill="#b3a48b"/>
    <path id="Path_11993" data-name="Path 11993" d="M33.02,70.8c.35-.438.592-.675.974-.421a.332.332,0,0,1,.1.319c-.29.545-.666-.084-1.069.1" transform="translate(3.526 4.272)" fill="#b3a48b"/>
    <path id="Path_11994" data-name="Path 11994" d="M55.12,90.149c0-.169,0-.337,0-.506l1.343.377c-.6.094-.905.559-1.344.129" transform="translate(5.885 5.45)" fill="#b3a48b"/>
    <path id="Path_11995" data-name="Path 11995" d="M70.475,70.241a1.852,1.852,0,0,1,0,2.031h0l0-1.019a.749.749,0,0,1,.008-1.013" transform="translate(7.503 4.27)" fill="#b3a48b"/>
    <path id="Path_11996" data-name="Path 11996" d="M45.745,91.576H43.626a2.057,2.057,0,0,1,2.119,0" transform="translate(4.658 5.55)" fill="#b3a48b"/>
    <path id="Path_11997" data-name="Path 11997" d="M70.508,70.241c0,.337,0,.676-.008,1.013-.529-.342-.88-.681.008-1.013" transform="translate(7.471 4.27)" fill="#b3a48b"/>
    <path id="Path_11998" data-name="Path 11998" d="M59.919,78.378l1.039-.014c-.339.548-.681.887-1.039.014" transform="translate(6.398 4.764)" fill="#b3a48b"/>
    <path id="Path_11999" data-name="Path 11999" d="M64.742,51.643c-.038.057-.092.228-.163.234-.216.017-.288-.165-.312-.335s0-.371.242-.345c.211.023.225.221.232.446" transform="translate(6.861 3.112)" fill="#b3a48b"/>
    <path id="Path_12000" data-name="Path 12000" d="M68.019,53.872c.059.4.239.763-.238,1.013-.227-.4.013-.671.238-1.013" transform="translate(7.228 3.275)" fill="#b3a48b"/>
    <path id="Path_12001" data-name="Path 12001" d="M68.614,81.478c-.074-.471-.177-.751.116-1.042.446.339.215.618-.116,1.042" transform="translate(7.318 4.89)" fill="#b3a48b"/>
    <path id="Path_12002" data-name="Path 12002" d="M54.843,90.888c-.485-.124-1.032.138-1.751-.387.784.151,1.326-.069,1.761.385l-.01,0" transform="translate(5.669 5.502)" fill="#b3a48b"/>
    <path id="Path_12003" data-name="Path 12003" d="M57.536,75.642c-.039.065-.079.234-.162.257-.216.056-.3-.115-.314-.289-.015-.154-.05-.368.182-.377.2-.007.263.181.294.408" transform="translate(6.091 4.574)" fill="#b3a48b"/>
    <path id="Path_12004" data-name="Path 12004" d="M31.536,70.6c.074.181.153.278.137.359-.028.142-.076.353-.178.4-.237.1-.272-.1-.227-.263a2.861,2.861,0,0,1,.268-.491" transform="translate(3.337 4.292)" fill="#b3a48b"/>
    <path id="Path_12005" data-name="Path 12005" d="M56.077,89.551c.373-.184.686-.182.9.2-.386.233-.594-.223-.9-.2" transform="translate(5.988 5.437)" fill="#b3a48b"/>
    <path id="Path_12006" data-name="Path 12006" d="M59.867,86.686c.094.322.118.529-.06.692a.236.236,0,0,1-.219-.016c-.156-.274.013-.454.279-.676" transform="translate(6.356 5.27)" fill="#b3a48b"/>
    <path id="Path_12007" data-name="Path 12007" d="M59.14,46.449c-.07-.133-.164-.227-.147-.3.022-.091.133-.161.206-.241.066.075.195.159.186.225-.014.094-.128.174-.245.314" transform="translate(6.299 2.791)" fill="#b3a48b"/>
    <path id="Path_12008" data-name="Path 12008" d="M66,83.9l-.784.016c-.08-.02-.189-.015-.23-.063-.115-.129-.009-.19.114-.19.32,0,.67-.083.9.237" transform="translate(6.933 5.086)" fill="#b3a48b"/>
    <path id="Path_12009" data-name="Path 12009" d="M34.543,52.438a30.906,30.906,0,0,1,.271,4.787,8.211,8.211,0,0,1-1.525,4.607c-.46.675-1.214,1.174-1.433,2.026-2.084.295-2.3.481-2.486,2.593a6.758,6.758,0,0,1-.515,2.258c-.127-.268-.253-.534-.379-.8-.31-.771-.062-1.659-.6-2.362a4.48,4.48,0,0,1-3.79-.124c-.135-.117-.443-.51-.374-.679.2-.506.693-.329,1.116-.3a12.7,12.7,0,0,1-4.109-.533l0,.008a12.562,12.562,0,0,1-4.282-4.984,16.787,16.787,0,0,1-1.851-6.23A12.781,12.781,0,0,1,15.658,46.1a8.044,8.044,0,0,1,10.781-4.142,11.244,11.244,0,0,1,4.912,3.854,3.949,3.949,0,0,0,.537.534c.748.145.67.766.8,1.27q.8,1.653,1.592,3.305c.245.483.568.952.268,1.521" transform="translate(1.549 2.506)" fill="#fff"/>
    <path id="Path_12010" data-name="Path 12010" d="M40.5,42.41c-.1.3-.138.644-.53.758a10.969,10.969,0,0,1-6.227-7.182,5.357,5.357,0,0,1-.173-1.214,1.017,1.017,0,0,1,.247.034,1.114,1.114,0,0,1,.875,1.245,12.751,12.751,0,0,0,5.782,5.1A1.665,1.665,0,0,1,40.5,42.41" transform="translate(3.585 2.114)" fill="#705225"/>
    <path id="Path_12011" data-name="Path 12011" d="M30.96,13.205c.447.582.739-.18,1.124-.14.138,1.3-.267,1.809-1.931,2.442a4.7,4.7,0,0,1,.807-2.3" transform="translate(3.22 0.794)" fill="#705225"/>
    <path id="Path_12012" data-name="Path 12012" d="M17.558,66.408a1.285,1.285,0,0,1-.025,1.9c-.007,0-.158-.245-.242-.377a1.455,1.455,0,0,1,.268-1.524" transform="translate(1.833 4.037)" fill="#ebebea"/>
    <path id="Path_12013" data-name="Path 12013" d="M15.627,75.99h.531a3.382,3.382,0,0,1,0,2.034H15.63a1.909,1.909,0,0,1,0-2.032" transform="translate(1.637 4.62)" fill="#ebebea"/>
    <path id="Path_12014" data-name="Path 12014" d="M15.655,75.99q0,1.017,0,2.032h0a.366.366,0,0,1-.529,0c.228-.664-.533-1.565.528-2.03" transform="translate(1.609 4.62)" fill="#ebebea"/>
    <path id="Path_12015" data-name="Path 12015" d="M31.893,46.518c.024.206.05.409.269.523.542.38.287,1.035.567,1.505l-.05.3c-.314-.76-1.273-1.32-.786-2.327" transform="translate(3.391 2.828)" fill="#b3a48b"/>
    <path id="Path_12016" data-name="Path 12016" d="M31.007,47.318l-.8-1.27c1.01-.036,1.146.178.8,1.27" transform="translate(3.226 2.799)" fill="#f3e6ee"/>
    <path id="Path_12017" data-name="Path 12017" d="M15.122,77.9l.528,0v1.712l-.173.035L15.122,77.9" transform="translate(1.615 4.736)" fill="#ebebea"/>
    <path id="Path_12018" data-name="Path 12018" d="M17.577,66.408q-.136.762-.268,1.524c-.289-.569-.665-1.153.268-1.524" transform="translate(1.813 4.037)" fill="#ebebea"/>
    <path id="Path_12019" data-name="Path 12019" d="M16.078,78.023q0-1.017,0-2.034a1.837,1.837,0,0,1,0,2.034" transform="translate(1.717 4.62)" fill="#ebebea"/>
    <path id="Path_12020" data-name="Path 12020" d="M32.636,51.882q-.134-.761-.268-1.521l.528.255c-.061.428.18.911-.26,1.267" transform="translate(3.456 3.062)" fill="#d6e9e6"/>
    <path id="Path_12021" data-name="Path 12021" d="M31.44,12.217c.044.465.031.9-.564,1.049a1.618,1.618,0,0,1,.564-1.049" transform="translate(3.297 0.743)" fill="#705225"/>
    <path id="Path_12022" data-name="Path 12022" d="M40.075,18.681c-.091.663.408,1.469-.607,1.907-.288.124-.183.564.072.766.684.541.563,1.261.551,1.967a.541.541,0,0,1-.323.144.952.952,0,0,1-.35-.1,6.279,6.279,0,0,0-1.663-.616c-.38-.1-.9-.088-.836-.7h0c.906-.325,1.289-1.144,1.847-1.8q.654-.788,1.309-1.573" transform="translate(3.941 1.136)" fill="#eda7b0"/>
    <path id="Path_12023" data-name="Path 12023" d="M56.163,22.162l-.848.444c.727-1.99-.143-3.968.784-5.779-.3,1.14.234,2.31-.186,3.444C55.666,20.941,56.764,21.448,56.163,22.162Z" transform="translate(5.906 1.023)" fill="#705225"/>
    <path id="Path_12024" data-name="Path 12024" d="M34.285,23.949a9.985,9.985,0,0,1,2.051-1.385,1.216,1.216,0,0,1,1.036-.112c.471,1.026-.355,1.084-1,1.127-.365.024-.465.064-.4.391-.4.574-.945.482-1.51.317a.287.287,0,0,1-.178-.337" transform="translate(3.66 1.36)" fill="#eaa0a9"/>
    <path id="Path_12025" data-name="Path 12025" d="M36.347,25.511c-.667.87-1.454.29-2.049.01a5.172,5.172,0,0,0-1.968-.548q.667-.269,1.334-.539c.882.388,1.94.372,2.683,1.078" transform="translate(3.452 1.485)" fill="#eea9b1"/>
    <path id="Path_12026" data-name="Path 12026" d="M37.266,22.621,36.137,22.6A1.928,1.928,0,0,1,37,21.857c.556.636,1.451.39,2.129.743.242.125.474.177.525.468a2.914,2.914,0,0,1-1.551.2c-.376-.1-.577-.413-.84-.648" transform="translate(3.859 1.329)" fill="#e7a7a6"/>
    <path id="Path_12027" data-name="Path 12027" d="M36.219,25.537c-.932-.274-2.027-.174-2.683-1.078q.276-.231.549-.464c.54.511,1.286.388,1.934.575a.716.716,0,0,1,.315.233.613.613,0,0,1-.115.733" transform="translate(3.581 1.459)" fill="#f6adae"/>
    <path id="Path_12028" data-name="Path 12028" d="M32.424,24.929c-.708,1.933,1.222.578,1.595,1.253-.816-.036-1.689.425-2.362-.415.457-.11.03-.963.767-.838" transform="translate(3.38 1.515)" fill="#eea9b1"/>
    <path id="Path_12029" data-name="Path 12029" d="M38.765,20.164c-.391.812-.645,1.75-1.847,1.8q.925-.9,1.847-1.8" transform="translate(3.942 1.226)" fill="#e7a7a6"/>
    <path id="Path_12030" data-name="Path 12030" d="M35.986,24.74c-.755.01-1.618.284-1.953-.733.045-.132.105-.238.278-.146l-.009.122c.443.392,1.075.176,1.558.439a.363.363,0,0,1,.126.318" transform="translate(3.634 1.449)" fill="#eea9b1"/>
    <path id="Path_12031" data-name="Path 12031" d="M51.442,22.337c0,.083,0,.167-.006.249-.338.357-.806.308-1.24.367-.207-.018-.365-.088-.361-.324.452-.522,1.069-.2,1.606-.293" transform="translate(5.321 1.357)" fill="#705225"/>
    <path id="Path_12032" data-name="Path 12032" d="M49.944,22.614a.212.212,0,0,0,.291.165c.184-.054.284.01.3.193-.61.564-1.189.644-1.719-.1.288-.093.645.018.863-.274a.4.4,0,0,1,.26.011" transform="translate(5.213 1.373)" fill="#705225"/>
    <path id="Path_12033" data-name="Path 12033" d="M20.122,62.611a8.963,8.963,0,0,1,4.54.719H23.317c.189.435.577.141.792.334,0,.327-.48.051-.517.353a6.3,6.3,0,0,0,2.43.337,2.353,2.353,0,0,0,.654-.045c.878-.352,1.038-.265,1.15.785.053.5.034,1.011.049,1.517l-.039.033c-.122.106-.194.075-.224-.074a2.983,2.983,0,0,0-.266-1.464c-.259-.376-.607-.381-1.032-.3a1.878,1.878,0,0,1-1.393-.146l-2.633-.58h0c-.641-.6-1.68-.665-2.17-1.472" transform="translate(2.149 3.804)" fill="#fbf7f5"/>
    <path id="Path_12034" data-name="Path 12034" d="M27.914,70.836q.163.629.324,1.257c-.1.76-.607,1.039-1.346,1.034a2.561,2.561,0,0,0-.154-2.531A1.556,1.556,0,0,1,26.9,68.8c1.017.327.546,1.293.893,1.906-.41.332-.1.845-.216,1.053a4.2,4.2,0,0,1,.029-.822.257.257,0,0,1,.312-.105" transform="translate(2.833 4.183)" fill="#b3a48b"/>
    <path id="Path_12035" data-name="Path 12035" d="M26.838,73.17a2.52,2.52,0,0,1-1.051,1.276c-.359-.484-.388-1.165-.946-1.52-.25-.159-.449-.33-.252-.577s.674-.284.775-.017c.269.718,1.018.516,1.475.838" transform="translate(2.617 4.386)" fill="#b3a48b"/>
    <path id="Path_12036" data-name="Path 12036" d="M27.9,70.986l-.231.007v0c-.265-.68-.135-1.5-.786-2.042-.481-.876.012-1.741.034-2.612a1.528,1.528,0,0,1,.224.074l.76,4.57" transform="translate(2.848 4.033)" fill="#b3a48b"/>
    <path id="Path_12037" data-name="Path 12037" d="M21.687,78.394a24.257,24.257,0,0,0-.3,5.073c-.3-.216-.554-.565-.475-.855a27.232,27.232,0,0,0,.282-3.5.929.929,0,0,1,.488-.716" transform="translate(2.232 4.766)" fill="#b3a48b"/>
    <path id="Path_12038" data-name="Path 12038" d="M24,77.21c-.7.582-1.935.259-2.387,1.274C21.354,76.25,23,77.295,24,77.21" transform="translate(2.304 4.684)" fill="#b3a48b"/>
    <path id="Path_12039" data-name="Path 12039" d="M24.461,64.55c.794.219,1.791-.583,2.424.443-.414-.252-.821-.066-1.246-.024s-1,.261-1.178-.419" transform="translate(2.612 3.919)" fill="#b3a48b"/>
    <path id="Path_12040" data-name="Path 12040" d="M18.031,76.105c-.7-.679-.243-1.355.006-2.03a3.441,3.441,0,0,1-.006,2.03" transform="translate(1.885 4.504)" fill="#b3a48b"/>
    <path id="Path_12041" data-name="Path 12041" d="M26.391,65.584l-1.681-.193.01-.094h1.668l0,.287" transform="translate(2.638 3.97)" fill="#b3a48b"/>
    <path id="Path_12042" data-name="Path 12042" d="M20.182,66.524a1.839,1.839,0,0,1,0-2.032,3.378,3.378,0,0,1,0,2.032" transform="translate(2.122 3.921)" fill="#b3a48b"/>
    <path id="Path_12043" data-name="Path 12043" d="M20.152,66.524q0-1.017,0-2.032a1.833,1.833,0,0,1,0,2.032" transform="translate(2.152 3.921)" fill="#b3a48b"/>
    <path id="Path_12044" data-name="Path 12044" d="M18,76.105q0-1.015.006-2.03A1.838,1.838,0,0,1,18,76.105" transform="translate(1.921 4.504)" fill="#b3a48b"/>
    <path id="Path_12045" data-name="Path 12045" d="M22.169,64c-.066.489-.364.6-.91.434L22.171,64h0" transform="translate(2.27 3.891)" fill="#b3a48b"/>
    <path id="Path_12046" data-name="Path 12046" d="M19.993,64.312a1.413,1.413,0,0,1-.18-.361.227.227,0,0,1,.281-.278.327.327,0,0,1,.211.244c0,.088-.131.176-.312.395" transform="translate(2.115 3.871)" fill="#b3a48b"/>
    <path id="Path_12047" data-name="Path 12047" d="M23.489,85.871c.226.03.4.094.373.3-.008.058-.207.129-.318.128-.145,0-.408.051-.319-.232.029-.09.187-.143.263-.2" transform="translate(2.478 5.221)" fill="#b3a48b"/>
    <path id="Path_12048" data-name="Path 12048" d="M46.066,42.915c-1.52-.021-3.064.168-4.508-.491-.424-.333-1.568-.394-.527-1.28,3.131,1.312,5.793,1.117,8.7-1.59.241-.225.41-.766.919-.46.27.162.632.416.189.787-.2.383-.225.894-.8,1h0a2.258,2.258,0,0,0-.806.763c-.085,0-.17,0-.256.007-.251.188-.591.246-.794.5-.589.561-1.411.52-2.125.76Z" transform="translate(4.336 2.371)" fill="#f0878d"/>
    <path id="Path_12049" data-name="Path 12049" d="M50.549,26.262c.106,1.075-.625.5-1.064.494-.8.137-1.624.124-2.427.26-.455-.144-.795.82-1.2.2-.294-.443.064-.918.418-1.343,1.117-1.344,1.174-1.375,3.481-.636.242.355.562.658.795,1.02" transform="translate(4.885 1.505)" fill="#dc7474"/>
    <path id="Path_12050" data-name="Path 12050" d="M54.3,30.363v.492c-.093.084-.184.168-.274.252-1.008.317-1.134-.879-1.839-.979a7.536,7.536,0,0,1,1.531,1.525.784.784,0,0,1,.081.946c-.2.264-.533.221-.818.037-.727-.827-1.469-1.644-2.176-2.488-.4-.476-.693-1.027-.168-1.581.488-.514.981-.016,1.429.121.942.29,1.355,1.276,2.236,1.673" transform="translate(5.377 1.723)" fill="#ef8b90"/>
    <path id="Path_12051" data-name="Path 12051" d="M41.706,31.5a3.768,3.768,0,0,1,.476-2.16c.175-.344.321-.611.754-.49.465.132.372.523.332.841-.068.54-.512.97-.5,1.548.014.7-.573,1.651.852,1.738.114.006.293.329.292.5,0,.3-.3.353-.566.4-1,.172-1.6-.269-1.638-1.223-.013-.335,0-.671,0-1.156" transform="translate(4.451 1.752)" fill="#f0888d"/>
    <path id="Path_12052" data-name="Path 12052" d="M38.522,28.232c-.556.229-1.148.53-1.644-.037a2,2,0,0,1-.138-2.409,1.076,1.076,0,0,1,1.706.1,1.516,1.516,0,0,1,.076,2.351" transform="translate(3.887 1.545)" fill="#705225"/>
    <path id="Path_12053" data-name="Path 12053" d="M44.306,35.513c.293.062.807.156,1.314.279.447.108.706.38.519.833-.17.417-.5.368-.87.2a2.18,2.18,0,0,0-2.842.414.475.475,0,0,1-.69.129c-.322-.241-.209-.521-.024-.779a2.75,2.75,0,0,1,2.593-1.077" transform="translate(4.435 2.159)" fill="#f0878b"/>
    <path id="Path_12054" data-name="Path 12054" d="M49.144,22.883c.551.189,1.1.449,1.637-.037.438-.1.8-.068.827.479a5.858,5.858,0,0,1-5.072.277c-.345-.13-.866-.241-.716-.739.133-.444.635-.38,1.018-.37.787.018,1.492.5,2.307.39" transform="translate(4.89 1.367)" fill="#705225"/>
    <path id="Path_12055" data-name="Path 12055" d="M35.96,25.595c0-.264,0-.528,0-.792.278-.282.677-.292,1.023-.422a9.442,9.442,0,0,0,2.968-1.329l.245,0a9.571,9.571,0,0,1-1.317,2.793c-.708-.08-1.408-.217-2.122-.252H35.96" transform="translate(3.839 1.401)" fill="#eea9b1"/>
    <path id="Path_12056" data-name="Path 12056" d="M49.392,27.549c.1.5,1.167.053.92.747-.172.482-.81.585-1.356.583-.989,0-2.039.182-2.771-.778.156-.422.775-.108.919-.52a12.313,12.313,0,0,1,2.289-.033" transform="translate(4.931 1.673)" fill="#dc7474"/>
    <path id="Path_12057" data-name="Path 12057" d="M53.832,35.5a1.684,1.684,0,0,1-.954.925,3.449,3.449,0,0,0-2.239,2.69c-1.376-.727-.3-1.417.113-1.992.588-.813,1.715-1.144,2.215-2.077.287.155.786-.064.865.454" transform="translate(5.334 2.13)" fill="#e4878c"/>
    <path id="Path_12058" data-name="Path 12058" d="M53.542,35.634c-.122-.442-.9.262-.865-.454a6.456,6.456,0,0,0,.888-2.231c.107-.243.3-.192.5-.136.148.25.308.494.442.751.616,1.176.428,1.576-.962,2.07" transform="translate(5.624 1.992)" fill="#705225"/>
    <path id="Path_12059" data-name="Path 12059" d="M51.078,41.232l.579.79h0c.045.831.781,1.322,1.085,2.025-.362.335-.729.214-1.1.014a3.959,3.959,0,0,1-1.285-2.605c.21-.164.417-.335.721-.225" transform="translate(5.377 2.505)" fill="#eddfe0"/>
    <path id="Path_12060" data-name="Path 12060" d="M36.679,25.461c.73-.1,1.492-.436,2.119.252.268.39.232.938.94,1.087.548.116.539.866.035.833-.678-.046-.726.711-1.279.607.524-1.8-.037-2.567-1.783-2.446l-.032-.333" transform="translate(3.916 1.538)" fill="#eeacb4"/>
    <path id="Path_12061" data-name="Path 12061" d="M54.21,33.017l-.5.136-.827-.581c.939,0,.958-.379.426-.973a13.029,13.029,0,0,1-2.028-2.175c1.247.189,1.753,1.19,2.647,1.618.312.63-.309,1.381.279,1.975" transform="translate(5.476 1.789)" fill="#eca2a4"/>
    <path id="Path_12062" data-name="Path 12062" d="M34.677,36.1,33.8,34.853q-.028-.422-.059-.845c.015.819,3.309.291.935,2.091" transform="translate(3.603 2.068)" fill="#efa9b3"/>
    <path id="Path_12063" data-name="Path 12063" d="M49.313,27.618a2.344,2.344,0,0,1-2.289.032c-.031-.244-.061-.488-.092-.732a2.084,2.084,0,0,1,2.427-.26l-.046.96" transform="translate(5.011 1.604)" fill="#705225"/>
    <path id="Path_12064" data-name="Path 12064" d="M51.518,43.9l1.1-.014,1.289.778,0,0q-.13.248-.257.5l0,0a1.057,1.057,0,0,1-1.048-.258c-.331-.365-.88-.516-1.082-1.007" transform="translate(5.501 2.668)" fill="#f2dfe2"/>
    <path id="Path_12065" data-name="Path 12065" d="M50.131,42.621c.521.127.226.7.473.993.115.139.111.5-.175.482a1.066,1.066,0,0,1-.962-.877c-.075-.342.3-.456.664-.6" transform="translate(5.281 2.591)" fill="#f6adae"/>
    <path id="Path_12066" data-name="Path 12066" d="M51.082,41.358a1.006,1.006,0,0,1-.721.225c.163-.815-.34-1.687.232-2.466l.286.232c.245.232.153.491.062.749q.07.63.141,1.26" transform="translate(5.372 2.378)" fill="#705225"/>
    <path id="Path_12067" data-name="Path 12067" d="M52.571,44.847a1.769,1.769,0,0,1,1.048.258l-.246.534a.455.455,0,0,0-.66-.163c-.2.11-.092.725-.584.339a.623.623,0,0,1-.311-.644c.1-.392.466-.29.753-.324" transform="translate(5.531 2.726)" fill="#f6adae"/>
    <path id="Path_12068" data-name="Path 12068" d="M51.149,23.32l-.827-.478a.543.543,0,0,1-.224-.06c.388-.351.871-.153,1.309-.209.39-.014.861-.007,1.036.311.159.293-.48.182-.517.5l-.778-.059" transform="translate(5.349 1.372)" fill="#705225"/>
    <path id="Path_12069" data-name="Path 12069" d="M49.132,40.834l.8-1c.04.539.53,1.058.085,1.637-.46-.015-.486-.566-.883-.633" transform="translate(5.246 2.422)" fill="#f6adae"/>
    <path id="Path_12070" data-name="Path 12070" d="M45.538,42.737a6.98,6.98,0,0,1,2.124-.76c-.216,1.517-1.387.58-2.124.76" transform="translate(4.862 2.552)" fill="#f6adae"/>
    <path id="Path_12071" data-name="Path 12071" d="M41.068,41.031c-.556.7.21.907.527,1.281-.677.112-.951-.409-1.325-.774-.044-.618.164-.871.8-.507" transform="translate(4.299 2.484)" fill="#e78b8c"/>
    <path id="Path_12072" data-name="Path 12072" d="M53.229,46.051a2.073,2.073,0,0,1-.732,1.284c.012-.549.027-1.1.732-1.284" transform="translate(5.605 2.8)" fill="#f6adae"/>
    <path id="Path_12073" data-name="Path 12073" d="M50.163,26.235a1.261,1.261,0,0,1-.795-1.022,1.159,1.159,0,0,1,.795,1.022" transform="translate(5.271 1.533)" fill="#dc7474"/>
    <path id="Path_12074" data-name="Path 12074" d="M39.836,42.044q-.013-.63-.025-1.261l.514.757-.488.5" transform="translate(4.251 2.479)" fill="#e78b8c"/>
    <path id="Path_12075" data-name="Path 12075" d="M48.406,41.539a.756.756,0,0,1,.8-.763,1.554,1.554,0,0,1-.8.763" transform="translate(5.169 2.479)" fill="#f6adae"/>
    <path id="Path_12076" data-name="Path 12076" d="M47.458,42.006c.028-.51.41-.508.794-.5a.8.8,0,0,1-.794.5" transform="translate(5.067 2.523)" fill="#f6adae"/>
    <path id="Path_12077" data-name="Path 12077" d="M51.531,42.086c.572-1.1,1.844-1.284,2.768-1.922.081-.056.329.042.453.128.149.1.152.264.042.436a7.526,7.526,0,0,1-3.263,1.359h0" transform="translate(5.502 2.441)" fill="#f08e91"/>
    <path id="Path_12078" data-name="Path 12078" d="M50.888,40.17c-.022-.249-.042-.5-.063-.749.809-.43,1.616-.861,2.425-1.287.272-.142.6-.332.8.039.172.321-.207.386-.4.536a14.727,14.727,0,0,1-2.76,1.461" transform="translate(5.427 2.308)" fill="#ec8c92"/>
    <path id="Path_12079" data-name="Path 12079" d="M54.008,43.724c-.163-.314-.721-.188-.767-.617-.031-.3-.015-.73.436-.486a.978.978,0,0,0,1.177-.011c.322-.209.458.091.453.372a1.371,1.371,0,0,1-.495,1,.871.871,0,0,1-.8-.258" transform="translate(5.684 2.586)" fill="#f08d93"/>
    <path id="Path_12080" data-name="Path 12080" d="M53.676,44.657a.554.554,0,0,1,.263-.516.583.583,0,0,1,.794,0c-.189.475-.6.529-1.055.518l0,0" transform="translate(5.731 2.674)" fill="#ef8790"/>
    <path id="Path_12081" data-name="Path 12081" d="M54.708,44.162h-.794l.02-.506c.3,0,.609-.037.8.258-.007.084-.017.165-.03.248" transform="translate(5.757 2.654)" fill="#ea8a85"/>
    <path id="Path_12082" data-name="Path 12082" d="M28.361,74.456c1.375-.441,2.747-.89,4.129-1.311a.514.514,0,0,1,.424.187c.116.165-.04.363-.188.409a18.575,18.575,0,0,1-4.207,1.176c-.053-.154-.105-.308-.158-.461" transform="translate(3.028 4.447)" fill="#ef8e92"/>
    <path id="Path_12083" data-name="Path 12083" d="M29.276,76.839c-.19-.136-.348-.435-.193-.517.946-.494,1.418-1.635,2.643-1.747.616-.056.754.247.733.736-.806,1-2.144.977-3.183,1.528" transform="translate(3.099 4.534)" fill="#f4aab1"/>
    <path id="Path_12084" data-name="Path 12084" d="M29.251,76.8c.817-.977,2.148-.967,3.183-1.528.319.181.86-.39.978.138.1.436-.47.554-.836.6-1.143.143-2.076,1.081-3.326.79" transform="translate(3.123 4.571)" fill="#ee8d8e"/>
    <path id="Path_12085" data-name="Path 12085" d="M25.378,77.884H23.81c.429-.07.792-.649,1.568,0" transform="translate(2.542 4.717)" fill="#f4aab7"/>
    <path id="Path_12086" data-name="Path 12086" d="M28.314,73.192c0,.171-.02.347-.251.349a.308.308,0,0,1-.339-.293c0-.089.126-.214.227-.262.195-.091.32.008.363.206" transform="translate(2.96 4.435)" fill="#f5adb8"/>
    <path id="Path_12087" data-name="Path 12087" d="M28.331,64.047c.763.085,1.314-.618,2.082-.511-1.075.764-.573,2.158-1.329,3.049a5.566,5.566,0,0,1-.753-2.537" transform="translate(3.024 3.862)" fill="#b3a48b"/>
    <path id="Path_12088" data-name="Path 12088" d="M56.321,66.408c.35.29.317.634.157,1.051-.286-.353-.1-.719-.158-1.051Z" transform="translate(6.013 4.037)" fill="#b3a48b"/>
    <path id="Path_12089" data-name="Path 12089" d="M38.327,40.4l.943,1.046c-.184.1-.5.312-.532.278a5.913,5.913,0,0,1-.807-1.043c-.086-.146.1-.284.4-.281" transform="translate(4.048 2.456)" fill="#705225"/>
    <path id="Path_12090" data-name="Path 12090" d="M40.129,23.065a3.443,3.443,0,0,1-2.875,1.549,2.382,2.382,0,0,1-1.45.011c-.571-.045-1.222.105-1.528-.58.52-.159,1.127.261,1.6-.217a8.938,8.938,0,0,1,2.377-.807c.533-.09,1.066-.4,1.6-.011l.274.056" transform="translate(3.66 1.387)" fill="#705225"/>
    <path id="Path_12091" data-name="Path 12091" d="M38.125,23.033a5.634,5.634,0,0,1-2.376.808c.029-.168-.694-.419.035-.493.642-.066,1.336.047,1.554-.772a.818.818,0,0,1,.787.457" transform="translate(3.786 1.373)" fill="#e5adb5"/>
    <path id="Path_12092" data-name="Path 12092" d="M35.656,24.522l1.449-.011-1.115.2-.085-.047-.093.032a.931.931,0,0,0-.156-.177" transform="translate(3.807 1.49)" fill="#705225"/>
    <path id="Path_12093" data-name="Path 12093" d="M27.6,70.728v1.224c-.277-.419-.4-.833,0-1.223h0" transform="translate(2.919 4.3)" fill="#b3a48b"/>
    <path id="Path_12094" data-name="Path 12094" d="M46.337,22.879c.539-.047.891-.193,1.146.226-.414.377-.692.082-1.146-.226" transform="translate(4.948 1.387)" fill="#705225"/>
    <path id="Path_12095" data-name="Path 12095" d="M54.194,33.923c.058.589.029,1.107-.426,1.041-.5-.075-.4-.385.074-.544.118-.039.177-.24.352-.5" transform="translate(5.706 2.062)" fill="#705225"/>
    <path id="Path_12096" data-name="Path 12096" d="M47.328,27.147c.486-.233.915-.722,1.5-.285a.334.334,0,0,1,.033.544c-.56.484-1.028.015-1.531-.259" transform="translate(5.053 1.622)" fill="rgba(112,82,37,0.69)"/>
  </g>
</svg>
