<svg xmlns="http://www.w3.org/2000/svg" xmlns:xlink="http://www.w3.org/1999/xlink" width="122.659" height="122.736" viewBox="0 0 122.659 122.736">
  <defs>
    <clipPath id="clip-path">
      <rect id="Rectangle_1899" data-name="Rectangle 1899" width="122.659" height="122.736" transform="translate(0 0)" fill="none"/>
    </clipPath>
  </defs>
  <g id="Group_1300" data-name="Group 1300" transform="translate(-49 -174)">
    <g id="Group_1128" data-name="Group 1128" transform="translate(49 174)">
      <g id="Group_1127" data-name="Group 1127" clip-path="url(#clip-path)">
        <path id="Path_16324" data-name="Path 16324" d="M5.332,93.108c-.447.613-1.195.844-1.183,1.989.01,1.1-1.45.556-2.223.607-.911.06-1-.922-.9-1.513a13.892,13.892,0,0,0,.1-3.443c-.059-.816,1.13-1.592,1.881-1.823,1.214-.375,2.246.277,3.372.321.574.022,1.133.8,1.672,1.263.343.3.658.574,1.2.332-.065-.125-.1-.284-.16-.3-.565-.1-1.056-.28-.873-.991a.8.8,0,0,1,1.181-.471c1.1.475,2.214-.477,3.5.319-.3-.727.156-1.564-.982-1.451-.266.026-.212-.275-.312-.421-.357-.517-.758-.983-1.07.049-.107.352-.36.562-.723.446a1.384,1.384,0,0,1-.82-.972.436.436,0,0,1,.391-.61c.752-.111.663-.813.946-1.252a.78.78,0,0,1,.778.192c2.711,2.232,5.859,2.686,9.22,2.295a.606.606,0,0,1,.233.047,4.378,4.378,0,0,0,3.3,2.4c.9.139,1.291,1.212,1.741,2.006a.769.769,0,0,1,.057.23c.054,1.939.054,1.939,1.87,2.264a21.7,21.7,0,0,1,3.313,3.2c.688.753,1.792,1.069,2.176,2.119.008.623.48.487.854.516,1.32.653,1.4.856,1.04,2.343-1.373,5.7,1.785,10.655,7.01,11.893a9.621,9.621,0,0,0,6.113-.478,2.733,2.733,0,0,1,1.126-.372c1.015.555.968-.331,1.175-.873a15.507,15.507,0,0,0,2.687-3.612c.4-.816,1.252-.795,2.008-.658a11.655,11.655,0,0,0,2.493.168c1.158,0,2.314,0,3.47,0,.192,0,.386,0,.577.005a2.441,2.441,0,0,1,1.9.778,2.331,2.331,0,0,0,3.666-.5,2.35,2.35,0,0,1,3.5-.74,1.305,1.305,0,0,0,2.134-.559,3.83,3.83,0,0,1,.352-.878c1.843-.942,3.852-1.5,5.682-2.477,1.089-.582,2.174-1.167,3.232-1.8a1.14,1.14,0,0,1,1.435-.047,9.6,9.6,0,0,0,7.543,1.862c.241-.028.478-.049.64.189.158.773,1.124,1.73-.479,2.1-.138-.1-.234-.3-.474-.2.129.152.367.021.472.2,1,.518,1.811-.432,2.8-.383a6.353,6.353,0,0,1,2.091.158c.814.308,1.611-.377,2.5-.134,1.29.354,2.6-.091,3.9-.111.8-.013,1.211.209.532,1.05-.32.4-.843,1.11.418.911.487-.077.616.352.677.685a6.274,6.274,0,0,1-.368,2.69c-.027.107-.122.261-.208.278-1.864.365-3.611,1.412-5.6,1.046a3.659,3.659,0,0,0-2.394.16c-.591.3-1.085-.143-1.632-.112-1.748.1-3.492-.027-5.254.161-1.63.173-3.271-.478-4.954-.5a8.564,8.564,0,0,0-2.471.022c-.7.189-1.294.127-1.323-.833-.006-.219-.11-.58-.253-.628-1.569-.529-1.2-2.15-1.806-3.213-.314-.554-.661-1.056-1.2-.924-.557.136-1.615-.218-1.543.99a.406.406,0,0,1-.063.227c-.623.949-1.847,1.113-2.519,2.2-.526.852-2.012.921-3.2.615-.589-.152-1.4.246-1.665-.685-.374.23-.983-.181-1.212.478a.945.945,0,0,1-1.3.68,1.733,1.733,0,0,0-.813.1c-.57.14-1.438,1.564-1.509-.367,0-.049-.13-.146-.17-.133-1.2.394-2.332-.846-3.587-.111-.617.362-1.393.559-1.756-.465a.455.455,0,0,0-.613-.235c-1.345.592-2.768.854-3.82,2.223-.62.806-.542,2.576-2.286,2.4-.223-.023-.408.268-.377.533a1.513,1.513,0,0,0,.638.974c.221.175.419-.043.578-.251a1.056,1.056,0,0,1,1.562-.3,2.334,2.334,0,0,0,1.171.162c.493.035,1.013-.543,1.46-.025a2.435,2.435,0,0,1,.448,1.923,20,20,0,0,0-.123,3.22c0,.826-.33,1.038-1.13,1.151-2.347.33-4.674-.108-7.011-.052a14.246,14.246,0,0,0-2.244.276c-1.628.3-3.184-.264-4.778-.353-.431-.024-.751-.287-1.085.2-.093.136-.44.1-.672.138-1.031.155-1.994-.4-3.115-.067a12.535,12.535,0,0,1-3.459.066c-.275,0-.608.065-.768-.214-.224-.391.2-.429.393-.587.162-.135.337-.313.178-.487a.757.757,0,0,0-.548-.105c-1.419.134-2.052-.718-1.644-2.1.241-.817-.321-1.7.163-2.561.179-.321.185-.642.656-.662,1.1-.049,2.191-.118,3.283-.214.663-.058.578.8,1.242.9.416.067.81.189,1.025-.1a1.239,1.239,0,0,1,1.741-.476,1.194,1.194,0,0,0,1.126-.236c.482-.29.9-.516,1.412-.1.16.132.383.248.5.007.131-.273-.05-.428-.335-.487a13.026,13.026,0,0,0-2.969-.253c-1.064.028-2.031-.1-2.156-1.481-.048-.527-.5-.434-.84-.428-.832.014-1.143-.284-.965-1.175.293-1.469-.366-2.921-.193-4.409.034-.294-.338-.426-.635-.411a.8.8,0,0,1-.9-.767c-.073-.459-.167-.934.383-1.262.77-.461.827-1.39,1.038-2.108.2-.689-.043-1.562-1.2-1.4-.534.077-.816-.3-1.2-.621-.876-.73-1.23-2.157-1.9-2.517-1.1-.59-1.43-1.639-2.273-2.268a1.922,1.922,0,0,0-1.659-.376.864.864,0,0,1-.943-.378c-.344-.445.1-.592.292-.87a1.425,1.425,0,0,0,.041-1.672c-.334-.392-.532-1.055-1.455-.947-2.006.235-2.718-.321-3.066-1.955a1.085,1.085,0,0,0-.841,1.613c.161.449.382.895-.34,1.143-.539.185-.214.481.049.666.872.609.448,1.4.184,2.043-.272.657-.915.677-1.518.3-.328-.207-.614.063-.922.079-.465.026-.9,0-1.019-.578-.057-.271-.051-.595-.461-.556-.271.026-.377.236-.493.46a1.51,1.51,0,0,1-2.4.255c-.349-.354-.7-1.14-1.094-.03-.024.066-.1.16-.155.159-1.883-.013-3.707,1.018-5.638.288a.794.794,0,0,1-.55-1.031A7.459,7.459,0,0,1,5.565,93.5a1.3,1.3,0,0,1,.9-.155c.54-.006.756-.308.715-.822-.1.4-.305.747-.757.7-.6-.066-.65-.593-.744-1.1-.209.313-.044.735-.35.979" fill="#fefefe"/>
        <path id="Path_16325" data-name="Path 16325" d="M18.642,53.483c.47-1.269.89-2.561,1.433-3.8.274-.626.095-.887-.393-1.254a8.832,8.832,0,0,1-3.671-9.346,8.836,8.836,0,0,1,7.235-7.262,8.578,8.578,0,0,1,7.26,1.559c.761.575,1.161.42,1.8-.107a42.387,42.387,0,0,1,27.828-9.859c2.028,0,4.056.232,6.084.357-.091.769-.809.463-1.207.708-2.187-.172-4.38-.163-6.571-.125a40.917,40.917,0,0,0-25.257,9.272c-.786.623-.791,1.141-.207,1.879a8.659,8.659,0,0,1,1.646,4.061,11.522,11.522,0,0,1-.642,5.025,10.124,10.124,0,0,1-5.376,5.3,9.987,9.987,0,0,1-6.689.079.884.884,0,0,0-1.3.613,12.776,12.776,0,0,0-1,3.525c-.582.195-.879-.057-.977-.621" fill="#365997"/>
        <path id="Path_16326" data-name="Path 16326" d="M82.533,30.034A38.188,38.188,0,0,1,94.56,41.321c1.208,1.75,2.185,2.485,4.527,2.192a10.954,10.954,0,0,1,11.98,7.964,11.3,11.3,0,0,1-5.714,13.368.42.42,0,0,1-.329-.4c.331-.7,1.054-.952,1.6-1.408,3.478-2.921,4.911-6.616,3.717-11.016a10.016,10.016,0,0,0-8.236-7.638A10.546,10.546,0,0,0,89.659,56.41a10.181,10.181,0,0,0,6.774,8.2c.538.2,1.215.189,1.515.836a.747.747,0,0,1-.546.47,3.79,3.79,0,0,1-1.795-.429A11.593,11.593,0,0,1,90.1,48.71a12.987,12.987,0,0,1,4.162-4.067c1.136-.658,1.166-.757.428-1.813a43.023,43.023,0,0,0-10.2-10.542c-.8-.568-1.766-.956-2.27-1.888.006-.2.144-.3.311-.366" fill="#365997"/>
        <path id="Path_16327" data-name="Path 16327" d="M97.413,65.746l.546-.254a1.839,1.839,0,0,1,1.367-.3,11.007,11.007,0,0,0,4.818-.673.883.883,0,0,1,.914.033l.295.293c.614,2.735.161,3.667-2.4,4.708-.457.186-.455.47-.492.822a23.352,23.352,0,0,1-.293,2.486,2.293,2.293,0,0,0,.785,2.747,1.958,1.958,0,0,1-.958,3.28,1.746,1.746,0,0,0-1.73,1.513c-.357.027-.4-.248-.468-.492a3.535,3.535,0,0,0-.418-1.706,2.323,2.323,0,0,1,.922-3.373,1.732,1.732,0,0,0,.946-1.4,8.566,8.566,0,0,1,.2-1.3c.357-1.326.27-2.434-1.2-3.034a1.036,1.036,0,0,1-.49-.512c-.545-1.145-1.05-2.317-2.346-2.84" fill="#365997"/>
        <path id="Path_16328" data-name="Path 16328" d="M100.021,79.877c.082.175.164.349.247.524a38.05,38.05,0,0,1-3.808,8.227c-.245.421-.467.726-.036,1.245a9.282,9.282,0,0,1-4.549,14.732c-.075.024-.147.062-.22.093a9.466,9.466,0,0,1-8.224-1.74c-.546-.443-.894-.232-1.359.053a39.478,39.478,0,0,1-8.861,4.081c-.319-.065-.625-.141-.51-.585a56.414,56.414,0,0,0,8.037-3.689c1.132-.7,1.155-.689.457-1.8a10.131,10.131,0,0,1-1.613-5.8,12.206,12.206,0,0,1,.8-3.293,9.509,9.509,0,0,1,8.6-5.831,8.971,8.971,0,0,1,5.608,1.689c.839.625,1.217.3,1.658-.448A39.927,39.927,0,0,0,99.3,80.871c.143-.386.166-.892.72-.994" fill="#365997"/>
        <path id="Path_16329" data-name="Path 16329" d="M20.587,87.927a11.72,11.72,0,0,1-10.264-2.735C6.908,81.464,5.865,77.24,7.9,72.515a10.469,10.469,0,0,1,7.8-6.257c.852-.186,1.078-.493,1.076-1.321a16.863,16.863,0,0,1,.475-4.728,1.007,1.007,0,0,1,.477.619c.324,1.194-.168,2.358-.139,3.549.021.872.246,1.282,1.2,1.333a10.741,10.741,0,0,1,5.267,1.711,11.246,11.246,0,0,1,5.285,10.358,9.887,9.887,0,0,1-1.235,4.458,10.031,10.031,0,0,1-2,2.784c-.451.417-.372,1.027-.736,1.443-.638-.1-.721-.593-.779-1.1a2.48,2.48,0,0,1,.793-1.171c4.586-5.18,3.6-12.35-2.306-15.968a9.508,9.508,0,0,0-9.844-.206,9.807,9.807,0,0,0-5.48,8.447,10.21,10.21,0,0,0,8.144,10.651,13.959,13.959,0,0,0,3.582.123c.423-.023.873-.237,1.234.177a.432.432,0,0,1-.137.513" fill="#365997"/>
        <path id="Path_16330" data-name="Path 16330" d="M17.518,60.733c-.214-.111-.227-.323-.265-.524a.869.869,0,0,0-.538-.7c-1.679-.986-2.269-2.347-1.766-3.948.458-1.457,1.741-2.179,3.693-2.076.321.247.562.661,1.071.517a2.72,2.72,0,0,1,1.607,3.46,3.058,3.058,0,0,1-1.934,2.264,9.212,9.212,0,0,0-1.868,1.009" fill="#365997"/>
        <path id="Path_16331" data-name="Path 16331" d="M82.533,30.034l-.3.267c-1.089,1.58-2.524,2.156-4.068,1.635a3.357,3.357,0,0,1-2.305-3.608c.1-.989-.86-1.055-1.066-1.7.083-.357.3-.361.57-.213a2.032,2.032,0,0,0,2.23-.224,3.019,3.019,0,0,1,4.7,2.515c.015.449-.233.962.244,1.332" fill="#365997"/>
        <path id="Path_16332" data-name="Path 16332" d="M65.024,24.2c.317-.367.921.057,1.194-.432a1.991,1.991,0,0,1,2.107-1.551A1.9,1.9,0,0,1,70.341,23.7,2.787,2.787,0,0,1,70.07,26c-1.4,1.365-2.964,1.219-3.932-.43A9.234,9.234,0,0,0,65.024,24.2" fill="#365997"/>
        <path id="Path_16343" data-name="Path 16343" d="M69.828,25.959a4.671,4.671,0,0,0,.513-2.255,1.666,1.666,0,0,0,1.491,1.459,13.8,13.8,0,0,1,3.53,1.248l-.5.234c-.565.4-1.07,0-1.574-.151a6.241,6.241,0,0,0-3.458-.535" fill="#365997"/>
        <path id="Path_16357" data-name="Path 16357" d="M49.419,113.953a10.572,10.572,0,0,1-7.756,1.034,9.822,9.822,0,0,1-7.07-12.136c.319-1.236.1-1.861-1-2.294a.781.781,0,0,1-.69-.544,43.874,43.874,0,0,1-5.316-5.207.409.409,0,0,1,.362-.326,2.608,2.608,0,0,1,1.313.995,49.059,49.059,0,0,0,5.866,5.157,9.932,9.932,0,0,1,5.585-4.9,8.981,8.981,0,0,1,5.025-.53,3.3,3.3,0,0,1,.746.105,10.537,10.537,0,0,1,7.09,5.862,9.378,9.378,0,0,1,.829,5.81c-.175.863.135,1.093.94,1.211a36.489,36.489,0,0,0,4.648.188,3.049,3.049,0,0,1,1.631.24.385.385,0,0,1,.045.554l-.49.012a15.082,15.082,0,0,0-3.821-.018,17.022,17.022,0,0,1-3.083-.218c-.435-.024-.769,0-.955.472a11.635,11.635,0,0,1-2.912,3.867,1.123,1.123,0,0,1-.988.667" fill="#365997"/>
        <path id="Path_16358" data-name="Path 16358" d="M61.668,109.172c0-.136,0-.271-.005-.407a5.841,5.841,0,0,0,.534-1.444,2.744,2.744,0,0,1,2.366-2.224,2.922,2.922,0,0,1,3.134,1.482c.7,1.183,1.217,1.213,2.092.1a2.291,2.291,0,0,1,1.641-1.07c.637-.042,1.206.092,1.3.884l.481.6a1.785,1.785,0,0,1-1.079,1.931,1.675,1.675,0,0,1-1.992-.626c-.452-.48-2.193-.048-2.564.58-1.22,2.064-3.073,2.343-4.633.614-.413-.458-.843-.315-1.275-.419" fill="#365997"/>
        <path id="Path_16359" data-name="Path 16359" d="M24.651,85.413c.41.213.257.886.806.986.883.417.775,1.187.6,1.9a9.638,9.638,0,0,0-.23,3.6c-.067.179-.165.312-.387.258a11.026,11.026,0,0,1-.808-1.007,1.684,1.684,0,0,0-1.593-.939c-1.256.006-2.055-.847-2.455-2.29l.051-.539a.661.661,0,0,1,.469-.5,12.736,12.736,0,0,0,2.871-1.433.584.584,0,0,1,.673-.044" fill="#365997"/>
        <path id="Path_16361" data-name="Path 16361" d="M25.443,92.163l.253-.286a1.807,1.807,0,0,1,2.342.545,1.546,1.546,0,0,1-.155,2.064l-.3.32c-2.08.122-2.27-.112-2.145-2.643" fill="#365997"/>
        <path id="Path_16365" data-name="Path 16365" d="M80.423,105.909a1.508,1.508,0,0,1,1.427-.551,9.15,9.15,0,0,0,2.374-.174c.49-.15,1.222-.014,1.313.476.117.624-.682.633-1.057.619a13.179,13.179,0,0,1-4.057-.37" fill="#fefefe"/>
        <path id="Path_16385" data-name="Path 16385" d="M16.327,91.264l-.437.446c-.582-.341-.019-1.1-.532-1.465h0c-.1-.581-.163-1.12.726-1,.2.027.494-.284.621.018.232.548-.346.216-.467.375-.215.282-.677.625.044.86.7.228.123.508.046.769" fill="#fefefe"/>
        <path id="Path_16387" data-name="Path 16387" d="M51.316,120.681a12.149,12.149,0,0,0,2.558.3,1.74,1.74,0,0,1-2.558-.307v.008" fill="#fefefe"/>
        <path id="Path_16388" data-name="Path 16388" d="M35.74,118.8q0,.722,0,1.442c-.683.4-.711-.077-.74-.553a1.293,1.293,0,0,1,.242-.9l.5.008" fill="#fefefe"/>
        <path id="Path_16389" data-name="Path 16389" d="M44.177,117.125l-.549.694c-.252-.549-.367-1,.081-1.409.132-.121.341-.276.52-.115.325.291-.021.567-.069.85l.017-.02" fill="#fefefe"/>
        <path id="Path_16390" data-name="Path 16390" d="M57.356,109.166a7.361,7.361,0,0,1,3.822.018l-3.822-.018" fill="#1872eb"/>
        <path id="Path_16391" data-name="Path 16391" d="M49.419,113.953l.988-.667c.21.873-.463.928-1.015,1.095l.027-.428" fill="#fefefe"/>
        <path id="Path_16392" data-name="Path 16392" d="M96.731,109.694l-.03.458-.511.015c-.377-.023-.8.168-1.191-.305.473-.32.989-.092,1.44-.188l.292.02" fill="#fefefe"/>
        <path id="Path_16393" data-name="Path 16393" d="M37.907,120.706q.106-.684.212-1.368c.023-.075.045-.15.068-.225.338.27.29,1.713-.07,1.85-.033.012-.138-.167-.21-.257" fill="#fefefe"/>
        <path id="Path_16394" data-name="Path 16394" d="M91.173,106.8c-.276-.184-.546.684-.831,0-.1-.234-.195-.531.069-.627.523-.192.7.173.764.622l0,0" fill="#fefefe"/>
        <path id="Path_16395" data-name="Path 16395" d="M42.965,120.168c-.327.065-.759.075-.753-.3,0-.3.438-.166.7-.13.286.061.61-.079.925.207-.256.269-.689-.132-.87.223" fill="#fefefe"/>
        <path id="Path_16396" data-name="Path 16396" d="M13.216,92.924c-.172.237-.341.26-.508-.005.084-.443-.148-.935.274-1.459.157.545-.148,1.081.234,1.464" fill="#fefefe"/>
        <path id="Path_16397" data-name="Path 16397" d="M32.9,100.013l.69.544a.519.519,0,0,1-.725.173c-.348-.212-.016-.476.035-.717" fill="#fefefe"/>
        <path id="Path_16398" data-name="Path 16398" d="M49.46,118.775c.337.036.692-.191,1.162.127l-1.139.4c-.288-.165-.317-.341-.023-.531" fill="#fefefe"/>
        <path id="Path_16399" data-name="Path 16399" d="M27.836,82.328A11.3,11.3,0,0,0,23.975,67.7a3.924,3.924,0,0,0,.181-1.293,31.888,31.888,0,0,1,1.76-11.371,36.261,36.261,0,0,1,1.435-3.777,4.075,4.075,0,0,1,1.194-1.607A10.411,10.411,0,0,0,33.77,44.33a12.673,12.673,0,0,0,.588-4.7c.763.3.412.9.413,1.329a35.425,35.425,0,0,1,12.806-8.092,34.432,34.432,0,0,1,7.554-1.823,39.851,39.851,0,0,1,8.618-.023,32.644,32.644,0,0,1,13.883,4.594,33.56,33.56,0,0,1,8.908,7.375,44.177,44.177,0,0,1,3.334,4.526,2.705,2.705,0,0,1,.514,1.2A11.512,11.512,0,0,0,95.7,65.3a2.621,2.621,0,0,0-.384,1.238,32.13,32.13,0,0,1-2.228,12.158,24.655,24.655,0,0,1-4.065,7.671,9.571,9.571,0,0,0-8.366,5.512c-.449-1.538-1.331-2.928-1.539-4.548a7.724,7.724,0,0,0,2.115-2.841c.753-2.457-.327-4.3-1.894-5.947a34.6,34.6,0,0,0-3.548-3.034c-2.52-2.011-2.776-3.824-.862-6.5A13.373,13.373,0,0,0,77.756,62c.4-6.521-1.529-12.039-6.939-16.054a13.606,13.606,0,0,0-6.837-2.664,5.952,5.952,0,0,1-1.389-.353C56.54,40.761,50.868,42.6,47,47.752a21.87,21.87,0,0,0-4.376,12.583c-.08,2.051.111,4.141.176,6.214a7.259,7.259,0,0,1-2.208,5.5c-.334.344-.682.675-.984,1.048-2.089,2.582-2.233,4.92-.152,7.491a3.809,3.809,0,0,1,.525,4.618,2.654,2.654,0,0,0,.2,3.318c-.584,1.958-.817,4-1.4,5.958-.688.278-1.113-.239-1.54-.583A35.283,35.283,0,0,1,28.1,82.724c-.074-.141-.187-.257-.266-.4" fill="#deeafa"/>
        <path id="Path_16400" data-name="Path 16400" d="M90.388,48.714c-.883-1.266-1.728-2.561-2.657-3.792A37.025,37.025,0,0,0,79.1,36.9a35.288,35.288,0,0,0-8.378-4.08,27.322,27.322,0,0,0-9.333-1.6c-.878,0-1.758.019-2.636,0a31.074,31.074,0,0,0-10.466,1.821,34.744,34.744,0,0,0-11.127,6.19,24.566,24.566,0,0,1-2.474,2.164c-.3-.6.1-1.256-.326-1.763a9.407,9.407,0,0,0-1.945-4.438c-.555-.635-.508-.946.143-1.476a42.97,42.97,0,0,1,16.582-8.463,42.141,42.141,0,0,1,15.291-1.04,4.927,4.927,0,0,0,.6-.007c.546.088.975.162,1.213.869.571,1.7,2.085,2.021,3.591.885a1.354,1.354,0,0,1,1.674-.351c1.108.38,2.238.695,3.358,1.037.994.355,1.577.777,1.3,2.108a2.587,2.587,0,0,0,1.706,2.76,3,3,0,0,0,3.269-.347c.376-.277.535-.83,1.1-.864a51.42,51.42,0,0,1,8.406,7.02,47.033,47.033,0,0,1,4.777,6.1c.326.5.372.779-.259,1.066a11.862,11.862,0,0,0-4.767,4.222" fill="#fefefe"/>
        <path id="Path_16401" data-name="Path 16401" d="M25.222,32.153a8.765,8.765,0,1,1-.312,17.528,8.765,8.765,0,0,1,.312-17.528" fill="#fff"/>
        <path id="Path_16402" data-name="Path 16402" d="M28.545,49.652c-.3.892-.844,1.662-1.206,2.534a38.07,38.07,0,0,0-2.648,9.734,24.855,24.855,0,0,0-.137,5.214c.038.474-.256.511-.579.566a11.205,11.205,0,0,0-5.991-1.686c-.6.015-.762-.215-.725-.766.1-1.5.175-3.01.259-4.515.149-.529.259-.941,1.015-1.04A3.121,3.121,0,0,0,19.714,54c-.109-.243-.551-.309-.428-.653q.687-1.911,1.43-3.8c.15-.384.451-.216.7-.1a10.162,10.162,0,0,0,7.126.209" fill="#fefefe"/>
        <path id="Path_16403" data-name="Path 16403" d="M105.058,64.552a13.182,13.182,0,0,1-7.1.94A12.038,12.038,0,0,1,91.3,61.115a10.907,10.907,0,1,1,14.846,2.7c-.359.25-.725.49-1.088.734" fill="#fff"/>
        <path id="Path_16404" data-name="Path 16404" d="M89.02,86.365c.055-1,.842-1.658,1.269-2.466A34.987,34.987,0,0,0,94.1,73.968c.5-2.658,1.135-5.272.823-8.006-.057-.5.3-.7.778-.664l1.715.448a5.34,5.34,0,0,0,1.034.242c.6.021.806.267.866.866a2.766,2.766,0,0,0,1.84,2.435,1.1,1.1,0,0,1,.8,1.437c-.121.7-.159,1.421-.266,2.128-.151.992-.168,1.943-1.487,2.372a1.865,1.865,0,0,0-.54,2.862,1.6,1.6,0,0,1,.359,1.788,55,55,0,0,1-3.779,8.078c-.421.7-.653,1.006-1.453.343a8.97,8.97,0,0,0-5.769-1.932" fill="#fefefe"/>
        <path id="Path_16405" data-name="Path 16405" d="M38.642,94.559a20.937,20.937,0,0,1,1.4-5.985c-.113-.458.225-.765.376-1.136,1.206-2.25,3.3-3.394,5.508-4.37,1.751-.773,3.585-1.332,5.383-1.982a4.6,4.6,0,0,0,3.219-3.792c.076-.426-.121-1.2.766-1.153a3.416,3.416,0,0,0,2.005,1.6,14.176,14.176,0,0,0,6.058,1.14,5.6,5.6,0,0,1,1.55.073c.135.084.006-.076.109.04,1.948,2.2,4.769,2.583,7.321,3.518,2.3.842,4.552,1.752,6.207,3.678a2.212,2.212,0,0,1,.628,1.248c.666,1.422,1.564,2.766,1.483,4.436a17.337,17.337,0,0,0-.8,3.445c-1.3,1.257-2.615,2.48-4.565,2.589a15.924,15.924,0,0,0-3.332-8.729c-.317.462.9,1.053-.141,1.437-3.991-1.128-7.727-.239-11.362,1.432a16.859,16.859,0,0,1-3.8,1.4,7.623,7.623,0,0,1-4.438-.557,6.458,6.458,0,0,0-4.282-.587c-.5-.142-.281-.7-.547-.978a4.724,4.724,0,0,0-1.6,4.118,12.932,12.932,0,0,0-5.268.561,2.229,2.229,0,0,1-1.881-1.455" fill="rgba(250,163,155,0.25)"/>
        <path id="Path_16406" data-name="Path 16406" d="M97.953,95.779a8.774,8.774,0,0,1-17.547-.01,8.774,8.774,0,1,1,17.547.01" fill="#fff"/>
        <path id="Path_16407" data-name="Path 16407" d="M75.341,97.926a29.364,29.364,0,0,0,4.513-2.6,9.735,9.735,0,0,0,2.189,6.3c.224.269.428.513.006.765a33.491,33.491,0,0,1-9.083,4.132.663.663,0,0,1-.235-.036c-1.025-.927-2.216-.834-2.657.386-.381,1.056-1.23.821-1.914,1.043-.344.112-.378-.279-.472-.543a2.66,2.66,0,0,0-3.047-2.037A2.587,2.587,0,0,0,62.406,108c-.031.585-.214.78-.742.766a67.423,67.423,0,0,1-6.931-.271c-.711-.09-.976-.236-.772-1.012a10.5,10.5,0,0,0-.659-6.421c.379-.364.826-.2,1.25-.151a36.128,36.128,0,0,0,18.993-2.466c.6-.154,1.088-.728,1.8-.517" fill="#fefefe"/>
        <path id="Path_16408" data-name="Path 16408" d="M24.651,85.413a17.251,17.251,0,0,1-4.013,1.975,11.1,11.1,0,0,1-9.074-1.911,10.563,10.563,0,0,1,8.1-18.82,10.166,10.166,0,0,1,8.432,7.4c1.253,4.088.155,7.718-2.881,10.744-.2.2-.376.41-.563.616" fill="#fff"/>
        <path id="Path_16409" data-name="Path 16409" d="M38.642,94.559l1.881,1.455a10.534,10.534,0,0,0-4.935,4.347c-.349.633-.636.467-1.08.14a51.524,51.524,0,0,1-6.624-6.014c.323-1.929.014-2.482-1.424-2.466a1.112,1.112,0,0,1-.763-.143,7.229,7.229,0,0,0-.574-.893c-.5-.587-.626-.975.074-1.641a2.165,2.165,0,0,0,.26-2.944c-.247-.475-.365-.872.175-1.3a12.733,12.733,0,0,0,2.2-2.768c.24-.1.421-.134.564.18a32.772,32.772,0,0,0,6.951,9.368,21.428,21.428,0,0,0,3.291,2.683" fill="#fefefe"/>
        <path id="Path_16418" data-name="Path 16418" d="M73.922,98.608a35.146,35.146,0,0,1-19.91,2.551c-.237-.035-.474-.066-.71-.1a11.052,11.052,0,0,0-6.823-5.507A3.326,3.326,0,0,1,47.75,92.2a4.043,4.043,0,0,1,3.781.1,8.53,8.53,0,0,0,8.211-.263,18.833,18.833,0,0,1,8.919-2.251,7.366,7.366,0,0,1,3.349.7,1.5,1.5,0,0,1,.836.961,27.872,27.872,0,0,1,1.334,6.27,1.526,1.526,0,0,1-.258.9" fill="#365997"/>
        <path id="Path_16419" data-name="Path 16419" d="M44.136,95.941a9.412,9.412,0,1,1-9.352,9.861,9.425,9.425,0,0,1,9.352-9.861" fill="#fff"/>
        <path id="Path_16420" data-name="Path 16420" d="M47.75,92.2a9.928,9.928,0,0,0-1.271,3.354l-.689-.1c-.586-.2-.787-.481-.466-1.132a20.022,20.022,0,0,1,1.189-2.557c.267-.392.316-1.186.984-.937.559.209.311.879.253,1.373" fill="#fae4e2"/>
        <path id="Path_16427" data-name="Path 16427" d="M40.533,87.562c0,.416-.332.673-.492,1.012a1.742,1.742,0,0,1-.875-2.135,2.934,2.934,0,0,1,.176-.572c1.31-3.127,1.623-2.8-.733-5.845a4.977,4.977,0,0,1-.175-5.761,10.52,10.52,0,0,1,1.933-2.429,7.352,7.352,0,0,0,2.18-5.625c-.008-2.594-.4-5.174-.1-7.781a20.713,20.713,0,0,1,6.867-13.577c3.729-3.317,8.1-3.881,12.784-2.451a20.133,20.133,0,0,0,2.763.686c6.267.993,11.391,6.2,12.844,12.985,1.018,4.751.485,9.167-2.546,13.178-1.914,2.533-1.616,4,.842,6.035a35.806,35.806,0,0,1,4.117,3.654c2.591,2.916,2.161,6.721-.949,8.507a2.841,2.841,0,0,1-.725-1.046c-.051-.356.253-.461.454-.637a3.405,3.405,0,0,0,.908-4.415c-.95-2.01-2.847-3.089-4.4-4.507-1.086-.995-2.325-1.844-2.761-3.375a5.357,5.357,0,0,1,.5-4.5c1.714-2.762,2.978-5.692,2.811-9.008a17.544,17.544,0,0,0-5.173-12.17c-1.823-1.774-4.175-2.624-6.521-3.448-.578-.2-.819.091-.842.643a11.872,11.872,0,0,1-1.4,4.8,1.649,1.649,0,0,0-.083,1.392c1.573,4.032,5.2,6.864,9.915,5.615a5.6,5.6,0,0,1,2.02-.171c.359.036.745.081.866.508a.9.9,0,0,1-.458,1.021,5.908,5.908,0,0,1-2.914,1,10.145,10.145,0,0,1-10.151-4.888c-.393-.63-.509-1.662-1.2-1.813-.627-.137-1.127.758-1.712,1.159a24.021,24.021,0,0,1-5.221,2.355c-.857.327-1.747.555-2.59.93a3.692,3.692,0,0,0-2.559,2.758,1.018,1.018,0,0,1-.653.8,1.256,1.256,0,0,1-.555.046c-.8-.215-.754-.857-.678-1.452a3.767,3.767,0,0,1,1.639-2.549,16.552,16.552,0,0,1,3.764-1.818c2.315-.964,4.773-1.654,6.747-3.3a11.209,11.209,0,0,0,3.907-6.55c.163-.808-.127-1.155-.949-1.28a28.18,28.18,0,0,0-5.974-.262,8.495,8.495,0,0,0-6.039,3.311A22.182,22.182,0,0,0,43.915,63.6a14.067,14.067,0,0,1-.547,6.273,11.828,11.828,0,0,1-2.363,3.435A11.108,11.108,0,0,0,39.8,75.089c-1.055,1.908-.775,3.376.862,5.243a3.629,3.629,0,0,1,.788,4.144,13.281,13.281,0,0,0-.915,3.086" fill="#373b5d"/>
        <path id="Path_16428" data-name="Path 16428" d="M23.277,39.156a3.71,3.71,0,0,1,3.452-3.567,3.809,3.809,0,0,1,3.734,3.582,3.963,3.963,0,0,1-3.523,3.56,3.551,3.551,0,0,1-3.663-3.575" fill="#fd9d8f"/>
        <path id="Path_16429" data-name="Path 16429" d="M21.876,46.341a2.2,2.2,0,0,1-2.195-2.178A2.71,2.71,0,0,1,21.847,41.8a2.6,2.6,0,0,1,2.386,2.526,2.19,2.19,0,0,1-2.357,2.018" fill="#fd9c8f"/>
        <path id="Path_16430" data-name="Path 16430" d="M102.2,49.215a3.882,3.882,0,0,1,3.845,3.807c.028,2.038-2.057,3.893-4.35,3.871-1.56-.015-3.541-2.178-3.55-3.921-.008-1.593,1.667-4.2,4.055-3.757" fill="#fda190"/>
        <path id="Path_16431" data-name="Path 16431" d="M97.031,60.733a2.591,2.591,0,0,1-2.5-2.61,2.256,2.256,0,0,1,2.44-2.192,2.72,2.72,0,0,1,2.59,2.271,3.3,3.3,0,0,1-2.533,2.531" fill="#fd9c8f"/>
        <path id="Path_16432" data-name="Path 16432" d="M40.533,87.562c-.53-1.3.378-2.323.713-3.434a3.068,3.068,0,0,0-.632-3.363c-2.384-2.647-2.3-4.43-.241-7.179a28.184,28.184,0,0,0,2.483-3.372,7,7,0,0,0,.8-3.423c-.052-2.229-.216-4.457-.214-6.686a18.232,18.232,0,0,1,1.451-6.81,21.96,21.96,0,0,1,3.768-6.718,9.778,9.778,0,0,1,6.393-3.651,25.1,25.1,0,0,1,6.647.355c.65.124.978.356.8,1.223a11.828,11.828,0,0,1-7.621,9.129c-2.307.951-4.767,1.593-6.873,3.011a3.358,3.358,0,0,0-1.706,2.846c0,.385.029.732.516.791-.569,2.461.423,4.445,1.924,6.272a3.514,3.514,0,0,1,1.032,1.58,14.284,14.284,0,0,0,4.806,6.429,1.607,1.607,0,0,1,.768,1.03.471.471,0,0,1-.222.462c-.067.309-.151.615-.2.927a5.064,5.064,0,0,1-3.722,4.487C49.5,82,47.844,82.7,46.16,83.312a11.72,11.72,0,0,0-5.627,4.25" fill="#365997"/>
        <path id="Path_16433" data-name="Path 16433" d="M71.177,58.857A6.712,6.712,0,0,0,74,58.013c.324-.159.659-.409.549-.826s-.523-.252-.821-.293c-1.3-.181-2.478.492-3.769.5a8.077,8.077,0,0,1-7.325-4.192c-.922-1.469-1.611-2.826-.476-4.582a6.936,6.936,0,0,0,.954-4.011c-.021-.646.2-.995.944-.713a21.215,21.215,0,0,1,6.2,3,16.541,16.541,0,0,1,5.576,9.585,14.338,14.338,0,0,1-1.6,11.093c-1.14,1.866-2.158,3.809-1.173,6.161a8.008,8.008,0,0,0,2.231,2.6c1,.953,2.19,1.709,3.177,2.675,1.418,1.389,2.578,2.934,1.936,5.144A3.341,3.341,0,0,1,78.446,86.4c-2.49-2.581-5.841-3.441-9.071-4.546-1.644-.562-3.393-.965-4.353-2.655a6.115,6.115,0,0,1-.993-4.132,2.281,2.281,0,0,1,.841-1.273,16.4,16.4,0,0,0,4.016-5.877,2.153,2.153,0,0,1,.7-1.089,1.646,1.646,0,0,0,1.059-1.045,21.343,21.343,0,0,1,.881-1.952,2.7,2.7,0,0,0-.268-3.214,1.212,1.212,0,0,1-.274-.651,1.531,1.531,0,0,1,.195-1.106" fill="#365997"/>
        <path id="Path_16434" data-name="Path 16434" d="M64.287,74.874a15.445,15.445,0,0,0,.735,4.322,16.011,16.011,0,0,1-7.88-1.17c-.87-.4-2.077-.572-2.01-1.973.02-.148.041-.3.061-.444.187-.4.511-.328.811-.2a9.166,9.166,0,0,0,7.6-.4.9.9,0,0,1,.681-.131" fill="#fae4e2"/>
        <path id="Path_16435" data-name="Path 16435" d="M73.922,98.608a22.1,22.1,0,0,0-1.913-8.131c.091-.6-1.149-1.224-.235-1.654.657-.31.744.811,1.126,1.256,1.753,2.045,2.044,4.67,2.771,7.12.094.317-.27.461-.331.727l-1.418.682" fill="#fae4e2"/>
        <path id="Path_16436" data-name="Path 16436" d="M57.3,85.718a9.1,9.1,0,0,0-3.308-.766,8.69,8.69,0,0,0-3.216.62c-.341.167-.831.318-1.027-.176-.172-.434.27-.593.584-.757a8.479,8.479,0,0,1,6.913-.284,1.5,1.5,0,0,1,.538.459c.176.194.514.348.383.671s-.486.155-.867.233" fill="#fae4e2"/>
        <path id="Path_16437" data-name="Path 16437" d="M67.453,83.5c.674.127,1.773-.174,1.75.714s-1.1.473-1.7.49a7.268,7.268,0,0,0-3.425.8,1.243,1.243,0,0,1-.558.16c-.26.006-.606.139-.753-.173s.176-.5.37-.669A7.168,7.168,0,0,1,67.453,83.5" fill="#fae4e2"/>
        <path id="Path_16438" data-name="Path 16438" d="M93.406,94.358a3.325,3.325,0,0,1-2.651,2.8,2.8,2.8,0,0,1-2.7-2.513c.009-1.918.866-2.965,2.424-2.965,1.878,0,2.929.96,2.929,2.675" fill="#f5aa86"/>
        <path id="Path_16439" data-name="Path 16439" d="M85.173,98.434c.028-1.154.6-1.744,1.645-1.712a1.755,1.755,0,0,1,1.716,1.739,1.842,1.842,0,0,1-1.726,1.789,1.742,1.742,0,0,1-1.635-1.816" fill="#f4ad88"/>
        <path id="Path_16440" data-name="Path 16440" d="M19.5,78.729a3.878,3.878,0,0,1-3.906-3.7A3.921,3.921,0,0,1,19.432,71.1a3.817,3.817,0,0,1,.072,7.634" fill="#fda190"/>
        <path id="Path_16441" data-name="Path 16441" d="M14.2,82.569a2.19,2.19,0,0,1-2.2-2.4,2.308,2.308,0,0,1,2.276-2.516,2.813,2.813,0,0,1,2.649,2.321,2.506,2.506,0,0,1-2.721,2.6" fill="#fca491"/>
        <path id="Path_16442" data-name="Path 16442" d="M45.781,107.522c-1.894.388-3.453-1.584-3.461-3.413a3.705,3.705,0,0,1,3.536-3.548,3.821,3.821,0,0,1,3.554,3.544c-.118,1.87-1.548,3.766-3.629,3.417" fill="#fda691"/>
        <path id="Path_16443" data-name="Path 16443" d="M40.743,106.988c1.8.045,2.658.745,2.67,2.182a2.678,2.678,0,0,1-2.247,2.156,2.652,2.652,0,0,1-2.28-2.215,2.026,2.026,0,0,1,1.857-2.123" fill="#fda691"/>
        <path id="Path_16444" data-name="Path 16444" d="M64.287,74.874a8.811,8.811,0,0,1-8.338.834c-.268-.106-.475-.263-.756-.1a1.979,1.979,0,0,0-.367-.455,15.557,15.557,0,0,1-5.619-7.6,4.915,4.915,0,0,0-.5-.789,18.207,18.207,0,0,1-1.418-6.477c.55-.579.353-1.452.84-2.074a6.813,6.813,0,0,1,3.417-2.066,26.942,26.942,0,0,0,6.673-2.867c.683-.467,1.312-1.015,2.007-1.558,2.161,4.657,5.359,7.752,10.955,7.134a2.211,2.211,0,0,1-.088,1.237,10.311,10.311,0,0,1-1.464,6.937,20.659,20.659,0,0,1-5.338,7.843" fill="#fae4e2"/>
        <path id="Path_16445" data-name="Path 16445" d="M47.285,60.288a1.235,1.235,0,0,1,.443,1.146,10.7,10.7,0,0,0,1.033,4.438.972.972,0,0,1-.058.893.5.5,0,0,1-.616-.252c-.719-1.644-1.874-3.133-1.79-5.069a2.7,2.7,0,0,1,.526-1.164l.462.008" fill="#c79f9c"/>
        <path id="Path_16446" data-name="Path 16446" d="M26.641,41.544a2.339,2.339,0,0,1-2.406-2.354,2.463,2.463,0,0,1,2.518-2.453,2.263,2.263,0,0,1,2.525,2.6c-.016,1.423-.966,2.219-2.637,2.21" fill="#fc618c"/>
        <path id="Path_16447" data-name="Path 16447" d="M23.52,44.131c-.022,1.1-.6,1.755-1.511,1.726-.731-.023-1.786-1-1.75-1.626a1.648,1.648,0,0,1,1.7-1.73,1.412,1.412,0,0,1,1.565,1.63" fill="#fc6989"/>
        <path id="Path_16448" data-name="Path 16448" d="M102.065,55.457a2.521,2.521,0,0,1,0-5.042c1.713-.006,2.577.912,2.55,2.708a2.241,2.241,0,0,1-2.547,2.334" fill="#fd6f88"/>
        <path id="Path_16449" data-name="Path 16449" d="M97.151,56.891c1.076-.157,1.182.566,1.243,1.464.075,1.089-.656,1.385-1.433,1.561-.619.14-1.687-.939-1.692-1.575a1.694,1.694,0,0,1,1.882-1.45" fill="#fd6587"/>
        <path id="Path_16450" data-name="Path 16450" d="M41.94,77.2A9.917,9.917,0,0,1,44.2,71.872a5.915,5.915,0,0,0,1.4-3.321c.028-.273-.167-.758.339-.716.376.031.379.461.369.783a6.953,6.953,0,0,1-.832,2.935,6.034,6.034,0,0,1-.7,1.1c-2.134,2.6-1.979,5.386-.667,8.25.192.419.512.889.076,1.162-.518.324-.785-.236-1.085-.612-1.016-1.271-.83-2.836-1.15-4.26" fill="#373b5d"/>
        <path id="Path_16451" data-name="Path 16451" d="M70.992,72.454A14.88,14.88,0,0,0,72,75.93,8.244,8.244,0,0,0,74.389,78.4,8.866,8.866,0,0,1,77.357,81.1a4.072,4.072,0,0,1,.363,1c.051.219.059.5-.216.622a.436.436,0,0,1-.6-.233c-.719-2.068-2.787-2.752-4.169-4.134-1.6-1.6-2.677-3.469-1.738-5.9" fill="#373b5d"/>
        <path id="Path_16452" data-name="Path 16452" d="M69.625,67.031c-.147-.827.443-1.428.69-2.127a23.308,23.308,0,0,0,.774-4.81c1.389,1.2,1.556,2.065.768,3.76-.353.758-.677,1.53-.989,2.306-.23.573-.561.962-1.243.871" fill="#c79f9c"/>
        <path id="Path_16453" data-name="Path 16453" d="M90.627,95.589a1.253,1.253,0,0,1-1.287-1.406,1.3,1.3,0,1,1,2.6.205c-.042.83-.571,1.149-1.308,1.2" fill="#46230e"/>
        <path id="Path_16454" data-name="Path 16454" d="M87.618,98.341c.017.669-.32.983-.855.995a.822.822,0,0,1-.885-.9.759.759,0,0,1,.805-.83.779.779,0,0,1,.935.735" fill="#522914"/>
        <path id="Path_16455" data-name="Path 16455" d="M19.36,77.53A2.458,2.458,0,0,1,16.7,74.872a2.86,2.86,0,0,1,3.031-2.619,2.641,2.641,0,0,1,2.347,2.681,2.42,2.42,0,0,1-2.717,2.6" fill="#fb7589"/>
        <path id="Path_16456" data-name="Path 16456" d="M14.344,81.849a1.765,1.765,0,0,1-1.862-1.733,2,2,0,0,1,1.97-1.86,2.323,2.323,0,0,1,1.848,1.9,2.238,2.238,0,0,1-1.956,1.691" fill="#fb7c8b"/>
        <path id="Path_16457" data-name="Path 16457" d="M45.919,101.76a2.261,2.261,0,0,1,2.309,2.436,2.509,2.509,0,0,1-2.431,2.463,2.434,2.434,0,0,1-2.368-2.486,2.27,2.27,0,0,1,2.49-2.413" fill="#fc818b"/>
        <path id="Path_16458" data-name="Path 16458" d="M41.214,110.635c-.743.024-1.816-.794-1.85-1.41a2.333,2.333,0,0,1,1.805-1.942,1.888,1.888,0,0,1,1.747,1.526,1.85,1.85,0,0,1-1.7,1.826" fill="#fc8d8d"/>
        <path id="Path_16459" data-name="Path 16459" d="M54.643,69.117c-.706.086-1.272-.131-1.918.274-.357.225-.8-.762-1.26-1.146-.31-.255.042-.738.36-1.006a3.283,3.283,0,0,1,4.257.6.831.831,0,0,1-.721,1.378c-.273-.045-.55-.074-.718-.1" fill="#fda89b"/>
        <path id="Path_16460" data-name="Path 16460" d="M63.57,68.889c-.478-.068-1.121.221-1.348-.445-.2-.572.37-.832.69-1.148a2.359,2.359,0,0,1,3.576.046c.47.471.315.928-.168.955-.963.054-1.758.774-2.75.592" fill="#fda79b"/>
        <path id="Path_16461" data-name="Path 16461" d="M63.11,63.627c0-.828.223-1.569.994-1.625.864-.063,1.04.787,1.054,1.446.016.709-.132,1.577-1.056,1.583-.879.006-.911-.824-.992-1.4" fill="#373b5d"/>
        <path id="Path_16462" data-name="Path 16462" d="M54.733,63.36c-.012.875-.106,1.657-.976,1.676s-1-.752-1.012-1.474c-.016-.805.256-1.538,1.125-1.522.832.015.74.878.863,1.32" fill="#373b5d"/>
        <path id="Path_16463" data-name="Path 16463" d="M56.524,72.979c.623-2.029,3.977-2.137,5.369-.848.219.2.375.442.194.734-.2.322-.46.19-.724.057-2.278-1.145-2.279-1.143-4.839.057" fill="#373b5d"/>
        <path id="Path_16464" data-name="Path 16464" d="M50.747,61.978a38.694,38.694,0,0,0,3.524-1.856.537.537,0,0,1,.763.026c.264.34,0,.63-.252.8a5.088,5.088,0,0,1-4.035,1.029" fill="#373b5d"/>
        <path id="Path_16465" data-name="Path 16465" d="M67.079,61.966a4.895,4.895,0,0,1-4.051-1.1c-.207-.155-.439-.433-.242-.714a.523.523,0,0,1,.756-.046c1.079.805,2.382,1.163,3.537,1.861" fill="#373b5d"/>
        <path id="Path_16466" data-name="Path 16466" d="M59.092,64.793c.57.633.195,1.1.108,1.5-.424,1.95-.448,1.945,1.425,2.242a1.579,1.579,0,0,1-1.877.265c-.562-.3-.472-.923-.3-1.5.232-.772.4-1.562.643-2.5" fill="#373b5d"/>
        <path id="Path_16467" data-name="Path 16467" d="M25.4,39.268c.09-.972.507-1.549,1.423-1.549a1.424,1.424,0,1,1-.066,2.848,1.382,1.382,0,0,1-1.357-1.3" fill="#df3676"/>
        <path id="Path_16468" data-name="Path 16468" d="M22.8,44.174c.035.621-.209.978-.879.962a.9.9,0,0,1-.943-.984.837.837,0,0,1,.875-.914c.562.026,1,.256.947.936" fill="#e03678"/>
        <path id="Path_16469" data-name="Path 16469" d="M17.988,74.741a1.325,1.325,0,0,1,1.362-1.277,1.359,1.359,0,0,1,1.514,1.426c.017.965-.6,1.334-1.412,1.42a1.429,1.429,0,0,1-1.464-1.569" fill="#facfb9"/>
        <path id="Path_16470" data-name="Path 16470" d="M14.332,79.232a.871.871,0,0,1,.935.914.883.883,0,0,1-.994.928.822.822,0,0,1-.808-.965.886.886,0,0,1,.867-.877" fill="#f8d1bb"/>
        <path id="Path_16471" data-name="Path 16471" d="M45.79,102.948c.788.044,1.223.378,1.213,1.1a1.162,1.162,0,0,1-1.142,1.26,1.081,1.081,0,0,1-1.186-1.184,1.116,1.116,0,0,1,1.115-1.175" fill="#fcc5b3"/>
        <path id="Path_16472" data-name="Path 16472" d="M41.961,109.051c-.083.513-.423.642-.861.636-.469-.007-.753-.22-.761-.709a.631.631,0,0,1,.74-.713.9.9,0,0,1,.882.786" fill="#fcc5b6"/>
      </g>
    </g>
    <path id="Path_16592" data-name="Path 16592" d="M70.012,43.111a.545.545,0,0,1,.535.5.309.309,0,0,1-.326.383.506.506,0,0,1-.551-.484c-.024-.229.1-.358.342-.4" transform="translate(43.082 189.166)" fill="#fa829c"/>
    <path id="Path_16600" data-name="Path 16600" d="M70.012,43.111a.545.545,0,0,1,.535.5.309.309,0,0,1-.326.383.506.506,0,0,1-.551-.484c-.024-.229.1-.358.342-.4" transform="translate(30.134 196.384)" fill="#fa829c"/>
    <path id="Path_16596" data-name="Path 16596" d="M70.012,43.111a.545.545,0,0,1,.535.5.309.309,0,0,1-.326.383.506.506,0,0,1-.551-.484c-.024-.229.1-.358.342-.4" transform="translate(39.082 187.825)" fill="#fa829c"/>
    <path id="Path_16598" data-name="Path 16598" d="M70.012,43.111a.545.545,0,0,1,.535.5.309.309,0,0,1-.326.383.506.506,0,0,1-.551-.484c-.024-.229.1-.358.342-.4" transform="translate(37.523 204.825)" fill="#fa829c"/>
    <path id="Path_16599" data-name="Path 16599" d="M70.012,43.111a.545.545,0,0,1,.535.5.309.309,0,0,1-.326.383.506.506,0,0,1-.551-.484c-.024-.229.1-.358.342-.4" transform="translate(39.082 204.825)" fill="#fa829c"/>
    <path id="Path_16597" data-name="Path 16597" d="M70.012,43.111a.545.545,0,0,1,.535.5.309.309,0,0,1-.326.383.506.506,0,0,1-.551-.484c-.024-.229.1-.358.342-.4" transform="translate(36.639 187.384)" fill="#fa829c"/>
    <path id="Path_16593" data-name="Path 16593" d="M51.371,33.641a.334.334,0,0,1-.41.3c-.214-.026-.38-.148-.355-.371a.364.364,0,0,1,.425-.307.326.326,0,0,1,.34.376" transform="translate(52.082 198.212)" fill="#f7729b"/>
    <path id="Path_16601" data-name="Path 16601" d="M51.371,33.641a.334.334,0,0,1-.41.3c-.214-.026-.38-.148-.355-.371a.364.364,0,0,1,.425-.307.326.326,0,0,1,.34.376" transform="translate(50.849 206.33)" fill="#f7729b"/>
    <path id="Path_16594" data-name="Path 16594" d="M70.012,43.111a.545.545,0,0,1,.535.5.309.309,0,0,1-.326.383.506.506,0,0,1-.551-.484c-.024-.229.1-.358.342-.4" transform="translate(46.082 195.825)" fill="#fa829c"/>
    <path id="Path_16595" data-name="Path 16595" d="M70.012,43.111a.545.545,0,0,1,.535.5.309.309,0,0,1-.326.383.506.506,0,0,1-.551-.484c-.024-.229.1-.358.342-.4" transform="translate(47.082 196.825)" fill="#fa829c"/>
    <path id="Path_16602" data-name="Path 16602" d="M70.012,43.111a.545.545,0,0,1,.535.5.309.309,0,0,1-.326.383.506.506,0,0,1-.551-.484c-.024-.229.1-.358.342-.4" transform="translate(32.111 217.825)" fill="#fa829c"/>
    <path id="Path_16605" data-name="Path 16605" d="M70.012,43.111a.545.545,0,0,1,.535.5.309.309,0,0,1-.326.383.506.506,0,0,1-.551-.484c-.024-.229.1-.358.342-.4" transform="translate(35.111 217.384)" fill="#fa829c"/>
    <path id="Path_16606" data-name="Path 16606" d="M70.012,43.111a.545.545,0,0,1,.535.5.309.309,0,0,1-.326.383.506.506,0,0,1-.551-.484c-.024-.229.1-.358.342-.4" transform="translate(33.111 211.384)" fill="#fa829c"/>
    <path id="Path_16607" data-name="Path 16607" d="M70.012,43.111a.545.545,0,0,1,.535.5.309.309,0,0,1-.326.383.506.506,0,0,1-.551-.484c-.024-.229.1-.358.342-.4" transform="translate(42.111 209.384)" fill="#fa829c"/>
    <path id="Path_16603" data-name="Path 16603" d="M70.012,43.111a.545.545,0,0,1,.535.5.309.309,0,0,1-.326.383.506.506,0,0,1-.551-.484c-.024-.229.1-.358.342-.4" transform="translate(44.111 216.943)" fill="#fa829c"/>
    <path id="Path_16604" data-name="Path 16604" d="M70.012,43.111a.545.545,0,0,1,.535.5.309.309,0,0,1-.326.383.506.506,0,0,1-.551-.484c-.024-.229.1-.358.342-.4" transform="translate(47.111 215.943)" fill="#fa829c"/>
  </g>
</svg>
