<svg id="Group_1268" data-name="Group 1268" xmlns="http://www.w3.org/2000/svg" xmlns:xlink="http://www.w3.org/1999/xlink" width="259.972" height="263.391" viewBox="0 0 259.972 263.391">
  <defs>
    <clipPath id="clip-path">
      <rect id="Rectangle_1887" data-name="Rectangle 1887" width="259.972" height="263.391" fill="none"/>
    </clipPath>
  </defs>
  <g id="Group_1074" data-name="Group 1074" clip-path="url(#clip-path)">
    <path id="Path_14913" data-name="Path 14913" d="M57.39,228.882a83.67,83.67,0,0,0-18.13-9.735c-3.794-1.388-7.788-1.9-11.527-3.551a36.852,36.852,0,0,1-14.685-12C8.157,197.1,5.107,189.611,2.989,181.955a92.77,92.77,0,0,1-2.864-20.13,86.536,86.536,0,0,1,1.16-19.8,46.578,46.578,0,0,1,8.21-18.993c2.883-4.026,5.975-7.871,9.025-11.751,1.994-2.534,4.371-4.769,6.6-7.113A52.866,52.866,0,0,0,33.753,91.91c2.893-5.6,4.145-11.853,5.545-18,1.2-5.26,2.414-10.514,3.835-15.731a63.2,63.2,0,0,1,8.426-18.9A51.5,51.5,0,0,1,70.731,22.42c6.976-3.639,14.432-6.54,22.3-7.541,9.054-1.152,18.106-1.411,27.257.42a104.5,104.5,0,0,1,20.367,6.783c5.692,2.412,11.547,2.3,17.435,1.152,4.781-.93,9.6-1.311,14.432-1.835,9.4-1.023,17.7,1.859,25.669,6.2,6.936,3.778,12.493,9.174,15.39,16.56A40.507,40.507,0,0,1,216.5,57.054c.345,7.439-.143,14.984,1.488,22.287,1.04,4.66,4.183,7.837,9.087,9.1,5.959,1.541,11.115,4.8,15.957,8.438a39.63,39.63,0,0,1,13.382,16.689,41.37,41.37,0,0,1,3.507,14.768c.11,5.191.169,10.363-1.325,15.466a49.886,49.886,0,0,1-10.83,19.233A152.178,152.178,0,0,1,234.535,175.8c-5.753,5.1-8.279,12.063-10.728,19.027-2.864,8.155-5.407,16.385-9.319,24.185a34.05,34.05,0,0,1-19.058,17.2c-.449-.962.137-1.735.5-2.524a54.381,54.381,0,0,0,5.25-17.215,7.658,7.658,0,0,1,2.5-4.883,15.849,15.849,0,0,0,4.742-11.407,35.448,35.448,0,0,0-.526-8.512c-.408-1.978.345-3.011,2.294-3.529,3.629-.964,5.894-3.5,7.649-7.011-7.435.326-13.131-2.809-17.955-7.759a12.158,12.158,0,0,1-3.407-10.985c.893-5.543,2.442-10.968,2.75-16.62.561-10.247-1.6-19.59-8.848-27.255a7.275,7.275,0,0,1-2.037-5.507,54.5,54.5,0,0,0-2.489-18.057,21.647,21.647,0,0,0-6.2-9.763c-2.391-2.508-5.776-3.582-8.379-5.8a60.735,60.735,0,0,1-4.693-3.867,22.933,22.933,0,0,1-6.271-9.1c-2.338-6.059-6.925-10.762-10.581-16.026-5.58-8.03-13.144-13.637-21.775-17.969A31.329,31.329,0,0,0,114.1,29.012c-3.237-.035-6.5-.349-9.727.269a4.863,4.863,0,0,1-1.15.141A5.125,5.125,0,0,1,101.334,29c-7.523-2.979-14.242-1.032-20.383,3.564C71.3,39.782,66.154,49.87,63.288,61.276c-2.063,8.214-2.161,16.571-1.358,24.96a11.564,11.564,0,0,1-.13,3.643,182.9,182.9,0,0,0-.035,19.207,79.66,79.66,0,0,0,1.076,7.961,17.791,17.791,0,0,0,2.4,5.845,4.962,4.962,0,0,1,.475,4.862,19.8,19.8,0,0,1-2.52,5.268A20.1,20.1,0,0,0,59.4,143.183c-.1,3.227-1.331,6-2.807,8.881-2.408,4.687-2.416,7.038,1.988,10.648.528,1.6-.261,2.875-1.127,4.053a9.065,9.065,0,0,1-5.39,3.558c-.96.224-2.426-.067-2.667,1.2-.218,1.144.732,2.1,1.545,2.913a8.287,8.287,0,0,0,7.009,2.775c.718-.08,1.58-.3,2,.469.481.879-.194,1.574-.762,2.132-2.84,2.8-5.98,5.288-8.671,8.249-3.9,4.283-7.072,8.905-7.759,14.907a15.909,15.909,0,0,0,1.036,7.168c.6,1.733,1.466,1.918,2.968.732a51.346,51.346,0,0,0,5.25-5.111,9.093,9.093,0,0,1,5.6-2.711c3.066-.422,4.877,1.731,3.874,4.646-.769,2.232-1.892,4.33-2.716,6.544-1.49,4.006-1.187,8.179-1.119,12.332.012.777.465,1.617-.265,2.312" transform="translate(0 14.511)" fill="#deeafa"/>
    <path id="Path_14914" data-name="Path 14914" d="M53.635,21.509a40.918,40.918,0,0,1,24.456,3.325c11.225,5.341,19.16,14.067,26.077,24.038,2.985,4.3,5.816,8.632,7.566,13.6.85,2.42,3.217,3.621,4.622,5.6.106.471-.177.632-.567.709a3.6,3.6,0,0,1-1.048-.322c3.5,13.531,11.107,24.725,20.418,34.97-.2-8.54.024-17.164-6.175-24.161a1.92,1.92,0,0,1-.612-1.543c.153-.367.369-.622.818-.444,5.268,4.1,6.995,10.014,8.165,16.159a70.3,70.3,0,0,1,1.117,13.614,3.393,3.393,0,0,0,.813,2.689c10.626,10.889,11.566,24.008,8.7,38-.538,2.628-1.131,5.254-1.515,7.906a11.3,11.3,0,0,0,3.517,10.43,26.732,26.732,0,0,0,12.412,6.974,7.98,7.98,0,0,0,5.727-.636,11.765,11.765,0,0,1-8.636,9.164c-1.407.314-2.031.616-1.67,2.34a36.953,36.953,0,0,1,.459,10.954,16.736,16.736,0,0,1-5.435,10.644,3.315,3.315,0,0,0-1.4,2.167c-.6,7.592-3.309,14.54-6.662,21.28-6.538,3.064-13.547,4.518-20.569,5.847-12.962,2.453-26.089,3.566-39.221,4.626-2.9.033-3.346-.455-2.663-3.215a24.335,24.335,0,0,1,2.11-5.982,52.105,52.105,0,0,0,4.758-12.781c2.234-9,5.551-17.5,11.237-25a35.365,35.365,0,0,0,6.85-18.314c.334-3.468-.422-6.817-.868-10.2-.956-7.227-.328-14.487-.508-21.729a33.133,33.133,0,0,0-1.592-10.085,65.131,65.131,0,0,1-1.368-15.979,54.334,54.334,0,0,0-.656-10.9,66.514,66.514,0,0,0-1.515-8.618C99.9,92.409,98,89.041,94,87.1a6.325,6.325,0,0,1-1.189-.844c-1.715-1.421-3.757-2.34-5.564-3.621-1.988-1.288-4.285-2.026-6.169-3.5-3.452-3.154-3.264-7.272-2.877-11.366.357-3.782,1.774-7.454.968-11.362-.279-1.354.917-2.151,1.747-3.048a5.219,5.219,0,0,0-1.6-8.381c-2.475-1.166-4.773-.281-6.045,2.33-1.223,2.508-1.81,2.764-3.9.834-5.08-4.685-10.781-8.11-17.623-9.462-.954-.528-2.438.116-2.97-1.337,5.125-2.711,6.143-7.743,7.241-12.754.455-2.067-1.354-2.234-2.375-3.078" transform="translate(50.295 20.67)" fill="#010545"/>
    <path id="Path_14915" data-name="Path 14915" d="M111.085,75.5A40.454,40.454,0,0,1,112.7,88.516a167.886,167.886,0,0,0,1.189,24.585,30.032,30.032,0,0,1-6.338,22.277c-6.548,8.6-9.869,18.4-12.465,28.6a28.14,28.14,0,0,1-2.469,6.852,45.534,45.534,0,0,0-3.68,9c-.673,2.228-.1,3.025,2.1,2.94-3.027.65-6.122.363-9.184.642-7.761.709-15.555,1.066-23.341,1.486a59.007,59.007,0,0,1-12.35-.771,61.723,61.723,0,0,1-3.178-16.173c-.269-7.549,1.941-14.579,4.461-21.545,1.643-4.544,2.781-9.152,1.943-14.036a3.3,3.3,0,0,1,1.865-2.919,15.083,15.083,0,0,0,5.939-5.98c.834-1.682,2.059-1.568,3.39-.5a79.5,79.5,0,0,0,10.4,6.821c5.986,3.431,11.1,3.025,16.534-1.2,3.068-2.387,3.242-2.385,6.226.055.126.1.253.206.379.308,3.3,2.648,4.006,2.514,5.982-1.286a79.035,79.035,0,0,0,7.965-26.487,200.226,200.226,0,0,0,1.978-23.317c.012-.881-.281-2.022,1.048-2.377" transform="translate(44.615 78.419)" fill="#6c73a1"/>
    <path id="Path_14916" data-name="Path 14916" d="M73.148,120.345c.981,4.879-.084,9.478-1.729,14.057-2.477,6.891-4.805,13.829-4.557,21.321a54.44,54.44,0,0,0,2.557,14.33c.222.72,1.2,1.553-.065,2.265a44.878,44.878,0,0,1-18.746-7.806c-5.06-3.541-9.869-7.419-14.632-11.354a29.538,29.538,0,0,1,2.693-19.439c.811-1.643,2.206-3.543.273-5.345-1.1-1.03-5.123-.367-6.658.983-.73.642-1.323,1.439-2.037,2.1-1.668,1.549-3.364,3.068-5.058,4.587-1.468,1.315-2.451,1.115-3.233-.811-2.414-5.939-1.407-11.506,1.729-16.819a49.527,49.527,0,0,1,10.457-11.855c1.494-1.311,2.921-2.7,4.367-4.039-.787-.944-1.447-.459-2.037-.408a9.344,9.344,0,0,1-9.488-6.21c-.567-1.631.389-1.543,1.439-1.609,4.607-.287,7.623-2.526,8.646-7.156,1.925-.919,1.863.758,2.318,1.763A64.311,64.311,0,0,0,46.9,108.366c2.873,4.656,6.575,8.208,12.1,9.519,3.482.828,6.762.118,10.047-.938,1.05-.336,2.033-1.129,3.252-.608,1.144,1.152.444,2.7.85,4.006" transform="translate(21.413 90.235)" fill="#010545"/>
    <path id="Path_14917" data-name="Path 14917" d="M72.34,3.3C73.871,2.215,75.266.47,77.127,1.52c2.055,1.158,2.088,3.4,2.165,5.586.19,5.431-4.887,10.414-9.419,12.106-1.492.557-2.412-.257-3.044-1.313A16.255,16.255,0,0,1,65.341,3.235,4.686,4.686,0,0,1,69.565,0C71.525-.084,71.7,1.824,72.34,3.3" transform="translate(66.724 0.001)" fill="#b0c2ef"/>
    <path id="Path_14918" data-name="Path 14918" d="M24.193,35.2a26.24,26.24,0,0,1-.424,5.315,2.04,2.04,0,0,1-2.4,1.788C16.819,42.15,9.957,36.267,9.129,31.741c-.6-3.258,1.213-4.905,4.324-3.859,1.125.377,1.315-.169,1.286-1.028-.067-2,.783-3.3,2.809-3.609a4.412,4.412,0,0,1,4.942,2.711,19.341,19.341,0,0,1,1.7,9.239" transform="translate(9.366 24.075)" fill="#b0c2ef"/>
    <path id="Path_14919" data-name="Path 14919" d="M10.689,58.448a12.808,12.808,0,0,1-6.866-2.962,3.832,3.832,0,0,1-1.344-3.244c.051-1.637.852-2.053,2.383-1.831.7.1.532-.64.424-1.085C4.677,46.8,6.377,46.994,7.843,47.3a5.566,5.566,0,0,1,3.286,2.724,17.4,17.4,0,0,1,2.618,4.889c.8,2.807.228,3.582-3.058,3.537" transform="translate(2.573 48.949)" fill="#b0c2ef"/>
    <path id="Path_14920" data-name="Path 14920" d="M28.96,136.728a17.577,17.577,0,0,1,3.413-9.975,21.777,21.777,0,0,0,2.014-3.611c1.209-2.463,1.737-4.638-.1-7.4-2.467-3.71-2.752-8.253-2.84-12.681-.167-1.543-.581-3.1.265-4.583,1.258.622,1.17,1.918,1.256,2.96a34.71,34.71,0,0,0,2.86,12.018,1.058,1.058,0,0,1,.082.95c-.206-8.3-2.035-16.357-3.472-24.471a5.9,5.9,0,0,0-.334-1.9c-.216-.379.642-1.217-.489-1.154-.683-1.337-.326-2.718-.177-4.09-.4-7.15-1.013-14.293.043-21.445,2.061-13.979,7.191-26.4,18.575-35.408,6.632-5.246,14.012-7.545,22.3-3.776a4.04,4.04,0,0,0,1.2.149c.734,5.965-.4,11.317-5.1,15.492a23.287,23.287,0,0,0-7.929,13.657C59.575,56,59.1,60.621,58.379,65.2a22.943,22.943,0,0,0-.159,7.649,5.816,5.816,0,0,1,.084.726A131.249,131.249,0,0,0,63.429,90.18c.031.917-.722,1.213-1.319,1.594C44.95,102.749,35.9,119.126,31.093,138.327a4.888,4.888,0,0,1-.383,1.158c-.367.54-.783,1.288-1.447,1.107-.8-.218-.389-1.1-.42-1.7a5.516,5.516,0,0,1,.118-2.167" transform="translate(29.877 21.086)" fill="#010545"/>
    <path id="Path_14921" data-name="Path 14921" d="M31.208,89.11v3.3c.94.232,1.009-.687,1.529-.889a13.855,13.855,0,0,1,3.949-2.385c.9-.406,1.855-.83,2.777-.163.991.718.21,1.676-.014,2.685,1.686-.9,1.042-2.126.767-3.123a39.091,39.091,0,0,1-1.237-11.6c.112-4.175,3.433-8.983,7.272-10.475,2.628-1.021,4.844.608,4.477,3.358-.279,2.084-.122,4.165-.2,6.285a3.84,3.84,0,0,0,.591-1.1c.618-1.223,1.354-2.4,2.954-1.933,1.706.5,1.439,2.063,1.25,3.286A29.252,29.252,0,0,0,55.644,87.5a6.526,6.526,0,0,1-.891,4.7,4.207,4.207,0,0,0,.571,5.174,34.971,34.971,0,0,0,6.864,6.2,158.925,158.925,0,0,0,13.873,8.65,3.079,3.079,0,0,0,2.995.218c.966.442.634,1.741,1.5,2.253,4.265,2.661,8.813,4.805,13.3,7.029a26.558,26.558,0,0,1,7.745,5.71,44.46,44.46,0,0,0,4.375,4.21,2.1,2.1,0,0,1,.9,2.538A14.369,14.369,0,0,1,88.212,137.6a107.4,107.4,0,0,1-10.828-7.074,5.547,5.547,0,0,0-3.1-1.26,12.09,12.09,0,0,0-3.927-4.234,127.763,127.763,0,0,1-17.81-16.913c-1.464-1.641-3.2-3-4.64-4.658a2.39,2.39,0,0,0-2.416-.838,32.875,32.875,0,0,0-8.269,2.74c1.9.432,3.378-.353,4.905-.243.942.065,2.21-.222,2.514.952.32,1.24-.824,1.863-1.766,2.32-2.455,1.189-5.178,1.282-7.806,1.729a8.644,8.644,0,0,0-2.361.475c-.579-.683-.23-2.259-1.857-1.931-3.637-1.606-5.227-5.274-3.641-8.742.83-1.812,1.354-3.825,2.822-5.292,1.6-1.6.08-3.835,1.174-5.525" transform="translate(27.629 68.704)" fill="#f4cbae"/>
    <path id="Path_14922" data-name="Path 14922" d="M48.062,36.614C51.77,32.649,53.8,28.1,52.877,22.559c-.11-.652.459-.791.64-1.2l.852-.135c3.215.232,3.5.363,2.995,3.3-.663,3.89-1.743,7.659-4.381,10.819-.964,1.158-1.929,1.863-3.445,1.67-.638.4-1.172.428-1.476-.4" transform="translate(49.922 22.043)" fill="#010545"/>
    <path id="Path_14923" data-name="Path 14923" d="M86,30.393a10.135,10.135,0,0,1,.442-4.016c.958-2.387,2.1-2.726,4.145-1.2a1.193,1.193,0,0,0,.856.275c2.793-.8,2.455,1.2,2.428,2.773-.045,2.532-3.119,5.727-5.629,5.871-1.284.073-1.857-.885-2.112-1.947A7.367,7.367,0,0,1,86,30.393" transform="translate(89.321 25.19)" fill="#b0c2ef"/>
    <path id="Path_14924" data-name="Path 14924" d="M28.883,60.239c.014,1.3.194,2.8-1.323,3.358-1.421.524-2.424-.534-3.4-1.413A6.923,6.923,0,0,1,22.1,59.5c-.459-1.266-1.784-3,1.211-2.838.139.008.4-.084.412-.167.271-1.356.983-2.1,2.383-1.478a4.828,4.828,0,0,1,2.76,3.761,7.745,7.745,0,0,1,.014,1.46" transform="translate(22.241 56.917)" fill="#b0c2ef"/>
    <path id="Path_14925" data-name="Path 14925" d="M95.065,53.271l-.6.555c-1.588.391-2.475-.9-3.6-1.549a51.981,51.981,0,0,1-7.523-5.207c-.781-.659-1.731-1.24-1.719-2.467.2-.181.406-.361.61-.54,4,3.464,8.611,6.061,12.834,9.209" transform="translate(84.781 45.767)" fill="#010545"/>
    <path id="Path_14926" data-name="Path 14926" d="M30.845,66.733c-.952,1.411-.112,3.019-.5,4.493-.8-3.1-.438-6.267-.428-9.4.012-3.625-.367-7.274.418-10.872.387,1.315-.408,2.783.524,4.026.736,3.918,1.615,7.837-.014,11.753" transform="translate(30.981 52.925)" fill="#010545"/>
    <path id="Path_14927" data-name="Path 14927" d="M79.338,148.123a1.86,1.86,0,0,0-.652-1.743c-2.83-2.1-5.054-4.832-7.594-7.233-2.112-2-4.954-2.671-7.378-4.11-3.537-2.1-7.407-3.6-10.832-5.922a66.357,66.357,0,0,1,3-12.5,103.71,103.71,0,0,1,6.255-16.079,44.861,44.861,0,0,0,3.69-10.783,4.2,4.2,0,0,0-.106-2.612c-.155-2.259,1.085-4.187,1.507-6.322.6-3.032.381-6.12.964-9.129.247-.373.709-.685.919-.194.809,1.9,1.617.744,2.42.065,1.348-1.142,1.59-2.748,1.78-4.371.479-4.075,1.511-7.937,4.314-11.113a21.09,21.09,0,0,0,2.681-1.888,14.347,14.347,0,0,1,8.33-1.4c8.43,3.666,9.021,11.37,9.784,18.989a57.909,57.909,0,0,1,.308,11.168c-.281,3.168-.014,6.357-.116,9.531-.442,13.853-1.125,27.686-4.913,41.133a72.284,72.284,0,0,1-4.86,13.029c-2.928,5.794-4.885,6.094-9.5,1.482" transform="translate(54.929 54.671)" fill="#6c73a1"/>
    <path id="Path_14928" data-name="Path 14928" d="M43.291,64.194a.751.751,0,0,0-.124-.42c-.449-1.123-.322-1.727,1.125-1.437,2.271.453,3.857-.813,5.284-2.318a1.369,1.369,0,0,0,.281-1.778,1.481,1.481,0,0,0-1.515-.55,24.127,24.127,0,0,1-3.109.52,1.07,1.07,0,0,1-.887-1.256c.752-8.781,1.77-17.478,7.992-24.471.593-.667,1.235-1.286,1.867-1.914a3.347,3.347,0,0,1,3.721-1.064c7.036,1.05,12.726,4.646,17.8,9.4.3.279.6.55.917.805.842.683,1.425,1.03,1.731-.544a4.788,4.788,0,0,1,4.773-4.106,6.076,6.076,0,0,1,5.735,4.159,5.191,5.191,0,0,1-1.782,6.3c-.758.6-1.7.962-1.341,2.249,1.021,3.7-.408,7.227-.791,10.832-.44,4.159-.9,8.346,2.714,11.566.632,2.467-1.195,4.216-1.839,6.312-2.067,3.861-5.588,5.2-9.668,5.537a25.5,25.5,0,0,0-3.635.241A36.722,36.722,0,0,1,59.45,78.406a2.685,2.685,0,0,1-1.229-1.339c0-1.113,1.054-1.3,1.664-1.878.765-.72,1.264-1.511.693-2.544a2.16,2.16,0,0,0-2.21-1.17,1.822,1.822,0,0,0-1.7,1.98c-.027.687.261,1.5-.712,1.819-.082,0-.194.035-.241-.006C52.068,72.125,48.011,69.5,44.4,66.313a4.07,4.07,0,0,1-1.107-2.118" transform="translate(44.599 30.432)" fill="#f4cbae"/>
    <path id="Path_14929" data-name="Path 14929" d="M86.591,138.368c1.38-.241,2.016.842,2.822,1.6,1.768,1.678,2.516,1.66,4.1-.351,2.332-2.97,3.56-6.489,4.832-9.99a95.853,95.853,0,0,0,4.97-21.211c.528-4.334,1.015-8.681,1.325-13.033.483-6.811.383-13.649.65-20.465.169-4.3.224-8.6.389-12.9a19.985,19.985,0,0,1,.891,6.4c.157,6.32-.149,12.662,1.019,18.927.133.714.294,1.423.44,2.135-.65.687-.389,1.545-.4,2.33a219,219,0,0,1-2.3,25.624c-.946,7.3-3.354,14.122-5.757,20.956a19.324,19.324,0,0,1-3.482,6.063c-1.221,1.427-2.44,1.68-3.929.271-1.288-1.219-2.583-2.74-4.163-3.264-1.963-.652-2.846,1.743-4.3,2.66-6.163,3.89-12.032,3.282-17.892-.781-3.056-2.12-6.41-3.814-9.2-6.32-.911-.818-1.47-.44-1.845.477-1.333,3.268-3.888,5.286-6.917,6.817a1.909,1.909,0,0,0-.954,1.831,9.929,9.929,0,0,1-.93-3.843c-.22-.61.218-.919.62-1.142a16.38,16.38,0,0,0,6.8-6.991,1.563,1.563,0,0,1,.895-.769c.7-.9,1.28-.777,2.153-.063a106.563,106.563,0,0,0,12.157,8.09,13.943,13.943,0,0,0,16.147-1.507c.62-.524,1.244-1.042,1.865-1.564" transform="translate(47.676 64.426)" fill="rgba(1,5,66,0.63)"/>
    <path id="Path_14930" data-name="Path 14930" d="M82.711,45.194c3.721,3.857,8.316,6.5,12.846,9.223,4.457,4.224,6.024,9.741,6.777,15.549a56.308,56.308,0,0,1,.463,12.018C92.431,70.57,84.284,58.381,80.574,43.492l2.137,1.7" transform="translate(83.693 45.175)" fill="#deeafa"/>
    <path id="Path_14931" data-name="Path 14931" d="M101.642,124.459c-.565-8.261-3.617-15.4-4.491-22.993-.355-3.076-.463-3.052,2.432-2.094a13.952,13.952,0,0,0,3.268.924c2.62.181,3.431,1.682,3.774,4.057.85,5.869,1.588,11.674-2.259,16.883-.716.968-1.553,1.847-2.724,3.223" transform="translate(100.724 102.626)" fill="#deeafa"/>
    <path id="Path_14932" data-name="Path 14932" d="M57.941,30.051c-2.858-.175-3.99,2.259-5.5,3.884C47.926,38.773,46.7,45,45.666,51.244c-.34,2.059-.469,4.153-.773,6.22-.1.656.116.891.689.977.287.756-.279,1.178-.681,1.631-.414.469-.915,1.074-1.576.8-.591-.245-.357-.985-.345-1.513a8.764,8.764,0,0,1,.153-2.824c.744-6.357,1.225-12.768,3.547-18.821,1.382-3.606,3.341-6.815,6.716-8.944.4.461.96.363,1.478.4.873.811,2.2.035,3.066.879" transform="translate(44.586 29.885)" fill="#dfb395"/>
    <path id="Path_14933" data-name="Path 14933" d="M66.657,42.842c1.607,3.04,2.97,6.224,5.26,8.86a34.139,34.139,0,0,0-.762,3.947c-.088.787-.19,1.6-1.109,1.918A11.49,11.49,0,0,1,65.093,53.7c.707-3.592.775-7.276,1.564-10.858" transform="translate(67.612 44.5)" fill="#dfb395"/>
    <path id="Path_14934" data-name="Path 14934" d="M63.719,55.288A35.364,35.364,0,0,0,66.1,49.347l5.922,3.37c-1.24,1.664-1.666,3.776-2.97,5.4A2.312,2.312,0,0,1,66.7,59.585c-1.237.183-1.172-.956-1.576-1.588-.548-.858-.8-1.878-1.409-2.709" transform="translate(66.185 51.257)" fill="#dfb294"/>
    <path id="Path_14935" data-name="Path 14935" d="M67.692,46a18.937,18.937,0,0,1-1.564,10.858c-2.614-3.6-2.092-7.7-1.733-11.729.151-1.67.628-3.311,1.03-5.327.83,2.271,1.549,4.234,2.267,6.2" transform="translate(66.577 41.343)" fill="#f1cbb0"/>
    <path id="Path_14936" data-name="Path 14936" d="M67.522,53.053c.9-1.439.236-3.186.932-4.689.236-.51.2-1.117.942-1.176,2.13,2.728,3.076,6.01,4.577,9.676l-6.45-3.81" transform="translate(70.136 49.014)" fill="#f0c9ae"/>
    <path id="Path_14937" data-name="Path 14937" d="M66.334,56.406c.728-1.947.614-4.357,2.972-5.407a31.96,31.96,0,0,1,5.358,3.49c-2.744.785-5.686.7-8.33,1.916" transform="translate(68.902 52.973)" fill="#f2c9ad"/>
    <path id="Path_14938" data-name="Path 14938" d="M87.21,93.009c2.19,7.92,1.484,15.741-.911,23.484a58.826,58.826,0,0,0,.911-23.484" transform="translate(89.278 95.524)" fill="rgba(189,205,214,0.45)"/>
    <path id="Path_14939" data-name="Path 14939" d="M88.872,68.137c1.246,2.785.893,5.823,1.3,8.732a84.12,84.12,0,0,1,.51,10.811c-1.048-6.489-1.025-13.091-2.265-19.551.157-.236.31-.224.459.008" transform="translate(91.474 69.502)" fill="rgba(189,205,214,0.45)"/>
    <path id="Path_14940" data-name="Path 14940" d="M73.588,39.76c1.662,5.829,2.895,11.827,5.085,17.555-2.811-5.509-3.984-11.5-5.085-17.555" transform="translate(76.436 41.299)" fill="rgba(189,205,214,0.45)"/>
    <path id="Path_14941" data-name="Path 14941" d="M84.272,85.83a21.8,21.8,0,0,1,3.6,9.88l-3.6-9.88" transform="translate(87.173 88.068)" fill="rgba(189,205,214,0.45)"/>
    <path id="Path_14942" data-name="Path 14942" d="M86.783,61.159l-5.6-5.4-.22.228,5.882,5.107c-.018.022-.039.043-.057.065" transform="translate(84.092 57.916)" fill="rgba(189,205,214,0.45)"/>
    <path id="Path_14943" data-name="Path 14943" d="M89.834,72.049c-.153,0-.306,0-.459-.008q-.945-3.923-1.888-7.851a19.425,19.425,0,0,1,2.347,7.859" transform="translate(90.512 65.59)" fill="rgba(189,205,214,0.45)"/>
    <path id="Path_14944" data-name="Path 14944" d="M71.2,110.947c-1.529,4.126-4.522,6.887-8.314,8.9-2.852.917-5.606,2.163-8.658,2.373-7,.479-12.057-2.862-15.89-8.289A53.848,53.848,0,0,1,29.6,92.415c.067-.942.31-1.166,1.474-1.168a21.23,21.23,0,0,0,8.736-1.715c.646-.29,1.5-.709,1.274-1.551-.212-.809-1.107-.412-1.713-.457-1.794-.137-3.5.748-5.323.459-.506-.08-1.068-.167-1.189-.685-.165-.707.526-.605.942-.791a62.085,62.085,0,0,1,8.071-2.679,3.128,3.128,0,0,1,3.474.977c4.232,4.261,8.2,8.768,12.5,12.98,3.837,3.761,8.012,7.089,12.094,10.534a2.643,2.643,0,0,1,1.266,2.628" transform="translate(30.744 86.891)" fill="#fbfbfb"/>
    <path id="Path_14945" data-name="Path 14945" d="M73.084,53.276a76.943,76.943,0,0,0,13.16,3.992,2.165,2.165,0,0,1,.722.071c3.678,1.494,7.258,9.892,5.869,13.749a43.436,43.436,0,0,1-2.6,15.967c.155,2.809-1.14,5.252-2.349,7.57A129.868,129.868,0,0,0,77.5,123.2a5.264,5.264,0,0,1-1.394,3.046c-.616.52-.608,1.959-2.122,1.038-7.062-4.291-14.4-8.145-20.53-13.835-3.364-3.123-3.649-4.336-1.978-8.575a6.264,6.264,0,0,0,.418-3.8,23.573,23.573,0,0,1-.332-10.846,7.409,7.409,0,0,0,.053-1.7c0-.573.031-1.215-.7-1.376a1.466,1.466,0,0,0-1.859.756,28.261,28.261,0,0,1-1.947,3.757,28.97,28.97,0,0,1-.165-8.132c.106-.956.756-2.124-.44-2.557-1.1-.4-2.2-.9-3.649-.094-6.422,3.592-7.017,9.343-6.179,15.684a46.887,46.887,0,0,0,1.178,5.951c.852,3.207.648,3.335-2.866,3.476a1.085,1.085,0,0,1,.041-.436c.434-.805,1.955-1.333,1.25-2.363-.8-1.164-1.88-.041-2.8.332-1.3.53-2.412,1.492-3.869,1.645,1.246-8.76,4.791-16.66,9.156-24.238,5.853-10.167,13.241-18.874,23.7-24.607,3.119-2.471,6.514-3.988,10.614-3.052" transform="translate(30.757 55.048)" fill="#fbfbfb"/>
    <path id="Path_14946" data-name="Path 14946" d="M59.2,60.113c-3.792.128-7.229,1.5-10.614,3.05a1.159,1.159,0,0,1-1.06-.834c-1.46-4.946-2.944-9.884-4.42-14.823-.114-.385-.269-.777.143-1.091C46.779,50.8,52.294,52.9,55.821,57.289a3.477,3.477,0,0,1,2.516,1.839l.862.985" transform="translate(44.643 48.212)" fill="#010545"/>
    <path id="Path_14947" data-name="Path 14947" d="M30.326,64.93q.006-5.878.014-11.753c.029-.075.059-.151.086-.228.1-.308.3-.371.373-.031.62,3.023,1.293,6.037,1.79,9.078.891,5.445,2.155,10.844,2.257,16.4.016.862,0,1.727,0,3.3-3.935-5.458-3.833-11.217-4.522-16.766" transform="translate(31.5 54.728)" fill="#deeafa"/>
    <path id="Path_14948" data-name="Path 14948" d="M43.325,42.39V46.5l2.448-2.2c.444-.161.891-.314,1.331-.485,1.415-.555,3.019-1.121,3.851.6.818,1.7-.738,2.736-1.88,3.519-1.48,1.015-2.989,2.32-5.117,1.356-.818-.371-.345.605-.585.887-1.058-2.587-.591-5.186-.049-7.784" transform="translate(44.394 44.031)" fill="#010545"/>
    <path id="Path_14949" data-name="Path 14949" d="M39.27,31.829C37.454,40.6,38.8,49.213,40.351,57.822c-2.528-8.589-3.184-17.256-1.081-25.993" transform="translate(39.485 33.061)" fill="rgba(189,205,214,0.45)"/>
    <path id="Path_14950" data-name="Path 14950" d="M40.228,48.866a32.266,32.266,0,0,1,2.108,14.6c-.041-4.954-1.38-9.714-2.108-14.6" transform="translate(41.785 50.757)" fill="rgba(189,205,214,0.45)"/>
    <path id="Path_14951" data-name="Path 14951" d="M52.426,108.9c2.236-9.054,4.563-18.085,8.624-26.536A120.47,120.47,0,0,0,66.562,69.7c1.288.155.667.944.575,1.617-.813,6.047-3.794,11.315-6.128,16.795a131.916,131.916,0,0,0-6.6,20.6,5.015,5.015,0,0,1-1.036,2.667c-1.517-.369-.754-1.613-.952-2.487" transform="translate(54.433 72.4)" fill="rgba(1,5,66,0.63)"/>
    <path id="Path_14952" data-name="Path 14952" d="M31.453,84.568c2.218-1.058,4.426-2.141,6.662-3.158.771-.349,1.264.277,1.539.834.414.834-.222,1.166-.907,1.319-2.345.52-4.691,1.017-7.038,1.525l-.257-.52" transform="translate(32.67 84.457)" fill="#fbf3ee"/>
    <path id="Path_14953" data-name="Path 14953" d="M63.979,71.853c-.234-5.541-2.094-10.31-6.589-13.82,1.062-.889,2.324-.351,3.488-.457,3.953-.361,7.539-1.3,9.413-5.315,1.908.8,1.649,3.1,2.985,4.3a29.325,29.325,0,0,0-4.434,13.694c-.218,2.259-2.758,2.707-4.11,4.143-.9-.769-.108-1.851-.752-2.542" transform="translate(59.611 54.284)" fill="#010545"/>
    <path id="Path_14954" data-name="Path 14954" d="M50.235,41.589c.024-2.234,3.193-5.6,5.4-5.58,1.592.016,2.548.975,2.01,2.561a7.546,7.546,0,0,1-4.7,4.962c-1.729.6-2.734-.2-2.711-1.943" transform="translate(52.179 37.403)" fill="#010545"/>
    <path id="Path_14955" data-name="Path 14955" d="M51.793,55.826a6.346,6.346,0,0,1-2.514-1.841.791.791,0,0,0,.271-1.054c-.687-1.721.385-2.805,1.7-3.211A2.92,2.92,0,0,1,54.7,51.331c.781,1.441.027,2.485-1.062,3.341a18.876,18.876,0,0,1-1.841,1.154" transform="translate(51.186 51.516)" fill="#f0ae9f"/>
    <path id="Path_14956" data-name="Path 14956" d="M59.317,42.877A2.357,2.357,0,0,1,62.2,45.4a2.686,2.686,0,0,1-2.924,2.852,2.566,2.566,0,0,1-2.711-2.526c-.016-1.474.591-3.148,2.75-2.844" transform="translate(58.756 44.5)" fill="#f2b0a0"/>
    <path id="Path_14957" data-name="Path 14957" d="M55.134,56.153c4.192-1.421,4.7-5.08,5.447-8.65a8.072,8.072,0,0,1-.071,7.653c-1.366,2-3.3,1.5-5.376,1" transform="translate(57.268 49.342)" fill="#f08184"/>
    <path id="Path_14958" data-name="Path 14958" d="M59.354,46.206c-2.854-1.606-3.378-1.413-3.861,1.276-1.121-.351-1.042-2.275-2.748-1.986,3.955-.667,5.2-3.694,6.44-6.848-.024,1.71.626,2.824,2.424,3.193-3.248.542-3.6,1.182-2.255,4.365" transform="translate(54.787 40.145)" fill="#010545"/>
    <path id="Path_14959" data-name="Path 14959" d="M48.359,54.24c-.6-1.409-.964-2.363-2.267-2.548,3.959-.618,5.376-3.5,6.53-6.832.369,1.4.74,2.626,2.907,2.428-1.339,1.252-2.838.249-3.37,1.8-.41,1.2.218,1.984.716,3.013-1.276.4-1.69-1.28-2.977-.693-1.191.544-.985,1.511-1.539,2.834" transform="translate(47.876 46.596)" fill="#010545"/>
    <path id="Path_14960" data-name="Path 14960" d="M65.587,39.223c.306-4.026-.463-4.94-3.606-4.677,1.335-1.521,2.318-1.655,3.635-.5,1.67,1.464,1.733,3.152-.029,5.18" transform="translate(64.38 34.566)" fill="#916b50"/>
    <path id="Path_14961" data-name="Path 14961" d="M57.769,49.276c-.687,1.533-1.81,2.338-3.219,2.069-2.126-.408-1.723-2.353-2.112-4.067,3.068,2.669,3.068,2.669,5.331,2" transform="translate(54.468 49.108)" fill="#010545"/>
    <path id="Path_14962" data-name="Path 14962" d="M74.154,67.575a4.589,4.589,0,0,1-.338,5.054c-1.637,2.4-1.908,5.117-2.815,7.674-2.314,6.52-8.391,10.63-15.237,9.682-5.26-.73-8.577-4.408-10.4-9.137-2.312-5.994-2.4-12,1.413-17.6.652,1.3,1.191.634,1.965.016,3.872-3.087,8.179-4.94,13.278-4.622,4.911.306,9.886,4.612,11.588,8.983.071.183-.122.444.169.557a1.135,1.135,0,0,1,.379-.605" transform="translate(45.438 60.874)" fill="#f4cbae"/>
    <path id="Path_14963" data-name="Path 14963" d="M72.725,68.792c-.118.526.183,1.134-.4,1.678-2.381-5.352-5.772-9.527-12.094-9.971-5.959-.418-10.632,2.426-14.709,6.457-.934-1.03.092-1.755-.177-2.491,6.092-8.322,17.527-9.451,24.244-2.342a10.517,10.517,0,0,1,3.136,6.671" transform="translate(46.868 59.656)" fill="#e0b495"/>
    <path id="Path_14964" data-name="Path 14964" d="M49.859,69.571c1.507,1.025,2.557,2.724,4.6,2.389.112-.018.414.336.4.493-.041.438-.4.638-.8.8-1.984.8-3.708-.63-4.2-3.684" transform="translate(51.789 72.264)" fill="#ef8a89"/>
    <path id="Path_14965" data-name="Path 14965" d="M51.143,63.5c-.726-.369-2.141-.039-2.163-1.315-.014-.919,1.113-1.085,1.927-1.064.891.02,2,.149,2.1,1.221.1,1.1-.946,1.095-1.865,1.158" transform="translate(50.876 63.483)" fill="#010545"/>
    <path id="Path_14966" data-name="Path 14966" d="M56.792,63.245a2.811,2.811,0,0,1,2.261,2.4c.086.585-.453.875-.995.646-1.1-.469-2.377-.887-2.634-2.239-.128-.675.605-.84,1.368-.8" transform="translate(57.554 65.688)" fill="#010545"/>
    <path id="Path_14967" data-name="Path 14967" d="M48.04,63.779a14.828,14.828,0,0,0,5.523,1.662c-1.925,1.708-3.816,1.129-5.523-1.662" transform="translate(49.899 66.248)" fill="#010545"/>
    <path id="Path_14968" data-name="Path 14968" d="M53.942,65.783a18.96,18.96,0,0,0,5.509,1.768c-2.2,1.346-3.959.8-5.509-1.768" transform="translate(56.03 68.329)" fill="#010545"/>
  </g>
</svg>
