<svg xmlns="http://www.w3.org/2000/svg" width="233.099" height="205.182" viewBox="0 0 233.099 205.182">
  <g id="Group_1272" data-name="Group 1272" transform="translate(-41.442 -6.337)">
    <g id="Group_42" data-name="Group 42" transform="translate(41.443 6.337)">
      <path id="Path_4538" data-name="Path 4538" d="M71.563,71.435c3.911-.473,7.551,1.011,11.3,1.633.795.131,2.1.2,2.083,1.452-.023,1.35-1.1,2.013-2.293,2.255a76.992,76.992,0,0,1-7.858,1.4A293.6,293.6,0,0,1,30.922,79.5c-8.521-.456-17.159-.462-25.533-2.623C4.066,76.536,2.2,76.4,2.225,74.762c.026-1.615,1.878-1.84,3.228-2.048,4.8-.739,9.6-1.612,14.427-2.033,11.483-.993,23.007-.809,34.522-.742,2.55.015,5.027.955,7.615.64,1-.123,2.138.3,2.863-.8,1.151,1.107,2.287,2.238,3.464,3.318.83.759,1.674,2.173,2.778,1.709,1.507-.634.3-2.217.441-3.371" transform="translate(14.647 125.356)" fill="#c3d0ea"/>
      <path id="Path_4541" data-name="Path 4541" d="M32.813,46.883q-5.258-1.52-10.513-3.044c-3.736-2.544-7.642-4.829-11.164-7.7-2.886-2.346-6.441-2.191-9.9-1.957C1.019,32.742,2.6,33.3,2.755,32.321c-.847-.178-1.7-.359-2.755-.581.646-1.542,1.855-.8,2.693-1.046C3.736,29.8,4.7,28.9,3.02,27.709l.841-.426.123.064,1.361.57c3.222,1.069,3.222,1.069,3.619-2.141.187.058.523.082.546.175,1.951,8.76,9.976,8.258,16.145,10.577,4.092,1.367,8.129,2.942,12.488,3.315.923,1.128,2.278,1.18,3.558,1.428l-.876,7.37q-4.009-.881-8.013-1.759" transform="translate(10.373 40.819)" fill="#f4b280"/>
      <path id="Path_4546" data-name="Path 4546" d="M33.5,78.031c-.14,1.154,1.066,2.737-.441,3.371-1.1.464-1.948-.949-2.778-1.709-1.177-1.081-2.314-2.211-3.464-3.318A53.218,53.218,0,0,0,23.264,72.3c-1.715-1.624-1.6-3,.149-4.414l0-.091h.076c1.125-.377,1.887-1.557,3.228-1.446a9.208,9.208,0,0,0,4,5.124L33.5,78.031" transform="translate(52.711 118.76)" fill="#010545"/>
      <path id="Path_4547" data-name="Path 4547" d="M4.223,53.483c2.717-1.5,5.427-3.012,8.15-4.5,4.221-2.311,4.589-2.162,5.72,2.369a8.521,8.521,0,0,1,.079,1.712,9.28,9.28,0,0,0-5.906,2.749c-2.828,1.034-5.787.967-8.728,1.043-2.667-1.715.222-2.3.686-3.371" transform="translate(15.021 82.578)" fill="#010545"/>
      <path id="Path_4549" data-name="Path 4549" d="M27.638,74.993a9.208,9.208,0,0,1-4-5.124q.53-2.677,1.06-5.354,2.931.933,5.866,1.869l-1.551,3.7q-.688,2.454-1.376,4.91" transform="translate(55.786 115.243)" fill="#edac7e"/>
      <g id="Group_43" data-name="Group 43" transform="translate(101.147)">
        <path id="Path_4532" data-name="Path 4532" d="M136.509,23.266q-6,7.278-12,14.547a4.011,4.011,0,0,0-.616,2.284c-.4.193-.941.28-1.2.6q-6.419,7.944-12.777,15.938c-.482.5-1.008.973-1.437,1.516C99.043,70.071,89.4,81.843,80.289,94.009c-4.37,5.836-11.641,6.757-16.259-1.04-6.923-11.687-14.243-23.138-21.4-34.688-2.781-4.493-1.945-9.873,1.931-12.342,4.314-2.749,9.4-1.2,12.432,3.721Q64.03,61.088,71.132,72.48c2.074,3.33,2.144,3.351,4.636.2q15.476-19.516,30.879-39.093c1.1-1.4,2.985-2.433,2.67-4.668A30.28,30.28,0,0,0,118.375,17.8a13.326,13.326,0,0,0,4.878-5.652c2.258-2,4.56-4.011,7.788-4a8.382,8.382,0,0,1,7.294,12.193c-.526,1.017-1.212,1.954-1.826,2.927" transform="translate(-16.141 -8.146)" fill="#8ea2cd"/>
        <path id="Path_4553" data-name="Path 4553" d="M134.718,14.293a30.28,30.28,0,0,1-9.058,11.126,11.667,11.667,0,0,0-5.293-1.478C97.88,24,75.39,23.97,52.9,23.994c-4.683.006-6.377,1.805-6.38,6.628q-.013,33.349,0,66.7c0,5.109,1.791,7.019,6.888,7.028q33.033.066,66.07,0c5.194-.009,7.49-2.337,7.5-7.428q.031-20.252-.006-40.51c0-1.133.28-2.357-.716-3.289q6.38-7.979,12.78-15.938c.254-.315.792-.4,1.195-.6,1.209,1,.719,2.378.719,3.593.032,20.015-.044,40.034.05,60.049.05,10.472-7.922,17.863-17.638,17.655-25.034-.529-50.085-.336-75.128-.079-8.76.091-15.806-8.156-15.751-15.7.181-25.253.079-50.506.041-75.759a22.813,22.813,0,0,1,.707-5.144C35.859,14.678,40.5,10.677,47.663,10.1c2.869-.231,5.769-.082,8.652-.1,22.641.018,45.283,0,67.924.091,3.961.015,7.89.558,10.478,4.2" transform="translate(-32.485 -4.641)" fill="#aec1e2"/>
      </g>
      <path id="Path_4555" data-name="Path 4555" d="M46.356,71.415c1.373,3.581-.105,7-.684,10.446-.529,3.152-1.39,6.251-2.1,9.371-1.843,5.109-2.971,10.51-6.128,15.087l-5.863-1.867c-1.592-1.282-.92-2.977-.765-4.536.286-2.886.663-5.763,1-8.644l2.559-13.647.041-.169c.821-1.209.053-1.709-.944-2.109-3.984-4.6-9.085-7.969-13.414-12.187a10.1,10.1,0,0,0,1.481-5.106c.269-2.62.648-5.556,2.045-7.645,1.437-2.15,2.778-4.052,2.749-6.683l1.867.213C34.4,53,40.923,61.849,46.356,71.415" transform="translate(48.91 75.305)" fill="#373b5d"/>
      <path id="Path_4556" data-name="Path 4556" d="M39.888,71.528l-1.867-.213c-4.268-1.011-7.925-3.5-12-4.98-.517-1.166-2.387-1.472-2.042-3.19-.19-4.741-.529-9.482-.508-14.22.012-2.515-.771-3.634-3.283-4.323-2.138-.587-5-.1-6.216-2.857q.438-3.685.876-7.373a3.433,3.433,0,0,1,2.889-.724q6.3.556,12.593,1.107c.091,2.433.041,4.913.981,7.2A3.063,3.063,0,0,0,34.946,44c1.756-.353,1.595-1.852,1.5-3.07-.143-1.957-.52-3.9-.8-5.845A10.874,10.874,0,0,0,41.644,30l1.279-.631,5.93,3.792a3.278,3.278,0,0,1-.628,3.578,18.938,18.938,0,0,0-4.291,11.126c-.587,8-2.349,15.835-4.046,23.667" transform="translate(37.22 47.716)" fill="#365997"/>
      <path id="Path_4559" data-name="Path 4559" d="M97.405,32.008c2.483,2.375,5.036,4.685,7.431,7.145,2.092,2.144.2,4.551.181,6.838a6.185,6.185,0,0,1-3.692.7c-9.055-.012-18.111.02-27.163-.044-1.017-.006-2.682.754-2.936-.821-.172-1.09,1.142-2.235,2.211-2.375,2.124-.283,3.035-1.715,4.291-3.12,1.712-1.913,4.227-2.191,6.7-1.773,1.043.175,1.96.762,2.512-.754,1.794-4.937,6.26-5.156,10.466-5.8" transform="translate(79.921 52.794)" fill="#fcfdfd"/>
      <path id="Path_4560" data-name="Path 4560" d="M29.815,58.816l-5.93-3.792c.631-3.391,2.614-6.213,4.151-9.169A171,171,0,0,0,35.251,29c.862-2.2-.339-3.783-1.452-5.375-.505-.722-1.072-1.525-.418-2.144.841-.8.99.459,1.417.838.8.719,1.247.2,1.589-.462a14.288,14.288,0,0,0,1.285-2.839c.421-1.6.657-3.608,2.895-2.848,1.461.5,3.137,1.569,2.725,3.768-.064.181-.131.362-.2.543.178-.07.356-.14.535-.213,1.274.362,1.569.911.412,1.849-3.634,2.959-4.741,6.984-4.785,11.451-.093,9.555-4.3,17.573-9.441,25.244" transform="translate(56.258 22.056)" fill="#f4b280"/>
      <path id="Path_4561" data-name="Path 4561" d="M32.095,44.818q-6.3-.552-12.593-1.107a3.425,3.425,0,0,0-2.886.724c-1.279-.245-2.635-.3-3.558-1.426,5.6-2.489,8.389-7.271,10.738-12.6s7.3-7.44,12.19-5.661a8.863,8.863,0,0,1,5.822,6.435c.727,2.912,1.081,5.915,1.6,8.88a10.874,10.874,0,0,1-5.991,5.089A6.871,6.871,0,0,1,38.1,39.2c2.226-3.759,1.68-7.4-1.215-10.6A4.262,4.262,0,0,0,32.9,26.968c-1.934.313-2.042,2.512-1.837,3.272.625,2.325-.882,3.222-2.211,4.011-2.7,1.6-2.249,2.909.117,4.145,2.676,1.4,4.069,3.315,3.126,6.424" transform="translate(35.458 37.652)" fill="#373b5d"/>
      <path id="Path_4562" data-name="Path 4562" d="M117.032,43.938c1,.932.713,2.156.713,3.289q.026,20.256.006,40.51c-.006,5.091-2.3,7.42-7.5,7.428q-33.033.057-66.067,0c-5.1-.009-6.888-1.919-6.888-7.028q-.018-33.349,0-66.7c0-4.823,1.7-6.622,6.38-6.628,22.487-.023,44.976.009,67.466-.053a11.667,11.667,0,0,1,5.293,1.478c.315,2.235-1.574,3.269-2.67,4.668q-15.38,19.59-30.879,39.093c-2.495,3.143-2.565,3.126-4.639-.207Q71.151,48.392,64.11,36.965c-3.035-4.925-8.118-6.467-12.432-3.719C47.8,35.715,46.963,41.1,49.747,45.585c7.157,11.55,14.477,23,21.4,34.691,4.618,7.794,11.889,6.876,16.259,1.04,9.114-12.166,18.754-23.938,28.189-35.865.429-.543.955-1.011,1.437-1.513" transform="translate(77.889 4.547)" fill="#fafafa"/>
      <path id="Path_4563" data-name="Path 4563" d="M38.294,42.021c4.072,1.484,7.726,3.97,12,4.98.029,2.632-1.314,4.534-2.749,6.681-1.4,2.092-1.776,5.027-2.045,7.647a10.107,10.107,0,0,1-1.481,5.106,4.533,4.533,0,0,1-.651.2L42.6,66.6c-.1-.053-.2-.108-.3-.161.1.055.2.108.292.164l.167,1.566.076-.053c-.9.19-1.022.6-.365,1.247a106.8,106.8,0,0,1-8.839,21.2c-2.562,4.618-3.789,4.96-8.278,2.3A46.562,46.562,0,0,1,8.21,74.872a3.353,3.353,0,0,1-.52-2.644,14.785,14.785,0,0,0,4.116-3.409c2.322-.134,3.283,1.925,4.767,3.07,2.623,2.021,5.065,4.274,8.051,6.832.409-5.728.733-10.788,1.145-15.841.2-2.43.456-4.864.868-7.265.856-4.98,3.187-8.924,8.118-10.922a7.262,7.262,0,0,0,3.54-2.673" transform="translate(24.953 72.03)" fill="#373b5d"/>
      <path id="Path_4565" data-name="Path 4565" d="M15.262,54.622a14.683,14.683,0,0,1-4.116,3.406c-2.258-1.525-2.5-4.887-5.357-5.866A9.289,9.289,0,0,1,11.7,49.411c.973,1.884,3.055,3.012,3.567,5.211" transform="translate(21.494 86.227)" fill="#edac7e"/>
      <path id="Path_4569" data-name="Path 4569" d="M22.864,67.076h-.076c-.137-.117-.283-.237-.426-.356.167.12.336.237.5.356" transform="translate(-13.923 119.479)" fill="#fefefe"/>
      <path id="Path_4577" data-name="Path 4577" d="M99.137,52.336l-.026-1.414c.634.459.6.932.026,1.414" transform="translate(133.52 89.129)" fill="#e3ba9a"/>
      <path id="Path_4578" data-name="Path 4578" d="M19.331,34.76c1.209,2.758,4.075,2.27,6.216,2.857,2.512.689,3.292,1.808,3.283,4.323-.023,4.738.318,9.479.508,14.22C17.818,55.564,10.08,45.617,11.318,33q4.009.881,8.013,1.759" transform="translate(31.867 54.701)" fill="#373b5d"/>
      <path id="Path_4581" data-name="Path 4581" d="M22.922,42.986c.944-3.108-.45-5.024-3.126-6.424-2.366-1.236-2.816-2.541-.117-4.145,1.329-.789,2.836-1.685,2.211-4.011-.2-.759-.1-2.959,1.837-3.272a4.262,4.262,0,0,1,3.987,1.633c2.895,3.2,3.441,6.844,1.215,10.6a6.871,6.871,0,0,0-.689,5.944c.278,1.948.654,3.888.8,5.845.091,1.218.251,2.717-1.5,3.07a3.058,3.058,0,0,1-3.628-2.045c-.944-2.29-.894-4.767-.984-7.2" transform="translate(44.631 39.485)" fill="#edac7e"/>
      <path id="Path_4582" data-name="Path 4582" d="M83.274,29.625c.231.263.464.526.7.789-.231-.263-.464-.526-.7-.789" transform="translate(103.095 48.216)" fill="#dee6f3"/>
      <path id="Path_4583" data-name="Path 4583" d="M31,17.687c-.178.07-.356.14-.535.213.067-.181.134-.362.2-.546q.171.162.333.333" transform="translate(1.636 24.642)" fill="#dfe7f3"/>
      <path id="Path_4584" data-name="Path 4584" d="M19.765,50.544c-.1-.056-.193-.108-.292-.164.1.053.2.108.3.161l0,0" transform="translate(-19.473 88.088)" fill="#253a71"/>
    </g>
  </g>
</svg>
