<svg id="Group_1276" data-name="Group 1276" xmlns="http://www.w3.org/2000/svg" width="127" height="75" viewBox="0 0 127 75">
  <g id="Group_568" data-name="Group 568">
    <path id="Path_5202" data-name="Path 5202" d="M0,67.408V63.893a1.862,1.862,0,0,1,1.453-.4c2.9-.008,5.8-.058,8.7.023a6.546,6.546,0,0,0,3.48-.465,3.737,3.737,0,0,1,2.735.177,8.19,8.19,0,0,0,3.487.18,13.645,13.645,0,0,1,7.086.722,1.429,1.429,0,0,0,.508.073c3.1.036,6.2.138,9.218-.771a4.925,4.925,0,0,1,2.057-.1,25.339,25.339,0,0,0,5.782.016,8.994,8.994,0,0,1,2.271.057,9.766,9.766,0,0,0,2.681-.01,13.084,13.084,0,0,1,5.631.435,7.505,7.505,0,0,0,3.758.114c1.851.09,3.686.4,5.545.369a11.52,11.52,0,0,1,2.667-.134,6.1,6.1,0,0,0,1.8.135,20.282,20.282,0,0,0,5.047-.771c1.357-.271,2.636.36,3.971.406a6.664,6.664,0,0,0,1.941-.014c.395-.1.861-.1.869.531a1.892,1.892,0,0,1-1.216.81,7.38,7.38,0,0,1-4.277.907q-11.03-.039-22.06,0c-1.521,0-3.031-.092-4.543-.225a5.028,5.028,0,0,1-1.985-.818,3.085,3.085,0,0,0-.6-.132c-1.606-.3-2.044-.01-2.914,1.934-.356.451-.29,1.168-.916,1.449a3.1,3.1,0,0,1-1.615.264c-7.286,0-14.572-.012-21.857.016-1.281,0-2.238-.323-2.628-1.644a5.631,5.631,0,0,1-.519-.995,1.814,1.814,0,0,0-3.11-.486,12.193,12.193,0,0,1-.882,1,4.543,4.543,0,0,1-3.283,1.284c-2.244-.016-4.488,0-6.731-.007A1.993,1.993,0,0,1,0,67.408" transform="translate(0 -8.75)" fill="#f1a5bf" opacity="0.5"/>
    <path id="Path_5203" data-name="Path 5203" d="M58.844,63.877c-1.014.05-2.031.171-3.042.13-.912-.037-1.719-.574-2.667-.645a16.4,16.4,0,0,0-3.7.019,4.01,4.01,0,0,1-1.127.074c-2.642-.373-5.28.073-7.921.028-.7-.011-1.359-.181-2.044-.234a14.956,14.956,0,0,0-3.944.576,32.716,32.716,0,0,1-7.209.191,16.4,16.4,0,0,1-3.269-.788,8.157,8.157,0,0,0-3.263.089,13.023,13.023,0,0,1-5.388-.339,2.781,2.781,0,0,0-2.834.716c-.173.161-.354.461-.574.185-.487-.607-1.136-.4-1.728-.4C6.759,63.456,3.379,63.465,0,63.465V61.19a1.841,1.841,0,0,1,2.055-.563,4.876,4.876,0,0,0,2.545,0,2.236,2.236,0,0,1,.92-.08,35.869,35.869,0,0,0,8.32.075,41.5,41.5,0,0,1,5.343.292,1.082,1.082,0,0,1,.664.258,5.366,5.366,0,0,0,3.078.959c1.807.265,3.546.912,5.375,1.038a20.464,20.464,0,0,0,11.288-2.271,3.391,3.391,0,0,1,.947-.4,3.078,3.078,0,0,0,1.28-.3,5.882,5.882,0,0,1,2.524-.4,33.249,33.249,0,0,0,3.4-.1,3.174,3.174,0,0,1,2.1.72,1.343,1.343,0,0,0,1.132.342,1.653,1.653,0,0,1,.979.285,18.062,18.062,0,0,0,5.971,2.234c.368.086.865.035.923.611" transform="translate(0 -8.303)" fill="#f09db5" opacity="0.5"/>
    <path id="Path_5204" data-name="Path 5204" d="M11.6,66.426a2.509,2.509,0,0,1,2.691-1.65c1.249.1,1.485,1.158,1.869,2.063a13.147,13.147,0,0,0,5.465,7.131,1.338,1.338,0,0,0,.872.236c4.509-.195,9.022-.073,13.533-.067a3.505,3.505,0,0,0,3.034-1.345c1.17-1.437,2.521-2.726,3.2-4.5.331-.353.167-.951.618-1.245.531.237.369.662.28,1.058a5.352,5.352,0,0,1-2.143,3.7,6.178,6.178,0,0,0-1.243,1.447c-.3.452-.512.976-1.037,1.241A4.561,4.561,0,0,0,37.5,75.732a2.7,2.7,0,0,1-1.839.523c-3.616-.014-7.232.019-10.847-.028-.754-.01-1.476.345-2.231.125-1.338-.786-2.245-2.136-3.679-2.8a.146.146,0,0,1-.074-.069c-.668-1.877-2.071-1.778-3.687-1.522-.934.148-2.032.117-2.427-1.184-.153-.5-.495-.433-.676.035-.3.78-.787.919-1.552.614-.707-.281-.918.458-1.241.819C8.314,73.3,7.442,74.4,6.562,75.494a2.792,2.792,0,0,1-2.531,1.084C2.692,76.5,1.344,76.559,0,76.559V73.251a1.869,1.869,0,0,1,1.459-.369c1.311-.023,2.626.071,3.932-.044,2.591-.228,4.134-1.843,5.187-4.048A18.712,18.712,0,0,1,11.6,66.426" transform="translate(0 -9.086)" fill="#f1a5bf" opacity="0.5"/>
    <path id="Path_5205" data-name="Path 5205" d="M11.6,66.685a8.15,8.15,0,0,1-3.513,6,5.225,5.225,0,0,1-3.036.823c-1.684.018-3.369.005-5.053.005V67.926c2.644,0,5.29-.064,7.931.026a5.627,5.627,0,0,0,3.67-1.267" transform="translate(0 -9.345)" fill="#f1a5bf" opacity="0.5"/>
    <path id="Path_5206" data-name="Path 5206" d="M4.211,54.9a48.143,48.143,0,0,0,5.821-.6,7.625,7.625,0,0,1,1.119-.055c.913.052,1.787.365,2.71.375a.589.589,0,0,1,.586.5.88.88,0,0,1-.4.894,13.2,13.2,0,0,1-2.124,1.268,1.572,1.572,0,0,1-.263.128c-.54.179-1.083.353-1.612.568a1.325,1.325,0,0,1-.287.08,18.419,18.419,0,0,0-2.2.656c-1.017.272-2.074.286-3.1.485A18.844,18.844,0,0,1,1.4,59.132,2.137,2.137,0,0,1,0,58.6V55.082a19.643,19.643,0,0,1,3.084-.1,3.269,3.269,0,0,0,1.126-.08" transform="translate(0 -7.549)" fill="#f1a5bf" opacity="0.5"/>
    <path id="Path_5207" data-name="Path 5207" d="M125.677,74.732c.841,0,1.183-.165,1.079-1.051a22.354,22.354,0,0,1-.05-2.26q0-1.852,0-3.706c-.6-.773-.344-1.652-.313-2.5-.11-2.247-.115-4.494,0-6.741a37.9,37.9,0,0,1,0-4.945,27.811,27.811,0,0,1,0-4.167c-.144-3.9-.04-7.792-.058-11.688a1.466,1.466,0,0,1,.376-1.036V20.171q.017-10.087.035-20.171c.432.228.194.625.194.927q.022,21.971.013,43.942,0,14.664.017,29.328c0,.614-.125.738-.742.737Q63.474,74.907.725,74.9c-.212,0-.611.328-.725-.184" fill="#fefefe"/>
    <path id="Path_5208" data-name="Path 5208" d="M0,59.19a30.052,30.052,0,0,0,4.558.209c.5.331.993.018,1.492.016a49.557,49.557,0,0,0,6.878-.688,8.257,8.257,0,0,1,5.153.966,8.609,8.609,0,0,0,1.793.79,20.151,20.151,0,0,0,2.58,1.192c.269.086.6.2.544.618-1.143-.126-2.32-.107-3.252-.974-.346-.322-.839-.227-1.282-.274-3.563-.385-7.124.144-10.686.01a4.307,4.307,0,0,1-2.214-.309.669.669,0,0,0-.69.052,3.025,3.025,0,0,1-2.313.2A4.253,4.253,0,0,0,0,61.051Z" transform="translate(0 -8.157)" fill="#f1a5bf" opacity="0.5"/>
    <path id="Path_5210" data-name="Path 5210" d="M72.471,20.05c.569-.391.865-.084.869.448.017,2.57-.012,5.142-.031,7.713,0,.419-.2.649-.652.547s-.427-.366-.228-.68c.1-.155-.018-.25-.081-.363q.062-3.832.124-7.665" transform="translate(-9.775 -2.771)" fill="rgba(54,89,151,0.56)"/>
    <path id="Path_5211" data-name="Path 5211" d="M79,26c-.67.942-1.332,1.89-2.014,2.823-.2.275-.338.8-.831.526-.591-.331-.074-.749.077-1.038a16.656,16.656,0,0,1,1.119-1.661c.73-1.053,1.452-2.111,2.2-3.154.221-.311.364-.771.9-.67.332.275.251.546.034.86-.3.433-.56.893-.837,1.342-.2.336-.118.857-.649.972" transform="translate(-10.26 -3.177)" fill="#365997"/>
    <path id="Path_5212" data-name="Path 5212" d="M67.242,26.4A12.87,12.87,0,0,0,68.6,28.534c.159.265.4.544.026.8s-.555-.056-.735-.306c-1.315-1.832-2.44-3.8-3.889-5.536a.394.394,0,0,1,.125-.617c.472-.155.72.07.975.459.684,1.04,1.421,2.044,2.137,3.064" transform="translate(-8.641 -3.179)" fill="#365997"/>
    <path id="Path_5213" data-name="Path 5213" d="M65.662,36.009a6.561,6.561,0,0,0,2.866,1.051,14.915,14.915,0,0,0,5.551-.009c1.422-.111,2.757-.8,4.246-.547a9.048,9.048,0,0,1,2.761.8,5.955,5.955,0,0,1,1.99,2.308,6.711,6.711,0,0,1,.735,5.921,8.17,8.17,0,0,0,.17,3.747,10.9,10.9,0,0,1,.187,1.422,2.422,2.422,0,0,1-1.66,2.457,15.691,15.691,0,0,1-2.8,1.034,7.715,7.715,0,0,0-2.606.936,2.133,2.133,0,0,1-1.506.194,1.442,1.442,0,0,0-1.085.151,1.452,1.452,0,0,1-1.429-.151c-.308-.456,0-.882.061-1.322.629-.712,1.5-1.139,2.128-1.89.319-.384.878-.012,1.267.306.36.3.743.511,1.124-.053-.491-.26-1.229-.251-1.081-1.081,1.223-.968,1.16-1.852-.181-2.551-.6-.312-1.064-.436-1.256.478-.123.585-.635.769-1.227.632-.725-.362-.709-1.032-.71-1.7a.6.6,0,0,1,.259-.309c1.062-.654,1.054-1.287-.041-1.9-1.832-1.019-3.661-1.342-5.566.1a4.08,4.08,0,0,1,2.578,3.483,2.176,2.176,0,0,1-.666,1.961c-.335.353-.78.465-1.124-.068.124-.85.62-1.694.047-2.558a2.792,2.792,0,0,0-.483-.673c-1.327-.694-2.346-.6-3.091.274a2.186,2.186,0,0,0,.106,2.993c.148.431.375.87-.286,1.264a2.628,2.628,0,0,1,2.885,1.387c.277.552.545-.413.834-.017a1.117,1.117,0,0,1,.157,1.127.852.852,0,0,1-.789.382,13.527,13.527,0,0,1-3.9-.5,3.3,3.3,0,0,0-1.969-1.312,8.094,8.094,0,0,1-5.1-3.524c-.818-1.712-.563-3.571-.632-5.362a9.755,9.755,0,0,1,.7-3.929c1.1-2.795,2.982-4.552,6.12-4.69a.836.836,0,0,0,.742-.35c.485-.6,1.107-.008,1.674.074" transform="translate(-7.635 -5.006)" fill="#ececec"/>
    <path id="Path_5214" data-name="Path 5214" d="M95.024,30.9a10.452,10.452,0,0,1,4.243-3.752,5.376,5.376,0,0,1,5.275.41c.04.4,1.022.919-.141,1.183-.638-.091-1.227-.36-1.853-.49a4.266,4.266,0,0,0-3.2.355,4.666,4.666,0,0,0-1.29.816,2.56,2.56,0,0,0-.859.891,8.509,8.509,0,0,0-1.761,4.623,9.727,9.727,0,0,0-.2,1.97,8.854,8.854,0,0,0,.247,3.633c.135.733.356,1.456.454,2.2-.353,1.794.767,3.14,1.435,4.615.995,2.2,2.918,3.481,4.849,4.728a19.641,19.641,0,0,1,1.878,1.254,1.423,1.423,0,0,0,1.942.209.841.841,0,0,1,.787-.155c.895.311,1.87.153,2.739.416a3.682,3.682,0,0,0,2.383-.2c1-.328,2.038-.693,3.011.112.006.606-.446.607-.857.626a2.17,2.17,0,0,0-1.462.343,7.472,7.472,0,0,1-3.869.326,43.067,43.067,0,0,1-5.747-.549,24.541,24.541,0,0,1-5.943-2,2.937,2.937,0,0,1-1.532-1.854A26.461,26.461,0,0,1,92.984,36.58a9.557,9.557,0,0,1,2.04-5.682" transform="translate(-12.568 -3.767)" fill="#d0d0d0"/>
    <path id="Path_5215" data-name="Path 5215" d="M19.159,51.137a24.649,24.649,0,0,0-1.409-4.174,25.79,25.79,0,0,1-.781-12.738,12.773,12.773,0,0,1,1.852-4.161,19.886,19.886,0,0,1,2.513-2.277,5.828,5.828,0,0,1,6.855-.036c-.119.447-.481.592-.871.7-.97.1-1.884-.362-2.869-.25-3.231.368-4.926,2.712-5.68,5.865-.08.332-.05.686-.119,1.025a8.064,8.064,0,0,0-.2,1.937,6.456,6.456,0,0,0,.132,3.148,21.715,21.715,0,0,0,2.126,6.6,15.545,15.545,0,0,0,3.068,3.828,6.982,6.982,0,0,0,2.472,1.417,18.5,18.5,0,0,1,1.838.694c.311.143.7.272.733.658.043.486-.41.568-.75.719a16.98,16.98,0,0,1-4.182-.567,2.042,2.042,0,0,1-.481-.055c-1.208-.493-2.465-.863-3.646-1.426a1.1,1.1,0,0,1-.226-.179,2.086,2.086,0,0,1-.371-.734" transform="translate(-2.225 -3.765)" fill="#d0d0cf"/>
    <path id="Path_5216" data-name="Path 5216" d="M115.665,54.462c.217-.661.778-.321,1.191-.4.387-.08.909.209,1.088-.414.836-1.38,2.314-1.927,3.6-2.713a3.789,3.789,0,0,0,1.2-.9,10.561,10.561,0,0,0,2.323-4.329,23.776,23.776,0,0,0,1.344-7.286c.015-3.227-.366-6.442-3.095-8.745-.722-.61-1.454-1.308-2.556-1.019a23.34,23.34,0,0,0-3.687-.221c-.279-.146-.522-.314-.394-.69a6.494,6.494,0,0,1,4.945-.96,13.668,13.668,0,0,1,3.842,2.788,12.168,12.168,0,0,1,2.81,7.762,25.447,25.447,0,0,1-2.054,11.858,16.057,16.057,0,0,0-.57,1.653c.322.746-.277,1.067-.7,1.418a11.66,11.66,0,0,1-5.211,2.086c-.7.151-1.418.255-2.128.384a2,2,0,0,1-1.948-.267" transform="translate(-15.651 -3.77)" fill="#cfcfce"/>
    <path id="Path_5217" data-name="Path 5217" d="M77.275,55.192c.15-.488.5-.366.839-.274a2.231,2.231,0,0,0,2.052-.367,4.662,4.662,0,0,1,2.036-.7,12.087,12.087,0,0,0,3-1.094,2.389,2.389,0,0,0,1.345-2.8,17.715,17.715,0,0,1-.392-2.83,4.632,4.632,0,0,1,.2-2.281,5.979,5.979,0,0,0-1.385-5.829c-.111-.132-.279-.227-.356-.372-.8-1.531-2.336-1.525-3.742-1.827-1.371-.293-2.668.634-4.037.2,1.1-.47,2.177-1,3.3-1.39a5.39,5.39,0,0,1,2.748-.113,3.463,3.463,0,0,1,3.07,1.64A19.161,19.161,0,0,1,88.416,49.9a2.834,2.834,0,0,0,0,1.116,1.856,1.856,0,0,1-.991,2.336,2.443,2.443,0,0,0-.733.693,6.084,6.084,0,0,1-2.8.929,38.812,38.812,0,0,1-4.9.634c-.591.047-1.254.164-1.719-.412" transform="translate(-10.391 -4.968)" fill="#ddd9d8"/>
    <path id="Path_5218" data-name="Path 5218" d="M55.255,52.143a30.82,30.82,0,0,1-.113-7.982,11.758,11.758,0,0,1,3.646-6.979,13.043,13.043,0,0,1,2.692-1.513,4.856,4.856,0,0,1,3.98.3c-.485.124-.92-.3-1.431-.127.065.27.567.119.483.487-.074.322-.359.262-.588.272a9.8,9.8,0,0,0-2.348.2,6.138,6.138,0,0,0-4.206,3.992,11.745,11.745,0,0,0-.7,5.733c.163,1.242-.035,2.53.464,3.735a18.348,18.348,0,0,0,1.689,2.194c.521.716.421,1.053-.4,1.5a5.017,5.017,0,0,1-2.828-.934,1.04,1.04,0,0,1-.228-.194.624.624,0,0,1-.113-.69" transform="translate(-7.428 -4.962)" fill="#cfcfcd"/>
    <path id="Path_5219" data-name="Path 5219" d="M40.4,27.549a5.226,5.226,0,0,1,5.3-.393,9.381,9.381,0,0,1,5.346,6.768c.048.225.138.44.209.659a14.764,14.764,0,0,1-.528,4.959c-.141.651-.1,1.4-.879,1.733-.582-.355-.423-.9-.3-1.385a12.589,12.589,0,0,0-.562-7.01A7.025,7.025,0,0,0,45.694,28.9a6.017,6.017,0,0,0-4.309-.482,1.8,1.8,0,0,1-.619.059c-.669-.094-.641-.463-.363-.928" transform="translate(-5.439 -3.722)" fill="#cbcacb"/>
    <path id="Path_5220" data-name="Path 5220" d="M51,42.467a1.228,1.228,0,0,0,.42-.9c.087-1.73,1.037-3.32.825-5.1a.654.654,0,0,1,.247-.639.4.4,0,0,1,.151.038,33.383,33.383,0,0,1,.179,6.339,22.267,22.267,0,0,1-1.733,7.565c-.287.651-.465,1.351-.693,2.029.048.512-.131.786-.693.661a.826.826,0,0,1-.265-.927c.438-2.092.5-4.247,1.136-6.313a10.041,10.041,0,0,0,.14-2.335A.632.632,0,0,1,51,42.467" transform="translate(-6.68 -5.018)" fill="#c9bfbf"/>
    <path id="Path_5221" data-name="Path 5221" d="M38.885,27.695c.484.068-.3.6.241.651.011.529-.461.527-.774.666a4.78,4.78,0,0,0-1.445.768,1.752,1.752,0,0,1-1.943,1.158,20.144,20.144,0,0,1-2.665-.028,3.662,3.662,0,0,1-1.913-.927,2.875,2.875,0,0,0-.925-.94c-.248-.146-.569-.3-.491-.7l.9-.457a12.171,12.171,0,0,0,9.018-.2" transform="translate(-3.916 -3.852)" fill="#e0dddf"/>
    <path id="Path_5222" data-name="Path 5222" d="M115.381,27.877a.824.824,0,0,0,.435.468c.036.483-.389.5-.672.636a3.966,3.966,0,0,0-1.38.867,2.082,2.082,0,0,1-1.928.952,22.556,22.556,0,0,1-3.18-.091c-.619-.1-1.225-.244-1.49-.921-.241-.393-.772-.544-.888-1.045.211-.221.459-.406-.051-.613-.428-.173-.065-.308.085-.433a3.444,3.444,0,0,0,2.2.81,14.151,14.151,0,0,0,6.866-.63" transform="translate(-14.339 -3.852)" fill="#e0ddde"/>
    <path id="Path_5223" data-name="Path 5223" d="M61.986,27.764a.82.82,0,0,1,.149.056c1.3,1.007,2.609,2.012,3.9,3.028a.319.319,0,0,1,.042.463c-.145.191-.315.093-.446-.007q-1.918-1.477-3.823-2.97c-.1-.075-.217-.2-.1-.348a1.559,1.559,0,0,1,.275-.222" transform="translate(-8.338 -3.862)" fill="rgba(111,166,214,0.5)"/>
    <path id="Path_5224" data-name="Path 5224" d="M82.893,27.752c.17.222.334.432.013.677-1.192.911-2.376,1.832-3.569,2.743-.174.133-.36.4-.611.132-.319-.339.061-.491.236-.634,1.171-.947,2.359-1.872,3.54-2.8.106-.119.2-.3.39-.112" transform="translate(-10.629 -3.849)" fill="rgba(111,166,214,0.5)"/>
    <path id="Path_5225" data-name="Path 5225" d="M47.415,71.76c.36-.916,1.319-1.483,1.469-2.522.108-.749.632-1.426.395-2.237.6-2.128,1.427-2.612,3.52-2.064.631.594,1.361,1.128,1.309,2.14a7.172,7.172,0,0,0,1.37,3.475,31.249,31.249,0,0,0,3.76,3.812,1.941,1.941,0,0,0,1.567.662c2.515-.247,5.036-.1,7.554-.112,3.382-.022,6.765-.027,10.147.006a1.448,1.448,0,0,0,1.089-.208,20.2,20.2,0,0,0,4.653-5.973,10.847,10.847,0,0,0,.58-2.067,2.211,2.211,0,0,1,1.12-1.529,2.3,2.3,0,0,1,1.041-.421.932.932,0,0,1,.8-.269,1.038,1.038,0,0,1,.622.27,5.854,5.854,0,0,1,1.78,3.617,6.9,6.9,0,0,0,2.3,3.811c.546.523,1.134,1.005,1.659,1.552a3.738,3.738,0,0,0,2.778,1.166c4.272.041,8.546.028,12.819.011.547,0,1.068-.332,1.627-.107a.194.194,0,0,1,.067.3l-.207.207a3.71,3.71,0,0,1-3.107,1.024c-3.643.014-7.288,0-10.932.01a2.911,2.911,0,0,1-1.915-.621c-1.047-.772-2.1-1.537-3.135-2.32-.233-.176-.369-.4-.526.084-.087.27-.421.176-.629.039a.682.682,0,0,1-.229-.837c.372-1.072-.047-1.25-.976-.917a7.013,7.013,0,0,1-3.26,0,1.307,1.307,0,0,1-1.178-.876c-.112-.322-.284-.607-.661-.478-.48.164-.2.428-.071.719.157.359-.1.729-.431.529-.888-.529-1.1.35-1.3.69-1.138,1.859-2.932,3.05-4.429,4.538-.135.134-.311.211-.453.061-.6-.626-1.359-.389-2.057-.392-4.518-.018-9.039-.1-13.553.035A5.081,5.081,0,0,1,58.5,74.8a2.139,2.139,0,0,0-1.622-.753c-.782.037-1.058-.367-1.043-1.062a1.94,1.94,0,0,0-.31-1.069c-.2-.331-.367-.459-.884-.328a8.354,8.354,0,0,1-4.663.069,5.079,5.079,0,0,0-2.563.1" transform="translate(-6.43 -9.043)" fill="#f1a5bf" opacity="0.5"/>
    <path id="Path_5226" data-name="Path 5226" d="M121.4,75.066v-.207c-.172-.449.17-.7.4-.979.962-1.162,1.91-2.335,2.872-3.5a8.661,8.661,0,0,0,1.6-4.261,3.065,3.065,0,0,1,1.024-1.387,1.429,1.429,0,0,1,.6-.278,3.338,3.338,0,0,1,1.826.212A2.986,2.986,0,0,1,131,66.2c.338,3.282,2.3,5.477,4.881,7.254a2.853,2.853,0,0,0,1.674.414c1.409,0,2.818-.007,4.226.007a1.644,1.644,0,0,1,1.346.366q0,1.239,0,2.48c-1.5.088-3.018-.226-4.492.376a1.368,1.368,0,0,1-1.555-.544c-1.171-1.35-2.629-2.425-3.719-3.855-.33-.433-.568-.215-.788.124s-.624.557-.818.165c-.375-.759-.988-.6-1.582-.607-1.552-.008-3.1.006-4.656-.007-.5,0-.812.072-.628.694.088.3.051.771-.343.709-1.338-.211-2.155.718-3.141,1.289" transform="translate(-16.419 -9.04)" fill="#f09eb5" opacity="0.5"/>
    <path id="Path_5227" data-name="Path 5227" d="M102.733,77.377a5.682,5.682,0,0,0,1.734.212q5.542-.016,11.081,0a4.656,4.656,0,0,0,3.138-.623,3.23,3.23,0,0,1-3.114,1.434c-3.653.035-7.306,0-10.958.021a2.041,2.041,0,0,1-1.882-1.042" transform="translate(-13.896 -10.731)" fill="#f5cfdc" opacity="0.5"/>
    <path id="Path_5228" data-name="Path 5228" d="M26.1,78.061c3.781-.87,7.618-.207,11.423-.413a13.449,13.449,0,0,0,3.495-.208,1.646,1.646,0,0,1-1.552.828q-6.3,0-12.6,0a.941.941,0,0,1-.77-.206" transform="translate(-3.531 -10.795)" fill="#f5cfdc" opacity="0.5"/>
    <path id="Path_5229" data-name="Path 5229" d="M44.781,75.814l1.036-1.241c-.134.589-.337,1.121-1.036,1.241" transform="translate(-6.055 -10.409)" fill="#6fa6d6" opacity="0.5"/>
    <path id="Path_5230" data-name="Path 5230" d="M124.825,65.557l-1.035-1.247a2.84,2.84,0,0,0-.723-.4,5.948,5.948,0,0,0-2.867.123,9.3,9.3,0,0,1-4.2.039,4.454,4.454,0,0,0-3.126.212c-.712.365-1.5.055-2.251.138a47.267,47.267,0,0,1-6.6-.015c-1.736-.048-3.41-.338-5.114-.5a7.239,7.239,0,0,0-2.358.2,7.426,7.426,0,0,1-3.785-.038c-.3-.085-.6-.2-.884.03h-.827c-.051-.292-.223-.447-.508-.334-1.433.57-2.8.1-4.194-.194A5.965,5.965,0,0,0,83,63.808a4.623,4.623,0,0,1-2.9.343c-.805-.2-1.678.465-2.515-.044-.016-.473.378-.566.684-.613a36.952,36.952,0,0,0,5.975-1.8,2.451,2.451,0,0,0,.7-.174c2.851-1.459,5.887-1.325,8.966-1.176a13.316,13.316,0,0,1,4.666,1.106,23.673,23.673,0,0,0,10.2,1.816,18.878,18.878,0,0,0,7.54-2,8.2,8.2,0,0,1,3.792-.847,15.706,15.706,0,0,0,4.611-.47,2.293,2.293,0,0,1,1.526.055,34.025,34.025,0,0,0,5.712,1.3,20.138,20.138,0,0,0,3.816.144c.512.018,1.049-.046,1.448.392q0,2.481,0,4.964a1.525,1.525,0,0,1-1.233.395c-2.675.012-5.352.074-8.024-.027a3.63,3.63,0,0,1-3.142-1.611" transform="translate(-10.518 -8.338)" fill="#f1a5bf" opacity="0.5"/>
    <path id="Path_5231" data-name="Path 5231" d="M44.786,68.613c.119,1.775-1.235,2.74-2.186,3.916-.43.532-.955.98-1.354,1.55a2.011,2.011,0,0,1-1.827.745c-4.239-.018-8.478-.011-12.717-.006a4.8,4.8,0,0,0-1.74.142.872.872,0,0,1-.879-.166,17.387,17.387,0,0,1-4.38-4.444,6.682,6.682,0,0,1-1.023-3.187c.5,1.679,1.773,1.692,3.231,1.681,7.154-.056,14.31-.026,21.465-.026a2.665,2.665,0,0,0,1.41-.2" transform="translate(-2.518 -9.41)" fill="#f1a5bf" opacity="0.5"/>
    <path id="Path_5232" data-name="Path 5232" d="M86.787,65.219q-.414.723-.827,1.445c-.459.875-.508,1.89-.989,2.769a1.66,1.66,0,0,1-1.384.921,11.613,11.613,0,0,1-1.344.035q-12.364.005-24.728,0c-1.51,0-2.061-.39-2.455-1.816a13.683,13.683,0,0,1-.382-1.5c.01-.867-.818-1.315-1.039-2.067,1.655,1.042,3.529,1.014,5.369,1.021,7.484.029,14.969,0,22.453.021,1.828,0,3.655.106,5.327-.836" transform="translate(-7.26 -9.05)" fill="#f1a5bf" opacity="0.5"/>
    <path id="Path_5233" data-name="Path 5233" d="M81.414,61.776a41.82,41.82,0,0,1-6.632,2.068,32.3,32.3,0,0,1-8.282-.206,44.722,44.722,0,0,1-5.454-1.616c-.857-.352-1.478-1.115-2.422-1.275a2.352,2.352,0,0,1-1.242-.69c-.375-.332-.773-.728-.5-1.229.323-.587.874-.258,1.274-.049a20.087,20.087,0,0,0,4.992,1.636,33.759,33.759,0,0,0,18.335-.9,39.035,39.035,0,0,0,3.664-1.407c.437-.2.973-.43,1.278.144.29.549-.164.906-.555,1.184a25.7,25.7,0,0,1-4.458,2.337" transform="translate(-7.686 -8.062)" fill="#f3afc6"/>
    <path id="Path_5234" data-name="Path 5234" d="M13.34,57.092c.753-.453,1.512-.9,2.256-1.364.226-.143.46-.347.361-.664-.093-.294-.382-.254-.608-.24-.433.028-.852-.173-1.3.034-.652.3-.535-.84-1.156-.677a18.04,18.04,0,0,1,4.559-.337c.17.01.328.22.491.337-.157.554.688.555.6,1.075-.048.631-.5.855-1.019.972a11.068,11.068,0,0,0-2.577.932,1.249,1.249,0,0,1-1.6-.069" transform="translate(-1.738 -7.486)" fill="#f09db5" opacity="0.5"/>
    <path id="Path_5235" data-name="Path 5235" d="M19.054,55.083c-.207-.161-.624.029-.661-.443-.021-.265.044-.372.287-.4l.733.617c.389.033.491.291.49.627-.459.241-.639-.109-.849-.4" transform="translate(-2.479 -7.537)" fill="#f09db5" opacity="0.5"/>
    <path id="Path_5236" data-name="Path 5236" d="M17.28,54.957l.848.4-.01,0a1.416,1.416,0,0,0,.948.676c.95.19,1.836.632,2.8.772l.381.031a2.582,2.582,0,0,0,1.982.613c1.008-.089,2.027.26,3.035-.051a1.175,1.175,0,0,1,.825.056,2.658,2.658,0,0,0,2.088.241,5.219,5.219,0,0,1,2.333.009,1.452,1.452,0,0,0,1.27-.241,1.563,1.563,0,0,1,.664-.148c1.025.059,2.05-.008,3.074.029a3.182,3.182,0,0,0,1.62-.55.876.876,0,0,1,.284-.125,3.208,3.208,0,0,0,1.673-.324,5.691,5.691,0,0,1,2.03-.651,1.735,1.735,0,0,0,1.588-.964c.255-.539.6-.511.932-.093.482.613.975.781,1.651.26.543-.418,1.032-.1,1.48.253l-.007-.007c.7,1.15,1.864,1.047,2.969,1.113a13.794,13.794,0,0,1,5.306.966,19.926,19.926,0,0,0,4.9.294,7.066,7.066,0,0,1,4.083.012,3.559,3.559,0,0,0,1.571.082,26.377,26.377,0,0,0,9.343-1.416,1.507,1.507,0,0,1,.661-.429,2.891,2.891,0,0,0,1.935-1.793c.06-.187.131-.393.388-.407.108.106,0,.536.327.3a2.328,2.328,0,0,1,3.384.392c.176.179.279.143.368-.065a3.742,3.742,0,0,0,2.15,1.862c4.053,1.944,8.383,2.134,12.744,2.189a15.605,15.605,0,0,0,1.839-.187,18.069,18.069,0,0,0,8.459-2.065,2.809,2.809,0,0,0,1.526-1.556,2.155,2.155,0,0,1,2.335.052,29.677,29.677,0,0,0,8.016,1.688c2.1.275,4.226.416,6.341.617q0,2.084,0,4.169c-1.923-.074-3.884.27-5.763-.235-1.743-.468-3.624-.343-5.26-1.25a1.705,1.705,0,0,0-1.4-.055,9.061,9.061,0,0,1-3.553.491,12.042,12.042,0,0,0-5.751,1.226,18.816,18.816,0,0,1-9.317,1.549,27.528,27.528,0,0,1-9.558-2.574,1.944,1.944,0,0,0-.692-.18,54.112,54.112,0,0,0-8.424.013c-.846.061-1.468.73-2.27.951a2.782,2.782,0,0,1-.985.265,46.012,46.012,0,0,0,4.272-2.642c.278-.224.809-.373.54-.829s-.6.017-.874.14a35.539,35.539,0,0,1-10.856,3.042,38.608,38.608,0,0,1-7.619-.059,32.529,32.529,0,0,1-7.575-1.747,18.534,18.534,0,0,1-1.775-.829c-.154-.073-.335-.17-.459.016a.363.363,0,0,0,.086.468c.489.476.988.941,1.482,1.41-.44.4-.761.01-1.1-.181a4.075,4.075,0,0,0-2.877-.7c-1.407.239-2.876,0-4.319.157-.722.08-1.283.724-2.062.514-.059-.617.46-.793.837-1.05a5.367,5.367,0,0,0,1.366-1.09c.119-.157.309-.35.146-.548-.215-.264-.446-.063-.623.087a11.6,11.6,0,0,1-3.984,2.14,25.716,25.716,0,0,1-11.818,1.179,25.655,25.655,0,0,1-5.435-1.215,3.675,3.675,0,0,1-1.89-1.192.919.919,0,0,0-1.09-.329c.2.632.727.908,1.141,1.279.291.26.763.4.639.946a30.818,30.818,0,0,1-3.715-1.64,1.856,1.856,0,0,0-1.094-.222,42.169,42.169,0,0,0-5.3.523c-1.533.224-3.084-.084-4.61.234-.169.035-.4-.22-.6-.341l3.105-.415a15.48,15.48,0,0,0,2.279-.62,5.311,5.311,0,0,0,1.656-.62,2.786,2.786,0,0,0,1.939-.516,4.958,4.958,0,0,1,2.241-.7c.548-.081.818-.293.791-.848" transform="translate(-0.71 -7.434)" fill="#f1a5bf" opacity="0.5"/>
    <path id="Path_5237" data-name="Path 5237" d="M22.61,60.63a17.5,17.5,0,0,1-2.172-1.859c-.143-.189-.356-.357-.215-.629.114-.221.345-.191.547-.2.655-.017,1.306-.1,1.563.778.116.4.6.519,1,.668A26.146,26.146,0,0,0,33.826,61a23.659,23.659,0,0,0,4.425-.666,25.488,25.488,0,0,0,3.335-.945,8.772,8.772,0,0,0,3.384-2.029.684.684,0,0,1,1.126-.025c.43.409.132.6-.066.938-.634,1.067-1.912,1.3-2.7,2.152A18.177,18.177,0,0,1,36.541,62.9a18.043,18.043,0,0,1-8.736-.292c-.689-.2-1.391-.352-2.088-.526A18.75,18.75,0,0,1,22.61,60.63" transform="translate(-2.72 -7.945)" fill="#f2a8c1" opacity="0.5"/>
    <path id="Path_5238" data-name="Path 5238" d="M11.139,58.319a3.481,3.481,0,0,1-2.279.62,5.817,5.817,0,0,1,2.279-.62" transform="translate(-1.194 -8.102)" fill="#f5cfdc"/>
    <path id="Path_5239" data-name="Path 5239" d="M13.152,57.6a1.9,1.9,0,0,1-1.658.62,5.057,5.057,0,0,1,1.658-.62" transform="translate(-1.549 -8.003)" fill="#f5cfdc"/>
    <path id="Path_5240" data-name="Path 5240" d="M132.186,66.448a7.832,7.832,0,0,0,3.843,1.268c2.849-.1,5.7-.026,8.555-.024v6.823c-1.584,0-3.174-.087-4.752.022a4.857,4.857,0,0,1-3.865-1.308c-1.772-1.656-3.446-3.377-3.739-5.958-.031-.272-.029-.548-.043-.822" transform="translate(-17.878 -9.313)" fill="#f09eb5" opacity="0.5"/>
    <path id="Path_5241" data-name="Path 5241" d="M77.889,52.689c.329.722.789,1,1.482.41.18.269-.106.379-.145.565-.221,1.05-.688,1.212-1.52.545-1-.8-1.222-.732-1.521.5-.1.42-.491.669-.748.459-.531-.434-.591.218-.889.265a.667.667,0,0,1-.5.32c-1.427.021-2.888.463-4.256-.316-.311.147-.433,1.134-1.005.071a1.647,1.647,0,0,0-2.133-.953.552.552,0,0,1-.791-.254c-.176-.387-.008-.6.349-.682.435-.1-.14-.555.256-.641a.719.719,0,0,1,.436-.447,11.344,11.344,0,0,1,2.4-.563,1.178,1.178,0,0,1,.685.8c.716.166,1.778-.87,1.472-1.539-.44-.963-.279-2.195-1.405-2.892a6.033,6.033,0,0,0-.968-.42c-.24-.1-.589-.132-.593-.475,0-.264.267-.375.475-.495a5.449,5.449,0,0,1,5.9.079c.588.353,1.166.71,1.1,1.571-.074.959-.921.716-1.425,1.005a.452.452,0,0,1-.209.366,1.716,1.716,0,0,0-.42,2.69c.144.157.3.119.467.052.277-.093.569-.122.842-.228a5.179,5.179,0,0,0,1.215-.231c.307-.035.512-.331.828-.329.507,0,.9.109.621.76" transform="translate(-8.899 -6.435)" fill="#f1f1f1"/>
    <path id="Path_5242" data-name="Path 5242" d="M64.109,57.122a22.429,22.429,0,0,1-4.565-.693c-.268-.048-.537-.088-.805-.132-.149-.054-.16-.127-.032-.221.6-.24.591-.551.262-1.081a8.8,8.8,0,0,1-1.494-2.415,9.914,9.914,0,0,0,5.637,3.4c.452.123,1.4.14,1,1.146" transform="translate(-7.772 -7.317)" fill="#dcdad9"/>
    <path id="Path_5243" data-name="Path 5243" d="M66.848,53.169l-.432.219a.638.638,0,0,1-.619-.266,2.688,2.688,0,0,1,.583-3.439,2.478,2.478,0,0,1,3.31.189.582.582,0,0,1-.511.636,5.627,5.627,0,0,0-1.435.637.488.488,0,0,1-.179-.084c-.257-.174-.3-.78-.7-.563-.469.254.048.632.083.96a7.184,7.184,0,0,1-.1,1.711" transform="translate(-8.844 -6.837)" fill="#365997"/>
    <path id="Path_5244" data-name="Path 5244" d="M67.026,53.283c-.585-.547-.165-1.1-.009-1.648a.794.794,0,0,1,.841-.425,1.178,1.178,0,0,1,1.357-.85c.322.057.471-.188.652-.375q.23.3.461.591c-.76.485-.585,1.349-.829,2.043a4.874,4.874,0,0,1-2.474.664" transform="translate(-9.022 -6.952)" fill="#373b5d"/>
    <path id="Path_5245" data-name="Path 5245" d="M70.408,56.889l4.755,0c.262.484-.007.811-.332,1.122A12.6,12.6,0,0,1,70.743,58a.98.98,0,0,1-.336-1.106" transform="translate(-9.513 -7.905)" fill="#373b5d"/>
    <path id="Path_5246" data-name="Path 5246" d="M79.471,53.254c.005-.7-.466-.761-.777-.366-.238.3-.407.245-.653.24-.593.138-.6-.162-.345-.525a3.706,3.706,0,0,0,.8-1.753c.056-.507.436-.658.919-.427a1.816,1.816,0,0,1,.831,2.9c-.346.451-.505-.235-.778-.072" transform="translate(-10.484 -6.998)" fill="#373b5d"/>
    <path id="Path_5247" data-name="Path 5247" d="M79.217,50.387c-.252.056-.718,0-.64.337.233.99-.406,1.515-.941,2.132-.154.177.128.16.205.236a3.391,3.391,0,0,1-1.265.212c-.7-.507-.7-.831-.024-1.658,1.069-.02,1.228-.626.962-1.561a2.692,2.692,0,0,1,1.7.3" transform="translate(-10.283 -6.963)" fill="#373b5d"/>
    <path id="Path_5248" data-name="Path 5248" d="M69.9,52.713c-.454-1.349-.232-1.9.828-2.044a2.009,2.009,0,0,1-.214,2.719c-.452,0-.611-.268-.614-.676" transform="translate(-9.421 -7.045)" fill="#373b5d"/>
    <path id="Path_5249" data-name="Path 5249" d="M76.381,51.659c.044.552-.473,1.113.024,1.657a.752.752,0,0,1-.811.159,1.926,1.926,0,0,1-.078-3.089l.241-.235c.158.025.387.02.273.268a1.027,1.027,0,0,0,.35,1.24" transform="translate(-10.111 -6.975)" fill="#365997"/>
    <path id="Path_5250" data-name="Path 5250" d="M118.06,28.65c1.191-.455,1.955.413,2.717,1a8.732,8.732,0,0,1,3.065,6.208,24.207,24.207,0,0,1-2.1,12.486,5.632,5.632,0,0,1-1.606,2.235,7.062,7.062,0,0,1-3.687,1.175,6.712,6.712,0,0,0-1.927.339,15.886,15.886,0,0,1-4.643.778,18.833,18.833,0,0,1-5.386-.7c-.372-.067-.731-.218-1.1-.26-3.241-.36-4.922-2.56-6.242-5.214A13.947,13.947,0,0,1,95.9,43.135a38.948,38.948,0,0,1-.8-4.819c-.028-.4-.144-.825.171-1.182.36.26.336.738.6,1.054a1.682,1.682,0,0,1,.106.643c.964,3.279,1.567,6.689,3.62,9.56a5.4,5.4,0,0,0,5.394,2.331,36.705,36.705,0,0,1,8.449-.141,11.446,11.446,0,0,0,3.389-.274,2.452,2.452,0,0,0,2.237-1.825,2.688,2.688,0,0,1,1.52-1.972c.5-.218.4-.765.4-1.2.025-2.2,0-4.4.016-6.6a2.278,2.278,0,0,1,.465-1.743,1.094,1.094,0,0,1,.234-.208c.729-.4.857-1.329.331-2.441-.354-.783-.574-1.622-.983-2.379a6.209,6.209,0,0,0-2.184-2.424c-.343-.211-.757-.372-.81-.862" transform="translate(-12.873 -4.017)" fill="#e1e1e1"/>
    <path id="Path_5251" data-name="Path 5251" d="M96.027,45.413A3.49,3.49,0,0,1,96.721,47a18.354,18.354,0,0,0,2.461,4.5,4.981,4.981,0,0,0,2.911,1.986,26.665,26.665,0,0,0,5.908,1.3c1.9.031,3.922.363,5.779-.533a10.21,10.21,0,0,1,3.62-.69,9.9,9.9,0,0,0,2.867-.7c-.468.759-1.389.812-2.038,1.3-.949.709-1.953,1.346-2.933,2.013-1.31,0-2.65-.146-3.776.773a.339.339,0,0,1-.3.04c-1.154-.622-2.514-.124-3.673-.679a.892.892,0,0,0-.89-.035c-1.122.734-1.89.447-2.8-.526a14,14,0,0,0-2.858-1.8c-2.5-1.588-3.61-4.093-4.774-6.6a4.639,4.639,0,0,1-.2-1.935" transform="translate(-12.992 -6.341)" fill="#d8d8d8"/>
    <path id="Path_5252" data-name="Path 5252" d="M95.735,38.731l-.005-.618A5.3,5.3,0,0,1,95.521,35a6.938,6.938,0,0,1,1.866-4.753,1.7,1.7,0,0,0,.831-.827,2.262,2.262,0,0,1,1.249-.822c1.164-.226,2.288-.793,3.524-.419a3.789,3.789,0,0,1,1.854.61,2.409,2.409,0,0,1,1.036.639c.257.51-.134.589-.469.667a1.669,1.669,0,0,1-.918-.074c-2.3-.8-4.679.9-5.528,3.266a10.6,10.6,0,0,0-.462,5.067,4.455,4.455,0,0,1-.052,1.941,1.158,1.158,0,0,1-.989.927c-.53.062-.8-.272-1.053-.673a7.845,7.845,0,0,1-.676-1.82" transform="translate(-12.901 -3.921)" fill="#f6f6f6"/>
    <path id="Path_5253" data-name="Path 5253" d="M103.625,28.164c-1.22-.243-2.316.56-3.524.419a4.1,4.1,0,0,1,3.524-.419" transform="translate(-13.536 -3.881)" fill="#eaeaea"/>
    <path id="Path_5254" data-name="Path 5254" d="M95.507,36.084a13.162,13.162,0,0,0,.209,3.111c-.613-.159-.337-.671-.414-1.042.081-.689-.189-1.412.2-2.07" transform="translate(-12.884 -5.018)" fill="#eaeaea"/>
    <path id="Path_5255" data-name="Path 5255" d="M98.529,29.634c.036.589-.242.863-.83.827.09-.462.517-.588.83-.827" transform="translate(-13.21 -4.117)" fill="#eaeaea"/>
    <path id="Path_5256" data-name="Path 5256" d="M36.181,55.661l-.579.025c-.132.042.047.049-.087.052A28.593,28.593,0,0,1,29.8,55.7l-.826-.027c-.164-.2-.483.016-.631-.231.2-.209,1.032-.357.063-.682-.292-.1-.564-.259-.86-.343-3.495-1.01-5.646-3.474-7.242-6.575a24.3,24.3,0,0,1-2.1-8.357.816.816,0,0,1,.194-.767.49.49,0,0,1,.365.232,1.1,1.1,0,0,1,.136.42c.022.47-.073.965.287,1.367a1.038,1.038,0,0,1,.107.3c.64,2.7,1.06,5.45,2.541,7.9,1.331,2.2,3.1,3.468,5.746,3.267,2.574-.2,5.145-.3,7.731-.258,1.826.027,3.645.08,5.463.228a1.639,1.639,0,0,0,1.286-.12,1.252,1.252,0,0,1,1.171-.161c.252.639-.228.939-.654,1.071-2.035.638-3.7,2.1-5.815,2.547-.188.083-.408.042-.587.156" transform="translate(-2.453 -5.425)" fill="#dedede"/>
    <path id="Path_5257" data-name="Path 5257" d="M18.661,37.9l0-.412a5.468,5.468,0,0,1,0-2.279c-.082-3.147,2.419-6.863,5.876-7.175a15.939,15.939,0,0,1,3.031.359c.429.537,1.561.367,1.458,1.441-.177.625-.638.355-.989.279A5.072,5.072,0,0,0,21.739,34.4a9.4,9.4,0,0,0,.027,3.78,3.332,3.332,0,0,1-.006,1.932,1.384,1.384,0,0,1-1.351,1.078c-.7-.029-.983-.553-1.111-1.166a1.5,1.5,0,0,0-.225-.673h0c-.4-.409-.028-1.036-.412-1.449" transform="translate(-2.499 -3.915)" fill="#f6f6f6"/>
    <path id="Path_5258" data-name="Path 5258" d="M29.249,57.961l.631.231c-1.174.145-2.355-.189-3.554.253-.5.184-1.25-.291-1.421-1.062a32.055,32.055,0,0,0,4.344.578" transform="translate(-3.368 -7.974)" fill="#f5cfdc" opacity="0.5"/>
    <path id="Path_5259" data-name="Path 5259" d="M23.879,57.121c-1.143.314-2.118-.475-3.223-.492-.517-.008-.57-.512-.53-.956a27.468,27.468,0,0,1,3.753,1.448" transform="translate(-2.712 -7.737)" fill="#f5cfdc" opacity="0.5"/>
    <path id="Path_5260" data-name="Path 5260" d="M18.641,36.327q0,1.139,0,2.279l-.208-.209c.087-.689-.195-1.414.207-2.07" transform="translate(-2.483 -5.05)" fill="#ebebeb"/>
    <path id="Path_5261" data-name="Path 5261" d="M120.7,28.612a7.4,7.4,0,0,1,4.154,5.592,2.317,2.317,0,0,1-.42,2.689h0c-.985.414-1.449.3-1.988-.562a9.5,9.5,0,0,1-1.107-2.762,4.1,4.1,0,0,0-5.147-3.207c-.2.042-.4.107-.6.131-.86.1-1.019-.087-.887-1.04l2.276-1.035a6.869,6.869,0,0,1,3.722.195" transform="translate(-15.516 -3.938)" fill="#f6f6f6"/>
    <path id="Path_5262" data-name="Path 5262" d="M90.958,51.434c-.181,1.8-1.466,2.346-2.986,2.628-.07-.459.236-.524.584-.671a1.426,1.426,0,0,0,.786-2.071,1.08,1.08,0,0,1-.072-.691,15.343,15.343,0,0,0-1.055-10.135c-.284-.562-.208-1.256-.583-1.826-.175-.264-.157-.545-.607-.648-.431-.1.068-.327.114-.509a9.731,9.731,0,0,1,3.69,6.225,24,24,0,0,1,.128,7.7" transform="translate(-11.744 -5.253)" fill="#c8bdbb"/>
    <path id="Path_5263" data-name="Path 5263" d="M54.124,55.148c-.651.043-1.411-.517-1.889.509-.125.268-.824-.038-1.144-.366a7.553,7.553,0,0,1-.612-.844c-.238,1.3-1.142,1.531-2.17,1.578a5.722,5.722,0,0,0-1.892.668c-.537.221-1.073.51-1.65.1a.484.484,0,0,1,.388-.528c1.361-.414,2.572-1.222,3.98-1.51.4,0,.434-.393.639-.6a4.65,4.65,0,0,1,1.821-.834,2.566,2.566,0,0,1,2.29,1.24l.239.588" transform="translate(-6.054 -7.416)" fill="#f09db5" opacity="0.5"/>
    <path id="Path_5264" data-name="Path 5264" d="M58.45,56.459c.01.074.021.147.032.221-.587,0-1.176.048-1.755-.006-.724-.067-1.255-.385-1.153-1.247a12.1,12.1,0,0,0,2.877,1.032" transform="translate(-7.513 -7.702)" fill="#f09db5" opacity="0.5"/>
    <path id="Path_5265" data-name="Path 5265" d="M46.4,50.53c-.826.218-1.555.822-2.486.619-.035-.705.526-1.022.976-1.346a3.2,3.2,0,0,0,1.336-2.327c.356-2.583.839-5.149,1-7.757a6.741,6.741,0,0,0-.073-1.44A1.7,1.7,0,0,1,47.4,36.9a1.129,1.129,0,0,1,.375-.285c.677-.195.5-.684.388-1.147a6.935,6.935,0,0,0-1.613-4.886,5.145,5.145,0,0,0-3.807-1.816c-.466-.012-.986.081-1.331-.385a5.981,5.981,0,0,1,5.333.929c3.48,2.834,4.014,6.652,3.3,10.8a8.1,8.1,0,0,0-.118,1.327l-.005.414a21.746,21.746,0,0,1-1.692,6.742c-.406.8-.754,1.737-1.832,1.943" transform="translate(-5.6 -3.96)" fill="#e0dfdf"/>
    <path id="Path_5266" data-name="Path 5266" d="M40.928,28.414a7.765,7.765,0,0,1,3.44.453,6.366,6.366,0,0,1,3.62,5.571c.024.411,0,.825,0,1.239a1.97,1.97,0,0,1-.416,1.239l-.41.006c-.767.472-1.235.018-1.613-.562a7.125,7.125,0,0,1-.824-2.1,7.921,7.921,0,0,0-.474-1.464c-1.048-2.161-2.552-2.869-5.086-2.389-1.132.215-1.315.085-1.324-.932l2.48-1.037.6-.028" transform="translate(-5.118 -3.962)" fill="#f6f6f6"/>
    <path id="Path_5267" data-name="Path 5267" d="M46.141,52.664c1.737-1.711,2.381-3.936,2.9-6.213a15.674,15.674,0,0,1,.626-2.472c.123,2.041-.671,3.964-.794,5.95a33.355,33.355,0,0,0-.442,3.569,8,8,0,0,1-2.755,1.4,7.842,7.842,0,0,0-1.613.634l0,.005a8.481,8.481,0,0,1-4.541.612c.249-.177.482-.473.753-.513,1.895-.28,3.138-2.018,5.069-2.222.367-.037.607-.42.8-.754" transform="translate(-5.345 -6.143)" fill="#cecccc"/>
    <path id="Path_5268" data-name="Path 5268" d="M35.324,29.644c.089.629.329.879,1.042.653,3.087-.978,5.208.607,6.055,3.54.219.755.5,1.493.748,2.239a1.321,1.321,0,0,0,1.474,1.011,1.2,1.2,0,0,0-.2.89,9.827,9.827,0,0,1,.013,3.16c-.074,2.411-.723,4.734-.947,7.116a2.28,2.28,0,0,1-1.048,1.783c-.578.381-1.012.908-1.557,1.313a26.756,26.756,0,0,0-5.081-.229,3,3,0,0,1-.412.021,40.337,40.337,0,0,0-7.262.207c-3.13.323-5.222-1.066-6.7-3.8a23.138,23.138,0,0,1-2.3-7.982c.281.126.355.385.462.645.193.469.375,1.081,1.035.933a1.242,1.242,0,0,0,.97-1.3,18.461,18.461,0,0,0-.26-2.237,7.182,7.182,0,0,1,2.776-7.179,3.892,3.892,0,0,1,3.524-.619c.466.127.9.541,1.442.246,1.569,1.136,3.389.713,5.125.82.895.055.786-.767,1.094-1.226" transform="translate(-2.582 -4.165)" fill="#ebebeb"/>
    <path id="Path_5269" data-name="Path 5269" d="M112.159,29.642c-.059.71.2.915.916.695,2.751-.85,4.317.067,5.661,2.057.532.788.356,1.807.838,2.617a4.591,4.591,0,0,1,.356.852,1.6,1.6,0,0,0,1.961,1.22,2.074,2.074,0,0,0-.422,1.441c.02,2.443-.011,4.887.021,7.329a1.207,1.207,0,0,1-.934,1.369c-1.035.344-.974,1.467-1.3,2.259a1.348,1.348,0,0,1-.913.908A13.3,13.3,0,0,1,112.5,51a30.514,30.514,0,0,0-7.3.257,5.686,5.686,0,0,1-5.8-2.472,19.2,19.2,0,0,1-2.333-4.662c-.521-1.7-.856-3.45-1.273-5.177.468.348.332.956.6,1.389s.556.956,1.166.841.686-.69.717-1.217c.069-1.133-.251-2.236-.225-3.376a8.508,8.508,0,0,1,1.661-5.061,4.5,4.5,0,0,1,4.724-1.706c.478.1,1.1.7,1.5-.17.246.92,1.045.961,1.755,1.005,1.089.067,2.187-.01,3.279.03.767.029.921-.548,1.19-1.037" transform="translate(-12.972 -4.166)" fill="#eaeaea"/>
    <path id="Path_5270" data-name="Path 5270" d="M54.823,67.337a1.337,1.337,0,0,1,.41.808c.384,1.844.716,2.091,2.608,2.09q12.616-.009,25.23,0c1.519,0,2.115-.458,2.4-1.932a4.687,4.687,0,0,1,.633-1.379c-.375,1.582-.64,3.173-1.83,4.466-1.156,1.256-1.991,2.8-3.336,3.9-.233.19-.393.49-.77.44a48.284,48.284,0,0,0-5.984-.11c-3.482-.033-6.963-.013-10.445-.006a6.685,6.685,0,0,0-1.845.14,1.765,1.765,0,0,1-1.845-.673,10.78,10.78,0,0,0-1.494-1.4,10.794,10.794,0,0,1-3.727-5.469c-.086-.312-.192-.58-.006-.874" transform="translate(-7.406 -9.377)" fill="#f1a5bf" opacity="0.5"/>
    <path id="Path_5271" data-name="Path 5271" d="M123.232,66.442c-.264,3.428-2.675,5.62-4.655,8.062-.171.211-.349.418-.523.626a6.234,6.234,0,0,1-2.827.42c-3.728-.015-7.457-.025-11.185,0a4.574,4.574,0,0,1-3.848-1.588c-.7-.844-1.614-1.47-2.339-2.307a5.834,5.834,0,0,1-1.346-3.148.871.871,0,0,1,.873.438,2.3,2.3,0,0,0,2.093.822c5.4-.02,10.806-.013,16.209-.009a27.249,27.249,0,0,1,3.706.165c1.509.208,2.022-.148,2.577-1.578.161-.415.262-.856.456-1.259.162-.337.317-.709.809-.647" transform="translate(-13.069 -9.312)" fill="#f1a5bf" opacity="0.5"/>
    <path id="Path_5272" data-name="Path 5272" d="M122.975,66.22c-.577.31-.532.963-.664,1.444a14.047,14.047,0,0,1-.863,1.835,1.032,1.032,0,0,1-1.151.656c-7.365-.44-14.737-.1-22.1-.21-1.107-.016-1.258-1.146-1.94-1.657-.461-1.146-.574-2.467-1.653-3.307.636-.434,1.129-.046,1.557.338a1.448,1.448,0,0,0,1.407.376,8.34,8.34,0,0,1,1.853-.092q10.43,0,20.861,0A4.138,4.138,0,0,0,123.034,65a.614.614,0,0,1,.772-.017c-.2.462-.8.663-.831,1.238" transform="translate(-12.811 -9.019)" fill="#f1a5bf" opacity="0.5"/>
    <path id="Path_5273" data-name="Path 5273" d="M123.74,64.864c-1.508,1.393-3.374,1.027-5.157,1.03q-9.81.014-19.622,0c-1.3,0-2.789.726-3.75-.864-.085-.14-.446-.113-.678-.164l-.422-.214c.112-.486.477-.415.821-.364a10.583,10.583,0,0,0,4.374-.162c1.55-.409,3.142.069,4.685.419a3.329,3.329,0,0,0,1.511-.061,8.985,8.985,0,0,1,3.107.253c1.4.191,2.732-.2,4.1-.139a4.474,4.474,0,0,1,1.306.011,1.026,1.026,0,0,0,1-.093,3.058,3.058,0,0,1,2.849-.369,9.964,9.964,0,0,0,4.672-.01,3.33,3.33,0,0,1,3.071.316c-.455.272-.994-.064-1.449.2l-.415.21" transform="translate(-12.746 -8.884)" fill="#f1a5bf" opacity="0.5"/>
    <path id="Path_5274" data-name="Path 5274" d="M128.837,64.736c.44-.369.965-.138,1.448-.2l.414.409a5.216,5.216,0,0,0-1.863-.205" transform="translate(-17.427 -8.963)" fill="#b3cfe7"/>
    <path id="Path_5275" data-name="Path 5275" d="M31.343,59.4h5.849c0,.067,0,.133,0,.2H31.342c0-.067,0-.133,0-.2" transform="translate(-4.238 -8.251)" fill="#f09db5" opacity="0.5"/>
    <path id="Path_5276" data-name="Path 5276" d="M39.449,57.955a13.144,13.144,0,0,0,3.321-.485c.4-.063.812-.085,1.219-.125a2.087,2.087,0,0,1-1.851.843c-1.052,0-2.1-.01-3.154-.015l.465-.217" transform="translate(-5.272 -7.967)" fill="#f09db5" opacity="0.5"/>
    <path id="Path_5277" data-name="Path 5277" d="M31.61,58.346l5.8-.016c-.1.476-.508.472-.812.39-1.359-.362-2.705.044-4.055.01-.35-.009-.787.139-.934-.384" transform="translate(-4.275 -8.103)" fill="#f09db5" opacity="0.5"/>
    <path id="Path_5278" data-name="Path 5278" d="M75.44,50.4a2.9,2.9,0,0,0,.078,3.09c-.2.029-.148.544-.388.31a2.656,2.656,0,0,1-.915-1.973,1.9,1.9,0,0,1,.849-1.527c.059-.048.247.062.376.1" transform="translate(-10.035 -6.996)" fill="#ececec"/>
    <path id="Path_5279" data-name="Path 5279" d="M67.8,51.217a1.014,1.014,0,0,1-.841.425c-.472-.242-.818-.564-.554-1.142a.733.733,0,0,1,.85-.446c.658.144.555.684.545,1.164" transform="translate(-8.967 -6.954)" fill="#f1f1f1"/>
    <path id="Path_5280" data-name="Path 5280" d="M125.96,37.822a6.5,6.5,0,0,0,.419-2.689c.86.631.289,1.513.369,2.273.05.476-.455.395-.787.416" transform="translate(-17.039 -4.885)" fill="#eaeaea"/>
    <path id="Path_5281" data-name="Path 5281" d="M18.676,39.437c.617.347.356.943.412,1.449-.737-.313-.287-.963-.412-1.449" transform="translate(-2.514 -5.481)" fill="#ebebeb"/>
    <path id="Path_5282" data-name="Path 5282" d="M49.09,38.048a2,2,0,0,1,.415-1.239c.36.58.108.955-.415,1.239" transform="translate(-6.637 -5.115)" fill="#ebebeb"/>
    <path id="Path_5283" data-name="Path 5283" d="M28.548,44.358c-.785.486-1.165.133-1.409-.633a2.571,2.571,0,0,1,1.229-3.069,2.411,2.411,0,0,1,3.241.765.474.474,0,0,1-.423.344c-.759-.3-1.235.436-1.89.518-.028-.022-.052-.045-.08-.064-.249-.17-.348-.78-.75-.447-.385.318.184.552.291.839.02.592-.427,1.13-.209,1.747" transform="translate(-3.653 -5.611)" fill="#365997"/>
    <path id="Path_5284" data-name="Path 5284" d="M38.343,44.32c-.822.494-1.242.073-1.523-.665a2.647,2.647,0,0,1,4.658-2.436c.014.27-.157.4-.378.489-.666-.1-1.289.241-1.951.194-.126-.055.035.015-.094-.03-.316-.11-.675-.527-.953-.07-.228.375.3.518.448.786-.032.581-.422,1.121-.208,1.733" transform="translate(-4.958 -5.573)" fill="#365997"/>
    <path id="Path_5285" data-name="Path 5285" d="M39.33,42.009a1.661,1.661,0,0,1,1.866-.228c-.016.727-.437,1.405-.266,2.155-.131-.027-.356-.11-.379-.072-.489.806-1.324.528-2.023.662-.693-.56-.646-1,.177-1.672a1.053,1.053,0,0,1,.624-.846" transform="translate(-5.144 -5.782)" fill="#373b5d"/>
    <path id="Path_5286" data-name="Path 5286" d="M28.71,44.527c-.957-.663-.31-1.155.178-1.664a.576.576,0,0,1,.607-.447,1.231,1.231,0,0,1,1.879-.632,11.343,11.343,0,0,0-.429,2.034c-.584.743-1.438.639-2.236.709" transform="translate(-3.815 -5.782)" fill="#373b5d"/>
    <path id="Path_5287" data-name="Path 5287" d="M34.349,50.023a4.184,4.184,0,0,1-2.907-1.173c-.2-.209-.394-.433-.093-.691.256-.221.408.005.6.157a3.644,3.644,0,0,0,4.973.12c.23-.164.451-.406.7-.107s-.042.509-.233.683a4.463,4.463,0,0,1-3.043,1.011" transform="translate(-4.218 -6.681)" fill="#373b5d"/>
    <path id="Path_5288" data-name="Path 5288" d="M41.336,41.371A2.39,2.39,0,0,0,38.6,40.38,2.469,2.469,0,0,0,36.779,42.7c-.014.305,0,.612.006.918a2.247,2.247,0,0,1,.3-2.847A2.747,2.747,0,0,1,40.7,40.2c1.2.651,1.86,1.327,1.684,2.647a1.225,1.225,0,0,1-.183.358c-.534-.133-.434-.695-.693-1.015a1.028,1.028,0,0,1-.175-.819" transform="translate(-4.924 -5.531)" fill="#dadada"/>
    <path id="Path_5289" data-name="Path 5289" d="M31.337,43.819a1.505,1.505,0,0,1,.429-2.033l.4-.195a2.292,2.292,0,0,1,.468,2c-.065.369-.063.82-.614.917-.6.1-.372-.542-.68-.687" transform="translate(-4.207 -5.784)" fill="#373b5d"/>
    <path id="Path_5290" data-name="Path 5290" d="M41.954,41.622l.362.621c.186.691.635,1.394-.086,2.047-.461.3-.9.531-.9-.348a1.543,1.543,0,0,1,.266-2.155l.36-.165" transform="translate(-5.544 -5.788)" fill="#373b5d"/>
    <path id="Path_5291" data-name="Path 5291" d="M42.422,44.387a3.438,3.438,0,0,0,.086-2.047c.514.26.186.871.506,1.212.083.476.195.973-.592.835" transform="translate(-5.736 -5.886)" fill="#cfcfcf"/>
    <path id="Path_5292" data-name="Path 5292" d="M108.653,41.6a2.514,2.514,0,0,1-3.287,3.674c-.208-.881.542-1,1.052-1.185a1.079,1.079,0,0,0,.877-1.062,1.572,1.572,0,0,1,.771-1.47.752.752,0,0,1,.587.043" transform="translate(-14.243 -5.776)" fill="#373b5d"/>
    <path id="Path_5293" data-name="Path 5293" d="M108.451,41.44l-.376.176c-.672-.2-1.185.511-1.855.325a1.345,1.345,0,0,1-.277-.119c-.272-.151-.609-.339-.8.011-.212.395.246.459.465.625a.474.474,0,0,1,.229.312c-.529.639-.425,1.541-.914,2.2a2.195,2.195,0,0,1-1.036-2.56,2.349,2.349,0,0,1,1.879-1.976,2.325,2.325,0,0,1,2.681,1.009" transform="translate(-14.04 -5.614)" fill="#365997"/>
    <path id="Path_5294" data-name="Path 5294" d="M106.375,42.007a1.7,1.7,0,0,1,1.87-.221,1.363,1.363,0,0,0-.681,1.657c.3.781-.152.748-.56.811a2.033,2.033,0,0,0-1.67,1.03l-.237-.147a5.842,5.842,0,0,0,.026-1,1.157,1.157,0,0,1,.821-1.314.717.717,0,0,1,.431-.81" transform="translate(-14.211 -5.785)" fill="#373b5d"/>
    <path id="Path_5295" data-name="Path 5295" d="M117.6,43.814a3.133,3.133,0,0,1-2.252.658c-.688.178-.711-.31-.722-.754a1.251,1.251,0,0,1,.55-1.023c.3-.317.57-.655.837-1,.509-.417,1.037-.641,1.633-.159.273.764-.2,1.514-.048,2.277" transform="translate(-15.499 -5.739)" fill="#373b5d"/>
    <path id="Path_5296" data-name="Path 5296" d="M115.392,42.71c-.837.655-.891,1.143-.188,1.667-.863.52-1.3.171-1.524-.71a2.413,2.413,0,0,1,1.09-2.815c.923-.17,1.866-.638,2.72.187.37,0,.538.236.631.555a.379.379,0,0,1-.651.012,1.2,1.2,0,0,0-1.5.291l-.1.013c-.315.032-.673-.453-.918-.03-.222.384.381.5.443.831" transform="translate(-15.358 -5.644)" fill="#365997"/>
    <path id="Path_5297" data-name="Path 5297" d="M118.009,41.765l.651-.012A1.925,1.925,0,0,1,119.087,44c-.091.314-.206.551-.626.537-.5-.016-.338-.42-.467-.655-.951-.712-.042-1.41.016-2.115" transform="translate(-15.907 -5.806)" fill="#373b5d"/>
    <path id="Path_5298" data-name="Path 5298" d="M111.55,50.147a2.742,2.742,0,0,1-.387-.03c-.441-.112-1.2-.081-1.086-.646.137-.677.717-.073,1.09-.029a2.756,2.756,0,0,0,1.589-.276c.183-.09.4-.177.538.065.155.275-.015.459-.241.58a3.091,3.091,0,0,1-1.5.337" transform="translate(-14.883 -6.819)" fill="#373b5d"/>
    <path id="Path_5299" data-name="Path 5299" d="M117.678,41.008a6.327,6.327,0,0,0-2.72-.187c1.325-.694,2.076-.643,2.72.187" transform="translate(-15.544 -5.604)" fill="#373b5d"/>
    <path id="Path_5300" data-name="Path 5300" d="M29.463,42.378a.927.927,0,0,1-.607.448c-.533-.038-.94-.222-.878-.853a.684.684,0,0,1,.751-.667c.731.01.74.542.735,1.072" transform="translate(-3.782 -5.741)" fill="#f5f5f5"/>
    <path id="Path_5301" data-name="Path 5301" d="M39.284,41.97a.849.849,0,0,1-.624.846c-.462-.025-.911-.084-.955-.679a.729.729,0,0,1,.61-.818c.53-.125.838.149.969.651" transform="translate(-5.098 -5.738)" fill="#f2f2f2"/>
    <path id="Path_5302" data-name="Path 5302" d="M106.324,41.966a1.044,1.044,0,0,1-.431.81c-.466-.007-1,.109-1.149-.546a.717.717,0,0,1,.512-.881c.556-.2.912.064,1.068.617" transform="translate(-14.16 -5.737)" fill="#f1f1f1"/>
    <path id="Path_5303" data-name="Path 5303" d="M115.517,42.81c-.457-.021-.914-.066-1-.635a.712.712,0,0,1,.5-.8c.578-.218.877.143,1.085.62-.182.279-.139.716-.577.814" transform="translate(-15.482 -5.741)" fill="#f7f7f7"/>
  </g>
</svg>
