<svg xmlns="http://www.w3.org/2000/svg" xmlns:xlink="http://www.w3.org/1999/xlink" width="17.951" height="21.403" viewBox="0 0 17.951 21.403">
  <defs>
    <clipPath id="clip-path">
      <rect id="Rectangle_1751" data-name="Rectangle 1751" width="17.951" height="21.403" fill="none"/>
    </clipPath>
  </defs>
  <g id="Group_1026" data-name="Group 1026" transform="translate(0.402)">
    <g id="Group_712" data-name="Group 712" transform="translate(-0.402)" clip-path="url(#clip-path)">
      <path id="Path_8040" data-name="Path 8040" d="M14.31,85.136a8.835,8.835,0,0,1-1.066,3.71,21.644,21.644,0,0,0-2.225,6.518,3.092,3.092,0,0,1-.569,1.416.866.866,0,0,1-1.628-.25A13.806,13.806,0,0,1,8.3,93.5c-.108-.792-.2-1.588-.362-2.369-.089-.435-.219-1.008-.752-1.021s-.656.558-.773.994a26.367,26.367,0,0,0-.5,3.562,10.124,10.124,0,0,1-.346,1.76c-.124.4-.3.772-.769.815a1.061,1.061,0,0,1-1.026-.644,5.549,5.549,0,0,1-.63-2.119C2.869,92.09,1.569,90.1.721,87.936A7.962,7.962,0,0,1,.1,83.5a3.272,3.272,0,0,1,2.487-2.848,3.791,3.791,0,0,1,4.116,1.083,2.7,2.7,0,0,0,.536.539c.172.114.425.284.613.047.217-.273-.122-.3-.24-.419-.286-.289-.219-.5.138-.642a7.822,7.822,0,0,1,2.769-.756c2.427-.048,3.944,1.671,3.784,4.634" transform="translate(0 -75.851)" fill="#6fa6d6"/>
      <path id="Path_8041" data-name="Path 8041" d="M217.342,0c.426.716.755,1.316,1.438,1.591.373.15.306.434-.009.52-.768.208-.921,1.366-1.478,1.323-.469-.036-.695-1.086-1.408-1.331-.241-.083-.39-.338-.036-.479.711-.283,1.044-.917,1.492-1.623" transform="translate(-203.257)" fill="#6fa6d6"/>
      <path id="Path_8042" data-name="Path 8042" d="M273.206,97.609a2.48,2.48,0,0,0-1.256-1.3,3.845,3.845,0,0,0,1.2-1.266c.09.052.16.067.171.1.173.543,1.044.777.954,1.141-.1.392-.781.646-1.072,1.325" transform="translate(-256.334 -89.583)" fill="#6fa6d6"/>
      <path id="Path_8043" data-name="Path 8043" d="M174.3,117.351c.1-.134.108-.171.129-.178.515-.157.727-.984,1.08-.907.368.081.616.734,1.2.989a5.913,5.913,0,0,0-.71.517,5.222,5.222,0,0,0-.486.671c-.391-.38-.609-.948-1.21-1.093" transform="translate(-164.291 -109.585)" fill="#fafafa"/>
    </g>
  </g>
</svg>
