<svg xmlns="http://www.w3.org/2000/svg" xmlns:xlink="http://www.w3.org/1999/xlink" width="124" height="75" viewBox="0 0 124 75">
  <defs>
    <clipPath id="clip-path">
      <rect id="Rectangle_1893" data-name="Rectangle 1893" width="124" height="75" fill="none"/>
    </clipPath>
  </defs>
  <g id="Group_1097" data-name="Group 1097" transform="translate(-34 -309.418)">
    <g id="Group_1095" data-name="Group 1095" transform="translate(34 309.418)">
      <g id="Group_1094" data-name="Group 1094" transform="translate(0 0)" clip-path="url(#clip-path)">
        <path id="Path_15502" data-name="Path 15502" d="M54.217,46.368a64.358,64.358,0,0,0-5.849-8.251,4.869,4.869,0,0,0-2.549-1.825l-.16-.151a8.5,8.5,0,0,1-.071-3.863,7.017,7.017,0,0,0,3.391-4.49c.234-.747.047-1.545.4-2.256a.38.38,0,0,1,.318-.159c.549.139.833-.262,1.133-.584a9.4,9.4,0,0,0,2.767-7.72,5.161,5.161,0,0,0-3.77-4.57,12.5,12.5,0,0,0-6.687-.519A4.586,4.586,0,0,0,39.655,14.8c-.124.3-.239.611-.384.905-.822,1.683-1.334,1.908-3.064,1.251a4.019,4.019,0,0,0-2.419-.118,4.678,4.678,0,0,1-1.8.337c-.34-.236-.531-.68-1.142-.385a2.123,2.123,0,0,1-3.125-1.872c-.005,1.54-1.545,2.4-3.285,1.835.153.062-.095-.013-.027.027,2.033,1.205,1.312,2.37.062,3.575a1.167,1.167,0,0,1,1.6-.2,5.653,5.653,0,0,1,1.569,1.17,6.261,6.261,0,0,0,.838,3.252,2.35,2.35,0,0,1-.895,3.218,7.809,7.809,0,0,1-2.176,1.126,11.419,11.419,0,0,0-2.437,1.159,4.983,4.983,0,0,0-2.553,5.167,2.71,2.71,0,0,1,.045,1.449c-.323.4-.684.21-.987.01-1.75-1.155-3.474-2.351-5.2-3.542a.78.78,0,0,1-.389-.724c1.432-2.017,3.075-3.889,3.939-6.277A35.271,35.271,0,0,0,18.855,22.4a22.955,22.955,0,0,1,6.773-11.152,30.861,30.861,0,0,1,14.43-7.76,30.638,30.638,0,0,1,13.775-.509,11.659,11.659,0,0,0,1.658.115c-.374-.726-1.224-.553-1.87-1.343A9.5,9.5,0,0,1,57.3,3.464a14.158,14.158,0,0,0,2.74,1.762c2.479,1.247,3.886,3.462,5.488,5.5,1.3,1.659,2.319,3.555,3.691,5.149a8.61,8.61,0,0,0,9.387,2.839c1.421-.386,2.848-.753,4.285-1.08.317-.072.684-.316,1.156.08l-4.872,1.247a9.406,9.406,0,0,0,3.591-.251,75.036,75.036,0,0,1,12.611-1.525,22.315,22.315,0,0,1,8.032,1.506,30.117,30.117,0,0,1,12.715,8.559,15.834,15.834,0,0,1,4.119,9.006c.475,4.946-1.616,8.8-4.737,12.322-1.244,1.4-2.433,2.858-3.664,4.274-.419.482-.2,1.228-.734,1.648-.425-.323-.207-.745-.168-1.132.167-1.661.5-3.306.593-5.26-1.55,1.328-2.848,2.6-4.217,3.783a21.6,21.6,0,0,1-2.708,2.489c-.121.027-.277.071-.359.005a4.422,4.422,0,0,0-3.129-.671,2.392,2.392,0,0,1-.776-2.311c.692-.185,1.277.2,1.9.371a3.312,3.312,0,0,0,2.516-.141c.462-.245.824-.614.642-1.182-.167-.528-.658-.552-1.126-.529a3.955,3.955,0,0,0-1.887.831c-.948.6-1.283.459-1.518-.633a3.141,3.141,0,0,0-.7-1.668,1.191,1.191,0,0,0-1.327-.4c-.56.209-.488.683-.423,1.14a1.815,1.815,0,0,1,.006.491.622.622,0,0,1-.934.464c-1.329-.515-2.778-.594-4.1-1.133a.311.311,0,0,1,.015-.574c1.166-.708,1.829-1.89,2.746-2.831,1.073.224,1.516-.411,1.8-1.291A9.859,9.859,0,0,0,98.062,43a9.787,9.787,0,0,0,1.688-3.65c.28-2.067.053-3.941-1.853-5.235a1.974,1.974,0,0,1-.918-1.391,1.673,1.673,0,0,0-.847-1.152,9.064,9.064,0,0,0-9.523.49c-.389.319-.826.65-.839,1.165a12.068,12.068,0,0,1-.908,3.544c-.357,1.063.364,2.072.353,3.135-1.084,1.645-1.079,2,.033,3.073.319,1.183.37,2.419.739,3.592-.131.852-.035,1.777-.792,2.427-1.388.356-2.775.719-4.166,1.062a.887.887,0,0,1-.826-.437c-.937-1.62-2.478-1.288-3.937-1.2a.771.771,0,0,0-.7.445c-.651,1.713-2,2.955-2.995,4.433a16.05,16.05,0,0,1-6.957,5.288,1.89,1.89,0,0,1-1.057.082c-1.965.249-3.046-.81-3.984-2.391-1.324-2.233-2.8-4.375-3.972-6.7-.2-.4-.983-.319-.916-1a6.343,6.343,0,0,0,3.112-.538c1.17-.569,1.706-1.493,1.407-2.424-.281-.871-1.166-1.276-2.467-1.118a6.194,6.194,0,0,0-3.522,1.869" transform="translate(0.444 0.05)" fill="rgba(111,166,214,0.18)"/>
        <path id="Path_15503" data-name="Path 15503" d="M31.844,16.789c1.773-.71,3.542-1.051,5.315.014.185.11.437.3.635-.023.381-.614,1-1.018,1.236-1.789a4.879,4.879,0,0,1,4.308-3.661,14.319,14.319,0,0,1,6.213.476,5.826,5.826,0,0,1,4.365,5.847,10.431,10.431,0,0,1-3.576,7.8c-.365.349-.756.648-.746-.238a5.237,5.237,0,0,1,.258-2.515c.093-.646.24-1.286.318-1.934.18-1.506-.217-2.065-1.711-2.441a14.224,14.224,0,0,1-2.642-1c-1.3-.618-1.312-.642-1.972.7a4.6,4.6,0,0,1-2.393,2.354,2.665,2.665,0,0,1-2.023.208,1.4,1.4,0,0,0-1.795.66,1.376,1.376,0,0,0,.388,1.864,2.74,2.74,0,0,1,.842,3.3c-.9.4-1.386-.3-1.876-.785a5.745,5.745,0,0,1-1.517-3.67,4.081,4.081,0,0,0,.5,2.646c.438.971.866,1.947,1.34,2.9a4.1,4.1,0,0,1-.408,4.614c-.543.721-1.1,1.431-1.651,2.144-1.206,1.556-1.212,2.116-.1,3.712a1.334,1.334,0,0,1,.366.758c-1.148,1.114-2.184,2.324-3.238,3.526-2.237,2.55-2.506,5.477-2.059,8.638a44.594,44.594,0,0,0,1.419,6.328c-.511.867-1.453.857-2.249.953a11.029,11.029,0,0,1-8.25-1.958A6.348,6.348,0,0,1,19.43,54.5a13.168,13.168,0,0,1-1.306-2.372,2.054,2.054,0,0,1-.162-.34,10.847,10.847,0,0,1-.67-5.749c.354-1.891,1.684-3.1,3.145-4.2,1.483-1.321,1.5-1.566.624-3.316-.285-.568-.992-1.049-.592-1.848-1.356-3.274-.154-6.139,3.274-7.744.965-.452,2-.771,2.933-1.27,1.808-.963,2.134-2.1,1.079-3.832a3.59,3.59,0,0,1-.38-2.824.592.592,0,0,1,.035-.579,7.424,7.424,0,0,1,4.432-3.637" transform="translate(0.548 0.319)" fill="#373b5d"/>
        <path id="Path_15504" data-name="Path 15504" d="M19.964,53.842c3.359,3.75,7.441,4.609,12.138,3.006a80.73,80.73,0,0,1,3.886,11.722c.089.312.157.629.234.943a2.557,2.557,0,0,1-1.973,1.771,47,47,0,0,1-5.8-.021A9.8,9.8,0,0,1,24,69.275,28.7,28.7,0,0,1,12.768,55.807C10.589,50.369,8.579,44.879,6.8,39.3a2.857,2.857,0,0,1-.212-1.2c-.5-2.444-1.445-4.754-2.127-7.142-.59-2.07-1.227-4.127-1.947-6.537,2.17,1.348,4.059,2.512,5.936,3.691,1.938,1.218,3.867,2.45,5.8,3.676A64.481,64.481,0,0,0,20.938,36.3a6.088,6.088,0,0,0,.939,1.835c.922,1.708.834,2.18-.695,3.406-.617.274-.751-.074-.865-.713.358,1.1-.474,1.522-.976,2.02A6.752,6.752,0,0,0,17.2,48.1a6.049,6.049,0,0,0,1.54,3.5l.011.024a3.933,3.933,0,0,0,1.216,2.214" transform="translate(0.081 0.696)" fill="rgba(111,166,214,0.5)"/>
        <path id="Path_15505" data-name="Path 15505" d="M98.5,50.223a3.345,3.345,0,0,0,.775,2.007c.443,1.116.513,2.33.911,3.459-.311,2.525.334,5.027.179,7.55A23.558,23.558,0,0,1,99,70.633c-1.573.443-3.168.037-4.749.065-5.418.1-10.84-.014-16.26-.045a4.029,4.029,0,0,1-.579-2.347,30.161,30.161,0,0,1,.028-4.779,21.919,21.919,0,0,0-.053-6.942c-.239.253-.487.469-.859.333a4.187,4.187,0,0,1-1.99-2.492,9.2,9.2,0,0,0-.611-1.448c.257-1.147.007-2.393.5-3.43.261-.05.347-.031.387.045.719,1.365.7,1.344,1.958.434.711-.516,1.2-1.362,2.188-1.478a13.726,13.726,0,0,1,4.238-.993c.361.356.248.838.333,1.265a3.039,3.039,0,0,0,4.193,2.272A6.946,6.946,0,0,0,90.2,49.338a1.16,1.16,0,0,0,.323-1.326c.09-.493.446-.5.833-.452a15.83,15.83,0,0,1,4.158.937c.344.128.7.4.8-.242.735.651,1.785.953,2.192,1.968" transform="translate(2.365 1.355)" fill="#365997"/>
        <path id="Path_15506" data-name="Path 15506" d="M6.615,37.723c1.019,2.272,1.617,4.689,2.464,7.021,1.661,4.576,3.15,9.231,5.438,13.543A27.552,27.552,0,0,0,28.05,70.661c.146.066.284.149.425.224q-7.565.025-15.13.052c-.384,0-.815-.011-.985-.367-.675-1.415-2.165-2.078-3.023-3.315l.027-.027c.441-.185.38-.42.125-.75-.5-.645-.8-1.426-1.251-2.079a36.183,36.183,0,0,1-3.6-7.345A24.387,24.387,0,0,1,2.673,46.72c.013-.285,0-.571,0-.831-.459-.293-.435.469-.816.292-.022-.057-.091-.153-.067-.2q2.186-3.929,4.393-7.847a2.092,2.092,0,0,1,.43-.416" transform="translate(0.057 1.075)" fill="rgba(111,166,214,0.18)"/>
        <path id="Path_15507" data-name="Path 15507" d="M98.229,70.676a1.605,1.605,0,0,1-.059-.579c1.264-4.284,1.112-8.649.8-13.028-.034-.465-.215-.981.2-1.394.345-1.478,1.083-2.57,2.74-2.754a98.847,98.847,0,0,1,7.4-6.886c-.33,2.641-.616,4.921-.9,7.2q-.159,1.089-.318,2.179a26.331,26.331,0,0,1-1.578,7.649,13.2,13.2,0,0,1-5.692,6.878,3.15,3.15,0,0,1-1.857.542l-.739.191" transform="translate(3.139 1.312)" fill="rgba(111,166,214,0.5)"/>
        <path id="Path_15508" data-name="Path 15508" d="M74.015,70.416q-3.289.006-6.58.011c-2.169,0-4.34.02-6.508-.014-.489-.007-1.141.305-1.445-.31s.578-.7.653-1.186c-.131-.78.5-1.227.816-1.8.41-.736.888-1.433,1.277-2.181.714-1.3,1.342-2.684,3.041-2.987a1.679,1.679,0,0,0,1.69-.391,4.57,4.57,0,0,1,1.16-.665,10.416,10.416,0,0,1,1.3-.15c.638-.118-.042-.4.061-.59a1.3,1.3,0,0,1,.689-.814,7.341,7.341,0,0,0,2.375-2.877c.268-.354.408-.839.948-.913.66.191.54.77.63,1.247a60.983,60.983,0,0,0-.234,6.974,27.24,27.24,0,0,0,.33,5.127,1.688,1.688,0,0,1-.2,1.522" transform="translate(1.901 1.583)" fill="rgba(111,166,214,0.18)"/>
        <path id="Path_15509" data-name="Path 15509" d="M73.581,70.494a51.163,51.163,0,0,1-.2-13.8,2.592,2.592,0,0,0-.1-1.447,9.446,9.446,0,0,1,.233-1.479,1.272,1.272,0,0,1,.564-.957c.5-.037.416.373.518.657a6.569,6.569,0,0,0,1.87,3.049,2.146,2.146,0,0,1,1.445,2.574c-.127,1.334.072,2.684-.094,4.024a55.865,55.865,0,0,0,.207,7.388l-4.443-.008" transform="translate(2.335 1.505)" fill="#faa39b"/>
        <path id="Path_15510" data-name="Path 15510" d="M98.943,70.225c4.332-1.76,6.756-5.1,7.881-9.489.474-1.845.834-3.719,1.246-5.58a83.927,83.927,0,0,0,2.24,11.609,1.482,1.482,0,0,0,.012-1.5.66.66,0,0,1,.244-.239c.246,1.672.5,3.344.729,5.019.062.461-.2.664-.677.609a106.219,106.219,0,0,0-10.752-.214c-.319,0-.667.083-.923-.211" transform="translate(3.165 1.572)" fill="rgba(111,166,214,0.18)"/>
        <path id="Path_15511" data-name="Path 15511" d="M45.07,35.361c.007,4.6.644,9.056,2.983,13.138a5.26,5.26,0,0,1,.969,2.348c.054.285.342.653-.252.712-1.224-3.221-3.578-5.606-5.976-7.948a20.862,20.862,0,0,1-5.177-7.02,1.81,1.81,0,0,1-.124-1.908.911.911,0,0,1,1.238-.051,6.392,6.392,0,0,0,5.348.556.9.9,0,0,1,.928.147Z" transform="translate(1.192 0.981)" fill="#365997"/>
        <path id="Path_15512" data-name="Path 15512" d="M69.605,60.173l.94.363c-.7.889-1.653.407-2.443.58-.934.242-1.776.741-2.719.957-1.487.488-2.13,1.8-2.918,2.967a4.208,4.208,0,0,1-4.825-.865.45.45,0,0,1,.1-.382,14.033,14.033,0,0,0,2.829-2.831c.842-1.049,1.743-2.052,2.617-3.074a4.994,4.994,0,0,1,1.54-1.165c1.336-.5,2.46-1.5,3.928-1.679.547-.068,1.225-.267,1.2.691a2.431,2.431,0,0,1-.713.822,15.494,15.494,0,0,1-1.626.6c1.14-.08,2.12-.421,3.14-.381,1.169.576,1.244,1.3.278,2.077-.675.543-1.542.507-2.3.863.336.194.787.049.975.457" transform="translate(1.843 1.567)" fill="rgba(54,89,151,0.56)"/>
        <path id="Path_15513" data-name="Path 15513" d="M37.8,34.981q-.026,1-.054,2c-1.3-.22-1.842.969-2.749,1.48-2-1.955-2.234-2.848-.3-4.864,2.632-2.741,2.76-5.423.765-8.474a7.808,7.808,0,0,1-.888-2.269,2.056,2.056,0,0,1,.518-2.08c.365,2.241.609,4.485,3.125,5.33a1.485,1.485,0,0,1,.381,1.469,43.766,43.766,0,0,0-.217,5.6,2.415,2.415,0,0,1-.581,1.808" transform="translate(1.067 0.592)" fill="#d7edf5"/>
        <path id="Path_15514" data-name="Path 15514" d="M58.021,63.694c-.007.095-.013.188-.021.283-.262.715-.935,1.013-1.479,1.443-.737.082-1.2.677-1.824.964-.852.393-1.671.577-2.384-.344a20.649,20.649,0,0,1-3.46-5.2l2.724,3.623c.547-1.971-.05-3.906.685-6,1.2,1.249,2.355,2.37,3.406,3.582a6.247,6.247,0,0,0,2.352,1.648" transform="translate(1.563 1.667)" fill="#e1ebf4"/>
        <path id="Path_15515" data-name="Path 15515" d="M52.967,45.193c.676-1.645,3.969-2.831,5.459-1.934a1.883,1.883,0,0,1,.866,2.325c-.47,1.525-3.434,2.61-4.854,1.819a8.219,8.219,0,0,0-1.471-2.211" transform="translate(1.694 1.224)" fill="#207ac3"/>
        <path id="Path_15516" data-name="Path 15516" d="M56.285,65.267c.178-.8.966-.982,1.479-1.443a5.994,5.994,0,0,0,4.745.963c-.473,1.463-1.556,2.573-2.271,3.895-2.059-.288-3.531-1.249-3.952-3.415" transform="translate(1.8 1.819)" fill="#f7a49c"/>
        <path id="Path_15517" data-name="Path 15517" d="M48.462,39.619c.434.493,1.4.82.542,1.718a.879.879,0,0,0-.106.182c1.361.7.4,1.749.241,2.527-.446,2.122.261,4.113.409,6.162.076,1.071.523,2.112.161,3.225-.343-2.236-.717-4.467-1.014-6.709a6.347,6.347,0,0,1,.264-3.144c.487-1.233-.174-1.705-1.1-2.127-.18-.082-.363-.159-.691-.3.625-.416,2.013-.192,1.255-1.5Z" transform="translate(1.509 1.129)" fill="#d2e0ea"/>
        <path id="Path_15518" data-name="Path 15518" d="M40.289,64.5c.6.116.795.686,1.123,1.067A33.211,33.211,0,0,0,47,70.822a20.64,20.64,0,0,1-6.991-6.307.167.167,0,0,1,.278-.012" transform="translate(1.28 1.837)" fill="#d6e0e8"/>
        <path id="Path_15519" data-name="Path 15519" d="M15.59,13.026A18.008,18.008,0,0,1,22.083,6.5a41.148,41.148,0,0,0-6.221,6.532q-.141.2-.272-.005" transform="translate(0.499 0.185)" fill="#d6e0e8"/>
        <path id="Path_15520" data-name="Path 15520" d="M45.175.416c-3.881.1-7.781-.312-11.894.594A3.763,3.763,0,0,1,35.834.3a30.758,30.758,0,0,1,9.342.114Z" transform="translate(1.064 0)" fill="#cddde8"/>
        <path id="Path_15521" data-name="Path 15521" d="M114.816,23.778a47.75,47.75,0,0,0-5.435-4.559c2.336.919,3.9,2.735,5.435,4.559" transform="translate(3.498 0.548)" fill="#cfdae3"/>
        <path id="Path_15522" data-name="Path 15522" d="M110.221,65.022l-.244.239a68.251,68.251,0,0,1-.091-10.106c-.06,3.3.225,6.578.334,9.868" transform="translate(3.509 1.572)" fill="#bbd1e5"/>
        <path id="Path_15523" data-name="Path 15523" d="M43.063,47.165a5.834,5.834,0,0,1,3.684,3.114c-1.336-.919-2.216-2.38-3.684-3.114" transform="translate(1.377 1.344)" fill="#d4dfe9"/>
        <path id="Path_15524" data-name="Path 15524" d="M7.3,64.658a18.188,18.188,0,0,1-3.45-3.7l.261-.233q1.6,1.819,3.2,3.637c.07.069.092.135.064.2s-.053.095-.077.095" transform="translate(0.123 1.731)" fill="#d4dfe8"/>
        <path id="Path_15525" data-name="Path 15525" d="M40.587,46.222c-.7-.357-1.419-.7-2.11-1.076-.486-.268-.391-.757-.362-1.2.032-.49.481-.972-.044-1.475-.182-.174.062-.383.238-.454.33-.134.287.148.3.331a1.275,1.275,0,0,1-.008.485c-.572,1.673.369,2.42,1.765,2.91.127.045.22.188.328.286-.036.064-.07.129-.106.192" transform="translate(1.216 1.197)" fill="#cbd9e3"/>
        <path id="Path_15526" data-name="Path 15526" d="M33.266,70.034a9.47,9.47,0,0,0,1.974-1.77c.453,2.061.581,1.791-1.974,1.77" transform="translate(1.064 1.946)" fill="#cbe5f4"/>
        <path id="Path_15527" data-name="Path 15527" d="M47.388,58.987a19.834,19.834,0,0,1-2.93-4.118,16.208,16.208,0,0,1,2.93,4.118" transform="translate(1.422 1.564)" fill="#d1dde5"/>
        <path id="Path_15528" data-name="Path 15528" d="M119.6,33.924a10.09,10.09,0,0,1,0,5.894,20.7,20.7,0,0,0,0-5.894" transform="translate(3.825 0.967)" fill="#c9d5de"/>
        <path id="Path_15529" data-name="Path 15529" d="M90.8,14.768c1.623-.544,3.286-.2,4.931-.191a5.381,5.381,0,0,1,1.739.4A53.628,53.628,0,0,0,90.8,14.76Z" transform="translate(2.904 0.412)" fill="#c0d4e3"/>
        <path id="Path_15530" data-name="Path 15530" d="M.688,48.947A12.885,12.885,0,0,0,.47,54.9a8.021,8.021,0,0,1,.219-5.95" transform="translate(0 1.395)" fill="#c6d4de"/>
        <path id="Path_15531" data-name="Path 15531" d="M51.106,45.8a22.808,22.808,0,0,0,2.566,3.5,5.286,5.286,0,0,1-2.566-3.5" transform="translate(1.635 1.306)" fill="#cfdae3"/>
        <path id="Path_15532" data-name="Path 15532" d="M115.823,46.575c-.713,1.541-2.256,2.318-3.2,3.643l-.308-.283,3.5-3.369.01.009" transform="translate(3.592 1.327)" fill="#cfdbe6"/>
        <path id="Path_15533" data-name="Path 15533" d="M44.807.4A15.188,15.188,0,0,1,50,1.059,27.236,27.236,0,0,1,44.806.4h0" transform="translate(1.433 0.011)" fill="#cad7e2"/>
        <path id="Path_15534" data-name="Path 15534" d="M12.265,20.975a33.209,33.209,0,0,1-1.151,5.176,15.225,15.225,0,0,1,1.153-5.175Z" transform="translate(0.355 0.598)" fill="#cad8e2"/>
        <path id="Path_15535" data-name="Path 15535" d="M90.94,14.752l-4.646,1.291a9.872,9.872,0,0,1,4.653-1.283l-.007-.008" transform="translate(2.76 0.42)" fill="#c7d5e1"/>
        <path id="Path_15536" data-name="Path 15536" d="M27.817,3.129a6.122,6.122,0,0,1,3.537-1.582L27.817,3.129" transform="translate(0.89 0.044)" fill="#cdd9e2"/>
        <path id="Path_15537" data-name="Path 15537" d="M36.566,37.968c-.328,1.633-.033,3.266-.282,4.869-.01-1.64-.35-3.294.282-4.869" transform="translate(1.157 1.082)" fill="#c8d6e1"/>
        <path id="Path_15538" data-name="Path 15538" d="M100.123,15.647a8.237,8.237,0,0,1,3.929,1.089l-3.929-1.089" transform="translate(3.202 0.446)" fill="#c9d6e1"/>
        <path id="Path_15539" data-name="Path 15539" d="M7.2,64.557l.012-.293c.732.674,1.639,1.191,1.983,2.208l-.027.027A4.965,4.965,0,0,1,7.2,64.557" transform="translate(0.23 1.832)" fill="#d7eef5"/>
        <path id="Path_15540" data-name="Path 15540" d="M40.338,49.136a4.067,4.067,0,0,1,1.514,2.091,3.664,3.664,0,0,1-1.514-2.091" transform="translate(1.29 1.401)" fill="#d6dfe7"/>
        <path id="Path_15541" data-name="Path 15541" d="M48.443,39.716l-1.861-2.3a2.974,2.974,0,0,1,1.9,2.263l-.038.034" transform="translate(1.49 1.067)" fill="#c9dbea"/>
        <path id="Path_15542" data-name="Path 15542" d="M54.521,72.412c-1.258,1.144-2.6.836-3.968.241l0,0a6.571,6.571,0,0,0,3.951-.252Z" transform="translate(1.617 2.064)" fill="#c3d4e0"/>
        <path id="Path_15543" data-name="Path 15543" d="M40.342,64.561l-.278.012-1.723-1.936.278-.251a10.06,10.06,0,0,1,1.723,2.174" transform="translate(1.226 1.778)" fill="#d2dee8"/>
        <path id="Path_15544" data-name="Path 15544" d="M117.757,28.311a4.532,4.532,0,0,1,1.026,2.568,6.792,6.792,0,0,1-1.026-2.568" transform="translate(3.766 0.807)" fill="#ccd9e3"/>
        <path id="Path_15545" data-name="Path 15545" d="M54.386,72.434A10.413,10.413,0,0,1,57.163,71.1,6.046,6.046,0,0,1,54.4,72.449l-.012-.015" transform="translate(1.739 2.027)" fill="#cbd9e2"/>
        <path id="Path_15546" data-name="Path 15546" d="M51.831,58.357a4.824,4.824,0,0,1,.476-2.743,7.587,7.587,0,0,1-.476,2.743" transform="translate(1.656 1.585)" fill="#ccd8e2"/>
        <path id="Path_15547" data-name="Path 15547" d="M26.25,3.866A4.049,4.049,0,0,1,24.163,5.1,3.875,3.875,0,0,1,26.25,3.866" transform="translate(0.773 0.11)" fill="#cdd8e0"/>
        <path id="Path_15548" data-name="Path 15548" d="M64.51,56.868c-.5.316-.85.87-1.494.969Q63,57.471,62.99,57.1c.253-.323.611-.26.954-.256a.43.43,0,0,1,.567.021" transform="translate(2.015 1.618)" fill="#e4b4b3"/>
        <path id="Path_15549" data-name="Path 15549" d="M35,44.341a2.575,2.575,0,0,1,2.25,1.036L35,44.341" transform="translate(1.119 1.263)" fill="#cbd7e0"/>
        <path id="Path_15550" data-name="Path 15550" d="M54.206,50.651c.385.722.385.722,0,2.5Z" transform="translate(1.734 1.444)" fill="#cadbe7"/>
        <path id="Path_15551" data-name="Path 15551" d="M108.582,18.848l-2.019-1c.039-.088.077-.178.116-.266.685.324,1.367.649,2.052.974-.05.1-.1.194-.149.291" transform="translate(3.408 0.501)" fill="#c9d4db"/>
        <path id="Path_15552" data-name="Path 15552" d="M50.624,72.672a3.876,3.876,0,0,1-2.287-.928,3.716,3.716,0,0,1,2.29.924l0,0" transform="translate(1.546 2.045)" fill="#ccdbe4"/>
        <path id="Path_15553" data-name="Path 15553" d="M48.415,51.1c.317-.156.2-.463.252-.712a2.751,2.751,0,0,1,.447,2.067c-.519-.376-.464-.945-.7-1.356" transform="translate(1.549 1.436)" fill="#d2e0ea"/>
        <path id="Path_15554" data-name="Path 15554" d="M13.389,17.16c.255-.6.51-1.2.885-2.076.192,1.1-.485,1.555-.606,2.212l-.28-.137" transform="translate(0.428 0.43)" fill="#ccd9e2"/>
        <path id="Path_15555" data-name="Path 15555" d="M12.231,21.038a4.219,4.219,0,0,1,.663-2.228,4.021,4.021,0,0,1-.665,2.227h0" transform="translate(0.391 0.536)" fill="#c8d4dd"/>
        <path id="Path_15556" data-name="Path 15556" d="M115.705,46.6c.073-.681.638-.965,1.126-1.31-.238.547-.463,1.1-1.116,1.32l-.01-.009" transform="translate(3.701 1.291)" fill="#cedae4"/>
        <path id="Path_15557" data-name="Path 15557" d="M116.577,26.373c-.518-.189-.617-.673-.889-1.125.671.335.671.335.889,1.125" transform="translate(3.7 0.72)" fill="#ced8e0"/>
        <path id="Path_15558" data-name="Path 15558" d="M15.611,12.845l.271.005a3.706,3.706,0,0,1-.947,1.619c-.127-.757.554-1.079.676-1.624" transform="translate(0.477 0.366)" fill="#cdd6dc"/>
        <path id="Path_15559" data-name="Path 15559" d="M37.7,35.111q.209-4.439.417-8.878c.132-1.194.229-2.3-1.061-3.1a1.518,1.518,0,0,1-.309-2.294,1.719,1.719,0,0,1,2.233-.732c.949.408,2.612-.29,3.375-1.4a8.25,8.25,0,0,0,.947-1.85c.28-.778.644-.784,1.285-.4a11.908,11.908,0,0,0,3.993,1.554c1.058.194,1.474.954,1.324,2.379a30.989,30.989,0,0,1-.927,4.683c-.068,0-.137.01-.2.019-1.334.347-2.587-.191-3.868-.376a19.742,19.742,0,0,1-3.649-1.127c-1.162-.408-1.146-.4-1.387.853a19.393,19.393,0,0,0-.241,2.813c-.062,1.385,1.651,3.13,3.5,3.738.653.214,1.4.18,1.938.712q-.014,2.078-.029,4.156c-.785-.154-1.328.529-2.1.561a6.962,6.962,0,0,1-4.441-1.03,3.094,3.094,0,0,0-.8-.275" transform="translate(1.163 0.462)" fill="#faa39b"/>
        <path id="Path_15560" data-name="Path 15560" d="M96,42.261c.5,1.139-.133,1.957-.833,2.713-.466.5-.784.075-1.064-.3-.607-1.009-1.682-1-2.617-1.009a12.7,12.7,0,0,1-5.905-1.958c-1.74-.939-1.342-.947-2.654.309-.7.106-.972-.288-1.037-.893-.1-.916.055-1.715,1.069-2.066a4.858,4.858,0,0,1,5.393-4.717c1.573.155,3.091.353,4.544-.485.443-.255.782.005,1,.416a4.824,4.824,0,0,0,.943,1.276c1.9,1.791,1.765,3.977,1.228,6.24a1.047,1.047,0,0,0-.067.473" transform="translate(2.618 0.962)" fill="#faa39b"/>
        <path id="Path_15561" data-name="Path 15561" d="M95.982,42.388c-.313-1,.135-1.971.079-2.974a4.288,4.288,0,0,0-1.568-3.552c-.626-.459-.648-1.585-1.213-1.672-.583-.091-1.253.676-2,.75a7.938,7.938,0,0,1-1.963.015c-3.391-.518-4.353-.035-5.8,3.026-.191.4-.384.8-.576,1.205-.657-1.5-1.07-3-.054-4.53a1.7,1.7,0,0,0,.227-.816c.05-.8-.162-1.634.531-2.3a6.945,6.945,0,0,1,3.782-2.154,12.361,12.361,0,0,1,6.157.8,2.072,2.072,0,0,1,1.609,2.067c-.013.3.127.408.331.571a5.817,5.817,0,0,1,1.66,7.867,17.347,17.347,0,0,1-1.2,1.693" transform="translate(2.631 0.835)" fill="#282a2e"/>
        <path id="Path_15562" data-name="Path 15562" d="M44.976,31.51a7.751,7.751,0,0,1-3.99-1.424c-1.93-1.381-1.942-3.32-1.636-5.367.323-2.162.353-2.243,2.41-1.443A42.347,42.347,0,0,0,48.683,24.9c.257,1.925-.587,3.564-1.441,5.169a2.6,2.6,0,0,1-2.266,1.442" transform="translate(1.254 0.65)" fill="#fcfcfc"/>
        <path id="Path_15563" data-name="Path 15563" d="M82.889,41.828c.533-1.623.853-1.82,2.208-.926a14.312,14.312,0,0,0,7.844,2.385c.808.013,1.234.348,1.124,1.2a7.452,7.452,0,0,1-3,3.278l-.689.368a3.81,3.81,0,0,1-3.927.981A4.233,4.233,0,0,1,83.609,45.6a7.913,7.913,0,0,1-.72-3.767" transform="translate(2.651 1.151)" fill="#fcfdfd"/>
        <path id="Path_15564" data-name="Path 15564" d="M52.744,39.267a6.321,6.321,0,0,1,3.41-2.458,5.5,5.5,0,0,1,1.331-.169,1.653,1.653,0,0,1,1.682,1.334,1.62,1.62,0,0,1-.8,1.875,4.756,4.756,0,0,1-3.738.868,19.019,19.019,0,0,1-4.55-1.462,4.889,4.889,0,0,1-2.447-2.791,1.676,1.676,0,0,1,.476-2.092,1.641,1.641,0,0,1,2.24.068,5.181,5.181,0,0,1,2.042,3.64c.043.394-.036.823.357,1.187" transform="translate(1.518 0.968)" fill="#207ac3"/>
        <path id="Path_15565" data-name="Path 15565" d="M74.157,52.985l-.285,1.007a2.447,2.447,0,0,1-3.225-2c-.026-.227-.28-.489-.012-.676A9.351,9.351,0,0,0,73.458,47.4a1.065,1.065,0,0,1,.953-.619c1.9-.248,3.593-.065,4.665,1.787-.753.624-1.489,1.27-2.263,1.867-1.482,1.143-1.655,1.077-2.073-.763-.353,1.124.079,2.317-.582,3.31" transform="translate(2.255 1.331)" fill="rgba(54,89,151,0.56)"/>
        <path id="Path_15566" data-name="Path 15566" d="M101.513,31.506a2.784,2.784,0,0,1,.14.38c.074.306.03.638-.315.686-.467.067-.354-.358-.352-.6,0-.741.055-1.374-.84-1.816-.751-.372-1.311-.742-2.061-.082-.258.227-.772.385-.911-.076-.122-.4.355-.464.684-.473.671-.019,1.123-.606,1-.994-.212-.666.406-1.806-.908-1.971a.644.644,0,0,1-.629-.49.325.325,0,0,1,.177-.407c.327-.136.549.08.749.285.908.926,1.57-.113,2.308-.324.63-.179.462-.779.3-1.251-.116-.345-.15-.653.191-.862a.517.517,0,0,1,.451-.037c.341.239.186.566.1.883-.115.419-.369,1.053.208,1.142.881.133,1.588,1.681,2.639.4.292-.357.553-.364.794-.065.288.358-.076.532-.327.61-1.164.365-.945,1.421-1.1,2.242-.1.519.375.754.865.832.3.046.783-.06.662.454-.1.434-.574.355-.813.174-1.008-.762-1.759-.057-2.57.369a.831.831,0,0,0-.44,1" transform="translate(3.107 0.668)" fill="#fdfdfe"/>
        <path id="Path_15567" data-name="Path 15567" d="M31.648,16.718a11.013,11.013,0,0,0-4.467,4.216,2.1,2.1,0,0,1-1.168-.63c-.68-.514-1.25-.743-1.859.076-.2.265-.573.486-.811.092-.205-.341.06-.672.421-.723,1.671-.234,1.03-1.556,1.135-2.464.059-.508-.518-.518-.938-.533-.279-.01-.621.039-.654-.367a.588.588,0,0,1,.182-.425c.293-.264.507.005.751.146.487.281.957.671,1.538.1.554-.541,1.94-.5,1.245-1.879a.434.434,0,0,1,.359-.645c.421,0,.361.426.3.66-.394,1.589,1.175,1.6,1.873,2.284.27.264.556-.2.784-.412.785-.713,1.225-.576,1.308.5" transform="translate(0.744 0.39)" fill="#fcfdfd"/>
        <path id="Path_15568" data-name="Path 15568" d="M83.612,45.451c.082.141.16.285.246.424,2.047,3.33,2.9,3.607,6.523,2.114.807.426.407.949.043,1.36a8.341,8.341,0,0,1-2.387,1.9,3,3,0,0,1-3.451,0c-1.211-.908-2.071-1.985-1.667-3.632.5-.637.216-1.52.692-2.164" transform="translate(2.649 1.296)" fill="#faa39b"/>
        <path id="Path_15569" data-name="Path 15569" d="M56.021,29.489a9.352,9.352,0,0,1,2.726-1.577c.889-.182,1.706-.177,2.057.785.365,1-.341,1.5-1.143,1.859-2.257,1-5.96-.6-6.782-2.923-.28-.789-.4-1.587.489-2.026.929-.457,1.549.111,2.04.85a4.721,4.721,0,0,1,.613,3.033" transform="translate(1.685 0.725)" fill="#207ac3"/>
        <path id="Path_15570" data-name="Path 15570" d="M97.813,50.259c-.754-.629-1.736-1.009-2.192-1.968-.239-.678-.464-1.372.355-1.824s1.366.052,1.914.6c.717.719.631,1.718.928,2.633.917-.413,1.511-1.256,2.506-1.36.806-.085,1.661-.18,1.912.82.243.968-.482,1.347-1.259,1.655-1.5.6-2.8-.227-4.164-.56" transform="translate(3.051 1.319)" fill="#227ac2"/>
        <path id="Path_15571" data-name="Path 15571" d="M58.371,24.524c.9-.219,1.449-.862,2.24-1s1.542-.138,1.825.763c.263.839-.31,1.279-1,1.586A4.418,4.418,0,0,1,55.7,23.132c-.188-.726-.217-1.422.593-1.784.848-.38,1.267.207,1.679.818a4.012,4.012,0,0,1,.4,2.359" transform="translate(1.778 0.605)" fill="#2179c3"/>
        <path id="Path_15572" data-name="Path 15572" d="M56.98,35.421c-2.54.241-5.663-1.171-6.574-2.969-.417-.824-.651-1.681.27-2.281s1.625-.066,2.236.625A4.561,4.561,0,0,1,54,34.1c.479.037.594-.5.97-.61.315-.135.731.006.728.222-.015.936.876,1.13,1.278,1.71" transform="translate(1.6 0.853)" fill="#217bc3"/>
        <path id="Path_15573" data-name="Path 15573" d="M70.858,51.841a3.394,3.394,0,0,0,3.225,2q-.108.688-.216,1.376c-.567.619-1.363.36-2.047.537a16.343,16.343,0,0,0-1.643.342c-.266.062-.641.237-.728-.267.083-.727-.355-.505-.77-.453-1.54.2-2.8,1.09-4.2,1.627l-.567-.02a4.432,4.432,0,0,1,1.238-.754,10.953,10.953,0,0,0,4.912-3.889.916.916,0,0,1,.794-.5" transform="translate(2.044 1.478)" fill="#f7a49d"/>
        <path id="Path_15574" data-name="Path 15574" d="M100.154,46.467a3.867,3.867,0,0,1,2.27-1.263.973.973,0,0,1,1.166.673A.961.961,0,0,1,103.065,47c-1.619,1.081-5.093-.1-5.68-1.924a.965.965,0,0,1,1.594-1.038,4.33,4.33,0,0,1,1.174,2.425" transform="translate(3.112 1.246)" fill="#237cc3"/>
        <path id="Path_15575" data-name="Path 15575" d="M59.169,21.332a3.71,3.71,0,0,1,1.043-2.709,1.253,1.253,0,0,1,1.755-.315,1.394,1.394,0,0,1,.494,1.738,4.112,4.112,0,0,1-1.59,2.119c-.419.289-.933.738-1.419.488-.469-.241-.214-.894-.284-1.321" transform="translate(1.892 0.515)" fill="#217bc3"/>
        <path id="Path_15576" data-name="Path 15576" d="M101,43.007c.636-.515,1.111-1.117,1.908-1.2a.967.967,0,0,1,1.128.529c.215.5-.067.85-.457,1.137a3.854,3.854,0,0,1-4.918-1.017c-.311-.543-.557-1.185.132-1.613.635-.395,1.033.107,1.445.535s.37,1.067.763,1.63" transform="translate(3.146 1.16)" fill="#257cc3"/>
        <path id="Path_15577" data-name="Path 15577" d="M56.827,35.357c-.763-.245-1.778-.247-1.434-1.542.02-.075-.37-.258-.571-.391a3.453,3.453,0,0,1,2.8-1.265,1.42,1.42,0,0,1,1.523.971c.276.729-.141,1.17-.639,1.558a3.023,3.023,0,0,1-1.677.669" transform="translate(1.753 0.917)" fill="#2279c5"/>
        <path id="Path_15578" data-name="Path 15578" d="M77.071,36.693a1.81,1.81,0,0,1-1.839,1.144c-1.28.029-1.275-1.019-1.292-1.661a1.755,1.755,0,0,1,1.231-1.622c1.016-.226,1.929.813,1.9,2.139" transform="translate(2.365 0.984)" fill="#fbfcfc"/>
        <path id="Path_15579" data-name="Path 15579" d="M102.03,40.466a2.745,2.745,0,0,1-2.4-1.221c-.3-.469-.473-1.044.074-1.417a.875.875,0,0,1,1.327.454c.391.91.722,1.3,1.616.433a.938.938,0,0,1,1.576.141c.334.663-.3,1.012-.774,1.32a2.328,2.328,0,0,1-1.422.291" transform="translate(3.178 1.074)" fill="#287ec4"/>
        <path id="Path_15580" data-name="Path 15580" d="M48.638,8.113c.008-1.1.57-1.766,1.448-1.725A1.6,1.6,0,0,1,51.61,8.125c0,1.037-.8,1.32-1.545,1.4-1.072.123-1.438-.33-1.427-1.417" transform="translate(1.556 0.182)" fill="#fbfcfd"/>
        <path id="Path_15581" data-name="Path 15581" d="M101.9,52.754a5.514,5.514,0,0,0-2.74,2.754,5.216,5.216,0,0,1-.674-3.4c1.288-.571,2.336.113,3.414.647" transform="translate(3.148 1.479)" fill="#257dc4"/>
        <path id="Path_15582" data-name="Path 15582" d="M103.132,36.061c-.074.775-.278,1.815-1.2,1.929-.786.1-.709-.981-.729-1.54-.025-.693.078-1.575,1.1-1.613.7-.026.833.532.835,1.223" transform="translate(3.237 0.993)" fill="#277cc2"/>
        <path id="Path_15583" data-name="Path 15583" d="M63.925,32.791c-.821.052-1.567,1.365-2.444.164a.9.9,0,0,1,.225-1.366c1.291-.825,1.477.725,2.219,1.2" transform="translate(1.959 0.894)" fill="#f8fcfc"/>
        <path id="Path_15584" data-name="Path 15584" d="M22.236,28.559l-1.966,1.7c.218-.905.849-1.32,1.966-1.7" transform="translate(0.648 0.814)" fill="#aec1c9"/>
        <path id="Path_15585" data-name="Path 15585" d="M18.292,51.152c-.489-.008-.835-.129-.923-.721a3.114,3.114,0,0,0-.5-1.089c-1.061-1.719-.08-5.034,1.078-6.272.732-.782,1.769-1.428,1.879-2.82.249.429.4.869.91.836-.967.962-2.168,1.7-2.724,3.044a7.833,7.833,0,0,0-.169,5.258c.162.584.3,1.176.448,1.764" transform="translate(0.525 1.147)" fill="#6fa6d6"/>
        <path id="Path_15586" data-name="Path 15586" d="M19.463,53.088c-.691-.582-1.577-1.059-1.216-2.214l1.216,2.214" transform="translate(0.581 1.45)" fill="#6fa6d6"/>
        <path id="Path_15587" data-name="Path 15587" d="M11.139,34.927c1.005,1.384,2.334,2.53,3.15,4.055L14,39.2l-3.247-4.08.39-.2" transform="translate(0.344 0.996)" fill="#6fa6d6"/>
        <path id="Path_15588" data-name="Path 15588" d="M30.985,64.508,28.7,60.953c.8.016.756.743,1.189,1.04.459-.123.351-.722,1.18-1.039-1.369,1.421-.249,2.394-.084,3.553" transform="translate(0.918 1.737)" fill="#6fa6d6"/>
        <path id="Path_15589" data-name="Path 15589" d="M14.88,39.929c.737,1.1,1.582,1.68,2.022,2.941-1.017-.829-1.821-1.44-2.022-2.941" transform="translate(0.476 1.138)" fill="#6fa6d6"/>
        <path id="Path_15590" data-name="Path 15590" d="M21.341,59.875c1.05-.288,2.157.05,3.2-.269-1.022.59-2.123.312-3.2.269" transform="translate(0.683 1.699)" fill="#6fa6d6"/>
        <path id="Path_15591" data-name="Path 15591" d="M26.391,57.133c.579.376.938.763.836,1.259-.049.238-.563.287-.5-.177.051-.39-.273-.574-.332-1.082" transform="translate(0.844 1.629)" fill="#6fa6d6"/>
        <path id="Path_15592" data-name="Path 15592" d="M77.709,63.037a29.8,29.8,0,0,1-.027-3.393,3.219,3.219,0,0,0-1.324-3.2c.814.344.733-.429.966-.89a16.425,16.425,0,0,1,.385,7.488" transform="translate(2.442 1.583)" fill="#365997"/>
        <path id="Path_15593" data-name="Path 15593" d="M93.742,68.258c-.117-2.439.393-4.855.28-7.294a25.4,25.4,0,0,1-.28,7.294" transform="translate(2.998 1.738)" fill="#365997"/>
        <path id="Path_15594" data-name="Path 15594" d="M93.72,58.6V55.2c-.043,1.146.65,2.282,0,3.4" transform="translate(2.997 1.573)" fill="#365997"/>
        <path id="Path_15595" data-name="Path 15595" d="M103.1,57.19c.1.9.1.9,2.66-.482a5.226,5.226,0,0,1-3.429,2,3.579,3.579,0,0,1,.769-1.516" transform="translate(3.273 1.616)" fill="#6fa6d6"/>
        <path id="Path_15596" data-name="Path 15596" d="M100.622,61.7c-.183-.619.633-1.009.354-1.717-.12-.3.36-.111.561-.119.355-.013.3.219.143.375-.426.437-.438,1.17-1.065,1.456Z" transform="translate(3.217 1.705)" fill="#6fa6d6"/>
        <path id="Path_15597" data-name="Path 15597" d="M100.62,61.639c.812.572,1.679.1,2.7.055a3.735,3.735,0,0,1-2.709.382c-.281-.016-.146-.286.017-.432l-.005,0" transform="translate(3.213 1.757)" fill="#6fa6d6"/>
        <path id="Path_15598" data-name="Path 15598" d="M69.293,60.135l-1.915-.129c.274-.732.932-.681,1.41-.843a7.7,7.7,0,0,0,1.4-.42c.388-.217.8-.338.866-.912.067-.623-.441-.691-.756-.957a1.452,1.452,0,0,1,1.266-.561,1.229,1.229,0,0,1,.967.279,7.95,7.95,0,0,1-3.234,3.542" transform="translate(2.155 1.605)" fill="#eaacae"/>
        <path id="Path_15599" data-name="Path 15599" d="M72.483,56.619l-1.118-.01c-.638-.716-1.263-.3-1.82.081-.509.352-.723.282-.778-.321.15-.233.187-.56.527-.638.848.178,1.583-.565,2.443-.3.4.178.867.12,1.269.3l-.523.88" transform="translate(2.199 1.579)" fill="#bdcdd6"/>
        <path id="Path_15600" data-name="Path 15600" d="M65.144,61.9a3.123,3.123,0,0,1,2.719-.957c-.545.393-1.085.793-1.637,1.176-.427.3-.814.307-1.083-.219" transform="translate(2.084 1.737)" fill="#edb0b4"/>
        <path id="Path_15601" data-name="Path 15601" d="M72.915,55.747c-.457.038-1.031.557-1.269-.3.609-.4,1.359.057,1.974-.315-.054.5.151,1.038-.2,1.5-.226-.262.33-.97-.508-.881" transform="translate(2.292 1.571)" fill="#fafafa"/>
        <path id="Path_15602" data-name="Path 15602" d="M68.849,56.359c.2-.01.335.43.421.222.322-.786,1.095-.509,1.628-.73.659-.273.682.258.549.748l-1.117.292-4.1.8a3.952,3.952,0,0,1,2.616-1.335" transform="translate(2.118 1.59)" fill="#fafafa"/>
        <path id="Path_15603" data-name="Path 15603" d="M42.815,20.84c.429.024.564.3.568.649,0,.465-.123.951-.594,1.076-.362.1-.558-.29-.547-.636a1.087,1.087,0,0,1,.574-1.089" transform="translate(1.351 0.594)" fill="#503e41"/>
        <path id="Path_15604" data-name="Path 15604" d="M47.314,22.35c-.071.481-.063,1.012-.656,1.034-.432.016-.431-.407-.422-.724.011-.41.085-.857.579-.926.46-.064.429.361.5.616" transform="translate(1.479 0.619)" fill="#453637"/>
        <path id="Path_15605" data-name="Path 15605" d="M45.178,23.665a3.987,3.987,0,0,1-.014-1.987,3.975,3.975,0,0,1,.014,1.987" transform="translate(1.441 0.618)" fill="#c47a73"/>
      </g>
    </g>
    <g id="Group_1096" data-name="Group 1096" transform="translate(121.199 347.853)">
      <path id="Path_15607" data-name="Path 15607" d="M37.742,15.037a17.847,17.847,0,0,1,4.206,1.044c-.1-.58-.058-1.134-.746-1.3a4.621,4.621,0,0,0-3.46.254" transform="translate(-37.742 -14.57)" fill="#18120f"/>
    </g>
    <path id="Path_15610" data-name="Path 15610" d="M.278,0A15.61,15.61,0,0,0,3.909,1.271c.175.036.388.089.251.182A1.033,1.033,0,0,1,3.6,1.5,12.444,12.444,0,0,1,.291.8C-.292.565.161.326.278,0" transform="translate(131.458 350.917) rotate(177)" fill="#1c130f"/>
    <path id="Path_15611" data-name="Path 15611" d="M40.537,18.769c-.092-.418-.181-.85-.8-.852a.555.555,0,0,0-.571.678c.036.377.112.812.77.811.521,0,.514-.38.6-.636" transform="translate(83.799 331.577)" fill="#201712"/>
    <path id="Path_15612" data-name="Path 15612" d="M40.537,18.769c-.092-.418-.181-.85-.8-.852a.555.555,0,0,0-.571.678c.036.377.112.812.77.811.521,0,.514-.38.6-.636" transform="translate(88.959 333.052)" fill="#201712"/>
  </g>
</svg>
