<svg xmlns="http://www.w3.org/2000/svg" xmlns:xlink="http://www.w3.org/1999/xlink" width="92.027" height="92.004" viewBox="0 0 92.027 92.004">
  <defs>
    <clipPath id="clip-path">
      <rect id="Rectangle_1815" data-name="Rectangle 1815" width="92.027" height="92.004" fill="none"/>
    </clipPath>
    <clipPath id="clip-path-2">
      <rect id="Rectangle_1789" data-name="Rectangle 1789" width="6.271" height="6.271" fill="none"/>
    </clipPath>
    <clipPath id="clip-path-3">
      <rect id="Rectangle_1797" data-name="Rectangle 1797" width="16.72" height="7.828" fill="none"/>
    </clipPath>
  </defs>
  <g id="Group_1075" data-name="Group 1075" transform="translate(-48 -308)">
    <g id="Group_863" data-name="Group 863" transform="translate(-300.624 1792)">
      <g id="Group_861" data-name="Group 861" transform="translate(348.624 -1484)">
        <g id="Group_860" data-name="Group 860" clip-path="url(#clip-path)">
          <path id="Path_9715" data-name="Path 9715" d="M.014,68.341Q.014,34.516,0,.69C0,.127.126,0,.69,0c5.632.024,11.266.015,16.9.015a.911.911,0,0,1,.226.762q0,7.948,0,15.9a1.2,1.2,0,0,1-.065.515c-.275.429-.722.383-1.141.4a20.045,20.045,0,0,0-2.606.11c.819.381,1.734-.009,2.553.324.3.176.2.428.1.655-.229.552.073.9.441,1.232a.961.961,0,0,0,1.116.138,1.2,1.2,0,0,0,.739-1.118c.009-.3-.262-.641.11-.9a4.7,4.7,0,0,1,1.69-.146c.308-.023.631.066.919-.179a15.491,15.491,0,0,0-2.464-.115c-.462-.017-.958.08-1.308-.358a1.788,1.788,0,0,1-.082-.812q0-7.708,0-15.416c0-.341-.081-.709.223-.985H73.617a1.094,1.094,0,0,1,.3.89q0,7.756,0,15.512a1.936,1.936,0,0,1-.156.8,1.111,1.111,0,0,1-1.007.368,23.5,23.5,0,0,0-2.395.083c2.428.056,4.856.071,7.284-.009-.842-.086-1.686-.059-2.528-.074a1.189,1.189,0,0,1-1.028-.34,2,2,0,0,1-.172-.95q0-7.62,0-15.239a1.233,1.233,0,0,1,.3-1.042H91.942a1.168,1.168,0,0,1,.072.66q0,33.589,0,67.179A2.763,2.763,0,0,1,92,68.3c-.71.6-1.5.352-2.274.208a.777.777,0,0,1-.379-.431c-.14-.528-.583-.471-.969-.475-1.765-.015-3.531,0-5.3-.009a1.618,1.618,0,0,1-1.138-.252,1.1,1.1,0,0,1-.214-.842c.161-3.023.06-6.048.073-9.073.018-4.352.108-8.706-.021-13.055-.177-6-.072-12-.13-17.995-.007-.727.1-1.443.139-2.164.035-.6.271-.759.808-.579.339.254.254.629.254.967,0,5.77.014,11.54,0,17.309,0,1.432,1.06,2.331,2.244,1.879a1.561,1.561,0,0,0,1.05-1.262,19.891,19.891,0,0,0,.073-5.071,1.918,1.918,0,0,1,.154-1.015,1.679,1.679,0,0,0,.32-.974.921.921,0,0,1,.979-1.064c.618-.015.81-.36.815-.919.019-2.219-.008-4.437,0-6.655a.731.731,0,0,0-.791-.852.853.853,0,0,1-.923-.874c-.009-.422.369-.629.54-.959-.077.074.028-.048.005-.026a1.238,1.238,0,0,1-2.086-.147,1.114,1.114,0,0,0-.946-.544c-.472-.033-.948,0-1.42-.058a2.121,2.121,0,0,0-.235.026,14.056,14.056,0,0,1-2.775-.027c-.386-.162-.751-.672-1.187-.072-.6.106-1.18.181-1.46.875-.116.286-.49.38-.828.374a2.113,2.113,0,0,1-.652-.134,1.66,1.66,0,0,1-.637-.425,1.188,1.188,0,0,1,.342,1.173.991.991,0,0,1-.924.529c-.4.033-.557.255-.574.638a65.7,65.7,0,0,0,0,7.02.7.7,0,0,0,.724.758c.854.107.912.208.924,1.116.005.317-.071.665.31.845.418.64.163,1.354.2,2.032a1.678,1.678,0,0,0,.651,1.348,1.607,1.607,0,0,0,2.547-.6,1.256,1.256,0,0,0,.268-.981q0-6.542.006-13.084a4.115,4.115,0,0,1-.037-.966.469.469,0,0,1,.2-.218c.766-.114,1.037.076,1.109.788a7.472,7.472,0,0,1,.016.75q0,20.407,0,40.814a2.218,2.218,0,0,1-.186,1.315,1.3,1.3,0,0,1-1.1.329c-1.61.008-3.221-.006-4.832.009-.36,0-.764-.072-.986.346a.963.963,0,0,1-.263.494,2.5,2.5,0,0,1-2.131-.014,1.268,1.268,0,0,1-.283-.977c-.008-.974-.006-1.948,0-2.922.008-1.923-.258-3.826-.4-5.739-.129-1.739-.33-3.47-.518-5.2-.148-1.36-.265-2.728-.546-4.072a18.147,18.147,0,0,1,.157-6.1,1.221,1.221,0,0,1,.356-.647c1.1-.664,1.011-1.779.919-2.792-.155-1.714-.193-3.443-.439-5.141a33.366,33.366,0,0,0-1.279-5.458c-.138-.428-.294-.853-.393-1.289A2.372,2.372,0,0,0,67.368,26.3a25.739,25.739,0,0,0-3.549-1.161,1.6,1.6,0,0,1-.226.007,1.507,1.507,0,0,1-.865-.424,2.49,2.49,0,0,0-.388-.172.864.864,0,0,1-.3-.144,5.063,5.063,0,0,1-1.289-2.792,4.255,4.255,0,0,1,.911-2.542,2.813,2.813,0,0,0,.534-1.451,1.5,1.5,0,0,0-.657-1.616,1.623,1.623,0,0,1-.107-1.232,3.313,3.313,0,0,0-1.522-3.353,1.965,1.965,0,0,0-1.475-.413,1.235,1.235,0,0,1-1.2-.455,2.245,2.245,0,0,0-2.525-.668,6.992,6.992,0,0,0-4.021,2.68,2.072,2.072,0,0,0-.324,1.719,23.914,23.914,0,0,0,1.054,3.659c.051.663-.1,1.37.415,1.935a1.041,1.041,0,0,1,.08.2c1.224,1.363,1.888,3.113,3.12,4.474a3.051,3.051,0,0,0,2.234,1.206.664.664,0,0,1,.413.161.389.389,0,0,1,.038.418,1.426,1.426,0,0,1-.539.663c-.583.108-.771.618-1.052,1.033-.4.187-.515.633-.814.914a2.8,2.8,0,0,1-.481.24A6.909,6.909,0,0,0,53.527,30.5,6.252,6.252,0,0,1,50.4,32.131a.942.942,0,0,1-1.21-.579c-.708-1.444-1.819-2.685-2.16-4.314-.021-.1-.143-.132-.221-.193a1.718,1.718,0,0,1-.494-.611.645.645,0,0,1,0-.333,3.849,3.849,0,0,0,.409-2.379,1.47,1.47,0,0,1,.42-1.233,3.849,3.849,0,0,0,.818-2.269A16.324,16.324,0,0,0,47,21.8c-.418.52-.665.57-1.244.2a.531.531,0,0,1-.052-.332A1.038,1.038,0,0,1,46,21.186c.7-.719.781-1.129.291-1.973a4.286,4.286,0,0,0-1.8-1.93.849.849,0,0,1-.511-.769,3.465,3.465,0,0,1,.294-.952c.2-.466.418-.919,1.06-.966a.972.972,0,0,0-.64-.44c-.735-.278-1.166.007-1.194.788-.018.5.013.994-.009,1.49-.036.847-.472,1.064-1.22.62a13.462,13.462,0,0,1-.708-1.624c-.012-.338-.057-.65-.484-.706-.6-.079-.879.329-1.2.818a2.969,2.969,0,0,1,1.071.223,4.711,4.711,0,0,1,1.283,1.676,1.032,1.032,0,0,1-.173.658,4.126,4.126,0,0,0-.679,1.994,1.854,1.854,0,0,0,1.25,1.979.633.633,0,0,1,.175.154.557.557,0,0,1,.034.674c-.7.405-1.229-.014-1.772-.357a4.316,4.316,0,0,1-.616-.64c-.077-.049-.18-.164-.237-.112-.154.141.051.234.093.351.611.54,1.133,1.176,1.79,1.667a1.315,1.315,0,0,1,.5.718,3.493,3.493,0,0,0,1.388,1.862,1.068,1.068,0,0,1,.218.758c-.036.187-.063.376-.115.559a14.048,14.048,0,0,0,.84,3.251c.29,1.057.706,2.081,1.048,3.126a7.8,7.8,0,0,0,1.383,2.387,1.682,1.682,0,0,0,1.893.564c1.109-.3,2.208-.635,3.313-.95.433-.124.86-.266,1.3-.362.742-.161.865-.05.812.739-.3.492-.373,1.2-1.173,1.215a.565.565,0,0,1-.2-.037c-.2-.18-.384-.394-.688-.187-.37.066-.842-.181-1.054.355-.646.509-1.469.68-2.146,1.129-.3.3-.1.558.078.8.2.267.459.129.68.03.753-.337,1.526-.628,2.269-.988.335-.162.7-.334,1.027.04a2.148,2.148,0,0,1,.174,1.155c-.008.766.166.959.932,1.028.394.035.791,0,1.185.028.376.029.749.076.92.494a19.04,19.04,0,0,1,.194,5.363c-.145,1.912-.341,3.82-.539,5.728-.31,3-.361,6.014-.688,9.013-.167,1.529-.065,3.088-.211,4.629a4.808,4.808,0,0,1-.416,2.17.744.744,0,0,1-.473.2,15.134,15.134,0,0,1-3.772-.131,1.168,1.168,0,0,1-.451-1.055c-.012-2.728-.02-5.456.005-8.183.008-.81.283-1.05,1.083-1.13.346-.034.782.126.958-.365a9.117,9.117,0,0,1,.139-1.13c0-.3.147-.567.168-.86.021-.124.082-.235.114-.353.343-1.26.063-1.631-1.23-1.635-.844,0-1.688,0-2.532,0a1.373,1.373,0,0,1-.983-.254c-.224-.22-.075-.525-.165-.77a.181.181,0,0,0-.156-.012,2.907,2.907,0,0,1-3.5-.415c-.9-.73-2.025-1.164-2.917-1.935a1.171,1.171,0,0,1-.105-1.13,5.155,5.155,0,0,0-.278-1.531,11.737,11.737,0,0,0-1.171-2.678c-.387-.768-.243-1.111.574-1.367.784-.246,1.617-.129,2.415-.318a2.429,2.429,0,0,1,.862-.175,4.037,4.037,0,0,1,1.327.162.969.969,0,0,0,1.212-.916.274.274,0,0,0-.086-.24,2,2,0,0,0-2-.388,1.454,1.454,0,0,1-.721.153c-2.07-.058-4.135-.209-6.206-.237-.385-.005-.841.02-.909-.55.019-.349.312-.495.525-.693a4.061,4.061,0,0,0,.7-5.543c-.391-.59-.4-1.351-.921-1.861a8.247,8.247,0,0,0-1.859-1.482c-.64-.236-1.3-.4-1.953-.6a2.656,2.656,0,0,0-2.624-.273A1.644,1.644,0,0,0,29,31.755a6.324,6.324,0,0,1-.8.779,5.434,5.434,0,0,0-1.975,4.854,1.931,1.931,0,0,1-.155,1.166c-.364.7-.36,1.092.349,1.4,1.07.465,1.862,1.333,2.92,1.788.794.342.853.542.4,1.3a3.271,3.271,0,0,0-.376.972,2.419,2.419,0,0,0-.269,1.077.943.943,0,0,1-.033.23,25.568,25.568,0,0,0-.968,6.024,2.528,2.528,0,0,1-.056.594c-.159.739-.534.956-1.246.722a8.524,8.524,0,0,0-1.326-.487c.123.475.546.845.348,1.345a3.753,3.753,0,0,1-2.567.1.7.7,0,0,1-.307-.642,15.283,15.283,0,0,1,.043-2.163c.269-.685.227-.773-.5-.779-1.771-.016-3.542,0-5.313-.008a2.877,2.877,0,0,1-1.037-.1,3.476,3.476,0,0,0-1.025-.62.73.73,0,0,1-.128-.809.527.527,0,0,1,.206-.152,15.927,15.927,0,0,1,2.229-.046,2.273,2.273,0,0,0,1.213-.278.953.953,0,0,0,.389-.85c0-2.078-.005-4.154.005-6.232,0-.544-.233-.761-.77-.76q-4.843.01-9.688,0c-.582,0-.813.257-.813.814,0,2.052,0,4.1,0,6.157a.93.93,0,0,0,.413.9,7.145,7.145,0,0,0,2.816.237c.546.032.872.209.768.82-.2.455-.782.394-1.032.781a2.533,2.533,0,0,1-1.106.13c-1.8.005-3.6,0-5.4.006-.2,0-.433-.036-.546.164-.134.235.144.334.228.5a1.327,1.327,0,0,1,.226,1.071,30.964,30.964,0,0,0-.1,4.156c-.11,1.5.018,3.012.014,4.518a56.951,56.951,0,0,0,.082,6.776A3.307,3.307,0,0,1,4,69.057a.252.252,0,0,1-.245.07,1.431,1.431,0,0,0-1.268-.489c-.549.031-1.1.01-1.652,0a1.065,1.065,0,0,1-.82-.3" transform="translate(0 0)" fill="rgba(243,241,235,0.7)"/>
          <path id="Path_9716" data-name="Path 9716" d="M.023,133.7V112.375a1.224,1.224,0,0,1,.967-.31,31.9,31.9,0,0,1,3.221.1.819.819,0,0,1,.6.42c.552.694.732.694,1.379,0,.135-.158.243-.346.468-.4,2.093-.087,4.186-.031,6.278-.035,2.417-.005,4.834-.029,7.249.014.342.036.475.332.679.545.436.455.721.448,1.1-.04.155-.2.269-.428.554-.465a.51.51,0,0,1,.448.184,1.458,1.458,0,0,1,.116.805q.007,4.165,0,8.331c0,.962-.167,1.173-1.137,1.324a21.946,21.946,0,0,0-2.195.483c-.333.087-.782.139-.778.562,0,.374.428.416.739.51a30.805,30.805,0,0,0,6.128,1.013c3.256.3,6.522.494,9.79.647,5.1.239,10.2.343,15.3.238,2.821-.058,5.646-.117,8.462-.295a103.966,103.966,0,0,0,12.449-1.164c.714-.133,1.4-.369,2.112-.512.216-.044.473-.134.509-.384.041-.292-.256-.347-.445-.428a16.422,16.422,0,0,0-3.272-.779,12.373,12.373,0,0,1-1.321-.273.956.956,0,0,1-.552-.638,5.9,5.9,0,0,1-.175-2.674c.206-1.9.068-3.8.123-5.694a1.662,1.662,0,0,1,.247-1.146.569.569,0,0,1,.321-.179,16.606,16.606,0,0,1,4.144.06.583.583,0,0,1,.334.538,3.136,3.136,0,0,0,.587,1.71.484.484,0,0,0,.549.4c.592,0,1.171.124,1.773.1a30.249,30.249,0,0,1,3.132.087,48.423,48.423,0,0,0,7.378-.26,2.9,2.9,0,0,1,.636-.21A1.621,1.621,0,0,0,89.266,113a1.325,1.325,0,0,1,.164-.572,2.458,2.458,0,0,1,2.562-.042,2.714,2.714,0,0,1,.032.672q0,9.946,0,19.891c0,.823,0,.826-.8.826q-45.235,0-90.471,0a1.37,1.37,0,0,1-.736-.071" transform="translate(-0.009 -41.782)" fill="#f6f1ed"/>
          <path id="Path_9717" data-name="Path 9717" d="M117.383,17.243c.013-1.048.039-2.094.038-3.142q-.009-7.039-.03-14.078h.6q-.016,6.14-.03,12.28c0,1.647.024,3.293.038,4.94a.355.355,0,0,1-.616,0" transform="translate(-43.774 -0.009)" fill="#705225"/>
          <path id="Path_9718" data-name="Path 9718" d="M4.37,111.185l-4.347.031v-2.252c1.023-.006,2.048.018,3.07-.028.583-.026.768.209.7.742-.4.727.21,1.072.577,1.508" transform="translate(-0.009 -40.623)" fill="rgba(112,82,37,0.85)"/>
          <path id="Path_9719" data-name="Path 9719" d="M28.5.023q0,8.625,0,17.249a.273.273,0,0,1-.436,0L28.048.023Z" transform="translate(-10.46 -0.009)" fill="#705225"/>
          <path id="Path_9720" data-name="Path 9720" d="M97.05,39.7c.582-.173,1.052.2,1.559.347a23.194,23.194,0,0,1,2.535.9,2.432,2.432,0,0,1,1.383,1.726c.443,1.553.917,3.1,1.284,4.671a24.216,24.216,0,0,1,.616,4.346c.046.973.123,1.94.265,2.9a10.224,10.224,0,0,1-.135,2.311c-.036.46-.468.6-.87.7a2.755,2.755,0,0,1-2.1.24,13.091,13.091,0,0,0-3.488-.229,11.439,11.439,0,0,1-4.982-1.053c-.488-.585-.166-1.274-.225-1.912-.077-.832-.526-1.1-1.331-.732-.815.087-1.107-.531-1.454-1.076-.169-.807-.149-.84.59-.98-.025-.006-.038.008-.058.009-.565.034-.792-.334-.921-.784a7.692,7.692,0,0,1-.237-1.889c.018-.544,0-1.087.011-1.631a1.2,1.2,0,0,1,.875-1.292,1.222,1.222,0,0,1,1.381.616,1.278,1.278,0,0,1,.272.52c.179.977.381,1.951.529,2.936.044.289.122.589.482.693a1.117,1.117,0,0,1,.818,1.4c-.08.519.14.722.612.813a7.818,7.818,0,0,0,3.306.307,9.645,9.645,0,0,0,1.188-.418c.5-.185.364-.642.236-.954-.219-.538-.29-1.106-.475-1.647.15.411.186.85.333,1.265.359,1.011.278,1.177-.684,1.585a1.288,1.288,0,0,1-.647.152c-.363-.039-.745.358-1.07.038-.346-.341.017-.694.1-1.038a.8.8,0,0,0-.137-.569c-.1-.2-.239-.381-.35-.577-.256-.454-.636-.927-.248-1.447a1.561,1.561,0,0,1,1.615-.726c.623.09.707-.272.632-.759a5.785,5.785,0,0,1-.205-.779c0-1.139.173-2.268.157-3.411a6.912,6.912,0,0,0-1.074-4.095.46.46,0,0,1-.09-.485" transform="translate(-33.368 -14.787)" fill="rgba(207,183,132,0.54)"/>
          <path id="Path_9721" data-name="Path 9721" d="M35.175,104.736l-.467-.053a.315.315,0,0,1-.031-.2,2.545,2.545,0,0,0,.362-1.364c.019-.08.036-.157.05-.238.052-3.058.009-6.115.021-9.171a.8.8,0,0,0-.286-.729,2.94,2.94,0,0,0-1.02-.152c-.706-.109-.874-.45-.568-1.137a1.514,1.514,0,0,1,1.008-.21q14.829-.008,29.658,0c.37,0,.764-.046,1.034.307.325.558.115.746-.478.758-1.474.031-1.474.043-1.474,1.526q0,3.707,0,7.414a1.655,1.655,0,0,0,.145.947,1.684,1.684,0,0,1,.161.868c.067.822.187.941,1,.946,1.62.009,3.241,0,4.861.006a1.293,1.293,0,0,1,1.048.28.238.238,0,0,1-.056.255,1.4,1.4,0,0,1-1,.224c-1.575.008-3.151,0-4.726.006a1.343,1.343,0,0,0-.934.177,1.983,1.983,0,0,0-.291,1.287c.009,3.039-.03,6.08.086,9.118a4.694,4.694,0,0,1-.027.9c-.063.407-.255.714-.712.728s-.661-.263-.763-.673a28.15,28.15,0,0,1-.262-3.044c-.112-1.709-.242-3.418-.352-5.128a21.485,21.485,0,0,1-.16-2.678c.031-.522-.372-.717-.694-.979a2.864,2.864,0,0,1,0-2.24c.406-.205.423-.572.409-.961-.066-1.92-.113-3.84-.225-5.759-.016-.272,0-.546,0-.818.016-.1.124.008.028-.022-.025-.008-.041.013-.039.063.057,1.82.145,3.64.205,5.459.021.625.235,1.3-.261,1.87-.584-.148-.462-.639-.465-1.03-.019-2.422-.009-4.845-.009-7.268,0-.175-.007-.35,0-.524.023-.438-.174-.638-.618-.643-.5-.005-1,.033-1.5.037-2.819-.08-5.637-.019-8.456-.032-2.469-.011-4.939.008-7.408-.009-.635,0-1.206.014-1.408.771-.024.092-.14.135-.24.159a.465.465,0,0,1-.285-.325c-.172-.742-.743-.635-1.252-.559-.573.085-.444.585-.446.958-.014,2.515,0,5.03-.014,7.544,0,.4.1.872-.429,1.074-.4-.345-.335-.816-.317-1.259.087-2.054.15-4.111.213-5.574-.04,1.583-.157,3.756-.221,5.93a.946.946,0,0,0,.357.927,2.556,2.556,0,0,1,.064,2.21,1.467,1.467,0,0,0-.728,1.424c-.067,1.938-.214,3.873-.409,5.8-.063.62.023,1.247-.083,1.866a3.166,3.166,0,0,0-.107,1.181,3.892,3.892,0,0,1-.179,1.7.709.709,0,0,1-.792.543.679.679,0,0,1-.638-.633,3.088,3.088,0,0,1,.021-1.486,3.823,3.823,0,0,0,.167-1.321q0-4.124,0-8.248a1.354,1.354,0,0,0-.082-.8" transform="translate(-12.34 -34.114)" fill="rgba(112,82,37,0.5)"/>
          <path id="Path_9722" data-name="Path 9722" d="M64.6,87.854l-25.151.011q-3.265,0-6.531.01a.788.788,0,0,1-.3-.779,2.061,2.061,0,0,0-.33-1.1,1.4,1.4,0,0,1-.06-.374,1.714,1.714,0,0,1-.009-.645,2.506,2.506,0,0,0-.021-.4c-.033-.939.2-1.192,1.128-1.227a7.375,7.375,0,0,0,1.033-.046c.455-.065.4-.414.425-.736.05-.532-.161-1.09.153-1.6a.161.161,0,0,1,.221,0c0,.7.007,1.393-.008,2.089-.008.388.1.6.542.6a8.292,8.292,0,0,1,1.785.066c.155.034.2-.107.243-.226.423-.01.436.543.818.593.069.041.134.083.2.125,1.237-.084,2.476,0,3.712-.105a14.964,14.964,0,0,1,5.266.018,7.085,7.085,0,0,0,3.269-.021,2.437,2.437,0,0,1,1.111-.034,15.585,15.585,0,0,0,4.52.4,17.123,17.123,0,0,1,1.921.144,1.768,1.768,0,0,0,.486-.226c.35-.295.438-.9,1.047-.889.437.288.927.13,1.39.145.9.029,1.8.006,2.7.011s1.022.135,1.032,1.06a1.733,1.733,0,0,1-.31,1.345c-.4.426-.932.3-1.418.3q-14.267.01-28.535.008a3.123,3.123,0,0,0-.994.061,3.9,3.9,0,0,0,1.077.058q14.192,0,28.384.009c.458,0,.968-.135,1.333.306a1.975,1.975,0,0,1-.13,1.049" transform="translate(-12.003 -30.178)" fill="rgba(112,82,37,0.5)"/>
          <path id="Path_9723" data-name="Path 9723" d="M94.494,66.343a2.852,2.852,0,0,1,1.51.344,3.884,3.884,0,0,0,2.215.534c2.321-.11,4.6.348,6.914.339-.367.355-.257.828-.334,1.262a18.638,18.638,0,0,0,.126,6.683c.347,1.879.441,3.805.635,5.712.161,1.584.3,3.17.457,4.755.23,2.365.147,4.738.17,7.107.241.494-.1.693-.462.808a3.2,3.2,0,0,1-2.311.049,1.225,1.225,0,0,1-.4-1.082,57.281,57.281,0,0,0-.167-5.988c-.194-1.961-.371-3.925-.5-5.889-.13-2.043-.606-4.051-.569-6.1a12.09,12.09,0,0,0-.293-1.532c-.142-1.323-.117-2.644-.136-3.966-.011-.8-.1-.862-.921-.919-.921-.063-1.839-.154-2.765-.164-.6-.006-.773.238-.8.793-.072,1.328.2,2.643.15,3.964-.2,4.9-.062,9.794-.181,14.688q-.065,2.694-.117,5.39a1.3,1.3,0,0,1-.256.917c-.476.26-.934.4-1.284-.19.584-.4.6-.977.64-1.623.46-7.487.23-14.981.282-22.472.011-1.622,0-1.612-1.612-1.9-.458-.082-1.052-.005-1.132-.712.352-.3.6-.763,1.134-.806" transform="translate(-34.815 -24.74)" fill="rgba(207,183,132,0.71)"/>
          <path id="Path_9724" data-name="Path 9724" d="M44.268,62.677a1.572,1.572,0,0,1,.5-1.277c.325-.359.242-.551-.208-.669a3.8,3.8,0,0,1-1.7-1.038,1.728,1.728,0,0,0-.9-.465,2.006,2.006,0,0,1-1.338-1.2.573.573,0,0,1,.176-.741c.413-.267.347-.623.3-.986a5.693,5.693,0,0,1,2.838-5.861A3.663,3.663,0,0,1,45.308,52a3.984,3.984,0,0,0,.512,2.121c-.133.226-.364.219-.581.236a.448.448,0,0,0-.44.487c-.008.448-.8.5-.535,1.133.6-.28,1.153-1.093,1.856-.213-.2.352-.779.213-.888.685-.135.165-.125.386-.214.568-.057.179-.435.436.129.453a2.7,2.7,0,0,1,1.995,1.02c.32.384.537.416.914.267.342-.007.677.146,1.027.015s.505-.308.278-.66a.531.531,0,0,0-.222-.034c-.42.026-.879.009-.973-.478s.3-.825.634-1.117c.218-.191.467-.055.676.117.734.606.852.568,1.13-.357a2.088,2.088,0,0,0,.077-.289c.075-.294.375-.551.141-.894C50.585,54.591,50.3,54.69,50,55c-.2.134-.242.408-.458.529-.5-.362-.549-.65-.164-1.186.255-.354.589-.663.544-1.156.056-.184.218-.168.406-.189.055,0-.082.133-.038.043-.344-.134-.7.271-1.043-.028-.171-.216-.335-.453-.63-.5a2.917,2.917,0,0,1-1.672-1.057,1.356,1.356,0,0,1,.9-1.284,3.122,3.122,0,0,0,1.034.343,6.9,6.9,0,0,1,.991.242c-.08-.223-.563-.505.077-.663A6.526,6.526,0,0,1,51.8,51.566a33.467,33.467,0,0,0,.995,3.269,3.878,3.878,0,0,1-.827,4.221c-.209.246-.435.479-.631.736a.569.569,0,0,1-.128.179,7.546,7.546,0,0,1-3.539,1.34c.523.206,1.034.145,1.316.576a.735.735,0,0,1-.09.633,9.625,9.625,0,0,0-.413,1.418c-.477.2-.874-.1-1.279-.245-.453-.161-.705-.065-.86.385-.1.282-.209.569-.545.664a3.961,3.961,0,0,1-1.454-.164c-.376-.082-.562-.289-.374-.689.006-.05.011-.1.016-.149.205-.325.146-.72.277-1.065" transform="translate(-15.123 -18.681)" fill="#faba7b"/>
          <path id="Path_9725" data-name="Path 9725" d="M80.537,52.557c.031-.411.251-.843-.575-.551-1.517.536-3.087.927-4.65,1.319a2,2,0,0,1-2.4-1.015c-1.316-1.837-1.76-4-2.416-6.09A10.564,10.564,0,0,1,69.856,44c-.011-.129-.033-.245.069-.344.657-.2,1.366.055,2.023-.268a5.138,5.138,0,0,1,1-.458.41.41,0,0,1,.417.354,13,13,0,0,0,1.838,3.625q.075.128.145.26c.473.884.7.882,1.711.559a8.8,8.8,0,0,0,3.675-2.841.675.675,0,0,1,.226.6,22.86,22.86,0,0,0,.576,4.923,1.98,1.98,0,0,1-.133,1.378c-.538.226-.288.906-.692,1.21-.268-.065-.269-.235-.177-.443" transform="translate(-26.047 -16.01)" fill="#dbc9a3"/>
          <path id="Path_9726" data-name="Path 9726" d="M126.909,36.908l3.137-.008c.155.252.266.493-.147.607-.551-.111-.6.148-.626.647-.263,5.175-.176,10.354-.08,15.527.154,8.4.033,16.808.106,25.213a8.736,8.736,0,0,0,.007,2.148c.441.457.277,1.015.26,1.548.047.889-.153,1.287-.743,1.416-.72.156-1.512-.113-1.29-1.41-.01-.534-.184-1.1.263-1.554q0-21.34.019-42.679c0-.7-.2-.973-.884-.868a.356.356,0,0,1-.021-.588" transform="translate(-47.272 -13.761)" fill="rgba(112,82,37,0.69)"/>
          <path id="Path_9727" data-name="Path 9727" d="M52.242,69.547c-.1-.406-.685-.477-.727-.753-.081-.527.631-.125.8-.488.114-.243.251-.475.379-.711.379-.382.914-.345,1.375-.491.93-.3.948-.277.773-1.2a.406.406,0,0,1,.107-.408h0a.157.157,0,0,1,.258,0c.15.374.482.3.771.3,2.121.012,4.238.125,6.354.266.507.034.738-.352,1.054-.616.123-.1.358-.335.379-.095.081.936.586.407,1.04.289-.113.52.011.807.578.678a.286.286,0,0,1,.338.233c.019.436-.468.152-.608.423.025.3.462.137.52.415a.7.7,0,0,1-.607.217c-.1,0-.277-.012-.287.021-.346,1.173-.964.122-1.441.172a3.124,3.124,0,0,1-.667-.068.36.36,0,0,0-.442-.184,8.55,8.55,0,0,1-3.748.223c-.381-.04-.64-.011-.642.453,0,.284-.23.488-.32.825.453.162,1-.009,1.393.349a6.751,6.751,0,0,1,1.18,2.558c.179,1.04-.005,1.214-.949.876a11.681,11.681,0,0,0-5.241-.313c-.985.1-1.948.365-2.933.47a1.594,1.594,0,0,1,.193-2.057,3.228,3.228,0,0,1,.712-.543c.236-.139.5-.224.741-.343-.036-.236-.3-.286-.329-.5" transform="translate(-18.881 -24.331)" fill="#fcbf84"/>
          <path id="Path_9728" data-name="Path 9728" d="M81,23.645a12.792,12.792,0,0,1-1.2-4.189,2.565,2.565,0,0,1,1.106-2.334,8.727,8.727,0,0,1,3.53-1.9,2.475,2.475,0,0,1,2.949,1.014.407.407,0,0,0,.48.21A3.306,3.306,0,0,1,91.5,19.6,12.075,12.075,0,0,1,91.29,21.6a.628.628,0,0,1-.383.755,1.783,1.783,0,0,1-1.094.177,2,2,0,0,0-.931.128.909.909,0,0,1-.554-.055.316.316,0,0,1-.177-.265c.2-.387.638-.346.954-.522.108-.06.235-.117.224-.267s-.149-.185-.269-.207a5.2,5.2,0,0,1-2.9-1.864.893.893,0,0,0-.942-.271,6.537,6.537,0,0,0-2.875,1.53,2.506,2.506,0,0,0-.541,1.05c-.761.449-.317,1.124-.319,1.715a.545.545,0,0,1-.14.3c-.2.115-.277-.009-.343-.164" transform="translate(-29.749 -5.633)" fill="#705225"/>
          <path id="Path_9729" data-name="Path 9729" d="M22.668,84.519c0,.107,0,.215,0,.322-.309.348-.724.287-1.12.288q-6.9,0-13.808,0,6.9,0,13.809,0c.4,0,.811-.059,1.121.288,0,.105.006.211.01.316-.319.4-.771.3-1.184.3q-6.485.013-12.969.005c-.25,0-.5,0-.75,0-.907.016-.993.094-1,.986-.005.674-.028,1.349.031,2.022.014.09.024.18.036.27.133.463.521.307.813.307q6.66.015,13.321.007c.973,0,1.947-.033,2.917.014.431.021.808-.2,1.228-.156.09,1.3.016,2.595.038,3.892,0,.152-.005.306-.209.331-.47-.382-.31-.918-.317-1.4-.023-1.772-.013-1.773-1.765-1.773q-7.383,0-14.767,0c-1.251,0-1.321.08-1.331,1.306a16.266,16.266,0,0,1-.033,1.722,1.33,1.33,0,0,0,.027.268c.115.366.425.293.688.293,5.577,0,11.155,0,16.732.015.335,0,.6-.256.932-.162.1,1.3.018,2.6.044,3.894,0,.151,0,.308-.205.335-.494-.405-.312-.97-.32-1.472-.026-1.545-.012-1.546-1.57-1.546q-7.544,0-15.088,0c-1.183,0-1.208.023-1.2,1.231a5.1,5.1,0,0,0,.117,1.638,1.509,1.509,0,0,1,.052.262c.045.372.334.31.573.31q8.321.006,16.642.006a.875.875,0,0,0,.726-.3c.5.126.254.443.185.715l.026.043a.992.992,0,0,1-.885.3q-8.569.015-17.138,0c-.347,0-.711.014-.929-.346-.006-2.044-.151-4.083-.127-6.129.039-3.375.019-6.751,0-10.126,0-.666.285-1.331.005-2a.887.887,0,0,1,.863-.337q8.739-.02,17.479,0a.913.913,0,0,1,.869.328c0,.7,0,1.391.008,2.086,0,.321-.014.618-.459.583a2.233,2.233,0,0,1-.154-1.245c-.009-.47-.217-.682-.685-.683l-1.875,0q-7.089,0-14.176,0c-1.107,0-1.122.019-1.123,1.139,0,1.671-.072,1.543,1.551,1.546,1.15,0,2.3-.016,3.45.007a2.1,2.1,0,0,0,1.659-.485,1.986,1.986,0,0,0,1.977.638,5.6,5.6,0,0,1,.894,0,1.526,1.526,0,0,0,1.6-.642c1,.8,2.178.381,3.281.482.505.046,1.055-.135,1.484.3" transform="translate(-2.243 -30.005)" fill="rgba(112,82,37,0.69)"/>
          <path id="Path_9730" data-name="Path 9730" d="M18.092,40.453c1.625,0,3.251.018,4.876-.011.541-.009.751.134.747.71q-.03,4.912,0,9.825c0,.51-.125.664-.679.658q-4.875-.054-9.752-.006c-.642.005-.867-.157-.86-.836q.052-4.761,0-9.524c-.008-.681.219-.845.862-.828,1.6.041,3.2.014,4.8.013" transform="translate(-4.635 -15.08)" fill="#705225"/>
          <path id="Path_9731" data-name="Path 9731" d="M89.42,26.824l.518-.042c.633-.125.748.462.8.776a13.942,13.942,0,0,1,.208,4.461,7.454,7.454,0,0,1-1.615,3.5,1.164,1.164,0,0,1-.639.527A.288.288,0,0,1,88.46,36a3.2,3.2,0,0,1-3.088-1.588c-.992-1.384-1.891-2.834-2.831-4.257.317-.181.611.087.921.048a1.38,1.38,0,0,1,.21.024A1.549,1.549,0,0,0,85.289,28.1c-.1-.33-.243-.678.215-.786.4-.094.554.215.64.568.16.657.423,1.246,1.19,1.379a1.634,1.634,0,0,0,1.635-.5A1.708,1.708,0,0,0,89.3,27.5c0-.227-.2-.5.116-.673" transform="translate(-30.781 -9.981)" fill="#faa56d"/>
          <path id="Path_9732" data-name="Path 9732" d="M91.877,40.512l.15-.012a.458.458,0,0,1,.376.42c.134.764.49,1.468.615,2.236.486,1.245.7,2.573,1.166,3.824a4.7,4.7,0,0,0,.273.527A42.034,42.034,0,0,0,95.669,51.7a28.708,28.708,0,0,1,.266-3.1,20.136,20.136,0,0,0,.115-2.678c.135-1.154.024-2.337.214-3.5a24.433,24.433,0,0,1,.156-2.9.841.841,0,0,1,.294-.666L97,39a11.393,11.393,0,0,1,.728,3.567c.168,1.459.4,2.909.539,4.371.033.35.016.695.032,1.04.01.416.373.779.186,1.225-.686-.29-1.1.248-1.481.6s.1.719.259,1.055a7.414,7.414,0,0,0,.453.687c.236.372.432.739-.016,1.118-.12.1-.253.292-.147.467s.307.09.477.057c.2-.038.393-.061.589-.092,1.176-.184,1.338-.455,1.042-1.583-.173-.662-.272-1.344-.4-2.017l.188-.053c.328,1.037.663,2.073.98,3.113.058.189-.053.32-.256.388-1.452.477-2.9.941-4.442.369a1.737,1.737,0,0,0-.368-.061c-1.06-.144-1.06-.143-.928-1.158.1-.754-.082-.991-.833-1.089-.166-.022-.389.038-.425-.2-.18-1.195-.346-2.392-.516-3.588.014-.135.27.214.184-.085-.112-.394-.574-.6-.6-1.047-.184-1.449-.319-2.9-.519-4.346a4.6,4.6,0,0,1,.025-.962l.128-.26" transform="translate(-34.198 -14.488)" fill="#d1c7a9"/>
          <path id="Path_9733" data-name="Path 9733" d="M136.729,39.476c-.041.564.247.721.776.721.908,0,1.018.14,1.019,1.069q0,3.376,0,6.753c0,1.062-.087,1.183-1.137,1.186-.567,0-.652.243-.657.723,0,.4.251.954-.439,1.1a.7.7,0,0,1-.369.181c-.632-.009-.79-.452-.823-.956a.741.741,0,0,0-.643-.77c-.793-.213-1.011-.547-1.018-1.435q-.024-3.373,0-6.746c.006-.991.181-1.186,1.171-1.4a.852.852,0,0,0,.466-.216,5.171,5.171,0,0,1,.379-.458c.46-.467.944-.362,1.277.258" transform="translate(-49.756 -14.517)" fill="#fefefe"/>
          <path id="Path_9734" data-name="Path 9734" d="M43.687,72.1c.255.781.957.463,1.469.554.19.033.3.007.343.211.327.389.075.75-.07,1.1-.225.547-.491,1.082-.66,1.647-.161.537-.319,1.08-.454,1.644.233,0,.3-.224.477-.239.306.227.392-.216.627-.211.267-.149.477-.41.819-.411a8.1,8.1,0,0,1,1.94.083,2.07,2.07,0,0,1,1.65,2.811,1.443,1.443,0,0,1-.763.432,13.465,13.465,0,0,1-5.209.712,4.9,4.9,0,0,0-2.724.508c-.344-.125-.4-.478-.584-.732-.209-.335-.413-.672-.628-1-.115-.177-.212-.369-.056-.544s.352-.063.537.028c.4.2.811.372,1.22.549.756.325.99.193,1.014-.642a19.959,19.959,0,0,1,.131-2.456,31.062,31.062,0,0,1,.92-4.043" transform="translate(-14.836 -26.885)" fill="#fcbf85"/>
          <path id="Path_9735" data-name="Path 9735" d="M5.879,110.117c.574.013,1.147.038,1.721.038q8.615.009,17.232.011a1,1,0,0,1-.475,1.337,3.368,3.368,0,0,1-2.141.016c-4.352-.026-8.7-.006-13.053-.009-.245,0-.507-.042-.7.174-.024.154,0,.325-.145.437-.81-.652-.928-.652-1.684,0l-.292-.5a1.4,1.4,0,0,0-.34-.112.647.647,0,0,1-.663-.474.782.782,0,0,1,.426-.921.225.225,0,0,0,.117,0" transform="translate(-1.978 -41.064)" fill="rgba(112,82,37,0.85)"/>
          <path id="Path_9736" data-name="Path 9736" d="M65.278,89.822q-15.28,0-30.56-.013c-.388,0-1.091.261-1.056-.426.029-.588.694-.3,1.059-.3q15.355-.022,30.71-.005a1.144,1.144,0,0,1-.154.744" transform="translate(-12.553 -33.194)" fill="rgba(112,82,37,0.69)"/>
          <path id="Path_9737" data-name="Path 9737" d="M119.617,50.588c-.687.021-.6-.49-.555-.889.076-.667-.053-1.02-.842-.91-.626.087-.87-.28-.865-.91.02-2.417.026-4.834,0-7.249-.008-.661.248-.9.881-.872.326.014.74.1.811-.418.122-.258-.026-.687.455-.716a.766.766,0,0,1,.6.112c.364.116.447.524.744.712.594.1,1.281.024,1.538.787.04,2.722.061,5.444-.009,8.165a1.017,1.017,0,0,1-.977.672c-.543.028-.719.286-.726.8-.006.386-.031.829-.6.847-.182.07-.205-.414-.452-.131" transform="translate(-43.763 -14.396)" fill="#f9f9f8"/>
          <path id="Path_9738" data-name="Path 9738" d="M24.863,80.226l-19.211.009c-.47.014-.675-.193-.632-.68.045-.515.419-.408.719-.411,2.316-.016,4.634-.021,6.95-.031a.66.66,0,0,1,.546-.185q2.02,0,4.038,0a.662.662,0,0,1,.546.185q3.527.014,7.055.03c.277,0,.575-.018.59.391.012.335.045.679-.445.686l-.157.005" transform="translate(-1.87 -29.433)" fill="rgba(112,82,37,0.85)"/>
          <path id="Path_9739" data-name="Path 9739" d="M85.249,58.261c.013-.271.023-.542.04-.813.019-.319.173-.383.438-.22.542.749,1.249,1.356,1.8,2.093.358.371.628.842,1.156,1.02a.516.516,0,0,1,.611.125,1.8,1.8,0,0,1,.182,1.885c-.179.546-.515.967-1.2.828a1.958,1.958,0,0,1-1.191-.4,7.3,7.3,0,0,0-1.995-.174c-1.032-.137-1.192-.273-1.159-1.315a8.342,8.342,0,0,0-.028-1.265A4.874,4.874,0,0,1,82.49,59.5a.6.6,0,0,1-.364-.5c-.2-.476,0-.635.458-.567.213.031.421.1.631.148a1.618,1.618,0,0,1,.734.282.139.139,0,0,0,.093.02,2.888,2.888,0,0,1,1.24.071c-.011-.245-.242-.465-.034-.7" transform="translate(-30.597 -21.309)" fill="#fba76e"/>
          <path id="Path_9741" data-name="Path 9741" d="M89.2,66.129a2.451,2.451,0,0,1,1.206.179.646.646,0,0,1,.134.517c-.249,1.477-.135,2.976-.267,4.462-.189,2.135-.332,4.274-.56,6.405-.181,1.687-.241,3.382-.347,5.074-.205,3.258-.332,6.522-.608,9.777a1.328,1.328,0,0,1-.2.712c-.382.234-.7.256-.863-.256.259-3.657.388-7.321.7-10.975.146-1.688.23-3.386.36-5.077.144-1.863.4-3.717.539-5.58a18.855,18.855,0,0,0-.038-3.967c-.057-.419-.044-.847-.063-1.271" transform="translate(-32.702 -24.658)" fill="rgba(207,183,132,0.71)"/>
          <path id="Path_9742" data-name="Path 9742" d="M49.222,78.036l-.617.435c-.29-.209-.146-.619-.394-.847-.064-.236-.045-.526.206-.551.481-.046.906-.429,1.42-.233a18.435,18.435,0,0,1,6.4-.75,5.867,5.867,0,0,1,2.03.43c.874.369.865.39.869-.576a3.842,3.842,0,0,1,.251,1.642c-.018.017-.035.035-.055.05-.28.217-.721-.3-.918.171a2.338,2.338,0,0,0-.051.957,4.349,4.349,0,0,1-.422,2.087,1.1,1.1,0,0,0,.041,1.213.312.312,0,0,1-.186.156,24.068,24.068,0,0,1-3.122.176,1.7,1.7,0,0,1-1.062-.248c-.095-.558.366-.428.628-.462,1.062-.137,1.07-.129.47-1.008a4.144,4.144,0,0,1-.808-2.735c.049-.578-.2-.763-.748-.663-1.312.242-2.594.642-3.931.755" transform="translate(-17.967 -28.321)" fill="#d1ba8a"/>
          <path id="Path_9743" data-name="Path 9743" d="M68.762,24.685a.716.716,0,0,0,.5.59,4.341,4.341,0,0,1,2.162,2.6,1.251,1.251,0,0,1-.694,1.62,2.385,2.385,0,0,1-1.4-1.592,2.337,2.337,0,0,1,.071-.275c-.1.108-.083.253-.142.37a2.59,2.59,0,0,1-1.395.288c-.138.019-.437-.47-.39.128a.648.648,0,0,1-.458.366c-1,.095-1.15-.046-1.013-1.017a4.94,4.94,0,0,1,.511-1.6l.166-.6c.07-.175.069-.4.314-.453.727.235.874.15.887-.549.011-.6-.009-1.2,0-1.8a.879.879,0,0,1,1.077-.885,6.906,6.906,0,0,1,1.293.55c.114.056.275.161.242.342a.284.284,0,0,1-.337.229c-.646-.117-.864.323-1.075.786-.225-.082-.227-.37-.547-.527-.058.531-.313,1.01.232,1.418" transform="translate(-24.595 -8.152)" fill="#c8c6a7"/>
          <path id="Path_9744" data-name="Path 9744" d="M85.106,108.97c.207.212.494.184.749.252a2.127,2.127,0,0,1,2.042.3c.218.51.5,1.019.027,1.541-2.024,0-4.048-.038-6.069.027-.779.024-1.082-.235-1.091-.971a2.245,2.245,0,0,1,.14-1.172l4.2.019" transform="translate(-30.114 -40.629)" fill="#705225"/>
          <path id="Path_9745" data-name="Path 9745" d="M72.04,83.206l-.868,1.044c-1.4-.327-2.852-.275-4.243-.607a9.174,9.174,0,0,1-2.593-.833,3.771,3.771,0,0,1,.715-2.559.255.255,0,0,1,.392-.049,37.524,37.524,0,0,1,3.48,2.157,2.209,2.209,0,0,0,2.353.154c.323-.107.636-.606,1-.238.328.334-.336.567-.233.931" transform="translate(-23.976 -29.884)" fill="#fbbf84"/>
          <path id="Path_9746" data-name="Path 9746" d="M92.963,35.021a8.134,8.134,0,0,0,1.575-3.64,10.745,10.745,0,0,0-.364-4.757.5.5,0,0,0-.351-.345,1.007,1.007,0,0,1,.826-.11c.321.322.265.786.452,1.272.2-.567.213-1.143.752-1.411l.354-.583c.663-.159.853.312.912.783a3.277,3.277,0,0,1-.863,2.875c-.546.553-.373,1.356-.608,2.02a6.568,6.568,0,0,1-1.371,3.644,1.208,1.208,0,0,0-.8.216c-.141.122-.329.216-.512.036" transform="translate(-34.667 -9.478)" fill="#e69160"/>
          <path id="Path_9747" data-name="Path 9747" d="M101.153,48.255c-.084-1.581-.334-3.143-.536-4.711a29.586,29.586,0,0,0-.6-3.956,1.325,1.325,0,0,1,.079-.506c.275.082.4.424.719.425,1.33,1.376,1.457,3.118,1.434,4.882a29.231,29.231,0,0,1-.211,3.13c-.133.44-.359.768-.885.736" transform="translate(-37.294 -14.574)" fill="rgba(207,183,132,0.71)"/>
          <path id="Path_9748" data-name="Path 9748" d="M47.167,51.32c-.373-.559-1.067-.874-1.218-1.6a1.1,1.1,0,0,1,.679-1.063,2.632,2.632,0,0,1,3.248.122.465.465,0,0,1,.017.728l-.9,1.2c.124.528.111,1.015-.5,1.231a1.118,1.118,0,0,1-1.327-.623" transform="translate(-17.134 -17.961)" fill="#8b411a"/>
          <path id="Path_9749" data-name="Path 9749" d="M109.339,109.7a7.708,7.708,0,0,0,2.2-.167c.324-.046.552-.2.553-.566l2.088-.016a1.374,1.374,0,0,1,.924,1.355,1.2,1.2,0,0,1-.784.939l-4.494-.026c-.509-.281-.334-.9-.631-1.282-.023-.122.011-.21.145-.236" transform="translate(-40.718 -40.63)" fill="#705225"/>
          <path id="Path_9750" data-name="Path 9750" d="M130.8,108.782q0-.747.009-1.493c2.252,0,4.5.022,6.756-.006.588-.007.85.165.753.764a1.023,1.023,0,0,1-.885.3c-.548.015-1.1.023-1.644,0-.488-.019-.879.076-1.04.6a11.61,11.61,0,0,1-3.517.105c-.178-.006-.3-.152-.431-.27" transform="translate(-48.778 -40.007)" fill="rgba(112,82,37,0.69)"/>
          <path id="Path_9751" data-name="Path 9751" d="M94.508,38.12a34.037,34.037,0,0,0,1.483-3.6,6.741,6.741,0,0,0,1.249,2.72.307.307,0,0,1,.061.28,6.5,6.5,0,0,1-2.288,2.756c-.45.317-.89-.022-1.125-.512a1.809,1.809,0,0,1,.62-1.646" transform="translate(-35.009 -12.874)" fill="#faa56d"/>
          <path id="Path_9752" data-name="Path 9752" d="M25.577,27.531h.436l3.648.036c.305,0,.61-.023.606.435s-.293.443-.607.444c-.919,0-1.837.015-2.755.023a2.048,2.048,0,0,1-2.259,0c-.849-.008-1.7-.011-2.547-.028-.3-.006-.7.1-.709-.419-.014-.581.417-.443.74-.448,1.149-.019,2.3-.026,3.446-.038" transform="translate(-7.977 -10.266)" fill="rgba(112,82,37,0.69)"/>
          <path id="Path_9753" data-name="Path 9753" d="M71.685,33.766c.376.235.641.137.858-.243a4.952,4.952,0,0,0,.7-1.473.44.44,0,0,1,.616-.365c.322.1.283.349.217.611A5.135,5.135,0,0,1,73.02,34.64a1.094,1.094,0,0,0-.248.936,2.77,2.77,0,0,1-.528,2.367,9.957,9.957,0,0,1-1.968.255c-.557-.108-1.128-.2-1.125-.961.578-.529,1.349-.392,2.025-.585.29-.083.711.1.838-.311.114-.371-.158-.654-.374-.927a1.511,1.511,0,0,1-.3-.421c-.029-.45-.144-.925.348-1.226" transform="translate(-25.787 -11.805)" fill="#c8c6a7"/>
          <path id="Path_9754" data-name="Path 9754" d="M124.215,107.294q0,.753,0,1.508a.771.771,0,0,1-.511.278,10.779,10.779,0,0,1-2.945-.1c-.256-.635-.766-.7-1.368-.647a9.608,9.608,0,0,1-1.409,0c-.327-.019-.652-.053-.8-.418-.1-.541.205-.62.653-.618,2.126.011,4.252,0,6.379,0" transform="translate(-43.692 -40.012)" fill="rgba(112,82,37,0.69)"/>
          <path id="Path_9755" data-name="Path 9755" d="M117.177,108.278a13.893,13.893,0,0,0,3.087.137c.2.013.453-.167.593.12s-.1.45-.245.636c.25.347.011.639-.106.946a8.311,8.311,0,0,0-.39.781,4.875,4.875,0,0,0-.485.834c-.378.638-.694.649-1.081.037-.173-.272-.309-.566-.473-.845a1.745,1.745,0,0,1-.164-.83c-.031-.587-.569-.9-.764-1.393.009-.141.019-.282.029-.423" transform="translate(-43.686 -40.378)" fill="rgba(112,82,37,0.69)"/>
          <path id="Path_9756" data-name="Path 9756" d="M93.513,41.411c.557.568.988.4,1.424-.184a15.311,15.311,0,0,0,1.769-2.37l.285-.006c.077,1.205-.177,2.392-.2,3.591a.482.482,0,0,1-.42.443c-.675.15-.83.63-.738,1.242.063.416.2.818.272,1.232.054.305.182.641-.177.869-.538-.205-.488-.736-.634-1.154a7.6,7.6,0,0,1-.241-1.217,1,1,0,0,1-.008-.467,2.094,2.094,0,0,1,.273-.609c.055-.214.444-.337.223-.608-.164-.2-.346-.034-.482.118a.71.71,0,0,1-.715.275c-.258-.055-.365.051-.377.3-.171.235-.132.957-.691.3a9.917,9.917,0,0,1-.629-2.3c.573-.241.845.1,1.066.548" transform="translate(-34.475 -14.488)" fill="#b4a680"/>
          <path id="Path_9757" data-name="Path 9757" d="M137.156,109.241c-.394-.514-.164-.728.381-.736,1.026-.016,2.052,0,3.078,0l.139.266c.063.59-.451.936-.6,1.435-.208.209-.191.518-.329.758-.229.3-.388.638-.6.946-.369.542-.638.529-.985-.046a5.713,5.713,0,0,0-.5-.828c-.145-.2-.12-.459-.218-.677-.149-.362-.556-.641-.361-1.114" transform="translate(-51.074 -40.46)" fill="rgba(112,82,37,0.69)"/>
          <path id="Path_9758" data-name="Path 9758" d="M89.454,55.15c-.765-.557-1.682-.983-1.8-2.093.386-1.1-.078-2.173-.191-3.244a28.283,28.283,0,0,1-.248-3.8l.581-.06c.287.225.2.533.186.826-.074,1.373.262,2.715.314,4.078,0,.094.026.2.061.208.008-.446-.512-.951.189-1.361.3.28.128.643.169.968.036.283-.07.589.141.843.1.608.2,1.215.282,1.826a.737.737,0,0,0,.9.741c.051.032.07.066.056.1s-.029.056-.045.056c-.428.151-.916.264-.592.906" transform="translate(-32.52 -17.138)" fill="#ddcba3"/>
          <path id="Path_9759" data-name="Path 9759" d="M90.911,41.914c.46.988.3,2.088.565,3.12.16.631-.038,1.339.24,1.98.085.194-.046.267-.2.314-.394.013-.737-.249-1.148-.2-.17.02-.308-.149-.38-.316a5.163,5.163,0,0,1-.442-3.113,1.448,1.448,0,0,1,.885-1.188l.483-.6" transform="translate(-33.36 -15.63)" fill="rgba(207,183,132,0.54)"/>
          <path id="Path_9760" data-name="Path 9760" d="M114.961,27.484h.616c1.2,0,2.4.011,3.6.013.319,0,.607,0,.591.457-.014.44-.327.373-.587.374q-3.826.009-7.654,0c-.286,0-.633.071-.641-.4s.323-.424.621-.426c1.151-.008,2.3-.01,3.451-.016" transform="translate(-41.352 -10.249)" fill="rgba(112,82,37,0.69)"/>
          <path id="Path_9761" data-name="Path 9761" d="M141.779,110.33c-.031-.622.5-.94.759-1.4l2.246.032q0,1.115,0,2.23c-.609,0-1.217.009-1.826.01-.247,0-.5-.021-.568.308a.946.946,0,0,1-.606-1.177" transform="translate(-52.859 -40.621)" fill="#705225"/>
          <path id="Path_9762" data-name="Path 9762" d="M135.319,50.26l.3.008a3.2,3.2,0,0,0-.027,1.248,30.55,30.55,0,0,1-.109,4.718,1.875,1.875,0,0,1-2.017,1.689,2.028,2.028,0,0,1-1.83-2.027c.162-2.649.049-5.3.068-7.951.024-3.479.009-6.958.01-10.437.179-.171.14-.394.146-.608h.2a.921.921,0,0,1,.2.65,8.653,8.653,0,0,1-.088,2.233q0,7.681,0,15.364a3.993,3.993,0,0,0,.164,1.181,1.225,1.225,0,0,0,1.268.954,1.209,1.209,0,0,0,1.251-.973,4.158,4.158,0,0,0,.157-1.183q-.007-1.911,0-3.823a1.3,1.3,0,0,1,.3-1.044" transform="translate(-49.089 -13.761)" fill="rgba(112,82,37,0.69)"/>
          <path id="Path_9763" data-name="Path 9763" d="M57.768,60.721l-.258,0a5.3,5.3,0,0,1,.521-.884,3.817,3.817,0,0,0,.593-4.64,17.922,17.922,0,0,1-.636-2.432c-.029-.081.089-.214.139-.324.714,1.439,1.777,2.723,1.813,4.452a4.321,4.321,0,0,1-1.825,3.553c-.114.094-.231.184-.347.276" transform="translate(-21.446 -19.556)" fill="#f3a15b"/>
          <path id="Path_9764" data-name="Path 9764" d="M67.569,32.122l.309-.292c.052-.145.126-.25.3-.159.487-.182,1.052-.017,1.507-.342a.111.111,0,0,1,.137.056c-.02.223.642-.1.329.465-.129.233.434.23.865.35l-.941.132c.615.129,1.168.033,1.106.7l-.321.344c-1.141,1.062-2.012,1.219-3.1.556l-.038-.013c-.668-.34-.736-1.121-.157-1.792" transform="translate(-25.051 -11.681)" fill="#f6f3f2"/>
          <path id="Path_9765" data-name="Path 9765" d="M26.343,29.021l2.259,0a1.3,1.3,0,0,1-.163,1.85,1.4,1.4,0,0,1-1.894.06c-.743-.668-.791-1.127-.2-1.913" transform="translate(-9.673 -10.822)" fill="#e5c998"/>
          <path id="Path_9766" data-name="Path 9766" d="M116.937,28.988c1.2,0,1.386.119,1.386.9a1.4,1.4,0,0,1-.885,1.274,1.278,1.278,0,0,1-1.508-.274,1.593,1.593,0,0,1-.414-1.575c.058-.255.29-.32.528-.324.3,0,.6,0,.894,0" transform="translate(-43.057 -10.81)" fill="#e5ca9a"/>
          <path id="Path_9767" data-name="Path 9767" d="M124.859,47.542q.006-4.2.011-8.39c-.42-.616-.134-1.26-.08-1.9a.684.684,0,0,1,.367-.65c.041-.253.164-.507.418-.514.282-.008.431.25.513.514q.01.293.021.588l-.031.018a.3.3,0,0,1-.232.051c-.292-.066-.236.182-.277.325a4.321,4.321,0,0,0-.084,1.192q0,6.032,0,12.064a2.227,2.227,0,0,1-.108.96c-.074.161-.164.322-.379.3-.169-.016-.248-.152-.314-.287a1.053,1.053,0,0,1-.1-.435c-.023-1-.018-2,0-3a2.344,2.344,0,0,1,.285-.845" transform="translate(-46.451 -13.46)" fill="rgba(112,82,37,0.69)"/>
          <path id="Path_9768" data-name="Path 9768" d="M67.275,38.265a1.029,1.029,0,0,0,1.035.743c-.01.439-.253.45-.578.315a2.47,2.47,0,0,1-1.48-1.737,1.412,1.412,0,0,0-.513-.762c-.631-.515-1.19-1.118-1.778-1.686a.793.793,0,0,1,.486-.629,2.4,2.4,0,0,0,2.239,1.2c.483.031.644.466.932.742a2.1,2.1,0,0,0-.344,1.813" transform="translate(-23.852 -12.869)" fill="#c8c6a7"/>
          <path id="Path_9769" data-name="Path 9769" d="M62.62,70.585c-.5,0-.99,0-1.486-.011a.4.4,0,0,1-.423-.248c-.08-.231.1-.284.259-.376a.589.589,0,0,0,.3-.818c-.268-.566.149-.552.46-.491a14.989,14.989,0,0,0,2.686.148,3.683,3.683,0,0,0,1.462-.247c.2-.081.778-.326.5.378-1.034.279-2.108.317-3.156.507-1.013.183-1.047.275-.6,1.158" transform="translate(-22.633 -25.521)" fill="#f6a55d"/>
          <path id="Path_9770" data-name="Path 9770" d="M88.805,49.228c-.28.459-.018.981-.23,1.669a12.8,12.8,0,0,1-.512-5.452.89.89,0,0,1,.753-.859c.228.683,0,1.433.309,2.1.029.064,0,.162.034.22a1.768,1.768,0,0,1-.354,2.318" transform="translate(-32.791 -16.627)" fill="rgba(207,183,132,0.71)"/>
          <path id="Path_9771" data-name="Path 9771" d="M126.5,37.88l.155,0a3.671,3.671,0,0,1,.15,1.106q-.009,6.552,0,13.105c0,.432.025.863-.444,1.1l-.108-.1c-.275-.529-.05-1.08-.052-1.618q-.025-6.205,0-12.411c0-.411-.095-.863.3-1.178" transform="translate(-47.032 -14.125)" fill="rgba(112,82,37,0.69)"/>
          <path id="Path_9773" data-name="Path 9773" d="M64.885,79.4c-.347.048-.3.368-.376.581-.242.648-.454,1.306-.678,1.96a.643.643,0,0,1-.472.759c-.442.018-.725-.11-.458-.6a6.05,6.05,0,0,0,.648-3.236c-.043-.962.154-1.06,1.015-.623.088.045.183.074.275.11.009.352-.212.714.048,1.053" transform="translate(-23.418 -29.084)" fill="rgba(112,82,37,0.85)"/>
          <path id="Path_9775" data-name="Path 9775" d="M89.265,48.586c.009-.048,0-.11.029-.144.785-.983.222-1.977-.022-2.939a2.848,2.848,0,0,1,0-1.56c.238-.465.312-1.089,1.043-1.079a2.778,2.778,0,0,0-.682,2.668c.032.291.153.571.214.86.117.546.245,1.064.99.977.251-.029.352.246.563.312a3,3,0,0,1,.9,1.725c-.452-.076-.333-.542-.593-.7a1.3,1.3,0,0,0-.376-.627c-.29-.319-.615-.6-1.1-.4a.976.976,0,0,0-.652.98c0,.569,0,1.139,0,1.708-.314.04-.285-.182-.289-.378q-.015-.7-.028-1.4" transform="translate(-33.251 -15.985)" fill="#705225"/>
          <path id="Path_9776" data-name="Path 9776" d="M69.1,36.5c-.509-.007-.613-.468-.861-.768q-.061-.3-.121-.6a3.376,3.376,0,0,1,1.319.107.753.753,0,0,0,.746-.2c.307-.223.577-.564,1.033-.468.029.09.058.181.086.272a2.135,2.135,0,0,1-.261,1.306c-.041.065-.115.134-.172.111A2.038,2.038,0,0,0,69.1,36.5" transform="translate(-25.401 -12.888)" fill="#b4a680"/>
          <path id="Path_9777" data-name="Path 9777" d="M132.281,37.5q.01-.3.022-.6a11.848,11.848,0,0,1,1.267.019c.481.056,1.037-.04,1.169.724.058.335.518.473.93.475a.772.772,0,0,0,.824-.487c.087-.2.152-.607.447-.463.275.135.131.5-.013.727-.183.292-.415.552-.626.827-.746-.645-.858-.62-1.319.287a.312.312,0,0,1-.137-.058,5.679,5.679,0,0,0-2.26-1.239.755.755,0,0,1-.305-.209" transform="translate(-49.33 -13.756)" fill="rgba(112,82,37,0.5)"/>
          <path id="Path_9778" data-name="Path 9778" d="M66.927,31.155a1.21,1.21,0,0,0,.164.23c.127.112-.838.014-.042.237.248.07.351.261.051.381-.8.319-.295.626-.016.943a1.964,1.964,0,0,1-1.4-2.933c.182-.428.079-1.033.634-1.283-.1.483-.228.962-.282,1.45-.105.954-.087.956.887.974" transform="translate(-24.409 -10.714)" fill="#c8c6a7"/>
          <path id="Path_9779" data-name="Path 9779" d="M69.976,41.9a.956.956,0,0,0,.577-.315c.666-.055,1.332-.358,2,0,.023.117.046.233.069.35.011.771-.625.894-1.141,1.022-.465.115-1.038.261-1.357-.354l-.147-.7" transform="translate(-26.095 -15.442)" fill="#eda16c"/>
          <path id="Path_9780" data-name="Path 9780" d="M52.229,49.874l-.017-.728a5.377,5.377,0,0,1,2.084.6c-.323.219-.122.372.074.5s.5.108.586.451c-.82.1-1.552-.375-2.357-.321-.23.016-.341-.261-.369-.5" transform="translate(-19.471 -18.327)" fill="#fcc086"/>
          <path id="Path_9782" data-name="Path 9782" d="M64.327,24.5a1.309,1.309,0,0,0-1.082-.014c-.2.116-.414.093-.366-.23a2.625,2.625,0,0,1,1.349-1.266c.7-.093,1.047.186,1,.908a6.547,6.547,0,0,0-.9.6" transform="translate(-23.446 -8.568)" fill="#c8c6a7"/>
          <path id="Path_9783" data-name="Path 9783" d="M120.963,57.1l.107-1.027c.253.405.1.759.214,1.05.383.386.246.88.275,1.339a2.344,2.344,0,0,0,.242,1.289,1.238,1.238,0,0,0,1.671.492c.305-.134.569-.425.958-.281l.011.01c-.139.828-.842.946-1.454,1.021a1.919,1.919,0,0,1-2.009-1.867c-.009-.675-.01-1.35-.014-2.025" transform="translate(-45.109 -20.912)" fill="rgba(112,82,37,0.69)"/>
          <path id="Path_9784" data-name="Path 9784" d="M102.365,47.859a35.065,35.065,0,0,0,.234-4.087,6.9,6.9,0,0,0-1.3-4.025l.161-.023a5.569,5.569,0,0,1,1.369,3.559,28.808,28.808,0,0,1-.164,4.568c-.038.115-.109.2-.239.169-.074-.016-.074-.093-.058-.161" transform="translate(-37.775 -14.814)" fill="#705225"/>
          <path id="Path_9785" data-name="Path 9785" d="M65.192,25c.026-.608.32-.818.9-.6a5.767,5.767,0,0,1,.613,1.632.493.493,0,0,1-.314.453L65.192,25" transform="translate(-24.311 -9.07)" fill="#f2f2f2"/>
          <path id="Path_9786" data-name="Path 9786" d="M70.121,42.906a1.993,1.993,0,0,0,2.5-.668.585.585,0,0,1,.38.435c-.018.179-.05.37-.234.439a3.564,3.564,0,0,1-2.792.287.624.624,0,0,1,.149-.492" transform="translate(-26.094 -15.751)" fill="#b4a680"/>
          <path id="Path_9787" data-name="Path 9787" d="M70.077,25.3c-.134.094-.2.32-.417.247s-.17-.278-.173-.445c-.007-.322-.008-.643,0-.965.006-.292-.046-.635.416-.626.4.008.492.262.482.6,0,.1.006.2.009.3.046.351-.261.576-.315.892" transform="translate(-25.91 -8.768)" fill="#f5f5f5"/>
          <path id="Path_9788" data-name="Path 9788" d="M124.1,36.906q-.071.3-.144.591c-.706.376-1.12,1.1-1.8,1.513l-.43-.909c.385.014.785-.18.815-.494.076-.794.6-.707,1.112-.707.147,0,.294,0,.441.006" transform="translate(-45.396 -13.76)" fill="rgba(112,82,37,0.5)"/>
          <path id="Path_9791" data-name="Path 9791" d="M120.225,38.134l-.455.716c.033-.435-.378-.689-.444-1.08-.028-.166-.091-.387.1-.462.23-.088.3.133.318.3.038.3.276.39.477.526" transform="translate(-44.486 -13.905)" fill="rgba(112,82,37,0.5)"/>
          <path id="Path_9792" data-name="Path 9792" d="M64.216,34.341c-.012.325-.122.575-.486.628-.194-.214-.618-.367-.236-.748.275-.275.526-.186.722.12" transform="translate(-23.62 -12.7)" fill="#e6ebea"/>
          <path id="Path_9794" data-name="Path 9794" d="M81.693,28.723l.283.178c.374.019.249.337.237.5a9.926,9.926,0,0,0,.068,1.044.352.352,0,0,1-.166.263,2.145,2.145,0,0,1-.423-1.983" transform="translate(-30.442 -10.711)" fill="#57777d"/>
          <path id="Path_9796" data-name="Path 9796" d="M82.4,31.707l.018-.3c.509.028.919.193,1.047.752a1.336,1.336,0,0,1-.978-.265l-.087-.183" transform="translate(-30.729 -11.711)" fill="#946861"/>
          <path id="Path_9797" data-name="Path 9797" d="M46.3,70.159c-.026.372.152.8-.277,1.065a1.62,1.62,0,0,1,.277-1.065" transform="translate(-17.16 -26.163)" fill="#fcbf85"/>
          <path id="Path_9798" data-name="Path 9798" d="M60.341,121.3c.251.977.074,1.994.277,2.979.069.332.024.662.514.637.514-.026.426-.4.426-.71,0-3.577-.008-7.154,0-10.732,0-.285-.115-.606.151-.85a1.207,1.207,0,0,1,.3,1.042c.007,2.152,0,4.3.006,6.455,0,.947.077.977,1.036,1.03.7.04,1.464-.249,2.085.32.176.361-.13.482-.333.643s-.491.241-.408.554.4.374.665.4a17.047,17.047,0,0,0,4.176.1,4.177,4.177,0,0,1,1.855.082,1.352,1.352,0,0,1,.935.688c.2.443.555.5.981.518a27.712,27.712,0,0,0,4.919-.332,15.348,15.348,0,0,1,1.568.021c.428-.014.651-.167.591-.642a1.049,1.049,0,0,1,.2-.985,15.456,15.456,0,0,1,5.363,1.18c.471.208.479.45.08.758a5.921,5.921,0,0,1-2.681.856,71.606,71.606,0,0,1-8.978.966c-3.636.222-7.274.307-10.91.465-3.551.155-7.1.127-10.642.08-2.89-.038-5.791-.1-8.673-.305-3.67-.267-7.359-.423-11-1.042a9.4,9.4,0,0,1-3.078-.847c-.675-.376-.673-.662-.011-1.05a7.822,7.822,0,0,1,2.788-.767c1.21-.2,1.217-.169,1.215-1.415q0-4.389-.012-8.778c.276.24.157.561.157.845q.008,5.2,0,10.408c0,.175.007.349,0,.524-.011.324.093.524.464.52.319,0,.415-.159.459-.456a12.124,12.124,0,0,0,.141-1.936,1.561,1.561,0,0,1,.125-.948c.2.831.9.362,1.358.512.482.274.795.241.789-.418a1.279,1.279,0,0,1,.129-.647c.119-.211.265-.3.449-.057.119.746.615.849,1.257.781,2.776-.295,5.569-.358,8.352-.568,1.741-.131,3.495-.028,5.243-.036,1.323-.006,2.647,0,3.971,0a1.105,1.105,0,0,0,1-.394c.548-.238.477.234.566.507.1.319-.13.869.229.937.43.082.214-.573.493-.788.072-.055.007.039.056-.05a1.365,1.365,0,0,1,1.363-.058" transform="translate(-10.911 -41.997)" fill="#ece0d0"/>
          <path id="Path_9799" data-name="Path 9799" d="M100.922,126.92c.029.223.065.445.088.668.128,1.24.016,1.443-1.163,1.265a14.929,14.929,0,0,0-3.4.235,29.224,29.224,0,0,1-3.3.071c-.292-.012-.6-.045-.657-.371-.174-1.08-1.033-.991-1.739-.953a27.8,27.8,0,0,1-4.792-.038c-.272-.033-.539-.1-.811-.13-.383-.036-.49-.3-.536-.613a.6.6,0,0,1,.394-.653c.267-.132.537-.258.805-.386.212-.405.636-.452,1-.566a19.532,19.532,0,0,0,3.11-1.006.9.9,0,0,1,.7.145,2.9,2.9,0,0,0,1.487.386,1.13,1.13,0,0,1,1.067.543,2.121,2.121,0,0,1,.3.736c.154.879.159.889,1,.528a7.825,7.825,0,0,0,1.443-.551c.57-.163,1.052-.531,1.619-.7a8.792,8.792,0,0,0,2.619.5c.235-.033.371.218.469.428l.291.469" transform="translate(-31.552 -46.397)" fill="#705225"/>
          <path id="Path_9800" data-name="Path 9800" d="M107.218,121.035c-.124-.079-.275-.25-.368-.223a4.268,4.268,0,0,1-2.774-.536.714.714,0,0,1-.265-.518c-.383-2.666-.922-5.3-1.361-7.961,0-.517-.428-1.046.044-1.55,1.394-.22,2.784-.619,4.2-.1.337.031.438.227.441.549a6.845,6.845,0,0,0,.116.874q-.056,4.251-.108,8.5c0,.32.051.641.08.962" transform="translate(-38.139 -40.981)" fill="rgba(112,82,37,0.5)"/>
          <path id="Path_9801" data-name="Path 9801" d="M131.557,116.075a1.809,1.809,0,0,1-1.126.317,90.239,90.239,0,0,1-10.255-.006c-.466-.014-.935-.132-1.411-.142-.37-.008-.554-.2-.432-.587.041-.03.093-.073.132-.06a3.941,3.941,0,0,0,2.53-.235c2.155.041,4.3-.342,6.465-.045a10.136,10.136,0,0,0,2.748-.018,1.342,1.342,0,0,1,1.349.775" transform="translate(-44.114 -42.961)" fill="#f6f1ed"/>
          <path id="Path_9802" data-name="Path 9802" d="M138.314,114.568a2.956,2.956,0,0,1-1.216-.692c-.734-.272-.719-.87-.653-1.493.234-.483.181-1.242,1.06-1.112a.619.619,0,0,1,.083.628c.1.221.009.44,0,.66a.962.962,0,1,0,1.919.071,2.936,2.936,0,0,1,0-.742c0-.28-.182-.631.287-.726a5.07,5.07,0,0,1,.606,1.178c.038,1.449-.586,2.115-2.084,2.227" transform="translate(-50.872 -41.455)" fill="rgba(112,82,37,0.69)"/>
          <path id="Path_9803" data-name="Path 9803" d="M120.5,113.981a2,2,0,0,1-2.545.164,2.153,2.153,0,0,1-.618-2.079,3.363,3.363,0,0,1,.624-.9.676.676,0,0,1,.265.681,3.391,3.391,0,0,1-.028.744.913.913,0,0,0,.865,1.023.96.96,0,0,0,.992-.914,3.238,3.238,0,0,1,.021-.816.679.679,0,0,1,.252-.733c.588.132.649.662.835,1.1.073.691.135,1.378-.665,1.734" transform="translate(-43.74 -41.449)" fill="rgba(112,82,37,0.5)"/>
          <path id="Path_9804" data-name="Path 9804" d="M10.337,112.42c.066-.4.386-.323.645-.323q6.358-.006,12.717,0a.722.722,0,0,1,.621.181l.023.069-.048.055-13.959.021" transform="translate(-3.855 -41.8)" fill="#705225"/>
          <path id="Path_9805" data-name="Path 9805" d="M32.6,112.411a.245.245,0,0,0,.024-.125,3.4,3.4,0,0,1,1.913-.035,1.108,1.108,0,0,0-.01.129c-.147.512-.253,1.1-.969,1.037a.982.982,0,0,1-.958-1.006" transform="translate(-12.156 -41.812)" fill="rgba(112,82,37,0.5)"/>
          <path id="Path_9806" data-name="Path 9806" d="M7.417,112.87c-.04-.513.142-.785.713-.75.514.031,1.032-.006.971.747-.619.773-1.1.774-1.684,0" transform="translate(-2.764 -41.81)" fill="rgba(112,82,37,0.5)"/>
          <path id="Path_9807" data-name="Path 9807" d="M92,65.022q0-.2.006-.407c.168.015.328.1.5-.023A1.7,1.7,0,0,0,92.4,62c.063-.4.3-.507.64-.339.355.177,1.016-.164,1.051.544a6.715,6.715,0,0,1-.1,2.365c-.268.31-.369.831-.947.749-.375,0-.778.1-1.038-.295" transform="translate(-34.309 -22.965)" fill="#b4a680"/>
          <path id="Path_9808" data-name="Path 9808" d="M102.566,52.692c.1.166.2.037.3-.009a1.58,1.58,0,0,1,.357,1.005c-.069.6-.308.917-.956.67a1.781,1.781,0,0,1-.428-1.031l.731-.635" transform="translate(-37.976 -19.646)" fill="rgba(112,82,37,0.69)"/>
          <path id="Path_9809" data-name="Path 9809" d="M98.495,64.023a.307.307,0,0,1-.255.317.291.291,0,0,1-.373-.263.273.273,0,0,1,.246-.315.31.31,0,0,1,.382.26" transform="translate(-36.494 -23.775)" fill="rgba(112,82,37,0.69)"/>
          <path id="Path_9810" data-name="Path 9810" d="M96.842,63.828c-.063.181-.169.31-.382.26a.283.283,0,0,1-.246-.321.294.294,0,0,1,.379-.258.287.287,0,0,1,.249.32" transform="translate(-35.878 -23.68)" fill="rgba(112,82,37,0.69)"/>
          <path id="Path_9811" data-name="Path 9811" d="M91.729,58.912l-.011-.158c.162-.137.282-.381.554-.233a.213.213,0,0,1,.042.2c-.12.272-.371.185-.585.194" transform="translate(-34.203 -21.806)" fill="#8f8782"/>
          <path id="Path_9812" data-name="Path 9812" d="M44.16,94.361c.271-.334-.073-.89.28-1.107.426-.263.974-.1,1.468-.1q7.449-.014,14.9,0c.313,0,.655-.1.929.157a1.6,1.6,0,0,1,.381,1.179c.142,1.461.273,2.927.329,4.392a23.131,23.131,0,0,1,.164,3.207c-.229,1.259-.248,1.284-1.532,1.284q-8.158.007-16.315,0c-1.085,0-1.164-.08-1.378-1.129.014-2.071.216-4.132.414-6.191.054-.567-.2-1.225.363-1.689" transform="translate(-16.178 -34.72)" fill="#f3f1eb"/>
          <path id="Path_9813" data-name="Path 9813" d="M88.578,120.221a4.2,4.2,0,0,1-1.9.79c-.742.2-1.481.4-2.221.6a7.509,7.509,0,0,0-2.733-.147c-.605-.007-.761-.213-.756-.784.026-2.687.016-5.374.019-8.061l7.033-.011a1.08,1.08,0,0,1,.435.906c.194,1.874.285,3.757.478,5.632a1.054,1.054,0,0,1-.357,1.074" transform="translate(-30.195 -41.994)" fill="#f6f1ed"/>
          <path id="Path_9814" data-name="Path 9814" d="M6.863,92.318a9.49,9.49,0,0,1-.11-3.177c.009-.4.47-.275.744-.276q4.831-.012,9.661-.005l5.767,0c.411.156.483.477.46.874-.021.362.008.727.015,1.091-.132.6.122.8.712.749a10.015,10.015,0,0,1,1.195.025c.17.771.087.917-.647.926-1.924.021-3.848.011-5.773.006-.412,0-.735-.113-.85-.564-.082-.317-.314-.412-.625-.41-1,.006-2,0-3,0-.28,0-.495.083-.559.38a.723.723,0,0,1-.825.593q-2.774.007-5.548,0a.794.794,0,0,1-.618-.214" transform="translate(-2.488 -33.132)" fill="#ececeb"/>
          <path id="Path_9815" data-name="Path 9815" d="M73.236,102.035c-.162-2.414-.312-4.829-.5-7.24a6.718,6.718,0,0,1-.1-1.475,5.13,5.13,0,0,1,2.205-.137c.406-.008.219.345.219.571q-.012,4.413-.014,8.826a1.369,1.369,0,0,0,.1.354c.04.019.058.044.054.074s-.013.05-.024.05q-.01,1.136-.02,2.272a1.144,1.144,0,0,1,.316.956q.008,3.469,0,6.938a1.175,1.175,0,0,1-.31.96,6.8,6.8,0,0,0-.032.739c.022.368-.152.47-.489.465-.315-.005-.51-.066-.532-.442a5.143,5.143,0,0,0-.128-1.545c-.534-.44-.332-1.076-.367-1.612-.14-2.131-.42-4.256-.379-6.4a4.155,4.155,0,0,1,.027-2.476,1.4,1.4,0,0,0-.024-.88" transform="translate(-27.08 -34.73)" fill="rgba(112,82,37,0.69)"/>
          <path id="Path_9816" data-name="Path 9816" d="M42.988,94.375q-.257,3.91-.513,7.82a2.742,2.742,0,0,0,.174,1.434,13.8,13.8,0,0,1-.123,2.046c-.084,2.416-.322,4.821-.474,7.232a.733.733,0,0,1-.319.643,3.608,3.608,0,0,0-.124,1.231c-.018.263.04.563-.358.6-.352.036-.642-.009-.682-.445a.961.961,0,0,1-.32-.874q-.017-3.928,0-7.856a1.1,1.1,0,0,1,.319-.884l-.023-2.253.008-.013c.212-.2.132-.467.132-.707,0-2.789.022-5.579-.018-8.368-.009-.673.2-.921.847-.82a1.481,1.481,0,0,0,.224,0c1.221,0,1.221,0,1.252,1.21" transform="translate(-15.007 -34.734)" fill="rgba(112,82,37,0.69)"/>
          <path id="Path_9817" data-name="Path 9817" d="M92.7,119.094a10.606,10.606,0,0,0-.114-2.761c-.1-1.62-.29-3.234-.443-4.851-.006-.059-.011-.119-.016-.177q-.05-.74-.1-1.48a3.022,3.022,0,0,1,2.653.157,2.761,2.761,0,0,0,1.239.1.508.508,0,0,1,.664,0,1.751,1.751,0,0,1,.191,1.378,35.041,35.041,0,0,1-.306,3.577c-.126,1.417-.329,2.826-.4,4.249-.015.325,0,.658-.3.887-.181-.216-.293-.5-.676-.455a2.868,2.868,0,0,1-2.18-.631c-.043-.034-.142.005-.215.01" transform="translate(-34.319 -40.867)" fill="rgba(112,82,37,0.5)"/>
          <path id="Path_9818" data-name="Path 9818" d="M6.885,93.758c2,0,4-.011,6,0,.445,0,.8-.019.779-.61-.011-.305.211-.433.5-.435,1.175,0,2.35,0,3.525-.006.331,0,.556.154.566.468.018.526.312.586.742.583,1.875-.013,3.751-.02,5.626.008.55.008.811-.149.7-.724.24.152.172.4.172.611q.006,4.681,0,9.362c0,.214.073.458-.161.616,0-.247.1-.512-.135-.716a1.027,1.027,0,0,1-.812.3q-2.646,0-5.292,0a1.046,1.046,0,0,1-.766-.223.221.221,0,0,1-.026-.273,1.147,1.147,0,0,1,.907-.26c1.674-.009,3.349-.006,5.022,0a1.178,1.178,0,0,1,.966.307c.3-.4.133-.865.144-1.3.025-.968,0-1.937,0-2.906a4.7,4.7,0,0,1-1.324.157q-8.053-.01-16.105-.006c-.419,0-.861.07-1.189-.3,0-.048,0-.1,0-.145a1.257,1.257,0,0,1,1.04-.312q2.289-.008,4.576,0c.471,0,.875-.04,1.127-.539A1.06,1.06,0,0,1,14.5,96.9q1.464-.018,2.927,0a1.106,1.106,0,0,1,1.074.557.946.946,0,0,0,1,.487c1.551,0,3.1,0,4.652,0a1.269,1.269,0,0,1,1.045.3c.306-.4.139-.863.15-1.295.026-.966,0-1.935,0-2.9a5.387,5.387,0,0,1-1.4.157Q15.967,94.2,7.987,94.2c-.391,0-.815.083-1.1-.308,0-.045,0-.089,0-.134" transform="translate(-2.51 -34.572)" fill="#705225"/>
          <path id="Path_9819" data-name="Path 9819" d="M39.925,112.564c.07,3.205.065,6.409,0,9.614-.161.048-.32.1-.484.141-.638.145-1.021-.016-.9-.766.165-2.772.341-5.543.485-8.317.033-.643.4-.715.894-.672" transform="translate(-14.366 -41.973)" fill="#f6f1ed"/>
          <path id="Path_9820" data-name="Path 9820" d="M76.646,121.431c-.071-2.952-.054-5.9-.005-8.854.452-.037.851-.031.885.593.148,2.7.311,5.407.468,8.11a2.959,2.959,0,0,1-1.348.152" transform="translate(-28.565 -41.977)" fill="#f6f1ed"/>
          <path id="Path_9821" data-name="Path 9821" d="M76.679,104.174a.311.311,0,0,1-.03-.124V96.124h.1c.12,1.536.246,3.071.356,4.608.068.944.1,1.889.169,2.833.033.456-.147.654-.6.61" transform="translate(-28.584 -35.846)" fill="#eeede9"/>
          <path id="Path_9822" data-name="Path 9822" d="M40.366,104.212c-.445.027-.629-.165-.6-.623.132-1.817.243-3.635.365-5.453a12.867,12.867,0,0,1,.239-1.938v8l-.008.013" transform="translate(-14.83 -35.874)" fill="#eeede9"/>
          <path id="Path_9823" data-name="Path 9823" d="M13.771,84.238c-.115.678-.546.781-1.171.764-1.7-.045-3.4-.041-5.105,0-.64.014-.832-.214-.8-.823a16.644,16.644,0,0,0-.022-2.024c-.023-.346.108-.457.411-.464.175,0,.35,0,.525,0H24.205c.976,0,.985,0,.974.99a2.257,2.257,0,0,1-.149,1.248c-.349,0-.7.006-1.047.006-1.035,0-1.035,0-1.07,1.046-1.213,0-2.427-.029-3.638.026-.626.028-1.045-.092-1.146-.769a10.953,10.953,0,0,1-3.043.152,2.18,2.18,0,0,1-1.317-.147" transform="translate(-2.489 -30.462)" fill="#edecec"/>
          <path id="Path_9824" data-name="Path 9824" d="M22.984,88.016q-7.688,0-15.375,0c-.267,0-.729.166-.753-.231-.03-.471.453-.356.751-.357q7.688-.006,15.374.006l0,.579" transform="translate(-2.556 -32.6)" fill="#ecebeb"/>
          <path id="Path_9825" data-name="Path 9825" d="M51.337,85.339a10.207,10.207,0,0,0,2.637.128c.565.031,1.133.019,1.7.026a3.617,3.617,0,0,1,1.905-.134c1.178.112,2.338.357,3.534.371a1.906,1.906,0,0,1,1.516.649.454.454,0,0,1-.552.112,4.089,4.089,0,0,0-2.271-.254,16.4,16.4,0,0,1-4.008-.4,2.134,2.134,0,0,0-1.1.049,5.474,5.474,0,0,1-3.1.046,13.343,13.343,0,0,0-5.342-.069,34.815,34.815,0,0,0-3.579.211.359.359,0,0,1-.475-.253,2.535,2.535,0,0,1,1.793-.573,40.967,40.967,0,0,0,5.384-.224,4.4,4.4,0,0,1,.9.02c.364.07.8-.1,1.067.3" transform="translate(-15.734 -31.7)" fill="rgba(112,82,37,0.5)"/>
          <path id="Path_9826" data-name="Path 9826" d="M50.056,84.747c-1.634.075-3.268.169-4.9.217a10.232,10.232,0,0,0-3.221.33l-.162-.061-.278-.66c.393.277.717.405,1.067.079a1.057,1.057,0,0,1,.794-.151,18.039,18.039,0,0,0,5.409-.471,7.034,7.034,0,0,1,1.566-.423.709.709,0,0,1-.272,1.14" transform="translate(-15.473 -31.178)" fill="#f4a360"/>
          <path id="Path_9827" data-name="Path 9827" d="M70.642,86.114a30.008,30.008,0,0,0-6.54-.757,1.952,1.952,0,0,1-.415-.129c0-.058,0-.117,0-.174q.235-.38.472-.759a11.843,11.843,0,0,1,2.848.714c1.115.305,2.269.09,3.375.4.262.074.473.116.561.393l-.3.312" transform="translate(-23.75 -31.435)" fill="#f6a764"/>
          <path id="Path_9828" data-name="Path 9828" d="M98.856,94.977l-.623-.064c.043-5.649.186-11.3.194-16.948,0-1.54.14-3.1.08-4.638-.047-1.2-.135-2.39-.118-3.589.012-.8.151-.874.925-.81,1.144.095,2.291.154,3.437.169.536.008.771.142.747.72a54,54,0,0,0,.707,9c.243,1.95.293,3.923.5,5.88a82.585,82.585,0,0,1,.451,9.637,1.765,1.765,0,0,0,.1.435.1.1,0,0,0-.073.1l-4.25.211a2.109,2.109,0,0,1-2.076-.1" transform="translate(-36.633 -25.698)" fill="rgba(207,183,132,0.54)"/>
          <path id="Path_9829" data-name="Path 9829" d="M93.511,94.124l-2.653-.157L88.889,93.6c.249-2.976.255-5.967.574-8.941.119-1.112.083-2.239.156-3.359.182-2.807.51-5.6.706-8.4a24.6,24.6,0,0,0,.167-3.872,2.422,2.422,0,0,1,.349-1.962,1.7,1.7,0,0,1,1.038.3c-.151.26.035.3.22.325.615.1,1.227.23,1.846.275.568.041.8.292.8.848-.006,6.054.034,12.108-.025,18.162-.022,2.238-.286,4.471-.214,6.718.022.7-.67.26-1,.435" transform="translate(-33.148 -25.01)" fill="rgba(207,183,132,0.54)"/>
          <path id="Path_9830" data-name="Path 9830" d="M47.118,52.831a1.623,1.623,0,0,0,.712.33c.538.156.983.24.907-.571a.389.389,0,0,1,.206-.368c.049,0,.118-.019.147.006a8.2,8.2,0,0,0,2.17,1.1c.28.124-.015.277-.061.415.167.269.529.011.7.261.755.5-.019.811-.213,1.055-.309.386-.516.7-.251,1.167a.337.337,0,0,0,.05.054c.362.425.969.1,1.357.447a2.742,2.742,0,0,1-.18.946c-.1.4-.467.438-.747.531-.229.077-.35-.211-.476-.386-.148-.205-.372-.661-.544-.37-.191.325-.772.532-.565,1,.148.332.537.289.861.139.127-.059.35-.367.3.1.051.579-.328.75-.795.848-.23.048-.5-.066-.687.157-.074.167-.278.1-.371.192-.144.144.209.529-.16.531-.393,0-.181-.44-.307-.659s-.222-.5-.463-.559c-.628-.16-1.06-.983-1.874-.544-.151.082-.335-.063-.4-.248-.129-.356.137-.484.377-.623.278-.082.457.209.695.2a.562.562,0,0,0,.6-.61c-.046-.253-.21-.494-.078-.764-.816-.362-1.124-.227-1.736.762-.673-.748-.65-1.011.108-1.515a1.484,1.484,0,0,0,.278-.341c.126-.6.735-.292,1.04-.553-.9-.511-.644-1.35-.607-2.128" transform="translate(-17.085 -19.472)" fill="#fcc086"/>
          <path id="Path_9831" data-name="Path 9831" d="M49.185,75c-.466.141-.826.642-1.414.4-.067-.027-.108.2-.107.321.09.384.074.731-.329.944-.2.31-.292.922-.733.753-.356-.137-.051-.655.016-1,.268-1.383,1.02-2.6,1.36-3.957.34-.3.28-.772.517-1.128.176-.265.252-.419.61-.241.5.249,1.045.411,1.57.611a.707.707,0,0,1,.215.052c.241.154.709.135.717.418.012.409-.458.243-.712.328a1.974,1.974,0,0,0-1.529,2.036,1.6,1.6,0,0,1-.181.469" transform="translate(-17.316 -26.48)" fill="#f8a15b"/>
          <path id="Path_9832" data-name="Path 9832" d="M55.071,65.633a.709.709,0,0,0,.178.466.782.782,0,0,1-.405,1.279c-.686.084-1.308.51-2.028.357a4.172,4.172,0,0,0-1.515-.314c-.152,0-.32-.058-.337-.228-.02-.205.184-.181.314-.231a16.81,16.81,0,0,0,2.816-.865c.3-.179.544-.543.977-.463" transform="translate(-19.005 -24.471)" fill="#f9ab63"/>
          <path id="Path_9833" data-name="Path 9833" d="M48.719,59.2a.926.926,0,0,1,.294.677.658.658,0,0,1-.776.68c-.453-.032-.594-.37-.588-.783.059-.746.591-.61,1.07-.573" transform="translate(-17.769 -22.063)" fill="#483c35"/>
          <path id="Path_9834" data-name="Path 9834" d="M55.228,57.453a.615.615,0,0,1,.71-.473.574.574,0,0,1,.584.6c-.1.631-.361.871-.885.771-.543-.1-.542-.478-.409-.9" transform="translate(-20.568 -21.247)" fill="#41342d"/>
          <path id="Path_9835" data-name="Path 9835" d="M52.5,63.533c-.118-.428.211-.349.43-.365a1.144,1.144,0,0,0,1.051-.64c.258.34.369.81.11,1.069-.2.2-.687.14-1.046.139a1.72,1.72,0,0,1-.546-.2" transform="translate(-19.569 -23.318)" fill="#982c1d"/>
          <path id="Path_9836" data-name="Path 9836" d="M55.12,57.737c.068.342.016.774.556.776a.671.671,0,0,0,.738-.644c.265.374.008.638-.192.915-.495-.021-1.128.378-1.358-.448a.706.706,0,0,1,.255-.6" transform="translate(-20.46 -21.531)" fill="#e8dfd6"/>
          <path id="Path_9837" data-name="Path 9837" d="M47.56,60.131c.419.8.837.835,1.364.1.279.446-.08.621-.361.8-.484.312-.835.048-1.151-.309l.149-.6" transform="translate(-17.68 -22.424)" fill="#f4eae1"/>
          <path id="Path_9838" data-name="Path 9838" d="M54.965,54.868a1.034,1.034,0,0,0-.57.118c-.121.061-.285.179-.36-.034-.061-.174.161-.221.228-.345a2.087,2.087,0,0,1,1.27.064l-.568.2" transform="translate(-20.146 -20.338)" fill="#9c5b2b"/>
          <path id="Path_9839" data-name="Path 9839" d="M48.1,56.559c-.166.524-.791.185-1.04.552-.159,0-.342.007-.16-.218a1.08,1.08,0,0,1,1.2-.334" transform="translate(-17.462 -21.072)" fill="#9e5c2b"/>
          <path id="Path_9840" data-name="Path 9840" d="M122.753,111.649a5.23,5.23,0,0,0-.611-1.05q.165-.453.331-.907l3.6,0c0,.1.009.2,0,.295-.044.536-.023.911.734.911s.781-.391.754-.926c-.005-.1.006-.2.009-.295l4.058.006.553,1.037c-.573.137-.623.66-.8,1.088q-3.8,0-7.609,0a2.268,2.268,0,0,1-1.021-.154" transform="translate(-45.549 -40.899)" fill="#705225"/>
          <path id="Path_9841" data-name="Path 9841" d="M129.947,83.922V38.066h.146V83.922h-.146" transform="translate(-48.459 -14.195)" fill="#f2f2ee"/>
          <path id="Path_9842" data-name="Path 9842" d="M82.7,23.983l-.211-.2c.495-.12.162-.665.509-.926a8.483,8.483,0,0,1,3.277-1.7.976.976,0,0,1,1.1.354c.8.963,1.672,1.874,3.1,1.784.217-.014.27.126.234.278-.055.233.175.578-.235.684s-.815.2-1.222.3c-.274.064-.467-.093-.683-.224-.689-.415-1.258-.455-1.77.11a2.551,2.551,0,0,1-1.789.934c-.478-.308-1.141-.2-1.539-.689-.044-.109.053-.217,0-.325-.288-.071-.615-.057-.767-.387" transform="translate(-30.762 -7.877)" fill="#f9a56d"/>
          <path id="Path_9843" data-name="Path 9843" d="M83.357,30.536a4.526,4.526,0,0,1-1.047-.752c-.472-.457.048-1.018-.157-1.5q.027-.167.056-.335A1.163,1.163,0,0,1,83.7,27.1a2.746,2.746,0,0,1,1.04.372,1.679,1.679,0,0,1,.385,2.152,1.717,1.717,0,0,1-1.775.906Z" transform="translate(-30.618 -10.092)" fill="#f5bfa1"/>
          <path id="Path_9844" data-name="Path 9844" d="M84.091,29.91a2.291,2.291,0,0,0,1.3-.473c.8-.7.778-1.528-.052-2.518a.3.3,0,0,1,.281-.051,2.168,2.168,0,0,0,1.418-.852c.746-.885,1.639-.788,2.807.145l.152.156c.041.27.1.539.117.81a1.811,1.811,0,0,1-3.54.669,1.617,1.617,0,0,1-.086-.362c-.024-.263-.06-.575-.407-.459-.365.122-.051.349.006.536a1.829,1.829,0,0,1-1.742,2.525c-.078.009-.169-.082-.254-.127" transform="translate(-31.359 -9.474)" fill="#946861"/>
          <path id="Path_9845" data-name="Path 9845" d="M84.792,26.953l-.28.051a1.746,1.746,0,0,0-2.392.409,1.958,1.958,0,0,1-.23-.99c-.013-.418-.168-.927.579-.76.386.229.881-.033,1.248.28-.272.251-.652.1-.924.253.147-.014.331-.1.473.08.46.335,1.159.129,1.525.675" transform="translate(-30.53 -9.559)" fill="#c08563"/>
          <path id="Path_9846" data-name="Path 9846" d="M96.833,26.4a6.046,6.046,0,0,0-.462,1.553c-.049.233-.135.357-.383.346-.265-.013-.239-.207-.234-.375.013-.468-.271-.907-.125-1.386l1.2-.138" transform="translate(-35.646 -9.843)" fill="#705225"/>
          <path id="Path_9847" data-name="Path 9847" d="M25.189,99.5c-2.076,0-4.151,0-6.227.013-.388,0-.7-.026-.689-.537.011-.388-.243-.508-.591-.507q-1.726,0-3.451,0c-.354,0-.594.132-.583.517.015.522-.322.525-.7.525-2.076,0-4.151,0-6.227,0,0-.874.031-1.751-.011-2.623-.028-.564.247-.768.732-.816.223-.022.449-.015.674-.015H23.865c1.321,0,1.334.014,1.332,1.343,0,.7-.005,1.4-.008,2.1" transform="translate(-2.502 -35.82)" fill="#ecebeb"/>
          <path id="Path_9848" data-name="Path 9848" d="M25.2,106.766l-6.9,0c-1.192-1.048-2.606-.462-3.929-.527a.305.305,0,0,0-.255.144c-.409.68-1.07.621-1.726.617-1.475-.01-2.95,0-4.427-.006-.318,0-.658.063-.919-.209a.393.393,0,0,1-.311-.445q0-1.2,0-2.4c0-.3.127-.472.445-.469.151,0,.3,0,.45,0,5.554,0,11.107.012,16.66-.014.711,0,.99.176.932.916-.061.8-.016,1.6-.016,2.4" transform="translate(-2.511 -38.578)" fill="#ececec"/>
          <path id="Path_9849" data-name="Path 9849" d="M6.724,101.787q8.842,0,17.685.008c.313,0,.653-.108.933.141a.79.79,0,0,1-.835.463q-8.548-.021-17.1,0c-.444,0-.747-.078-.684-.609" transform="translate(-2.504 -37.952)" fill="#ecebeb"/>
          <path id="Path_9850" data-name="Path 9850" d="M6.9,94.588q8.728,0,17.456.013c.337,0,.7-.119,1.006.145a.986.986,0,0,1-.946.462C18.761,95.2,13.105,95.2,7.45,95.195c-.357,0-.954.125-.551-.606" transform="translate(-2.523 -35.268)" fill="#eae9e9"/>
          <path id="Path_9851" data-name="Path 9851" d="M18.307,108.756l6.912.018c.057.465-.166.6-.61.6q-8.632-.013-17.265-.008c-.213,0-.479.061-.559-.241-.058-.218.082-.32.273-.369a35.047,35.047,0,0,1,4.255-.05c1.991.041,3.955-.428,5.949-.254.372.032.756-.011,1.043.3" transform="translate(-2.525 -40.43)" fill="#e9e9e8"/>
          <path id="Path_9852" data-name="Path 9852" d="M18.475,108.325l-11.248,0a.5.5,0,0,1,0-.127c1.968,0,3.936,0,5.9-.006.283,0,.652.1.72-.33.09-.569.466-.6.926-.589.846.021,1.7.055,2.54-.008.722-.053,1.136.151,1.167.915,0,.047-.006.095-.009.142" transform="translate(-2.694 -39.999)" fill="#705225"/>
          <path id="Path_9853" data-name="Path 9853" d="M17.974,85.651a13.72,13.72,0,0,1,4.36,0c.137.776-.219.985-.953.931a17.065,17.065,0,0,0-2.532,0c-.747.057-1-.229-.875-.927" transform="translate(-6.692 -31.875)" fill="#705225"/>
          <path id="Path_9854" data-name="Path 9854" d="M18.587,51.237c-1.326,0-2.652-.016-3.978.011-.473.009-.66-.108-.655-.62q.033-4.014,0-8.028c-.005-.547.2-.668.7-.664q3.977.032,7.955,0c.477,0,.653.117.648.624q-.033,4.014,0,8.028c.005.55-.194.666-.7.655-1.326-.029-2.652-.01-3.978-.009" transform="translate(-5.204 -15.638)" fill="#eeeded"/>
          <path id="Path_9855" data-name="Path 9855" d="M87.643,34.417a6.031,6.031,0,0,0,2.841-1.392c.188-.166.4-.565.657-.344.324.278.084.636-.151.916-.181.837-.961.937-1.558,1.254a1.709,1.709,0,0,1-.937.228c-.455,0-.928.023-.852-.661" transform="translate(-32.68 -12.163)" fill="#f7f0ed"/>
          <path id="Path_9856" data-name="Path 9856" d="M88.883,35.46a5.738,5.738,0,0,0,2.444-1.279c.267.329.055.658-.112.882a2.9,2.9,0,0,1-2.464,1.387.586.586,0,0,1,.131-.99" transform="translate(-33.017 -12.747)" fill="#da4a58"/>
          <path id="Path_9857" data-name="Path 9857" d="M93.428,41.754a3.448,3.448,0,0,0-1.066-.548l-.143-.363c.013-.3.327-.3.467-.468.285-.009.378-.257.547-.42.244-.233.509-.3.655.122-.023.594-.471,1.073-.46,1.677" transform="translate(-34.39 -14.83)" fill="#e28d5e"/>
          <path id="Path_9858" data-name="Path 9858" d="M88.335,35.868a2.1,2.1,0,0,0-.131.99c-.742-.134-.987-.717-1.116-1.335-.1-.481.213-.113.344-.114.1.554.525.457.9.46" transform="translate(-32.47 -13.155)" fill="#99291f"/>
          <path id="Path_9859" data-name="Path 9859" d="M96.027,46.618c.352.8.324,1.7.722,2.487.519.469.448,1.127.562,1.73.051.272.046.547.077.82a23.22,23.22,0,0,1-.343,3.851,26.924,26.924,0,0,1-1.553-5.1,8.373,8.373,0,0,1-.316-3.5.745.745,0,0,1,.108-.219.568.568,0,0,1,.744-.065" transform="translate(-35.467 -17.345)" fill="rgba(112,82,37,0.69)"/>
          <path id="Path_9860" data-name="Path 9860" d="M98.1,50.933a14.164,14.164,0,0,1-.639-2.549,5.263,5.263,0,0,0-.327-1.74c-.289-1.321-.1-1.641,1.2-1.919.061-.013.109-.1.162-.149-.061,1.335-.061,2.676-.206,4a7.768,7.768,0,0,1-.19,2.354" transform="translate(-36.179 -16.623)" fill="#b4a680"/>
          <path id="Path_9861" data-name="Path 9861" d="M94.767,46.2l.107,3.735a8.072,8.072,0,0,1-.844-2.185,13.647,13.647,0,0,1-.579-2.2c.418.378.306-.41.613-.278.552.069.811.361.7.929" transform="translate(-34.849 -16.878)" fill="#b4a680"/>
          <path id="Path_9862" data-name="Path 9862" d="M132.183,37.857c.3,0,.6-.006.9,0a1.683,1.683,0,0,1,1.805,1.51c-.067.455-.416.458-.741.42-.782-.09-.983.281-.973,1.005q.049,3.477,0,6.957c-.01.729.24,1.119.976,1.048.646-.062.75.251.731.793-.016.433-.2,1.021.583,1.03,0,1.75.011,3.5,0,5.25-.009,1.181-.381,1.793-1.177,2.033a1.593,1.593,0,0,1-2.15-1.241,4.181,4.181,0,0,1-.113-1.038c0-5.175-.006-10.351.008-15.526,0-.746.1-1.491.156-2.236" transform="translate(-49.231 -14.116)" fill="rgba(213,197,178,0.33)"/>
          <path id="Path_9863" data-name="Path 9863" d="M136.452,47.58c1.96.033,1.96.033,1.959,1.992,0,.3,0,.6-.006.9a1.081,1.081,0,0,1-.817,1.048,3.412,3.412,0,0,1-2.071.017,1.106,1.106,0,0,1-.885-1.075c-.012-.8,0-1.6,0-2.4,0-.376.135-.538.547-.492a11.336,11.336,0,0,0,1.273.011" transform="translate(-50.205 -17.736)" fill="rgba(112,82,37,0.5)"/>
          <path id="Path_9864" data-name="Path 9864" d="M53.17,82.463a4.127,4.127,0,0,0,.272-1.14c.042-1.891-.726-2.682-2.632-2.71-.322-.005-.645,0-.968,0A24.8,24.8,0,0,1,54.3,77.49c.394-.041.527.078.492.418a4.934,4.934,0,0,0,1.438,4.06c.346.369-.118.512-.4.535-.546.045-1.1.024-1.648.031l-1.018-.071" transform="translate(-18.587 -28.894)" fill="rgba(112,82,37,0.85)"/>
          <path id="Path_9865" data-name="Path 9865" d="M47.873,79.463l.328-.944c.457.19.285.579.29.912-.211-.091-.386.532-.618.032" transform="translate(-17.853 -29.281)" fill="rgba(112,82,37,0.5)"/>
          <path id="Path_9866" data-name="Path 9866" d="M118.108,46.32c0-.673.022-1.348-.008-2.02-.021-.492.105-.736.66-.711.847.038,1.7.026,2.545,0,.433-.011.678.152.679.588.005,1.446.045,2.9-.023,4.339-.045.943-.574,1.346-1.534,1.373-.3.009-.6.013-.9,0a1.338,1.338,0,0,1-1.416-1.4c-.018-.723,0-1.447,0-2.17" transform="translate(-44.04 -16.254)" fill="rgba(223,211,195,0.6)"/>
          <path id="Path_9867" data-name="Path 9867" d="M124.61,52.712c-.142.1-.294.186-.426.3a1.529,1.529,0,0,1-1.857.253,1.687,1.687,0,0,1-.874-1.677c.038-.568.011-1.141.013-1.711.48-.007.458-.342.465-.681.021-1.054.026-1.067,1.036-1.128a1.264,1.264,0,0,0,.732-.324v4.388c.415-.21.311-.52.312-.785.008-4.052.021-8.1-.005-12.156a8,8,0,0,1,.4-2.562c.346.181.088.6.361.786q0,6.946,0,13.89a13.255,13.255,0,0,1-.148,1.41" transform="translate(-45.289 -13.658)" fill="#dfdad4"/>
          <path id="Path_9868" data-name="Path 9868" d="M122.419,39.367a2.433,2.433,0,0,1,1.8-1.513c.095.662-.189,1.3-.144,1.955-.441-.555-1.142-.144-1.652-.443" transform="translate(-45.652 -14.116)" fill="rgba(112,82,37,0.69)"/>
          <path id="Path_9870" data-name="Path 9870" d="M59.953,77.342a9.834,9.834,0,0,1,1.223.2.766.766,0,0,1,.554.866,6.269,6.269,0,0,1-.9,2.582c-.181.305-.4.267-.6.031a4.551,4.551,0,0,1-1.013-3.328c.033-.51.512-.232.732-.349" transform="translate(-22.08 -28.842)" fill="rgba(112,82,37,0.85)"/>
          <path id="Path_9871" data-name="Path 9871" d="M68.35,31.52l-.3.159c-.25-.114-.519-.218-.376-.581.047-.12.25-.221.262-.158.051.273.666.126.417.58" transform="translate(-25.221 -11.531)" fill="rgba(112,82,37,0.69)"/>
          <path id="Path_9872" data-name="Path 9872" d="M71.2,31.032l-.137-.056c-.19-.2-.308-.443-.016-.591a.858.858,0,0,1,.543.186c.119.3-.127.413-.39.461" transform="translate(-26.43 -11.328)" fill="rgba(112,82,37,0.69)"/>
          <path id="Path_9873" data-name="Path 9873" d="M69.274,37.261c.495-.978,1.22-.648,1.941-.342a1.335,1.335,0,0,1,.916,1.578.328.328,0,0,1-.337.237c-.953-.083-1.846.357-2.792.313-.636-.7-.526-1.418.272-1.787" transform="translate(-25.578 -13.652)" fill="#fbf9f9"/>
          <path id="Path_9874" data-name="Path 9874" d="M120.446,112.3a1.264,1.264,0,0,1-.112,1.735,1.294,1.294,0,0,1-1.642.01,1.244,1.244,0,0,1-.1-1.781c.381.211.438.636.642.965.072.116.093.334.273.287.115-.031.218-.185.285-.307.182-.33.18-.786.651-.909" transform="translate(-44.105 -41.863)" fill="#f6f5f4"/>
          <path id="Path_9875" data-name="Path 9875" d="M94.944,45.733c-.083-.425-.43-.649-.7-.929a1.783,1.783,0,0,0-.137-.253c-.105-.137-.264-.295-.119-.446a.344.344,0,0,1,.527.031c.324.425.524.127.747-.1.61-.072.717.255.6.758a.745.745,0,0,1-.258.464,2,2,0,0,1-.585.409l-.071.063" transform="translate(-35.027 -16.407)" fill="rgba(112,82,37,0.69)"/>
          <path id="Path_9876" data-name="Path 9876" d="M96.651,44.608c0-.415-.286-.6-.6-.758a.557.557,0,0,1,.922-.191c.415.406-.192.631-.322.949" transform="translate(-35.819 -16.218)" fill="rgba(112,82,37,0.69)"/>
          <path id="Path_9877" data-name="Path 9877" d="M95.662,46.422c.052-.341.321-.371.585-.408,0,.14-.009.28-.014.42a.517.517,0,0,1-.571-.011" transform="translate(-35.674 -17.159)" fill="rgba(112,82,37,0.69)"/>
          <path id="Path_9878" data-name="Path 9878" d="M140.047,112.321c.428.726.389,1.282-.123,1.728a1.245,1.245,0,0,1-1.793-1.718c.652.154.507.919.944,1.262.43-.362.384-1.064.972-1.273" transform="translate(-51.413 -41.886)" fill="#f3f3f2"/>
          <path id="Path_9879" data-name="Path 9879" d="M69.933,32.852c-.262-.073-.594-.148-.45-.5a.493.493,0,0,1,.712-.2c.4.271-.025.483-.14.714-.045.074-.085.072-.121-.007" transform="translate(-25.898 -11.959)" fill="#e9989c"/>
          <path id="Path_9880" data-name="Path 9880" d="M69.944,33.318l.122.007a.337.337,0,0,1,.014.073c-.031.462.752.055.547.4-.142.235-.721.207-1.148.307.054-.4.658-.341.465-.783" transform="translate(-25.91 -12.425)" fill="rgba(112,82,37,0.69)"/>
          <path id="Path_9881" data-name="Path 9881" d="M42.621,120.606q.248-3.966.5-7.931a.727.727,0,0,1,.761-.588c.2-.01.4-.014.6-.014q8.279,0,16.559,0c.438,0,.916-.094,1.245.336q.256,4.025.511,8.051c.039.6-.213.8-.837.794-2.552-.035-5.1-.045-7.656,0-3.44.056-6.868.358-10.3.584-1.289.084-1.292.047-1.381-1.233" transform="translate(-15.894 -41.792)" fill="#f6f1ed"/>
          <path id="Path_9882" data-name="Path 9882" d="M97.991,121.087a52.965,52.965,0,0,1,.517-6.331c.058-.8.163-1.588.246-2.381a2.012,2.012,0,0,1,2.362.119q.666,3.738,1.329,7.477a2.723,2.723,0,0,1,.028,1.11,3.366,3.366,0,0,1-1.452.774,5.469,5.469,0,0,1-2.779-.144c-.211-.157-.019-.477-.252-.624" transform="translate(-36.537 -41.785)" fill="#f6f1ed"/>
          <path id="Path_9883" data-name="Path 9883" d="M98.4,127.416a8.182,8.182,0,0,1,2.779.144c-.74.293-1.489.565-2.216.889-.434.194-.577.113-.531-.361a4.411,4.411,0,0,0-.032-.672" transform="translate(-36.695 -47.49)" fill="#ece0d0"/>
          <path id="Path_9884" data-name="Path 9884" d="M101.577,111.9a8.724,8.724,0,0,0-2.362-.119q0-.656.006-1.311a10.855,10.855,0,0,1,2.077.1l.279,1.329" transform="translate(-36.999 -41.191)" fill="#705225"/>
          <path id="Path_9885" data-name="Path 9885" d="M122.854,112.718c.186-.243.455-.166.695-.167q3.6-.007,7.2,0c.278,0,.63-.109.731.32a1.827,1.827,0,0,0,.393,1.515c-.129.389-.438.315-.738.3-1.613-.064-3.227-.13-4.841-.174a34.717,34.717,0,0,1-3.484.1c-.15-.019-.293.009-.4-.122a2.128,2.128,0,0,0,.441-1.782" transform="translate(-45.65 -41.968)" fill="#f6f1ed"/>
          <path id="Path_9886" data-name="Path 9886" d="M62.578,110.646c-1.425-.013-2.851-.036-4.276-.038q-6.98-.007-13.96,0c-.338,0-.716-.1-.929.3l.245-3.423c-.077.73.265.884.96.88,5.545-.03,11.089-.017,16.633-.017,1.035,0,1.035,0,1.094-1.018.256,1.093.014,2.221.232,3.316" transform="translate(-16.19 -40.025)" fill="#705225"/>
          <path id="Path_9887" data-name="Path 9887" d="M20.147,94.106c-.575,0-1.15,0-1.725,0-.153,0-.331-.028-.327-.219s.181-.216.334-.216q1.8-.006,3.6,0c.125,0,.265.031.284.185.025.209-.14.245-.29.247-.625.007-1.25,0-1.875,0v0" transform="translate(-6.748 -34.929)" fill="#f6f1ed"/>
          <path id="Path_9888" data-name="Path 9888" d="M18.139,101.1a1.3,1.3,0,0,1,.877-.261c.926,0,1.851-.006,2.776,0,.2,0,.528-.091.529.236,0,.269-.3.206-.483.207q-1.65.011-3.3,0c-.135,0-.309.049-.4-.186" transform="translate(-6.764 -37.603)" fill="#f6f1ed"/>
          <path id="Path_9889" data-name="Path 9889" d="M104.335,79.586h-3.49l-.006-.143h3.492c0,.048,0,.1,0,.143" transform="translate(-37.605 -29.625)" fill="#ccbb98"/>
          <path id="Path_9890" data-name="Path 9890" d="M95.253,79.586H92.213l-.006-.145H95.25c0,.048,0,.1,0,.145" transform="translate(-34.385 -29.625)" fill="#d0bf9b"/>
          <path id="Path_9891" data-name="Path 9891" d="M90.385,24.55a4.515,4.515,0,0,0-1.893.78c.04-.912.909-1.279,1.893-.78" transform="translate(-33 -9.072)" fill="#705225"/>
          <path id="Path_9892" data-name="Path 9892" d="M83.486,26.451a2.644,2.644,0,0,0-1.029.4c.232-.9.885-.756,1.48-.736.168.542-.324.191-.451.333" transform="translate(-30.749 -9.732)" fill="#705225"/>
          <path id="Path_9893" data-name="Path 9893" d="M84.16,30.072c-.433-.038-.327-.362-.278-.6a.579.579,0,0,1,.527-.46c.527-.065.679.351.83.7.158.368.14.724-.374.818-.258-.12-.213-.7-.7-.464" transform="translate(-31.263 -10.817)" fill="#f1ebe7"/>
          <path id="Path_9894" data-name="Path 9894" d="M84.354,30.41c.025-.213.014-.581.29-.478a.693.693,0,0,1,.416.941c-.4.1-.534-.212-.705-.463" transform="translate(-31.457 -11.156)" fill="#4b545b"/>
          <path id="Path_9895" data-name="Path 9895" d="M89.848,29.031a1.664,1.664,0,0,1-1.624-1.612,1.624,1.624,0,0,1,3.248.078,1.647,1.647,0,0,1-1.624,1.534" transform="translate(-32.9 -9.64)" fill="#f7c1a1"/>
          <path id="Path_9896" data-name="Path 9896" d="M21.34,47.323V44.287c.327-.021.3.162.3.3.008.747,0,1.5.014,2.244.005.256-.038.443-.327.482Z" transform="translate(-7.954 -16.515)" fill="rgba(112,82,37,0.5)"/>
          <path id="Path_9897" data-name="Path 9897" d="M19.746,49.112c-.056.12.043.347-.18.351a14.465,14.465,0,0,1-2.483-.125,10.516,10.516,0,0,1,2.673-.214l-.009-.011" transform="translate(-6.371 -18.315)" fill="rgba(112,82,37,0.5)"/>
          <path id="Path_9907" data-name="Path 9907" d="M89.7,28.53c-.47-.119-.328-.457-.243-.743.058-.2.108-.47.418-.424.29.043.656.063.759.372a1.384,1.384,0,0,1-.114,1.407c-.186.212-.1-.079-.122-.154-.242-.139-.2-.712-.7-.458" transform="translate(-33.328 -10.202)" fill="#efebe8"/>
          <path id="Path_9908" data-name="Path 9908" d="M89.9,28.9c-.014-.246-.006-.643.275-.542a.705.705,0,0,1,.424,1c-.367.053-.534-.2-.7-.457" transform="translate(-33.523 -10.567)" fill="#4b5459"/>
        </g>
      </g>
      <g id="Group_862" data-name="Group 862" transform="translate(397.37 -1448.294) rotate(14)">
        <g id="Group_797" data-name="Group 797" clip-path="url(#clip-path-2)">
          <path id="Path_8627" data-name="Path 8627" d="M2.08,1.593c-.186.14-.292-.006-.388-.124-.117-.143-.2-.152-.325,0a4.713,4.713,0,0,1-.437.44c-.088.081-.176.258-.318.125s.025-.23.108-.318c.159-.168.321-.335.492-.49.1-.089.089-.14,0-.231C.976.754.982.749.737.993c-.117.117-.23.239-.352.349C.29,1.428.2,1.616.049,1.467s.043-.229.125-.317A6.007,6.007,0,0,1,.631.694c.127-.11.12-.182,0-.289S.339.2.487,0H.636a3.273,3.273,0,0,1,.652.6,5.714,5.714,0,0,1,.792.844Z" transform="translate(4.294 0)" fill="rgba(112,82,37,0.85)"/>
          <path id="Path_8628" data-name="Path 8628" d="M3.537.509C3.454.439,3.375.379,3.3.309S3.125.148,3.241.04c.094-.087.18-.017.256.058q.974.977,1.95,1.953c.075.075.138.163.043.255s-.179.008-.252-.06a.691.691,0,0,1-.1-.106c-.094-.135-.164-.1-.265.005-.828.837-1.665,1.664-2.49,2.5a.44.44,0,0,1-.547.147.893.893,0,0,0-1.239.351,2.091,2.091,0,0,1-.3.3c-.074.07-.155.143-.254.036s-.017-.171.046-.236c.232-.237.464-.474.705-.7a.294.294,0,0,0,.086-.329C.628,3.2.53,3.552,1.261,2.8c.7-.717,1.417-1.42,2.126-2.13.045-.045.086-.094.15-.165" transform="translate(0 0.835)" fill="rgba(112,82,37,0.85)"/>
          <path id="Path_8629" data-name="Path 8629" d="M.437,2.27C.476,2.226.5,2.2.518,2.179c.258-.265.258-.265.539-.012.074.067.152.158.252.056s.03-.18-.046-.255L1,1.7c.335-.362.335-.362.673-.027.035.035.07.071.106.105.076.071.166.1.237.013s.022-.155-.04-.221l-.415-.436a.555.555,0,0,0,.052-.057c.134-.183.266-.246.422-.016.05.074.139.133.234.057s.048-.16-.011-.236S2.04.74,2.065.652C2.1.547,2.223.47,2.319.368c.1.107.19.206.284.3.07.07.154.107.238.024s.028-.153-.03-.217A1.688,1.688,0,0,0,2.635.3C2.542.221,2.524.166,2.622.063s.159-.051.233.024c.28.283.559.568.846.844.087.084.085.129,0,.215Q2.429,2.409,1.167,3.68a.422.422,0,0,1-.034.036,1.155,1.155,0,0,1-.955-.283c-.06-.2-.11-.4-.164-.6a.172.172,0,0,1,.029-.183c.119-.13.22-.249.371-.028a1.686,1.686,0,0,0,.281.281.133.133,0,0,0,.2.014A.135.135,0,0,0,.888,2.7C.743,2.556.59,2.416.437,2.27" transform="translate(0.995 1.611)" fill="#ece0d0"/>
        </g>
      </g>
    </g>
    <g id="Group_829" data-name="Group 829" transform="translate(53.12 350.085)">
      <g id="Group_828" data-name="Group 828" transform="translate(0 0)" clip-path="url(#clip-path-3)">
        <path id="Path_9145" data-name="Path 9145" d="M7.217,4.509,5.688,4.5c-.314,0-.628,0-.942,0-.1,0-.118-.025-.126-.123a.6.6,0,0,1,.336-.644.331.331,0,0,0,.118-.489.864.864,0,0,1-.121-.461.284.284,0,0,1,.31-.313c.456-.006.912-.009,1.369,0,.242,0,.33.1.332.347a.794.794,0,0,1-.1.394c-.137.252-.107.389.13.54a.59.59,0,0,1,.307.573c0,.057-.017.116.081.115.386,0,.771,0,1.2,0-.21-.192-.392-.359-.575-.523a.358.358,0,0,1-.154-.255c0-.046-.014-.076-.072-.053a.145.145,0,0,1-.085.007c-.1-.025-.068-.153-.124-.189s-.169,0-.2-.089a.133.133,0,0,0-.112-.111c-.114-.032-.111-.132-.1-.23a1.683,1.683,0,0,0,.054-.58A.336.336,0,0,0,7.092,2.2c-.161-.122-.317-.25-.486-.364.056.13.176.2.267.293.058.06.122.114.181.172a.063.063,0,0,1,.019.079c-.019.032-.05.023-.079.02a.653.653,0,0,1-.509-.507c-.005-.06-.047-.083-.08-.114Q5.545.951,4.684.129C4.655.1,4.6.082,4.632,0l.419.363L6.544,1.669c.029.025.064.066.094.064.262-.017.39.163.5.348a.49.49,0,0,0,.573.271.4.4,0,0,1,.384.119q1.665,1.511,3.337,3.015c.026.023.05.047.077.069.168.135.206.13.327-.048a1.336,1.336,0,0,1,.224-.271c.06-.051.126-.086.2-.028a.152.152,0,0,1,.025.211.553.553,0,0,1-.4.289.246.246,0,0,0-.184.122c-.142.216-.289.428-.444.657a1.99,1.99,0,0,1,.892.456c.084.065.141.08.229-.01a1.2,1.2,0,0,1,.53-.33.243.243,0,0,1,.294.07.212.212,0,0,1-.033.27,2.171,2.171,0,0,1-.6.636,1.131,1.131,0,0,0,.6.159c1.123.048,2.246.014,3.369.025a.467.467,0,0,1,.188.014c0,.065-.053.049-.088.049-1.192-.013-2.384.031-3.575-.03a.982.982,0,0,1-.489-.134.108.108,0,0,0-.13,0,1.1,1.1,0,0,1-.2.086c-.2.06-.3-.04-.259-.246a.776.776,0,0,1,.183-.346c.05-.059.062-.088-.017-.14a2.735,2.735,0,0,0-.773-.438.211.211,0,0,0-.274.082,3.613,3.613,0,0,1-.287.334.42.42,0,0,1-.177.126A.154.154,0,0,1,10.48,7.1c-.05-.042-.037-.1-.023-.15a.648.648,0,0,1,.591-.471.226.226,0,0,0,.2-.112c.146-.214.294-.426.446-.645a1.142,1.142,0,0,1-.457-.33Q9.868,4.157,8.5,2.914a1.175,1.175,0,0,1-.473.565.2.2,0,0,0-.016.348c.2.188.406.369.608.554.029.027.092.043.064.1-.02.039-.071.019-.108.019-.378,0-.755,0-1.133,0-.106,0-.139.019-.138.133.006.779,0,1.558,0,2.338a1.337,1.337,0,0,1-.051.391.384.384,0,0,1-.363.291.589.589,0,0,0-.329.1.485.485,0,0,1-.294.074H.112c-.036,0-.079.016-.113-.041a.291.291,0,0,1,.176-.021H6.223a.4.4,0,0,0,.307-.1H6.239c-.363,0-.726,0-1.088-.009a.462.462,0,0,1-.5-.5c-.011-.725-.006-1.45-.01-2.175,0-.082.032-.093.1-.093q1.015,0,2.031,0c.1,0,.113.035.112.12,0,.235,0,.47,0,.705a.276.276,0,0,1,.041.182q0,.588,0,1.176a1.071,1.071,0,0,1-.049.318c-.018.049-.043.1-.063.146a.286.286,0,0,0,.345-.239c.014-.061.013-.125.021-.188-.007-.846.052-1.691.039-2.537a.121.121,0,0,0-.012-.057" transform="translate(0.001 0)" fill="#705225"/>
        <path id="Path_9146" data-name="Path 9146" d="M71.82,36.638c.372,0,.709,0,1.046,0,.094,0,.137.072.194.119.265.223.524.454.787.68.064.055.077.1.011.166-.122.126-.231.264-.346.4a.109.109,0,0,1-.177.01L71.924,36.75c-.029-.026-.053-.056-.1-.112" transform="translate(-62.995 -32.135)" fill="rgba(112,82,37,0.85)"/>
        <path id="Path_9147" data-name="Path 9147" d="M55.66,39.6a1.54,1.54,0,0,0,.052-.4c0-.434,0-.869,0-1.3.319,0,.319,0,.32-.321q0-.439,0-.877c.043.021.022.06.022.09q0,1.205,0,2.411a.217.217,0,0,1-.022.142.343.343,0,0,1-.231.268c-.051.015-.1.039-.148-.007" transform="translate(-48.82 -32.185)" fill="rgba(112,82,37,0.5)"/>
        <path id="Path_9148" data-name="Path 9148" d="M41.992,40.312c.047.039.022.091.022.136q0,.988,0,1.976a.758.758,0,0,1-.08.379.4.4,0,0,1-.131.017c-.4,0-.795,0-1.192,0a.435.435,0,0,1-.489-.479c-.007-.377-.005-.755,0-1.132,0-.165.027-.187.19-.186h1.442c.181,0,.189-.011.191-.192,0-.118,0-.235,0-.353a.2.2,0,0,1,.047-.164" transform="translate(-35.187 -35.358)" fill="rgba(112,82,37,0.69)"/>
        <path id="Path_9149" data-name="Path 9149" d="M40.416,40.236c0,.206-.008.412,0,.617,0,.113-.036.14-.144.139-.529,0-1.059,0-1.589-.006-.084,0-.1.021-.1.093,0,.407,0,.813,0,1.22a.377.377,0,0,0,.408.4c.4,0,.8,0,1.206,0,.052,0,.109-.019.153.029-.028.118-.1.158-.222.156-.422-.007-.843,0-1.265,0-.4,0-.547-.153-.548-.554,0-.661,0-1.323,0-1.984,0-.057-.017-.116.081-.115.671.006,1.343.008,2.014.011" transform="translate(-33.611 -35.283)" fill="#fefffe"/>
        <path id="Path_9150" data-name="Path 9150" d="M40.135,21.624a.493.493,0,0,0,.261.283.517.517,0,0,1,.266.515c0,.07-.015.107-.1.107q-1.19,0-2.38,0c-.042,0-.077,0-.08-.058a.516.516,0,0,1,.2-.517c.033-.021.063-.048.1-.065a.4.4,0,0,0,.144-.588.786.786,0,0,1-.1-.463.213.213,0,0,1,.233-.211c.485,0,.97,0,1.454,0-.036.093-.12.066-.186.067-.338,0-.675,0-1.013,0-.27,0-.366.167-.232.405a.7.7,0,0,1,.116.313c0,.141.078.167.2.165.308,0,.616,0,.925,0a.274.274,0,0,1,.2.044" transform="translate(-33.42 -18.091)" fill="#fefefe"/>
        <path id="Path_9151" data-name="Path 9151" d="M43.6,21.648c-.417,0-.833,0-1.25.007-.1,0-.117-.039-.113-.123a.58.58,0,0,0-.126-.395.349.349,0,0,1-.023-.351c.046-.116.159-.111.264-.111q.544,0,1.088,0c.052,0,.108.019.155-.022a.191.191,0,0,1,.18.191.719.719,0,0,1-.106.5.546.546,0,0,0-.07.305" transform="translate(-36.886 -18.115)" fill="rgba(112,82,37,0.69)"/>
        <path id="Path_9152" data-name="Path 9152" d="M58.824,18.781a.543.543,0,0,0,.51.1.23.23,0,0,1,.247.089,1.016,1.016,0,0,0-.515.477,1.253,1.253,0,0,0-.074.126.11.11,0,0,1-.13.07c-.064-.017-.074-.074-.066-.131.011-.077.031-.153.042-.23a.906.906,0,0,0-.015-.5" transform="translate(-51.569 -16.473)" fill="#f9f8f8"/>
        <path id="Path_9153" data-name="Path 9153" d="M100.408,54.475a1.472,1.472,0,0,1,.587-.387c.08-.025.171-.032.223.057s0,.141-.048.2c-.013.017-.024.061-.061.02-.087-.1-.18-.041-.266,0a.5.5,0,0,0-.17.111c-.086.1-.165.078-.265,0" transform="translate(-88.07 -47.428)" fill="#f5f5f4"/>
        <path id="Path_9154" data-name="Path 9154" d="M97.957,58.3a.752.752,0,0,1,.226-.381c.05-.055.106.018.157.034.067.021.015.062,0,.091a.238.238,0,0,0-.019.211c.07.118,0,.148-.086.18-.036.014-.072.028-.109.039-.133.037-.181,0-.171-.174" transform="translate(-85.919 -50.784)" fill="#f7f6f6"/>
        <path id="Path_9155" data-name="Path 9155" d="M86.1,53.28a3.022,3.022,0,0,1-.411.462c-.049.042-.112.089-.168.039s0-.11.025-.16a.555.555,0,0,1,.554-.341" transform="translate(-74.994 -46.732)" fill="#f4f3f3"/>
        <path id="Path_9156" data-name="Path 9156" d="M101.8,58.159a1.333,1.333,0,0,1-.359.361c-.051.041-.075.018-.1-.03a.187.187,0,0,1,.165-.269.786.786,0,0,0,.145-.012,1.287,1.287,0,0,0,.147-.05" transform="translate(-88.878 -51.012)" fill="#f2f1f0"/>
        <path id="Path_9157" data-name="Path 9157" d="M96.118,43.062a1.8,1.8,0,0,1,.276-.365c.033-.03.071-.08.125-.042s.04.091.011.142a.567.567,0,0,1-.412.265" transform="translate(-84.307 -37.401)" fill="#efeeee"/>
        <path id="Path_9158" data-name="Path 9158" d="M55.068,58.467a.43.43,0,0,0,.379-.261c-.017.328-.154.459-.462.431l.083-.17" transform="translate(-48.228 -51.054)" fill="#eeeeef"/>
        <path id="Path_9159" data-name="Path 9159" d="M62.692,22.905a1.337,1.337,0,0,1,.412-.526c.02-.015.052-.04.079-.017s0,.065-.016.088a1.268,1.268,0,0,1-.474.455" transform="translate(-54.988 -19.606)" fill="#ecebea"/>
        <path id="Path_9160" data-name="Path 9160" d="M61.577,20.855a1.013,1.013,0,0,1-.514.512,1.214,1.214,0,0,1,.514-.512" transform="translate(-53.559 -18.292)" fill="#ecebea"/>
        <path id="Path_9161" data-name="Path 9161" d="M60.823,24.2c-.044.112-.114.2-.151.308-.024.07-.08.078-.143.073-.039,0-.071-.025-.071-.062a.138.138,0,0,1,.074-.131c.1-.057.194-.125.291-.188" transform="translate(-53.03 -21.23)" fill="#ebeae9"/>
        <path id="Path_9162" data-name="Path 9162" d="M65.387,23.915a.922.922,0,0,1-.42.473.878.878,0,0,1,.42-.473" transform="translate(-56.984 -20.976)" fill="#eae9e8"/>
        <path id="Path_9163" data-name="Path 9163" d="M62.638,26.131c-.036.074-.074.147-.107.223a.153.153,0,0,1-.155.087c-.037,0-.055-.035-.062-.072-.014-.072.026-.1.085-.133a1.986,1.986,0,0,0,.2-.139c.029-.007.043,0,.034.034" transform="translate(-54.654 -22.889)" fill="#e7e6e5"/>
        <path id="Path_9164" data-name="Path 9164" d="M102.529,56.715a.576.576,0,0,1,.286-.188c.038-.012.08-.023.1.027s-.015.06-.047.078a.493.493,0,0,1-.337.082" transform="translate(-89.93 -49.572)" fill="#e7e6e6"/>
        <path id="Path_9165" data-name="Path 9165" d="M53.733,16.018c-.16-.088-.327-.168-.365-.387l.391.359-.025.028" transform="translate(-46.81 -13.71)" fill="#d9d8d8"/>
        <path id="Path_9166" data-name="Path 9166" d="M54.97,15.025l-.3-.249a.359.359,0,0,1,.3.249" transform="translate(-47.949 -12.96)" fill="#c9c8c8"/>
        <path id="Path_9167" data-name="Path 9167" d="M65.335,20.674l.137.127a.557.557,0,0,0-.193.094c.014-.08.076-.141.056-.221" transform="translate(-57.257 -18.134)" fill="#dddbdb"/>
        <path id="Path_9168" data-name="Path 9168" d="M66.823,22.442l.076-.178.121.108-.162.1c-.029.006-.044,0-.034-.034" transform="translate(-58.61 -19.528)" fill="#e2e1e0"/>
        <path id="Path_9169" data-name="Path 9169" d="M64.955,23.709l.034.034-.265.295L64.691,24l.264-.3" transform="translate(-56.742 -20.796)" fill="#8c8b8b"/>
        <path id="Path_9170" data-name="Path 9170" d="M49.948,11.58a.882.882,0,0,1-.235-.227,1.284,1.284,0,0,1,.281.227.042.042,0,0,1-.046,0" transform="translate(-43.604 -9.958)" fill="#8d8c8c"/>
        <path id="Path_9171" data-name="Path 9171" d="M51.625,13.2h.046a.742.742,0,0,1,.19.183c-.123-.035-.17-.121-.236-.183" transform="translate(-45.281 -11.58)" fill="#cecdcc"/>
      </g>
    </g>
  </g>
</svg>
