<svg id="Group_1089" data-name="Group 1089" xmlns="http://www.w3.org/2000/svg" xmlns:xlink="http://www.w3.org/1999/xlink" width="62.344" height="62.767" viewBox="0 0 62.344 62.767">
  <defs>
    <clipPath id="clip-path">
      <rect id="Rectangle_1851" data-name="Rectangle 1851" width="62.344" height="62.767" fill="none"/>
    </clipPath>
  </defs>
  <g id="Group_954" data-name="Group 954" clip-path="url(#clip-path)">
    <path id="Path_11306" data-name="Path 11306" d="M27.552,82.795h-1.46c-2.343-1.336-3.041-2.513-1.647-4.684,2.534-3.95,2.121-6.833-.816-10.69-6.643-8.722-5.9-23.306.541-31.688a12.677,12.677,0,0,1,2.137-2.324c.358-.355.592-.815.964-1.158,4.509-4.535,9.8-7.427,16.261-7.881a6.285,6.285,0,0,0,3.561-.424c3.949.368,7.893.74,11.538,2.531,2.48,1.218,4.962,2.419,6.6,4.814,1.374,3.321,3.931,5.962,5.193,9.366,3.848,10.377,2.394,19.857-4.623,28.4a25.284,25.284,0,0,1-20.882,9.578,16.877,16.877,0,0,0-5.306.388,8.041,8.041,0,0,1-4.315-1.276c-1.51-.843-2.472-.5-3.357.942-1.074,1.753-2.032,3.71-4.385,4.109" transform="translate(-15.874 -20.028)" fill="#d7d2b5"/>
    <path id="Path_11307" data-name="Path 11307" d="M170.314,122.752c-2.113-1.41-3.089-3.729-4.4-5.752-.826-1.275-1.425-1.494-2.837-.765a26.078,26.078,0,0,1-19.948,1.966c1.636-.7,3.358-.357,5.029-.327a27.173,27.173,0,0,0,21.959-43.151c-.667-.926-1.756-1.646-1.7-3l1.446,1.046a1.091,1.091,0,0,1,.825.862c2.994,3.784,5.507,7.831,6.414,12.673q2.8,14.933-7.906,25.682c-1.312,3.84-.842,5.137,2.632,7.495.48.326,1.259.535,1.015,1.426-.045,1.022-1.052,1.219-1.557,1.847Z" transform="translate(-119.709 -59.985)" fill="#d7d2b5"/>
    <path id="Path_11308" data-name="Path 11308" d="M0,20.1c1.422-2.484,2.38-5.267,5.18-6.749C8.6,11.544,12,11.075,15.564,12.81c.419,1.364-.535,2.13-1.314,2.925q-4.175,4.26-8.4,8.466c-.861.852-1.743,1.876-3.123,1.453C1.192,25.184.789,23.864.624,22.4A2.561,2.561,0,0,0,0,20.6Z" transform="translate(0 -9.807)" fill="#d7d2b5"/>
    <path id="Path_11309" data-name="Path 11309" d="M0,26.134c1.521.548,1.232,2.157,1.842,3.237.7,1.239,1.313,1.752,2.526.481,3.7-3.87,7.458-7.674,11.2-11.5,2.069.463,1.991,1.282.573,2.629-1.928,1.831-3.714,3.814-5.561,5.732-.075.5-.443.715-.863.875-2.021,1.981-4.142,3.871-6.032,5.972-1.446,1.607-2.132,1.16-2.767-.564C.665,32.32.308,31.689,0,31.038v-4.9" transform="translate(0 -15.346)" fill="#d7d2b5"/>
    <path id="Path_11310" data-name="Path 11310" d="M169.115.4a3.111,3.111,0,0,1,.061-.4h6.812q.014.217.043.432A5.588,5.588,0,0,1,169.115.4" transform="translate(-141.441)" fill="#c0e0d0"/>
    <path id="Path_11311" data-name="Path 11311" d="M102.013,87.137a21.068,21.068,0,0,1-20.968,21.435A21.334,21.334,0,0,1,80.869,65.9a20.983,20.983,0,0,1,21.144,21.232" transform="translate(-49.887 -55.12)" fill="#f3f1eb"/>
    <path id="Path_11312" data-name="Path 11312" d="M164.758,2.42l6.917.036c1.122,1.824.831,2.675-1.068,2.962-.919.139-1.995-.159-2.383,1.107-.905,1.272-2.246.8-3.452.878.218-.1.433-.21.656-.3.611-.248,1.7.21,1.752-.829.061-1.149-1.019-.7-1.643-.839-1.9-.423-2.117-1.247-.78-3.014" transform="translate(-137.085 -2.024)" fill="#d7d2b5"/>
    <path id="Path_11313" data-name="Path 11313" d="M59.352,70.317l.863-.875,1.278,1.444-.661.856-1.48-1.426" transform="translate(-49.64 -58.079)" fill="rgba(112,82,37,0.69)"/>
    <path id="Path_11314" data-name="Path 11314" d="M284.389,12.053c4.865-2.811,14.195-.209,15.141,7.381a32.663,32.663,0,0,1-.441,3.347c-.63,2.119-2.474,2.9-4.115,1.453-3.6-3.166-6.88-6.675-10.17-10.165a1.676,1.676,0,0,1-.414-2.015" transform="translate(-237.698 -9.159)" fill="#d7d2b5"/>
    <path id="Path_11315" data-name="Path 11315" d="M277.091,17.688c3.457,4.078,7.432,7.645,11.145,11.471,1.23,1.267,2.068.823,2.625-.743a9.651,9.651,0,0,1,1.372-3.347c.97,2.593.449,5.058-.63,7.476-.61,1.368-1.282,1.63-2.44.418-2-2.089-4.125-4.051-6.2-6.067a.927.927,0,0,1-.866-.871c-1.883-1.976-3.719-4-5.663-5.912-1.357-1.334-1.379-2.115.657-2.425" transform="translate(-230.4 -14.794)" fill="#d7d2b5"/>
    <path id="Path_11316" data-name="Path 11316" d="M294.54,326.688c-1.746-.745-3.427-1.388-4.524-3.261-1.9-3.245-2.04-3.161.877-5.66,1.062,2.16,2.145,4.31,3.175,6.485.357.754,1.1,1.473.472,2.436" transform="translate(-241.405 -265.768)" fill="#d7d1b5"/>
    <path id="Path_11317" data-name="Path 11317" d="M308.04,68.637l.866.872-1.584,1.541-.825-.862,1.543-1.551" transform="translate(-256.342 -57.405)" fill="rgba(112,82,37,0.69)"/>
    <path id="Path_11318" data-name="Path 11318" d="M174.645,122.952c.679,1.41.458,2.913.464,4.373.027,6.433.689,7.088,7.182,7.129,1,.006,2.083-.339,3.419.636-2.162.661-4.047.278-5.876.367-1.276.062-2.461-.062-3.534,1.09-1.031,1.107-2.426.809-3.424-.326-.922-1.048-1.1-2.47.029-3.262,1.374-.962,1.136-2.159,1.206-3.419.122-2.19-.31-4.424.534-6.589" transform="translate(-143.954 -102.832)" fill="rgba(112,82,37,0.69)"/>
    <path id="Path_11319" data-name="Path 11319" d="M109.56,261.836a4.851,4.851,0,0,1,2.427-2.61c-.318,1.59-.318,1.59-2.427,2.61" transform="translate(-91.632 -216.807)" fill="rgba(112,82,37,0.69)"/>
    <path id="Path_11320" data-name="Path 11320" d="M109.078,116.44a4.04,4.04,0,0,1,2.791,2.457c-1.459-.119-1.991-.933-2.791-2.457" transform="translate(-91.229 -97.386)" fill="rgba(112,82,37,0.69)"/>
    <path id="Path_11321" data-name="Path 11321" d="M187.631,83.909c.9,1.379.922,2.176.288,3.261-.667-1-.5-1.809-.288-3.261" transform="translate(-156.771 -70.178)" fill="rgba(112,82,37,0.69)"/>
    <path id="Path_11322" data-name="Path 11322" d="M257.691,117.742a2.661,2.661,0,0,1-1.81,2.122c.2-1.27.2-1.27,1.81-2.122" transform="translate(-214.009 -98.475)" fill="rgba(112,82,37,0.69)"/>
    <path id="Path_11323" data-name="Path 11323" d="M254.794,263.921c-1.665-.278-2.074-1.042-2.794-2.152,1.612.158,1.958.991,2.794,2.152" transform="translate(-210.763 -218.933)" fill="rgba(112,82,37,0.69)"/>
    <path id="Path_11324" data-name="Path 11324" d="M187.766,287.687c.858,1.224.59,2.018.292,3.2-.949-1.081-.64-1.916-.292-3.2" transform="translate(-156.756 -240.61)" fill="rgba(112,82,37,0.69)"/>
    <path id="Path_11325" data-name="Path 11325" d="M182.174,186.433c-.2.971-.737,1.572-1.682,1.424a1.457,1.457,0,0,1-1.328-1.732,1.39,1.39,0,0,1,1.541-1.253c.992.034,1.4.677,1.469,1.561" transform="translate(-149.829 -154.618)" fill="#f3f1eb"/>
  </g>
</svg>
