<svg id="Alert" xmlns="http://www.w3.org/2000/svg" width="24" height="24" viewBox="0 0 24 24">
  <rect id="Rectangle_479" data-name="Rectangle 479" width="24" height="24" fill="none"/>
  <path id="Path_1" data-name="Path 1" d="M22.507,21H14.994a3.005,3.005,0,0,1-6.01,0H1.471A1.443,1.443,0,0,1,.119,19.95,1.6,1.6,0,0,1,.57,18.3a6.035,6.035,0,0,0,2.4-4.8V9A9.015,9.015,0,0,1,21,9v4.5a6.035,6.035,0,0,0,2.4,4.8,1.419,1.419,0,0,1,.451,1.65A1.443,1.443,0,0,1,22.507,21Z" transform="translate(-0.063)" fill="#8c6e2f" fill-rule="evenodd"/>
</svg>
