<svg xmlns="http://www.w3.org/2000/svg" xmlns:xlink="http://www.w3.org/1999/xlink" width="24" height="24" viewBox="0 0 24 24">
  <defs>
    <clipPath id="clip-path">
      <rect id="Rectangle_1869" data-name="Rectangle 1869" width="24" height="24" fill="rgba(180,166,128,0.6)"/>
    </clipPath>
  </defs>
  <g id="Group_1023" data-name="Group 1023" clip-path="url(#clip-path)">
    <path id="Path_14877" data-name="Path 14877" d="M.9,0H17.987c.917.212.881.808.886,1.368.02,2.31.008,4.62.008,6.93,0,3.278.012,6.556-.005,9.834-.009,1.642-.512,2.038-2.648,2.047q-6.8.027-13.592,0C.6,20.169.024,19.737.017,18.18-.009,12.623,0,7.067.012,1.51.014.907.041.3.9,0" transform="translate(0)" fill="rgba(180,166,128,0.6)"/>
    <path id="Path_14878" data-name="Path 14878" d="M46.7,102.45q-2.585,0-5.17,0c-.553,0-1.09-.056-1.122-.608-.033-.568.443-.756,1.084-.756q5.169,0,10.339,0c.61,0,1.079.223,1.09.678.014.54-.536.7-1.172.692-1.683-.008-3.366,0-5.049,0" transform="translate(-37.14 -94.712)" fill="rgba(237,235,222,0.6)"/>
    <path id="Path_14879" data-name="Path 14879" d="M46.561,147.051H41.512c-.617,0-1.165-.1-1.127-.7.032-.511.5-.666,1.083-.666q5.17,0,10.339,0c.61,0,1.08.221,1.093.676.016.541-.532.7-1.169.695-1.723-.008-3.446,0-5.169,0" transform="translate(-37.114 -136.502)" fill="rgba(237,235,222,0.6)"/>
    <path id="Path_14880" data-name="Path 14880" d="M46.678,190.22c1.643,0,3.286.012,4.929-.006.672-.007,1.3.11,1.331.68.029.6-.624.7-1.285.7q-4.989-.011-9.979,0c-.632,0-1.292-.024-1.244-.7.045-.632.68-.672,1.319-.67,1.643,0,3.286,0,4.929,0" transform="translate(-37.156 -178.227)" fill="rgba(237,235,222,0.6)"/>
    <path id="Path_14881" data-name="Path 14881" d="M43.769,57.808c-.8,0-1.6,0-2.4,0-.586,0-1.044-.148-1.024-.683.017-.455.405-.669.943-.674q2.575-.022,5.151,0c.594.006.993.242.961.75-.03.486-.475.6-1,.606-.878.005-1.757,0-2.635,0" transform="translate(-37.084 -52.883)" fill="rgba(237,235,222,0.6)"/>
    <path id="Path_14882" data-name="Path 14882" d="M132.229,236.167c-.6,0-1.2.008-1.8,0-.5-.01-.848-.184-.869-.611-.023-.461.328-.715.866-.73,1.159-.033,2.322-.024,3.482-.009.553.007.948.27.955.684s-.384.665-.951.67-1.121,0-1.681,0" transform="translate(-119.072 -220.003)" fill="rgba(237,235,222,0.6)"/>
    <path id="Path_14883" data-name="Path 14883" d="M90.626,76.952c0,2.9-.021,5.806.013,8.708.01.827-.345,1.177-1.463,1.171q-7.637-.045-15.274,0c-1.074.006-1.392-.341-1.394-1.119,0-1.7-.036-1.7,2.163-1.7q4.45,0,8.9,0c2.376,0,3.381-.762,3.386-2.6.012-4.464.02-8.927-.012-13.39,0-.671.1-.978,1.131-.956,2.548.056,2.549.01,2.549,2.028q0,3.933,0,7.866" transform="translate(-66.639 -62.832)" fill="rgba(180,166,128,0.6)"/>
  </g>
</svg>
