<svg id="Group_927" data-name="Group 927" xmlns="http://www.w3.org/2000/svg" xmlns:xlink="http://www.w3.org/1999/xlink" width="23.607" height="23.627" viewBox="0 0 23.607 23.627">
  <defs>
    <clipPath id="clip-path">
      <rect id="Rectangle_1837" data-name="Rectangle 1837" width="23.607" height="23.627" fill="none"/>
    </clipPath>
  </defs>
  <g id="Group_926" data-name="Group 926" clip-path="url(#clip-path)">
    <path id="Path_11285" data-name="Path 11285" d="M27.928,9.236a1.552,1.552,0,0,1-1.427.646c-2-.012-3.992,0-5.988,0-.571,0-1.138-.043-1.377-.678-.223-.592.147-.982.534-1.358.485-.471.945-.967,1.441-1.425.306-.283.242-.429-.055-.689A7.816,7.816,0,0,0,9.176,8.282c-.152.333-.305.667-.437,1.009a.866.866,0,0,1-.925.589c-.8-.013-1.6,0-2.4-.005-.669-.007-.909-.277-.725-.986a11.777,11.777,0,0,1,18.893-6.2c.546.447.86.5,1.3-.056a10.781,10.781,0,0,1,.971-.981c.885-.873,1.117-.89,2.074-.164Z" transform="translate(-4.322 0)" fill="rgba(112,82,37,0.5)"/>
    <path id="Path_11286" data-name="Path 11286" d="M9.962,214.059c-.94-.313-1.9-.582-2.816-.949a9.793,9.793,0,0,1-3.022-1.893c-.348-.321-.561-.346-.884.026-.442.509-.938.973-1.428,1.438a1,1,0,0,1-1.155.336A1.059,1.059,0,0,1,0,211.92q.019-3.273,0-6.547a1.024,1.024,0,0,1,1.116-1.166c2.211-.025,4.423-.016,6.635,0a1.03,1.03,0,0,1,1.036.633,1.082,1.082,0,0,1-.368,1.238c-.5.5-.98,1.021-1.507,1.49-.393.35-.3.527.071.831,3.753,3.1,9.846,1.775,11.755-2.661a2.155,2.155,0,0,1,2.441-1.569c2.153.111,2.445-.167,1.567,2.122a11.288,11.288,0,0,1-9.018,7.588c-.127.023-.236.036-.263.186Z" transform="translate(0.001 -190.432)" fill="rgba(112,82,37,0.5)"/>
  </g>
</svg>
