<svg xmlns="http://www.w3.org/2000/svg" xmlns:xlink="http://www.w3.org/1999/xlink" width="24.851" height="24.863" viewBox="0 0 24.851 24.863">
  <defs>
    <clipPath id="clip-path">
      <rect id="Rectangle_1870" data-name="Rectangle 1870" width="24.851" height="24.863" fill="#b4a680"/>
    </clipPath>
  </defs>
  <g id="Group_1029" data-name="Group 1029" clip-path="url(#clip-path)">
    <path id="Path_14885" data-name="Path 14885" d="M157.807,0a8.376,8.376,0,0,1,3.079,1.806,5.782,5.782,0,0,1-.14,8.112q-2.6,2.738-5.344,5.343a5.742,5.742,0,0,1-7.746.244,1.732,1.732,0,0,1-.479-2.531,1.753,1.753,0,0,1,2.509-.115,2.537,2.537,0,0,0,3.694-.3q2.413-2.383,4.794-4.8a2.5,2.5,0,0,0,.2-3.677,2.513,2.513,0,0,0-3.679.209c-.879.856-1.743,1.728-2.606,2.6a.877.877,0,0,1-1.016.314,8,8,0,0,0-2.366-.44c-.629-.02-.841-.4-.36-.869,1.633-1.607,3.163-3.319,4.919-4.8A13.433,13.433,0,0,1,155.479,0Z" transform="translate(-137.629)" fill="#b4a680"/>
    <path id="Path_14886" data-name="Path 14886" d="M0,137.12c.63-2.016,2.113-3.4,3.563-4.807,1.112-1.081,2.177-2.209,3.3-3.281a5.735,5.735,0,0,1,8.027-.322,1.672,1.672,0,0,1,.417,2.382,1.618,1.618,0,0,1-2.4.22,2.791,2.791,0,0,0-4.014.391c-1.534,1.659-3.185,3.209-4.78,4.811a2.456,2.456,0,0,0-.571,2.752,2.24,2.24,0,0,0,2,1.462,2.47,2.47,0,0,0,2.086-.771c.892-.89,1.8-1.765,2.663-2.681a1.061,1.061,0,0,1,1.282-.335,5.592,5.592,0,0,0,2.082.378.635.635,0,0,1,.659.306c.132.287-.091.486-.273.667-1.441,1.436-2.82,2.943-4.343,4.287A5.76,5.76,0,0,1,.274,140.1c-.06-.162-.01-.409-.274-.454Z" transform="translate(0 -119.269)" fill="#b4a680"/>
  </g>
</svg>
