<svg xmlns="http://www.w3.org/2000/svg" width="17.209" height="17.988" viewBox="0 0 17.209 17.988">
  <g id="Group_1038" data-name="Group 1038" transform="translate(-161.2 -280)">
    <path id="Path_5943" data-name="Path 5943" d="M66.188,4.207a3.091,3.091,0,0,0,1-2.01c.1-.6.351-1.128,1.038-1.1.737.033.966.6,1.01,1.256A5.294,5.294,0,0,1,68.209,6.2c-.568.693-.439,1.078.1,1.686,1.344,1.51,1.861,3.5,2.846,5.228a2.735,2.735,0,0,1-.382,2.84,1.109,1.109,0,0,1-1.4.6,1.05,1.05,0,0,1-.714-1.333,2.3,2.3,0,0,0-.021-1.3A1.17,1.17,0,0,0,67.514,13a3.177,3.177,0,0,0-2.277.9,1.163,1.163,0,0,0,.216,1.869c.615.465.97.992.517,1.725-.428.693-1.075.525-1.711.329A2.908,2.908,0,0,1,62.1,15.474c-.334-1.928-1.505-3.634-1.431-5.661.022-.58-.471-.55-.854-.6a5.592,5.592,0,0,1-3.622-2.127c-.389-.468-.6-1.008-.152-1.513a1.011,1.011,0,0,1,1.5.007,3.627,3.627,0,0,0,2.323.8C58.7,4.606,58.41,2.888,59.805,1.248A3.36,3.36,0,0,1,63.5.167c1.87.552,2.714,1.953,2.692,4.04" transform="translate(105.411 280)" fill="#b4a680"/>
    <path id="Path_5944" data-name="Path 5944" d="M70.639,2.257c-.336-.041-.469-.188-.318-.4A4.056,4.056,0,0,1,71.7.581.223.223,0,0,1,72,.891a5.49,5.49,0,0,1-1.362,1.366" transform="translate(105.411 280)" fill="#d7d2b5"/>
    <path id="Path_5945" data-name="Path 5945" d="M73,3.225c-.02.2-.01.261-.029.273a2.636,2.636,0,0,1-1.981.433c-.03-.006-.065-.267-.026-.29A2.994,2.994,0,0,1,73,3.225" transform="translate(105.411 280)" fill="#d7d2b5"/>
    <path id="Path_5946" data-name="Path 5946" d="M60.942,1.273c-.094.592.13.958.755.932a.784.784,0,0,0,.815-.963C62.353.31,62.89.584,63.336.7a3.1,3.1,0,0,1,2.287,3.02,3.153,3.153,0,0,1-2.384,2.948,3.079,3.079,0,0,1-3.445-1.552,3.036,3.036,0,0,1,.852-3.86q.157-.19.3.014" transform="translate(105.411 280)" fill="#f5f6f6"/>
    <path id="Path_5947" data-name="Path 5947" d="M62.817,5.881a1.654,1.654,0,0,1-1.1-.354c-.378-.314-.489-.633.052-.9a9.856,9.856,0,0,1,1.287-.589c.454-.144,1.029-.834,1.384-.112.318.65-.125,1.284-.724,1.707a1.557,1.557,0,0,1-.9.245" transform="translate(105.411 280)" fill="#d7d2b5"/>
    <path id="Path_5948" data-name="Path 5948" d="M60.865,3.932a.3.3,0,0,1-.406-.3A.553.553,0,0,1,61,3.005c.279-.024.592.085.558.429-.038.371-.5.291-.689.5" transform="translate(105.411 280)" fill="#d7d2b5"/>
    <path id="Path_5949" data-name="Path 5949" d="M63.855,2.341c-.037.435-.461.34-.7.492-.213.135-.366-.017-.377-.25a.52.52,0,0,1,.546-.607.5.5,0,0,1,.531.365" transform="translate(105.411 280)" fill="#d7d2b5"/>
  </g>
</svg>
