<svg id="Group_1050" data-name="Group 1050" xmlns="http://www.w3.org/2000/svg" xmlns:xlink="http://www.w3.org/1999/xlink" width="12.597" height="12.125" viewBox="0 0 12.597 12.125">
  <defs>
    <clipPath id="clip-path">
      <rect id="Rectangle_1801" data-name="Rectangle 1801" width="12.597" height="12.124" fill="none"/>
    </clipPath>
  </defs>
  <g id="Group_836" data-name="Group 836" transform="translate(0 0)" clip-path="url(#clip-path)">
    <path id="Path_9447" data-name="Path 9447" d="M21.338,2.618c-.178.3-.214.685-.593.98C19.8,2.642,18.853,1.669,17.894.705,17.681.492,17.88.435,18,.351a2.186,2.186,0,0,1,3.129.872c.068.137.038.325.205.411Z" transform="translate(-8.741 -0.001)" fill="rgba(112,82,37,0.69)"/>
    <path id="Path_9448" data-name="Path 9448" d="M7.079,1.38a5.343,5.343,0,0,1,4.957,3.194,5.277,5.277,0,0,1-.762,5.873c-.23.287-.26.455,0,.713a4.735,4.735,0,0,1,.509.659.6.6,0,0,1-.915.763c-.012-.011-.023-.023-.034-.036-.286-.309-.46-.867-.819-.916s-.746.348-1.143.487a5.217,5.217,0,0,1-4.36-.327c-.384-.208-.584-.175-.8.182a3.428,3.428,0,0,1-.49.613.552.552,0,0,1-.79.089.564.564,0,0,1-.132-.824,5.154,5.154,0,0,1,.6-.777c.209-.219.153-.35-.023-.559A5.52,5.52,0,0,1,6.1,1.464a9.831,9.831,0,0,1,.98-.084" transform="translate(-0.749 -0.678)" fill="rgba(112,82,37,0.69)"/>
    <path id="Path_9449" data-name="Path 9449" d="M.6,3.633A2.129,2.129,0,0,1,.519.762,2.157,2.157,0,0,1,3.308.33c.178.114.332.186.1.422C2.461,1.7,1.535,2.669.6,3.633" transform="translate(0 0)" fill="rgba(112,82,37,0.69)"/>
    <path id="Path_9450" data-name="Path 9450" d="M8.126,3.556a4.43,4.43,0,1,1-4.464,4.4,4.413,4.413,0,0,1,4.464-4.4" transform="translate(-1.798 -1.746)" fill="#fff"/>
    <path id="Path_9451" data-name="Path 9451" d="M6.732,9.352h.884c.591,0,.831-.247.834-.856,0-.311,0-.622,0-.932.007-.261.056-.513.4-.5.3.012.352.24.353.488s0,.524,0,.785a.991.991,0,0,0,.277.878.774.774,0,0,1-.1,1.1.792.792,0,0,1-1.068.04.891.891,0,0,0-.743-.247c-.638.008-1.276,0-1.915,0-.272,0-.523-.068-.526-.377s.246-.385.52-.382c.36,0,.72,0,1.08,0Z" transform="translate(-2.52 -3.469)" fill="rgba(112,82,37,0.69)"/>
  </g>
</svg>
