<svg id="Group_1032" data-name="Group 1032" xmlns="http://www.w3.org/2000/svg" xmlns:xlink="http://www.w3.org/1999/xlink" width="20.469" height="22.847" viewBox="0 0 20.469 22.847">
  <defs>
    <clipPath id="clip-path">
      <rect id="Rectangle_1720" data-name="Rectangle 1720" width="20.469" height="22.847" fill="none"/>
    </clipPath>
  </defs>
  <g id="Group_586" data-name="Group 586" clip-path="url(#clip-path)">
    <path id="Path_5612" data-name="Path 5612" d="M100.621,0c.383.5.223,1.084.234,1.634.021,1.068-.011,2.136.014,3.2.011.465-.073.686-.627.681-2.75-.028-5.5-.013-8.252-.013-.3,0-.621.055-.618-.409.009-1.513,0-3.026.023-4.538A1.655,1.655,0,0,1,91.638,0Z" transform="translate(-85.895)" fill="#b4a680"/>
    <path id="Path_5613" data-name="Path 5613" d="M3.214,105.785c.41.4.909.176,1.351.2.337.019.474.093.465.451-.022.86-.02,1.722,0,2.582.008.366-.083.535-.495.523-.927-.027-1.856.026-2.781-.021a1.718,1.718,0,0,1-1.745-1.855c-.014-2.315-.006-4.63,0-6.945,0-1.574.619-2.178,2.241-2.179q6.776-.005,13.551,0c.9,0,1.8-.014,2.692,0a1.784,1.784,0,0,1,1.973,2q.012,3.517,0,7.035a1.77,1.77,0,0,1-1.923,1.956c-.837.022-1.676-.024-2.512.016-.493.023-.621-.161-.589-.611.033-.473,0-.949.009-1.424s-.13-1.041.088-1.384.827-.076,1.261-.127c.171-.02.411.018.41-.222s-.24-.226-.411-.227c-1.017-.007-2.034-.005-3.051-.005-3.171,0-6.342-.005-9.513.007-.331,0-.72-.151-1.016.233" transform="translate(0 -92.627)" fill="#b4a680"/>
    <path id="Path_5614" data-name="Path 5614" d="M96.032,222.89c1.376,0,2.753.011,4.129-.007.415-.005.645.036.635.557-.034,1.781-.031,3.563,0,5.343.009.528-.187.7-.679.633a3.537,3.537,0,0,0-.448,0c-1.673,0-1.894.166-1.808,1.853.047.914-.222,1.142-1.115,1.092-1.462-.081-2.932-.055-4.4-.009-.8.025-1.058-.31-1.053-1.051q.026-3.919,0-7.837c0-.482.158-.591.612-.582,1.376.027,2.753.01,4.129.01" transform="translate(-85.818 -209.519)" fill="#b4a680"/>
    <path id="Path_5615" data-name="Path 5615" d="M50.542,66.866c-.562,0-1.076.181-1.059-.673.018-.962.589-.875,1.239-.917s.81.136.852.8c.064,1.023-.581.768-1.032.786" transform="translate(-46.516 -61.356)" fill="#b4a680"/>
    <path id="Path_5616" data-name="Path 5616" d="M258,67.007c-.583.05-1.057.126-1.042-.779.013-.79.347-.809.94-.8.657,0,1.127.028,1.149.908.024.944-.589.637-1.048.676" transform="translate(-241.555 -61.501)" fill="#b4a680"/>
    <path id="Path_5617" data-name="Path 5617" d="M209.049,339.054l-1.837,1.988c-.32-1.939-.063-2.194,1.837-1.988" transform="translate(-194.681 -318.674)" fill="#b4a680"/>
    <path id="Path_5618" data-name="Path 5618" d="M73.915,134.719a.78.78,0,0,1-.821.74.794.794,0,1,1,.083-1.586.772.772,0,0,1,.738.845" transform="translate(-67.978 -125.845)" fill="#f5f2ec"/>
    <path id="Path_5619" data-name="Path 5619" d="M112.067,134.616c-.056.474-.291.814-.759.844a.793.793,0,1,1-.068-1.584c.5-.025.712.326.827.739" transform="translate(-103.852 -125.85)" fill="#f5f2ec"/>
    <path id="Path_5620" data-name="Path 5620" d="M36.6,134.676c-.007.555-.291.854-.756.865a.789.789,0,0,1-.032-1.577.725.725,0,0,1,.788.712" transform="translate(-32.957 -125.933)" fill="#f5f2ec"/>
    <path id="Path_5621" data-name="Path 5621" d="M117.983,142.12c.252.008.372.106.366.32a.271.271,0,0,1-.269.283.321.321,0,0,1-.383-.274c-.023-.208.15-.284.286-.328" transform="translate(-110.64 -133.6)" fill="#b4a680"/>
    <path id="Path_5622" data-name="Path 5622" d="M42.689,142.3a.341.341,0,0,1-.369.317c-.2-.008-.337-.114-.326-.323a.3.3,0,0,1,.353-.3.333.333,0,0,1,.342.3" transform="translate(-39.475 -133.484)" fill="#b4a680"/>
  </g>
</svg>
