<svg id="Group_1058" data-name="Group 1058" xmlns="http://www.w3.org/2000/svg" xmlns:xlink="http://www.w3.org/1999/xlink" width="21.591" height="28.215" viewBox="0 0 21.591 28.215">
  <defs>
    <clipPath id="clip-path">
      <rect id="Rectangle_1854" data-name="Rectangle 1854" width="21.591" height="28.215" fill="none"/>
    </clipPath>
  </defs>
  <g id="Group_961" data-name="Group 961" clip-path="url(#clip-path)">
    <path id="Path_11328" data-name="Path 11328" d="M21.59,15.19q0,5.159,0,10.318c0,1.85-.864,2.7-2.731,2.7q-8.09.007-16.18,0A2.346,2.346,0,0,1,0,25.569Q0,15.075,0,4.582c0-1.775.892-2.774,2.662-2.613,1.99.181,3.852-.618,5.808-.5a.723.723,0,0,0,.655-.374c1.172-1.47,2.081-1.453,3.357.047.16.188.294.345.567.326,1.958-.137,3.817.69,5.809.507,1.85-.17,2.722.816,2.726,2.667q.009,5.276,0,10.552" transform="translate(0 0)" fill="rgba(112,82,37,0.5)"/>
    <path id="Path_11329" data-name="Path 11329" d="M37.91,79.473c-1.284-.006-2.92.463-3.749-.153-.792-.589-.23-2.33-.236-3.562-.027-5.274.01-10.548-.033-15.822-.007-.858.174-1.195,1.077-1.088,1.033.122,2.163-.286,2.994.742.254.315.729.211,1.118.211,1.524,0,3.048.023,4.571-.008a3.83,3.83,0,0,0,2.91-.762c.675-.6,2.029-.178,3.077-.129.355.016.226.439.226.686,0,2.656-.02,5.312-.033,7.967a9.533,9.533,0,0,1-1.388,3.918c-.264.426-.506.9-1.1.938-2.247-.136-4.494-.044-6.745.025,2.07.345,4.176-.042,6.245.308.585.416.207.842-.063,1.162a8.589,8.589,0,0,1-2.158,2.041c-1.365.293-2.764.006-4.4.226,1.141.4,2.131-.016,3,.4.316.78-.425.857-.785,1.189a4.212,4.212,0,0,1-1.614.171c-.487.009-.834.166-.9.7-.434.852-1.335.58-2.015.839" transform="translate(-31.095 -54.115)" fill="#f3f1eb"/>
    <path id="Path_11330" data-name="Path 11330" d="M31.7,48.76q0,4.983,0,9.965c0,1.66-.435,2.113-2.042,2.114q-7.855.006-15.71,0c-1.483,0-1.955-.476-1.956-1.962q-.007-10.258,0-20.517c0-1.425.48-1.9,1.877-1.922.821-.01,1.642-.012,2.462,0,.325.006.77-.117.791.429.025.641-.483.488-.839.5-.781.02-1.565.037-2.344,0s-1.022.295-1.02,1.042q.025,10.258,0,20.517c0,.691.243.987.958.984q6.1-.025,12.193,0a1.232,1.232,0,0,0,1.038-.425.912.912,0,0,1,.167-.164c2.84-2.025,3.862-4.665,3.565-8.217-.344-4.114-.111-8.279-.059-12.42.013-1.042-.326-1.411-1.347-1.32-.775.069-1.562.011-2.343.008-.307,0-.531-.093-.532-.461s.218-.465.527-.465c1.094,0,2.195-.071,3.28.027,1.062.1,1.345.879,1.34,1.856C31.692,41.8,31.7,45.282,31.7,48.76" transform="translate(-11.052 -33.567)" fill="rgba(112,82,37,0.85)"/>
    <path id="Path_11331" data-name="Path 11331" d="M91.476,181.686l.937-.859c.19-.316.523-.287.82-.323a.59.59,0,0,0,.594-.692c.7-.984,1.833-1.6,2.346-2.743a.985.985,0,0,1,.462-.736c1.238-1.332,1.606-3.095,2.317-4.687.013,2.5.009,5,.05,7.5.01.585-.2.691-.741.712-2.879.114-2.895.13-3.011,3.014-.022.54-.134.748-.715.739-2.5-.041-5-.038-7.5-.05.557-.441,1.392-.311,1.874-.907.689-.525,1.492-.257,2.246-.313a15.918,15.918,0,0,0,2.345-.11c-.722-.36-1.518.042-2.018-.548" transform="translate(-80.216 -158.207)" fill="#f3f1eb"/>
    <path id="Path_11332" data-name="Path 11332" d="M93.323,15.754c-.9,0-1.8-.05-2.7.012-1.169.082-.928-.712-.993-1.4-.072-.76.176-1.031.961-.982.838.053,1.739.294,2.123-.986a.744.744,0,0,1,1.387.028c.325,1.183,1.123.994,1.9.966.741-.027,1.268-.015,1.176,1.011-.073.814-.02,1.479-1.164,1.364-.89-.089-1.8-.018-2.7-.018" transform="translate(-82.605 -11.007)" fill="rgba(112,82,37,0.85)"/>
    <path id="Path_11333" data-name="Path 11333" d="M204.735,288.6l-1.84,1.837c-.607-1.933-.428-2.126,1.84-1.837" transform="translate(-186.733 -265.901)" fill="#f3f1eb"/>
    <path id="Path_11334" data-name="Path 11334" d="M47.376,87.287c.14-.611,0-1.506.98-.668.268.229.526.167.643-.157.1-.283-.1-.457-.361-.455-.395,0-.807-.06-.664-.529a1.467,1.467,0,0,1,1.054-1.008c.371-.079.483.273.469.633-.013.344.191.548.513.386.288-.145.326-.426.041-.661s-.428-.548-.062-.756a1.433,1.433,0,0,1,1.443.005c.367.217.207.519-.074.757s-.237.519.057.658c.328.155.519-.054.5-.4-.016-.363.113-.711.479-.623a1.54,1.54,0,0,1,1.052,1.018c.13.38-.209.534-.567.522-.331-.011-.59.117-.456.461.154.393.448.365.716.052s.593-.323.754.033a1.565,1.565,0,0,1-.012,1.356c-.188.358-.5.295-.758,0-.276-.322-.575-.309-.7.085-.116.351.16.446.483.439.356-.008.689.162.538.543a1.6,1.6,0,0,1-1.064,1.006c-.3.074-.48-.214-.465-.527.018-.38-.1-.693-.508-.492-.376.184-.251.487.048.738.256.214.272.528-.029.678a1.535,1.535,0,0,1-1.448-.011c-.3-.166-.252-.476,0-.682.311-.256.4-.559.021-.728-.42-.187-.515.14-.5.512.014.317-.185.6-.479.51a1.611,1.611,0,0,1-1.052-1.023c-.13-.379.209-.535.567-.523.331.011.575-.1.46-.461-.1-.323-.373-.368-.645-.14-1.015.853-.8-.139-.972-.544" transform="translate(-43.667 -77.311)" fill="rgba(112,82,37,0.85)"/>
    <path id="Path_11335" data-name="Path 11335" d="M112.389,181.445h-3.166c-.351,0-.783.043-.821-.43-.039-.489.376-.507.741-.507q3.224,0,6.449,0c.329,0,.686.032.706.43.025.492-.378.508-.743.508h-3.166" transform="translate(-99.912 -166.374)" fill="rgba(112,82,37,0.85)"/>
    <path id="Path_11336" data-name="Path 11336" d="M116.5,228.6a.63.63,0,0,1-.462.736c-2.141-.012-4.283-.018-6.424-.042-.394,0-1,.178-1.03-.434-.035-.644.573-.491.968-.493,1.986-.012,3.973,0,5.959-.008a1.339,1.339,0,0,1,.988.241" transform="translate(-100.08 -210.471)" fill="rgba(112,82,37,0.85)"/>
    <path id="Path_11337" data-name="Path 11337" d="M59.512,181.256c-.35-1.358.554-1.214,1.475-1.3,1.316-.125,1.267.584,1.341,1.542.1,1.317-.591,1.271-1.549,1.339-1.3.092-1.448-.548-1.267-1.58" transform="translate(-54.782 -165.851)" fill="rgba(180,166,128,0.6)"/>
    <path id="Path_11338" data-name="Path 11338" d="M62.235,229.377c.312,1.179-.206,1.473-1.336,1.473-1.088,0-1.5-.249-1.475-1.42.02-1.084.247-1.521,1.423-1.468,1.03.047,1.74.14,1.388,1.415" transform="translate(-54.771 -210.109)" fill="rgba(180,166,128,0.6)"/>
    <path id="Path_11339" data-name="Path 11339" d="M60.907,275.9c1.214-.332,1.439.254,1.456,1.351.017,1.116-.293,1.467-1.436,1.46-1.113-.007-1.489-.3-1.452-1.442.034-1.059.182-1.719,1.432-1.368" transform="translate(-54.815 -254.213)" fill="rgba(180,166,128,0.6)"/>
    <path id="Path_11340" data-name="Path 11340" d="M147.6,97.56c-.86,0-1.72,0-2.579,0-.33,0-.674-.032-.708-.431s.283-.505.628-.505q2.638,0,5.276,0c.3,0,.572.1.592.427.025.409-.284.505-.629.506H147.6" transform="translate(-133.012 -89.06)" fill="rgba(112,82,37,0.85)"/>
    <path id="Path_11341" data-name="Path 11341" d="M147.5,121.524h-2.579c-.351,0-.65-.113-.616-.518.027-.321.3-.417.6-.416q2.638,0,5.276,0c.35,0,.65.112.616.518-.027.322-.3.417-.6.416-.9,0-1.8,0-2.7,0" transform="translate(-133.007 -111.148)" fill="rgba(112,82,37,0.85)"/>
    <path id="Path_11342" data-name="Path 11342" d="M111.116,205.465c-.742,0-1.485.005-2.227,0-.3,0-.553-.131-.544-.47s.258-.454.563-.454q2.227,0,4.454,0c.3,0,.554.132.545.47s-.259.453-.564.454c-.742,0-1.485,0-2.227,0" transform="translate(-99.861 -188.521)" fill="rgba(112,82,37,0.85)"/>
    <path id="Path_11343" data-name="Path 11343" d="M111.136,252.451q1.055,0,2.11,0c.335,0,.658.066.659.479,0,.331-.259.452-.564.452q-2.227,0-4.454,0c-.3,0-.553-.133-.542-.472s.26-.451.565-.453c.742,0,1.485,0,2.227,0" transform="translate(-99.861 -232.683)" fill="rgba(112,82,37,0.85)"/>
    <path id="Path_11344" data-name="Path 11344" d="M113.511,275.947c.247.116.5.249.432.578s-.309.391-.6.4c-.416.007-.832.027-1.248.041q-1.523-.021-3.046-.041c-.334,0-.668-.061-.665-.472s.338-.463.671-.466l4.454-.037" transform="translate(-99.899 -254.341)" fill="rgba(112,82,37,0.85)"/>
    <path id="Path_11345" data-name="Path 11345" d="M110.975,299.881c.663.013,1.327.028,1.991.04.355.006.781-.021.787.464s-.421.473-.776.473q-2.287,0-4.573-.006c-.426-.628-.21-.914.5-.93.691-.016,1.382-.027,2.073-.041" transform="translate(-99.715 -276.401)" fill="rgba(112,82,37,0.85)"/>
    <path id="Path_11346" data-name="Path 11346" d="M146.646,145.532c-.625,0-1.25,0-1.875,0a.456.456,0,0,1-.493-.4.444.444,0,0,1,.495-.514c1.211-.01,2.422-.006,3.633,0a.456.456,0,0,1,.493.4c.036.33-.182.506-.5.514-.586.015-1.172,0-1.758,0" transform="translate(-132.978 -133.283)" fill="rgba(112,82,37,0.85)"/>
    <path id="Path_11347" data-name="Path 11347" d="M80.061,115.768c-.121.543-.43.936-1.019.885a.86.86,0,0,1-.838-.935.873.873,0,0,1,.994-.9.941.941,0,0,1,.864.946" transform="translate(-72.079 -105.828)" fill="#d6041c"/>
    <path id="Path_11348" data-name="Path 11348" d="M72.888,192.929c.031.308-.047.512-.418.511-.306,0-.513-.055-.512-.427,0-.307.056-.513.427-.511.3,0,.535.048.5.427" transform="translate(-66.324 -177.429)" fill="rgba(112,82,37,0.85)"/>
    <path id="Path_11349" data-name="Path 11349" d="M72.879,240.931c.034.353-.151.453-.477.453-.349,0-.455-.158-.455-.485,0-.35.16-.455.486-.454.349,0,.48.157.445.486" transform="translate(-66.315 -221.619)" fill="rgba(112,82,37,0.85)"/>
    <path id="Path_11350" data-name="Path 11350" d="M72.434,289.329c-.329.035-.485-.1-.486-.445,0-.327.105-.485.455-.486.328,0,.485.105.485.455,0,.325-.1.51-.453.477" transform="translate(-66.315 -265.817)" fill="rgba(112,82,37,0.85)"/>
  </g>
</svg>
