<svg xmlns="http://www.w3.org/2000/svg" xmlns:xlink="http://www.w3.org/1999/xlink" width="198" height="198" viewBox="0 0 198 198">
  <defs>
    <filter id="Path_11283" x="0" y="0" width="198" height="198" filterUnits="userSpaceOnUse">
      <feOffset dx="-3" dy="3" input="SourceAlpha"/>
      <feGaussianBlur stdDeviation="3" result="blur"/>
      <feFlood flood-color="#f6f1ed" flood-opacity="0.8"/>
      <feComposite operator="in" in2="blur"/>
      <feComposite in="SourceGraphic"/>
    </filter>
  </defs>
  <g id="Group_1056" data-name="Group 1056" transform="translate(-86 -179)">
    <g transform="matrix(1, 0, 0, 1, 86, 179)" filter="url(#Path_11283)">
      <path id="Path_11283-2" data-name="Path 11283" d="M90,0A90,90,0,1,1,0,90,90,90,0,0,1,90,0Z" transform="translate(12 6)" fill="rgba(243,241,235,0.7)"/>
    </g>
    <path id="camera-alt" d="M53.184,60H6.819A6.476,6.476,0,0,1,2,57.8,7.956,7.956,0,0,1,0,52.5v-36C0,12.364,3.059,9,6.819,9h5.263a4,4,0,0,0,3.4-2L17.7,3.34A6.661,6.661,0,0,1,23.373,0H36.627A6.661,6.661,0,0,1,42.3,3.34L44.516,7a3.991,3.991,0,0,0,3.395,2h5.272C56.942,9,60,12.364,60,16.5v36C60,56.635,56.942,60,53.184,60ZM6.819,12a4.316,4.316,0,0,0-4.092,4.5v36A4.316,4.316,0,0,0,6.819,57H53.184a4.315,4.315,0,0,0,4.089-4.5v-36A4.315,4.315,0,0,0,53.184,12H47.919a6.664,6.664,0,0,1-5.673-3.337L40.032,5a4,4,0,0,0-3.4-2H23.373a4,4,0,0,0-3.4,2L17.754,8.662A6.664,6.664,0,0,1,12.081,12ZM30,51c-9.022,0-16.362-8.075-16.362-18S20.978,15,30,15s16.365,8.074,16.365,18S39.024,51,30,51Zm0-33c-7.518,0-13.635,6.728-13.635,15S22.482,48,30,48s13.638-6.73,13.638-15S37.52,18,30,18Zm21.819,6H49.092a2.876,2.876,0,0,1-2.727-3V18a2.876,2.876,0,0,1,2.727-3h2.727a2.876,2.876,0,0,1,2.727,3v3A2.876,2.876,0,0,1,51.819,24Zm-2.727-6v3h2.727V18ZM9.546,6H4.092A1.438,1.438,0,0,1,2.727,4.5,1.44,1.44,0,0,1,4.092,3H9.546a1.438,1.438,0,0,1,1.362,1.5A1.437,1.437,0,0,1,9.546,6Z" transform="translate(158 245)" fill="rgba(112,82,37,0.69)"/>
  </g>
</svg>
