<svg id="Group_1019" data-name="Group 1019" xmlns="http://www.w3.org/2000/svg" xmlns:xlink="http://www.w3.org/1999/xlink" width="18" height="18.041" viewBox="0 0 18 18.041">
  <defs>
    <clipPath id="clip-path">
      <rect id="Rectangle_122" data-name="Rectangle 122" width="18" height="18.041" fill="#705225"/>
    </clipPath>
  </defs>
  <g id="Group_16" data-name="Group 16" clip-path="url(#clip-path)">
    <path id="Path_4007" data-name="Path 4007" d="M9,152.01c-1.956,0-3.912.009-5.867,0a2.748,2.748,0,0,1-3.059-3.062c-.013-2.054.01-4.109-.013-6.163-.006-.51.078-.737.671-.735q8.3.035,16.6,0c.573,0,.69.194.684.722-.026,2.082,0,4.165-.016,6.247a2.716,2.716,0,0,1-2.961,2.988c-2.011.019-4.023,0-6.035,0" transform="translate(-0.053 -133.975)" fill="#705225"/>
    <path id="Path_4008" data-name="Path 4008" d="M8.911,6.3C6.2,6.3,3.489,6.269.779,6.322c-.724.014-.808-.265-.772-.86A2.658,2.658,0,0,1,2.763,2.7c.7-.009.964-.176.855-.883A6.254,6.254,0,0,1,3.611.893.8.8,0,0,1,4.416.005a.866.866,0,0,1,1,.793,2.511,2.511,0,0,1,.015.421c.028,1.459.028,1.459,1.513,1.459,1.621,0,3.242-.029,4.862.015.608.016.789-.187.721-.761a5.493,5.493,0,0,1,0-1.012A.863.863,0,0,1,13.5,0a.818.818,0,0,1,.848.935c0,.534-.165,1.181.075,1.571.264.428.975.125,1.482.249a2.933,2.933,0,0,1,2.044,3.263c-.1.468-.431.268-.654.27-2.794.015-5.589.01-8.384.01" transform="translate(0 0)" fill="#705225"/>
  </g>
</svg>
