<svg id="Group_1034" data-name="Group 1034" xmlns="http://www.w3.org/2000/svg" xmlns:xlink="http://www.w3.org/1999/xlink" width="20.738" height="20.692" viewBox="0 0 20.738 20.692">
  <defs>
    <clipPath id="clip-path">
      <rect id="Rectangle_1721" data-name="Rectangle 1721" width="20.738" height="20.692" fill="#b4a680"/>
    </clipPath>
  </defs>
  <g id="Group_588" data-name="Group 588" clip-path="url(#clip-path)">
    <path id="Path_5623" data-name="Path 5623" d="M13.934,20.692h-1.3a2.1,2.1,0,0,1-1.5-1.626c-.616-2.194-1.266-4.378-1.877-6.573a1.291,1.291,0,0,0-1.01-1c-2.209-.607-4.408-1.253-6.616-1.865A2.105,2.105,0,0,1,0,8.137V6.849A1.97,1.97,0,0,1,1.581,5.334C7.3,3.622,13.03,1.93,18.749.209A11.427,11.427,0,0,1,19.941.018a.67.67,0,0,1,.8.392v.644A88.564,88.564,0,0,1,18.26,9.83c-.9,3.08-1.843,6.146-2.778,9.216a2.028,2.028,0,0,1-1.548,1.646" transform="translate(0 0)" fill="#b4a680"/>
  </g>
</svg>
