<svg id="Group_1057" data-name="Group 1057" xmlns="http://www.w3.org/2000/svg" xmlns:xlink="http://www.w3.org/1999/xlink" width="22.485" height="22.624" viewBox="0 0 22.485 22.624">
  <defs>
    <clipPath id="clip-path">
      <rect id="Rectangle_1853" data-name="Rectangle 1853" width="22.485" height="22.624" fill="none"/>
    </clipPath>
  </defs>
  <g id="Group_959" data-name="Group 959" clip-path="url(#clip-path)">
    <path id="Path_11326" data-name="Path 11326" d="M11.241,202.539c-2.032,0-4.064.01-6.1,0A4.979,4.979,0,0,1,0,197.334c-.008-1.28,0-2.56,0-3.84,0-.756.326-1.282,1.1-1.251.72.029,1,.53.978,1.258-.032,1.279-.019,2.56-.006,3.84a2.922,2.922,0,0,0,3.107,3.1q6.048.018,12.1,0a2.922,2.922,0,0,0,3.082-3.13q.018-1.968,0-3.936a.993.993,0,0,1,1.011-1.137.968.968,0,0,1,1.044,1.018,29.137,29.137,0,0,1-.1,5.17,4.829,4.829,0,0,1-4.885,4.1c-2.064.021-4.128,0-6.191,0" transform="translate(0 -179.921)" fill="rgba(112,82,37,0.85)"/>
    <path id="Path_11327" data-name="Path 11327" d="M71.9,3.568c0,4.219,0,8.147,0,12.075,0,1.4-.223,1.792-1.01,1.812-.812.021-1.069-.419-1.069-1.847q0-5.423,0-10.846V3.576c-1.3,1.316-2.426,2.461-3.555,3.6-.224.227-.453.448-.676.675a.971.971,0,0,1-1.509.1,1.014,1.014,0,0,1,.069-1.6c.738-.75,1.481-1.494,2.221-2.241,1.167-1.176,2.329-2.358,3.5-3.527C70.642-.178,71.057-.2,71.8.543c1.9,1.889,3.772,3.8,5.662,5.7.511.512.771,1.084.208,1.669-.608.631-1.18.34-1.713-.211C74.677,6.373,73.375,5.069,71.9,3.568" transform="translate(-59.636 0)" fill="rgba(112,82,37,0.85)"/>
  </g>
</svg>
