<svg xmlns="http://www.w3.org/2000/svg" width="11.652" height="17.604" viewBox="0 0 11.652 17.604">
  <g id="Group_1040" data-name="Group 1040" transform="translate(-137.752 -494.028)">
    <path id="Path_5951" data-name="Path 5951" d="M122.227,7.108c1.094,0,2,0,2.9,0,.553,0,1.039.11,1.226.725a.87.87,0,0,1-.26.981,1.285,1.285,0,0,1-1.562.161c-1.38-1.11-2.881-.445-4.5-.6.477.739,1.036.465,1.492.507a11.432,11.432,0,0,0,1.434.008c.653-.022,1.131.206,1.121.92-.009.738-.553.851-1.169.879a7.984,7.984,0,0,0-2.825.212c.344.551.83.288,1.227.366.325.063.778-.123.885.381a1.415,1.415,0,0,1-.609,1.35c-.3.277-.593.505-1.044.182-.325-.233-.558-.7-1.187-.567.463.868,1.286,1.3,1.9,1.931.332.344.721.635,1.028,1a1.159,1.159,0,0,1,0,1.631,1.1,1.1,0,0,1-1.512.267,14.618,14.618,0,0,1-3.964-3.224,5.647,5.647,0,0,1-.76-4.806,4.805,4.805,0,0,0-.272-3.866A3.722,3.722,0,0,1,117.093.775a4.01,4.01,0,0,1,5.918,5.055c-.177.353-.413.678-.784,1.278" transform="translate(23 494)" fill="#b4a680"/>
    <path id="Path_5952" data-name="Path 5952" d="M115.638,17.345a.952.952,0,0,1-.885-1.092c.014-.478,1.221-1.782,1.538-1.6a2.691,2.691,0,0,1,1.309,1.3c.137.368-1.331,1.429-1.962,1.4" transform="translate(23 494)" fill="#b4a680"/>
    <path id="Path_5953" data-name="Path 5953" d="M118.877,1.064c-.113.53-.019.97.568,1.129a.855.855,0,0,0,1.144-.585c.306-1.058.753-.476,1.144-.122a3.445,3.445,0,0,1,.748,4.149,3.452,3.452,0,0,1-6.511-1.492,3.377,3.377,0,0,1,2.6-3.4c.281-.066.364.058.306.318" transform="translate(23 494)" fill="#f8f8f8"/>
    <path id="Path_5954" data-name="Path 5954" d="M120.186,5.343c.36.207,1.15-.285,1.149.539,0,.508-.564.738-1.085.718-.563-.023-1.1-.276-1.068-.884.026-.586.616-.273,1-.373" transform="translate(23 494)" fill="#d7d2b5"/>
    <path id="Path_5955" data-name="Path 5955" d="M121.291,4.129a.371.371,0,0,1,.424-.314.323.323,0,0,1,.327.395.338.338,0,0,1-.412.315.349.349,0,0,1-.339-.4" transform="translate(23 494)" fill="#d7d2b5"/>
    <path id="Path_5956" data-name="Path 5956" d="M96.215,5.446c.211.036.369.141.367.373,0,.274-.147.447-.433.417-.229-.024-.32-.2-.309-.419s.161-.337.375-.371" transform="translate(45.36 492.267)" fill="#d7d2b5"/>
  </g>
</svg>
