<svg id="Group_1016" data-name="Group 1016" xmlns="http://www.w3.org/2000/svg" xmlns:xlink="http://www.w3.org/1999/xlink" width="19" height="12" viewBox="0 0 19 12">
  <defs>
    <clipPath id="clip-path">
      <rect id="Rectangle_1626" data-name="Rectangle 1626" width="19" height="12" fill="#b4a680"/>
    </clipPath>
  </defs>
  <g id="Group_21" data-name="Group 21" clip-path="url(#clip-path)">
    <path id="Path_4013" data-name="Path 4013" d="M0,6.013a2.124,2.124,0,0,1,.9-1.673c.533-.527.728-.98.184-1.654a4.1,4.1,0,0,1-.5-1.025A1.122,1.122,0,0,1,.953.137c.526-.3,1-.1,1.281.535a10.98,10.98,0,0,0,2.02,3.146c3.8,4.024,9.3,3.062,12.106-2.117.211-.388.375-.811.592-1.194A.813.813,0,0,1,18.147.132a1.047,1.047,0,0,1,.419,1.343,8.4,8.4,0,0,1-.745,1.539c-.241.393-.252.647.08.967A8.666,8.666,0,0,1,18.86,5.1a1.122,1.122,0,0,1,0,1.434.812.812,0,0,1-1.3.083,2.584,2.584,0,0,1-.189-.2c-1.055-1.118-1.023-1.064-2.183-.163-.559.434-.52.774-.218,1.318a7.341,7.341,0,0,1,.436,1.064,1.015,1.015,0,0,1-.4,1.259.812.812,0,0,1-1.162-.2,1.167,1.167,0,0,1-.141-.246c-.267-.533-.378-1.494-.783-1.54a6.9,6.9,0,0,0-2.208.488c-.3.072-.219.332-.226.542-.02.592,0,1.187-.046,1.775a.867.867,0,0,1-.935.907c-.482-.019-.778-.344-.857-.909-.014-.1-.021-.2-.029-.294-.053-.646.257-1.57-.123-1.881a6.02,6.02,0,0,0-2.079-.705c-.31-.1-.385.141-.488.389-.184.443-.368.889-.589,1.307a.794.794,0,0,1-1.249.361,1.018,1.018,0,0,1-.369-1.347.675.675,0,0,0,.031-.092c.163-.61.79-1.156.569-1.743-.189-.5-.83-.755-1.211-1.189-.293-.334-.446-.225-.669.057-.287.363-.6.705-.91,1.038A.8.8,0,0,1,.5,6.772.905.905,0,0,1,0,6.013" transform="translate(0 0)" fill="#b4a680"/>
  </g>
</svg>
