<svg xmlns="http://www.w3.org/2000/svg" width="24" height="25" viewBox="0 0 24 25">
  <g id="Group_1036" data-name="Group 1036" transform="translate(-321 -121)">
    <rect id="Rectangle_1731" data-name="Rectangle 1731" width="24" height="25" rx="6" transform="translate(321 121)" fill="#fff"/>
    <path id="star" d="M19.947,8.132a1.075,1.075,0,0,0-.914-.77L13.26,6.81,10.978,1.177a1.043,1.043,0,0,0-1.956,0L6.74,6.81.966,7.363a1.078,1.078,0,0,0-.914.77,1.163,1.163,0,0,0,.31,1.191l4.364,4.035L3.439,19.335a1.152,1.152,0,0,0,.413,1.157,1.015,1.015,0,0,0,1.168.055L10,17.408l4.977,3.139a1.017,1.017,0,0,0,1.169-.055,1.152,1.152,0,0,0,.413-1.157l-1.287-5.976,4.364-4.035a1.162,1.162,0,0,0,.31-1.191ZM10.1,17.348" transform="translate(323 122.504)" fill="#ffe120"/>
  </g>
</svg>
