<svg id="Group_1031" data-name="Group 1031" xmlns="http://www.w3.org/2000/svg" xmlns:xlink="http://www.w3.org/1999/xlink" width="24.003" height="24" viewBox="0 0 24.003 24">
  <defs>
    <clipPath id="clip-path">
      <rect id="Rectangle_1692" data-name="Rectangle 1692" width="24.003" height="24" fill="rgba(180,166,128,0.6)"/>
    </clipPath>
  </defs>
  <g id="Group_497" data-name="Group 497" clip-path="url(#clip-path)">
    <path id="Path_4596" data-name="Path 4596" d="M3.437,17.543c0-1.284-.05-2.571.019-3.852.04-.745-.238-.915-.9-.847-.459.048-.927-.007-1.39.014s-.868-.046-1.08-.5c-.237-.514.051-.875.4-1.218q4.128-4.12,8.25-8.246c.807-.807,1.624-1.6,2.417-2.426A1,1,0,0,1,12.793.4q5.4,5.417,10.818,10.823a.931.931,0,0,1,.295,1.146.9.9,0,0,1-.983.483.541.541,0,0,0-.107,0c-.732.073-1.733-.343-2.127.178-.364.482-.118,1.433-.121,2.177-.007,2.033.008,4.067-.006,6.1a2.526,2.526,0,0,1-2.669,2.678c-1.034.013-2.069-.011-3.1.007-.769.013-1.094-.339-1.083-1.1.021-1.462-.024-2.926.016-4.387.029-1.02-.412-1.451-1.411-1.37a8.541,8.541,0,0,1-.856,0c-.8-.016-1.176.373-1.172,1.172.009,1.5-.022,3,.011,4.495.02.877-.354,1.226-1.216,1.2-1-.036-2,0-3-.011a2.53,2.53,0,0,1-2.647-2.7c-.011-1.248,0-2.5,0-3.746" transform="translate(0 0)" fill="rgba(180,166,128,0.6)"/>
  </g>
</svg>
