<svg id="Group_1033" data-name="Group 1033" xmlns="http://www.w3.org/2000/svg" xmlns:xlink="http://www.w3.org/1999/xlink" width="20.431" height="20.311" viewBox="0 0 20.431 20.311">
  <defs>
    <clipPath id="clip-path">
      <rect id="Rectangle_1722" data-name="Rectangle 1722" width="20.431" height="20.311" fill="none"/>
    </clipPath>
  </defs>
  <g id="Group_590" data-name="Group 590" clip-path="url(#clip-path)">
    <path id="Path_5624" data-name="Path 5624" d="M0,71.178V57.234c.435-1.311,1.119-1.794,2.706-1.807,3.055-.024,6.111-.01,9.166-.006a2.594,2.594,0,0,1,.318.015c.7.088.831.376.394.929a10.692,10.692,0,0,1-.885.91,35.938,35.938,0,0,1-2.721,2.666,7.908,7.908,0,0,0-2.535,4.452,1.542,1.542,0,0,0,1.992,1.972,8.4,8.4,0,0,0,4.543-2.574c1.041-1.225,2.263-2.3,3.422-3.425.22-.213.457-.545.8-.4s.265.545.266.851c.01,3.112.028,6.224,0,9.336a2.319,2.319,0,0,1-1.817,2.607H1.6A1.823,1.823,0,0,1,0,71.178" transform="translate(0 -52.452)" fill="#b4a680"/>
    <path id="Path_5625" data-name="Path 5625" d="M316.531,2.563c-1.241,1.324-1.241,1.324-2.575,0-.132-.131-.313-.239-.385-.4-.2-.426-1.285-.546-.42-1.351,1.078-1,1.4-1.081,2.238-.25.393.389.762.8,1.142,1.2Z" transform="translate(-296.1 0)" fill="#b4a680"/>
    <path id="Path_5626" data-name="Path 5626" d="M146.852,45.079c-.135.14-.242.256-.354.368-2.291,2.275-4.554,4.578-6.888,6.808-.837.8-2.056.912-3.134,1.22-.417.119-.774-.272-.612-.759a7.766,7.766,0,0,1,1.83-3.668c2.12-1.954,4.128-4.03,6.152-6.084.4-.4.617-.383.974.013.531.588,1.119,1.125,1.678,1.688.125.126.233.27.355.414" transform="translate(-128.563 -40.389)" fill="#b4a680"/>
  </g>
</svg>
