<svg id="Group_1030" data-name="Group 1030" xmlns="http://www.w3.org/2000/svg" xmlns:xlink="http://www.w3.org/1999/xlink" width="22.789" height="27.82" viewBox="0 0 22.789 27.82">
  <defs>
    <clipPath id="clip-path">
      <rect id="Rectangle_1717" data-name="Rectangle 1717" width="22.789" height="27.82" fill="none"/>
    </clipPath>
  </defs>
  <g id="Group_583" data-name="Group 583" clip-path="url(#clip-path)">
    <path id="Path_5606" data-name="Path 5606" d="M14.02,0c1.073.694,1.925,1.522,1.748,2.94-.07.562.272.544.665.541,1.35-.01,2.7-.016,4.049,0a2.127,2.127,0,0,1,2.3,2.307C22.8,8.37,23,8.271,20.308,8.264c-6.274-.015-12.548,0-18.822-.006C.1,8.258.005,8.161,0,6.765c0-.326,0-.652,0-.977A2.133,2.133,0,0,1,2.3,3.481c1.349-.015,2.7,0,4.049-.007.3,0,.727.132.659-.423A3.035,3.035,0,0,1,8.763,0Z" transform="translate(0)" fill="#b4a680"/>
    <path id="Path_5607" data-name="Path 5607" d="M28.506,136.557c2.989,0,5.979.019,8.968-.014.724-.008,1.032.124.986.946-.257,4.585-.447,9.173-.683,13.759-.118,2.3-1.04,3.131-3.375,3.131q-6.07,0-12.14,0c-2.116,0-3.071-.85-3.189-2.977-.2-3.61-.337-7.224-.505-10.836-.047-1.011-.076-2.025-.183-3.031-.079-.748.132-1.008.933-1,3.062.045,6.124.018,9.187.018" transform="translate(-17.028 -126.56)" fill="#b4a680"/>
    <path id="Path_5608" data-name="Path 5608" d="M122.448,25.227c-.581,0-1.166.037-1.743-.015-.314-.028-.852.313-.883-.4-.028-.64.121-1.24.84-1.287a27.061,27.061,0,0,1,3.594,0c.724.049.861.662.827,1.3-.038.7-.577.363-.891.391-.577.052-1.162.015-1.743.015" transform="translate(-111.061 -21.749)" fill="#fdfdfd"/>
    <path id="Path_5609" data-name="Path 5609" d="M85.63,161.779c0,1.7-.011,3.4.005,5.1.006.642-.136,1.246-.86,1.266s-.9-.563-.9-1.217q.016-5.264,0-10.527c0-.654.18-1.235.91-1.212s.857.634.852,1.271c-.014,1.773,0,3.545,0,5.318" transform="translate(-77.743 -143.847)" fill="#fefefe"/>
    <path id="Path_5610" data-name="Path 5610" d="M143.8,161.558c0-1.7.011-3.4-.006-5.1-.006-.642.132-1.245.857-1.267s.906.567.9,1.216q-.012,5.264,0,10.528c0,.653-.181,1.236-.91,1.213s-.859-.628-.852-1.27c.017-1.773.006-3.545.006-5.318" transform="translate(-133.286 -143.847)" fill="#fefefe"/>
    <path id="Path_5611" data-name="Path 5611" d="M203.74,161.663c0-1.736.011-3.473-.006-5.209-.006-.643.136-1.244.862-1.262s.9.573.9,1.221q-.012,5.264,0,10.528c0,.654-.186,1.235-.915,1.208s-.854-.635-.847-1.275c.018-1.736.006-3.473.006-5.209" transform="translate(-188.844 -143.849)" fill="#fefefe"/>
  </g>
</svg>
