<svg xmlns="http://www.w3.org/2000/svg" width="17.285" height="15.048" viewBox="0 0 17.285 15.048">
  <g id="Group_1039" data-name="Group 1039" transform="translate(-156.739 -398.308)">
    <path id="Path_5803" data-name="Path 5803" d="M93.792,11.466c-.086.046-.177.064-.208.117-.312.531.254,1.366-.5,1.711a4.838,4.838,0,0,1-2.581.283,2.031,2.031,0,0,1-.471-.073c-.973-.361-1.314-.144-1.146.976.191,1.278-.382,1.826-1.693,1.862-.717.02-1.435.02-2.151-.011-.783-.034-1.325-.434-1.3-1.252a1.1,1.1,0,0,1,1.268-1.132c.993.062,1.082-.353.9-1.224-.661-3.232.943-5.611,4.187-6.165a2.232,2.232,0,0,0,2.086-1.895,4.2,4.2,0,0,1,3.922-3.326,4.145,4.145,0,0,1,4.162,2.057,4.3,4.3,0,0,1-.131,5.052A2.314,2.314,0,0,0,99.7,9.988c.046,1.036,0,2.075.018,3.113.012.8-.279,1.348-1.141,1.353-.779,0-1.069-.484-1.177-1.228-.071-.486.4-1.436-.61-1.345-.791.072-.362.9-.421,1.39a13.933,13.933,0,0,0-.018,1.794A1.1,1.1,0,0,1,95.2,16.307c-.765.015-1.14-.5-1.162-1.24-.027-.877-.008-1.756-.038-2.633-.012-.326.133-.708-.209-.968" transform="translate(73 397)" fill="#b4a680"/>
    <path id="Path_5902" data-name="Path 5902" d="M100.426,5.8a3.935,3.935,0,0,1-7.808.744,3.973,3.973,0,0,1,2.72-4.49,2.449,2.449,0,0,1,1.528-.033.617.617,0,0,1,.417.656.457.457,0,0,1-.306.464c-.279.09-.45-.058-.558-.3-.08-.183-.174-.42-.409-.247a.491.491,0,0,0-.069.657.97.97,0,0,0,.879.529.924.924,0,0,0,.974-.735c.206-1.089.708-.66,1.188-.262a3.764,3.764,0,0,1,1.444,3.02" transform="translate(73 397)" fill="#f8f9f9"/>
    <path id="Path_5926" data-name="Path 5926" d="M97.386,7.342c.38.319,1.267-.3,1.265.573,0,.607-.645.849-1.265.813s-1.2-.349-1.171-.959c.034-.742.746-.264,1.171-.427" transform="translate(73 397)" fill="#d7d2b5"/>
    <path id="Path_5927" data-name="Path 5927" d="M96.215,5.446c.211.036.369.141.367.373,0,.274-.147.447-.433.417-.229-.024-.32-.2-.309-.419s.161-.337.375-.371" transform="translate(73 397)" fill="#d7d2b5"/>
    <path id="Path_5928" data-name="Path 5928" d="M99.283,5.6a.448.448,0,0,1,.148.347.375.375,0,0,1-.448.411.349.349,0,0,1-.311-.421c.025-.212.145-.36.611-.337" transform="translate(73 397)" fill="#d7d2b5"/>
  </g>
</svg>
