<svg id="Group_1028" data-name="Group 1028" xmlns="http://www.w3.org/2000/svg" xmlns:xlink="http://www.w3.org/1999/xlink" width="23.995" height="20.047" viewBox="0 0 23.995 20.047">
  <defs>
    <clipPath id="clip-path">
      <rect id="Rectangle_121" data-name="Rectangle 121" width="23.995" height="20.047" fill="none"/>
    </clipPath>
  </defs>
  <g id="Group_14" data-name="Group 14" clip-path="url(#clip-path)">
    <path id="Path_4003" data-name="Path 4003" d="M0,18.637V4.394A2.433,2.433,0,0,1,2.692,3.008,4.991,4.991,0,0,0,7.837.976,2.547,2.547,0,0,1,10.064,0C11.376.006,12.687,0,14,0a2.24,2.24,0,0,1,1.939.756A5.443,5.443,0,0,0,21.65,3a.522.522,0,0,1,.094,0,2.046,2.046,0,0,1,2.249,2.35q0,6.04,0,12.08c0,1.918-.66,2.6-2.565,2.6-6.276.005-12.553-.015-18.829.018A2.6,2.6,0,0,1,0,18.637m12.014-1.664A5.964,5.964,0,1,0,6,10.986a5.99,5.99,0,0,0,6.015,5.987m7.973-8.991A.923.923,0,0,0,20.967,7a.888.888,0,0,0-.942-.932.869.869,0,0,0-.975.971.887.887,0,0,0,.936.944" transform="translate(0 0)" fill="#b4a680"/>
    <path id="Path_4004" data-name="Path 4004" d="M101.175,91.963a5.964,5.964,0,1,1,5.984-5.924,5.99,5.99,0,0,1-5.984,5.924M101.131,91a5,5,0,1,0-5-5,5.021,5.021,0,0,0,5,5" transform="translate(-89.161 -74.99)" fill="#eeedec"/>
    <path id="Path_4005" data-name="Path 4005" d="M303.141,98.134a.887.887,0,0,1-.936-.944.869.869,0,0,1,.975-.971.888.888,0,0,1,.942.932.923.923,0,0,1-.981.984" transform="translate(-283.155 -90.153)" fill="#f2f1f1"/>
    <path id="Path_4006" data-name="Path 4006" d="M115.492,105.365a5,5,0,1,1,5.062-4.942,5.023,5.023,0,0,1-5.062,4.942" transform="translate(-103.523 -89.355)" fill="#b4a680"/>
  </g>
</svg>
