<svg xmlns="http://www.w3.org/2000/svg" xmlns:xlink="http://www.w3.org/1999/xlink" width="16" height="16" viewBox="0 0 16 16">
  <defs>
    <clipPath id="clip-path">
      <rect id="Rectangle_1818" data-name="Rectangle 1818" width="16" height="16" fill="none"/>
    </clipPath>
  </defs>
  <g id="Group_1055" data-name="Group 1055" transform="translate(0 0)">
    <g id="Group_876" data-name="Group 876" transform="translate(0 0)" clip-path="url(#clip-path)">
      <path id="Path_10039" data-name="Path 10039" d="M7.943,6.864c-1.795,0-3.591.006-5.385,0C1.1,6.856,0,5.38,0,3.445S1.1.013,2.555.009q5.417-.017,10.836,0c1.486,0,2.63,1.548,2.609,3.478-.02,1.9-1.151,3.372-2.606,3.378-1.817.006-3.634,0-5.45,0" transform="translate(0 0)" fill="#8c6e2f"/>
      <path id="Path_10040" data-name="Path 10040" d="M10.856,11.468a4.132,4.132,0,0,1-.005.614c-.072.458.2,1.19-.23,1.321-.394.119-.961.364-1.287-.442-.1-.237-.408-.107-.611-.044-.609.183-1.21.421-1.82.591-.668.188-1.287-.272-1.538-1.13-.152-.519-.676-1.009-.094-1.636.111-.119-.081-.118-.128-.179-.382-.5-.341-.92.149-1.159a6.307,6.307,0,0,1,1.124-.391c.385-.107.515-.3.308-.837A8.251,8.251,0,0,1,6.34,6.7c-.065-.358.018-.745.31-.859.341-.134.349.289.428.58A6.816,6.816,0,0,0,9.131,9.6c.292.287.457-.131.691-.169.938-.149,1-.117,1.025,1.159.006.293,0,.586,0,.879h.008" transform="translate(0.236 2.45)" fill="#8c6e2f"/>
      <path id="Path_10041" data-name="Path 10041" d="M1.924,1.553c.341.367.621.667.9.968C2.483,2.8,2.722,3.7,2.4,3.678c-.3-.017-.662.216-.892-.016-.208-.209-.2-.731-.263-1.073-.106-.559.666-.348.681-1.036" transform="translate(0.06 0.655)" fill="#fcffe7"/>
      <path id="Path_10042" data-name="Path 10042" d="M13.594,3.767c-.267-.495-.63.127-.821-.134s-.037-.85-.333-1.146c.28-.3.552-.815.843-.833.256-.016.532.522.8.815-.332.286-.086.99-.487,1.3" transform="translate(0.602 0.697)" fill="#fcffe7"/>
      <path id="Path_10043" data-name="Path 10043" d="M4.937,3.643c-.755.485-.707-.608-.885-1.167-.036-.109.519-.566.8-.862.158.452.672.427.746.916.062.4-.382,1.167-.663,1.113" transform="translate(0.196 0.68)" fill="#fcffe7"/>
      <path id="Path_10044" data-name="Path 10044" d="M11.324,2.6c-.572.053-.015,1.213-.585,1.042-.306-.092-.667.357-.814-.057a6.623,6.623,0,0,0-.284-1.1l.863-.866c.149.462.6.475.82.982" transform="translate(0.466 0.682)" fill="#fcffe7"/>
      <path id="Path_10045" data-name="Path 10045" d="M8.508,2.517c-.53.151-.066,1.159-.551,1.113-.279-.026-.643.256-.807-.031-.157-.272-.068-.773-.307-1.069.266-.314.519-.843.8-.876.247-.028.528.5.864.863" transform="translate(0.331 0.697)" fill="#fcffe7"/>
    </g>
  </g>
</svg>
