<svg id="Group_1035" data-name="Group 1035" xmlns="http://www.w3.org/2000/svg" xmlns:xlink="http://www.w3.org/1999/xlink" width="16.209" height="20.711" viewBox="0 0 16.209 20.711">
  <defs>
    <clipPath id="clip-path">
      <rect id="Rectangle_1716" data-name="Rectangle 1716" width="16.209" height="20.711" fill="#b4a680"/>
    </clipPath>
  </defs>
  <g id="Group_581" data-name="Group 581" clip-path="url(#clip-path)">
    <path id="Path_5604" data-name="Path 5604" d="M11.008,0A2.506,2.506,0,0,0,13.7,1.142a4.283,4.283,0,0,1,.726-.006c1.844,0,1.825,0,1.762,1.824-.016.457-.191.522-.578.521Q8.1,3.468.58,3.485c-.478,0-.569-.17-.575-.606C-.018,1.135-.033,1.136,1.683,1.136a4.809,4.809,0,0,1,.807.007A2.509,2.509,0,0,0,5.183,0Z" transform="translate(0)" fill="#b4a680"/>
    <path id="Path_5605" data-name="Path 5605" d="M30.735,74.1c0,2.1.006,4.206,0,6.308a2.365,2.365,0,0,1-2.627,2.649q-4.367,0-8.735,0a2.309,2.309,0,0,1-2.5-2.442c-.019-4.367,0-8.734-.019-13.1,0-.531.195-.614.66-.613q6.308.022,12.617,0c.518,0,.626.176.621.652-.022,2.183-.01,4.367-.01,6.551" transform="translate(-15.702 -62.347)" fill="#b4a680"/>
  </g>
</svg>
