<svg xmlns="http://www.w3.org/2000/svg" xmlns:xlink="http://www.w3.org/1999/xlink" width="54" height="54" viewBox="0 0 54 54">
  <defs>
    <clipPath id="clip-path">
      <rect id="Rectangle_1752" data-name="Rectangle 1752" width="27.496" height="27.712" fill="none"/>
    </clipPath>
  </defs>
  <g id="Group_1043" data-name="Group 1043" transform="translate(-305 -687)">
    <g id="Group_716" data-name="Group 716" transform="translate(275 -87)">
      <g id="Group_502" data-name="Group 502" transform="translate(30 774)">
        <g id="Group_501" data-name="Group 501" transform="translate(0 0)">
          <circle id="Ellipse_43" data-name="Ellipse 43" cx="27" cy="27" r="27" fill="#f3f1eb"/>
        </g>
      </g>
    </g>
    <g id="Group_718" data-name="Group 718" transform="translate(318 700)">
      <g id="Group_717" data-name="Group 717" clip-path="url(#clip-path)">
        <path id="Path_8044" data-name="Path 8044" d="M.425,146.034c-.711-1-.544-1.52.614-1.642.557-.059.621-.285.615-.743-.018-1.513.014-3.026-.014-4.538-.016-.873.358-1.258,1.215-1.234.785.022,1.572.029,2.356,0,.9-.035,1.312.335,1.288,1.272-.036,1.44.009,2.882-.018,4.322-.011.575.024.912.77.93.807.019.842-.357.835-.974-.023-2.053.019-4.107-.021-6.159-.019-.98.375-1.386,1.333-1.338.748.037,1.5.031,2.249,0,.9-.036,1.3.347,1.282,1.279-.033,1.981-.026,3.962,0,5.943.007.521-.338,1.236.757,1.251,1.052.014.815-.632.817-1.2.008-2.846,0-5.691,0-8.537,0-1.633.044-1.673,1.708-1.676.607,0,1.216.034,1.82-.007.967-.066,1.338.345,1.326,1.327-.037,3.025-.008,6.051-.017,9.077,0,.569-.058,1.015.793,1.014s.806-.421.8-1q-.015-7.132,0-14.265c0-1.449.1-1.542,1.511-1.549.678,0,1.359.035,2.035-.008.983-.063,1.315.379,1.309,1.345-.029,4.575-.015,9.149-.01,13.724,0,.869-.3,1.952,1.2,1.862.145-.009.3.148.45.228.238,1.1-.172,1.338-1.277,1.33-8.576-.059-17.153-.033-25.729-.033" transform="translate(0 -118.356)" fill="#b4a680"/>
        <path id="Path_8045" data-name="Path 8045" d="M27.649,6.271c-1.085.5-1.4.355-1.729-.811-.2-.719-.411-1.438-.659-2.306A30.243,30.243,0,0,1,16.513,12.2,28.711,28.711,0,0,1,2.034,17.446q-.213.015-.428.02C.982,17.482.28,17.5.237,16.66c-.044-.866.638-.851,1.278-.882,6.37-.31,11.82-2.89,16.656-6.944a25.392,25.392,0,0,0,5.737-6.713c-.895.247-1.632.47-2.38.651-.637.155-1.449.527-1.681-.454-.228-.966.685-1,1.293-1.2A23.982,23.982,0,0,0,24.863,0h1.072a1.732,1.732,0,0,1,.874,1.259,34.276,34.276,0,0,1,.841,3.931Z" transform="translate(-0.218)" fill="#b4a680"/>
      </g>
    </g>
  </g>
</svg>
