<svg id="Group_1051" data-name="Group 1051" xmlns="http://www.w3.org/2000/svg" xmlns:xlink="http://www.w3.org/1999/xlink" width="18" height="18" viewBox="0 0 18 18">
  <defs>
    <clipPath id="clip-path">
      <rect id="Rectangle_1789" data-name="Rectangle 1789" width="18" height="18" fill="none"/>
    </clipPath>
  </defs>
  <g id="Group_797" data-name="Group 797" clip-path="url(#clip-path)">
    <path id="Path_8627" data-name="Path 8627" d="M273.386,4.5c-.526.395-.824-.017-1.094-.349-.329-.4-.569-.43-.917-.011a13.31,13.31,0,0,1-1.234,1.242c-.249.23-.5.73-.9.354s.07-.65.306-.9c.45-.475.906-.945,1.39-1.385.277-.252.251-.4,0-.654-.667-.671-.652-.686-1.342,0-.33.33-.648.674-1,.987-.267.241-.533.774-.949.351-.38-.386.122-.647.354-.9a16.963,16.963,0,0,1,1.291-1.285c.357-.31.339-.513-.005-.817-.327-.288-.818-.572-.4-1.144h.422a9.241,9.241,0,0,1,1.84,1.694,16.135,16.135,0,0,1,2.237,2.384Z" transform="translate(-255.386)" fill="rgba(112,82,37,0.85)"/>
    <path id="Path_8628" data-name="Path 8628" d="M9.989,53.471c-.234-.2-.459-.369-.658-.565s-.506-.456-.177-.759c.264-.244.51-.048.722.165q2.751,2.76,5.507,5.515c.211.212.39.459.122.721-.287.28-.506.022-.712-.168a1.95,1.95,0,0,1-.3-.3c-.265-.382-.462-.275-.749.014-2.338,2.363-4.7,4.7-7.032,7.07a1.242,1.242,0,0,1-1.545.415,2.522,2.522,0,0,0-3.5.992,5.9,5.9,0,0,1-.838.847c-.208.2-.438.4-.716.1-.247-.268-.049-.484.129-.666.655-.669,1.31-1.339,1.992-1.98a.83.83,0,0,0,.244-.928c-.706-2.867-.983-1.886,1.081-4,1.98-2.025,4-4.01,6-6.014.127-.127.242-.266.424-.467" transform="translate(0 -49.675)" fill="rgba(112,82,37,0.85)"/>
    <path id="Path_8629" data-name="Path 8629" d="M63.23,106.765c.111-.123.168-.192.23-.256.729-.749.729-.749,1.522-.035.209.188.429.445.713.158.261-.264.084-.51-.129-.721-.249-.247-.5-.5-.744-.743.947-1.024.947-1.024,1.9-.075.1.1.2.2.3.3.213.2.468.27.671.036.182-.21.064-.438-.114-.624-.389-.406-.775-.815-1.171-1.232a1.564,1.564,0,0,0,.146-.16c.379-.517.752-.7,1.192-.045.142.209.394.375.661.162s.136-.452-.032-.667c-.182-.235-.616-.416-.546-.663.086-.3.445-.516.718-.8.286.3.536.581.8.845.2.2.435.3.671.067s.079-.432-.083-.613a4.764,4.764,0,0,0-.5-.5c-.264-.218-.314-.373-.037-.665.308-.325.45-.145.659.067.79.8,1.578,1.6,2.388,2.383.246.237.239.365,0,.606q-3.589,3.568-7.154,7.159a1.191,1.191,0,0,1-.1.1c-.405.319-2.549-.308-2.7-.8-.169-.557-.311-1.122-.462-1.685a.485.485,0,0,1,.083-.517c.335-.368.62-.7,1.049-.08a4.759,4.759,0,0,0,.793.793.374.374,0,0,0,.56.04.38.38,0,0,0-.015-.612c-.41-.416-.842-.812-1.274-1.224" transform="translate(-59.187 -95.806)" fill="#fff"/>
  </g>
</svg>
