<svg xmlns="http://www.w3.org/2000/svg" xmlns:xlink="http://www.w3.org/1999/xlink" width="24" height="24" viewBox="0 0 24 24">
  <defs>
    <clipPath id="clip-path">
      <rect id="Rectangle_1873" data-name="Rectangle 1873" width="24" height="24" fill="rgba(112,82,37,0.9)"/>
    </clipPath>
  </defs>
  <g id="Group_1046" data-name="Group 1046" clip-path="url(#clip-path)">
    <path id="Path_14887" data-name="Path 14887" d="M245.881,7.986c-.31.109-.219.424-.294.635A6.51,6.51,0,1,1,238.652.132a6.461,6.461,0,0,1,7.053,5.056c.017.069.115.117.175.176Z" transform="translate(-221.881 -0.097)" fill="rgba(112,82,37,0.9)"/>
    <path id="Path_14888" data-name="Path 14888" d="M138.252,447.235a4.824,4.824,0,0,1-2.484-2.317c-.21-.526-.184-.7.439-.691,2.2.028,4.408.011,6.7.011a4.08,4.08,0,0,1-2.784,3Z" transform="translate(-129.239 -423.235)" fill="rgba(112,82,37,0.9)"/>
    <path id="Path_14889" data-name="Path 14889" d="M9.927,20.045c-2.529,0-5.058-.015-7.586.008-.976.009-1.827-.179-2.215-1.181a1.92,1.92,0,0,1,.76-2.217,6.893,6.893,0,0,0,2.139-5.1,18.836,18.836,0,0,1,.15-4.009A6.85,6.85,0,0,1,8.265,2.246c.4-.115.868-.125.758-.781A1.108,1.108,0,0,1,9.67.074a.9.9,0,0,1,1.1.293,1.49,1.49,0,0,1,.095,1.753A8.3,8.3,0,0,0,9.554,6.9a7.963,7.963,0,0,0,7.31,7.536,1.054,1.054,0,0,1,1.067.666,6.032,6.032,0,0,0,1.4,1.74,1.724,1.724,0,0,1,.539,2.1,1.866,1.866,0,0,1-1.887,1.107q-4.027-.007-8.055,0" transform="translate(0 -0.001)" fill="rgba(112,82,37,0.9)"/>
    <path id="Path_14890" data-name="Path 14890" d="M336.584,86.638q0,.84,0,1.681c0,.505-.094.982-.721.985s-.738-.426-.723-.96c.022-.777,0-1.556.009-2.334.007-.405.016-.735-.563-.7a.65.65,0,0,1-.707-.7c0-.421.307-.638.728-.712,1.573-.276,1.977.05,1.978,1.622q0,.56,0,1.12" transform="translate(-318.1 -79.847)" fill="#f3f1eb"/>
  </g>
</svg>
