<svg id="Group_1049" data-name="Group 1049" xmlns="http://www.w3.org/2000/svg" xmlns:xlink="http://www.w3.org/1999/xlink" width="16.67" height="16.67" viewBox="0 0 16.67 16.67">
  <defs>
    <clipPath id="clip-path">
      <rect id="Rectangle_1757" data-name="Rectangle 1757" width="16.67" height="16.67" fill="none"/>
    </clipPath>
  </defs>
  <g id="Mask_Group_744" data-name="Mask Group 744" clip-path="url(#clip-path)">
    <path id="Path_8055" data-name="Path 8055" d="M0,8.272a8.336,8.336,0,1,1,8.254,8.4A8.307,8.307,0,0,1,0,8.272" transform="translate(0 -0.001)" fill="#b4a680"/>
    <path id="Path_8056" data-name="Path 8056" d="M46.984,52.349c.171.18.352.368.53.56.1.108.2.229.074.372a.285.285,0,0,1-.444.012c-.363-.348-.711-.711-1.066-1.067-.179-.179-.122-.334.037-.49.307-.3.606-.613.916-.912.146-.141.3-.381.527-.133s-.042.377-.165.529A5.012,5.012,0,0,1,47,51.6a4.31,4.31,0,0,0,2.3-.749,5.866,5.866,0,0,0,2.526-6.786,5.864,5.864,0,0,0-11.358.684A5.858,5.858,0,0,0,44.035,51.3a1.623,1.623,0,0,1,.2.068c.188.107.538.121.383.469-.129.289-.379.112-.56.045A6.177,6.177,0,0,1,40.2,48.012a6.419,6.419,0,1,1,7.139,4.164c-.121.02-.3-.067-.351.172" transform="translate(-37.896 -37.513)" fill="#fdfdfd"/>
    <path id="Path_8057" data-name="Path 8057" d="M154.927,85.928c0,.383,0,.765,0,1.148a.972.972,0,0,0,1.029,1.048c.574.006,1.148,0,1.722,0,.235,0,.542-.033.53.307-.009.275-.283.267-.5.267-.454,0-.909,0-1.363,0a1.346,1.346,0,0,0-1.209.386c-.326.374-.8.255-1.137-.1a.713.713,0,0,1-.019-1.088,1.137,1.137,0,0,0,.374-1.071c-.005-.67-.01-1.34,0-2.009.005-.262-.119-.673.3-.668.353,0,.261.386.267.634.009.382,0,.765,0,1.148" transform="translate(-146.304 -80.078)" fill="#fefefe"/>
    <path id="Path_8058" data-name="Path 8058" d="M167.128,67.692a.277.277,0,0,1-.321.257.281.281,0,0,1-.244-.3.284.284,0,1,1,.566.039" transform="translate(-158.511 -64.117)" fill="#faf9f7"/>
    <path id="Path_8059" data-name="Path 8059" d="M67.636,167.076a.266.266,0,0,1-.244-.291.257.257,0,0,1,.32-.276.273.273,0,0,1,.255.282.3.3,0,0,1-.331.284" transform="translate(-64.134 -158.455)" fill="#faf9f7"/>
    <path id="Path_8060" data-name="Path 8060" d="M266.11,166.808c-.034.152-.1.27-.274.266-.193,0-.322-.119-.306-.3a.284.284,0,0,1,.347-.262.276.276,0,0,1,.233.3" transform="translate(-252.693 -158.456)" fill="#faf9f7"/>
    <path id="Path_8061" data-name="Path 8061" d="M166.807,266.082c-.152-.034-.27-.1-.265-.274,0-.193.119-.322.3-.306a.285.285,0,0,1,.263.347.277.277,0,0,1-.3.233" transform="translate(-158.491 -252.665)" fill="#faf9f7"/>
    <path id="Path_8062" data-name="Path 8062" d="M117.325,80.8a.288.288,0,0,1-.229-.345.24.24,0,0,1,.306-.222.3.3,0,0,1,.23.32c0,.171-.082.267-.308.247" transform="translate(-111.433 -76.343)" fill="#faf9f7"/>
    <path id="Path_8063" data-name="Path 8063" d="M217.171,80.569c-.049.2-.113.341-.326.341a.212.212,0,0,1-.229-.218.3.3,0,0,1,.266-.358c.186-.024.222.133.289.235" transform="translate(-206.143 -76.448)" fill="#faf9f7"/>
    <path id="Path_8064" data-name="Path 8064" d="M80.736,117.589c-.192-.022-.338-.1-.327-.306a.24.24,0,0,1,.292-.233.285.285,0,0,1,.28.268c.01.181-.087.255-.246.271" transform="translate(-76.522 -111.389)" fill="#faf9f7"/>
    <path id="Path_8065" data-name="Path 8065" d="M252.757,117.678a.231.231,0,0,1-.229-.291.284.284,0,0,1,.3-.246.24.24,0,0,1,.272.256c-.009.209-.16.271-.343.281" transform="translate(-240.316 -111.478)" fill="#faf9f7"/>
    <path id="Path_8066" data-name="Path 8066" d="M80.552,217.143c-.144-.051-.283-.112-.248-.294a.3.3,0,0,1,.372-.245.211.211,0,0,1,.2.24c0,.221-.165.261-.327.3" transform="translate(-76.416 -206.13)" fill="#faf9f7"/>
    <path id="Path_8067" data-name="Path 8067" d="M252.736,216.458c.225.034.364.126.337.328a.246.246,0,0,1-.313.208.283.283,0,0,1-.262-.285c0-.2.128-.226.238-.252" transform="translate(-240.291 -205.994)" fill="#faf9f7"/>
    <path id="Path_8068" data-name="Path 8068" d="M117.261,252.584c.225-.014.305.082.3.253a.3.3,0,0,1-.236.317.243.243,0,0,1-.3-.228.286.286,0,0,1,.234-.341" transform="translate(-111.368 -240.372)" fill="#faf9f7"/>
    <path id="Path_8069" data-name="Path 8069" d="M217.158,252.747c-.034.174-.088.31-.267.3-.207-.009-.283-.157-.282-.341a.217.217,0,0,1,.213-.235c.221-.02.272.142.337.275" transform="translate(-206.137 -240.266)" fill="#faf9f7"/>
    <path id="Path_8070" data-name="Path 8070" d="M166.782,166.488a.3.3,0,1,1-.273-.327c.2.012.282.134.273.327" transform="translate(-158.146 -158.127)" fill="#b4a680"/>
  </g>
</svg>
