<svg id="Group_1045" data-name="Group 1045" xmlns="http://www.w3.org/2000/svg" xmlns:xlink="http://www.w3.org/1999/xlink" width="73.817" height="82.702" viewBox="0 0 73.817 82.702">
  <defs>
    <clipPath id="clip-path">
      <rect id="Rectangle_1849" data-name="Rectangle 1849" width="73.817" height="82.702" fill="none"/>
    </clipPath>
  </defs>
  <g id="Group_950" data-name="Group 950" clip-path="url(#clip-path)">
    <path id="Path_11300" data-name="Path 11300" d="M33.91,73.548c7.654,0,15.309.025,22.963-.009,4.463-.02,5.655-1.618,3.908-5.648A27.909,27.909,0,0,1,58.47,55.26c.1-2.258.783-3.848,3.2-3.805,2.165.038,3.171,1.483,2.956,3.606-.413,4.079.922,7.743,2.342,11.463,2.744,7.19-1.461,13.093-9.208,13.15a16.246,16.246,0,0,1-2.294-.013c-3.94-.537-6.473.295-8.39,4.584-2.539,5.68-7.948,8.1-14.221,7.633-5.933-.444-10.492-3.436-12.658-8.993-1.128-2.894-2.668-3.531-5.364-3.245a41.447,41.447,0,0,1-5.354.028C3.209,79.516-1.781,73.987.609,68.36,4.25,59.792,3.214,51.1,3.37,42.392A30.78,30.78,0,0,1,23.608,14.064a54.038,54.038,0,0,1,5.905-1.526c2.063-.476,3.625.282,4.115,2.354.5,2.127-.652,3.353-2.74,3.761a27.206,27.206,0,0,0-9.3,3.259c-7.64,4.715-11.564,11.629-12.019,20.5-.2,3.818-.182,7.662-.009,11.482A31.634,31.634,0,0,1,7.105,68.424c-1.487,3.373-.258,5.068,3.459,5.1,7.781.072,15.564.022,23.346.022" transform="translate(0 -9.232)" fill="rgba(112,82,37,0.69)"/>
    <path id="Path_11301" data-name="Path 11301" d="M145.168,18.279a18.363,18.363,0,1,1,36.726.173,18.363,18.363,0,1,1-36.726-.173" transform="translate(-108.077 0)" fill="rgba(112,82,37,0.69)"/>
    <path id="Path_11302" data-name="Path 11302" d="M100.424,275.88h16.623c-1.145,3.845-3.984,5.437-7.481,5.99-3.634.575-6.867-1.577-9.142-5.99" transform="translate(-74.766 -205.393)" fill="#faf9fa"/>
    <path id="Path_11303" data-name="Path 11303" d="M186.836,25.633,170.775,41.722a11.277,11.277,0,0,1,2.072-14.375c4.074-3.937,9.446-4.534,13.989-1.714" transform="translate(-125.878 -17.78)" fill="#fbfbfd"/>
    <path id="Path_11304" data-name="Path 11304" d="M212.572,51.476c2.533,4.673,1.867,9.781-2.126,13.806a11.275,11.275,0,0,1-13.889,2.21l16.014-16.015" transform="translate(-146.337 -38.324)" fill="#fbfbfd"/>
  </g>
</svg>
