<svg xmlns="http://www.w3.org/2000/svg" width="11" height="12" viewBox="0 0 11 12">
  <g id="Polygon_10" data-name="Polygon 10" fill="#fff">
    <path d="M4.2,3.171a1.4,1.4,0,0,1,2.6,0l.047.115a1.4,1.4,0,0,0,1.1.857l.4.058a1.4,1.4,0,0,1,.828,2.345l-.536.577a1.4,1.4,0,0,0-.356,1.187l.1.6a1.4,1.4,0,0,1-2.134,1.418h0a1.4,1.4,0,0,0-1.5,0h0A1.4,1.4,0,0,1,2.617,8.909l.1-.6A1.4,1.4,0,0,0,2.36,7.123l-.536-.577A1.4,1.4,0,0,1,2.652,4.2l.4-.058a1.4,1.4,0,0,0,1.1-.857Z" stroke="none"/>
    <path d="M 5.5 3.299605369567871 C 5.398849964141846 3.299605369567871 5.215819835662842 3.332165718078613 5.126510143280029 3.550215721130371 L 5.07958984375 3.664785385131836 C 4.758269786834717 4.449275970458984 4.03741979598999 5.011775493621826 3.198339939117432 5.132755756378174 L 2.794619560241699 5.19096565246582 C 2.584320068359375 5.221295833587646 2.50199031829834 5.370095729827881 2.471630096435547 5.456095695495605 C 2.441269874572754 5.542105674743652 2.41193962097168 5.709625720977783 2.55659008026123 5.865245819091797 L 3.09266996383667 6.441965579986572 C 3.596670150756836 6.984185695648193 3.824820041656494 7.743825912475586 3.702980041503906 8.474005699157715 L 3.602950096130371 9.073455810546875 C 3.582300186157227 9.197216033935547 3.61028003692627 9.305365562438965 3.686110019683838 9.394895553588867 C 3.765699863433838 9.488865852355957 3.887440204620361 9.547245979309082 4.003809928894043 9.547245979309082 C 4.0765700340271 9.547245979309082 4.146180152893066 9.525625228881836 4.216569900512695 9.481175422668457 C 4.601230144500732 9.238245964050293 5.045040130615234 9.109835624694824 5.500010013580322 9.109835624694824 C 5.954959869384766 9.109835624694824 6.398759841918945 9.238235473632812 6.783420085906982 9.481155395507812 C 6.853839874267578 9.525625228881836 6.9234299659729 9.547245979309082 6.996190071105957 9.547245979309082 C 7.112529754638672 9.547245979309082 7.234250068664551 9.488855361938477 7.313859939575195 9.394865989685059 C 7.389699935913086 9.305315971374512 7.417690277099609 9.197185516357422 7.397049903869629 9.073465347290039 L 7.297019958496094 8.473995208740234 C 7.175179958343506 7.743825912475586 7.403329849243164 6.984185695648193 7.907340049743652 6.44195556640625 L 8.443399429321289 5.865255832672119 C 8.58806037902832 5.709625720977783 8.558730125427246 5.542105674743652 8.528369903564453 5.456095695495605 C 8.49800968170166 5.370095729827881 8.415679931640625 5.221295833587646 8.205379486083984 5.19096565246582 L 7.801650047302246 5.132755756378174 C 6.96258020401001 5.011775493621826 6.241730213165283 4.449275970458984 5.920400142669678 3.664755821228027 L 5.873499870300293 3.550235748291016 C 5.784180164337158 3.332165718078613 5.601150035858154 3.299605369567871 5.5 3.299605369567871 M 5.5 2.299603462219238 C 6.030445098876953 2.299603462219238 6.560890197753906 2.590140342712402 6.798890113830566 3.171216011047363 L 6.845799922943115 3.28575611114502 C 7.034279823303223 3.745925903320312 7.452179908752441 4.072025299072266 7.944370269775391 4.142995834350586 L 8.348090171813965 4.201205253601074 C 9.468830108642578 4.362805366516113 9.946760177612305 5.716695785522461 9.175849914550781 6.546075820922852 L 8.639780044555664 7.122785568237305 C 8.343389511108398 7.44165563583374 8.211730003356934 7.880005836486816 8.283380508422852 8.309415817260742 L 8.38340950012207 8.908875465393066 C 8.582950592041016 10.10475540161133 7.27457857131958 10.97404479980469 6.249470233917236 10.32667541503906 L 6.249460220336914 10.3266658782959 C 5.791650295257568 10.03755569458008 5.208350658416748 10.03755569458008 4.750539779663086 10.32667541503906 L 4.750529766082764 10.32667541503906 C 3.725422382354736 10.97404670715332 2.417050361633301 10.10475635528564 2.616589546203613 8.908875465393066 L 2.716620445251465 8.309415817260742 C 2.788269996643066 7.880005836486816 2.656609535217285 7.44165563583374 2.360219955444336 7.122785568237305 L 1.824150085449219 6.546075820922852 C 1.053239822387695 5.716695785522461 1.531169891357422 4.362805366516113 2.651909828186035 4.201205253601074 L 3.055630207061768 4.142995834350586 C 3.547820091247559 4.072025299072266 3.965720176696777 3.745925903320312 4.154200077056885 3.28575611114502 L 4.201109886169434 3.171216011047363 C 4.439109802246094 2.590140342712402 4.969554901123047 2.299603462219238 5.5 2.299603462219238 Z" stroke="none" fill="rgba(112,82,37,0.69)"/>
  </g>
</svg>
