<svg id="Settings" xmlns="http://www.w3.org/2000/svg" width="24" height="24" viewBox="0 0 24 24">
  <rect id="Rectangle_193" data-name="Rectangle 193" width="24" height="24" fill="none"/>
  <path id="Path_104" data-name="Path 104" d="M271.447,15a3,3,0,1,0-3.053-3A3.036,3.036,0,0,0,271.447,15Zm-6.258-9.6a8.655,8.655,0,0,1,3.663-1.95L270.074,0h3.053l1.221,3.45A10.718,10.718,0,0,1,278.01,5.4l3.663-.75,1.526,2.7-2.442,2.7A8.408,8.408,0,0,1,280.91,12c0,.6-.153,1.35-.153,1.95l2.442,2.7-1.526,2.7-3.663-.75a8.655,8.655,0,0,1-3.663,1.95L273.126,24h-3.053l-1.221-3.45a10.718,10.718,0,0,1-3.663-1.95l-3.663.75L260,16.65l2.442-2.7a8.408,8.408,0,0,1-.153-1.95c0-.6.153-1.35.153-1.95L260,7.35l1.526-2.7Z" transform="translate(-260)" fill="#d2c9b3" fill-rule="evenodd"/>
</svg>
