<svg xmlns="http://www.w3.org/2000/svg" width="18" height="18" viewBox="0 0 18 18">
  <path id="star" d="M17.952,7.3a.965.965,0,0,0-.823-.686l-5.2-.492L9.88,1.1a.942.942,0,0,0-1.76,0L6.066,6.12l-5.2.492A.968.968,0,0,0,.047,7.3,1.028,1.028,0,0,0,.326,8.359l3.928,3.594L3.1,17.275a1.02,1.02,0,0,0,.372,1.031.922.922,0,0,0,1.052.049L9,15.559l4.48,2.8a.923.923,0,0,0,1.052-.049,1.02,1.02,0,0,0,.372-1.031l-1.158-5.323,3.928-3.594A1.028,1.028,0,0,0,17.952,7.3ZM9.086,15.5" transform="translate(0 -0.496)" fill="#ffe120"/>
</svg>
